<?xml version="1.0" encoding="utf-8" standalone="no"?>
<!DOCTYPE svg PUBLIC "-//W3C//DTD SVG 1.1//EN"
  "http://www.w3.org/Graphics/SVG/1.1/DTD/svg11.dtd">
<svg xmlns:xlink="http://www.w3.org/1999/xlink" width="390.388945pt" height="132.29665pt" viewBox="0 0 390.388945 132.29665" xmlns="http://www.w3.org/2000/svg" version="1.1">
 <metadata>
  <rdf:RDF xmlns:dc="http://purl.org/dc/elements/1.1/" xmlns:cc="http://creativecommons.org/ns#" xmlns:rdf="http://www.w3.org/1999/02/22-rdf-syntax-ns#">
   <cc:Work>
    <dc:type rdf:resource="http://purl.org/dc/dcmitype/StillImage"/>
    <dc:date>2025-10-13T19:21:54.412049</dc:date>
    <dc:format>image/svg+xml</dc:format>
    <dc:creator>
     <cc:Agent>
      <dc:title>Matplotlib v3.7.1, https://matplotlib.org/</dc:title>
     </cc:Agent>
    </dc:creator>
   </cc:Work>
  </rdf:RDF>
 </metadata>
 <defs>
  <style type="text/css">*{stroke-linejoin: round; stroke-linecap: butt}</style>
 </defs>
 <g id="figure_1">
  <g id="patch_1">
   <path d="M 0 132.29665 
L 390.388945 132.29665 
L 390.388945 0 
L 0 0 
L 0 132.29665 
z
" style="fill: none"/>
  </g>
  <g id="axes_1">
   <g id="patch_2">
    <path d="M 53.4144 103.186 
L 286.696305 103.186 
L 286.696305 22.68285 
L 53.4144 22.68285 
L 53.4144 103.186 
z
" style="fill: none"/>
   </g>
   <g id="matplotlib.axis_1">
    <g id="xtick_1">
     <g id="text_1">
      <text style="fill: #373737; font: 11.44px 'Arial', 'DejaVu Sans', 'Liberation Sans', 'Bitstream Vera Sans', sans-serif; text-anchor: middle" x="92.294718" y="120.178612" transform="rotate(-0 92.294718 120.178612)">OVERFLOW</text>
     </g>
    </g>
    <g id="xtick_2">
     <g id="text_2">
      <text style="fill: #373737; font: 11.44px 'Arial', 'DejaVu Sans', 'Liberation Sans', 'Bitstream Vera Sans', sans-serif; text-anchor: middle" x="170.055353" y="120.178612" transform="rotate(-0 170.055353 120.178612)">EXOENZYME</text>
     </g>
    </g>
    <g id="xtick_3">
     <g id="text_3">
      <text style="fill: #373737; font: 11.44px 'Arial', 'DejaVu Sans', 'Liberation Sans', 'Bitstream Vera Sans', sans-serif; text-anchor: middle" x="247.815988" y="120.178612" transform="rotate(-0 247.815988 120.178612)">ROS</text>
     </g>
    </g>
   </g>
   <g id="matplotlib.axis_2">
    <g id="ytick_1">
     <g id="text_4">
      <text style="fill: #373737; font: 11.44px 'Arial', 'DejaVu Sans', 'Liberation Sans', 'Bitstream Vera Sans', sans-serif; text-anchor: end" x="45.1144" y="105.568815" transform="rotate(-0 45.1144 105.568815)">0</text>
     </g>
    </g>
    <g id="ytick_2">
     <g id="text_5">
      <text style="fill: #373737; font: 11.44px 'Arial', 'DejaVu Sans', 'Liberation Sans', 'Bitstream Vera Sans', sans-serif; text-anchor: end" x="45.1144" y="66.298986" transform="rotate(-0 45.1144 66.298986)">200</text>
     </g>
    </g>
    <g id="ytick_3">
     <g id="text_6">
      <text style="fill: #373737; font: 11.44px 'Arial', 'DejaVu Sans', 'Liberation Sans', 'Bitstream Vera Sans', sans-serif; text-anchor: end" x="45.1144" y="27.029156" transform="rotate(-0 45.1144 27.029156)">400</text>
     </g>
    </g>
    <g id="text_7">
     <text style="fill: #373737; font: 12.48px 'Arial', 'DejaVu Sans', 'Liberation Sans', 'Bitstream Vera Sans', sans-serif; text-anchor: middle" x="16.68285" y="62.934425" transform="rotate(-90 16.68285 62.934425)">µM C</text>
    </g>
   </g>
   <g id="PolyCollection_1">
    <defs>
     <path id="m24ace82714" d="M 75.819304 -32.559199 
L 62.11375 -32.559199 
L 62.075634 -32.565448 
L 62.03834 -32.571698 
L 62.00187 -32.577948 
L 61.966227 -32.584197 
L 61.931413 -32.590447 
L 61.897429 -32.596697 
L 61.864276 -32.602946 
L 61.831955 -32.609196 
L 61.800465 -32.615446 
L 61.769806 -32.621695 
L 61.739977 -32.627945 
L 61.710977 -32.634195 
L 61.682804 -32.640444 
L 61.655456 -32.646694 
L 61.62893 -32.652944 
L 61.603226 -32.659193 
L 61.578338 -32.665443 
L 61.554265 -32.671692 
L 61.531002 -32.677942 
L 61.508547 -32.684192 
L 61.486895 -32.690441 
L 61.466042 -32.696691 
L 61.445985 -32.702941 
L 61.42672 -32.70919 
L 61.408241 -32.71544 
L 61.390545 -32.72169 
L 61.373628 -32.727939 
L 61.357485 -32.734189 
L 61.342111 -32.740439 
L 61.327502 -32.746688 
L 61.313655 -32.752938 
L 61.300565 -32.759188 
L 61.288227 -32.765437 
L 61.276638 -32.771687 
L 61.265793 -32.777937 
L 61.25569 -32.784186 
L 61.246325 -32.790436 
L 61.237693 -32.796685 
L 61.229793 -32.802935 
L 61.222621 -32.809185 
L 61.216174 -32.815434 
L 61.21045 -32.821684 
L 61.205446 -32.827934 
L 61.201161 -32.834183 
L 61.197593 -32.840433 
L 61.19474 -32.846683 
L 61.192601 -32.852932 
L 61.191176 -32.859182 
L 61.190464 -32.865432 
L 61.190464 -32.871681 
L 61.191176 -32.877931 
L 61.192601 -32.884181 
L 61.19474 -32.89043 
L 61.197593 -32.89668 
L 61.201161 -32.90293 
L 61.205446 -32.909179 
L 61.21045 -32.915429 
L 61.216174 -32.921678 
L 61.222621 -32.927928 
L 61.229793 -32.934178 
L 61.237693 -32.940427 
L 61.246325 -32.946677 
L 61.25569 -32.952927 
L 61.265793 -32.959176 
L 61.276638 -32.965426 
L 61.288227 -32.971676 
L 61.300565 -32.977925 
L 61.313655 -32.984175 
L 61.327502 -32.990425 
L 61.342111 -32.996674 
L 61.357485 -33.002924 
L 61.373628 -33.009174 
L 61.390545 -33.015423 
L 61.408241 -33.021673 
L 61.42672 -33.027923 
L 61.445985 -33.034172 
L 61.466042 -33.040422 
L 61.486895 -33.046671 
L 61.508547 -33.052921 
L 61.531002 -33.059171 
L 61.554265 -33.06542 
L 61.578338 -33.07167 
L 61.603226 -33.07792 
L 61.62893 -33.084169 
L 61.655456 -33.090419 
L 61.682804 -33.096669 
L 61.710977 -33.102918 
L 61.739977 -33.109168 
L 61.769806 -33.115418 
L 61.800465 -33.121667 
L 61.831955 -33.127917 
L 61.864276 -33.134167 
L 61.897429 -33.140416 
L 61.931413 -33.146666 
L 61.966227 -33.152916 
L 62.00187 -33.159165 
L 62.03834 -33.165415 
L 62.075634 -33.171664 
L 62.11375 -33.177914 
L 75.819304 -33.177914 
L 75.819304 -33.177914 
L 75.85742 -33.171664 
L 75.894714 -33.165415 
L 75.931184 -33.159165 
L 75.966827 -33.152916 
L 76.001641 -33.146666 
L 76.035625 -33.140416 
L 76.068778 -33.134167 
L 76.101099 -33.127917 
L 76.132589 -33.121667 
L 76.163248 -33.115418 
L 76.193077 -33.109168 
L 76.222077 -33.102918 
L 76.25025 -33.096669 
L 76.277598 -33.090419 
L 76.304124 -33.084169 
L 76.329828 -33.07792 
L 76.354716 -33.07167 
L 76.37879 -33.06542 
L 76.402052 -33.059171 
L 76.424508 -33.052921 
L 76.446159 -33.046671 
L 76.467012 -33.040422 
L 76.487069 -33.034172 
L 76.506334 -33.027923 
L 76.524813 -33.021673 
L 76.542509 -33.015423 
L 76.559426 -33.009174 
L 76.57557 -33.002924 
L 76.590943 -32.996674 
L 76.605552 -32.990425 
L 76.619399 -32.984175 
L 76.632489 -32.977925 
L 76.644827 -32.971676 
L 76.656416 -32.965426 
L 76.667261 -32.959176 
L 76.677364 -32.952927 
L 76.686729 -32.946677 
L 76.695361 -32.940427 
L 76.703261 -32.934178 
L 76.710433 -32.927928 
L 76.71688 -32.921678 
L 76.722604 -32.915429 
L 76.727608 -32.909179 
L 76.731893 -32.90293 
L 76.735461 -32.89668 
L 76.738314 -32.89043 
L 76.740453 -32.884181 
L 76.741878 -32.877931 
L 76.742591 -32.871681 
L 76.742591 -32.865432 
L 76.741878 -32.859182 
L 76.740453 -32.852932 
L 76.738314 -32.846683 
L 76.735461 -32.840433 
L 76.731893 -32.834183 
L 76.727608 -32.827934 
L 76.722604 -32.821684 
L 76.71688 -32.815434 
L 76.710433 -32.809185 
L 76.703261 -32.802935 
L 76.695361 -32.796685 
L 76.686729 -32.790436 
L 76.677364 -32.784186 
L 76.667261 -32.777937 
L 76.656416 -32.771687 
L 76.644827 -32.765437 
L 76.632489 -32.759188 
L 76.619399 -32.752938 
L 76.605552 -32.746688 
L 76.590943 -32.740439 
L 76.57557 -32.734189 
L 76.559426 -32.727939 
L 76.542509 -32.72169 
L 76.524813 -32.71544 
L 76.506334 -32.70919 
L 76.487069 -32.702941 
L 76.467012 -32.696691 
L 76.446159 -32.690441 
L 76.424508 -32.684192 
L 76.402052 -32.677942 
L 76.37879 -32.671692 
L 76.354716 -32.665443 
L 76.329828 -32.659193 
L 76.304124 -32.652944 
L 76.277598 -32.646694 
L 76.25025 -32.640444 
L 76.222077 -32.634195 
L 76.193077 -32.627945 
L 76.163248 -32.621695 
L 76.132589 -32.615446 
L 76.101099 -32.609196 
L 76.068778 -32.602946 
L 76.035625 -32.596697 
L 76.001641 -32.590447 
L 75.966827 -32.584197 
L 75.931184 -32.577948 
L 75.894714 -32.571698 
L 75.85742 -32.565448 
L 75.819304 -32.559199 
z
" style="stroke: #333333; stroke-width: 0.3"/>
    </defs>
    <g clip-path="url(#p24cad8495f)">
     <use xlink:href="#m24ace82714" x="0" y="132.29665" style="fill: #3c2f7b; stroke: #333333; stroke-width: 0.3"/>
    </g>
   </g>
   <g id="PolyCollection_2">
    <defs>
     <path id="m39694f0f1d" d="M 85.334927 -31.359464 
L 83.702381 -31.359464 
L 83.139152 -31.548349 
L 82.34747 -31.737233 
L 81.339446 -31.926117 
L 80.209736 -32.115002 
L 79.112413 -32.303886 
L 78.189877 -32.492771 
L 77.516432 -32.681655 
L 77.092478 -32.87054 
L 76.868377 -33.059424 
L 76.772321 -33.248309 
L 76.742591 -33.437193 
L 76.759179 -33.626078 
L 76.847269 -33.814962 
L 77.041083 -34.003847 
L 77.341151 -34.192731 
L 77.707256 -34.381616 
L 78.086909 -34.5705 
L 78.442717 -34.759384 
L 78.755952 -34.948269 
L 79.017421 -35.137153 
L 79.22157 -35.326038 
L 79.362841 -35.514922 
L 79.430121 -35.703807 
L 79.406611 -35.892691 
L 79.282683 -36.081576 
L 79.073171 -36.27046 
L 78.82053 -36.459345 
L 78.576907 -36.648229 
L 78.37942 -36.837114 
L 78.241341 -37.025998 
L 78.167248 -37.214882 
L 78.173952 -37.403767 
L 78.290743 -37.592651 
L 78.537271 -37.781536 
L 78.904031 -37.97042 
L 79.353597 -38.159305 
L 79.836678 -38.348189 
L 80.310061 -38.537074 
L 80.749485 -38.725958 
L 81.152166 -38.914843 
L 81.527662 -39.103727 
L 81.88596 -39.292612 
L 82.231705 -39.481496 
L 82.562099 -39.67038 
L 82.86512 -39.859265 
L 83.123869 -40.048149 
L 83.328132 -40.237034 
L 83.481771 -40.425918 
L 83.5991 -40.614803 
L 83.696328 -40.803687 
L 83.78468 -40.992572 
L 83.867009 -41.181456 
L 83.939998 -41.370341 
L 84.001414 -41.559225 
L 84.054746 -41.74811 
L 84.105202 -41.936994 
L 84.152903 -42.125878 
L 84.193514 -42.314763 
L 84.225437 -42.503647 
L 84.252885 -42.692532 
L 84.280898 -42.881416 
L 84.310107 -43.070301 
L 84.337866 -43.259185 
L 84.362276 -43.44807 
L 84.382985 -43.636954 
L 84.399231 -43.825839 
L 84.409548 -44.014723 
L 84.41405 -44.203608 
L 84.415549 -44.392492 
L 84.417177 -44.581376 
L 84.419633 -44.770261 
L 84.422028 -44.959145 
L 84.424959 -45.14803 
L 84.43111 -45.336914 
L 84.44237 -45.525799 
L 84.457287 -45.714683 
L 84.471972 -45.903568 
L 84.483084 -46.092452 
L 84.489589 -46.281337 
L 84.492373 -46.470221 
L 84.493095 -46.659106 
L 84.493403 -46.84799 
L 84.49441 -47.036874 
L 84.496263 -47.225759 
L 84.498198 -47.414643 
L 84.499388 -47.603528 
L 84.499912 -47.792412 
L 84.500784 -47.981297 
L 84.502913 -48.170181 
L 84.506096 -48.359066 
L 84.509182 -48.54795 
L 84.511191 -48.736835 
L 84.512018 -48.925719 
L 84.511974 -49.114604 
L 84.511058 -49.303488 
L 84.509125 -49.492372 
L 84.506731 -49.681257 
L 84.505293 -49.870141 
L 84.506039 -50.059026 
L 84.531269 -50.059026 
L 84.531269 -50.059026 
L 84.532015 -49.870141 
L 84.530577 -49.681257 
L 84.528183 -49.492372 
L 84.52625 -49.303488 
L 84.525334 -49.114604 
L 84.52529 -48.925719 
L 84.526117 -48.736835 
L 84.528126 -48.54795 
L 84.531212 -48.359066 
L 84.534395 -48.170181 
L 84.536524 -47.981297 
L 84.537396 -47.792412 
L 84.53792 -47.603528 
L 84.53911 -47.414643 
L 84.541045 -47.225759 
L 84.542899 -47.036874 
L 84.543906 -46.84799 
L 84.544213 -46.659106 
L 84.544935 -46.470221 
L 84.547719 -46.281337 
L 84.554224 -46.092452 
L 84.565336 -45.903568 
L 84.580021 -45.714683 
L 84.594938 -45.525799 
L 84.606198 -45.336914 
L 84.612349 -45.14803 
L 84.61528 -44.959145 
L 84.617675 -44.770261 
L 84.620131 -44.581376 
L 84.621759 -44.392492 
L 84.623258 -44.203608 
L 84.62776 -44.014723 
L 84.638077 -43.825839 
L 84.654324 -43.636954 
L 84.675032 -43.44807 
L 84.699442 -43.259185 
L 84.727201 -43.070301 
L 84.75641 -42.881416 
L 84.784424 -42.692532 
L 84.811872 -42.503647 
L 84.843794 -42.314763 
L 84.884405 -42.125878 
L 84.932106 -41.936994 
L 84.982562 -41.74811 
L 85.035894 -41.559225 
L 85.09731 -41.370341 
L 85.170299 -41.181456 
L 85.252628 -40.992572 
L 85.340981 -40.803687 
L 85.438208 -40.614803 
L 85.555537 -40.425918 
L 85.709176 -40.237034 
L 85.91344 -40.048149 
L 86.172188 -39.859265 
L 86.475209 -39.67038 
L 86.805603 -39.481496 
L 87.151348 -39.292612 
L 87.509646 -39.103727 
L 87.885143 -38.914843 
L 88.287823 -38.725958 
L 88.727247 -38.537074 
L 89.20063 -38.348189 
L 89.683711 -38.159305 
L 90.133277 -37.97042 
L 90.500037 -37.781536 
L 90.746565 -37.592651 
L 90.863356 -37.403767 
L 90.87006 -37.214882 
L 90.795967 -37.025998 
L 90.657888 -36.837114 
L 90.460401 -36.648229 
L 90.216778 -36.459345 
L 89.964137 -36.27046 
L 89.754626 -36.081576 
L 89.630697 -35.892691 
L 89.607187 -35.703807 
L 89.674467 -35.514922 
L 89.815738 -35.326038 
L 90.019887 -35.137153 
L 90.281356 -34.948269 
L 90.594591 -34.759384 
L 90.950399 -34.5705 
L 91.330052 -34.381616 
L 91.696157 -34.192731 
L 91.996225 -34.003847 
L 92.190039 -33.814962 
L 92.27813 -33.626078 
L 92.294718 -33.437193 
L 92.264987 -33.248309 
L 92.168931 -33.059424 
L 91.94483 -32.87054 
L 91.520876 -32.681655 
L 90.847431 -32.492771 
L 89.924895 -32.303886 
L 88.827572 -32.115002 
L 87.697862 -31.926117 
L 86.689839 -31.737233 
L 85.898156 -31.548349 
L 85.334927 -31.359464 
z
" style="stroke: #333333; stroke-width: 0.3"/>
    </defs>
    <g clip-path="url(#p24cad8495f)">
     <use xlink:href="#m39694f0f1d" x="0" y="132.29665" style="fill: #519d91; stroke: #333333; stroke-width: 0.3"/>
    </g>
   </g>
   <g id="PolyCollection_3">
    <defs>
     <path id="m31e58f828e" d="M 100.446736 -40.888686 
L 99.694826 -40.888686 
L 99.537614 -41.248419 
L 99.337292 -41.608153 
L 99.08928 -41.967887 
L 98.790292 -42.32762 
L 98.438561 -42.687354 
L 98.033979 -43.047088 
L 97.578334 -43.406821 
L 97.075971 -43.766555 
L 96.534979 -44.126289 
L 95.968587 -44.486022 
L 95.395915 -44.845756 
L 94.841018 -45.20549 
L 94.329595 -45.565223 
L 93.883809 -45.924957 
L 93.516839 -46.284691 
L 93.229358 -46.644424 
L 93.009648 -47.004158 
L 92.837763 -47.363891 
L 92.692649 -47.723625 
L 92.560018 -48.083359 
L 92.438425 -48.443092 
L 92.341417 -48.802826 
L 92.294718 -49.16256 
L 92.329011 -49.522293 
L 92.470458 -49.882027 
L 92.732048 -50.241761 
L 93.108685 -50.601494 
L 93.577594 -50.961228 
L 94.103643 -51.320962 
L 94.64747 -51.680695 
L 95.173464 -52.040429 
L 95.655118 -52.400163 
L 96.076692 -52.759896 
L 96.4318 -53.11963 
L 96.720652 -53.479364 
L 96.947683 -53.839097 
L 97.120408 -54.198831 
L 97.24917 -54.558565 
L 97.346807 -54.918298 
L 97.427446 -55.278032 
L 97.504449 -55.637766 
L 97.588231 -55.997499 
L 97.684871 -56.357233 
L 97.795981 -56.716966 
L 97.919587 -57.0767 
L 98.05138 -57.436434 
L 98.185757 -57.796167 
L 98.316518 -58.155901 
L 98.437476 -58.515635 
L 98.543255 -58.875368 
L 98.630317 -59.235102 
L 98.697862 -59.594836 
L 98.748186 -59.954569 
L 98.786247 -60.314303 
L 98.818496 -60.674037 
L 98.851321 -61.03377 
L 98.889552 -61.393504 
L 98.93544 -61.753238 
L 98.988429 -62.112971 
L 99.045852 -62.472705 
L 99.104393 -62.832439 
L 99.1618 -63.192172 
L 99.218132 -63.551906 
L 99.27586 -63.91164 
L 99.338668 -64.271373 
L 99.409433 -64.631107 
L 99.488382 -64.990841 
L 99.572388 -65.350574 
L 99.655808 -65.710308 
L 99.73243 -66.070041 
L 99.797571 -66.429775 
L 99.84935 -66.789509 
L 99.888677 -67.149242 
L 99.918217 -67.508976 
L 99.940992 -67.86871 
L 99.959334 -68.228443 
L 99.974503 -68.588177 
L 99.986926 -68.947911 
L 99.996676 -69.307644 
L 100.003881 -69.667378 
L 100.008869 -70.027112 
L 100.012094 -70.386845 
L 100.01401 -70.746579 
L 100.015017 -71.106313 
L 100.015528 -71.466046 
L 100.016063 -71.82578 
L 100.017259 -72.185514 
L 100.019732 -72.545247 
L 100.023834 -72.904981 
L 100.029439 -73.264715 
L 100.035908 -73.624448 
L 100.042255 -73.984182 
L 100.047466 -74.343916 
L 100.050831 -74.703649 
L 100.052165 -75.063383 
L 100.051847 -75.423116 
L 100.050674 -75.78285 
L 100.049594 -76.142584 
L 100.049406 -76.502317 
L 100.092156 -76.502317 
L 100.092156 -76.502317 
L 100.091968 -76.142584 
L 100.090888 -75.78285 
L 100.089715 -75.423116 
L 100.089397 -75.063383 
L 100.090731 -74.703649 
L 100.094097 -74.343916 
L 100.099307 -73.984182 
L 100.105654 -73.624448 
L 100.112123 -73.264715 
L 100.117728 -72.904981 
L 100.12183 -72.545247 
L 100.124303 -72.185514 
L 100.125499 -71.82578 
L 100.126034 -71.466046 
L 100.126545 -71.106313 
L 100.127552 -70.746579 
L 100.129468 -70.386845 
L 100.132693 -70.027112 
L 100.137681 -69.667378 
L 100.144886 -69.307644 
L 100.154636 -68.947911 
L 100.167059 -68.588177 
L 100.182228 -68.228443 
L 100.20057 -67.86871 
L 100.223345 -67.508976 
L 100.252885 -67.149242 
L 100.292212 -66.789509 
L 100.343991 -66.429775 
L 100.409132 -66.070041 
L 100.485754 -65.710308 
L 100.569174 -65.350574 
L 100.65318 -64.990841 
L 100.732129 -64.631107 
L 100.802894 -64.271373 
L 100.865702 -63.91164 
L 100.92343 -63.551906 
L 100.979762 -63.192172 
L 101.037169 -62.832439 
L 101.09571 -62.472705 
L 101.153133 -62.112971 
L 101.206122 -61.753238 
L 101.25201 -61.393504 
L 101.290241 -61.03377 
L 101.323066 -60.674037 
L 101.355315 -60.314303 
L 101.393376 -59.954569 
L 101.4437 -59.594836 
L 101.511245 -59.235102 
L 101.598307 -58.875368 
L 101.704087 -58.515635 
L 101.825044 -58.155901 
L 101.955805 -57.796167 
L 102.090183 -57.436434 
L 102.221976 -57.0767 
L 102.345581 -56.716966 
L 102.456691 -56.357233 
L 102.553331 -55.997499 
L 102.637113 -55.637766 
L 102.714116 -55.278032 
L 102.794755 -54.918298 
L 102.892392 -54.558565 
L 103.021154 -54.198831 
L 103.193879 -53.839097 
L 103.42091 -53.479364 
L 103.709762 -53.11963 
L 104.06487 -52.759896 
L 104.486444 -52.400163 
L 104.968098 -52.040429 
L 105.494092 -51.680695 
L 106.037919 -51.320962 
L 106.563968 -50.961228 
L 107.032877 -50.601494 
L 107.409514 -50.241761 
L 107.671104 -49.882027 
L 107.812551 -49.522293 
L 107.846845 -49.16256 
L 107.800146 -48.802826 
L 107.703137 -48.443092 
L 107.581544 -48.083359 
L 107.448913 -47.723625 
L 107.303799 -47.363891 
L 107.131914 -47.004158 
L 106.912204 -46.644424 
L 106.624723 -46.284691 
L 106.257753 -45.924957 
L 105.811967 -45.565223 
L 105.300544 -45.20549 
L 104.745647 -44.845756 
L 104.172975 -44.486022 
L 103.606583 -44.126289 
L 103.065591 -43.766555 
L 102.563228 -43.406821 
L 102.107583 -43.047088 
L 101.703001 -42.687354 
L 101.351271 -42.32762 
L 101.052282 -41.967887 
L 100.80427 -41.608153 
L 100.603948 -41.248419 
L 100.446736 -40.888686 
z
" style="stroke: #333333; stroke-width: 0.3"/>
    </defs>
    <g clip-path="url(#p24cad8495f)">
     <use xlink:href="#m31e58f828e" x="0" y="132.29665" style="fill: #bf7380; stroke: #333333; stroke-width: 0.3"/>
    </g>
   </g>
   <g id="PolyCollection_4">
    <defs>
     <path id="m15e4c9ad6a" d="M 117.592395 -44.953975 
L 113.653421 -44.953975 
L 113.470899 -45.248256 
L 113.286936 -45.542537 
L 113.102873 -45.836818 
L 112.919892 -46.131099 
L 112.738976 -46.42538 
L 112.560888 -46.71966 
L 112.386158 -47.013941 
L 112.21509 -47.308222 
L 112.047768 -47.602503 
L 111.884081 -47.896784 
L 111.723746 -48.191065 
L 111.566329 -48.485346 
L 111.411277 -48.779627 
L 111.257937 -49.073908 
L 111.105579 -49.368189 
L 110.953421 -49.66247 
L 110.800655 -49.956751 
L 110.646478 -50.251032 
L 110.490128 -50.545313 
L 110.330936 -50.839594 
L 110.168379 -51.133875 
L 110.002142 -51.428156 
L 109.83218 -51.722437 
L 109.658785 -52.016718 
L 109.482631 -52.310999 
L 109.304813 -52.60528 
L 109.126857 -52.899561 
L 108.950705 -53.193842 
L 108.778667 -53.488122 
L 108.613344 -53.782403 
L 108.457524 -54.076684 
L 108.314059 -54.370965 
L 108.185726 -54.665246 
L 108.075087 -54.959527 
L 107.984368 -55.253808 
L 107.915344 -55.548089 
L 107.869273 -55.84237 
L 107.846845 -56.136651 
L 107.84819 -56.430932 
L 107.872912 -56.725213 
L 107.920158 -57.019494 
L 107.988716 -57.313775 
L 108.077119 -57.608056 
L 108.183758 -57.902337 
L 108.306984 -58.196618 
L 108.445187 -58.490899 
L 108.596854 -58.78518 
L 108.760598 -59.079461 
L 108.935152 -59.373742 
L 109.119351 -59.668023 
L 109.312083 -59.962304 
L 109.512244 -60.256585 
L 109.718692 -60.550865 
L 109.930206 -60.845146 
L 110.145471 -61.139427 
L 110.363081 -61.433708 
L 110.581562 -61.727989 
L 110.799417 -62.02227 
L 111.015181 -62.316551 
L 111.227488 -62.610832 
L 111.435131 -62.905113 
L 111.637112 -63.199394 
L 111.832675 -63.493675 
L 112.021327 -63.787956 
L 112.20282 -64.082237 
L 112.377131 -64.376518 
L 112.544411 -64.670799 
L 112.704932 -64.96508 
L 112.859022 -65.259361 
L 113.007006 -65.553642 
L 113.149158 -65.847923 
L 113.285661 -66.142204 
L 113.416585 -66.436485 
L 113.541885 -66.730766 
L 113.661415 -67.025047 
L 113.774949 -67.319327 
L 113.882227 -67.613608 
L 113.982991 -67.907889 
L 114.07703 -68.20217 
L 114.164224 -68.496451 
L 114.24457 -68.790732 
L 114.318207 -69.085013 
L 114.385424 -69.379294 
L 114.446657 -69.673575 
L 114.502474 -69.967856 
L 114.553547 -70.262137 
L 114.600623 -70.556418 
L 114.644486 -70.850699 
L 114.685916 -71.14498 
L 114.725658 -71.439261 
L 114.764388 -71.733542 
L 114.802687 -72.027823 
L 114.841022 -72.322104 
L 114.87974 -72.616385 
L 114.919057 -72.910666 
L 114.95907 -73.204947 
L 114.999761 -73.499228 
L 115.041012 -73.793509 
L 115.082621 -74.08779 
L 116.163195 -74.08779 
L 116.163195 -74.08779 
L 116.204804 -73.793509 
L 116.246055 -73.499228 
L 116.286746 -73.204947 
L 116.326759 -72.910666 
L 116.366077 -72.616385 
L 116.404794 -72.322104 
L 116.443129 -72.027823 
L 116.481428 -71.733542 
L 116.520158 -71.439261 
L 116.5599 -71.14498 
L 116.601331 -70.850699 
L 116.645193 -70.556418 
L 116.692269 -70.262137 
L 116.743342 -69.967856 
L 116.799159 -69.673575 
L 116.860392 -69.379294 
L 116.927609 -69.085013 
L 117.001246 -68.790732 
L 117.081592 -68.496451 
L 117.168786 -68.20217 
L 117.262825 -67.907889 
L 117.363589 -67.613608 
L 117.470867 -67.319327 
L 117.584401 -67.025047 
L 117.703931 -66.730766 
L 117.829231 -66.436485 
L 117.960156 -66.142204 
L 118.096658 -65.847923 
L 118.238811 -65.553642 
L 118.386795 -65.259361 
L 118.540884 -64.96508 
L 118.701405 -64.670799 
L 118.868685 -64.376518 
L 119.042996 -64.082237 
L 119.224489 -63.787956 
L 119.413141 -63.493675 
L 119.608705 -63.199394 
L 119.810685 -62.905113 
L 120.018328 -62.610832 
L 120.230636 -62.316551 
L 120.4464 -62.02227 
L 120.664254 -61.727989 
L 120.882735 -61.433708 
L 121.100345 -61.139427 
L 121.315611 -60.845146 
L 121.527124 -60.550865 
L 121.733572 -60.256585 
L 121.933733 -59.962304 
L 122.126465 -59.668023 
L 122.310664 -59.373742 
L 122.485218 -59.079461 
L 122.648962 -58.78518 
L 122.800629 -58.490899 
L 122.938832 -58.196618 
L 123.062058 -57.902337 
L 123.168697 -57.608056 
L 123.2571 -57.313775 
L 123.325658 -57.019494 
L 123.372905 -56.725213 
L 123.397626 -56.430932 
L 123.398972 -56.136651 
L 123.376544 -55.84237 
L 123.330472 -55.548089 
L 123.261448 -55.253808 
L 123.170729 -54.959527 
L 123.06009 -54.665246 
L 122.931757 -54.370965 
L 122.788292 -54.076684 
L 122.632473 -53.782403 
L 122.467149 -53.488122 
L 122.295111 -53.193842 
L 122.118959 -52.899561 
L 121.941003 -52.60528 
L 121.763185 -52.310999 
L 121.587031 -52.016718 
L 121.413636 -51.722437 
L 121.243674 -51.428156 
L 121.077437 -51.133875 
L 120.91488 -50.839594 
L 120.755688 -50.545313 
L 120.599338 -50.251032 
L 120.445161 -49.956751 
L 120.292395 -49.66247 
L 120.140238 -49.368189 
L 119.98788 -49.073908 
L 119.834539 -48.779627 
L 119.679487 -48.485346 
L 119.522071 -48.191065 
L 119.361735 -47.896784 
L 119.198048 -47.602503 
L 119.030726 -47.308222 
L 118.859658 -47.013941 
L 118.684929 -46.71966 
L 118.50684 -46.42538 
L 118.325924 -46.131099 
L 118.142943 -45.836818 
L 117.95888 -45.542537 
L 117.774917 -45.248256 
L 117.592395 -44.953975 
z
" style="stroke: #333333; stroke-width: 0.3"/>
    </defs>
    <g clip-path="url(#p24cad8495f)">
     <use xlink:href="#m15e4c9ad6a" x="0" y="132.29665" style="fill: #7b2f55; stroke: #333333; stroke-width: 0.3"/>
    </g>
   </g>
   <g id="PolyCollection_5">
    <defs>
     <path id="mf1110a1619" d="M 153.808906 -32.500574 
L 139.645418 -32.500574 
L 139.568526 -32.51028 
L 139.495773 -32.519985 
L 139.427269 -32.529691 
L 139.363115 -32.539397 
L 139.303399 -32.549102 
L 139.248203 -32.558808 
L 139.197595 -32.568513 
L 139.151633 -32.578219 
L 139.110364 -32.587925 
L 139.073825 -32.59763 
L 139.042039 -32.607336 
L 139.015021 -32.617042 
L 138.992771 -32.626747 
L 138.97528 -32.636453 
L 138.962528 -32.646159 
L 138.954482 -32.655864 
L 138.951099 -32.66557 
L 138.952324 -32.675275 
L 138.958094 -32.684981 
L 138.968332 -32.694687 
L 138.982954 -32.704392 
L 139.001864 -32.714098 
L 139.024958 -32.723804 
L 139.052122 -32.733509 
L 139.083234 -32.743215 
L 139.118164 -32.75292 
L 139.156774 -32.762626 
L 139.19892 -32.772332 
L 139.244449 -32.782037 
L 139.293204 -32.791743 
L 139.345023 -32.801449 
L 139.399737 -32.811154 
L 139.457176 -32.82086 
L 139.517163 -32.830566 
L 139.579521 -32.840271 
L 139.644068 -32.849977 
L 139.710623 -32.859682 
L 139.779002 -32.869388 
L 139.849022 -32.879094 
L 139.920499 -32.888799 
L 139.993252 -32.898505 
L 140.067099 -32.908211 
L 140.141862 -32.917916 
L 140.217366 -32.927622 
L 140.293437 -32.937328 
L 140.369908 -32.947033 
L 140.446615 -32.956739 
L 140.523399 -32.966444 
L 140.600106 -32.97615 
L 140.67659 -32.985856 
L 140.75271 -32.995561 
L 140.828331 -33.005267 
L 140.903328 -33.014973 
L 140.977581 -33.024678 
L 141.050979 -33.034384 
L 141.12342 -33.044089 
L 141.194809 -33.053795 
L 141.26506 -33.063501 
L 141.334098 -33.073206 
L 141.401853 -33.082912 
L 141.468268 -33.092618 
L 141.533293 -33.102323 
L 141.596887 -33.112029 
L 141.659019 -33.121735 
L 141.719666 -33.13144 
L 141.778815 -33.141146 
L 141.836461 -33.150851 
L 141.892608 -33.160557 
L 141.947267 -33.170263 
L 142.00046 -33.179968 
L 142.052213 -33.189674 
L 142.102562 -33.19938 
L 142.151549 -33.209085 
L 142.199224 -33.218791 
L 142.24564 -33.228496 
L 142.29086 -33.238202 
L 142.334949 -33.247908 
L 142.377979 -33.257613 
L 142.420024 -33.267319 
L 142.461165 -33.277025 
L 142.501482 -33.28673 
L 142.541063 -33.296436 
L 142.579994 -33.306142 
L 142.618364 -33.315847 
L 142.656263 -33.325553 
L 142.693782 -33.335258 
L 142.731012 -33.344964 
L 142.768044 -33.35467 
L 142.804965 -33.364375 
L 142.841865 -33.374081 
L 142.878828 -33.383787 
L 142.915938 -33.393492 
L 142.953276 -33.403198 
L 142.990917 -33.412903 
L 143.028937 -33.422609 
L 143.067402 -33.432315 
L 143.106379 -33.44202 
L 143.145928 -33.451726 
L 143.186102 -33.461432 
L 150.268222 -33.461432 
L 150.268222 -33.461432 
L 150.308396 -33.451726 
L 150.347945 -33.44202 
L 150.386922 -33.432315 
L 150.425388 -33.422609 
L 150.463407 -33.412903 
L 150.501048 -33.403198 
L 150.538386 -33.393492 
L 150.575496 -33.383787 
L 150.612459 -33.374081 
L 150.649359 -33.364375 
L 150.686281 -33.35467 
L 150.723312 -33.344964 
L 150.760542 -33.335258 
L 150.798061 -33.325553 
L 150.835961 -33.315847 
L 150.874331 -33.306142 
L 150.913261 -33.296436 
L 150.952842 -33.28673 
L 150.99316 -33.277025 
L 151.0343 -33.267319 
L 151.076345 -33.257613 
L 151.119375 -33.247908 
L 151.163464 -33.238202 
L 151.208684 -33.228496 
L 151.2551 -33.218791 
L 151.302775 -33.209085 
L 151.351762 -33.19938 
L 151.402111 -33.189674 
L 151.453864 -33.179968 
L 151.507057 -33.170263 
L 151.561717 -33.160557 
L 151.617863 -33.150851 
L 151.67551 -33.141146 
L 151.734659 -33.13144 
L 151.795306 -33.121735 
L 151.857437 -33.112029 
L 151.921031 -33.102323 
L 151.986056 -33.092618 
L 152.052471 -33.082912 
L 152.120227 -33.073206 
L 152.189264 -33.063501 
L 152.259516 -33.053795 
L 152.330905 -33.044089 
L 152.403345 -33.034384 
L 152.476744 -33.024678 
L 152.550997 -33.014973 
L 152.625993 -33.005267 
L 152.701615 -32.995561 
L 152.777734 -32.985856 
L 152.854218 -32.97615 
L 152.930925 -32.966444 
L 153.007709 -32.956739 
L 153.084416 -32.947033 
L 153.160887 -32.937328 
L 153.236958 -32.927622 
L 153.312462 -32.917916 
L 153.387225 -32.908211 
L 153.461072 -32.898505 
L 153.533825 -32.888799 
L 153.605302 -32.879094 
L 153.675322 -32.869388 
L 153.743701 -32.859682 
L 153.810256 -32.849977 
L 153.874803 -32.840271 
L 153.937161 -32.830566 
L 153.997148 -32.82086 
L 154.054587 -32.811154 
L 154.109301 -32.801449 
L 154.16112 -32.791743 
L 154.209876 -32.782037 
L 154.255405 -32.772332 
L 154.29755 -32.762626 
L 154.33616 -32.75292 
L 154.37109 -32.743215 
L 154.402202 -32.733509 
L 154.429366 -32.723804 
L 154.45246 -32.714098 
L 154.47137 -32.704392 
L 154.485992 -32.694687 
L 154.49623 -32.684981 
L 154.502 -32.675275 
L 154.503226 -32.66557 
L 154.499842 -32.655864 
L 154.491796 -32.646159 
L 154.479044 -32.636453 
L 154.461553 -32.626747 
L 154.439304 -32.617042 
L 154.412285 -32.607336 
L 154.380499 -32.59763 
L 154.34396 -32.587925 
L 154.302691 -32.578219 
L 154.256729 -32.568513 
L 154.206121 -32.558808 
L 154.150925 -32.549102 
L 154.09121 -32.539397 
L 154.027055 -32.529691 
L 153.958551 -32.519985 
L 153.885798 -32.51028 
L 153.808906 -32.500574 
z
" style="stroke: #333333; stroke-width: 0.3"/>
    </defs>
    <g clip-path="url(#p24cad8495f)">
     <use xlink:href="#mf1110a1619" x="0" y="132.29665" style="fill: #3c2f7b; stroke: #333333; stroke-width: 0.3"/>
    </g>
   </g>
   <g id="PolyCollection_6">
    <defs>
     <path id="mfde2b0153e" d="M 164.453278 -31.363907 
L 160.1053 -31.363907 
L 159.444956 -31.553005 
L 158.70192 -31.742102 
L 157.906987 -31.931199 
L 157.102117 -32.120296 
L 156.336158 -32.309393 
L 155.658726 -32.49849 
L 155.113403 -32.687588 
L 154.731676 -32.876685 
L 154.528923 -33.065782 
L 154.503226 -33.254879 
L 154.637121 -33.443976 
L 154.901684 -33.633073 
L 155.261924 -33.822171 
L 155.682277 -34.011268 
L 156.131161 -34.200365 
L 156.583899 -34.389462 
L 157.02378 -34.578559 
L 157.441466 -34.767656 
L 157.833222 -34.956754 
L 158.198635 -35.145851 
L 158.538436 -35.334948 
L 158.852889 -35.524045 
L 159.140999 -35.713142 
L 159.400492 -35.902239 
L 159.628386 -36.091337 
L 159.821798 -36.280434 
L 159.978694 -36.469531 
L 160.098373 -36.658628 
L 160.181607 -36.847725 
L 160.230551 -37.036822 
L 160.248552 -37.22592 
L 160.239991 -37.415017 
L 160.21021 -37.604114 
L 160.165457 -37.793211 
L 160.112724 -37.982308 
L 160.059375 -38.171405 
L 160.012525 -38.360503 
L 159.978267 -38.5496 
L 159.960937 -38.738697 
L 159.962624 -38.927794 
L 159.983074 -39.116891 
L 160.020041 -39.305988 
L 160.069971 -39.495086 
L 160.128846 -39.684183 
L 160.192968 -39.87328 
L 160.259523 -40.062377 
L 160.326844 -40.251474 
L 160.39437 -40.440571 
L 160.462409 -40.629669 
L 160.531768 -40.818766 
L 160.603379 -41.007863 
L 160.677978 -41.19696 
L 160.755875 -41.386057 
L 160.836846 -41.575154 
L 160.920133 -41.764252 
L 161.004534 -41.953349 
L 161.088559 -42.142446 
L 161.170603 -42.331543 
L 161.249111 -42.52064 
L 161.322692 -42.709737 
L 161.390183 -42.898835 
L 161.450642 -43.087932 
L 161.503305 -43.277029 
L 161.547506 -43.466126 
L 161.582619 -43.655223 
L 161.608018 -43.84432 
L 161.623113 -44.033418 
L 161.627454 -44.222515 
L 161.620919 -44.411612 
L 161.603971 -44.600709 
L 161.57794 -44.789806 
L 161.545248 -44.978903 
L 161.509499 -45.168001 
L 161.475318 -45.357098 
L 161.447894 -45.546195 
L 161.432255 -45.735292 
L 161.432402 -45.924389 
L 161.45051 -46.113486 
L 161.486427 -46.302584 
L 161.537617 -46.491681 
L 161.59959 -46.680778 
L 161.666685 -46.869875 
L 161.733016 -47.058972 
L 161.793326 -47.248069 
L 161.843605 -47.437167 
L 161.881394 -47.626264 
L 161.905846 -47.815361 
L 161.917606 -48.004458 
L 161.918633 -48.193555 
L 161.911966 -48.382652 
L 161.901441 -48.57175 
L 161.891307 -48.760847 
L 161.885717 -48.949944 
L 161.888155 -49.139041 
L 161.90088 -49.328138 
L 161.924559 -49.517235 
L 161.958171 -49.706333 
L 161.999262 -49.89543 
L 162.044464 -50.084527 
L 162.514114 -50.084527 
L 162.514114 -50.084527 
L 162.559317 -49.89543 
L 162.600408 -49.706333 
L 162.63402 -49.517235 
L 162.657698 -49.328138 
L 162.670424 -49.139041 
L 162.672861 -48.949944 
L 162.667271 -48.760847 
L 162.657137 -48.57175 
L 162.646612 -48.382652 
L 162.639945 -48.193555 
L 162.640972 -48.004458 
L 162.652732 -47.815361 
L 162.677184 -47.626264 
L 162.714973 -47.437167 
L 162.765252 -47.248069 
L 162.825562 -47.058972 
L 162.891893 -46.869875 
L 162.958989 -46.680778 
L 163.020961 -46.491681 
L 163.072151 -46.302584 
L 163.108068 -46.113486 
L 163.126177 -45.924389 
L 163.126323 -45.735292 
L 163.110684 -45.546195 
L 163.08326 -45.357098 
L 163.049079 -45.168001 
L 163.01333 -44.978903 
L 162.980639 -44.789806 
L 162.954607 -44.600709 
L 162.93766 -44.411612 
L 162.931124 -44.222515 
L 162.935465 -44.033418 
L 162.95056 -43.84432 
L 162.975959 -43.655223 
L 163.011072 -43.466126 
L 163.055274 -43.277029 
L 163.107936 -43.087932 
L 163.168396 -42.898835 
L 163.235886 -42.709737 
L 163.309467 -42.52064 
L 163.387975 -42.331543 
L 163.470019 -42.142446 
L 163.554044 -41.953349 
L 163.638446 -41.764252 
L 163.721732 -41.575154 
L 163.802703 -41.386057 
L 163.8806 -41.19696 
L 163.955199 -41.007863 
L 164.02681 -40.818766 
L 164.096169 -40.629669 
L 164.164208 -40.440571 
L 164.231735 -40.251474 
L 164.299055 -40.062377 
L 164.365611 -39.87328 
L 164.429732 -39.684183 
L 164.488607 -39.495086 
L 164.538537 -39.305988 
L 164.575504 -39.116891 
L 164.595954 -38.927794 
L 164.597641 -38.738697 
L 164.580312 -38.5496 
L 164.546053 -38.360503 
L 164.499203 -38.171405 
L 164.445854 -37.982308 
L 164.393122 -37.793211 
L 164.348368 -37.604114 
L 164.318587 -37.415017 
L 164.310026 -37.22592 
L 164.328027 -37.036822 
L 164.376971 -36.847725 
L 164.460205 -36.658628 
L 164.579884 -36.469531 
L 164.736781 -36.280434 
L 164.930192 -36.091337 
L 165.158086 -35.902239 
L 165.417579 -35.713142 
L 165.705689 -35.524045 
L 166.020142 -35.334948 
L 166.359943 -35.145851 
L 166.725356 -34.956754 
L 167.117112 -34.767656 
L 167.534798 -34.578559 
L 167.974679 -34.389462 
L 168.427417 -34.200365 
L 168.876301 -34.011268 
L 169.296655 -33.822171 
L 169.656894 -33.633073 
L 169.921458 -33.443976 
L 170.055353 -33.254879 
L 170.029656 -33.065782 
L 169.826902 -32.876685 
L 169.445175 -32.687588 
L 168.899852 -32.49849 
L 168.222421 -32.309393 
L 167.456461 -32.120296 
L 166.651591 -31.931199 
L 165.856658 -31.742102 
L 165.113622 -31.553005 
L 164.453278 -31.363907 
z
" style="stroke: #333333; stroke-width: 0.3"/>
    </defs>
    <g clip-path="url(#p24cad8495f)">
     <use xlink:href="#mfde2b0153e" x="0" y="132.29665" style="fill: #519d91; stroke: #333333; stroke-width: 0.3"/>
    </g>
   </g>
   <g id="PolyCollection_7">
    <defs>
     <path id="m7a6a20998c" d="M 177.929926 -42.344236 
L 177.732906 -42.344236 
L 177.646817 -42.706038 
L 177.509454 -43.06784 
L 177.308592 -43.429641 
L 177.044876 -43.791443 
L 176.742421 -44.153244 
L 176.446877 -44.515046 
L 176.202561 -44.876848 
L 176.022708 -45.238649 
L 175.879762 -45.600451 
L 175.722086 -45.962252 
L 175.495907 -46.324054 
L 175.156145 -46.685856 
L 174.671925 -47.047657 
L 174.031655 -47.409459 
L 173.241745 -47.77126 
L 172.329324 -48.133062 
L 171.372285 -48.494864 
L 170.536872 -48.856665 
L 170.055353 -49.218467 
L 170.118627 -49.580268 
L 170.755669 -49.94207 
L 171.798522 -50.303872 
L 172.96152 -50.665673 
L 173.978906 -51.027475 
L 174.71152 -51.389276 
L 175.163221 -51.751078 
L 175.41783 -52.112879 
L 175.560013 -52.474681 
L 175.634527 -52.836483 
L 175.652375 -53.198284 
L 175.620718 -53.560086 
L 175.567205 -53.921887 
L 175.538498 -54.283689 
L 175.57573 -54.645491 
L 175.691215 -55.007292 
L 175.866044 -55.369094 
L 176.065414 -55.730895 
L 176.25652 -56.092697 
L 176.41817 -56.454499 
L 176.540836 -56.8163 
L 176.623275 -57.178102 
L 176.67171 -57.539903 
L 176.700731 -57.901705 
L 176.730876 -58.263507 
L 176.781218 -58.625308 
L 176.860825 -58.98711 
L 176.965029 -59.348911 
L 177.079269 -59.710713 
L 177.187531 -60.072515 
L 177.279333 -60.434316 
L 177.351836 -60.796118 
L 177.408367 -61.157919 
L 177.455565 -61.519721 
L 177.499628 -61.881522 
L 177.542936 -62.243324 
L 177.583857 -62.605126 
L 177.619522 -62.966927 
L 177.647774 -63.328729 
L 177.666954 -63.69053 
L 177.676257 -64.052332 
L 177.677585 -64.414134 
L 177.676007 -64.775935 
L 177.677164 -65.137737 
L 177.684023 -65.499538 
L 177.695916 -65.86134 
L 177.710002 -66.223142 
L 177.723391 -66.584943 
L 177.734433 -66.946745 
L 177.742815 -67.308546 
L 177.749001 -67.670348 
L 177.753739 -68.03215 
L 177.757765 -68.393951 
L 177.761631 -68.755753 
L 177.765652 -69.117554 
L 177.769989 -69.479356 
L 177.774761 -69.841157 
L 177.780165 -70.202959 
L 177.786342 -70.564761 
L 177.792916 -70.926562 
L 177.798773 -71.288364 
L 177.802621 -71.650165 
L 177.804008 -72.011967 
L 177.803872 -72.373769 
L 177.804044 -72.73557 
L 177.805974 -73.097372 
L 177.80963 -73.459173 
L 177.813631 -73.820975 
L 177.816544 -74.182777 
L 177.818071 -74.544578 
L 177.819035 -74.90638 
L 177.820447 -75.268181 
L 177.822681 -75.629983 
L 177.825323 -75.991785 
L 177.827595 -76.353586 
L 177.828887 -76.715388 
L 177.829036 -77.077189 
L 177.828354 -77.438991 
L 177.827488 -77.800793 
L 177.827115 -78.162594 
L 177.835717 -78.162594 
L 177.835717 -78.162594 
L 177.835344 -77.800793 
L 177.834479 -77.438991 
L 177.833797 -77.077189 
L 177.833945 -76.715388 
L 177.835237 -76.353586 
L 177.83751 -75.991785 
L 177.840151 -75.629983 
L 177.842385 -75.268181 
L 177.843798 -74.90638 
L 177.844761 -74.544578 
L 177.846288 -74.182777 
L 177.849202 -73.820975 
L 177.853202 -73.459173 
L 177.856859 -73.097372 
L 177.858789 -72.73557 
L 177.858961 -72.373769 
L 177.858824 -72.011967 
L 177.860212 -71.650165 
L 177.86406 -71.288364 
L 177.869917 -70.926562 
L 177.87649 -70.564761 
L 177.882667 -70.202959 
L 177.888072 -69.841157 
L 177.892844 -69.479356 
L 177.89718 -69.117554 
L 177.901202 -68.755753 
L 177.905067 -68.393951 
L 177.909093 -68.03215 
L 177.913831 -67.670348 
L 177.920017 -67.308546 
L 177.9284 -66.946745 
L 177.939442 -66.584943 
L 177.95283 -66.223142 
L 177.966917 -65.86134 
L 177.97881 -65.499538 
L 177.985668 -65.137737 
L 177.986825 -64.775935 
L 177.985248 -64.414134 
L 177.986575 -64.052332 
L 177.995878 -63.69053 
L 178.015059 -63.328729 
L 178.04331 -62.966927 
L 178.078975 -62.605126 
L 178.119896 -62.243324 
L 178.163204 -61.881522 
L 178.207267 -61.519721 
L 178.254465 -61.157919 
L 178.310996 -60.796118 
L 178.383499 -60.434316 
L 178.475301 -60.072515 
L 178.583563 -59.710713 
L 178.697803 -59.348911 
L 178.802008 -58.98711 
L 178.881615 -58.625308 
L 178.931956 -58.263507 
L 178.962101 -57.901705 
L 178.991122 -57.539903 
L 179.039558 -57.178102 
L 179.121996 -56.8163 
L 179.244663 -56.454499 
L 179.406312 -56.092697 
L 179.597418 -55.730895 
L 179.796788 -55.369094 
L 179.971617 -55.007292 
L 180.087102 -54.645491 
L 180.124334 -54.283689 
L 180.095628 -53.921887 
L 180.042114 -53.560086 
L 180.010457 -53.198284 
L 180.028305 -52.836483 
L 180.102819 -52.474681 
L 180.245002 -52.112879 
L 180.499611 -51.751078 
L 180.951312 -51.389276 
L 181.683926 -51.027475 
L 182.701312 -50.665673 
L 183.86431 -50.303872 
L 184.907163 -49.94207 
L 185.544206 -49.580268 
L 185.60748 -49.218467 
L 185.12596 -48.856665 
L 184.290548 -48.494864 
L 183.333509 -48.133062 
L 182.421088 -47.77126 
L 181.631177 -47.409459 
L 180.990908 -47.047657 
L 180.506687 -46.685856 
L 180.166925 -46.324054 
L 179.940746 -45.962252 
L 179.78307 -45.600451 
L 179.640125 -45.238649 
L 179.460271 -44.876848 
L 179.215955 -44.515046 
L 178.920411 -44.153244 
L 178.617956 -43.791443 
L 178.35424 -43.429641 
L 178.153378 -43.06784 
L 178.016016 -42.706038 
L 177.929926 -42.344236 
z
" style="stroke: #333333; stroke-width: 0.3"/>
    </defs>
    <g clip-path="url(#p24cad8495f)">
     <use xlink:href="#m7a6a20998c" x="0" y="132.29665" style="fill: #bf7380; stroke: #333333; stroke-width: 0.3"/>
    </g>
   </g>
   <g id="PolyCollection_8">
    <defs>
     <path id="mec533b4353" d="M 195.54187 -58.600444 
L 191.225216 -58.600444 
L 191.116472 -58.756687 
L 191.010014 -58.91293 
L 190.906477 -59.069173 
L 190.806462 -59.225415 
L 190.710517 -59.381658 
L 190.619126 -59.537901 
L 190.532704 -59.694144 
L 190.451578 -59.850387 
L 190.375984 -60.00663 
L 190.30606 -60.162873 
L 190.241838 -60.319116 
L 190.183238 -60.475359 
L 190.130075 -60.631602 
L 190.082049 -60.787844 
L 190.038758 -60.944087 
L 189.999696 -61.10033 
L 189.964263 -61.256573 
L 189.931777 -61.412816 
L 189.901485 -61.569059 
L 189.872574 -61.725302 
L 189.844189 -61.881545 
L 189.815451 -62.037788 
L 189.785474 -62.194031 
L 189.753382 -62.350274 
L 189.71833 -62.506516 
L 189.679522 -62.662759 
L 189.636231 -62.819002 
L 189.587813 -62.975245 
L 189.533728 -63.131488 
L 189.473548 -63.287731 
L 189.406972 -63.443974 
L 189.333838 -63.600217 
L 189.254124 -63.75646 
L 189.167952 -63.912703 
L 189.07559 -64.068946 
L 188.977447 -64.225188 
L 188.874063 -64.381431 
L 188.7661 -64.537674 
L 188.654327 -64.693917 
L 188.5396 -64.85016 
L 188.422845 -65.006403 
L 188.30503 -65.162646 
L 188.187145 -65.318889 
L 188.070172 -65.475132 
L 187.955059 -65.631375 
L 187.842698 -65.787617 
L 187.733894 -65.94386 
L 187.629347 -66.100103 
L 187.529629 -66.256346 
L 187.435169 -66.412589 
L 187.346239 -66.568832 
L 187.262947 -66.725075 
L 187.185237 -66.881318 
L 187.112889 -67.037561 
L 187.045526 -67.193804 
L 186.982635 -67.350047 
L 186.923577 -67.506289 
L 186.867619 -67.662532 
L 186.813956 -67.818775 
L 186.761747 -67.975018 
L 186.710143 -68.131261 
L 186.658326 -68.287504 
L 186.605544 -68.443747 
L 186.551141 -68.59999 
L 186.494591 -68.756233 
L 186.43553 -68.912476 
L 186.373773 -69.068718 
L 186.309339 -69.224961 
L 186.242461 -69.381204 
L 186.173598 -69.537447 
L 186.103429 -69.69369 
L 186.032851 -69.849933 
L 185.962962 -70.006176 
L 185.895048 -70.162419 
L 185.830551 -70.318662 
L 185.77104 -70.474905 
L 185.718178 -70.631148 
L 185.67368 -70.78739 
L 185.639277 -70.943633 
L 185.616667 -71.099876 
L 185.60748 -71.256119 
L 185.613232 -71.412362 
L 185.635289 -71.568605 
L 185.674832 -71.724848 
L 185.732825 -71.881091 
L 185.809987 -72.037334 
L 185.906778 -72.193577 
L 186.023379 -72.349819 
L 186.159688 -72.506062 
L 186.315321 -72.662305 
L 186.489612 -72.818548 
L 186.681632 -72.974791 
L 186.890202 -73.131034 
L 187.113921 -73.287277 
L 187.351189 -73.44352 
L 187.600242 -73.599763 
L 187.859184 -73.756006 
L 188.126026 -73.912249 
L 188.398719 -74.068491 
L 198.368367 -74.068491 
L 198.368367 -74.068491 
L 198.64106 -73.912249 
L 198.907902 -73.756006 
L 199.166844 -73.599763 
L 199.415897 -73.44352 
L 199.653165 -73.287277 
L 199.876884 -73.131034 
L 200.085455 -72.974791 
L 200.277475 -72.818548 
L 200.451766 -72.662305 
L 200.607398 -72.506062 
L 200.743708 -72.349819 
L 200.860309 -72.193577 
L 200.957099 -72.037334 
L 201.034262 -71.881091 
L 201.092254 -71.724848 
L 201.131797 -71.568605 
L 201.153855 -71.412362 
L 201.159607 -71.256119 
L 201.150419 -71.099876 
L 201.12781 -70.943633 
L 201.093406 -70.78739 
L 201.048908 -70.631148 
L 200.996046 -70.474905 
L 200.936535 -70.318662 
L 200.872038 -70.162419 
L 200.804124 -70.006176 
L 200.734236 -69.849933 
L 200.663657 -69.69369 
L 200.593488 -69.537447 
L 200.524625 -69.381204 
L 200.457748 -69.224961 
L 200.393314 -69.068718 
L 200.331556 -68.912476 
L 200.272495 -68.756233 
L 200.215946 -68.59999 
L 200.161543 -68.443747 
L 200.10876 -68.287504 
L 200.056944 -68.131261 
L 200.00534 -67.975018 
L 199.95313 -67.818775 
L 199.899468 -67.662532 
L 199.843509 -67.506289 
L 199.784452 -67.350047 
L 199.72156 -67.193804 
L 199.654198 -67.037561 
L 199.581849 -66.881318 
L 199.504139 -66.725075 
L 199.420848 -66.568832 
L 199.331917 -66.412589 
L 199.237457 -66.256346 
L 199.137739 -66.100103 
L 199.033192 -65.94386 
L 198.924389 -65.787617 
L 198.812027 -65.631375 
L 198.696915 -65.475132 
L 198.579941 -65.318889 
L 198.462056 -65.162646 
L 198.344241 -65.006403 
L 198.227486 -64.85016 
L 198.11276 -64.693917 
L 198.000986 -64.537674 
L 197.893024 -64.381431 
L 197.789639 -64.225188 
L 197.691496 -64.068946 
L 197.599134 -63.912703 
L 197.512962 -63.75646 
L 197.433248 -63.600217 
L 197.360114 -63.443974 
L 197.293539 -63.287731 
L 197.233359 -63.131488 
L 197.179273 -62.975245 
L 197.130856 -62.819002 
L 197.087564 -62.662759 
L 197.048757 -62.506516 
L 197.013704 -62.350274 
L 196.981612 -62.194031 
L 196.951635 -62.037788 
L 196.922897 -61.881545 
L 196.894513 -61.725302 
L 196.865601 -61.569059 
L 196.835309 -61.412816 
L 196.802823 -61.256573 
L 196.767391 -61.10033 
L 196.728328 -60.944087 
L 196.685037 -60.787844 
L 196.637012 -60.631602 
L 196.583848 -60.475359 
L 196.525249 -60.319116 
L 196.461026 -60.162873 
L 196.391102 -60.00663 
L 196.315509 -59.850387 
L 196.234383 -59.694144 
L 196.14796 -59.537901 
L 196.05657 -59.381658 
L 195.960624 -59.225415 
L 195.860609 -59.069173 
L 195.757073 -58.91293 
L 195.650614 -58.756687 
L 195.54187 -58.600444 
z
" style="stroke: #333333; stroke-width: 0.3"/>
    </defs>
    <g clip-path="url(#p24cad8495f)">
     <use xlink:href="#mec533b4353" x="0" y="132.29665" style="fill: #7b2f55; stroke: #333333; stroke-width: 0.3"/>
    </g>
   </g>
   <g id="PolyCollection_9">
    <defs>
     <path id="m9e32b7c718" d="M 244.642711 -31.454948 
L 235.437137 -31.454948 
L 235.065754 -31.523136 
L 234.699084 -31.591324 
L 234.342084 -31.659512 
L 233.999778 -31.727699 
L 233.677121 -31.795887 
L 233.378852 -31.864075 
L 233.109348 -31.932263 
L 232.87249 -32.000451 
L 232.671532 -32.068639 
L 232.508995 -32.136827 
L 232.386581 -32.205014 
L 232.305117 -32.273202 
L 232.264532 -32.34139 
L 232.263861 -32.409578 
L 232.30129 -32.477766 
L 232.374227 -32.545954 
L 232.4794 -32.614141 
L 232.612984 -32.682329 
L 232.770742 -32.750517 
L 232.948173 -32.818705 
L 233.140677 -32.886893 
L 233.343699 -32.955081 
L 233.552879 -33.023269 
L 233.764177 -33.091456 
L 233.973982 -33.159644 
L 234.179195 -33.227832 
L 234.377283 -33.29602 
L 234.566316 -33.364208 
L 234.744963 -33.432396 
L 234.912478 -33.500584 
L 235.068653 -33.568771 
L 235.213761 -33.636959 
L 235.348484 -33.705147 
L 235.473828 -33.773335 
L 235.59104 -33.841523 
L 235.701519 -33.909711 
L 235.806739 -33.977899 
L 235.908169 -34.046086 
L 236.007211 -34.114274 
L 236.105144 -34.182462 
L 236.203084 -34.25065 
L 236.301956 -34.318838 
L 236.402473 -34.387026 
L 236.505134 -34.455213 
L 236.610227 -34.523401 
L 236.71784 -34.591589 
L 236.827883 -34.659777 
L 236.94011 -34.727965 
L 237.054148 -34.796153 
L 237.169526 -34.864341 
L 237.285706 -34.932528 
L 237.402109 -35.000716 
L 237.518148 -35.068904 
L 237.63325 -35.137092 
L 237.746876 -35.20528 
L 237.858542 -35.273468 
L 237.967834 -35.341656 
L 238.074411 -35.409843 
L 238.178014 -35.478031 
L 238.278464 -35.546219 
L 238.375658 -35.614407 
L 238.469556 -35.682595 
L 238.560172 -35.750783 
L 238.647556 -35.81897 
L 238.731779 -35.887158 
L 238.812914 -35.955346 
L 238.891016 -36.023534 
L 238.966112 -36.091722 
L 239.038182 -36.15991 
L 239.107155 -36.228098 
L 239.1729 -36.296285 
L 239.235229 -36.364473 
L 239.293899 -36.432661 
L 239.348623 -36.500849 
L 239.399081 -36.569037 
L 239.444941 -36.637225 
L 239.485877 -36.705413 
L 239.521587 -36.7736 
L 239.55182 -36.841788 
L 239.576393 -36.909976 
L 239.595211 -36.978164 
L 239.608286 -37.046352 
L 239.615745 -37.11454 
L 239.617841 -37.182728 
L 239.614954 -37.250915 
L 239.607591 -37.319103 
L 239.596373 -37.387291 
L 239.582028 -37.455479 
L 239.565364 -37.523667 
L 239.547255 -37.591855 
L 239.528605 -37.660042 
L 239.510327 -37.72823 
L 239.493307 -37.796418 
L 239.478379 -37.864606 
L 239.46629 -37.932794 
L 239.457684 -38.000982 
L 239.453071 -38.06917 
L 239.45282 -38.137357 
L 239.457144 -38.205545 
L 240.622705 -38.205545 
L 240.622705 -38.205545 
L 240.627028 -38.137357 
L 240.626777 -38.06917 
L 240.622165 -38.000982 
L 240.613558 -37.932794 
L 240.60147 -37.864606 
L 240.586541 -37.796418 
L 240.569522 -37.72823 
L 240.551243 -37.660042 
L 240.532594 -37.591855 
L 240.514484 -37.523667 
L 240.497821 -37.455479 
L 240.483475 -37.387291 
L 240.472258 -37.319103 
L 240.464894 -37.250915 
L 240.462008 -37.182728 
L 240.464103 -37.11454 
L 240.471562 -37.046352 
L 240.484637 -36.978164 
L 240.503456 -36.909976 
L 240.528029 -36.841788 
L 240.558262 -36.7736 
L 240.593972 -36.705413 
L 240.634907 -36.637225 
L 240.680768 -36.569037 
L 240.731226 -36.500849 
L 240.785949 -36.432661 
L 240.844619 -36.364473 
L 240.906948 -36.296285 
L 240.972693 -36.228098 
L 241.041666 -36.15991 
L 241.113737 -36.091722 
L 241.188832 -36.023534 
L 241.266935 -35.955346 
L 241.348069 -35.887158 
L 241.432293 -35.81897 
L 241.519677 -35.750783 
L 241.610293 -35.682595 
L 241.70419 -35.614407 
L 241.801384 -35.546219 
L 241.901834 -35.478031 
L 242.005438 -35.409843 
L 242.112014 -35.341656 
L 242.221306 -35.273468 
L 242.332973 -35.20528 
L 242.446599 -35.137092 
L 242.5617 -35.068904 
L 242.677739 -35.000716 
L 242.794143 -34.932528 
L 242.910322 -34.864341 
L 243.0257 -34.796153 
L 243.139739 -34.727965 
L 243.251966 -34.659777 
L 243.362009 -34.591589 
L 243.469622 -34.523401 
L 243.574714 -34.455213 
L 243.677375 -34.387026 
L 243.777892 -34.318838 
L 243.876764 -34.25065 
L 243.974704 -34.182462 
L 244.072637 -34.114274 
L 244.171679 -34.046086 
L 244.273109 -33.977899 
L 244.378329 -33.909711 
L 244.488809 -33.841523 
L 244.60602 -33.773335 
L 244.731364 -33.705147 
L 244.866087 -33.636959 
L 245.011196 -33.568771 
L 245.167371 -33.500584 
L 245.334885 -33.432396 
L 245.513532 -33.364208 
L 245.702565 -33.29602 
L 245.900654 -33.227832 
L 246.105866 -33.159644 
L 246.315671 -33.091456 
L 246.52697 -33.023269 
L 246.73615 -32.955081 
L 246.939172 -32.886893 
L 247.131675 -32.818705 
L 247.309107 -32.750517 
L 247.466864 -32.682329 
L 247.600448 -32.614141 
L 247.705621 -32.545954 
L 247.778558 -32.477766 
L 247.815988 -32.409578 
L 247.815317 -32.34139 
L 247.774731 -32.273202 
L 247.693267 -32.205014 
L 247.570853 -32.136827 
L 247.408316 -32.068639 
L 247.207358 -32.000451 
L 246.9705 -31.932263 
L 246.700997 -31.864075 
L 246.402727 -31.795887 
L 246.08007 -31.727699 
L 245.737765 -31.659512 
L 245.380765 -31.591324 
L 245.014095 -31.523136 
L 244.642711 -31.454948 
z
" style="stroke: #333333; stroke-width: 0.3"/>
    </defs>
    <g clip-path="url(#p24cad8495f)">
     <use xlink:href="#m9e32b7c718" x="0" y="132.29665" style="fill: #519d91; stroke: #333333; stroke-width: 0.3"/>
    </g>
   </g>
   <g id="PolyCollection_10">
    <defs>
     <path id="mb06f68757f" d="M 260.461938 -31.379654 
L 250.722164 -31.379654 
L 250.634372 -31.451651 
L 250.552243 -31.523647 
L 250.476062 -31.595644 
L 250.40609 -31.667641 
L 250.342558 -31.739637 
L 250.285669 -31.811634 
L 250.235598 -31.88363 
L 250.192485 -31.955627 
L 250.15644 -32.027624 
L 250.127538 -32.09962 
L 250.105819 -32.171617 
L 250.09129 -32.243614 
L 250.083921 -32.31561 
L 250.083649 -32.387607 
L 250.090373 -32.459603 
L 250.10396 -32.5316 
L 250.12424 -32.603597 
L 250.151013 -32.675593 
L 250.184042 -32.74759 
L 250.223062 -32.819586 
L 250.267774 -32.891583 
L 250.317852 -32.96358 
L 250.372942 -33.035576 
L 250.432662 -33.107573 
L 250.496607 -33.179569 
L 250.564349 -33.251566 
L 250.635436 -33.323563 
L 250.7094 -33.395559 
L 250.785754 -33.467556 
L 250.863996 -33.539553 
L 250.943611 -33.611549 
L 251.024074 -33.683546 
L 251.104848 -33.755542 
L 251.185393 -33.827539 
L 251.265162 -33.899536 
L 251.343608 -33.971532 
L 251.420183 -34.043529 
L 251.494343 -34.115525 
L 251.565547 -34.187522 
L 251.633266 -34.259519 
L 251.696977 -34.331515 
L 251.756172 -34.403512 
L 251.810359 -34.475509 
L 251.859064 -34.547505 
L 251.901832 -34.619502 
L 251.938233 -34.691498 
L 251.967863 -34.763495 
L 251.990347 -34.835492 
L 252.005342 -34.907488 
L 252.012536 -34.979485 
L 252.011658 -35.051481 
L 252.002473 -35.123478 
L 251.984788 -35.195475 
L 251.958454 -35.267471 
L 251.923369 -35.339468 
L 251.879476 -35.411464 
L 251.826771 -35.483461 
L 251.765298 -35.555458 
L 251.695154 -35.627454 
L 251.616492 -35.699451 
L 251.529517 -35.771448 
L 251.434488 -35.843444 
L 251.33172 -35.915441 
L 251.221582 -35.987437 
L 251.104496 -36.059434 
L 250.980937 -36.131431 
L 250.851432 -36.203427 
L 250.716554 -36.275424 
L 250.576927 -36.34742 
L 250.433214 -36.419417 
L 250.286122 -36.491414 
L 250.136394 -36.56341 
L 249.984805 -36.635407 
L 249.832159 -36.707403 
L 249.679285 -36.7794 
L 249.527028 -36.851397 
L 249.376247 -36.923393 
L 249.227809 -36.99539 
L 249.082582 -37.067387 
L 248.941431 -37.139383 
L 248.805208 -37.21138 
L 248.674752 -37.283376 
L 248.550875 -37.355373 
L 248.434364 -37.42737 
L 248.325971 -37.499366 
L 248.226408 -37.571363 
L 248.136339 -37.643359 
L 248.05638 -37.715356 
L 247.987093 -37.787353 
L 247.928978 -37.859349 
L 247.882473 -37.931346 
L 247.84795 -38.003343 
L 247.825711 -38.075339 
L 247.815988 -38.147336 
L 247.818939 -38.219332 
L 247.834651 -38.291329 
L 247.863134 -38.363326 
L 247.904327 -38.435322 
L 247.958095 -38.507319 
L 263.226008 -38.507319 
L 263.226008 -38.507319 
L 263.279776 -38.435322 
L 263.320969 -38.363326 
L 263.349452 -38.291329 
L 263.365163 -38.219332 
L 263.368115 -38.147336 
L 263.358392 -38.075339 
L 263.336153 -38.003343 
L 263.30163 -37.931346 
L 263.255125 -37.859349 
L 263.19701 -37.787353 
L 263.127722 -37.715356 
L 263.047764 -37.643359 
L 262.957695 -37.571363 
L 262.858131 -37.499366 
L 262.749738 -37.42737 
L 262.633228 -37.355373 
L 262.509351 -37.283376 
L 262.378894 -37.21138 
L 262.242671 -37.139383 
L 262.10152 -37.067387 
L 261.956293 -36.99539 
L 261.807856 -36.923393 
L 261.657075 -36.851397 
L 261.504817 -36.7794 
L 261.351943 -36.707403 
L 261.199298 -36.635407 
L 261.047709 -36.56341 
L 260.897981 -36.491414 
L 260.750889 -36.419417 
L 260.607176 -36.34742 
L 260.467548 -36.275424 
L 260.332671 -36.203427 
L 260.203165 -36.131431 
L 260.079607 -36.059434 
L 259.962521 -35.987437 
L 259.852382 -35.915441 
L 259.749614 -35.843444 
L 259.654585 -35.771448 
L 259.56761 -35.699451 
L 259.488948 -35.627454 
L 259.418805 -35.555458 
L 259.357332 -35.483461 
L 259.304626 -35.411464 
L 259.260733 -35.339468 
L 259.225648 -35.267471 
L 259.199314 -35.195475 
L 259.18163 -35.123478 
L 259.172444 -35.051481 
L 259.171566 -34.979485 
L 259.178761 -34.907488 
L 259.193755 -34.835492 
L 259.216239 -34.763495 
L 259.24587 -34.691498 
L 259.282271 -34.619502 
L 259.325039 -34.547505 
L 259.373743 -34.475509 
L 259.42793 -34.403512 
L 259.487126 -34.331515 
L 259.550837 -34.259519 
L 259.618555 -34.187522 
L 259.68976 -34.115525 
L 259.763919 -34.043529 
L 259.840494 -33.971532 
L 259.91894 -33.899536 
L 259.998709 -33.827539 
L 260.079254 -33.755542 
L 260.160029 -33.683546 
L 260.240491 -33.611549 
L 260.320106 -33.539553 
L 260.398349 -33.467556 
L 260.474703 -33.395559 
L 260.548667 -33.323563 
L 260.619754 -33.251566 
L 260.687495 -33.179569 
L 260.75144 -33.107573 
L 260.811161 -33.035576 
L 260.86625 -32.96358 
L 260.916329 -32.891583 
L 260.961041 -32.819586 
L 261.00006 -32.74759 
L 261.03309 -32.675593 
L 261.059862 -32.603597 
L 261.080143 -32.5316 
L 261.093729 -32.459603 
L 261.100454 -32.387607 
L 261.100181 -32.31561 
L 261.092812 -32.243614 
L 261.078283 -32.171617 
L 261.056565 -32.09962 
L 261.027662 -32.027624 
L 260.991617 -31.955627 
L 260.948504 -31.88363 
L 260.898433 -31.811634 
L 260.841545 -31.739637 
L 260.778013 -31.667641 
L 260.70804 -31.595644 
L 260.63186 -31.523647 
L 260.549731 -31.451651 
L 260.461938 -31.379654 
z
" style="stroke: #333333; stroke-width: 0.3"/>
    </defs>
    <g clip-path="url(#p24cad8495f)">
     <use xlink:href="#mb06f68757f" x="0" y="132.29665" style="fill: #bf7380; stroke: #333333; stroke-width: 0.3"/>
    </g>
   </g>
   <g id="PolyCollection_11">
    <defs>
     <path id="m474176ce9a" d="M 271.376319 -31.778763 
L 270.912037 -31.778763 
L 270.889431 -31.852355 
L 270.867596 -31.925947 
L 270.846528 -31.999539 
L 270.826109 -32.073131 
L 270.806153 -32.146723 
L 270.786462 -32.220315 
L 270.766868 -32.293907 
L 270.747265 -32.367499 
L 270.727602 -32.441091 
L 270.707859 -32.514683 
L 270.687987 -32.588275 
L 270.667832 -32.661867 
L 270.647049 -32.735459 
L 270.625022 -32.809051 
L 270.600795 -32.882643 
L 270.573027 -32.956235 
L 270.539985 -33.029827 
L 270.499567 -33.103419 
L 270.449378 -33.177011 
L 270.386848 -33.250603 
L 270.309395 -33.324195 
L 270.21464 -33.397787 
L 270.100649 -33.471379 
L 269.9662 -33.544971 
L 269.811044 -33.618563 
L 269.63613 -33.692155 
L 269.44377 -33.765747 
L 269.237692 -33.839339 
L 269.022967 -33.912931 
L 268.805786 -33.986523 
L 268.593079 -34.060115 
L 268.39201 -34.133707 
L 268.209382 -34.207299 
L 268.051022 -34.280891 
L 267.921228 -34.354483 
L 267.82235 -34.428075 
L 267.754582 -34.501667 
L 267.715978 -34.575259 
L 267.702708 -34.648851 
L 267.709499 -34.722443 
L 267.730185 -34.796035 
L 267.758271 -34.869627 
L 267.78742 -34.943219 
L 267.81179 -35.016811 
L 267.826187 -35.090403 
L 267.826049 -35.163995 
L 267.807309 -35.237587 
L 267.766227 -35.311179 
L 267.699273 -35.384771 
L 267.603151 -35.458363 
L 267.47502 -35.531955 
L 267.31291 -35.605547 
L 267.1163 -35.679139 
L 266.88675 -35.752731 
L 266.62848 -35.826323 
L 266.348732 -35.899915 
L 266.057808 -35.973507 
L 265.768695 -36.047099 
L 265.496245 -36.120691 
L 265.255993 -36.194283 
L 265.062718 -36.267875 
L 264.928938 -36.341467 
L 264.863547 -36.415059 
L 264.870774 -36.488651 
L 264.949616 -36.562243 
L 265.093809 -36.635835 
L 265.292327 -36.709427 
L 265.530331 -36.783019 
L 265.790412 -36.856611 
L 266.053976 -36.930203 
L 266.302596 -37.003796 
L 266.519199 -37.077388 
L 266.688998 -37.15098 
L 266.800138 -37.224572 
L 266.844056 -37.298164 
L 266.815635 -37.371756 
L 266.713203 -37.445348 
L 266.538479 -37.51894 
L 266.296507 -37.592532 
L 265.995627 -37.666124 
L 265.647441 -37.739716 
L 265.266738 -37.813308 
L 264.871266 -37.8869 
L 264.481261 -37.960492 
L 264.118654 -38.034084 
L 263.80592 -38.107676 
L 263.564617 -38.181268 
L 263.413748 -38.25486 
L 263.368115 -38.328452 
L 263.43691 -38.402044 
L 263.622753 -38.475636 
L 263.921336 -38.549228 
L 264.321758 -38.62282 
L 264.807523 -38.696412 
L 265.358044 -38.770004 
L 265.950481 -38.843596 
L 266.561637 -38.917188 
L 267.169699 -38.99078 
L 267.75564 -39.064372 
L 274.532716 -39.064372 
L 274.532716 -39.064372 
L 275.118657 -38.99078 
L 275.72672 -38.917188 
L 276.337875 -38.843596 
L 276.930312 -38.770004 
L 277.480834 -38.696412 
L 277.966598 -38.62282 
L 278.367021 -38.549228 
L 278.665603 -38.475636 
L 278.851446 -38.402044 
L 278.920242 -38.328452 
L 278.874609 -38.25486 
L 278.72374 -38.181268 
L 278.482437 -38.107676 
L 278.169702 -38.034084 
L 277.807095 -37.960492 
L 277.417091 -37.8869 
L 277.021619 -37.813308 
L 276.640915 -37.739716 
L 276.29273 -37.666124 
L 275.991849 -37.592532 
L 275.749878 -37.51894 
L 275.575153 -37.445348 
L 275.472722 -37.371756 
L 275.4443 -37.298164 
L 275.488219 -37.224572 
L 275.599358 -37.15098 
L 275.769158 -37.077388 
L 275.985761 -37.003796 
L 276.23438 -36.930203 
L 276.497944 -36.856611 
L 276.758025 -36.783019 
L 276.996029 -36.709427 
L 277.194548 -36.635835 
L 277.338741 -36.562243 
L 277.417583 -36.488651 
L 277.42481 -36.415059 
L 277.359419 -36.341467 
L 277.225639 -36.267875 
L 277.032363 -36.194283 
L 276.792111 -36.120691 
L 276.519661 -36.047099 
L 276.230548 -35.973507 
L 275.939625 -35.899915 
L 275.659877 -35.826323 
L 275.401606 -35.752731 
L 275.172057 -35.679139 
L 274.975446 -35.605547 
L 274.813336 -35.531955 
L 274.685205 -35.458363 
L 274.589083 -35.384771 
L 274.522129 -35.311179 
L 274.481048 -35.237587 
L 274.462308 -35.163995 
L 274.462169 -35.090403 
L 274.476566 -35.016811 
L 274.500936 -34.943219 
L 274.530086 -34.869627 
L 274.558172 -34.796035 
L 274.578858 -34.722443 
L 274.585648 -34.648851 
L 274.572378 -34.575259 
L 274.533774 -34.501667 
L 274.466006 -34.428075 
L 274.367129 -34.354483 
L 274.237334 -34.280891 
L 274.078974 -34.207299 
L 273.896346 -34.133707 
L 273.695278 -34.060115 
L 273.482571 -33.986523 
L 273.265389 -33.912931 
L 273.050664 -33.839339 
L 272.844586 -33.765747 
L 272.652226 -33.692155 
L 272.477313 -33.618563 
L 272.322156 -33.544971 
L 272.187707 -33.471379 
L 272.073716 -33.397787 
L 271.978961 -33.324195 
L 271.901508 -33.250603 
L 271.838978 -33.177011 
L 271.78879 -33.103419 
L 271.748372 -33.029827 
L 271.715329 -32.956235 
L 271.687561 -32.882643 
L 271.663334 -32.809051 
L 271.641307 -32.735459 
L 271.620525 -32.661867 
L 271.60037 -32.588275 
L 271.580498 -32.514683 
L 271.560755 -32.441091 
L 271.541092 -32.367499 
L 271.521488 -32.293907 
L 271.501895 -32.220315 
L 271.482204 -32.146723 
L 271.462248 -32.073131 
L 271.441828 -31.999539 
L 271.42076 -31.925947 
L 271.398925 -31.852355 
L 271.376319 -31.778763 
z
" style="stroke: #333333; stroke-width: 0.3"/>
    </defs>
    <g clip-path="url(#p24cad8495f)">
     <use xlink:href="#m474176ce9a" x="0" y="132.29665" style="fill: #7b2f55; stroke: #333333; stroke-width: 0.3"/>
    </g>
   </g>
   <g id="patch_3">
    <path d="M 92.294718 101.222509 
L 92.294718 101.222509 
L 92.294718 101.222509 
L 92.294718 101.222509 
z
" clip-path="url(#p24cad8495f)" style="fill: #3c2f7b; stroke: #333333; stroke-width: 0.3; stroke-linejoin: miter"/>
   </g>
   <g id="patch_4">
    <path d="M 92.294718 101.222509 
L 92.294718 101.222509 
L 92.294718 101.222509 
L 92.294718 101.222509 
z
" clip-path="url(#p24cad8495f)" style="fill: #519d91; stroke: #333333; stroke-width: 0.3; stroke-linejoin: miter"/>
   </g>
   <g id="patch_5">
    <path d="M 92.294718 101.222509 
L 92.294718 101.222509 
L 92.294718 101.222509 
L 92.294718 101.222509 
z
" clip-path="url(#p24cad8495f)" style="fill: #bf7380; stroke: #333333; stroke-width: 0.3; stroke-linejoin: miter"/>
   </g>
   <g id="patch_6">
    <path d="M 92.294718 101.222509 
L 92.294718 101.222509 
L 92.294718 101.222509 
L 92.294718 101.222509 
z
" clip-path="url(#p24cad8495f)" style="fill: #7b2f55; stroke: #333333; stroke-width: 0.3; stroke-linejoin: miter"/>
   </g>
   <g id="line2d_1">
    <path d="M 68.966527 99.737451 
L 68.966527 99.118736 
" clip-path="url(#p24cad8495f)" style="fill: none; stroke: #b2b2b2; stroke-width: 1.666667; stroke-linecap: round"/>
   </g>
   <g id="line2d_2">
    <path d="M 68.966527 99.582772 
L 68.966527 99.273415 
" clip-path="url(#p24cad8495f)" style="fill: none; stroke: #b2b2b2; stroke-width: 5; stroke-linecap: round"/>
   </g>
   <g id="line2d_3">
    <path d="M 68.966527 99.428094 
" clip-path="url(#p24cad8495f)" style="fill: none; stroke: #333333; stroke-width: 1.2; stroke-linecap: round"/>
    <defs>
     <path id="m3dc3d7b709" d="M 2.083333 0 
L -2.083333 -0 
" style="stroke: #ffffff"/>
    </defs>
    <g clip-path="url(#p24cad8495f)">
     <use xlink:href="#m3dc3d7b709" x="68.966527" y="99.428094" style="fill: #ffffff; stroke: #ffffff"/>
    </g>
   </g>
   <g id="line2d_4">
    <path d="M 84.518654 100.937186 
L 84.518654 88.974157 
" clip-path="url(#p24cad8495f)" style="fill: none; stroke: #b2b2b2; stroke-width: 1.666667; stroke-linecap: round"/>
   </g>
   <g id="line2d_5">
    <path d="M 84.518654 98.71995 
L 84.518654 94.817437 
" clip-path="url(#p24cad8495f)" style="fill: none; stroke: #b2b2b2; stroke-width: 5; stroke-linecap: round"/>
   </g>
   <g id="line2d_6">
    <path d="M 84.518654 96.925749 
" clip-path="url(#p24cad8495f)" style="fill: none; stroke: #333333; stroke-width: 1.2; stroke-linecap: round"/>
    <g clip-path="url(#p24cad8495f)">
     <use xlink:href="#m3dc3d7b709" x="84.518654" y="96.925749" style="fill: #ffffff; stroke: #ffffff"/>
    </g>
   </g>
   <g id="line2d_7">
    <path d="M 100.070781 91.407964 
L 100.070781 69.580624 
" clip-path="url(#p24cad8495f)" style="fill: none; stroke: #b2b2b2; stroke-width: 1.666667; stroke-linecap: round"/>
   </g>
   <g id="line2d_8">
    <path d="M 100.070781 85.369126 
L 100.070781 79.048001 
" clip-path="url(#p24cad8495f)" style="fill: none; stroke: #b2b2b2; stroke-width: 5; stroke-linecap: round"/>
   </g>
   <g id="line2d_9">
    <path d="M 100.070781 82.621139 
" clip-path="url(#p24cad8495f)" style="fill: none; stroke: #333333; stroke-width: 1.2; stroke-linecap: round"/>
    <g clip-path="url(#p24cad8495f)">
     <use xlink:href="#m3dc3d7b709" x="100.070781" y="82.621139" style="fill: #ffffff; stroke: #ffffff"/>
    </g>
   </g>
   <g id="line2d_10">
    <path d="M 115.622908 87.342675 
L 115.622908 61.010293 
" clip-path="url(#p24cad8495f)" style="fill: none; stroke: #b2b2b2; stroke-width: 1.666667; stroke-linecap: round"/>
   </g>
   <g id="line2d_11">
    <path d="M 115.622908 80.324134 
L 115.622908 71.841808 
" clip-path="url(#p24cad8495f)" style="fill: none; stroke: #b2b2b2; stroke-width: 5; stroke-linecap: round"/>
   </g>
   <g id="line2d_12">
    <path d="M 115.622908 75.876524 
" clip-path="url(#p24cad8495f)" style="fill: none; stroke: #333333; stroke-width: 1.2; stroke-linecap: round"/>
    <g clip-path="url(#p24cad8495f)">
     <use xlink:href="#m3dc3d7b709" x="115.622908" y="75.876524" style="fill: #ffffff; stroke: #ffffff"/>
    </g>
   </g>
   <g id="line2d_13">
    <path d="M 146.727162 99.796076 
L 146.727162 98.835218 
" clip-path="url(#p24cad8495f)" style="fill: none; stroke: #b2b2b2; stroke-width: 1.666667; stroke-linecap: round"/>
   </g>
   <g id="line2d_14">
    <path d="M 146.727162 99.71926 
L 146.727162 99.27596 
" clip-path="url(#p24cad8495f)" style="fill: none; stroke: #b2b2b2; stroke-width: 5; stroke-linecap: round"/>
   </g>
   <g id="line2d_15">
    <path d="M 146.727162 99.558264 
" clip-path="url(#p24cad8495f)" style="fill: none; stroke: #333333; stroke-width: 1.2; stroke-linecap: round"/>
    <g clip-path="url(#p24cad8495f)">
     <use xlink:href="#m3dc3d7b709" x="146.727162" y="99.558264" style="fill: #ffffff; stroke: #ffffff"/>
    </g>
   </g>
   <g id="line2d_16">
    <path d="M 162.279289 100.932743 
L 162.279289 84.701491 
" clip-path="url(#p24cad8495f)" style="fill: none; stroke: #b2b2b2; stroke-width: 1.666667; stroke-linecap: round"/>
   </g>
   <g id="line2d_17">
    <path d="M 162.279289 99.181751 
L 162.279289 93.369903 
" clip-path="url(#p24cad8495f)" style="fill: none; stroke: #b2b2b2; stroke-width: 5; stroke-linecap: round"/>
   </g>
   <g id="line2d_18">
    <path d="M 162.279289 97.6187 
" clip-path="url(#p24cad8495f)" style="fill: none; stroke: #333333; stroke-width: 1.2; stroke-linecap: round"/>
    <g clip-path="url(#p24cad8495f)">
     <use xlink:href="#m3dc3d7b709" x="162.279289" y="97.6187" style="fill: #ffffff; stroke: #ffffff"/>
    </g>
   </g>
   <g id="line2d_19">
    <path d="M 177.831416 89.952414 
L 177.831416 71.382502 
" clip-path="url(#p24cad8495f)" style="fill: none; stroke: #b2b2b2; stroke-width: 1.666667; stroke-linecap: round"/>
   </g>
   <g id="line2d_20">
    <path d="M 177.831416 83.882225 
L 177.831416 78.881553 
" clip-path="url(#p24cad8495f)" style="fill: none; stroke: #b2b2b2; stroke-width: 5; stroke-linecap: round"/>
   </g>
   <g id="line2d_21">
    <path d="M 177.831416 82.473586 
" clip-path="url(#p24cad8495f)" style="fill: none; stroke: #333333; stroke-width: 1.2; stroke-linecap: round"/>
    <g clip-path="url(#p24cad8495f)">
     <use xlink:href="#m3dc3d7b709" x="177.831416" y="82.473586" style="fill: #ffffff; stroke: #ffffff"/>
    </g>
   </g>
   <g id="line2d_22">
    <path d="M 193.383543 73.696206 
L 193.383543 58.228159 
" clip-path="url(#p24cad8495f)" style="fill: none; stroke: #b2b2b2; stroke-width: 1.666667; stroke-linecap: round"/>
   </g>
   <g id="line2d_23">
    <path d="M 193.383543 66.793426 
L 193.383543 60.673169 
" clip-path="url(#p24cad8495f)" style="fill: none; stroke: #b2b2b2; stroke-width: 5; stroke-linecap: round"/>
   </g>
   <g id="line2d_24">
    <path d="M 193.383543 64.163147 
" clip-path="url(#p24cad8495f)" style="fill: none; stroke: #333333; stroke-width: 1.2; stroke-linecap: round"/>
    <g clip-path="url(#p24cad8495f)">
     <use xlink:href="#m3dc3d7b709" x="193.383543" y="64.163147" style="fill: #ffffff; stroke: #ffffff"/>
    </g>
   </g>
   <g id="line2d_25">
    <path d="M 240.039924 100.841702 
L 240.039924 96.159144 
" clip-path="url(#p24cad8495f)" style="fill: none; stroke: #b2b2b2; stroke-width: 1.666667; stroke-linecap: round"/>
   </g>
   <g id="line2d_26">
    <path d="M 240.039924 100.051101 
L 240.039924 98.22563 
" clip-path="url(#p24cad8495f)" style="fill: none; stroke: #b2b2b2; stroke-width: 5; stroke-linecap: round"/>
   </g>
   <g id="line2d_27">
    <path d="M 240.039924 99.510908 
" clip-path="url(#p24cad8495f)" style="fill: none; stroke: #333333; stroke-width: 1.2; stroke-linecap: round"/>
    <g clip-path="url(#p24cad8495f)">
     <use xlink:href="#m3dc3d7b709" x="240.039924" y="99.510908" style="fill: #ffffff; stroke: #ffffff"/>
    </g>
   </g>
   <g id="line2d_28">
    <path d="M 255.592051 100.916996 
L 255.592051 93.789331 
" clip-path="url(#p24cad8495f)" style="fill: none; stroke: #b2b2b2; stroke-width: 1.666667; stroke-linecap: round"/>
   </g>
   <g id="line2d_29">
    <path d="M 255.592051 99.919609 
L 255.592051 93.975714 
" clip-path="url(#p24cad8495f)" style="fill: none; stroke: #b2b2b2; stroke-width: 5; stroke-linecap: round"/>
   </g>
   <g id="line2d_30">
    <path d="M 255.592051 94.566978 
" clip-path="url(#p24cad8495f)" style="fill: none; stroke: #333333; stroke-width: 1.2; stroke-linecap: round"/>
    <g clip-path="url(#p24cad8495f)">
     <use xlink:href="#m3dc3d7b709" x="255.592051" y="94.566978" style="fill: #ffffff; stroke: #ffffff"/>
    </g>
   </g>
   <g id="line2d_31">
    <path d="M 271.144178 100.517887 
L 271.144178 93.232278 
" clip-path="url(#p24cad8495f)" style="fill: none; stroke: #b2b2b2; stroke-width: 1.666667; stroke-linecap: round"/>
   </g>
   <g id="line2d_32">
    <path d="M 271.144178 96.730904 
L 271.144178 94.003716 
" clip-path="url(#p24cad8495f)" style="fill: none; stroke: #b2b2b2; stroke-width: 5; stroke-linecap: round"/>
   </g>
   <g id="line2d_33">
    <path d="M 271.144178 95.591761 
" clip-path="url(#p24cad8495f)" style="fill: none; stroke: #333333; stroke-width: 1.2; stroke-linecap: round"/>
    <g clip-path="url(#p24cad8495f)">
     <use xlink:href="#m3dc3d7b709" x="271.144178" y="95.591761" style="fill: #ffffff; stroke: #ffffff"/>
    </g>
   </g>
   <g id="patch_7">
    <path d="M 53.4144 103.186 
L 53.4144 22.68285 
" style="fill: none; stroke: #373737; stroke-linejoin: miter; stroke-linecap: square"/>
   </g>
   <g id="patch_8">
    <path d="M 53.4144 103.186 
L 286.696305 103.186 
" style="fill: none; stroke: #373737; stroke-linejoin: miter; stroke-linecap: square"/>
   </g>
   <g id="text_8">
    <text style="fill: #373737; font: 12.48px 'Arial', 'DejaVu Sans', 'Liberation Sans', 'Bitstream Vera Sans', sans-serif; text-anchor: middle" x="170.055353" y="16.68285" transform="rotate(-0 170.055353 16.68285)">Het Mean Biomass</text>
   </g>
  </g>
  <g id="legend_1">
   <g id="text_9">
    <text style="fill: #373737; font: 12.48px 'Arial', 'DejaVu Sans', 'Liberation Sans', 'Bitstream Vera Sans', sans-serif; text-anchor: start" x="314.727564" y="35.834925" transform="rotate(-0 314.727564 35.834925)">y_pred</text>
   </g>
   <g id="patch_9">
    <path d="M 291.363233 53.190088 
L 314.243233 53.190088 
L 314.243233 45.182088 
L 291.363233 45.182088 
z
" style="fill: #3c2f7b; stroke: #333333; stroke-width: 0.3; stroke-linejoin: miter"/>
   </g>
   <g id="text_10">
    <text style="fill: #373737; font: 11.44px 'Arial', 'DejaVu Sans', 'Liberation Sans', 'Bitstream Vera Sans', sans-serif; text-anchor: start" x="323.395233" y="53.190088" transform="rotate(-0 323.395233 53.190088)">Inhibited</text>
   </g>
   <g id="patch_10">
    <path d="M 291.363233 69.981863 
L 314.243233 69.981863 
L 314.243233 61.973863 
L 291.363233 61.973863 
z
" style="fill: #519d91; stroke: #333333; stroke-width: 0.3; stroke-linejoin: miter"/>
   </g>
   <g id="text_11">
    <text style="fill: #373737; font: 11.44px 'Arial', 'DejaVu Sans', 'Liberation Sans', 'Bitstream Vera Sans', sans-serif; text-anchor: start" x="323.395233" y="69.981863" transform="rotate(-0 323.395233 69.981863)">Weak</text>
   </g>
   <g id="patch_11">
    <path d="M 291.363233 86.773638 
L 314.243233 86.773638 
L 314.243233 78.765638 
L 291.363233 78.765638 
z
" style="fill: #bf7380; stroke: #333333; stroke-width: 0.3; stroke-linejoin: miter"/>
   </g>
   <g id="text_12">
    <text style="fill: #373737; font: 11.44px 'Arial', 'DejaVu Sans', 'Liberation Sans', 'Bitstream Vera Sans', sans-serif; text-anchor: start" x="323.395233" y="86.773638" transform="rotate(-0 323.395233 86.773638)">Sustained</text>
   </g>
   <g id="patch_12">
    <path d="M 291.363233 103.565413 
L 314.243233 103.565413 
L 314.243233 95.557413 
L 291.363233 95.557413 
z
" style="fill: #7b2f55; stroke: #333333; stroke-width: 0.3; stroke-linejoin: miter"/>
   </g>
   <g id="text_13">
    <text style="fill: #373737; font: 11.44px 'Arial', 'DejaVu Sans', 'Liberation Sans', 'Bitstream Vera Sans', sans-serif; text-anchor: start" x="323.395233" y="103.565413" transform="rotate(-0 323.395233 103.565413)">Strong</text>
   </g>
  </g>
 </g>
 <defs>
  <clipPath id="p24cad8495f">
   <rect x="53.4144" y="22.68285" width="233.281905" height="80.50315"/>
  </clipPath>
 </defs>
</svg>
