<?xml version="1.0" encoding="utf-8" standalone="no"?>
<!DOCTYPE svg PUBLIC "-//W3C//DTD SVG 1.1//EN"
  "http://www.w3.org/Graphics/SVG/1.1/DTD/svg11.dtd">
<svg xmlns:xlink="http://www.w3.org/1999/xlink" width="390.388945pt" height="132.29665pt" viewBox="0 0 390.388945 132.29665" xmlns="http://www.w3.org/2000/svg" version="1.1">
 <metadata>
  <rdf:RDF xmlns:dc="http://purl.org/dc/elements/1.1/" xmlns:cc="http://creativecommons.org/ns#" xmlns:rdf="http://www.w3.org/1999/02/22-rdf-syntax-ns#">
   <cc:Work>
    <dc:type rdf:resource="http://purl.org/dc/dcmitype/StillImage"/>
    <dc:date>2025-10-13T19:21:53.522858</dc:date>
    <dc:format>image/svg+xml</dc:format>
    <dc:creator>
     <cc:Agent>
      <dc:title>Matplotlib v3.7.1, https://matplotlib.org/</dc:title>
     </cc:Agent>
    </dc:creator>
   </cc:Work>
  </rdf:RDF>
 </metadata>
 <defs>
  <style type="text/css">*{stroke-linejoin: round; stroke-linecap: butt}</style>
 </defs>
 <g id="figure_1">
  <g id="patch_1">
   <path d="M 0 132.29665 
L 390.388945 132.29665 
L 390.388945 0 
L 0 0 
L 0 132.29665 
z
" style="fill: none"/>
  </g>
  <g id="axes_1">
   <g id="patch_2">
    <path d="M 53.4144 103.186 
L 286.696305 103.186 
L 286.696305 22.68285 
L 53.4144 22.68285 
L 53.4144 103.186 
z
" style="fill: none"/>
   </g>
   <g id="matplotlib.axis_1">
    <g id="xtick_1">
     <g id="text_1">
      <text style="fill: #373737; font: 11.44px 'Arial', 'DejaVu Sans', 'Liberation Sans', 'Bitstream Vera Sans', sans-serif; text-anchor: middle" x="92.294718" y="120.178612" transform="rotate(-0 92.294718 120.178612)">OVERFLOW</text>
     </g>
    </g>
    <g id="xtick_2">
     <g id="text_2">
      <text style="fill: #373737; font: 11.44px 'Arial', 'DejaVu Sans', 'Liberation Sans', 'Bitstream Vera Sans', sans-serif; text-anchor: middle" x="170.055353" y="120.178612" transform="rotate(-0 170.055353 120.178612)">EXOENZYME</text>
     </g>
    </g>
    <g id="xtick_3">
     <g id="text_3">
      <text style="fill: #373737; font: 11.44px 'Arial', 'DejaVu Sans', 'Liberation Sans', 'Bitstream Vera Sans', sans-serif; text-anchor: middle" x="247.815988" y="120.178612" transform="rotate(-0 247.815988 120.178612)">ROS</text>
     </g>
    </g>
   </g>
   <g id="matplotlib.axis_2">
    <g id="ytick_1">
     <g id="text_4">
      <text style="fill: #373737; font: 11.44px 'Arial', 'DejaVu Sans', 'Liberation Sans', 'Bitstream Vera Sans', sans-serif; text-anchor: end" x="45.1144" y="105.568815" transform="rotate(-0 45.1144 105.568815)">0</text>
     </g>
    </g>
    <g id="ytick_2">
     <g id="text_5">
      <text style="fill: #373737; font: 11.44px 'Arial', 'DejaVu Sans', 'Liberation Sans', 'Bitstream Vera Sans', sans-serif; text-anchor: end" x="45.1144" y="66.298986" transform="rotate(-0 45.1144 66.298986)">200</text>
     </g>
    </g>
    <g id="ytick_3">
     <g id="text_6">
      <text style="fill: #373737; font: 11.44px 'Arial', 'DejaVu Sans', 'Liberation Sans', 'Bitstream Vera Sans', sans-serif; text-anchor: end" x="45.1144" y="27.029156" transform="rotate(-0 45.1144 27.029156)">400</text>
     </g>
    </g>
    <g id="text_7">
     <text style="fill: #373737; font: 12.48px 'Arial', 'DejaVu Sans', 'Liberation Sans', 'Bitstream Vera Sans', sans-serif; text-anchor: middle" x="16.68285" y="62.934425" transform="rotate(-90 16.68285 62.934425)">µM C</text>
    </g>
   </g>
   <g id="PolyCollection_1">
    <defs>
     <path id="md859b8af07" d="M 75.819304 -31.514395 
L 62.11375 -31.514395 
L 62.075634 -31.515183 
L 62.03834 -31.51597 
L 62.00187 -31.516757 
L 61.966227 -31.517544 
L 61.931413 -31.518332 
L 61.897429 -31.519119 
L 61.864276 -31.519906 
L 61.831955 -31.520694 
L 61.800465 -31.521481 
L 61.769806 -31.522268 
L 61.739977 -31.523055 
L 61.710977 -31.523843 
L 61.682804 -31.52463 
L 61.655456 -31.525417 
L 61.62893 -31.526205 
L 61.603226 -31.526992 
L 61.578338 -31.527779 
L 61.554265 -31.528566 
L 61.531002 -31.529354 
L 61.508547 -31.530141 
L 61.486895 -31.530928 
L 61.466042 -31.531716 
L 61.445985 -31.532503 
L 61.42672 -31.53329 
L 61.408241 -31.534078 
L 61.390545 -31.534865 
L 61.373628 -31.535652 
L 61.357485 -31.536439 
L 61.342111 -31.537227 
L 61.327502 -31.538014 
L 61.313655 -31.538801 
L 61.300565 -31.539589 
L 61.288227 -31.540376 
L 61.276638 -31.541163 
L 61.265793 -31.54195 
L 61.25569 -31.542738 
L 61.246325 -31.543525 
L 61.237693 -31.544312 
L 61.229793 -31.5451 
L 61.222621 -31.545887 
L 61.216174 -31.546674 
L 61.21045 -31.547461 
L 61.205446 -31.548249 
L 61.201161 -31.549036 
L 61.197593 -31.549823 
L 61.19474 -31.550611 
L 61.192601 -31.551398 
L 61.191176 -31.552185 
L 61.190464 -31.552972 
L 61.190464 -31.55376 
L 61.191176 -31.554547 
L 61.192601 -31.555334 
L 61.19474 -31.556122 
L 61.197593 -31.556909 
L 61.201161 -31.557696 
L 61.205446 -31.558483 
L 61.21045 -31.559271 
L 61.216174 -31.560058 
L 61.222621 -31.560845 
L 61.229793 -31.561633 
L 61.237693 -31.56242 
L 61.246325 -31.563207 
L 61.25569 -31.563994 
L 61.265793 -31.564782 
L 61.276638 -31.565569 
L 61.288227 -31.566356 
L 61.300565 -31.567144 
L 61.313655 -31.567931 
L 61.327502 -31.568718 
L 61.342111 -31.569505 
L 61.357485 -31.570293 
L 61.373628 -31.57108 
L 61.390545 -31.571867 
L 61.408241 -31.572655 
L 61.42672 -31.573442 
L 61.445985 -31.574229 
L 61.466042 -31.575017 
L 61.486895 -31.575804 
L 61.508547 -31.576591 
L 61.531002 -31.577378 
L 61.554265 -31.578166 
L 61.578338 -31.578953 
L 61.603226 -31.57974 
L 61.62893 -31.580528 
L 61.655456 -31.581315 
L 61.682804 -31.582102 
L 61.710977 -31.582889 
L 61.739977 -31.583677 
L 61.769806 -31.584464 
L 61.800465 -31.585251 
L 61.831955 -31.586039 
L 61.864276 -31.586826 
L 61.897429 -31.587613 
L 61.931413 -31.5884 
L 61.966227 -31.589188 
L 62.00187 -31.589975 
L 62.03834 -31.590762 
L 62.075634 -31.59155 
L 62.11375 -31.592337 
L 75.819304 -31.592337 
L 75.819304 -31.592337 
L 75.85742 -31.59155 
L 75.894714 -31.590762 
L 75.931184 -31.589975 
L 75.966827 -31.589188 
L 76.001641 -31.5884 
L 76.035625 -31.587613 
L 76.068778 -31.586826 
L 76.101099 -31.586039 
L 76.132589 -31.585251 
L 76.163248 -31.584464 
L 76.193077 -31.583677 
L 76.222077 -31.582889 
L 76.25025 -31.582102 
L 76.277598 -31.581315 
L 76.304124 -31.580528 
L 76.329828 -31.57974 
L 76.354716 -31.578953 
L 76.37879 -31.578166 
L 76.402052 -31.577378 
L 76.424508 -31.576591 
L 76.446159 -31.575804 
L 76.467012 -31.575017 
L 76.487069 -31.574229 
L 76.506334 -31.573442 
L 76.524813 -31.572655 
L 76.542509 -31.571867 
L 76.559426 -31.57108 
L 76.57557 -31.570293 
L 76.590943 -31.569505 
L 76.605552 -31.568718 
L 76.619399 -31.567931 
L 76.632489 -31.567144 
L 76.644827 -31.566356 
L 76.656416 -31.565569 
L 76.667261 -31.564782 
L 76.677364 -31.563994 
L 76.686729 -31.563207 
L 76.695361 -31.56242 
L 76.703261 -31.561633 
L 76.710433 -31.560845 
L 76.71688 -31.560058 
L 76.722604 -31.559271 
L 76.727608 -31.558483 
L 76.731893 -31.557696 
L 76.735461 -31.556909 
L 76.738314 -31.556122 
L 76.740453 -31.555334 
L 76.741878 -31.554547 
L 76.742591 -31.55376 
L 76.742591 -31.552972 
L 76.741878 -31.552185 
L 76.740453 -31.551398 
L 76.738314 -31.550611 
L 76.735461 -31.549823 
L 76.731893 -31.549036 
L 76.727608 -31.548249 
L 76.722604 -31.547461 
L 76.71688 -31.546674 
L 76.710433 -31.545887 
L 76.703261 -31.5451 
L 76.695361 -31.544312 
L 76.686729 -31.543525 
L 76.677364 -31.542738 
L 76.667261 -31.54195 
L 76.656416 -31.541163 
L 76.644827 -31.540376 
L 76.632489 -31.539589 
L 76.619399 -31.538801 
L 76.605552 -31.538014 
L 76.590943 -31.537227 
L 76.57557 -31.536439 
L 76.559426 -31.535652 
L 76.542509 -31.534865 
L 76.524813 -31.534078 
L 76.506334 -31.53329 
L 76.487069 -31.532503 
L 76.467012 -31.531716 
L 76.446159 -31.530928 
L 76.424508 -31.530141 
L 76.402052 -31.529354 
L 76.37879 -31.528566 
L 76.354716 -31.527779 
L 76.329828 -31.526992 
L 76.304124 -31.526205 
L 76.277598 -31.525417 
L 76.25025 -31.52463 
L 76.222077 -31.523843 
L 76.193077 -31.523055 
L 76.163248 -31.522268 
L 76.132589 -31.521481 
L 76.101099 -31.520694 
L 76.068778 -31.519906 
L 76.035625 -31.519119 
L 76.001641 -31.518332 
L 75.966827 -31.517544 
L 75.931184 -31.516757 
L 75.894714 -31.51597 
L 75.85742 -31.515183 
L 75.819304 -31.514395 
z
" style="stroke: #333333; stroke-width: 0.3"/>
    </defs>
    <g clip-path="url(#p6de5fbacb9)">
     <use xlink:href="#md859b8af07" x="0" y="132.29665" style="fill: #3c2f7b; stroke: #333333; stroke-width: 0.3"/>
    </g>
   </g>
   <g id="PolyCollection_2">
    <defs>
     <path id="ma2786cc386" d="M 84.83374 -31.479956 
L 84.203569 -31.479956 
L 84.022899 -31.555204 
L 83.778678 -31.630452 
L 83.464693 -31.7057 
L 83.080075 -31.780948 
L 82.630749 -31.856196 
L 82.128834 -31.931444 
L 81.589614 -32.006692 
L 81.027484 -32.08194 
L 80.453083 -32.157188 
L 79.873052 -32.232436 
L 79.292789 -32.307684 
L 78.721515 -32.382932 
L 78.177279 -32.45818 
L 77.68789 -32.533428 
L 77.284805 -32.608676 
L 76.991843 -32.683924 
L 76.815385 -32.759172 
L 76.742591 -32.834421 
L 76.74865 -32.909669 
L 76.808265 -32.984917 
L 76.905059 -33.060165 
L 77.035214 -33.135413 
L 77.20475 -33.210661 
L 77.421793 -33.285909 
L 77.687147 -33.361157 
L 77.988612 -33.436405 
L 78.303633 -33.511653 
L 78.609402 -33.586901 
L 78.8934 -33.662149 
L 79.156767 -33.737397 
L 79.408666 -33.812645 
L 79.656782 -33.887893 
L 79.901369 -33.963141 
L 80.136635 -34.038389 
L 80.35692 -34.113637 
L 80.5615 -34.188885 
L 80.753832 -34.264133 
L 80.936686 -34.339381 
L 81.108268 -34.414629 
L 81.262845 -34.489877 
L 81.394969 -34.565125 
L 81.503727 -34.640373 
L 81.594071 -34.715622 
L 81.67456 -34.79087 
L 81.752991 -34.866118 
L 81.832851 -34.941366 
L 81.913172 -35.016614 
L 81.99184 -35.091862 
L 82.069444 -35.16711 
L 82.150245 -35.242358 
L 82.239439 -35.317606 
L 82.339046 -35.392854 
L 82.445847 -35.468102 
L 82.553084 -35.54335 
L 82.654713 -35.618598 
L 82.74913 -35.693846 
L 82.839728 -35.769094 
L 82.932066 -35.844342 
L 83.029784 -35.91959 
L 83.132095 -35.994838 
L 83.234219 -36.070086 
L 83.329954 -36.145334 
L 83.41428 -36.220582 
L 83.48437 -36.29583 
L 83.539177 -36.371078 
L 83.57896 -36.446326 
L 83.605756 -36.521574 
L 83.624301 -36.596822 
L 83.642085 -36.672071 
L 83.667686 -36.747319 
L 83.707857 -36.822567 
L 83.764759 -36.897815 
L 83.834912 -36.973063 
L 83.910611 -37.048311 
L 83.9831 -37.123559 
L 84.045703 -37.198807 
L 84.095351 -37.274055 
L 84.132322 -37.349303 
L 84.159189 -37.424551 
L 84.179879 -37.499799 
L 84.198886 -37.575047 
L 84.220218 -37.650295 
L 84.246182 -37.725543 
L 84.276705 -37.800791 
L 84.309733 -37.876039 
L 84.342412 -37.951287 
L 84.372214 -38.026535 
L 84.397426 -38.101783 
L 84.417189 -38.177031 
L 84.431525 -38.252279 
L 84.441434 -38.327527 
L 84.448766 -38.402775 
L 84.455591 -38.478023 
L 84.463348 -38.553271 
L 84.472332 -38.62852 
L 84.481854 -38.703768 
L 84.490883 -38.779016 
L 84.498643 -38.854264 
L 84.504842 -38.929512 
L 84.532466 -38.929512 
L 84.532466 -38.929512 
L 84.538665 -38.854264 
L 84.546425 -38.779016 
L 84.555454 -38.703768 
L 84.564976 -38.62852 
L 84.57396 -38.553271 
L 84.581717 -38.478023 
L 84.588542 -38.402775 
L 84.595874 -38.327527 
L 84.605783 -38.252279 
L 84.620119 -38.177031 
L 84.639882 -38.101783 
L 84.665094 -38.026535 
L 84.694896 -37.951287 
L 84.727575 -37.876039 
L 84.760603 -37.800791 
L 84.791126 -37.725543 
L 84.81709 -37.650295 
L 84.838422 -37.575047 
L 84.857429 -37.499799 
L 84.878119 -37.424551 
L 84.904986 -37.349303 
L 84.941957 -37.274055 
L 84.991605 -37.198807 
L 85.054208 -37.123559 
L 85.126697 -37.048311 
L 85.202396 -36.973063 
L 85.272549 -36.897815 
L 85.329451 -36.822567 
L 85.369622 -36.747319 
L 85.395223 -36.672071 
L 85.413007 -36.596822 
L 85.431552 -36.521574 
L 85.458348 -36.446326 
L 85.498131 -36.371078 
L 85.552938 -36.29583 
L 85.623028 -36.220582 
L 85.707354 -36.145334 
L 85.803089 -36.070086 
L 85.905213 -35.994838 
L 86.007524 -35.91959 
L 86.105242 -35.844342 
L 86.19758 -35.769094 
L 86.288178 -35.693846 
L 86.382595 -35.618598 
L 86.484224 -35.54335 
L 86.591461 -35.468102 
L 86.698262 -35.392854 
L 86.797869 -35.317606 
L 86.887063 -35.242358 
L 86.967864 -35.16711 
L 87.045468 -35.091862 
L 87.124136 -35.016614 
L 87.204457 -34.941366 
L 87.284317 -34.866118 
L 87.362748 -34.79087 
L 87.443237 -34.715622 
L 87.533581 -34.640373 
L 87.642339 -34.565125 
L 87.774463 -34.489877 
L 87.92904 -34.414629 
L 88.100622 -34.339381 
L 88.283476 -34.264133 
L 88.475808 -34.188885 
L 88.680388 -34.113637 
L 88.900673 -34.038389 
L 89.135939 -33.963141 
L 89.380526 -33.887893 
L 89.628642 -33.812645 
L 89.880541 -33.737397 
L 90.143908 -33.662149 
L 90.427906 -33.586901 
L 90.733675 -33.511653 
L 91.048696 -33.436405 
L 91.350161 -33.361157 
L 91.615515 -33.285909 
L 91.832558 -33.210661 
L 92.002094 -33.135413 
L 92.132249 -33.060165 
L 92.229043 -32.984917 
L 92.288658 -32.909669 
L 92.294718 -32.834421 
L 92.221924 -32.759172 
L 92.045466 -32.683924 
L 91.752503 -32.608676 
L 91.349418 -32.533428 
L 90.860029 -32.45818 
L 90.315793 -32.382932 
L 89.744519 -32.307684 
L 89.164256 -32.232436 
L 88.584225 -32.157188 
L 88.009824 -32.08194 
L 87.447694 -32.006692 
L 86.908474 -31.931444 
L 86.40656 -31.856196 
L 85.957233 -31.780948 
L 85.572615 -31.7057 
L 85.258631 -31.630452 
L 85.014409 -31.555204 
L 84.83374 -31.479956 
z
" style="stroke: #333333; stroke-width: 0.3"/>
    </defs>
    <g clip-path="url(#p6de5fbacb9)">
     <use xlink:href="#ma2786cc386" x="0" y="132.29665" style="fill: #519d91; stroke: #333333; stroke-width: 0.3"/>
    </g>
   </g>
   <g id="PolyCollection_3">
    <defs>
     <path id="mfbc3067b07" d="M 101.11661 -35.278459 
L 99.024952 -35.278459 
L 98.743281 -35.500027 
L 98.432202 -35.721595 
L 98.097711 -35.943163 
L 97.745013 -36.164732 
L 97.377527 -36.3863 
L 96.996705 -36.607868 
L 96.602813 -36.829437 
L 96.196451 -37.051005 
L 95.780256 -37.272573 
L 95.360088 -37.494142 
L 94.945149 -37.71571 
L 94.546861 -37.937278 
L 94.176761 -38.158846 
L 93.844062 -38.380415 
L 93.553662 -38.601983 
L 93.305261 -38.823551 
L 93.093946 -39.04512 
L 92.912145 -39.266688 
L 92.752436 -39.488256 
L 92.61037 -39.709824 
L 92.486394 -39.931393 
L 92.386155 -40.152961 
L 92.318955 -40.374529 
L 92.294718 -40.596098 
L 92.32041 -40.817666 
L 92.397073 -41.039234 
L 92.518446 -41.260803 
L 92.671631 -41.482371 
L 92.839541 -41.703939 
L 93.004325 -41.925507 
L 93.150744 -42.147076 
L 93.268615 -42.368644 
L 93.353871 -42.590212 
L 93.408247 -42.811781 
L 93.437953 -43.033349 
L 93.451849 -43.254917 
L 93.459596 -43.476485 
L 93.470103 -43.698054 
L 93.490438 -43.919622 
L 93.525288 -44.14119 
L 93.576967 -44.362759 
L 93.645914 -44.584327 
L 93.731549 -44.805895 
L 93.833233 -45.027464 
L 93.951021 -45.249032 
L 94.085946 -45.4706 
L 94.239683 -45.692168 
L 94.413713 -45.913737 
L 94.608275 -46.135305 
L 94.821518 -46.356873 
L 95.049211 -46.578442 
L 95.285166 -46.80001 
L 95.522281 -47.021578 
L 95.753903 -47.243146 
L 95.975141 -47.464715 
L 96.183759 -47.686283 
L 96.380456 -47.907851 
L 96.568474 -48.12942 
L 96.752613 -48.350988 
L 96.937879 -48.572556 
L 97.128032 -48.794125 
L 97.32441 -49.015693 
L 97.525339 -49.237261 
L 97.726361 -49.458829 
L 97.921276 -49.680398 
L 98.103742 -49.901966 
L 98.268956 -50.123534 
L 98.414901 -50.345103 
L 98.542757 -50.566671 
L 98.656374 -50.788239 
L 98.761002 -51.009808 
L 98.861725 -51.231376 
L 98.962083 -51.452944 
L 99.063296 -51.674512 
L 99.164218 -51.896081 
L 99.261959 -52.117649 
L 99.352908 -52.339217 
L 99.433801 -52.560786 
L 99.502574 -52.782354 
L 99.558786 -53.003922 
L 99.603591 -53.22549 
L 99.639347 -53.447059 
L 99.668995 -53.668627 
L 99.695425 -53.890195 
L 99.720945 -54.111764 
L 99.746971 -54.333332 
L 99.77395 -54.5549 
L 99.801503 -54.776469 
L 99.828696 -54.998037 
L 99.854389 -55.219605 
L 99.877557 -55.441173 
L 99.897548 -55.662742 
L 99.914218 -55.88431 
L 99.927944 -56.105878 
L 99.939512 -56.327447 
L 99.949921 -56.549015 
L 99.960144 -56.770583 
L 99.970912 -56.992151 
L 99.982572 -57.21372 
L 100.15899 -57.21372 
L 100.15899 -57.21372 
L 100.17065 -56.992151 
L 100.181418 -56.770583 
L 100.191641 -56.549015 
L 100.20205 -56.327447 
L 100.213618 -56.105878 
L 100.227344 -55.88431 
L 100.244014 -55.662742 
L 100.264005 -55.441173 
L 100.287173 -55.219605 
L 100.312866 -54.998037 
L 100.340059 -54.776469 
L 100.367612 -54.5549 
L 100.394591 -54.333332 
L 100.420617 -54.111764 
L 100.446137 -53.890195 
L 100.472567 -53.668627 
L 100.502216 -53.447059 
L 100.537971 -53.22549 
L 100.582777 -53.003922 
L 100.638988 -52.782354 
L 100.707761 -52.560786 
L 100.788654 -52.339217 
L 100.879603 -52.117649 
L 100.977345 -51.896081 
L 101.078266 -51.674512 
L 101.179479 -51.452944 
L 101.279838 -51.231376 
L 101.38056 -51.009808 
L 101.485188 -50.788239 
L 101.598806 -50.566671 
L 101.726662 -50.345103 
L 101.872606 -50.123534 
L 102.03782 -49.901966 
L 102.220286 -49.680398 
L 102.415202 -49.458829 
L 102.616223 -49.237261 
L 102.817152 -49.015693 
L 103.01353 -48.794125 
L 103.203683 -48.572556 
L 103.388949 -48.350988 
L 103.573088 -48.12942 
L 103.761106 -47.907851 
L 103.957803 -47.686283 
L 104.166421 -47.464715 
L 104.387659 -47.243146 
L 104.619281 -47.021578 
L 104.856396 -46.80001 
L 105.092351 -46.578442 
L 105.320044 -46.356873 
L 105.533287 -46.135305 
L 105.727849 -45.913737 
L 105.901879 -45.692168 
L 106.055617 -45.4706 
L 106.190541 -45.249032 
L 106.30833 -45.027464 
L 106.410013 -44.805895 
L 106.495648 -44.584327 
L 106.564595 -44.362759 
L 106.616274 -44.14119 
L 106.651124 -43.919622 
L 106.671459 -43.698054 
L 106.681966 -43.476485 
L 106.689713 -43.254917 
L 106.703609 -43.033349 
L 106.733315 -42.811781 
L 106.787691 -42.590212 
L 106.872948 -42.368644 
L 106.990818 -42.147076 
L 107.137237 -41.925507 
L 107.302021 -41.703939 
L 107.469931 -41.482371 
L 107.623116 -41.260803 
L 107.744489 -41.039234 
L 107.821152 -40.817666 
L 107.846845 -40.596098 
L 107.822607 -40.374529 
L 107.755407 -40.152961 
L 107.655168 -39.931393 
L 107.531192 -39.709824 
L 107.389126 -39.488256 
L 107.229417 -39.266688 
L 107.047616 -39.04512 
L 106.836301 -38.823551 
L 106.5879 -38.601983 
L 106.2975 -38.380415 
L 105.964801 -38.158846 
L 105.594701 -37.937278 
L 105.196413 -37.71571 
L 104.781474 -37.494142 
L 104.361306 -37.272573 
L 103.945111 -37.051005 
L 103.53875 -36.829437 
L 103.144857 -36.607868 
L 102.764035 -36.3863 
L 102.396549 -36.164732 
L 102.043851 -35.943163 
L 101.70936 -35.721595 
L 101.398281 -35.500027 
L 101.11661 -35.278459 
z
" style="stroke: #333333; stroke-width: 0.3"/>
    </defs>
    <g clip-path="url(#p6de5fbacb9)">
     <use xlink:href="#mfbc3067b07" x="0" y="132.29665" style="fill: #bf7380; stroke: #333333; stroke-width: 0.3"/>
    </g>
   </g>
   <g id="PolyCollection_4">
    <defs>
     <path id="mf888d3cc1e" d="M 118.260531 -48.499539 
L 112.985285 -48.499539 
L 112.755934 -48.705946 
L 112.532075 -48.912354 
L 112.315175 -49.118761 
L 112.105784 -49.325169 
L 111.903465 -49.531576 
L 111.706815 -49.737984 
L 111.51358 -49.944391 
L 111.320866 -50.150799 
L 111.125415 -50.357206 
L 110.923955 -50.563614 
L 110.713571 -50.770021 
L 110.492072 -50.976429 
L 110.258324 -51.182837 
L 110.01252 -51.389244 
L 109.756349 -51.595652 
L 109.493053 -51.802059 
L 109.227366 -52.008467 
L 108.965326 -52.214874 
L 108.713981 -52.421282 
L 108.481004 -52.627689 
L 108.274251 -52.834097 
L 108.101282 -53.040504 
L 107.968902 -53.246912 
L 107.882729 -53.453319 
L 107.846845 -53.659727 
L 107.86353 -53.866134 
L 107.93312 -54.072542 
L 108.053972 -54.278949 
L 108.222557 -54.485357 
L 108.433657 -54.691764 
L 108.680657 -54.898172 
L 108.955908 -55.104579 
L 109.251134 -55.310987 
L 109.557857 -55.517394 
L 109.867812 -55.723802 
L 110.173332 -55.930209 
L 110.467671 -56.136617 
L 110.745258 -56.343024 
L 111.001872 -56.549432 
L 111.234728 -56.755839 
L 111.442475 -56.962247 
L 111.625123 -57.168654 
L 111.783895 -57.375062 
L 111.921032 -57.58147 
L 112.039561 -57.787877 
L 112.143041 -57.994285 
L 112.235311 -58.200692 
L 112.320247 -58.4071 
L 112.401552 -58.613507 
L 112.482573 -58.819915 
L 112.566161 -59.026322 
L 112.654581 -59.23273 
L 112.749454 -59.439137 
L 112.851747 -59.645545 
L 112.961793 -59.851952 
L 113.079341 -60.05836 
L 113.203625 -60.264767 
L 113.333456 -60.471175 
L 113.467309 -60.677582 
L 113.60343 -60.88399 
L 113.739934 -61.090397 
L 113.874901 -61.296805 
L 114.006466 -61.503212 
L 114.132906 -61.70962 
L 114.252706 -61.916027 
L 114.36462 -62.122435 
L 114.467714 -62.328842 
L 114.561395 -62.53525 
L 114.645422 -62.741657 
L 114.719893 -62.948065 
L 114.785227 -63.154472 
L 114.842116 -63.36088 
L 114.891476 -63.567288 
L 114.934374 -63.773695 
L 114.971962 -63.980103 
L 115.005395 -64.18651 
L 115.035769 -64.392918 
L 115.064048 -64.599325 
L 115.09102 -64.805733 
L 115.117262 -65.01214 
L 115.143119 -65.218548 
L 115.168714 -65.424955 
L 115.193965 -65.631363 
L 115.218622 -65.83777 
L 115.24232 -66.044178 
L 115.264634 -66.250585 
L 115.285138 -66.456993 
L 115.303466 -66.6634 
L 115.319352 -66.869808 
L 115.332674 -67.076215 
L 115.34347 -67.282623 
L 115.351943 -67.48903 
L 115.358447 -67.695438 
L 115.363463 -67.901845 
L 115.367556 -68.108253 
L 115.371331 -68.31466 
L 115.375383 -68.521068 
L 115.38025 -68.727475 
L 115.386377 -68.933883 
L 115.859439 -68.933883 
L 115.859439 -68.933883 
L 115.865566 -68.727475 
L 115.870434 -68.521068 
L 115.874485 -68.31466 
L 115.87826 -68.108253 
L 115.882353 -67.901845 
L 115.887369 -67.695438 
L 115.893874 -67.48903 
L 115.902346 -67.282623 
L 115.913142 -67.076215 
L 115.926464 -66.869808 
L 115.942351 -66.6634 
L 115.960678 -66.456993 
L 115.981183 -66.250585 
L 116.003496 -66.044178 
L 116.027194 -65.83777 
L 116.051851 -65.631363 
L 116.077102 -65.424955 
L 116.102697 -65.218548 
L 116.128554 -65.01214 
L 116.154796 -64.805733 
L 116.181768 -64.599325 
L 116.210047 -64.392918 
L 116.240421 -64.18651 
L 116.273854 -63.980103 
L 116.311442 -63.773695 
L 116.35434 -63.567288 
L 116.4037 -63.36088 
L 116.460589 -63.154472 
L 116.525923 -62.948065 
L 116.600394 -62.741657 
L 116.684421 -62.53525 
L 116.778102 -62.328842 
L 116.881197 -62.122435 
L 116.99311 -61.916027 
L 117.11291 -61.70962 
L 117.23935 -61.503212 
L 117.370915 -61.296805 
L 117.505882 -61.090397 
L 117.642386 -60.88399 
L 117.778507 -60.677582 
L 117.91236 -60.471175 
L 118.042191 -60.264767 
L 118.166476 -60.05836 
L 118.284023 -59.851952 
L 118.394069 -59.645545 
L 118.496362 -59.439137 
L 118.591235 -59.23273 
L 118.679655 -59.026322 
L 118.763243 -58.819915 
L 118.844264 -58.613507 
L 118.925569 -58.4071 
L 119.010506 -58.200692 
L 119.102775 -57.994285 
L 119.206255 -57.787877 
L 119.324784 -57.58147 
L 119.461921 -57.375062 
L 119.620693 -57.168654 
L 119.803341 -56.962247 
L 120.011088 -56.755839 
L 120.243944 -56.549432 
L 120.500558 -56.343024 
L 120.778145 -56.136617 
L 121.072484 -55.930209 
L 121.378004 -55.723802 
L 121.687959 -55.517394 
L 121.994682 -55.310987 
L 122.289908 -55.104579 
L 122.565159 -54.898172 
L 122.81216 -54.691764 
L 123.02326 -54.485357 
L 123.191844 -54.278949 
L 123.312696 -54.072542 
L 123.382286 -53.866134 
L 123.398972 -53.659727 
L 123.363087 -53.453319 
L 123.276915 -53.246912 
L 123.144534 -53.040504 
L 122.971565 -52.834097 
L 122.764812 -52.627689 
L 122.531835 -52.421282 
L 122.28049 -52.214874 
L 122.01845 -52.008467 
L 121.752763 -51.802059 
L 121.489467 -51.595652 
L 121.233296 -51.389244 
L 120.987493 -51.182837 
L 120.753745 -50.976429 
L 120.532245 -50.770021 
L 120.321861 -50.563614 
L 120.120401 -50.357206 
L 119.92495 -50.150799 
L 119.732236 -49.944391 
L 119.539001 -49.737984 
L 119.342351 -49.531576 
L 119.140032 -49.325169 
L 118.930641 -49.118761 
L 118.713741 -48.912354 
L 118.489882 -48.705946 
L 118.260531 -48.499539 
z
" style="stroke: #333333; stroke-width: 0.3"/>
    </defs>
    <g clip-path="url(#p6de5fbacb9)">
     <use xlink:href="#mf888d3cc1e" x="0" y="132.29665" style="fill: #7b2f55; stroke: #333333; stroke-width: 0.3"/>
    </g>
   </g>
   <g id="PolyCollection_5">
    <defs>
     <path id="mec9ad725d0" d="M 150.707477 -32.267015 
L 142.746847 -32.267015 
L 142.691456 -32.268655 
L 142.636634 -32.270295 
L 142.582339 -32.271935 
L 142.528524 -32.273575 
L 142.475137 -32.275215 
L 142.422124 -32.276855 
L 142.369427 -32.278495 
L 142.316986 -32.280135 
L 142.264737 -32.281775 
L 142.212614 -32.283415 
L 142.160553 -32.285055 
L 142.108485 -32.286695 
L 142.056343 -32.288335 
L 142.00406 -32.289975 
L 141.951569 -32.291615 
L 141.898807 -32.293255 
L 141.845709 -32.294895 
L 141.792216 -32.296535 
L 141.73827 -32.298176 
L 141.683817 -32.299816 
L 141.628809 -32.301456 
L 141.573199 -32.303096 
L 141.516949 -32.304736 
L 141.460024 -32.306376 
L 141.402396 -32.308016 
L 141.344042 -32.309656 
L 141.284948 -32.311296 
L 141.225106 -32.312936 
L 141.164513 -32.314576 
L 141.103179 -32.316216 
L 141.041115 -32.317856 
L 140.978345 -32.319496 
L 140.9149 -32.321136 
L 140.850817 -32.322776 
L 140.786142 -32.324416 
L 140.720931 -32.326056 
L 140.655245 -32.327696 
L 140.589155 -32.329336 
L 140.522738 -32.330976 
L 140.456081 -32.332617 
L 140.389276 -32.334257 
L 140.322423 -32.335897 
L 140.255627 -32.337537 
L 140.189002 -32.339177 
L 140.122666 -32.340817 
L 140.056744 -32.342457 
L 139.991364 -32.344097 
L 139.92666 -32.345737 
L 139.862771 -32.347377 
L 139.799837 -32.349017 
L 139.738004 -32.350657 
L 139.677419 -32.352297 
L 139.61823 -32.353937 
L 139.560589 -32.355577 
L 139.504646 -32.357217 
L 139.450553 -32.358857 
L 139.398463 -32.360497 
L 139.348525 -32.362137 
L 139.300888 -32.363777 
L 139.2557 -32.365418 
L 139.213104 -32.367058 
L 139.173244 -32.368698 
L 139.136255 -32.370338 
L 139.102273 -32.371978 
L 139.071425 -32.373618 
L 139.043837 -32.375258 
L 139.019625 -32.376898 
L 138.998904 -32.378538 
L 138.981778 -32.380178 
L 138.968346 -32.381818 
L 138.958701 -32.383458 
L 138.952926 -32.385098 
L 138.951099 -32.386738 
L 138.953287 -32.388378 
L 138.95955 -32.390018 
L 138.969941 -32.391658 
L 138.984501 -32.393298 
L 139.003264 -32.394938 
L 139.026255 -32.396578 
L 139.053488 -32.398218 
L 139.084971 -32.399859 
L 139.120699 -32.401499 
L 139.16066 -32.403139 
L 139.204831 -32.404779 
L 139.253183 -32.406419 
L 139.305673 -32.408059 
L 139.362253 -32.409699 
L 139.422865 -32.411339 
L 139.48744 -32.412979 
L 139.555904 -32.414619 
L 139.628171 -32.416259 
L 139.70415 -32.417899 
L 139.78374 -32.419539 
L 139.866834 -32.421179 
L 139.953317 -32.422819 
L 140.043067 -32.424459 
L 140.135955 -32.426099 
L 140.231848 -32.427739 
L 140.330604 -32.429379 
L 153.12372 -32.429379 
L 153.12372 -32.429379 
L 153.222477 -32.427739 
L 153.318369 -32.426099 
L 153.411258 -32.424459 
L 153.501007 -32.422819 
L 153.58749 -32.421179 
L 153.670584 -32.419539 
L 153.750174 -32.417899 
L 153.826153 -32.416259 
L 153.898421 -32.414619 
L 153.966884 -32.412979 
L 154.031459 -32.411339 
L 154.092071 -32.409699 
L 154.148651 -32.408059 
L 154.201142 -32.406419 
L 154.249493 -32.404779 
L 154.293665 -32.403139 
L 154.333626 -32.401499 
L 154.369353 -32.399859 
L 154.400836 -32.398218 
L 154.428069 -32.396578 
L 154.45106 -32.394938 
L 154.469823 -32.393298 
L 154.484383 -32.391658 
L 154.494774 -32.390018 
L 154.501037 -32.388378 
L 154.503226 -32.386738 
L 154.501398 -32.385098 
L 154.495624 -32.383458 
L 154.485978 -32.381818 
L 154.472547 -32.380178 
L 154.45542 -32.378538 
L 154.434699 -32.376898 
L 154.410487 -32.375258 
L 154.382899 -32.373618 
L 154.352052 -32.371978 
L 154.318069 -32.370338 
L 154.281081 -32.368698 
L 154.24122 -32.367058 
L 154.198625 -32.365418 
L 154.153436 -32.363777 
L 154.1058 -32.362137 
L 154.055861 -32.360497 
L 154.003771 -32.358857 
L 153.949678 -32.357217 
L 153.893736 -32.355577 
L 153.836094 -32.353937 
L 153.776905 -32.352297 
L 153.71632 -32.350657 
L 153.654487 -32.349017 
L 153.591553 -32.347377 
L 153.527664 -32.345737 
L 153.46296 -32.344097 
L 153.397581 -32.342457 
L 153.331658 -32.340817 
L 153.265322 -32.339177 
L 153.198697 -32.337537 
L 153.131902 -32.335897 
L 153.065048 -32.334257 
L 152.998243 -32.332617 
L 152.931586 -32.330976 
L 152.865169 -32.329336 
L 152.799079 -32.327696 
L 152.733394 -32.326056 
L 152.668182 -32.324416 
L 152.603508 -32.322776 
L 152.539424 -32.321136 
L 152.475979 -32.319496 
L 152.413209 -32.317856 
L 152.351146 -32.316216 
L 152.289811 -32.314576 
L 152.229219 -32.312936 
L 152.169376 -32.311296 
L 152.110282 -32.309656 
L 152.051928 -32.308016 
L 151.9943 -32.306376 
L 151.937375 -32.304736 
L 151.881125 -32.303096 
L 151.825515 -32.301456 
L 151.770507 -32.299816 
L 151.716055 -32.298176 
L 151.662109 -32.296535 
L 151.608615 -32.294895 
L 151.555518 -32.293255 
L 151.502755 -32.291615 
L 151.450265 -32.289975 
L 151.397982 -32.288335 
L 151.34584 -32.286695 
L 151.293772 -32.285055 
L 151.24171 -32.283415 
L 151.189588 -32.281775 
L 151.137338 -32.280135 
L 151.084897 -32.278495 
L 151.0322 -32.276855 
L 150.979187 -32.275215 
L 150.925801 -32.273575 
L 150.871985 -32.271935 
L 150.81769 -32.270295 
L 150.762868 -32.268655 
L 150.707477 -32.267015 
z
" style="stroke: #333333; stroke-width: 0.3"/>
    </defs>
    <g clip-path="url(#p6de5fbacb9)">
     <use xlink:href="#mec9ad725d0" x="0" y="132.29665" style="fill: #3c2f7b; stroke: #333333; stroke-width: 0.3"/>
    </g>
   </g>
   <g id="PolyCollection_6">
    <defs>
     <path id="m1b2ad98090" d="M 163.396683 -31.875597 
L 161.161895 -31.875597 
L 160.709628 -31.954821 
L 160.181014 -32.034044 
L 159.600139 -32.113267 
L 158.996768 -32.192491 
L 158.399268 -32.271714 
L 157.828449 -32.350938 
L 157.294929 -32.430161 
L 156.800926 -32.509385 
L 156.345154 -32.588608 
L 155.927973 -32.667831 
L 155.554106 -32.747055 
L 155.231808 -32.826278 
L 154.969378 -32.905502 
L 154.771177 -32.984725 
L 154.635244 -33.063948 
L 154.553455 -33.143172 
L 154.513764 -33.222395 
L 154.503226 -33.301619 
L 154.510406 -33.380842 
L 154.526472 -33.460066 
L 154.545038 -33.539289 
L 154.561459 -33.618512 
L 154.572374 -33.697736 
L 154.575948 -33.776959 
L 154.572688 -33.856183 
L 154.566237 -33.935406 
L 154.563405 -34.01463 
L 154.573138 -34.093853 
L 154.604683 -34.173076 
L 154.665655 -34.2523 
L 154.760672 -34.331523 
L 154.890758 -34.410747 
L 155.053278 -34.48997 
L 155.242129 -34.569193 
L 155.448182 -34.648417 
L 155.660251 -34.72764 
L 155.866777 -34.806864 
L 156.0579 -34.886087 
L 156.227161 -34.965311 
L 156.372042 -35.044534 
L 156.493141 -35.123757 
L 156.59251 -35.202981 
L 156.672078 -35.282204 
L 156.732959 -35.361428 
L 156.775875 -35.440651 
L 156.80243 -35.519874 
L 156.816804 -35.599098 
L 156.827413 -35.678321 
L 156.848028 -35.757545 
L 156.897589 -35.836768 
L 156.99785 -35.915992 
L 157.16857 -35.995215 
L 157.421215 -36.074438 
L 157.753429 -36.153662 
L 158.146943 -36.232885 
L 158.570477 -36.312109 
L 158.987024 -36.391332 
L 159.362907 -36.470556 
L 159.675242 -36.549779 
L 159.915381 -36.629002 
L 160.087824 -36.708226 
L 160.205955 -36.787449 
L 160.286842 -36.866673 
L 160.347003 -36.945896 
L 160.400032 -37.025119 
L 160.455858 -37.104343 
L 160.520872 -37.183566 
L 160.598238 -37.26279 
L 160.688159 -37.342013 
L 160.788307 -37.421237 
L 160.894706 -37.50046 
L 161.003027 -37.579683 
L 161.109897 -37.658907 
L 161.213623 -37.73813 
L 161.313999 -37.817354 
L 161.411342 -37.896577 
L 161.505369 -37.9758 
L 161.594575 -38.055024 
L 161.67647 -38.134247 
L 161.748507 -38.213471 
L 161.809163 -38.292694 
L 161.858593 -38.371918 
L 161.898568 -38.451141 
L 161.931811 -38.530364 
L 161.961137 -38.609588 
L 161.988782 -38.688811 
L 162.016145 -38.768035 
L 162.043886 -38.847258 
L 162.072153 -38.926481 
L 162.100748 -39.005705 
L 162.12917 -39.084928 
L 162.156603 -39.164152 
L 162.181992 -39.243375 
L 162.204251 -39.322599 
L 162.22257 -39.401822 
L 162.236662 -39.481045 
L 162.246848 -39.560269 
L 162.253927 -39.639492 
L 162.258901 -39.718716 
L 162.299677 -39.718716 
L 162.299677 -39.718716 
L 162.304651 -39.639492 
L 162.31173 -39.560269 
L 162.321916 -39.481045 
L 162.336008 -39.401822 
L 162.354327 -39.322599 
L 162.376586 -39.243375 
L 162.401975 -39.164152 
L 162.429408 -39.084928 
L 162.45783 -39.005705 
L 162.486425 -38.926481 
L 162.514692 -38.847258 
L 162.542433 -38.768035 
L 162.569797 -38.688811 
L 162.597441 -38.609588 
L 162.626767 -38.530364 
L 162.660011 -38.451141 
L 162.699985 -38.371918 
L 162.749415 -38.292694 
L 162.810071 -38.213471 
L 162.882108 -38.134247 
L 162.964003 -38.055024 
L 163.053209 -37.9758 
L 163.147236 -37.896577 
L 163.244579 -37.817354 
L 163.344955 -37.73813 
L 163.448681 -37.658907 
L 163.555551 -37.579683 
L 163.663872 -37.50046 
L 163.770271 -37.421237 
L 163.87042 -37.342013 
L 163.96034 -37.26279 
L 164.037706 -37.183566 
L 164.10272 -37.104343 
L 164.158546 -37.025119 
L 164.211575 -36.945896 
L 164.271737 -36.866673 
L 164.352623 -36.787449 
L 164.470754 -36.708226 
L 164.643197 -36.629002 
L 164.883336 -36.549779 
L 165.195671 -36.470556 
L 165.571554 -36.391332 
L 165.988101 -36.312109 
L 166.411635 -36.232885 
L 166.80515 -36.153662 
L 167.137363 -36.074438 
L 167.390008 -35.995215 
L 167.560728 -35.915992 
L 167.660989 -35.836768 
L 167.71055 -35.757545 
L 167.731165 -35.678321 
L 167.741774 -35.599098 
L 167.756148 -35.519874 
L 167.782704 -35.440651 
L 167.825619 -35.361428 
L 167.8865 -35.282204 
L 167.966068 -35.202981 
L 168.065437 -35.123757 
L 168.186536 -35.044534 
L 168.331417 -34.965311 
L 168.500678 -34.886087 
L 168.691801 -34.806864 
L 168.898327 -34.72764 
L 169.110396 -34.648417 
L 169.316449 -34.569193 
L 169.505301 -34.48997 
L 169.66782 -34.410747 
L 169.797906 -34.331523 
L 169.892923 -34.2523 
L 169.953895 -34.173076 
L 169.98544 -34.093853 
L 169.995174 -34.01463 
L 169.992342 -33.935406 
L 169.98589 -33.856183 
L 169.982631 -33.776959 
L 169.986204 -33.697736 
L 169.99712 -33.618512 
L 170.013541 -33.539289 
L 170.032106 -33.460066 
L 170.048172 -33.380842 
L 170.055353 -33.301619 
L 170.044814 -33.222395 
L 170.005124 -33.143172 
L 169.923334 -33.063948 
L 169.787402 -32.984725 
L 169.589201 -32.905502 
L 169.326771 -32.826278 
L 169.004473 -32.747055 
L 168.630606 -32.667831 
L 168.213424 -32.588608 
L 167.757652 -32.509385 
L 167.263649 -32.430161 
L 166.730129 -32.350938 
L 166.15931 -32.271714 
L 165.56181 -32.192491 
L 164.958439 -32.113267 
L 164.377565 -32.034044 
L 163.848951 -31.954821 
L 163.396683 -31.875597 
z
" style="stroke: #333333; stroke-width: 0.3"/>
    </defs>
    <g clip-path="url(#p6de5fbacb9)">
     <use xlink:href="#m1b2ad98090" x="0" y="132.29665" style="fill: #519d91; stroke: #333333; stroke-width: 0.3"/>
    </g>
   </g>
   <g id="PolyCollection_7">
    <defs>
     <path id="mf852e43691" d="M 180.168738 -35.029002 
L 175.494095 -35.029002 
L 174.723335 -35.292787 
L 173.943919 -35.556572 
L 173.210013 -35.820358 
L 172.550784 -36.084143 
L 171.9713 -36.347928 
L 171.46716 -36.611714 
L 171.03993 -36.875499 
L 170.700596 -37.139284 
L 170.45915 -37.40307 
L 170.310385 -37.666855 
L 170.22904 -37.93064 
L 170.179629 -38.194426 
L 170.134593 -38.458211 
L 170.088041 -38.721996 
L 170.055353 -38.985781 
L 170.058805 -39.249567 
L 170.109018 -39.513352 
L 170.194923 -39.777137 
L 170.288922 -40.040923 
L 170.363089 -40.304708 
L 170.404727 -40.568493 
L 170.420864 -40.832279 
L 170.430282 -41.096064 
L 170.450587 -41.359849 
L 170.489755 -41.623635 
L 170.545754 -41.88742 
L 170.610794 -42.151205 
L 170.674939 -42.41499 
L 170.72787 -42.678776 
L 170.761606 -42.942561 
L 170.776147 -43.206346 
L 170.785173 -43.470132 
L 170.816042 -43.733917 
L 170.90111 -43.997702 
L 171.063611 -44.261488 
L 171.305656 -44.525273 
L 171.604823 -44.789058 
L 171.920673 -45.052844 
L 172.20758 -45.316629 
L 172.428451 -45.580414 
L 172.565316 -45.844199 
L 172.624918 -46.107985 
L 172.638392 -46.37177 
L 172.654337 -46.635555 
L 172.725727 -46.899341 
L 172.893933 -47.163126 
L 173.175603 -47.426911 
L 173.557851 -47.690697 
L 174.003599 -47.954482 
L 174.46419 -48.218267 
L 174.893537 -48.482053 
L 175.258653 -48.745838 
L 175.54421 -49.009623 
L 175.751821 -49.273408 
L 175.896026 -49.537194 
L 175.998653 -49.800979 
L 176.08241 -50.064764 
L 176.164637 -50.32855 
L 176.252797 -50.592335 
L 176.343547 -50.85612 
L 176.426091 -51.119906 
L 176.488553 -51.383691 
L 176.524515 -51.647476 
L 176.536704 -51.911262 
L 176.536265 -52.175047 
L 176.538169 -52.438832 
L 176.555197 -52.702617 
L 176.593463 -52.966403 
L 176.651464 -53.230188 
L 176.72267 -53.493973 
L 176.799798 -53.757759 
L 176.878316 -54.021544 
L 176.957544 -54.285329 
L 177.039319 -54.549115 
L 177.12548 -54.8129 
L 177.215794 -55.076685 
L 177.307367 -55.340471 
L 177.3956 -55.604256 
L 177.475954 -55.868041 
L 177.545481 -56.131826 
L 177.603396 -56.395612 
L 177.650604 -56.659397 
L 177.688693 -56.923182 
L 177.719076 -57.186968 
L 177.742689 -57.450753 
L 177.760209 -57.714538 
L 177.772435 -57.978324 
L 177.780526 -58.242109 
L 177.785934 -58.505894 
L 177.790129 -58.76968 
L 177.794248 -59.033465 
L 177.798856 -59.29725 
L 177.8039 -59.561035 
L 177.808893 -59.824821 
L 177.813231 -60.088606 
L 177.816515 -60.352391 
L 177.818726 -60.616177 
L 177.820197 -60.879962 
L 177.821408 -61.143747 
L 177.841424 -61.143747 
L 177.841424 -61.143747 
L 177.842635 -60.879962 
L 177.844106 -60.616177 
L 177.846317 -60.352391 
L 177.849601 -60.088606 
L 177.85394 -59.824821 
L 177.858933 -59.561035 
L 177.863977 -59.29725 
L 177.868584 -59.033465 
L 177.872704 -58.76968 
L 177.876898 -58.505894 
L 177.882307 -58.242109 
L 177.890397 -57.978324 
L 177.902624 -57.714538 
L 177.920143 -57.450753 
L 177.943756 -57.186968 
L 177.974139 -56.923182 
L 178.012228 -56.659397 
L 178.059437 -56.395612 
L 178.117352 -56.131826 
L 178.186879 -55.868041 
L 178.267232 -55.604256 
L 178.355465 -55.340471 
L 178.447038 -55.076685 
L 178.537353 -54.8129 
L 178.623514 -54.549115 
L 178.705288 -54.285329 
L 178.784516 -54.021544 
L 178.863034 -53.757759 
L 178.940162 -53.493973 
L 179.011368 -53.230188 
L 179.069369 -52.966403 
L 179.107635 -52.702617 
L 179.124663 -52.438832 
L 179.126567 -52.175047 
L 179.126128 -51.911262 
L 179.138318 -51.647476 
L 179.174279 -51.383691 
L 179.236742 -51.119906 
L 179.319285 -50.85612 
L 179.410035 -50.592335 
L 179.498195 -50.32855 
L 179.580422 -50.064764 
L 179.66418 -49.800979 
L 179.766806 -49.537194 
L 179.911012 -49.273408 
L 180.118622 -49.009623 
L 180.404179 -48.745838 
L 180.769295 -48.482053 
L 181.198643 -48.218267 
L 181.659233 -47.954482 
L 182.104982 -47.690697 
L 182.487229 -47.426911 
L 182.768899 -47.163126 
L 182.937105 -46.899341 
L 183.008495 -46.635555 
L 183.02444 -46.37177 
L 183.037914 -46.107985 
L 183.097516 -45.844199 
L 183.234381 -45.580414 
L 183.455252 -45.316629 
L 183.742159 -45.052844 
L 184.058009 -44.789058 
L 184.357176 -44.525273 
L 184.599222 -44.261488 
L 184.761722 -43.997702 
L 184.84679 -43.733917 
L 184.87766 -43.470132 
L 184.886685 -43.206346 
L 184.901227 -42.942561 
L 184.934963 -42.678776 
L 184.987893 -42.41499 
L 185.052039 -42.151205 
L 185.117078 -41.88742 
L 185.173077 -41.623635 
L 185.212245 -41.359849 
L 185.232551 -41.096064 
L 185.241968 -40.832279 
L 185.258106 -40.568493 
L 185.299743 -40.304708 
L 185.373911 -40.040923 
L 185.467909 -39.777137 
L 185.553815 -39.513352 
L 185.604027 -39.249567 
L 185.60748 -38.985781 
L 185.574791 -38.721996 
L 185.528239 -38.458211 
L 185.483203 -38.194426 
L 185.433792 -37.93064 
L 185.352447 -37.666855 
L 185.203682 -37.40307 
L 184.962237 -37.139284 
L 184.622903 -36.875499 
L 184.195672 -36.611714 
L 183.691532 -36.347928 
L 183.112048 -36.084143 
L 182.452819 -35.820358 
L 181.718913 -35.556572 
L 180.939497 -35.292787 
L 180.168738 -35.029002 
z
" style="stroke: #333333; stroke-width: 0.3"/>
    </defs>
    <g clip-path="url(#p6de5fbacb9)">
     <use xlink:href="#mf852e43691" x="0" y="132.29665" style="fill: #bf7380; stroke: #333333; stroke-width: 0.3"/>
    </g>
   </g>
   <g id="PolyCollection_8">
    <defs>
     <path id="m603f4c0cbf" d="M 194.381529 -54.145598 
L 192.385557 -54.145598 
L 192.305901 -54.275751 
L 192.221752 -54.405904 
L 192.133105 -54.536057 
L 192.040038 -54.66621 
L 191.942732 -54.796362 
L 191.841474 -54.926515 
L 191.736671 -55.056668 
L 191.628845 -55.186821 
L 191.518638 -55.316974 
L 191.406795 -55.447127 
L 191.294152 -55.577279 
L 191.181611 -55.707432 
L 191.070116 -55.837585 
L 190.960614 -55.967738 
L 190.854021 -56.097891 
L 190.751184 -56.228044 
L 190.652836 -56.358196 
L 190.559558 -56.488349 
L 190.471744 -56.618502 
L 190.389566 -56.748655 
L 190.312952 -56.878808 
L 190.241564 -57.00896 
L 190.174793 -57.139113 
L 190.111761 -57.269266 
L 190.051329 -57.399419 
L 189.992126 -57.529572 
L 189.932579 -57.659725 
L 189.870959 -57.789877 
L 189.805431 -57.92003 
L 189.734114 -58.050183 
L 189.655148 -58.180336 
L 189.56676 -58.310489 
L 189.467332 -58.440642 
L 189.355474 -58.570794 
L 189.230083 -58.700947 
L 189.090409 -58.8311 
L 188.936098 -58.961253 
L 188.767236 -59.091406 
L 188.584378 -59.221559 
L 188.388558 -59.351711 
L 188.181292 -59.481864 
L 187.964557 -59.612017 
L 187.740759 -59.74217 
L 187.512683 -59.872323 
L 187.283429 -60.002476 
L 187.056335 -60.132628 
L 186.834888 -60.262781 
L 186.622623 -60.392934 
L 186.42303 -60.523087 
L 186.239441 -60.65324 
L 186.074935 -60.783392 
L 185.932239 -60.913545 
L 185.813649 -61.043698 
L 185.720951 -61.173851 
L 185.655372 -61.304004 
L 185.617543 -61.434157 
L 185.60748 -61.564309 
L 185.62459 -61.694462 
L 185.667699 -61.824615 
L 185.735094 -61.954768 
L 185.824584 -62.084921 
L 185.933582 -62.215074 
L 186.059188 -62.345226 
L 186.198288 -62.475379 
L 186.347655 -62.605532 
L 186.504047 -62.735685 
L 186.664303 -62.865838 
L 186.825436 -62.995991 
L 186.984709 -63.126143 
L 187.139704 -63.256296 
L 187.288374 -63.386449 
L 187.429085 -63.516602 
L 187.560636 -63.646755 
L 187.682267 -63.776908 
L 187.79366 -63.90706 
L 187.894912 -64.037213 
L 187.986514 -64.167366 
L 188.069309 -64.297519 
L 188.144442 -64.427672 
L 188.213314 -64.557825 
L 188.277523 -64.687977 
L 188.338804 -64.81813 
L 188.398974 -64.948283 
L 188.459868 -65.078436 
L 188.52329 -65.208589 
L 188.590954 -65.338741 
L 188.664438 -65.468894 
L 188.745142 -65.599047 
L 188.83425 -65.7292 
L 188.932698 -65.859353 
L 189.041158 -65.989506 
L 189.160015 -66.119658 
L 189.289366 -66.249811 
L 189.42902 -66.379964 
L 189.578511 -66.510117 
L 189.73711 -66.64027 
L 189.903853 -66.770423 
L 190.077574 -66.900575 
L 190.256935 -67.030728 
L 196.510151 -67.030728 
L 196.510151 -67.030728 
L 196.689513 -66.900575 
L 196.863233 -66.770423 
L 197.029977 -66.64027 
L 197.188575 -66.510117 
L 197.338066 -66.379964 
L 197.477721 -66.249811 
L 197.607072 -66.119658 
L 197.725928 -65.989506 
L 197.834388 -65.859353 
L 197.932837 -65.7292 
L 198.021944 -65.599047 
L 198.102648 -65.468894 
L 198.176132 -65.338741 
L 198.243796 -65.208589 
L 198.307218 -65.078436 
L 198.368113 -64.948283 
L 198.428282 -64.81813 
L 198.489564 -64.687977 
L 198.553772 -64.557825 
L 198.622645 -64.427672 
L 198.697778 -64.297519 
L 198.780572 -64.167366 
L 198.872174 -64.037213 
L 198.973427 -63.90706 
L 199.084819 -63.776908 
L 199.20645 -63.646755 
L 199.338001 -63.516602 
L 199.478712 -63.386449 
L 199.627383 -63.256296 
L 199.782378 -63.126143 
L 199.941651 -62.995991 
L 200.102783 -62.865838 
L 200.26304 -62.735685 
L 200.419431 -62.605532 
L 200.568798 -62.475379 
L 200.707898 -62.345226 
L 200.833504 -62.215074 
L 200.942502 -62.084921 
L 201.031993 -61.954768 
L 201.099387 -61.824615 
L 201.142496 -61.694462 
L 201.159607 -61.564309 
L 201.149543 -61.434157 
L 201.111714 -61.304004 
L 201.046135 -61.173851 
L 200.953437 -61.043698 
L 200.834847 -60.913545 
L 200.692152 -60.783392 
L 200.527645 -60.65324 
L 200.344056 -60.523087 
L 200.144463 -60.392934 
L 199.932199 -60.262781 
L 199.710751 -60.132628 
L 199.483657 -60.002476 
L 199.254403 -59.872323 
L 199.026327 -59.74217 
L 198.802529 -59.612017 
L 198.585794 -59.481864 
L 198.378528 -59.351711 
L 198.182709 -59.221559 
L 197.999851 -59.091406 
L 197.830989 -58.961253 
L 197.676677 -58.8311 
L 197.537003 -58.700947 
L 197.411613 -58.570794 
L 197.299754 -58.440642 
L 197.200326 -58.310489 
L 197.111938 -58.180336 
L 197.032972 -58.050183 
L 196.961656 -57.92003 
L 196.896128 -57.789877 
L 196.834508 -57.659725 
L 196.774961 -57.529572 
L 196.715758 -57.399419 
L 196.655326 -57.269266 
L 196.592293 -57.139113 
L 196.525522 -57.00896 
L 196.454134 -56.878808 
L 196.37752 -56.748655 
L 196.295343 -56.618502 
L 196.207528 -56.488349 
L 196.11425 -56.358196 
L 196.015902 -56.228044 
L 195.913065 -56.097891 
L 195.806473 -55.967738 
L 195.696971 -55.837585 
L 195.585475 -55.707432 
L 195.472935 -55.577279 
L 195.360291 -55.447127 
L 195.248448 -55.316974 
L 195.138241 -55.186821 
L 195.030416 -55.056668 
L 194.925612 -54.926515 
L 194.824354 -54.796362 
L 194.727048 -54.66621 
L 194.633982 -54.536057 
L 194.545334 -54.405904 
L 194.461185 -54.275751 
L 194.381529 -54.145598 
z
" style="stroke: #333333; stroke-width: 0.3"/>
    </defs>
    <g clip-path="url(#p6de5fbacb9)">
     <use xlink:href="#m603f4c0cbf" x="0" y="132.29665" style="fill: #7b2f55; stroke: #333333; stroke-width: 0.3"/>
    </g>
   </g>
   <g id="PolyCollection_9">
    <defs>
     <path id="m3b0f2a2d6b" d="M 240.747176 -33.148404 
L 239.332673 -33.148404 
L 239.28854 -33.234611 
L 239.243084 -33.320818 
L 239.196013 -33.407025 
L 239.146978 -33.493232 
L 239.095571 -33.579439 
L 239.04134 -33.665646 
L 238.983797 -33.751853 
L 238.922438 -33.838061 
L 238.856755 -33.924268 
L 238.786256 -34.010475 
L 238.710482 -34.096682 
L 238.629021 -34.182889 
L 238.541531 -34.269096 
L 238.447749 -34.355303 
L 238.347504 -34.44151 
L 238.240725 -34.527717 
L 238.127452 -34.613924 
L 238.00783 -34.700132 
L 237.882117 -34.786339 
L 237.750674 -34.872546 
L 237.613966 -34.958753 
L 237.472547 -35.04496 
L 237.327059 -35.131167 
L 237.178217 -35.217374 
L 237.026805 -35.303581 
L 236.873663 -35.389788 
L 236.719682 -35.475995 
L 236.565797 -35.562203 
L 236.412976 -35.64841 
L 236.262218 -35.734617 
L 236.114541 -35.820824 
L 235.970974 -35.907031 
L 235.832544 -35.993238 
L 235.700264 -36.079445 
L 235.57511 -36.165652 
L 235.458001 -36.251859 
L 235.349775 -36.338067 
L 235.251155 -36.424274 
L 235.162722 -36.510481 
L 235.084879 -36.596688 
L 235.017823 -36.682895 
L 234.961511 -36.769102 
L 234.915643 -36.855309 
L 234.879638 -36.941516 
L 234.852628 -37.027723 
L 234.83346 -37.11393 
L 234.82071 -37.200138 
L 234.812705 -37.286345 
L 234.807562 -37.372552 
L 234.803237 -37.458759 
L 234.797583 -37.544966 
L 234.788413 -37.631173 
L 234.773579 -37.71738 
L 234.751039 -37.803587 
L 234.718935 -37.889794 
L 234.675661 -37.976001 
L 234.619933 -38.062209 
L 234.550834 -38.148416 
L 234.467865 -38.234623 
L 234.370972 -38.32083 
L 234.260557 -38.407037 
L 234.137483 -38.493244 
L 234.003055 -38.579451 
L 233.858986 -38.665658 
L 233.70736 -38.751865 
L 233.550573 -38.838073 
L 233.391268 -38.92428 
L 233.232267 -39.010487 
L 233.076496 -39.096694 
L 232.926908 -39.182901 
L 232.786412 -39.269108 
L 232.657802 -39.355315 
L 232.543697 -39.441522 
L 232.44648 -39.527729 
L 232.368262 -39.613936 
L 232.310838 -39.700144 
L 232.275667 -39.786351 
L 232.263861 -39.872558 
L 232.276172 -39.958765 
L 232.313006 -40.044972 
L 232.37443 -40.131179 
L 232.460194 -40.217386 
L 232.569751 -40.303593 
L 232.702289 -40.3898 
L 232.856754 -40.476007 
L 233.031886 -40.562215 
L 233.226243 -40.648422 
L 233.438231 -40.734629 
L 233.666131 -40.820836 
L 233.908124 -40.907043 
L 234.162313 -40.99325 
L 234.426745 -41.079457 
L 234.69943 -41.165664 
L 234.978362 -41.251871 
L 235.261534 -41.338079 
L 235.546962 -41.424286 
L 235.832697 -41.510493 
L 236.116848 -41.5967 
L 236.3976 -41.682907 
L 243.682248 -41.682907 
L 243.682248 -41.682907 
L 243.963 -41.5967 
L 244.247151 -41.510493 
L 244.532886 -41.424286 
L 244.818314 -41.338079 
L 245.101487 -41.251871 
L 245.380418 -41.165664 
L 245.653104 -41.079457 
L 245.917536 -40.99325 
L 246.171725 -40.907043 
L 246.413718 -40.820836 
L 246.641618 -40.734629 
L 246.853606 -40.648422 
L 247.047962 -40.562215 
L 247.223094 -40.476007 
L 247.37756 -40.3898 
L 247.510097 -40.303593 
L 247.619655 -40.217386 
L 247.705418 -40.131179 
L 247.766843 -40.044972 
L 247.803677 -39.958765 
L 247.815988 -39.872558 
L 247.804181 -39.786351 
L 247.769011 -39.700144 
L 247.711587 -39.613936 
L 247.633368 -39.527729 
L 247.536152 -39.441522 
L 247.422046 -39.355315 
L 247.293436 -39.269108 
L 247.15294 -39.182901 
L 247.003352 -39.096694 
L 246.847581 -39.010487 
L 246.68858 -38.92428 
L 246.529276 -38.838073 
L 246.372488 -38.751865 
L 246.220863 -38.665658 
L 246.076794 -38.579451 
L 245.942365 -38.493244 
L 245.819291 -38.407037 
L 245.708877 -38.32083 
L 245.611983 -38.234623 
L 245.529015 -38.148416 
L 245.459916 -38.062209 
L 245.404187 -37.976001 
L 245.360914 -37.889794 
L 245.328809 -37.803587 
L 245.306269 -37.71738 
L 245.291435 -37.631173 
L 245.282266 -37.544966 
L 245.276611 -37.458759 
L 245.272286 -37.372552 
L 245.267144 -37.286345 
L 245.259138 -37.200138 
L 245.246388 -37.11393 
L 245.227221 -37.027723 
L 245.200211 -36.941516 
L 245.164206 -36.855309 
L 245.118337 -36.769102 
L 245.062026 -36.682895 
L 244.994969 -36.596688 
L 244.917126 -36.510481 
L 244.828693 -36.424274 
L 244.730073 -36.338067 
L 244.621847 -36.251859 
L 244.504739 -36.165652 
L 244.379585 -36.079445 
L 244.247304 -35.993238 
L 244.108875 -35.907031 
L 243.965307 -35.820824 
L 243.81763 -35.734617 
L 243.666872 -35.64841 
L 243.514051 -35.562203 
L 243.360166 -35.475995 
L 243.206186 -35.389788 
L 243.053044 -35.303581 
L 242.901631 -35.217374 
L 242.75279 -35.131167 
L 242.607301 -35.04496 
L 242.465883 -34.958753 
L 242.329174 -34.872546 
L 242.197732 -34.786339 
L 242.072019 -34.700132 
L 241.952397 -34.613924 
L 241.839123 -34.527717 
L 241.732345 -34.44151 
L 241.632099 -34.355303 
L 241.538317 -34.269096 
L 241.450827 -34.182889 
L 241.369367 -34.096682 
L 241.293592 -34.010475 
L 241.223093 -33.924268 
L 241.157411 -33.838061 
L 241.096052 -33.751853 
L 241.038509 -33.665646 
L 240.984277 -33.579439 
L 240.93287 -33.493232 
L 240.883835 -33.407025 
L 240.836765 -33.320818 
L 240.791308 -33.234611 
L 240.747176 -33.148404 
z
" style="stroke: #333333; stroke-width: 0.3"/>
    </defs>
    <g clip-path="url(#p6de5fbacb9)">
     <use xlink:href="#m3b0f2a2d6b" x="0" y="132.29665" style="fill: #519d91; stroke: #333333; stroke-width: 0.3"/>
    </g>
   </g>
   <g id="PolyCollection_10">
    <defs>
     <path id="meb318d4d8a" d="M 259.977525 -39.470589 
L 251.206578 -39.470589 
L 251.043697 -39.596482 
L 250.883651 -39.722375 
L 250.726869 -39.848268 
L 250.573739 -39.974161 
L 250.424606 -40.100054 
L 250.279763 -40.225947 
L 250.139455 -40.35184 
L 250.003879 -40.477732 
L 249.873176 -40.603625 
L 249.747444 -40.729518 
L 249.626727 -40.855411 
L 249.51103 -40.981304 
L 249.400314 -41.107197 
L 249.294505 -41.23309 
L 249.193495 -41.358983 
L 249.097151 -41.484876 
L 249.005319 -41.610769 
L 248.917829 -41.736662 
L 248.834503 -41.862555 
L 248.755156 -41.988448 
L 248.679606 -42.114341 
L 248.607678 -42.240234 
L 248.539206 -42.366126 
L 248.47404 -42.492019 
L 248.412047 -42.617912 
L 248.353116 -42.743805 
L 248.297157 -42.869698 
L 248.244105 -42.995591 
L 248.193919 -43.121484 
L 248.14658 -43.247377 
L 248.102097 -43.37327 
L 248.060497 -43.499163 
L 248.021828 -43.625056 
L 247.986158 -43.750949 
L 247.953569 -43.876842 
L 247.924154 -44.002735 
L 247.898017 -44.128628 
L 247.875267 -44.254521 
L 247.856017 -44.380413 
L 247.840379 -44.506306 
L 247.82846 -44.632199 
L 247.820363 -44.758092 
L 247.816179 -44.883985 
L 247.815988 -45.009878 
L 247.819854 -45.135771 
L 247.827826 -45.261664 
L 247.839932 -45.387557 
L 247.856181 -45.51345 
L 247.876559 -45.639343 
L 247.901029 -45.765236 
L 247.92953 -45.891129 
L 247.961975 -46.017022 
L 247.998254 -46.142915 
L 248.038231 -46.268807 
L 248.081747 -46.3947 
L 248.128618 -46.520593 
L 248.178638 -46.646486 
L 248.231581 -46.772379 
L 248.287202 -46.898272 
L 248.345241 -47.024165 
L 248.405424 -47.150058 
L 248.467467 -47.275951 
L 248.531082 -47.401844 
L 248.595979 -47.527737 
L 248.66187 -47.65363 
L 248.728476 -47.779523 
L 248.795529 -47.905416 
L 248.862783 -48.031309 
L 248.930011 -48.157202 
L 248.997016 -48.283094 
L 249.063633 -48.408987 
L 249.129735 -48.53488 
L 249.195235 -48.660773 
L 249.260092 -48.786666 
L 249.324309 -48.912559 
L 249.387939 -49.038452 
L 249.451082 -49.164345 
L 249.513888 -49.290238 
L 249.576554 -49.416131 
L 249.639318 -49.542024 
L 249.702464 -49.667917 
L 249.766307 -49.79381 
L 249.831194 -49.919703 
L 249.897496 -50.045596 
L 249.965601 -50.171488 
L 250.035903 -50.297381 
L 250.108798 -50.423274 
L 250.184674 -50.549167 
L 250.2639 -50.67506 
L 250.34682 -50.800953 
L 250.433746 -50.926846 
L 250.524947 -51.052739 
L 250.620642 -51.178632 
L 250.720999 -51.304525 
L 250.826124 -51.430418 
L 250.936061 -51.556311 
L 251.050789 -51.682204 
L 251.170218 -51.808097 
L 251.294191 -51.93399 
L 259.889912 -51.93399 
L 259.889912 -51.93399 
L 260.013885 -51.808097 
L 260.133313 -51.682204 
L 260.248041 -51.556311 
L 260.357979 -51.430418 
L 260.463104 -51.304525 
L 260.563461 -51.178632 
L 260.659156 -51.052739 
L 260.750356 -50.926846 
L 260.837282 -50.800953 
L 260.920203 -50.67506 
L 260.999429 -50.549167 
L 261.075304 -50.423274 
L 261.1482 -50.297381 
L 261.218502 -50.171488 
L 261.286606 -50.045596 
L 261.352909 -49.919703 
L 261.417796 -49.79381 
L 261.481639 -49.667917 
L 261.544784 -49.542024 
L 261.607549 -49.416131 
L 261.670214 -49.290238 
L 261.733021 -49.164345 
L 261.796164 -49.038452 
L 261.859793 -48.912559 
L 261.92401 -48.786666 
L 261.988867 -48.660773 
L 262.054368 -48.53488 
L 262.12047 -48.408987 
L 262.187087 -48.283094 
L 262.254092 -48.157202 
L 262.321319 -48.031309 
L 262.388573 -47.905416 
L 262.455627 -47.779523 
L 262.522233 -47.65363 
L 262.588123 -47.527737 
L 262.65302 -47.401844 
L 262.716635 -47.275951 
L 262.778679 -47.150058 
L 262.838862 -47.024165 
L 262.8969 -46.898272 
L 262.952522 -46.772379 
L 263.005465 -46.646486 
L 263.055485 -46.520593 
L 263.102355 -46.3947 
L 263.145871 -46.268807 
L 263.185849 -46.142915 
L 263.222128 -46.017022 
L 263.254573 -45.891129 
L 263.283073 -45.765236 
L 263.307543 -45.639343 
L 263.327921 -45.51345 
L 263.34417 -45.387557 
L 263.356277 -45.261664 
L 263.364248 -45.135771 
L 263.368115 -45.009878 
L 263.367923 -44.883985 
L 263.363739 -44.758092 
L 263.355642 -44.632199 
L 263.343724 -44.506306 
L 263.328085 -44.380413 
L 263.308835 -44.254521 
L 263.286086 -44.128628 
L 263.259949 -44.002735 
L 263.230534 -43.876842 
L 263.197944 -43.750949 
L 263.162274 -43.625056 
L 263.123606 -43.499163 
L 263.082006 -43.37327 
L 263.037522 -43.247377 
L 262.990184 -43.121484 
L 262.939997 -42.995591 
L 262.886945 -42.869698 
L 262.830986 -42.743805 
L 262.772055 -42.617912 
L 262.710063 -42.492019 
L 262.644897 -42.366126 
L 262.576425 -42.240234 
L 262.504497 -42.114341 
L 262.428947 -41.988448 
L 262.3496 -41.862555 
L 262.266273 -41.736662 
L 262.178784 -41.610769 
L 262.086952 -41.484876 
L 261.990608 -41.358983 
L 261.889598 -41.23309 
L 261.783788 -41.107197 
L 261.673072 -40.981304 
L 261.557375 -40.855411 
L 261.436659 -40.729518 
L 261.310926 -40.603625 
L 261.180224 -40.477732 
L 261.044647 -40.35184 
L 260.90434 -40.225947 
L 260.759497 -40.100054 
L 260.610363 -39.974161 
L 260.457234 -39.848268 
L 260.300452 -39.722375 
L 260.140405 -39.596482 
L 259.977525 -39.470589 
z
" style="stroke: #333333; stroke-width: 0.3"/>
    </defs>
    <g clip-path="url(#p6de5fbacb9)">
     <use xlink:href="#meb318d4d8a" x="0" y="132.29665" style="fill: #bf7380; stroke: #333333; stroke-width: 0.3"/>
    </g>
   </g>
   <g id="PolyCollection_11">
    <defs>
     <path id="m0fcb853f4c" d="M 271.936565 -51.323967 
L 270.351791 -51.323967 
L 270.153116 -51.780396 
L 269.921352 -52.236825 
L 269.654967 -52.693253 
L 269.35347 -53.149682 
L 269.017751 -53.606111 
L 268.650384 -54.06254 
L 268.255814 -54.518968 
L 267.840375 -54.975397 
L 267.412057 -55.431826 
L 266.98005 -55.888255 
L 266.554061 -56.344683 
L 266.143529 -56.801112 
L 265.756828 -57.257541 
L 265.400603 -57.71397 
L 265.079329 -58.170399 
L 264.795141 -58.626827 
L 264.547951 -59.083256 
L 264.335765 -59.539685 
L 264.155155 -59.996114 
L 264.001788 -60.452542 
L 263.870978 -60.908971 
L 263.758228 -61.3654 
L 263.659794 -61.821829 
L 263.57323 -62.278257 
L 263.497922 -62.734686 
L 263.435508 -63.191115 
L 263.390091 -63.647544 
L 263.368115 -64.103972 
L 263.377848 -64.560401 
L 263.428441 -65.01683 
L 263.528665 -65.473259 
L 263.685511 -65.929688 
L 263.90289 -66.386116 
L 264.180675 -66.842545 
L 264.514279 -67.298974 
L 264.894867 -67.755403 
L 265.310168 -68.211831 
L 265.745736 -68.66826 
L 266.186452 -69.124689 
L 266.617995 -69.581118 
L 267.028071 -70.037546 
L 267.407251 -70.493975 
L 267.749333 -70.950404 
L 268.051284 -71.406833 
L 268.312837 -71.863261 
L 268.535887 -72.31969 
L 268.723812 -72.776119 
L 268.880841 -73.232548 
L 269.011537 -73.688977 
L 269.120416 -74.145405 
L 269.211719 -74.601834 
L 269.28929 -75.058263 
L 269.356527 -75.514692 
L 269.416371 -75.97112 
L 269.471302 -76.427549 
L 269.523338 -76.883978 
L 269.574031 -77.340407 
L 269.624471 -77.796835 
L 269.67531 -78.253264 
L 269.726805 -78.709693 
L 269.778891 -79.166122 
L 269.831254 -79.62255 
L 269.883415 -80.078979 
L 269.934796 -80.535408 
L 269.98478 -80.991837 
L 270.032747 -81.448266 
L 270.078105 -81.904694 
L 270.120322 -82.361123 
L 270.158943 -82.817552 
L 270.193621 -83.273981 
L 270.224127 -83.730409 
L 270.250368 -84.186838 
L 270.272381 -84.643267 
L 270.290335 -85.099696 
L 270.304522 -85.556124 
L 270.315355 -86.012553 
L 270.323367 -86.468982 
L 270.329208 -86.925411 
L 270.333633 -87.38184 
L 270.337476 -87.838268 
L 270.341593 -88.294697 
L 270.346804 -88.751126 
L 270.353818 -89.207555 
L 270.363189 -89.663983 
L 270.375286 -90.120412 
L 270.390318 -90.576841 
L 270.408383 -91.03327 
L 270.429533 -91.489698 
L 270.453833 -91.946127 
L 270.481394 -92.402556 
L 270.512347 -92.858985 
L 270.546799 -93.315413 
L 270.584745 -93.771842 
L 270.625987 -94.228271 
L 270.670085 -94.6847 
L 270.716332 -95.141129 
L 270.763796 -95.597557 
L 270.81139 -96.053986 
L 270.857967 -96.510415 
L 271.43039 -96.510415 
L 271.43039 -96.510415 
L 271.476966 -96.053986 
L 271.52456 -95.597557 
L 271.572025 -95.141129 
L 271.618272 -94.6847 
L 271.662369 -94.228271 
L 271.703612 -93.771842 
L 271.741557 -93.315413 
L 271.776009 -92.858985 
L 271.806963 -92.402556 
L 271.834523 -91.946127 
L 271.858824 -91.489698 
L 271.879973 -91.03327 
L 271.898038 -90.576841 
L 271.913071 -90.120412 
L 271.925168 -89.663983 
L 271.934538 -89.207555 
L 271.941553 -88.751126 
L 271.946764 -88.294697 
L 271.950881 -87.838268 
L 271.954723 -87.38184 
L 271.959149 -86.925411 
L 271.964989 -86.468982 
L 271.973001 -86.012553 
L 271.983834 -85.556124 
L 271.998021 -85.099696 
L 272.015976 -84.643267 
L 272.037989 -84.186838 
L 272.064229 -83.730409 
L 272.094736 -83.273981 
L 272.129413 -82.817552 
L 272.168035 -82.361123 
L 272.210251 -81.904694 
L 272.25561 -81.448266 
L 272.303576 -80.991837 
L 272.35356 -80.535408 
L 272.404942 -80.078979 
L 272.457102 -79.62255 
L 272.509465 -79.166122 
L 272.561551 -78.709693 
L 272.613047 -78.253264 
L 272.663885 -77.796835 
L 272.714325 -77.340407 
L 272.765018 -76.883978 
L 272.817055 -76.427549 
L 272.871986 -75.97112 
L 272.931829 -75.514692 
L 272.999067 -75.058263 
L 273.076638 -74.601834 
L 273.167941 -74.145405 
L 273.27682 -73.688977 
L 273.407515 -73.232548 
L 273.564545 -72.776119 
L 273.75247 -72.31969 
L 273.975519 -71.863261 
L 274.237073 -71.406833 
L 274.539024 -70.950404 
L 274.881106 -70.493975 
L 275.260285 -70.037546 
L 275.670362 -69.581118 
L 276.101904 -69.124689 
L 276.54262 -68.66826 
L 276.978189 -68.211831 
L 277.393489 -67.755403 
L 277.774078 -67.298974 
L 278.107682 -66.842545 
L 278.385466 -66.386116 
L 278.602846 -65.929688 
L 278.759692 -65.473259 
L 278.859915 -65.01683 
L 278.910508 -64.560401 
L 278.920242 -64.103972 
L 278.898266 -63.647544 
L 278.852848 -63.191115 
L 278.790435 -62.734686 
L 278.715127 -62.278257 
L 278.628563 -61.821829 
L 278.530128 -61.3654 
L 278.417379 -60.908971 
L 278.286568 -60.452542 
L 278.133202 -59.996114 
L 277.952591 -59.539685 
L 277.740405 -59.083256 
L 277.493215 -58.626827 
L 277.209028 -58.170399 
L 276.887753 -57.71397 
L 276.531529 -57.257541 
L 276.144828 -56.801112 
L 275.734295 -56.344683 
L 275.308307 -55.888255 
L 274.876299 -55.431826 
L 274.447982 -54.975397 
L 274.032542 -54.518968 
L 273.637973 -54.06254 
L 273.270605 -53.606111 
L 272.934886 -53.149682 
L 272.63339 -52.693253 
L 272.367005 -52.236825 
L 272.13524 -51.780396 
L 271.936565 -51.323967 
z
" style="stroke: #333333; stroke-width: 0.3"/>
    </defs>
    <g clip-path="url(#p6de5fbacb9)">
     <use xlink:href="#m0fcb853f4c" x="0" y="132.29665" style="fill: #7b2f55; stroke: #333333; stroke-width: 0.3"/>
    </g>
   </g>
   <g id="patch_3">
    <path d="M 92.294718 101.222509 
L 92.294718 101.222509 
L 92.294718 101.222509 
L 92.294718 101.222509 
z
" clip-path="url(#p6de5fbacb9)" style="fill: #3c2f7b; stroke: #333333; stroke-width: 0.3; stroke-linejoin: miter"/>
   </g>
   <g id="patch_4">
    <path d="M 92.294718 101.222509 
L 92.294718 101.222509 
L 92.294718 101.222509 
L 92.294718 101.222509 
z
" clip-path="url(#p6de5fbacb9)" style="fill: #519d91; stroke: #333333; stroke-width: 0.3; stroke-linejoin: miter"/>
   </g>
   <g id="patch_5">
    <path d="M 92.294718 101.222509 
L 92.294718 101.222509 
L 92.294718 101.222509 
L 92.294718 101.222509 
z
" clip-path="url(#p6de5fbacb9)" style="fill: #bf7380; stroke: #333333; stroke-width: 0.3; stroke-linejoin: miter"/>
   </g>
   <g id="patch_6">
    <path d="M 92.294718 101.222509 
L 92.294718 101.222509 
L 92.294718 101.222509 
L 92.294718 101.222509 
z
" clip-path="url(#p6de5fbacb9)" style="fill: #7b2f55; stroke: #333333; stroke-width: 0.3; stroke-linejoin: miter"/>
   </g>
   <g id="line2d_1">
    <path d="M 68.966527 100.782255 
L 68.966527 100.704313 
" clip-path="url(#p6de5fbacb9)" style="fill: none; stroke: #b2b2b2; stroke-width: 1.666667; stroke-linecap: round"/>
   </g>
   <g id="line2d_2">
    <path d="M 68.966527 100.762769 
L 68.966527 100.723799 
" clip-path="url(#p6de5fbacb9)" style="fill: none; stroke: #b2b2b2; stroke-width: 5; stroke-linecap: round"/>
   </g>
   <g id="line2d_3">
    <path d="M 68.966527 100.743284 
" clip-path="url(#p6de5fbacb9)" style="fill: none; stroke: #333333; stroke-width: 1.2; stroke-linecap: round"/>
    <defs>
     <path id="m8704c36f72" d="M 2.083333 0 
L -2.083333 -0 
" style="stroke: #ffffff"/>
    </defs>
    <g clip-path="url(#p6de5fbacb9)">
     <use xlink:href="#m8704c36f72" x="68.966527" y="100.743284" style="fill: #ffffff; stroke: #ffffff"/>
    </g>
   </g>
   <g id="line2d_4">
    <path d="M 84.518654 100.816694 
L 84.518654 95.305019 
" clip-path="url(#p6de5fbacb9)" style="fill: none; stroke: #b2b2b2; stroke-width: 1.666667; stroke-linecap: round"/>
   </g>
   <g id="line2d_5">
    <path d="M 84.518654 99.538552 
L 84.518654 97.841934 
" clip-path="url(#p6de5fbacb9)" style="fill: none; stroke: #b2b2b2; stroke-width: 5; stroke-linecap: round"/>
   </g>
   <g id="line2d_6">
    <path d="M 84.518654 98.897028 
" clip-path="url(#p6de5fbacb9)" style="fill: none; stroke: #333333; stroke-width: 1.2; stroke-linecap: round"/>
    <g clip-path="url(#p6de5fbacb9)">
     <use xlink:href="#m8704c36f72" x="84.518654" y="98.897028" style="fill: #ffffff; stroke: #ffffff"/>
    </g>
   </g>
   <g id="line2d_7">
    <path d="M 100.070781 97.018191 
L 100.070781 77.837726 
" clip-path="url(#p6de5fbacb9)" style="fill: none; stroke: #b2b2b2; stroke-width: 1.666667; stroke-linecap: round"/>
   </g>
   <g id="line2d_8">
    <path d="M 100.070781 92.57282 
L 100.070781 86.674133 
" clip-path="url(#p6de5fbacb9)" style="fill: none; stroke: #b2b2b2; stroke-width: 5; stroke-linecap: round"/>
   </g>
   <g id="line2d_9">
    <path d="M 100.070781 89.802142 
" clip-path="url(#p6de5fbacb9)" style="fill: none; stroke: #333333; stroke-width: 1.2; stroke-linecap: round"/>
    <g clip-path="url(#p6de5fbacb9)">
     <use xlink:href="#m8704c36f72" x="100.070781" y="89.802142" style="fill: #ffffff; stroke: #ffffff"/>
    </g>
   </g>
   <g id="line2d_10">
    <path d="M 115.622908 83.797111 
L 115.622908 70.034152 
" clip-path="url(#p6de5fbacb9)" style="fill: none; stroke: #b2b2b2; stroke-width: 1.666667; stroke-linecap: round"/>
   </g>
   <g id="line2d_11">
    <path d="M 115.622908 79.972122 
L 115.622908 75.610762 
" clip-path="url(#p6de5fbacb9)" style="fill: none; stroke: #b2b2b2; stroke-width: 5; stroke-linecap: round"/>
   </g>
   <g id="line2d_12">
    <path d="M 115.622908 78.328728 
" clip-path="url(#p6de5fbacb9)" style="fill: none; stroke: #333333; stroke-width: 1.2; stroke-linecap: round"/>
    <g clip-path="url(#p6de5fbacb9)">
     <use xlink:href="#m8704c36f72" x="115.622908" y="78.328728" style="fill: #ffffff; stroke: #ffffff"/>
    </g>
   </g>
   <g id="line2d_13">
    <path d="M 146.727162 100.029635 
L 146.727162 99.867271 
" clip-path="url(#p6de5fbacb9)" style="fill: none; stroke: #b2b2b2; stroke-width: 1.666667; stroke-linecap: round"/>
   </g>
   <g id="line2d_14">
    <path d="M 146.727162 99.965204 
L 146.727162 99.894841 
" clip-path="url(#p6de5fbacb9)" style="fill: none; stroke: #b2b2b2; stroke-width: 5; stroke-linecap: round"/>
   </g>
   <g id="line2d_15">
    <path d="M 146.727162 99.923879 
" clip-path="url(#p6de5fbacb9)" style="fill: none; stroke: #333333; stroke-width: 1.2; stroke-linecap: round"/>
    <g clip-path="url(#p6de5fbacb9)">
     <use xlink:href="#m8704c36f72" x="146.727162" y="99.923879" style="fill: #ffffff; stroke: #ffffff"/>
    </g>
   </g>
   <g id="line2d_16">
    <path d="M 162.279289 100.421053 
L 162.279289 93.510936 
" clip-path="url(#p6de5fbacb9)" style="fill: none; stroke: #b2b2b2; stroke-width: 1.666667; stroke-linecap: round"/>
   </g>
   <g id="line2d_17">
    <path d="M 162.279289 99.016236 
L 162.279289 96.807051 
" clip-path="url(#p6de5fbacb9)" style="fill: none; stroke: #b2b2b2; stroke-width: 5; stroke-linecap: round"/>
   </g>
   <g id="line2d_18">
    <path d="M 162.279289 98.033272 
" clip-path="url(#p6de5fbacb9)" style="fill: none; stroke: #333333; stroke-width: 1.2; stroke-linecap: round"/>
    <g clip-path="url(#p6de5fbacb9)">
     <use xlink:href="#m8704c36f72" x="162.279289" y="98.033272" style="fill: #ffffff; stroke: #ffffff"/>
    </g>
   </g>
   <g id="line2d_19">
    <path d="M 177.831416 97.267648 
L 177.831416 76.717251 
" clip-path="url(#p6de5fbacb9)" style="fill: none; stroke: #b2b2b2; stroke-width: 1.666667; stroke-linecap: round"/>
   </g>
   <g id="line2d_20">
    <path d="M 177.831416 93.495459 
L 177.831416 86.783795 
" clip-path="url(#p6de5fbacb9)" style="fill: none; stroke: #b2b2b2; stroke-width: 5; stroke-linecap: round"/>
   </g>
   <g id="line2d_21">
    <path d="M 177.831416 90.318042 
" clip-path="url(#p6de5fbacb9)" style="fill: none; stroke: #333333; stroke-width: 1.2; stroke-linecap: round"/>
    <g clip-path="url(#p6de5fbacb9)">
     <use xlink:href="#m8704c36f72" x="177.831416" y="90.318042" style="fill: #ffffff; stroke: #ffffff"/>
    </g>
   </g>
   <g id="line2d_22">
    <path d="M 193.383543 75.964154 
L 193.383543 65.265922 
" clip-path="url(#p6de5fbacb9)" style="fill: none; stroke: #b2b2b2; stroke-width: 1.666667; stroke-linecap: round"/>
   </g>
   <g id="line2d_23">
    <path d="M 193.383543 71.876395 
L 193.383543 68.100018 
" clip-path="url(#p6de5fbacb9)" style="fill: none; stroke: #b2b2b2; stroke-width: 5; stroke-linecap: round"/>
   </g>
   <g id="line2d_24">
    <path d="M 193.383543 70.968854 
" clip-path="url(#p6de5fbacb9)" style="fill: none; stroke: #333333; stroke-width: 1.2; stroke-linecap: round"/>
    <g clip-path="url(#p6de5fbacb9)">
     <use xlink:href="#m8704c36f72" x="193.383543" y="70.968854" style="fill: #ffffff; stroke: #ffffff"/>
    </g>
   </g>
   <g id="line2d_25">
    <path d="M 240.039924 99.148246 
L 240.039924 90.613743 
" clip-path="url(#p6de5fbacb9)" style="fill: none; stroke: #b2b2b2; stroke-width: 1.666667; stroke-linecap: round"/>
   </g>
   <g id="line2d_26">
    <path d="M 240.039924 95.311601 
L 240.039924 92.205612 
" clip-path="url(#p6de5fbacb9)" style="fill: none; stroke: #b2b2b2; stroke-width: 5; stroke-linecap: round"/>
   </g>
   <g id="line2d_27">
    <path d="M 240.039924 93.168067 
" clip-path="url(#p6de5fbacb9)" style="fill: none; stroke: #333333; stroke-width: 1.2; stroke-linecap: round"/>
    <g clip-path="url(#p6de5fbacb9)">
     <use xlink:href="#m8704c36f72" x="240.039924" y="93.168067" style="fill: #ffffff; stroke: #ffffff"/>
    </g>
   </g>
   <g id="line2d_28">
    <path d="M 255.592051 92.826061 
L 255.592051 80.36266 
" clip-path="url(#p6de5fbacb9)" style="fill: none; stroke: #b2b2b2; stroke-width: 1.666667; stroke-linecap: round"/>
   </g>
   <g id="line2d_29">
    <path d="M 255.592051 89.567681 
L 255.592051 84.234502 
" clip-path="url(#p6de5fbacb9)" style="fill: none; stroke: #b2b2b2; stroke-width: 5; stroke-linecap: round"/>
   </g>
   <g id="line2d_30">
    <path d="M 255.592051 87.109413 
" clip-path="url(#p6de5fbacb9)" style="fill: none; stroke: #333333; stroke-width: 1.2; stroke-linecap: round"/>
    <g clip-path="url(#p6de5fbacb9)">
     <use xlink:href="#m8704c36f72" x="255.592051" y="87.109413" style="fill: #ffffff; stroke: #ffffff"/>
    </g>
   </g>
   <g id="line2d_31">
    <path d="M 271.144178 80.972683 
L 271.144178 50.889885 
" clip-path="url(#p6de5fbacb9)" style="fill: none; stroke: #b2b2b2; stroke-width: 1.666667; stroke-linecap: round"/>
   </g>
   <g id="line2d_32">
    <path d="M 271.144178 72.158193 
L 271.144178 63.343566 
" clip-path="url(#p6de5fbacb9)" style="fill: none; stroke: #b2b2b2; stroke-width: 5; stroke-linecap: round"/>
   </g>
   <g id="line2d_33">
    <path d="M 271.144178 67.575137 
" clip-path="url(#p6de5fbacb9)" style="fill: none; stroke: #333333; stroke-width: 1.2; stroke-linecap: round"/>
    <g clip-path="url(#p6de5fbacb9)">
     <use xlink:href="#m8704c36f72" x="271.144178" y="67.575137" style="fill: #ffffff; stroke: #ffffff"/>
    </g>
   </g>
   <g id="patch_7">
    <path d="M 53.4144 103.186 
L 53.4144 22.68285 
" style="fill: none; stroke: #373737; stroke-linejoin: miter; stroke-linecap: square"/>
   </g>
   <g id="patch_8">
    <path d="M 53.4144 103.186 
L 286.696305 103.186 
" style="fill: none; stroke: #373737; stroke-linejoin: miter; stroke-linecap: square"/>
   </g>
   <g id="text_8">
    <text style="fill: #373737; font: 12.48px 'Arial', 'DejaVu Sans', 'Liberation Sans', 'Bitstream Vera Sans', sans-serif; text-anchor: middle" x="170.055353" y="16.68285" transform="rotate(-0 170.055353 16.68285)">Pro Mean Biomass</text>
   </g>
  </g>
  <g id="legend_1">
   <g id="text_9">
    <text style="fill: #373737; font: 12.48px 'Arial', 'DejaVu Sans', 'Liberation Sans', 'Bitstream Vera Sans', sans-serif; text-anchor: start" x="314.727564" y="35.834925" transform="rotate(-0 314.727564 35.834925)">y_pred</text>
   </g>
   <g id="patch_9">
    <path d="M 291.363233 53.190088 
L 314.243233 53.190088 
L 314.243233 45.182088 
L 291.363233 45.182088 
z
" style="fill: #3c2f7b; stroke: #333333; stroke-width: 0.3; stroke-linejoin: miter"/>
   </g>
   <g id="text_10">
    <text style="fill: #373737; font: 11.44px 'Arial', 'DejaVu Sans', 'Liberation Sans', 'Bitstream Vera Sans', sans-serif; text-anchor: start" x="323.395233" y="53.190088" transform="rotate(-0 323.395233 53.190088)">Inhibited</text>
   </g>
   <g id="patch_10">
    <path d="M 291.363233 69.981863 
L 314.243233 69.981863 
L 314.243233 61.973863 
L 291.363233 61.973863 
z
" style="fill: #519d91; stroke: #333333; stroke-width: 0.3; stroke-linejoin: miter"/>
   </g>
   <g id="text_11">
    <text style="fill: #373737; font: 11.44px 'Arial', 'DejaVu Sans', 'Liberation Sans', 'Bitstream Vera Sans', sans-serif; text-anchor: start" x="323.395233" y="69.981863" transform="rotate(-0 323.395233 69.981863)">Weak</text>
   </g>
   <g id="patch_11">
    <path d="M 291.363233 86.773638 
L 314.243233 86.773638 
L 314.243233 78.765638 
L 291.363233 78.765638 
z
" style="fill: #bf7380; stroke: #333333; stroke-width: 0.3; stroke-linejoin: miter"/>
   </g>
   <g id="text_12">
    <text style="fill: #373737; font: 11.44px 'Arial', 'DejaVu Sans', 'Liberation Sans', 'Bitstream Vera Sans', sans-serif; text-anchor: start" x="323.395233" y="86.773638" transform="rotate(-0 323.395233 86.773638)">Sustained</text>
   </g>
   <g id="patch_12">
    <path d="M 291.363233 103.565413 
L 314.243233 103.565413 
L 314.243233 95.557413 
L 291.363233 95.557413 
z
" style="fill: #7b2f55; stroke: #333333; stroke-width: 0.3; stroke-linejoin: miter"/>
   </g>
   <g id="text_13">
    <text style="fill: #373737; font: 11.44px 'Arial', 'DejaVu Sans', 'Liberation Sans', 'Bitstream Vera Sans', sans-serif; text-anchor: start" x="323.395233" y="103.565413" transform="rotate(-0 323.395233 103.565413)">Strong</text>
   </g>
  </g>
 </g>
 <defs>
  <clipPath id="p6de5fbacb9">
   <rect x="53.4144" y="22.68285" width="233.281905" height="80.50315"/>
  </clipPath>
 </defs>
</svg>
