<?xml version="1.0" encoding="utf-8" standalone="no"?>
<!DOCTYPE svg PUBLIC "-//W3C//DTD SVG 1.1//EN"
  "http://www.w3.org/Graphics/SVG/1.1/DTD/svg11.dtd">
<svg xmlns:xlink="http://www.w3.org/1999/xlink" width="388.61087pt" height="131.238387pt" viewBox="0 0 388.61087 131.238387" xmlns="http://www.w3.org/2000/svg" version="1.1">
 <metadata>
  <rdf:RDF xmlns:dc="http://purl.org/dc/elements/1.1/" xmlns:cc="http://creativecommons.org/ns#" xmlns:rdf="http://www.w3.org/1999/02/22-rdf-syntax-ns#">
   <cc:Work>
    <dc:type rdf:resource="http://purl.org/dc/dcmitype/StillImage"/>
    <dc:date>2024-12-17T16:18:55.063828</dc:date>
    <dc:format>image/svg+xml</dc:format>
    <dc:creator>
     <cc:Agent>
      <dc:title>Matplotlib v3.8.0, https://matplotlib.org/</dc:title>
     </cc:Agent>
    </dc:creator>
   </cc:Work>
  </rdf:RDF>
 </metadata>
 <defs>
  <style type="text/css">*{stroke-linejoin: round; stroke-linecap: butt}</style>
 </defs>
 <g id="figure_1">
  <g id="patch_1">
   <path d="M 0 131.238387 
L 388.61087 131.238387 
L 388.61087 0 
L 0 0 
L 0 131.238387 
z
" style="fill: none"/>
  </g>
  <g id="axes_1">
   <g id="patch_2">
    <path d="M 50.150588 105.27615 
L 290.82673 105.27615 
L 290.82673 22.13295 
L 50.150588 22.13295 
L 50.150588 105.27615 
z
" style="fill: none"/>
   </g>
   <g id="matplotlib.axis_1">
    <g id="xtick_1">
     <g id="text_1">
      <text style="fill: #373737; font: 11.44px 'Arial', 'DejaVu Sans', 'Liberation Sans', 'Bitstream Vera Sans', sans-serif; text-anchor: middle" x="90.263278" y="121.764687" transform="rotate(-0 90.263278 121.764687)">OVERFLOW</text>
     </g>
    </g>
    <g id="xtick_2">
     <g id="text_2">
      <text style="fill: #373737; font: 11.44px 'Arial', 'DejaVu Sans', 'Liberation Sans', 'Bitstream Vera Sans', sans-serif; text-anchor: middle" x="170.488659" y="121.764687" transform="rotate(-0 170.488659 121.764687)">EXOENZYME</text>
     </g>
    </g>
    <g id="xtick_3">
     <g id="text_3">
      <text style="fill: #373737; font: 11.44px 'Arial', 'DejaVu Sans', 'Liberation Sans', 'Bitstream Vera Sans', sans-serif; text-anchor: middle" x="250.71404" y="121.764687" transform="rotate(-0 250.71404 121.764687)">ROS</text>
     </g>
    </g>
   </g>
   <g id="matplotlib.axis_2">
    <g id="ytick_1">
     <g id="text_4">
      <text style="fill: #373737; font: 11.44px 'Arial', 'DejaVu Sans', 'Liberation Sans', 'Bitstream Vera Sans', sans-serif; text-anchor: end" x="41.850588" y="107.342536" transform="rotate(-0 41.850588 107.342536)">0</text>
     </g>
    </g>
    <g id="ytick_2">
     <g id="text_5">
      <text style="fill: #373737; font: 11.44px 'Arial', 'DejaVu Sans', 'Liberation Sans', 'Bitstream Vera Sans', sans-serif; text-anchor: end" x="41.850588" y="66.784877" transform="rotate(-0 41.850588 66.784877)">200</text>
     </g>
    </g>
    <g id="ytick_3">
     <g id="text_6">
      <text style="fill: #373737; font: 11.44px 'Arial', 'DejaVu Sans', 'Liberation Sans', 'Bitstream Vera Sans', sans-serif; text-anchor: end" x="41.850588" y="26.227219" transform="rotate(-0 41.850588 26.227219)">400</text>
     </g>
    </g>
    <g id="text_7">
     <text style="fill: #373737; font: 12.48px 'Arial', 'DejaVu Sans', 'Liberation Sans', 'Bitstream Vera Sans', sans-serif; text-anchor: middle" x="16.28505" y="63.70455" transform="rotate(-90 16.28505 63.70455)">µM C</text>
    </g>
   </g>
   <g id="PolyCollection_1">
    <defs>
     <path id="m5b3fdefefd" d="M 73.26565 -29.523879 
L 59.125677 -29.523879 
L 59.086353 -29.530334 
L 59.047877 -29.536788 
L 59.010251 -29.543243 
L 58.973478 -29.549698 
L 58.937561 -29.556152 
L 58.9025 -29.562607 
L 58.868296 -29.569061 
L 58.83495 -29.575516 
L 58.802462 -29.581971 
L 58.770831 -29.588425 
L 58.740057 -29.59488 
L 58.710137 -29.601335 
L 58.681071 -29.607789 
L 58.652856 -29.614244 
L 58.62549 -29.620698 
L 58.598971 -29.627153 
L 58.573294 -29.633608 
L 58.548458 -29.640062 
L 58.524458 -29.646517 
L 58.501291 -29.652971 
L 58.478953 -29.659426 
L 58.457439 -29.665881 
L 58.436747 -29.672335 
L 58.41687 -29.67879 
L 58.397806 -29.685244 
L 58.379549 -29.691699 
L 58.362096 -29.698154 
L 58.345441 -29.704608 
L 58.32958 -29.711063 
L 58.314508 -29.717517 
L 58.300222 -29.723972 
L 58.286716 -29.730427 
L 58.273988 -29.736881 
L 58.262031 -29.743336 
L 58.250843 -29.74979 
L 58.24042 -29.756245 
L 58.230757 -29.7627 
L 58.221852 -29.769154 
L 58.213702 -29.775609 
L 58.206302 -29.782063 
L 58.199651 -29.788518 
L 58.193745 -29.794973 
L 58.188583 -29.801427 
L 58.184162 -29.807882 
L 58.180481 -29.814336 
L 58.177537 -29.820791 
L 58.175331 -29.827246 
L 58.173861 -29.8337 
L 58.173126 -29.840155 
L 58.173126 -29.846609 
L 58.173861 -29.853064 
L 58.175331 -29.859519 
L 58.177537 -29.865973 
L 58.180481 -29.872428 
L 58.184162 -29.878882 
L 58.188583 -29.885337 
L 58.193745 -29.891792 
L 58.199651 -29.898246 
L 58.206302 -29.904701 
L 58.213702 -29.911155 
L 58.221852 -29.91761 
L 58.230757 -29.924065 
L 58.24042 -29.930519 
L 58.250843 -29.936974 
L 58.262031 -29.943428 
L 58.273988 -29.949883 
L 58.286716 -29.956338 
L 58.300222 -29.962792 
L 58.314508 -29.969247 
L 58.32958 -29.975701 
L 58.345441 -29.982156 
L 58.362096 -29.988611 
L 58.379549 -29.995065 
L 58.397806 -30.00152 
L 58.41687 -30.007975 
L 58.436747 -30.014429 
L 58.457439 -30.020884 
L 58.478953 -30.027338 
L 58.501291 -30.033793 
L 58.524458 -30.040248 
L 58.548458 -30.046702 
L 58.573294 -30.053157 
L 58.598971 -30.059611 
L 58.62549 -30.066066 
L 58.652856 -30.072521 
L 58.681071 -30.078975 
L 58.710137 -30.08543 
L 58.740057 -30.091884 
L 58.770831 -30.098339 
L 58.802462 -30.104794 
L 58.83495 -30.111248 
L 58.868296 -30.117703 
L 58.9025 -30.124157 
L 58.937561 -30.130612 
L 58.973478 -30.137067 
L 59.010251 -30.143521 
L 59.047877 -30.149976 
L 59.086353 -30.15643 
L 59.125677 -30.162885 
L 73.26565 -30.162885 
L 73.26565 -30.162885 
L 73.304974 -30.15643 
L 73.34345 -30.149976 
L 73.381076 -30.143521 
L 73.417849 -30.137067 
L 73.453766 -30.130612 
L 73.488828 -30.124157 
L 73.523031 -30.117703 
L 73.556377 -30.111248 
L 73.588865 -30.104794 
L 73.620496 -30.098339 
L 73.651271 -30.091884 
L 73.68119 -30.08543 
L 73.710256 -30.078975 
L 73.738471 -30.072521 
L 73.765837 -30.066066 
L 73.792357 -30.059611 
L 73.818033 -30.053157 
L 73.842869 -30.046702 
L 73.866869 -30.040248 
L 73.890037 -30.033793 
L 73.912375 -30.027338 
L 73.933888 -30.020884 
L 73.954581 -30.014429 
L 73.974457 -30.007975 
L 73.993521 -30.00152 
L 74.011778 -29.995065 
L 74.029232 -29.988611 
L 74.045887 -29.982156 
L 74.061748 -29.975701 
L 74.076819 -29.969247 
L 74.091105 -29.962792 
L 74.104611 -29.956338 
L 74.11734 -29.949883 
L 74.129296 -29.943428 
L 74.140484 -29.936974 
L 74.150907 -29.930519 
L 74.16057 -29.924065 
L 74.169475 -29.91761 
L 74.177626 -29.911155 
L 74.185025 -29.904701 
L 74.191677 -29.898246 
L 74.197582 -29.891792 
L 74.202744 -29.885337 
L 74.207165 -29.878882 
L 74.210847 -29.872428 
L 74.21379 -29.865973 
L 74.215996 -29.859519 
L 74.217467 -29.853064 
L 74.218202 -29.846609 
L 74.218202 -29.840155 
L 74.217467 -29.8337 
L 74.215996 -29.827246 
L 74.21379 -29.820791 
L 74.210847 -29.814336 
L 74.207165 -29.807882 
L 74.202744 -29.801427 
L 74.197582 -29.794973 
L 74.191677 -29.788518 
L 74.185025 -29.782063 
L 74.177626 -29.775609 
L 74.169475 -29.769154 
L 74.16057 -29.7627 
L 74.150907 -29.756245 
L 74.140484 -29.74979 
L 74.129296 -29.743336 
L 74.11734 -29.736881 
L 74.104611 -29.730427 
L 74.091105 -29.723972 
L 74.076819 -29.717517 
L 74.061748 -29.711063 
L 74.045887 -29.704608 
L 74.029232 -29.698154 
L 74.011778 -29.691699 
L 73.993521 -29.685244 
L 73.974457 -29.67879 
L 73.954581 -29.672335 
L 73.933888 -29.665881 
L 73.912375 -29.659426 
L 73.890037 -29.652971 
L 73.866869 -29.646517 
L 73.842869 -29.640062 
L 73.818033 -29.633608 
L 73.792357 -29.627153 
L 73.765837 -29.620698 
L 73.738471 -29.614244 
L 73.710256 -29.607789 
L 73.68119 -29.601335 
L 73.651271 -29.59488 
L 73.620496 -29.588425 
L 73.588865 -29.581971 
L 73.556377 -29.575516 
L 73.523031 -29.569061 
L 73.488828 -29.562607 
L 73.453766 -29.556152 
L 73.417849 -29.549698 
L 73.381076 -29.543243 
L 73.34345 -29.536788 
L 73.304974 -29.530334 
L 73.26565 -29.523879 
z
" style="stroke: #333333; stroke-width: 0.3"/>
    </defs>
    <g clip-path="url(#p5cca857c31)">
     <use xlink:href="#m5b3fdefefd" x="0" y="131.238387" style="fill: #3c2f7b; stroke: #333333; stroke-width: 0.3"/>
    </g>
   </g>
   <g id="PolyCollection_2">
    <defs>
     <path id="m948cc52189" d="M 83.082886 -28.2848 
L 81.398593 -28.2848 
L 80.817512 -28.479879 
L 80.000736 -28.674958 
L 78.960762 -28.870036 
L 77.795244 -29.065115 
L 76.663139 -29.260194 
L 75.711362 -29.455273 
L 75.016571 -29.650352 
L 74.579179 -29.845431 
L 74.347976 -30.040509 
L 74.248875 -30.235588 
L 74.218202 -30.430667 
L 74.235316 -30.625746 
L 74.326198 -30.820825 
L 74.526156 -31.015903 
L 74.835735 -31.210982 
L 75.213444 -31.406061 
L 75.605131 -31.60114 
L 75.972216 -31.796219 
L 76.29538 -31.991297 
L 76.565137 -32.186376 
L 76.775757 -32.381455 
L 76.921505 -32.576534 
L 76.990918 -32.771613 
L 76.966663 -32.966691 
L 76.838806 -33.16177 
L 76.622653 -33.356849 
L 76.362005 -33.551928 
L 76.11066 -33.747007 
L 75.906913 -33.942086 
L 75.764458 -34.137164 
L 75.688016 -34.332243 
L 75.694932 -34.527322 
L 75.815426 -34.722401 
L 76.069768 -34.91748 
L 76.448152 -35.112558 
L 76.911968 -35.307637 
L 77.410361 -35.502716 
L 77.898748 -35.697795 
L 78.352101 -35.892874 
L 78.767545 -36.087952 
L 79.154944 -36.283031 
L 79.524598 -36.47811 
L 79.881302 -36.673189 
L 80.222169 -36.868268 
L 80.534794 -37.063346 
L 80.801744 -37.258425 
L 81.012482 -37.453504 
L 81.170991 -37.648583 
L 81.292039 -37.843662 
L 81.392348 -38.038741 
L 81.483501 -38.233819 
L 81.56844 -38.428898 
L 81.643743 -38.623977 
L 81.707105 -38.819056 
L 81.762127 -39.014135 
L 81.814182 -39.209213 
L 81.863395 -39.404292 
L 81.905294 -39.599371 
L 81.938228 -39.79445 
L 81.966546 -39.989529 
L 81.995448 -40.184607 
L 82.025582 -40.379686 
L 82.054222 -40.574765 
L 82.079405 -40.769844 
L 82.10077 -40.964923 
L 82.117531 -41.160001 
L 82.128176 -41.35508 
L 82.132821 -41.550159 
L 82.134366 -41.745238 
L 82.136047 -41.940317 
L 82.13858 -42.135395 
L 82.141051 -42.330474 
L 82.144075 -42.525553 
L 82.150421 -42.720632 
L 82.162038 -42.915711 
L 82.177428 -43.11079 
L 82.192578 -43.305868 
L 82.204042 -43.500947 
L 82.210753 -43.696026 
L 82.213626 -43.891105 
L 82.214371 -44.086184 
L 82.214688 -44.281262 
L 82.215727 -44.476341 
L 82.217639 -44.67142 
L 82.219635 -44.866499 
L 82.220863 -45.061578 
L 82.221404 -45.256656 
L 82.222303 -45.451735 
L 82.2245 -45.646814 
L 82.227783 -45.841893 
L 82.230967 -46.036972 
L 82.233041 -46.23205 
L 82.233893 -46.427129 
L 82.233848 -46.622208 
L 82.232903 -46.817287 
L 82.230908 -47.012366 
L 82.228439 -47.207445 
L 82.226956 -47.402523 
L 82.227725 -47.597602 
L 82.253755 -47.597602 
L 82.253755 -47.597602 
L 82.254524 -47.402523 
L 82.253041 -47.207445 
L 82.250571 -47.012366 
L 82.248577 -46.817287 
L 82.247632 -46.622208 
L 82.247586 -46.427129 
L 82.248439 -46.23205 
L 82.250513 -46.036972 
L 82.253696 -45.841893 
L 82.25698 -45.646814 
L 82.259176 -45.451735 
L 82.260076 -45.256656 
L 82.260617 -45.061578 
L 82.261844 -44.866499 
L 82.263841 -44.67142 
L 82.265753 -44.476341 
L 82.266792 -44.281262 
L 82.267109 -44.086184 
L 82.267854 -43.891105 
L 82.270726 -43.696026 
L 82.277438 -43.500947 
L 82.288901 -43.305868 
L 82.304052 -43.11079 
L 82.319442 -42.915711 
L 82.331059 -42.720632 
L 82.337405 -42.525553 
L 82.340429 -42.330474 
L 82.342899 -42.135395 
L 82.345433 -41.940317 
L 82.347113 -41.745238 
L 82.348659 -41.550159 
L 82.353304 -41.35508 
L 82.363949 -41.160001 
L 82.38071 -40.964923 
L 82.402075 -40.769844 
L 82.427258 -40.574765 
L 82.455897 -40.379686 
L 82.486032 -40.184607 
L 82.514933 -39.989529 
L 82.543251 -39.79445 
L 82.576185 -39.599371 
L 82.618084 -39.404292 
L 82.667297 -39.209213 
L 82.719352 -39.014135 
L 82.774375 -38.819056 
L 82.837737 -38.623977 
L 82.913039 -38.428898 
L 82.997978 -38.233819 
L 83.089131 -38.038741 
L 83.189441 -37.843662 
L 83.310488 -37.648583 
L 83.468997 -37.453504 
L 83.679735 -37.258425 
L 83.946685 -37.063346 
L 84.25931 -36.868268 
L 84.600178 -36.673189 
L 84.956882 -36.47811 
L 85.326536 -36.283031 
L 85.713935 -36.087952 
L 86.129379 -35.892874 
L 86.582731 -35.697795 
L 87.071119 -35.502716 
L 87.569511 -35.307637 
L 88.033328 -35.112558 
L 88.411712 -34.91748 
L 88.666054 -34.722401 
L 88.786548 -34.527322 
L 88.793464 -34.332243 
L 88.717022 -34.137164 
L 88.574566 -33.942086 
L 88.37082 -33.747007 
L 88.119474 -33.551928 
L 87.858826 -33.356849 
L 87.642674 -33.16177 
L 87.514817 -32.966691 
L 87.490562 -32.771613 
L 87.559975 -32.576534 
L 87.705723 -32.381455 
L 87.916343 -32.186376 
L 88.1861 -31.991297 
L 88.509264 -31.796219 
L 88.876349 -31.60114 
L 89.268035 -31.406061 
L 89.645745 -31.210982 
L 89.955324 -31.015903 
L 90.155282 -30.820825 
L 90.246164 -30.625746 
L 90.263278 -30.430667 
L 90.232605 -30.235588 
L 90.133504 -30.040509 
L 89.902301 -29.845431 
L 89.464908 -29.650352 
L 88.770118 -29.455273 
L 87.81834 -29.260194 
L 86.686236 -29.065115 
L 85.520718 -28.870036 
L 84.480743 -28.674958 
L 83.663967 -28.479879 
L 83.082886 -28.2848 
z
" style="stroke: #333333; stroke-width: 0.3"/>
    </defs>
    <g clip-path="url(#p5cca857c31)">
     <use xlink:href="#m948cc52189" x="0" y="131.238387" style="fill: #519d91; stroke: #333333; stroke-width: 0.3"/>
    </g>
   </g>
   <g id="PolyCollection_3">
    <defs>
     <path id="m9aaa001423" d="M 98.673687 -38.126526 
L 97.897945 -38.126526 
L 97.735749 -38.498057 
L 97.529078 -38.869588 
L 97.273205 -39.241119 
L 96.964739 -39.61265 
L 96.60186 -39.984181 
L 96.184454 -40.355712 
L 95.714367 -40.727243 
L 95.19608 -41.098774 
L 94.637941 -41.470304 
L 94.053596 -41.841835 
L 93.462773 -42.213366 
L 92.890288 -42.584897 
L 92.362654 -42.956428 
L 91.902738 -43.327959 
L 91.524136 -43.69949 
L 91.227543 -44.071021 
L 91.000869 -44.442552 
L 90.823536 -44.814083 
L 90.673823 -45.185613 
L 90.536987 -45.557144 
L 90.41154 -45.928675 
L 90.311457 -46.300206 
L 90.263278 -46.671737 
L 90.298658 -47.043268 
L 90.444589 -47.414799 
L 90.71447 -47.78633 
L 91.103046 -48.157861 
L 91.586817 -48.529391 
L 92.12954 -48.900922 
L 92.690604 -49.272453 
L 93.233271 -49.643984 
L 93.730192 -50.015515 
L 94.165128 -50.387046 
L 94.531492 -50.758577 
L 94.829499 -51.130108 
L 95.063726 -51.501639 
L 95.241926 -51.873169 
L 95.37477 -52.2447 
L 95.475501 -52.616231 
L 95.558696 -52.987762 
L 95.63814 -53.359293 
L 95.724578 -53.730824 
L 95.824281 -54.102355 
L 95.938913 -54.473886 
L 96.066436 -54.845417 
L 96.202406 -55.216948 
L 96.341043 -55.588478 
L 96.475949 -55.960009 
L 96.60074 -56.33154 
L 96.709873 -56.703071 
L 96.799694 -57.074602 
L 96.86938 -57.446133 
L 96.921299 -57.817664 
L 96.960567 -58.189195 
L 96.993838 -58.560726 
L 97.027703 -58.932256 
L 97.067146 -59.303787 
L 97.114488 -59.675318 
L 97.169157 -60.046849 
L 97.2284 -60.41838 
L 97.288796 -60.789911 
L 97.348024 -61.161442 
L 97.406141 -61.532973 
L 97.465699 -61.904504 
L 97.530498 -62.276034 
L 97.603506 -62.647565 
L 97.684957 -63.019096 
L 97.771626 -63.390627 
L 97.85769 -63.762158 
L 97.93674 -64.133689 
L 98.003946 -64.50522 
L 98.057366 -64.876751 
L 98.09794 -65.248282 
L 98.128416 -65.619812 
L 98.151914 -65.991343 
L 98.170836 -66.362874 
L 98.186487 -66.734405 
L 98.199303 -67.105936 
L 98.209362 -67.477467 
L 98.216796 -67.848998 
L 98.221941 -68.220529 
L 98.225269 -68.59206 
L 98.227246 -68.963591 
L 98.228285 -69.335121 
L 98.228812 -69.706652 
L 98.229363 -70.078183 
L 98.230597 -70.449714 
L 98.233149 -70.821245 
L 98.237381 -71.192776 
L 98.243164 -71.564307 
L 98.249838 -71.935838 
L 98.256386 -72.307369 
L 98.261761 -72.678899 
L 98.265233 -73.05043 
L 98.26661 -73.421961 
L 98.266282 -73.793492 
L 98.265071 -74.165023 
L 98.263957 -74.536554 
L 98.263764 -74.908085 
L 98.307868 -74.908085 
L 98.307868 -74.908085 
L 98.307675 -74.536554 
L 98.306561 -74.165023 
L 98.30535 -73.793492 
L 98.305022 -73.421961 
L 98.306399 -73.05043 
L 98.309871 -72.678899 
L 98.315246 -72.307369 
L 98.321794 -71.935838 
L 98.328468 -71.564307 
L 98.334251 -71.192776 
L 98.338483 -70.821245 
L 98.341035 -70.449714 
L 98.342269 -70.078183 
L 98.34282 -69.706652 
L 98.343347 -69.335121 
L 98.344386 -68.963591 
L 98.346363 -68.59206 
L 98.349691 -68.220529 
L 98.354836 -67.848998 
L 98.36227 -67.477467 
L 98.372329 -67.105936 
L 98.385145 -66.734405 
L 98.400796 -66.362874 
L 98.419718 -65.991343 
L 98.443216 -65.619812 
L 98.473692 -65.248282 
L 98.514266 -64.876751 
L 98.567686 -64.50522 
L 98.634892 -64.133689 
L 98.713942 -63.762158 
L 98.800006 -63.390627 
L 98.886675 -63.019096 
L 98.968126 -62.647565 
L 99.041134 -62.276034 
L 99.105933 -61.904504 
L 99.165491 -61.532973 
L 99.223608 -61.161442 
L 99.282836 -60.789911 
L 99.343232 -60.41838 
L 99.402475 -60.046849 
L 99.457144 -59.675318 
L 99.504486 -59.303787 
L 99.543929 -58.932256 
L 99.577794 -58.560726 
L 99.611065 -58.189195 
L 99.650333 -57.817664 
L 99.702252 -57.446133 
L 99.771937 -57.074602 
L 99.861759 -56.703071 
L 99.970892 -56.33154 
L 100.095683 -55.960009 
L 100.230589 -55.588478 
L 100.369226 -55.216948 
L 100.505196 -54.845417 
L 100.632719 -54.473886 
L 100.747351 -54.102355 
L 100.847054 -53.730824 
L 100.933492 -53.359293 
L 101.012936 -52.987762 
L 101.096131 -52.616231 
L 101.196862 -52.2447 
L 101.329706 -51.873169 
L 101.507906 -51.501639 
L 101.742133 -51.130108 
L 102.04014 -50.758577 
L 102.406504 -50.387046 
L 102.84144 -50.015515 
L 103.338361 -49.643984 
L 103.881028 -49.272453 
L 104.442092 -48.900922 
L 104.984815 -48.529391 
L 105.468586 -48.157861 
L 105.857162 -47.78633 
L 106.127043 -47.414799 
L 106.272974 -47.043268 
L 106.308354 -46.671737 
L 106.260175 -46.300206 
L 106.160092 -45.928675 
L 106.034645 -45.557144 
L 105.897809 -45.185613 
L 105.748096 -44.814083 
L 105.570763 -44.442552 
L 105.344089 -44.071021 
L 105.047496 -43.69949 
L 104.668894 -43.327959 
L 104.208978 -42.956428 
L 103.681344 -42.584897 
L 103.108859 -42.213366 
L 102.518036 -41.841835 
L 101.933691 -41.470304 
L 101.375552 -41.098774 
L 100.857265 -40.727243 
L 100.387178 -40.355712 
L 99.969772 -39.984181 
L 99.606893 -39.61265 
L 99.298427 -39.241119 
L 99.042554 -38.869588 
L 98.835883 -38.498057 
L 98.673687 -38.126526 
z
" style="stroke: #333333; stroke-width: 0.3"/>
    </defs>
    <g clip-path="url(#p5cca857c31)">
     <use xlink:href="#m9aaa001423" x="0" y="131.238387" style="fill: #bf7380; stroke: #333333; stroke-width: 0.3"/>
    </g>
   </g>
   <g id="PolyCollection_4">
    <defs>
     <path id="m8234b070c1" d="M 116.362805 -42.325134 
L 112.298979 -42.325134 
L 112.110672 -42.629066 
L 111.920878 -42.932998 
L 111.730981 -43.236929 
L 111.5422 -43.540861 
L 111.355549 -43.844793 
L 111.171816 -44.148724 
L 110.991548 -44.452656 
L 110.815058 -44.756588 
L 110.642432 -45.06052 
L 110.473557 -45.364451 
L 110.30814 -45.668383 
L 110.145733 -45.972315 
L 109.985767 -46.276246 
L 109.827566 -46.580178 
L 109.670379 -46.88411 
L 109.513398 -47.188042 
L 109.35579 -47.491973 
L 109.196726 -47.795905 
L 109.03542 -48.099837 
L 108.871183 -48.403768 
L 108.703474 -48.7077 
L 108.531967 -49.011632 
L 108.356618 -49.315564 
L 108.177727 -49.619495 
L 107.995989 -49.923427 
L 107.812535 -50.227359 
L 107.628939 -50.53129 
L 107.447203 -50.835222 
L 107.269712 -51.139154 
L 107.099148 -51.443086 
L 106.93839 -51.747017 
L 106.790378 -52.050949 
L 106.657977 -52.354881 
L 106.543831 -52.658812 
L 106.450236 -52.962744 
L 106.379025 -53.266676 
L 106.331493 -53.570608 
L 106.308354 -53.874539 
L 106.309742 -54.178471 
L 106.335247 -54.482403 
L 106.383991 -54.786334 
L 106.454722 -55.090266 
L 106.545927 -55.394198 
L 106.655947 -55.69813 
L 106.783078 -56.002061 
L 106.925662 -56.305993 
L 107.082136 -56.609925 
L 107.25107 -56.913856 
L 107.431157 -57.217788 
L 107.621194 -57.52172 
L 107.820035 -57.825652 
L 108.026541 -58.129583 
L 108.239532 -58.433515 
L 108.457751 -58.737447 
L 108.679839 -59.041378 
L 108.904347 -59.34531 
L 109.129753 -59.649242 
L 109.354512 -59.953174 
L 109.577115 -60.257105 
L 109.796152 -60.561037 
L 110.010377 -60.864969 
L 110.21876 -61.1689 
L 110.420522 -61.472832 
L 110.615153 -61.776764 
L 110.802399 -62.080696 
L 110.982235 -62.384627 
L 111.154818 -62.688559 
L 111.320426 -62.992491 
L 111.4794 -63.296422 
L 111.632075 -63.600354 
L 111.778732 -63.904286 
L 111.919562 -64.208218 
L 112.054636 -64.512149 
L 112.183908 -64.816081 
L 112.307226 -65.120013 
L 112.42436 -65.423944 
L 112.535038 -65.727876 
L 112.638995 -66.031808 
L 112.736015 -66.33574 
L 112.825973 -66.639671 
L 112.908865 -66.943603 
L 112.984836 -67.247535 
L 113.054184 -67.551466 
L 113.117358 -67.855398 
L 113.174944 -68.15933 
L 113.227636 -68.463262 
L 113.276205 -68.767193 
L 113.321457 -69.071125 
L 113.3642 -69.375057 
L 113.405202 -69.678988 
L 113.44516 -69.98292 
L 113.484673 -70.286852 
L 113.524223 -70.590784 
L 113.564168 -70.894715 
L 113.604731 -71.198647 
L 113.646012 -71.502579 
L 113.687993 -71.80651 
L 113.730552 -72.110442 
L 113.77348 -72.414374 
L 114.888305 -72.414374 
L 114.888305 -72.414374 
L 114.931233 -72.110442 
L 114.973791 -71.80651 
L 115.015772 -71.502579 
L 115.057053 -71.198647 
L 115.097617 -70.894715 
L 115.137561 -70.590784 
L 115.177111 -70.286852 
L 115.216624 -69.98292 
L 115.256582 -69.678988 
L 115.297584 -69.375057 
L 115.340327 -69.071125 
L 115.38558 -68.767193 
L 115.434148 -68.463262 
L 115.48684 -68.15933 
L 115.544426 -67.855398 
L 115.6076 -67.551466 
L 115.676948 -67.247535 
L 115.752919 -66.943603 
L 115.835811 -66.639671 
L 115.925769 -66.33574 
L 116.022789 -66.031808 
L 116.126747 -65.727876 
L 116.237425 -65.423944 
L 116.354558 -65.120013 
L 116.477876 -64.816081 
L 116.607148 -64.512149 
L 116.742222 -64.208218 
L 116.883052 -63.904286 
L 117.02971 -63.600354 
L 117.182384 -63.296422 
L 117.341358 -62.992491 
L 117.506967 -62.688559 
L 117.679549 -62.384627 
L 117.859385 -62.080696 
L 118.046631 -61.776764 
L 118.241262 -61.472832 
L 118.443025 -61.1689 
L 118.651407 -60.864969 
L 118.865632 -60.561037 
L 119.084669 -60.257105 
L 119.307272 -59.953174 
L 119.532031 -59.649242 
L 119.757437 -59.34531 
L 119.981945 -59.041378 
L 120.204034 -58.737447 
L 120.422252 -58.433515 
L 120.635243 -58.129583 
L 120.841749 -57.825652 
L 121.04059 -57.52172 
L 121.230627 -57.217788 
L 121.410714 -56.913856 
L 121.579648 -56.609925 
L 121.736123 -56.305993 
L 121.878706 -56.002061 
L 122.005838 -55.69813 
L 122.115857 -55.394198 
L 122.207062 -55.090266 
L 122.277793 -54.786334 
L 122.326537 -54.482403 
L 122.352042 -54.178471 
L 122.35343 -53.874539 
L 122.330291 -53.570608 
L 122.282759 -53.266676 
L 122.211548 -52.962744 
L 122.117953 -52.658812 
L 122.003808 -52.354881 
L 121.871406 -52.050949 
L 121.723394 -51.747017 
L 121.562636 -51.443086 
L 121.392072 -51.139154 
L 121.214581 -50.835222 
L 121.032845 -50.53129 
L 120.849249 -50.227359 
L 120.665795 -49.923427 
L 120.484058 -49.619495 
L 120.305166 -49.315564 
L 120.129818 -49.011632 
L 119.958311 -48.7077 
L 119.790601 -48.403768 
L 119.626364 -48.099837 
L 119.465058 -47.795905 
L 119.305994 -47.491973 
L 119.148386 -47.188042 
L 118.991406 -46.88411 
L 118.834218 -46.580178 
L 118.676018 -46.276246 
L 118.516051 -45.972315 
L 118.353645 -45.668383 
L 118.188227 -45.364451 
L 118.019352 -45.06052 
L 117.846727 -44.756588 
L 117.670236 -44.452656 
L 117.489968 -44.148724 
L 117.306235 -43.844793 
L 117.119585 -43.540861 
L 116.930804 -43.236929 
L 116.740907 -42.932998 
L 116.551113 -42.629066 
L 116.362805 -42.325134 
z
" style="stroke: #333333; stroke-width: 0.3"/>
    </defs>
    <g clip-path="url(#p5cca857c31)">
     <use xlink:href="#m8234b070c1" x="0" y="131.238387" style="fill: #7b2f55; stroke: #333333; stroke-width: 0.3"/>
    </g>
   </g>
   <g id="PolyCollection_5">
    <defs>
     <path id="m62249fef68" d="M 153.727255 -29.463332 
L 139.114834 -29.463332 
L 139.035504 -29.473356 
L 138.960445 -29.48338 
L 138.88977 -29.493404 
L 138.823582 -29.503428 
L 138.761974 -29.513452 
L 138.705028 -29.523476 
L 138.652816 -29.533499 
L 138.605397 -29.543523 
L 138.56282 -29.553547 
L 138.525123 -29.563571 
L 138.49233 -29.573595 
L 138.464455 -29.583619 
L 138.4415 -29.593643 
L 138.423455 -29.603667 
L 138.410298 -29.613691 
L 138.401997 -29.623715 
L 138.398506 -29.633739 
L 138.399771 -29.643763 
L 138.405723 -29.653787 
L 138.416286 -29.66381 
L 138.431371 -29.673834 
L 138.450881 -29.683858 
L 138.474707 -29.693882 
L 138.502732 -29.703906 
L 138.53483 -29.71393 
L 138.570867 -29.723954 
L 138.610701 -29.733978 
L 138.654182 -29.744002 
L 138.701155 -29.754026 
L 138.751455 -29.76405 
L 138.804917 -29.774074 
L 138.861366 -29.784097 
L 138.920625 -29.794121 
L 138.982513 -29.804145 
L 139.046847 -29.814169 
L 139.113441 -29.824193 
L 139.182105 -29.834217 
L 139.252652 -29.844241 
L 139.324891 -29.854265 
L 139.398634 -29.864289 
L 139.473692 -29.874313 
L 139.54988 -29.884337 
L 139.627013 -29.894361 
L 139.70491 -29.904385 
L 139.783393 -29.914408 
L 139.862287 -29.924432 
L 139.941426 -29.934456 
L 140.020643 -29.94448 
L 140.099782 -29.954504 
L 140.17869 -29.964528 
L 140.257222 -29.974552 
L 140.335241 -29.984576 
L 140.412614 -29.9946 
L 140.489221 -30.004624 
L 140.564946 -30.014648 
L 140.639683 -30.024672 
L 140.713334 -30.034696 
L 140.785813 -30.044719 
L 140.857038 -30.054743 
L 140.926942 -30.064767 
L 140.995462 -30.074791 
L 141.062547 -30.084815 
L 141.128157 -30.094839 
L 141.192258 -30.104863 
L 141.254828 -30.114887 
L 141.315851 -30.124911 
L 141.375325 -30.134935 
L 141.433251 -30.144959 
L 141.489643 -30.154983 
L 141.544522 -30.165007 
L 141.597916 -30.17503 
L 141.649861 -30.185054 
L 141.700401 -30.195078 
L 141.749586 -30.205102 
L 141.797474 -30.215126 
L 141.844127 -30.22515 
L 141.889614 -30.235174 
L 141.934007 -30.245198 
L 141.977385 -30.255222 
L 142.019829 -30.265246 
L 142.061425 -30.27527 
L 142.10226 -30.285294 
L 142.142425 -30.295318 
L 142.182011 -30.305341 
L 142.221112 -30.315365 
L 142.25982 -30.325389 
L 142.29823 -30.335413 
L 142.336435 -30.345437 
L 142.374527 -30.355461 
L 142.412597 -30.365485 
L 142.450731 -30.375509 
L 142.489018 -30.385533 
L 142.527539 -30.395557 
L 142.566374 -30.405581 
L 142.605598 -30.415605 
L 142.645283 -30.425628 
L 142.685495 -30.435652 
L 142.726297 -30.445676 
L 142.767745 -30.4557 
L 150.074344 -30.4557 
L 150.074344 -30.4557 
L 150.115792 -30.445676 
L 150.156594 -30.435652 
L 150.196806 -30.425628 
L 150.236491 -30.415605 
L 150.275715 -30.405581 
L 150.31455 -30.395557 
L 150.353071 -30.385533 
L 150.391358 -30.375509 
L 150.429492 -30.365485 
L 150.467562 -30.355461 
L 150.505653 -30.345437 
L 150.543859 -30.335413 
L 150.582269 -30.325389 
L 150.620977 -30.315365 
L 150.660078 -30.305341 
L 150.699664 -30.295318 
L 150.739829 -30.285294 
L 150.780664 -30.27527 
L 150.82226 -30.265246 
L 150.864704 -30.255222 
L 150.908082 -30.245198 
L 150.952475 -30.235174 
L 150.997962 -30.22515 
L 151.044615 -30.215126 
L 151.092503 -30.205102 
L 151.141688 -30.195078 
L 151.192228 -30.185054 
L 151.244173 -30.17503 
L 151.297567 -30.165007 
L 151.352446 -30.154983 
L 151.408838 -30.144959 
L 151.466764 -30.134935 
L 151.526238 -30.124911 
L 151.587261 -30.114887 
L 151.649831 -30.104863 
L 151.713932 -30.094839 
L 151.779542 -30.084815 
L 151.846627 -30.074791 
L 151.915147 -30.064767 
L 151.985051 -30.054743 
L 152.056276 -30.044719 
L 152.128755 -30.034696 
L 152.202406 -30.024672 
L 152.277143 -30.014648 
L 152.352868 -30.004624 
L 152.429475 -29.9946 
L 152.506848 -29.984576 
L 152.584867 -29.974552 
L 152.663399 -29.964528 
L 152.742307 -29.954504 
L 152.821446 -29.94448 
L 152.900663 -29.934456 
L 152.979802 -29.924432 
L 153.058696 -29.914408 
L 153.137179 -29.904385 
L 153.215076 -29.894361 
L 153.292209 -29.884337 
L 153.368397 -29.874313 
L 153.443455 -29.864289 
L 153.517198 -29.854265 
L 153.589437 -29.844241 
L 153.659984 -29.834217 
L 153.728648 -29.824193 
L 153.795242 -29.814169 
L 153.859576 -29.804145 
L 153.921464 -29.794121 
L 153.980723 -29.784097 
L 154.037172 -29.774074 
L 154.090634 -29.76405 
L 154.140934 -29.754026 
L 154.187907 -29.744002 
L 154.231388 -29.733978 
L 154.271222 -29.723954 
L 154.307259 -29.71393 
L 154.339357 -29.703906 
L 154.367382 -29.693882 
L 154.391208 -29.683858 
L 154.410718 -29.673834 
L 154.425803 -29.66381 
L 154.436366 -29.653787 
L 154.442318 -29.643763 
L 154.443583 -29.633739 
L 154.440092 -29.623715 
L 154.431791 -29.613691 
L 154.418634 -29.603667 
L 154.400589 -29.593643 
L 154.377634 -29.583619 
L 154.349759 -29.573595 
L 154.316966 -29.563571 
L 154.279269 -29.553547 
L 154.236692 -29.543523 
L 154.189273 -29.533499 
L 154.137061 -29.523476 
L 154.080115 -29.513452 
L 154.018507 -29.503428 
L 153.952319 -29.493404 
L 153.881644 -29.48338 
L 153.806585 -29.473356 
L 153.727255 -29.463332 
z
" style="stroke: #333333; stroke-width: 0.3"/>
    </defs>
    <g clip-path="url(#p5cca857c31)">
     <use xlink:href="#m62249fef68" x="0" y="131.238387" style="fill: #3c2f7b; stroke: #333333; stroke-width: 0.3"/>
    </g>
   </g>
   <g id="PolyCollection_6">
    <defs>
     <path id="m5a7e732300" d="M 164.709018 -28.289389 
L 160.223223 -28.289389 
L 159.541949 -28.484688 
L 158.775361 -28.679986 
L 157.955232 -28.875285 
L 157.12485 -29.070583 
L 156.334612 -29.265882 
L 155.635709 -29.46118 
L 155.073101 -29.656479 
L 154.679275 -29.851777 
L 154.470094 -30.047076 
L 154.443583 -30.242374 
L 154.581722 -30.437672 
L 154.854671 -30.632971 
L 155.226329 -30.828269 
L 155.660006 -31.023568 
L 156.123118 -31.218866 
L 156.590206 -31.414165 
L 157.04403 -31.609463 
L 157.474956 -31.804762 
L 157.879129 -32.00006 
L 158.256124 -32.195359 
L 158.606695 -32.390657 
L 158.931116 -32.585956 
L 159.228357 -32.781254 
L 159.496076 -32.976553 
L 159.731193 -33.171851 
L 159.930735 -33.36715 
L 160.092605 -33.562448 
L 160.216077 -33.757747 
L 160.301949 -33.953045 
L 160.352445 -34.148344 
L 160.371016 -34.343642 
L 160.362184 -34.538941 
L 160.331459 -34.734239 
L 160.285287 -34.929538 
L 160.230883 -35.124836 
L 160.175843 -35.320135 
L 160.127508 -35.515433 
L 160.092164 -35.710732 
L 160.074285 -35.90603 
L 160.076025 -36.101329 
L 160.097124 -36.296627 
L 160.135263 -36.491926 
L 160.186775 -36.687224 
L 160.247516 -36.882523 
L 160.31367 -37.077821 
L 160.382335 -37.27312 
L 160.451789 -37.468418 
L 160.521456 -37.663717 
L 160.591652 -37.859015 
L 160.663209 -38.054314 
L 160.73709 -38.249612 
L 160.814054 -38.44491 
L 160.89442 -38.640209 
L 160.977957 -38.835507 
L 161.063884 -39.030806 
L 161.15096 -39.226104 
L 161.237648 -39.421403 
L 161.322293 -39.616701 
L 161.403289 -39.812 
L 161.479203 -40.007298 
L 161.548833 -40.202597 
L 161.611208 -40.397895 
L 161.66554 -40.593194 
L 161.711143 -40.788492 
L 161.747369 -40.983791 
L 161.773573 -41.179089 
L 161.789147 -41.374388 
L 161.793625 -41.569686 
L 161.786882 -41.764985 
L 161.769397 -41.960283 
L 161.742541 -42.155582 
L 161.708813 -42.35088 
L 161.671931 -42.546179 
L 161.636667 -42.741477 
L 161.608373 -42.936776 
L 161.592239 -43.132074 
L 161.59239 -43.327373 
L 161.611072 -43.522671 
L 161.648127 -43.71797 
L 161.70094 -43.913268 
L 161.764877 -44.108567 
L 161.834099 -44.303865 
L 161.902532 -44.499164 
L 161.964755 -44.694462 
L 162.016627 -44.889761 
L 162.055614 -45.085059 
L 162.08084 -45.280358 
L 162.092974 -45.475656 
L 162.094033 -45.670955 
L 162.087155 -45.866253 
L 162.076296 -46.061552 
L 162.065841 -46.25685 
L 162.060074 -46.452149 
L 162.062589 -46.647447 
L 162.075718 -46.842745 
L 162.100146 -47.038044 
L 162.134824 -47.233342 
L 162.177217 -47.428641 
L 162.223853 -47.623939 
L 162.708389 -47.623939 
L 162.708389 -47.623939 
L 162.755024 -47.428641 
L 162.797418 -47.233342 
L 162.832095 -47.038044 
L 162.856524 -46.842745 
L 162.869653 -46.647447 
L 162.872167 -46.452149 
L 162.866401 -46.25685 
L 162.855945 -46.061552 
L 162.845087 -45.866253 
L 162.838208 -45.670955 
L 162.839267 -45.475656 
L 162.851401 -45.280358 
L 162.876627 -45.085059 
L 162.915615 -44.889761 
L 162.967487 -44.694462 
L 163.029709 -44.499164 
L 163.098142 -44.303865 
L 163.167364 -44.108567 
L 163.231301 -43.913268 
L 163.284114 -43.71797 
L 163.321169 -43.522671 
L 163.339852 -43.327373 
L 163.340003 -43.132074 
L 163.323868 -42.936776 
L 163.295575 -42.741477 
L 163.26031 -42.546179 
L 163.223429 -42.35088 
L 163.1897 -42.155582 
L 163.162844 -41.960283 
L 163.145359 -41.764985 
L 163.138617 -41.569686 
L 163.143095 -41.374388 
L 163.158668 -41.179089 
L 163.184873 -40.983791 
L 163.221098 -40.788492 
L 163.266701 -40.593194 
L 163.321033 -40.397895 
L 163.383409 -40.202597 
L 163.453038 -40.007298 
L 163.528952 -39.812 
L 163.609948 -39.616701 
L 163.694593 -39.421403 
L 163.781281 -39.226104 
L 163.868358 -39.030806 
L 163.954284 -38.835507 
L 164.037822 -38.640209 
L 164.118188 -38.44491 
L 164.195151 -38.249612 
L 164.269032 -38.054314 
L 164.34059 -37.859015 
L 164.410785 -37.663717 
L 164.480452 -37.468418 
L 164.549906 -37.27312 
L 164.618571 -37.077821 
L 164.684725 -36.882523 
L 164.745466 -36.687224 
L 164.796979 -36.491926 
L 164.835118 -36.296627 
L 164.856216 -36.101329 
L 164.857956 -35.90603 
L 164.840078 -35.710732 
L 164.804734 -35.515433 
L 164.756398 -35.320135 
L 164.701359 -35.124836 
L 164.646954 -34.929538 
L 164.600782 -34.734239 
L 164.570057 -34.538941 
L 164.561225 -34.343642 
L 164.579796 -34.148344 
L 164.630292 -33.953045 
L 164.716164 -33.757747 
L 164.839636 -33.562448 
L 165.001506 -33.36715 
L 165.201048 -33.171851 
L 165.436165 -32.976553 
L 165.703884 -32.781254 
L 166.001125 -32.585956 
L 166.325546 -32.390657 
L 166.676117 -32.195359 
L 167.053113 -32.00006 
L 167.457286 -31.804762 
L 167.888211 -31.609463 
L 168.342035 -31.414165 
L 168.809123 -31.218866 
L 169.272236 -31.023568 
L 169.705913 -30.828269 
L 170.077571 -30.632971 
L 170.35052 -30.437672 
L 170.488659 -30.242374 
L 170.462147 -30.047076 
L 170.252967 -29.851777 
L 169.85914 -29.656479 
L 169.296533 -29.46118 
L 168.597629 -29.265882 
L 167.807392 -29.070583 
L 166.97701 -28.875285 
L 166.15688 -28.679986 
L 165.390292 -28.484688 
L 164.709018 -28.289389 
z
" style="stroke: #333333; stroke-width: 0.3"/>
    </defs>
    <g clip-path="url(#p5cca857c31)">
     <use xlink:href="#m5a7e732300" x="0" y="131.238387" style="fill: #519d91; stroke: #333333; stroke-width: 0.3"/>
    </g>
   </g>
   <g id="PolyCollection_7">
    <defs>
     <path id="m5fa825d3fa" d="M 178.612829 -39.629811 
L 178.409565 -39.629811 
L 178.320746 -40.003478 
L 178.17903 -40.377144 
L 177.971801 -40.750811 
L 177.699726 -41.124478 
L 177.387684 -41.498144 
L 177.082773 -41.871811 
L 176.830713 -42.245478 
L 176.645159 -42.619144 
L 176.497682 -42.992811 
L 176.335008 -43.366478 
L 176.10166 -43.740144 
L 175.751129 -44.113811 
L 175.25156 -44.487478 
L 174.590996 -44.861144 
L 173.776048 -45.234811 
L 172.834707 -45.608477 
L 171.847333 -45.982144 
L 170.985441 -46.355811 
L 170.488659 -46.729477 
L 170.553938 -47.103144 
L 171.211173 -47.476811 
L 172.287081 -47.850477 
L 173.486942 -48.224144 
L 174.536575 -48.597811 
L 175.292411 -48.971477 
L 175.758429 -49.345144 
L 176.021108 -49.718811 
L 176.167798 -50.092477 
L 176.244674 -50.466144 
L 176.263088 -50.839811 
L 176.230427 -51.213477 
L 176.175218 -51.587144 
L 176.145601 -51.96081 
L 176.184013 -52.334477 
L 176.303159 -52.708144 
L 176.483529 -53.08181 
L 176.689218 -53.455477 
L 176.886382 -53.829144 
L 177.053155 -54.20281 
L 177.17971 -54.576477 
L 177.264761 -54.950144 
L 177.314732 -55.32381 
L 177.344673 -55.697477 
L 177.375773 -56.071144 
L 177.42771 -56.44481 
L 177.509841 -56.818477 
L 177.617348 -57.192144 
L 177.735209 -57.56581 
L 177.846903 -57.939477 
L 177.941615 -58.313143 
L 178.016416 -58.68681 
L 178.074738 -59.060477 
L 178.123433 -59.434143 
L 178.168893 -59.80781 
L 178.213573 -60.181477 
L 178.255791 -60.555143 
L 178.292587 -60.92881 
L 178.321733 -61.302477 
L 178.341522 -61.676143 
L 178.35112 -62.04981 
L 178.352489 -62.423477 
L 178.350862 -62.797143 
L 178.352056 -63.17081 
L 178.359131 -63.544477 
L 178.371401 -63.918143 
L 178.385935 -64.29181 
L 178.399747 -64.665476 
L 178.411139 -65.039143 
L 178.419787 -65.41281 
L 178.42617 -65.786476 
L 178.431057 -66.160143 
L 178.435212 -66.53381 
L 178.439199 -66.907476 
L 178.443349 -67.281143 
L 178.447822 -67.65481 
L 178.452745 -68.028476 
L 178.458322 -68.402143 
L 178.464694 -68.77581 
L 178.471476 -69.149476 
L 178.477519 -69.523143 
L 178.481489 -69.89681 
L 178.48292 -70.270476 
L 178.482779 -70.644143 
L 178.482957 -71.017809 
L 178.484948 -71.391476 
L 178.488721 -71.765143 
L 178.492848 -72.138809 
L 178.495853 -72.512476 
L 178.497429 -72.886143 
L 178.498423 -73.259809 
L 178.49988 -73.633476 
L 178.502185 -74.007143 
L 178.50491 -74.380809 
L 178.507255 -74.754476 
L 178.508588 -75.128143 
L 178.508741 -75.501809 
L 178.508037 -75.875476 
L 178.507144 -76.249143 
L 178.506759 -76.622809 
L 178.515634 -76.622809 
L 178.515634 -76.622809 
L 178.515249 -76.249143 
L 178.514356 -75.875476 
L 178.513653 -75.501809 
L 178.513806 -75.128143 
L 178.515139 -74.754476 
L 178.517483 -74.380809 
L 178.520209 -74.007143 
L 178.522514 -73.633476 
L 178.523971 -73.259809 
L 178.524965 -72.886143 
L 178.52654 -72.512476 
L 178.529546 -72.138809 
L 178.533673 -71.765143 
L 178.537446 -71.391476 
L 178.539437 -71.017809 
L 178.539614 -70.644143 
L 178.539473 -70.270476 
L 178.540905 -69.89681 
L 178.544875 -69.523143 
L 178.550918 -69.149476 
L 178.5577 -68.77581 
L 178.564072 -68.402143 
L 178.569648 -68.028476 
L 178.574571 -67.65481 
L 178.579045 -67.281143 
L 178.583194 -66.907476 
L 178.587182 -66.53381 
L 178.591336 -66.160143 
L 178.596224 -65.786476 
L 178.602606 -65.41281 
L 178.611254 -65.039143 
L 178.622646 -64.665476 
L 178.636459 -64.29181 
L 178.650992 -63.918143 
L 178.663262 -63.544477 
L 178.670338 -63.17081 
L 178.671532 -62.797143 
L 178.669904 -62.423477 
L 178.671274 -62.04981 
L 178.680872 -61.676143 
L 178.70066 -61.302477 
L 178.729807 -60.92881 
L 178.766603 -60.555143 
L 178.808821 -60.181477 
L 178.853501 -59.80781 
L 178.898961 -59.434143 
L 178.947655 -59.060477 
L 179.005978 -58.68681 
L 179.080779 -58.313143 
L 179.175491 -57.939477 
L 179.287184 -57.56581 
L 179.405045 -57.192144 
L 179.512553 -56.818477 
L 179.594683 -56.44481 
L 179.64662 -56.071144 
L 179.677721 -55.697477 
L 179.707661 -55.32381 
L 179.757632 -54.950144 
L 179.842684 -54.576477 
L 179.969238 -54.20281 
L 180.136011 -53.829144 
L 180.333175 -53.455477 
L 180.538865 -53.08181 
L 180.719235 -52.708144 
L 180.83838 -52.334477 
L 180.876793 -51.96081 
L 180.847176 -51.587144 
L 180.791966 -51.213477 
L 180.759306 -50.839811 
L 180.77772 -50.466144 
L 180.854595 -50.092477 
L 181.001285 -49.718811 
L 181.263964 -49.345144 
L 181.729983 -48.971477 
L 182.485818 -48.597811 
L 183.535451 -48.224144 
L 184.735313 -47.850477 
L 185.811221 -47.476811 
L 186.468455 -47.103144 
L 186.533735 -46.729477 
L 186.036953 -46.355811 
L 185.175061 -45.982144 
L 184.187687 -45.608477 
L 183.246345 -45.234811 
L 182.431397 -44.861144 
L 181.770833 -44.487478 
L 181.271265 -44.113811 
L 180.920734 -43.740144 
L 180.687385 -43.366478 
L 180.524712 -42.992811 
L 180.377235 -42.619144 
L 180.191681 -42.245478 
L 179.939621 -41.871811 
L 179.634709 -41.498144 
L 179.322667 -41.124478 
L 179.050593 -40.750811 
L 178.843364 -40.377144 
L 178.701648 -40.003478 
L 178.612829 -39.629811 
z
" style="stroke: #333333; stroke-width: 0.3"/>
    </defs>
    <g clip-path="url(#p5cca857c31)">
     <use xlink:href="#m5fa825d3fa" x="0" y="131.238387" style="fill: #bf7380; stroke: #333333; stroke-width: 0.3"/>
    </g>
   </g>
   <g id="PolyCollection_8">
    <defs>
     <path id="mb1086cd066" d="M 196.783012 -56.41913 
L 192.329534 -56.41913 
L 192.217343 -56.580497 
L 192.107511 -56.741864 
L 192.000693 -56.903231 
L 191.897508 -57.064598 
L 191.798521 -57.225964 
L 191.704234 -57.387331 
L 191.615072 -57.548698 
L 191.531374 -57.710065 
L 191.453385 -57.871432 
L 191.381245 -58.032798 
L 191.314986 -58.194165 
L 191.25453 -58.355532 
L 191.199681 -58.516899 
L 191.150133 -58.678266 
L 191.10547 -58.839632 
L 191.065169 -59.000999 
L 191.028613 -59.162366 
L 190.995098 -59.323733 
L 190.963846 -59.4851 
L 190.934018 -59.646466 
L 190.904733 -59.807833 
L 190.875085 -59.9692 
L 190.844158 -60.130567 
L 190.811048 -60.291934 
L 190.774885 -60.4533 
L 190.734847 -60.614667 
L 190.690184 -60.776034 
L 190.640231 -60.937401 
L 190.584432 -61.098767 
L 190.522344 -61.260134 
L 190.453659 -61.421501 
L 190.378207 -61.582868 
L 190.295965 -61.744235 
L 190.207062 -61.905601 
L 190.111773 -62.066968 
L 190.010519 -62.228335 
L 189.903857 -62.389702 
L 189.792473 -62.551069 
L 189.677156 -62.712435 
L 189.558794 -62.873802 
L 189.438338 -63.035169 
L 189.316789 -63.196536 
L 189.195167 -63.357903 
L 189.074486 -63.519269 
L 188.955725 -63.680636 
L 188.839802 -63.842003 
L 188.727549 -64.00337 
L 188.619689 -64.164737 
L 188.51681 -64.326103 
L 188.419356 -64.48747 
L 188.327607 -64.648837 
L 188.241675 -64.810204 
L 188.161502 -64.971571 
L 188.08686 -65.132937 
L 188.017363 -65.294304 
L 187.952478 -65.455671 
L 187.891548 -65.617038 
L 187.833816 -65.778404 
L 187.778453 -65.939771 
L 187.724588 -66.101138 
L 187.671348 -66.262505 
L 187.61789 -66.423872 
L 187.563434 -66.585238 
L 187.507307 -66.746605 
L 187.448965 -66.907972 
L 187.388032 -67.069339 
L 187.324317 -67.230706 
L 187.25784 -67.392072 
L 187.188843 -67.553439 
L 187.117798 -67.714806 
L 187.045404 -67.876173 
L 186.972589 -68.03754 
L 186.900485 -68.198906 
L 186.830419 -68.360273 
L 186.763877 -68.52164 
L 186.70248 -68.683007 
L 186.647942 -68.844374 
L 186.602034 -69.00574 
L 186.56654 -69.167107 
L 186.543213 -69.328474 
L 186.533735 -69.489841 
L 186.539669 -69.651208 
L 186.562426 -69.812574 
L 186.603223 -69.973941 
L 186.663053 -70.135308 
L 186.742661 -70.296675 
L 186.84252 -70.458041 
L 186.962816 -70.619408 
L 187.103447 -70.780775 
L 187.264012 -70.942142 
L 187.443828 -71.103509 
L 187.641934 -71.264875 
L 187.857116 -71.426242 
L 188.087926 -71.587609 
L 188.332714 -71.748976 
L 188.589661 -71.910343 
L 188.856811 -72.071709 
L 189.13211 -72.233076 
L 189.413447 -72.394443 
L 199.699098 -72.394443 
L 199.699098 -72.394443 
L 199.980436 -72.233076 
L 200.255735 -72.071709 
L 200.522885 -71.910343 
L 200.779832 -71.748976 
L 201.02462 -71.587609 
L 201.25543 -71.426242 
L 201.470612 -71.264875 
L 201.668718 -71.103509 
L 201.848534 -70.942142 
L 202.009099 -70.780775 
L 202.14973 -70.619408 
L 202.270026 -70.458041 
L 202.369885 -70.296675 
L 202.449493 -70.135308 
L 202.509323 -69.973941 
L 202.55012 -69.812574 
L 202.572877 -69.651208 
L 202.578811 -69.489841 
L 202.569333 -69.328474 
L 202.546006 -69.167107 
L 202.510512 -69.00574 
L 202.464604 -68.844374 
L 202.410066 -68.683007 
L 202.348669 -68.52164 
L 202.282127 -68.360273 
L 202.212061 -68.198906 
L 202.139957 -68.03754 
L 202.067142 -67.876173 
L 201.994748 -67.714806 
L 201.923703 -67.553439 
L 201.854706 -67.392072 
L 201.788229 -67.230706 
L 201.724514 -67.069339 
L 201.663581 -66.907972 
L 201.605239 -66.746605 
L 201.549112 -66.585238 
L 201.494656 -66.423872 
L 201.441198 -66.262505 
L 201.387958 -66.101138 
L 201.334093 -65.939771 
L 201.27873 -65.778404 
L 201.220998 -65.617038 
L 201.160068 -65.455671 
L 201.095183 -65.294304 
L 201.025686 -65.132937 
L 200.951044 -64.971571 
L 200.870871 -64.810204 
L 200.784939 -64.648837 
L 200.69319 -64.48747 
L 200.595736 -64.326103 
L 200.492857 -64.164737 
L 200.384997 -64.00337 
L 200.272744 -63.842003 
L 200.156821 -63.680636 
L 200.03806 -63.519269 
L 199.917379 -63.357903 
L 199.795757 -63.196536 
L 199.674208 -63.035169 
L 199.553752 -62.873802 
L 199.435389 -62.712435 
L 199.320073 -62.551069 
L 199.208688 -62.389702 
L 199.102027 -62.228335 
L 199.000773 -62.066968 
L 198.905484 -61.905601 
L 198.816581 -61.744235 
L 198.734339 -61.582868 
L 198.658887 -61.421501 
L 198.590202 -61.260134 
L 198.528114 -61.098767 
L 198.472315 -60.937401 
L 198.422362 -60.776034 
L 198.377699 -60.614667 
L 198.337661 -60.4533 
L 198.301498 -60.291934 
L 198.268388 -60.130567 
L 198.237461 -59.9692 
L 198.207813 -59.807833 
L 198.178528 -59.646466 
L 198.1487 -59.4851 
L 198.117448 -59.323733 
L 198.083933 -59.162366 
L 198.047377 -59.000999 
L 198.007076 -58.839632 
L 197.962413 -58.678266 
L 197.912865 -58.516899 
L 197.858016 -58.355532 
L 197.79756 -58.194165 
L 197.731301 -58.032798 
L 197.659161 -57.871432 
L 197.581172 -57.710065 
L 197.497474 -57.548698 
L 197.408312 -57.387331 
L 197.314025 -57.225964 
L 197.215038 -57.064598 
L 197.111853 -56.903231 
L 197.005035 -56.741864 
L 196.895202 -56.580497 
L 196.783012 -56.41913 
z
" style="stroke: #333333; stroke-width: 0.3"/>
    </defs>
    <g clip-path="url(#p5cca857c31)">
     <use xlink:href="#mb1086cd066" x="0" y="131.238387" style="fill: #7b2f55; stroke: #333333; stroke-width: 0.3"/>
    </g>
   </g>
   <g id="PolyCollection_9">
    <defs>
     <path id="mf3e5616a95" d="M 247.440181 -28.383415 
L 237.942822 -28.383415 
L 237.559667 -28.453839 
L 237.181375 -28.524263 
L 236.813059 -28.594687 
L 236.459904 -28.665111 
L 236.12702 -28.735535 
L 235.819296 -28.805959 
L 235.54125 -28.876383 
L 235.296884 -28.946808 
L 235.089557 -29.017232 
L 234.921868 -29.087656 
L 234.795574 -29.15808 
L 234.711527 -29.228504 
L 234.669656 -29.298928 
L 234.668963 -29.369352 
L 234.707579 -29.439776 
L 234.782828 -29.5102 
L 234.891335 -29.580624 
L 235.029153 -29.651048 
L 235.191911 -29.721472 
L 235.374966 -29.791896 
L 235.573572 -29.86232 
L 235.783029 -29.932744 
L 235.998839 -30.003168 
L 236.216835 -30.073592 
L 236.43329 -30.144016 
L 236.645007 -30.21444 
L 236.849374 -30.284864 
L 237.044399 -30.355288 
L 237.228708 -30.425712 
L 237.401533 -30.496136 
L 237.562658 -30.56656 
L 237.712366 -30.636984 
L 237.851359 -30.707408 
L 237.980676 -30.777832 
L 238.101603 -30.848256 
L 238.215584 -30.91868 
L 238.324139 -30.989104 
L 238.428784 -31.059528 
L 238.530965 -31.129952 
L 238.632002 -31.200376 
L 238.733047 -31.2708 
L 238.835053 -31.341224 
L 238.938756 -31.411649 
L 239.044671 -31.482073 
L 239.153094 -31.552497 
L 239.264118 -31.622921 
L 239.377649 -31.693345 
L 239.493434 -31.763769 
L 239.611086 -31.834193 
L 239.730122 -31.904617 
L 239.849984 -31.975041 
L 239.970077 -32.045465 
L 240.089794 -32.115889 
L 240.208544 -32.186313 
L 240.325771 -32.256737 
L 240.440977 -32.327161 
L 240.553733 -32.397585 
L 240.663688 -32.468009 
L 240.770575 -32.538433 
L 240.87421 -32.608857 
L 240.974484 -32.679281 
L 241.071358 -32.749705 
L 241.164846 -32.820129 
L 241.255 -32.890553 
L 241.341893 -32.960977 
L 241.425599 -33.031401 
L 241.506177 -33.101825 
L 241.583653 -33.172249 
L 241.658007 -33.242673 
L 241.729167 -33.313097 
L 241.796996 -33.383521 
L 241.861301 -33.453945 
L 241.92183 -33.524369 
L 241.978288 -33.594793 
L 242.030346 -33.665217 
L 242.07766 -33.735641 
L 242.119893 -33.806066 
L 242.156735 -33.87649 
L 242.187926 -33.946914 
L 242.213277 -34.017338 
L 242.232692 -34.087762 
L 242.246182 -34.158186 
L 242.253877 -34.22861 
L 242.25604 -34.299034 
L 242.253061 -34.369458 
L 242.245465 -34.439882 
L 242.233892 -34.510306 
L 242.219091 -34.58073 
L 242.2019 -34.651154 
L 242.183216 -34.721578 
L 242.163975 -34.792002 
L 242.145118 -34.862426 
L 242.127559 -34.93285 
L 242.112157 -35.003274 
L 242.099685 -35.073698 
L 242.090806 -35.144122 
L 242.086047 -35.214546 
L 242.085788 -35.28497 
L 242.090249 -35.355394 
L 243.292754 -35.355394 
L 243.292754 -35.355394 
L 243.297215 -35.28497 
L 243.296956 -35.214546 
L 243.292197 -35.144122 
L 243.283317 -35.073698 
L 243.270846 -35.003274 
L 243.255444 -34.93285 
L 243.237885 -34.862426 
L 243.219028 -34.792002 
L 243.199787 -34.721578 
L 243.181103 -34.651154 
L 243.163912 -34.58073 
L 243.149111 -34.510306 
L 243.137538 -34.439882 
L 243.129942 -34.369458 
L 243.126963 -34.299034 
L 243.129126 -34.22861 
L 243.136821 -34.158186 
L 243.15031 -34.087762 
L 243.169726 -34.017338 
L 243.195077 -33.946914 
L 243.226268 -33.87649 
L 243.26311 -33.806066 
L 243.305343 -33.735641 
L 243.352657 -33.665217 
L 243.404715 -33.594793 
L 243.461173 -33.524369 
L 243.521702 -33.453945 
L 243.586007 -33.383521 
L 243.653836 -33.313097 
L 243.724996 -33.242673 
L 243.79935 -33.172249 
L 243.876826 -33.101825 
L 243.957404 -33.031401 
L 244.04111 -32.960977 
L 244.128003 -32.890553 
L 244.218157 -32.820129 
L 244.311645 -32.749705 
L 244.408519 -32.679281 
L 244.508793 -32.608857 
L 244.612428 -32.538433 
L 244.719315 -32.468009 
L 244.82927 -32.397585 
L 244.942026 -32.327161 
L 245.057232 -32.256737 
L 245.174459 -32.186313 
L 245.293209 -32.115889 
L 245.412926 -32.045465 
L 245.533019 -31.975041 
L 245.652881 -31.904617 
L 245.771917 -31.834193 
L 245.889569 -31.763769 
L 246.005354 -31.693345 
L 246.118885 -31.622921 
L 246.229909 -31.552497 
L 246.338332 -31.482073 
L 246.444247 -31.411649 
L 246.54795 -31.341224 
L 246.649956 -31.2708 
L 246.751001 -31.200376 
L 246.852038 -31.129952 
L 246.954219 -31.059528 
L 247.058864 -30.989104 
L 247.167419 -30.91868 
L 247.2814 -30.848256 
L 247.402327 -30.777832 
L 247.531644 -30.707408 
L 247.670637 -30.636984 
L 247.820345 -30.56656 
L 247.98147 -30.496136 
L 248.154295 -30.425712 
L 248.338604 -30.355288 
L 248.533629 -30.284864 
L 248.737996 -30.21444 
L 248.949713 -30.144016 
L 249.166168 -30.073592 
L 249.384164 -30.003168 
L 249.599974 -29.932744 
L 249.809431 -29.86232 
L 250.008037 -29.791896 
L 250.191092 -29.721472 
L 250.35385 -29.651048 
L 250.491668 -29.580624 
L 250.600175 -29.5102 
L 250.675424 -29.439776 
L 250.71404 -29.369352 
L 250.713347 -29.298928 
L 250.671475 -29.228504 
L 250.587429 -29.15808 
L 250.461135 -29.087656 
L 250.293446 -29.017232 
L 250.086119 -28.946808 
L 249.841753 -28.876383 
L 249.563707 -28.805959 
L 249.255983 -28.735535 
L 248.923099 -28.665111 
L 248.569944 -28.594687 
L 248.201628 -28.524263 
L 247.823336 -28.453839 
L 247.440181 -28.383415 
z
" style="stroke: #333333; stroke-width: 0.3"/>
    </defs>
    <g clip-path="url(#p5cca857c31)">
     <use xlink:href="#mf3e5616a95" x="0" y="131.238387" style="fill: #519d91; stroke: #333333; stroke-width: 0.3"/>
    </g>
   </g>
   <g id="PolyCollection_10">
    <defs>
     <path id="m63c0064139" d="M 263.760823 -28.305652 
L 253.712332 -28.305652 
L 253.621757 -28.38001 
L 253.537025 -28.454368 
L 253.458429 -28.528725 
L 253.386239 -28.603083 
L 253.320693 -28.677441 
L 253.262002 -28.751798 
L 253.210343 -28.826156 
L 253.165864 -28.900514 
L 253.128676 -28.974871 
L 253.098858 -29.049229 
L 253.076451 -29.123587 
L 253.061461 -29.197945 
L 253.053859 -29.272302 
L 253.053578 -29.34666 
L 253.060515 -29.421018 
L 253.074533 -29.495375 
L 253.095456 -29.569733 
L 253.123077 -29.644091 
L 253.157153 -29.718448 
L 253.197409 -29.792806 
L 253.243539 -29.867164 
L 253.295204 -29.941522 
L 253.35204 -30.015879 
L 253.413654 -30.090237 
L 253.479626 -30.164595 
L 253.549514 -30.238952 
L 253.622854 -30.31331 
L 253.699163 -30.387668 
L 253.777937 -30.462025 
L 253.858659 -30.536383 
L 253.940798 -30.610741 
L 254.023811 -30.685099 
L 254.107146 -30.759456 
L 254.190243 -30.833814 
L 254.272541 -30.908172 
L 254.353473 -30.982529 
L 254.432476 -31.056887 
L 254.508986 -31.131245 
L 254.582447 -31.205602 
L 254.652312 -31.27996 
L 254.718043 -31.354318 
L 254.779115 -31.428675 
L 254.835019 -31.503033 
L 254.885267 -31.577391 
L 254.929391 -31.651749 
L 254.966946 -31.726106 
L 254.997515 -31.800464 
L 255.020712 -31.874822 
L 255.036182 -31.949179 
L 255.043604 -32.023537 
L 255.042698 -32.097895 
L 255.033222 -32.172252 
L 255.014977 -32.24661 
L 254.987808 -32.320968 
L 254.951611 -32.395326 
L 254.906327 -32.469683 
L 254.851951 -32.544041 
L 254.788529 -32.618399 
L 254.716163 -32.692756 
L 254.635007 -32.767114 
L 254.545275 -32.841472 
L 254.447234 -32.915829 
L 254.341209 -32.990187 
L 254.227579 -33.064545 
L 254.106782 -33.138902 
L 253.979307 -33.21326 
L 253.845697 -33.287618 
L 253.706544 -33.361976 
L 253.562491 -33.436333 
L 253.414223 -33.510691 
L 253.262468 -33.585049 
L 253.107994 -33.659406 
L 252.951601 -33.733764 
L 252.794117 -33.808122 
L 252.636397 -33.882479 
L 252.479314 -33.956837 
L 252.323754 -34.031195 
L 252.170611 -34.105553 
L 252.020781 -34.17991 
L 251.875156 -34.254268 
L 251.734615 -34.328626 
L 251.600023 -34.402983 
L 251.47222 -34.477341 
L 251.352017 -34.551699 
L 251.240188 -34.626056 
L 251.137468 -34.700414 
L 251.044544 -34.774772 
L 250.962052 -34.849129 
L 250.890568 -34.923487 
L 250.830611 -34.997845 
L 250.782632 -35.072203 
L 250.747015 -35.14656 
L 250.724071 -35.220918 
L 250.71404 -35.295276 
L 250.717085 -35.369633 
L 250.733294 -35.443991 
L 250.76268 -35.518349 
L 250.805178 -35.592706 
L 250.860651 -35.667064 
L 266.612504 -35.667064 
L 266.612504 -35.667064 
L 266.667977 -35.592706 
L 266.710475 -35.518349 
L 266.739861 -35.443991 
L 266.756071 -35.369633 
L 266.759116 -35.295276 
L 266.749085 -35.220918 
L 266.726141 -35.14656 
L 266.690523 -35.072203 
L 266.642544 -34.997845 
L 266.582587 -34.923487 
L 266.511104 -34.849129 
L 266.428611 -34.774772 
L 266.335687 -34.700414 
L 266.232967 -34.626056 
L 266.121139 -34.551699 
L 266.000935 -34.477341 
L 265.873132 -34.402983 
L 265.73854 -34.328626 
L 265.598 -34.254268 
L 265.452374 -34.17991 
L 265.302545 -34.105553 
L 265.149402 -34.031195 
L 264.993842 -33.956837 
L 264.836758 -33.882479 
L 264.679038 -33.808122 
L 264.521555 -33.733764 
L 264.365161 -33.659406 
L 264.210687 -33.585049 
L 264.058933 -33.510691 
L 263.910665 -33.436333 
L 263.766611 -33.361976 
L 263.627459 -33.287618 
L 263.493848 -33.21326 
L 263.366373 -33.138902 
L 263.245576 -33.064545 
L 263.131947 -32.990187 
L 263.025921 -32.915829 
L 262.92788 -32.841472 
L 262.838148 -32.767114 
L 262.756993 -32.692756 
L 262.684626 -32.618399 
L 262.621205 -32.544041 
L 262.566828 -32.469683 
L 262.521545 -32.395326 
L 262.485347 -32.320968 
L 262.458179 -32.24661 
L 262.439933 -32.172252 
L 262.430457 -32.097895 
L 262.429551 -32.023537 
L 262.436974 -31.949179 
L 262.452443 -31.874822 
L 262.47564 -31.800464 
L 262.50621 -31.726106 
L 262.543765 -31.651749 
L 262.587888 -31.577391 
L 262.638136 -31.503033 
L 262.694041 -31.428675 
L 262.755113 -31.354318 
L 262.820843 -31.27996 
L 262.890708 -31.205602 
L 262.96417 -31.131245 
L 263.04068 -31.056887 
L 263.119682 -30.982529 
L 263.200614 -30.908172 
L 263.282912 -30.833814 
L 263.36601 -30.759456 
L 263.449344 -30.685099 
L 263.532357 -30.610741 
L 263.614496 -30.536383 
L 263.695218 -30.462025 
L 263.773993 -30.387668 
L 263.850301 -30.31331 
L 263.923641 -30.238952 
L 263.99353 -30.164595 
L 264.059502 -30.090237 
L 264.121115 -30.015879 
L 264.177951 -29.941522 
L 264.229617 -29.867164 
L 264.275746 -29.792806 
L 264.316002 -29.718448 
L 264.350078 -29.644091 
L 264.377699 -29.569733 
L 264.398623 -29.495375 
L 264.41264 -29.421018 
L 264.419577 -29.34666 
L 264.419296 -29.272302 
L 264.411694 -29.197945 
L 264.396704 -29.123587 
L 264.374297 -29.049229 
L 264.344479 -28.974871 
L 264.307291 -28.900514 
L 264.262812 -28.826156 
L 264.211154 -28.751798 
L 264.152462 -28.677441 
L 264.086916 -28.603083 
L 264.014726 -28.528725 
L 263.936131 -28.454368 
L 263.851399 -28.38001 
L 263.760823 -28.305652 
z
" style="stroke: #333333; stroke-width: 0.3"/>
    </defs>
    <g clip-path="url(#p5cca857c31)">
     <use xlink:href="#m63c0064139" x="0" y="131.238387" style="fill: #bf7380; stroke: #333333; stroke-width: 0.3"/>
    </g>
   </g>
   <g id="PolyCollection_11">
    <defs>
     <path id="m1de3cdd40a" d="M 275.021153 -28.717849 
L 274.542155 -28.717849 
L 274.518832 -28.793855 
L 274.496305 -28.86986 
L 274.474569 -28.945866 
L 274.453503 -29.021871 
L 274.432914 -29.097876 
L 274.412599 -29.173882 
L 274.392384 -29.249887 
L 274.372159 -29.325893 
L 274.351873 -29.401898 
L 274.331504 -29.477904 
L 274.311002 -29.553909 
L 274.290209 -29.629914 
L 274.268767 -29.70592 
L 274.246042 -29.781925 
L 274.221047 -29.857931 
L 274.192399 -29.933936 
L 274.158309 -30.009941 
L 274.11661 -30.085947 
L 274.064831 -30.161952 
L 274.000319 -30.237958 
L 273.920411 -30.313963 
L 273.822653 -30.389968 
L 273.705048 -30.465974 
L 273.566338 -30.541979 
L 273.406263 -30.617985 
L 273.225806 -30.69399 
L 273.027349 -30.769996 
L 272.814739 -30.846001 
L 272.593208 -30.922006 
L 272.369142 -30.998012 
L 272.149693 -31.074017 
L 271.942251 -31.150023 
L 271.753835 -31.226028 
L 271.590455 -31.302033 
L 271.456547 -31.378039 
L 271.354535 -31.454044 
L 271.284619 -31.53005 
L 271.244792 -31.606055 
L 271.231101 -31.682061 
L 271.238107 -31.758066 
L 271.259448 -31.834071 
L 271.288425 -31.910077 
L 271.318498 -31.986082 
L 271.343641 -32.062088 
L 271.358494 -32.138093 
L 271.358351 -32.214098 
L 271.339017 -32.290104 
L 271.296633 -32.366109 
L 271.227557 -32.442115 
L 271.128388 -32.51812 
L 270.996196 -32.594125 
L 270.828948 -32.670131 
L 270.626106 -32.746136 
L 270.38928 -32.822142 
L 270.122823 -32.898147 
L 269.834208 -32.974153 
L 269.534064 -33.050158 
L 269.235786 -33.126163 
L 268.954701 -33.202169 
L 268.706834 -33.278174 
L 268.507432 -33.35418 
L 268.369412 -33.430185 
L 268.301948 -33.50619 
L 268.309404 -33.582196 
L 268.390745 -33.658201 
L 268.539508 -33.734207 
L 268.744319 -33.810212 
L 268.989867 -33.886217 
L 269.258192 -33.962223 
L 269.53011 -34.038228 
L 269.78661 -34.114234 
L 270.010078 -34.190239 
L 270.18526 -34.266245 
L 270.299922 -34.34225 
L 270.345233 -34.418255 
L 270.31591 -34.494261 
L 270.210232 -34.570266 
L 270.02997 -34.646272 
L 269.780328 -34.722277 
L 269.469911 -34.798282 
L 269.110689 -34.874288 
L 268.717919 -34.950293 
L 268.309911 -35.026299 
L 267.907545 -35.102304 
L 267.533445 -35.17831 
L 267.210798 -35.254315 
L 266.961846 -35.33032 
L 266.806195 -35.406326 
L 266.759116 -35.482331 
L 266.830092 -35.558337 
L 267.021826 -35.634342 
L 267.329872 -35.710347 
L 267.742987 -35.786353 
L 268.244148 -35.862358 
L 268.812119 -35.938364 
L 269.423335 -36.014369 
L 270.053862 -36.090374 
L 270.681197 -36.16638 
L 271.285711 -36.242385 
L 278.277597 -36.242385 
L 278.277597 -36.242385 
L 278.88211 -36.16638 
L 279.509446 -36.090374 
L 280.139973 -36.014369 
L 280.751188 -35.938364 
L 281.31916 -35.862358 
L 281.820321 -35.786353 
L 282.233436 -35.710347 
L 282.541482 -35.634342 
L 282.733216 -35.558337 
L 282.804192 -35.482331 
L 282.757112 -35.406326 
L 282.601461 -35.33032 
L 282.35251 -35.254315 
L 282.029863 -35.17831 
L 281.655763 -35.102304 
L 281.253396 -35.026299 
L 280.845389 -34.950293 
L 280.452619 -34.874288 
L 280.093397 -34.798282 
L 279.782979 -34.722277 
L 279.533338 -34.646272 
L 279.353076 -34.570266 
L 279.247397 -34.494261 
L 279.218075 -34.418255 
L 279.263385 -34.34225 
L 279.378048 -34.266245 
L 279.553229 -34.190239 
L 279.776698 -34.114234 
L 280.033198 -34.038228 
L 280.305116 -33.962223 
L 280.573441 -33.886217 
L 280.818989 -33.810212 
L 281.0238 -33.734207 
L 281.172563 -33.658201 
L 281.253904 -33.582196 
L 281.26136 -33.50619 
L 281.193896 -33.430185 
L 281.055876 -33.35418 
L 280.856474 -33.278174 
L 280.608607 -33.202169 
L 280.327521 -33.126163 
L 280.029244 -33.050158 
L 279.7291 -32.974153 
L 279.440484 -32.898147 
L 279.174028 -32.822142 
L 278.937202 -32.746136 
L 278.73436 -32.670131 
L 278.567112 -32.594125 
L 278.434919 -32.51812 
L 278.335751 -32.442115 
L 278.266674 -32.366109 
L 278.22429 -32.290104 
L 278.204957 -32.214098 
L 278.204814 -32.138093 
L 278.219667 -32.062088 
L 278.24481 -31.986082 
L 278.274883 -31.910077 
L 278.303859 -31.834071 
L 278.325201 -31.758066 
L 278.332207 -31.682061 
L 278.318516 -31.606055 
L 278.278688 -31.53005 
L 278.208772 -31.454044 
L 278.106761 -31.378039 
L 277.972852 -31.302033 
L 277.809473 -31.226028 
L 277.621056 -31.150023 
L 277.413615 -31.074017 
L 277.194165 -30.998012 
L 276.9701 -30.922006 
L 276.748569 -30.846001 
L 276.535959 -30.769996 
L 276.337502 -30.69399 
L 276.157044 -30.617985 
L 275.99697 -30.541979 
L 275.858259 -30.465974 
L 275.740655 -30.389968 
L 275.642896 -30.313963 
L 275.562989 -30.237958 
L 275.498476 -30.161952 
L 275.446697 -30.085947 
L 275.404998 -30.009941 
L 275.370909 -29.933936 
L 275.34226 -29.857931 
L 275.317265 -29.781925 
L 275.29454 -29.70592 
L 275.273099 -29.629914 
L 275.252305 -29.553909 
L 275.231803 -29.477904 
L 275.211435 -29.401898 
L 275.191148 -29.325893 
L 275.170923 -29.249887 
L 275.150709 -29.173882 
L 275.130394 -29.097876 
L 275.109805 -29.021871 
L 275.088738 -28.945866 
L 275.067002 -28.86986 
L 275.044476 -28.793855 
L 275.021153 -28.717849 
z
" style="stroke: #333333; stroke-width: 0.3"/>
    </defs>
    <g clip-path="url(#p5cca857c31)">
     <use xlink:href="#m1de3cdd40a" x="0" y="131.238387" style="fill: #7b2f55; stroke: #333333; stroke-width: 0.3"/>
    </g>
   </g>
   <g id="patch_3">
    <path d="M 90.263278 103.248267 
L 90.263278 103.248267 
L 90.263278 103.248267 
L 90.263278 103.248267 
z
" clip-path="url(#p5cca857c31)" style="fill: #3c2f7b; stroke: #333333; stroke-width: 0.3; stroke-linejoin: miter"/>
   </g>
   <g id="patch_4">
    <path d="M 90.263278 103.248267 
L 90.263278 103.248267 
L 90.263278 103.248267 
L 90.263278 103.248267 
z
" clip-path="url(#p5cca857c31)" style="fill: #519d91; stroke: #333333; stroke-width: 0.3; stroke-linejoin: miter"/>
   </g>
   <g id="patch_5">
    <path d="M 90.263278 103.248267 
L 90.263278 103.248267 
L 90.263278 103.248267 
L 90.263278 103.248267 
z
" clip-path="url(#p5cca857c31)" style="fill: #bf7380; stroke: #333333; stroke-width: 0.3; stroke-linejoin: miter"/>
   </g>
   <g id="patch_6">
    <path d="M 90.263278 103.248267 
L 90.263278 103.248267 
L 90.263278 103.248267 
L 90.263278 103.248267 
z
" clip-path="url(#p5cca857c31)" style="fill: #7b2f55; stroke: #333333; stroke-width: 0.3; stroke-linejoin: miter"/>
   </g>
   <g id="line2d_1">
    <path d="M 66.195664 101.714508 
L 66.195664 101.075503 
" clip-path="url(#p5cca857c31)" style="fill: none; stroke: #b2b2b2; stroke-width: 1.666667; stroke-linecap: round"/>
   </g>
   <g id="line2d_2">
    <path d="M 66.195664 101.554757 
L 66.195664 101.235254 
" clip-path="url(#p5cca857c31)" style="fill: none; stroke: #b2b2b2; stroke-width: 5; stroke-linecap: round"/>
   </g>
   <g id="line2d_3">
    <path d="M 66.195664 101.395005 
" clip-path="url(#p5cca857c31)" style="fill: none; stroke: #333333; stroke-width: 1.2; stroke-linecap: round"/>
    <defs>
     <path id="m78e61963d9" d="M 2.083333 0 
L -2.083333 -0 
" style="stroke: #ffffff"/>
    </defs>
    <g clip-path="url(#p5cca857c31)">
     <use xlink:href="#m78e61963d9" x="66.195664" y="101.395005" style="fill: #ffffff; stroke: #ffffff"/>
    </g>
   </g>
   <g id="line2d_4">
    <path d="M 82.24074 102.953587 
L 82.24074 90.598238 
" clip-path="url(#p5cca857c31)" style="fill: none; stroke: #b2b2b2; stroke-width: 1.666667; stroke-linecap: round"/>
   </g>
   <g id="line2d_5">
    <path d="M 82.24074 100.663639 
L 82.24074 96.633146 
" clip-path="url(#p5cca857c31)" style="fill: none; stroke: #b2b2b2; stroke-width: 5; stroke-linecap: round"/>
   </g>
   <g id="line2d_6">
    <path d="M 82.24074 98.810598 
" clip-path="url(#p5cca857c31)" style="fill: none; stroke: #333333; stroke-width: 1.2; stroke-linecap: round"/>
    <g clip-path="url(#p5cca857c31)">
     <use xlink:href="#m78e61963d9" x="82.24074" y="98.810598" style="fill: #ffffff; stroke: #ffffff"/>
    </g>
   </g>
   <g id="line2d_7">
    <path d="M 98.285816 93.111861 
L 98.285816 70.568706 
" clip-path="url(#p5cca857c31)" style="fill: none; stroke: #b2b2b2; stroke-width: 1.666667; stroke-linecap: round"/>
   </g>
   <g id="line2d_8">
    <path d="M 98.285816 86.874983 
L 98.285816 80.346561 
" clip-path="url(#p5cca857c31)" style="fill: none; stroke: #b2b2b2; stroke-width: 5; stroke-linecap: round"/>
   </g>
   <g id="line2d_9">
    <path d="M 98.285816 84.036877 
" clip-path="url(#p5cca857c31)" style="fill: none; stroke: #333333; stroke-width: 1.2; stroke-linecap: round"/>
    <g clip-path="url(#p5cca857c31)">
     <use xlink:href="#m78e61963d9" x="98.285816" y="84.036877" style="fill: #ffffff; stroke: #ffffff"/>
    </g>
   </g>
   <g id="line2d_10">
    <path d="M 114.330892 88.913253 
L 114.330892 61.717317 
" clip-path="url(#p5cca857c31)" style="fill: none; stroke: #b2b2b2; stroke-width: 1.666667; stroke-linecap: round"/>
   </g>
   <g id="line2d_11">
    <path d="M 114.330892 81.664544 
L 114.330892 72.904045 
" clip-path="url(#p5cca857c31)" style="fill: none; stroke: #b2b2b2; stroke-width: 5; stroke-linecap: round"/>
   </g>
   <g id="line2d_12">
    <path d="M 114.330892 77.071077 
" clip-path="url(#p5cca857c31)" style="fill: none; stroke: #333333; stroke-width: 1.2; stroke-linecap: round"/>
    <g clip-path="url(#p5cca857c31)">
     <use xlink:href="#m78e61963d9" x="114.330892" y="77.071077" style="fill: #ffffff; stroke: #ffffff"/>
    </g>
   </g>
   <g id="line2d_13">
    <path d="M 146.421044 101.775056 
L 146.421044 100.782687 
" clip-path="url(#p5cca857c31)" style="fill: none; stroke: #b2b2b2; stroke-width: 1.666667; stroke-linecap: round"/>
   </g>
   <g id="line2d_14">
    <path d="M 146.421044 101.69572 
L 146.421044 101.237883 
" clip-path="url(#p5cca857c31)" style="fill: none; stroke: #b2b2b2; stroke-width: 5; stroke-linecap: round"/>
   </g>
   <g id="line2d_15">
    <path d="M 146.421044 101.529445 
" clip-path="url(#p5cca857c31)" style="fill: none; stroke: #333333; stroke-width: 1.2; stroke-linecap: round"/>
    <g clip-path="url(#p5cca857c31)">
     <use xlink:href="#m78e61963d9" x="146.421044" y="101.529445" style="fill: #ffffff; stroke: #ffffff"/>
    </g>
   </g>
   <g id="line2d_16">
    <path d="M 162.466121 102.948998 
L 162.466121 86.185453 
" clip-path="url(#p5cca857c31)" style="fill: none; stroke: #b2b2b2; stroke-width: 1.666667; stroke-linecap: round"/>
   </g>
   <g id="line2d_17">
    <path d="M 162.466121 101.140584 
L 162.466121 95.13814 
" clip-path="url(#p5cca857c31)" style="fill: none; stroke: #b2b2b2; stroke-width: 5; stroke-linecap: round"/>
   </g>
   <g id="line2d_18">
    <path d="M 162.466121 99.526274 
" clip-path="url(#p5cca857c31)" style="fill: none; stroke: #333333; stroke-width: 1.2; stroke-linecap: round"/>
    <g clip-path="url(#p5cca857c31)">
     <use xlink:href="#m78e61963d9" x="162.466121" y="99.526274" style="fill: #ffffff; stroke: #ffffff"/>
    </g>
   </g>
   <g id="line2d_19">
    <path d="M 178.511197 91.608576 
L 178.511197 72.429676 
" clip-path="url(#p5cca857c31)" style="fill: none; stroke: #b2b2b2; stroke-width: 1.666667; stroke-linecap: round"/>
   </g>
   <g id="line2d_20">
    <path d="M 178.511197 85.33932 
L 178.511197 80.174654 
" clip-path="url(#p5cca857c31)" style="fill: none; stroke: #b2b2b2; stroke-width: 5; stroke-linecap: round"/>
   </g>
   <g id="line2d_21">
    <path d="M 178.511197 83.884485 
" clip-path="url(#p5cca857c31)" style="fill: none; stroke: #333333; stroke-width: 1.2; stroke-linecap: round"/>
    <g clip-path="url(#p5cca857c31)">
     <use xlink:href="#m78e61963d9" x="178.511197" y="83.884485" style="fill: #ffffff; stroke: #ffffff"/>
    </g>
   </g>
   <g id="line2d_22">
    <path d="M 194.556273 74.819257 
L 194.556273 58.843945 
" clip-path="url(#p5cca857c31)" style="fill: none; stroke: #b2b2b2; stroke-width: 1.666667; stroke-linecap: round"/>
   </g>
   <g id="line2d_23">
    <path d="M 194.556273 67.690105 
L 194.556273 61.369138 
" clip-path="url(#p5cca857c31)" style="fill: none; stroke: #b2b2b2; stroke-width: 5; stroke-linecap: round"/>
   </g>
   <g id="line2d_24">
    <path d="M 194.556273 64.973568 
" clip-path="url(#p5cca857c31)" style="fill: none; stroke: #333333; stroke-width: 1.2; stroke-linecap: round"/>
    <g clip-path="url(#p5cca857c31)">
     <use xlink:href="#m78e61963d9" x="194.556273" y="64.973568" style="fill: #ffffff; stroke: #ffffff"/>
    </g>
   </g>
   <g id="line2d_25">
    <path d="M 242.691501 102.854972 
L 242.691501 98.018853 
" clip-path="url(#p5cca857c31)" style="fill: none; stroke: #b2b2b2; stroke-width: 1.666667; stroke-linecap: round"/>
   </g>
   <g id="line2d_26">
    <path d="M 242.691501 102.038444 
L 242.691501 100.153108 
" clip-path="url(#p5cca857c31)" style="fill: none; stroke: #b2b2b2; stroke-width: 5; stroke-linecap: round"/>
   </g>
   <g id="line2d_27">
    <path d="M 242.691501 101.480536 
" clip-path="url(#p5cca857c31)" style="fill: none; stroke: #333333; stroke-width: 1.2; stroke-linecap: round"/>
    <g clip-path="url(#p5cca857c31)">
     <use xlink:href="#m78e61963d9" x="242.691501" y="101.480536" style="fill: #ffffff; stroke: #ffffff"/>
    </g>
   </g>
   <g id="line2d_28">
    <path d="M 258.736578 102.932735 
L 258.736578 95.571323 
" clip-path="url(#p5cca857c31)" style="fill: none; stroke: #b2b2b2; stroke-width: 1.666667; stroke-linecap: round"/>
   </g>
   <g id="line2d_29">
    <path d="M 258.736578 101.90264 
L 258.736578 95.763818 
" clip-path="url(#p5cca857c31)" style="fill: none; stroke: #b2b2b2; stroke-width: 5; stroke-linecap: round"/>
   </g>
   <g id="line2d_30">
    <path d="M 258.736578 96.374473 
" clip-path="url(#p5cca857c31)" style="fill: none; stroke: #333333; stroke-width: 1.2; stroke-linecap: round"/>
    <g clip-path="url(#p5cca857c31)">
     <use xlink:href="#m78e61963d9" x="258.736578" y="96.374473" style="fill: #ffffff; stroke: #ffffff"/>
    </g>
   </g>
   <g id="line2d_31">
    <path d="M 274.781654 102.520538 
L 274.781654 94.996002 
" clip-path="url(#p5cca857c31)" style="fill: none; stroke: #b2b2b2; stroke-width: 1.666667; stroke-linecap: round"/>
   </g>
   <g id="line2d_32">
    <path d="M 274.781654 98.609363 
L 274.781654 95.792739 
" clip-path="url(#p5cca857c31)" style="fill: none; stroke: #b2b2b2; stroke-width: 5; stroke-linecap: round"/>
   </g>
   <g id="line2d_33">
    <path d="M 274.781654 97.432862 
" clip-path="url(#p5cca857c31)" style="fill: none; stroke: #333333; stroke-width: 1.2; stroke-linecap: round"/>
    <g clip-path="url(#p5cca857c31)">
     <use xlink:href="#m78e61963d9" x="274.781654" y="97.432862" style="fill: #ffffff; stroke: #ffffff"/>
    </g>
   </g>
   <g id="patch_7">
    <path d="M 50.150588 105.27615 
L 50.150588 22.13295 
" style="fill: none; stroke: #373737; stroke-linejoin: miter; stroke-linecap: square"/>
   </g>
   <g id="patch_8">
    <path d="M 50.150588 105.27615 
L 290.82673 105.27615 
" style="fill: none; stroke: #373737; stroke-linejoin: miter; stroke-linecap: square"/>
   </g>
   <g id="text_8">
    <text style="fill: #373737; font: 12.48px 'Arial', 'DejaVu Sans', 'Liberation Sans', 'Bitstream Vera Sans', sans-serif; text-anchor: middle" x="170.488659" y="16.13295" transform="rotate(-0 170.488659 16.13295)">Het Mean Biomass</text>
   </g>
  </g>
  <g id="legend_1">
   <g id="text_9">
    <text style="fill: #373737; font: 12.48px 'Arial', 'DejaVu Sans', 'Liberation Sans', 'Bitstream Vera Sans', sans-serif; text-anchor: start" x="317.781345" y="36.271125" transform="rotate(-0 317.781345 36.271125)">y_pred</text>
   </g>
   <g id="patch_9">
    <path d="M 295.40347 52.806312 
L 318.28347 52.806312 
L 318.28347 44.798312 
L 295.40347 44.798312 
z
" style="fill: #3c2f7b; stroke: #333333; stroke-width: 0.3; stroke-linejoin: miter"/>
   </g>
   <g id="text_10">
    <text style="fill: #373737; font: 11.44px 'Arial', 'DejaVu Sans', 'Liberation Sans', 'Bitstream Vera Sans', sans-serif; text-anchor: start" x="327.43547" y="52.806312" transform="rotate(-0 327.43547 52.806312)">Inhibited</text>
   </g>
   <g id="patch_10">
    <path d="M 295.40347 68.98855 
L 318.28347 68.98855 
L 318.28347 60.98055 
L 295.40347 60.98055 
z
" style="fill: #519d91; stroke: #333333; stroke-width: 0.3; stroke-linejoin: miter"/>
   </g>
   <g id="text_11">
    <text style="fill: #373737; font: 11.44px 'Arial', 'DejaVu Sans', 'Liberation Sans', 'Bitstream Vera Sans', sans-serif; text-anchor: start" x="327.43547" y="68.98855" transform="rotate(-0 327.43547 68.98855)">Weak</text>
   </g>
   <g id="patch_11">
    <path d="M 295.40347 85.170787 
L 318.28347 85.170787 
L 318.28347 77.162787 
L 295.40347 77.162787 
z
" style="fill: #bf7380; stroke: #333333; stroke-width: 0.3; stroke-linejoin: miter"/>
   </g>
   <g id="text_12">
    <text style="fill: #373737; font: 11.44px 'Arial', 'DejaVu Sans', 'Liberation Sans', 'Bitstream Vera Sans', sans-serif; text-anchor: start" x="327.43547" y="85.170787" transform="rotate(-0 327.43547 85.170787)">Sustained</text>
   </g>
   <g id="patch_12">
    <path d="M 295.40347 101.49245 
L 318.28347 101.49245 
L 318.28347 93.48445 
L 295.40347 93.48445 
z
" style="fill: #7b2f55; stroke: #333333; stroke-width: 0.3; stroke-linejoin: miter"/>
   </g>
   <g id="text_13">
    <text style="fill: #373737; font: 11.44px 'Arial', 'DejaVu Sans', 'Liberation Sans', 'Bitstream Vera Sans', sans-serif; text-anchor: start" x="327.43547" y="101.49245" transform="rotate(-0 327.43547 101.49245)">Strong</text>
   </g>
  </g>
 </g>
 <defs>
  <clipPath id="p5cca857c31">
   <rect x="50.150588" y="22.13295" width="240.676142" height="83.1432"/>
  </clipPath>
 </defs>
</svg>
