<?xml version="1.0" encoding="utf-8" standalone="no"?>
<!DOCTYPE svg PUBLIC "-//W3C//DTD SVG 1.1//EN"
  "http://www.w3.org/Graphics/SVG/1.1/DTD/svg11.dtd">
<svg xmlns:xlink="http://www.w3.org/1999/xlink" width="388.61087pt" height="131.238387pt" viewBox="0 0 388.61087 131.238387" xmlns="http://www.w3.org/2000/svg" version="1.1">
 <metadata>
  <rdf:RDF xmlns:dc="http://purl.org/dc/elements/1.1/" xmlns:cc="http://creativecommons.org/ns#" xmlns:rdf="http://www.w3.org/1999/02/22-rdf-syntax-ns#">
   <cc:Work>
    <dc:type rdf:resource="http://purl.org/dc/dcmitype/StillImage"/>
    <dc:date>2024-12-17T16:18:54.427854</dc:date>
    <dc:format>image/svg+xml</dc:format>
    <dc:creator>
     <cc:Agent>
      <dc:title>Matplotlib v3.8.0, https://matplotlib.org/</dc:title>
     </cc:Agent>
    </dc:creator>
   </cc:Work>
  </rdf:RDF>
 </metadata>
 <defs>
  <style type="text/css">*{stroke-linejoin: round; stroke-linecap: butt}</style>
 </defs>
 <g id="figure_1">
  <g id="patch_1">
   <path d="M 0 131.238387 
L 388.61087 131.238387 
L 388.61087 0 
L 0 0 
L 0 131.238387 
z
" style="fill: none"/>
  </g>
  <g id="axes_1">
   <g id="patch_2">
    <path d="M 50.150588 105.27615 
L 290.82673 105.27615 
L 290.82673 22.13295 
L 50.150588 22.13295 
L 50.150588 105.27615 
z
" style="fill: none"/>
   </g>
   <g id="matplotlib.axis_1">
    <g id="xtick_1">
     <g id="text_1">
      <text style="fill: #373737; font: 11.44px 'Arial', 'DejaVu Sans', 'Liberation Sans', 'Bitstream Vera Sans', sans-serif; text-anchor: middle" x="90.263278" y="121.764687" transform="rotate(-0 90.263278 121.764687)">OVERFLOW</text>
     </g>
    </g>
    <g id="xtick_2">
     <g id="text_2">
      <text style="fill: #373737; font: 11.44px 'Arial', 'DejaVu Sans', 'Liberation Sans', 'Bitstream Vera Sans', sans-serif; text-anchor: middle" x="170.488659" y="121.764687" transform="rotate(-0 170.488659 121.764687)">EXOENZYME</text>
     </g>
    </g>
    <g id="xtick_3">
     <g id="text_3">
      <text style="fill: #373737; font: 11.44px 'Arial', 'DejaVu Sans', 'Liberation Sans', 'Bitstream Vera Sans', sans-serif; text-anchor: middle" x="250.71404" y="121.764687" transform="rotate(-0 250.71404 121.764687)">ROS</text>
     </g>
    </g>
   </g>
   <g id="matplotlib.axis_2">
    <g id="ytick_1">
     <g id="text_4">
      <text style="fill: #373737; font: 11.44px 'Arial', 'DejaVu Sans', 'Liberation Sans', 'Bitstream Vera Sans', sans-serif; text-anchor: end" x="41.850588" y="107.342536" transform="rotate(-0 41.850588 107.342536)">0</text>
     </g>
    </g>
    <g id="ytick_2">
     <g id="text_5">
      <text style="fill: #373737; font: 11.44px 'Arial', 'DejaVu Sans', 'Liberation Sans', 'Bitstream Vera Sans', sans-serif; text-anchor: end" x="41.850588" y="66.784877" transform="rotate(-0 41.850588 66.784877)">200</text>
     </g>
    </g>
    <g id="ytick_3">
     <g id="text_6">
      <text style="fill: #373737; font: 11.44px 'Arial', 'DejaVu Sans', 'Liberation Sans', 'Bitstream Vera Sans', sans-serif; text-anchor: end" x="41.850588" y="26.227219" transform="rotate(-0 41.850588 26.227219)">400</text>
     </g>
    </g>
    <g id="text_7">
     <text style="fill: #373737; font: 12.48px 'Arial', 'DejaVu Sans', 'Liberation Sans', 'Bitstream Vera Sans', sans-serif; text-anchor: middle" x="16.28505" y="63.70455" transform="rotate(-90 16.28505 63.70455)">µM C</text>
    </g>
   </g>
   <g id="PolyCollection_1">
    <defs>
     <path id="mfbba3be7a1" d="M 73.26565 -28.444812 
L 59.125677 -28.444812 
L 59.086353 -28.445625 
L 59.047877 -28.446438 
L 59.010251 -28.447251 
L 58.973478 -28.448065 
L 58.937561 -28.448878 
L 58.9025 -28.449691 
L 58.868296 -28.450504 
L 58.83495 -28.451317 
L 58.802462 -28.45213 
L 58.770831 -28.452943 
L 58.740057 -28.453756 
L 58.710137 -28.454569 
L 58.681071 -28.455383 
L 58.652856 -28.456196 
L 58.62549 -28.457009 
L 58.598971 -28.457822 
L 58.573294 -28.458635 
L 58.548458 -28.459448 
L 58.524458 -28.460261 
L 58.501291 -28.461074 
L 58.478953 -28.461887 
L 58.457439 -28.4627 
L 58.436747 -28.463514 
L 58.41687 -28.464327 
L 58.397806 -28.46514 
L 58.379549 -28.465953 
L 58.362096 -28.466766 
L 58.345441 -28.467579 
L 58.32958 -28.468392 
L 58.314508 -28.469205 
L 58.300222 -28.470018 
L 58.286716 -28.470832 
L 58.273988 -28.471645 
L 58.262031 -28.472458 
L 58.250843 -28.473271 
L 58.24042 -28.474084 
L 58.230757 -28.474897 
L 58.221852 -28.47571 
L 58.213702 -28.476523 
L 58.206302 -28.477336 
L 58.199651 -28.47815 
L 58.193745 -28.478963 
L 58.188583 -28.479776 
L 58.184162 -28.480589 
L 58.180481 -28.481402 
L 58.177537 -28.482215 
L 58.175331 -28.483028 
L 58.173861 -28.483841 
L 58.173126 -28.484654 
L 58.173126 -28.485467 
L 58.173861 -28.486281 
L 58.175331 -28.487094 
L 58.177537 -28.487907 
L 58.180481 -28.48872 
L 58.184162 -28.489533 
L 58.188583 -28.490346 
L 58.193745 -28.491159 
L 58.199651 -28.491972 
L 58.206302 -28.492785 
L 58.213702 -28.493599 
L 58.221852 -28.494412 
L 58.230757 -28.495225 
L 58.24042 -28.496038 
L 58.250843 -28.496851 
L 58.262031 -28.497664 
L 58.273988 -28.498477 
L 58.286716 -28.49929 
L 58.300222 -28.500103 
L 58.314508 -28.500917 
L 58.32958 -28.50173 
L 58.345441 -28.502543 
L 58.362096 -28.503356 
L 58.379549 -28.504169 
L 58.397806 -28.504982 
L 58.41687 -28.505795 
L 58.436747 -28.506608 
L 58.457439 -28.507421 
L 58.478953 -28.508234 
L 58.501291 -28.509048 
L 58.524458 -28.509861 
L 58.548458 -28.510674 
L 58.573294 -28.511487 
L 58.598971 -28.5123 
L 58.62549 -28.513113 
L 58.652856 -28.513926 
L 58.681071 -28.514739 
L 58.710137 -28.515552 
L 58.740057 -28.516366 
L 58.770831 -28.517179 
L 58.802462 -28.517992 
L 58.83495 -28.518805 
L 58.868296 -28.519618 
L 58.9025 -28.520431 
L 58.937561 -28.521244 
L 58.973478 -28.522057 
L 59.010251 -28.52287 
L 59.047877 -28.523684 
L 59.086353 -28.524497 
L 59.125677 -28.52531 
L 73.26565 -28.52531 
L 73.26565 -28.52531 
L 73.304974 -28.524497 
L 73.34345 -28.523684 
L 73.381076 -28.52287 
L 73.417849 -28.522057 
L 73.453766 -28.521244 
L 73.488828 -28.520431 
L 73.523031 -28.519618 
L 73.556377 -28.518805 
L 73.588865 -28.517992 
L 73.620496 -28.517179 
L 73.651271 -28.516366 
L 73.68119 -28.515552 
L 73.710256 -28.514739 
L 73.738471 -28.513926 
L 73.765837 -28.513113 
L 73.792357 -28.5123 
L 73.818033 -28.511487 
L 73.842869 -28.510674 
L 73.866869 -28.509861 
L 73.890037 -28.509048 
L 73.912375 -28.508234 
L 73.933888 -28.507421 
L 73.954581 -28.506608 
L 73.974457 -28.505795 
L 73.993521 -28.504982 
L 74.011778 -28.504169 
L 74.029232 -28.503356 
L 74.045887 -28.502543 
L 74.061748 -28.50173 
L 74.076819 -28.500917 
L 74.091105 -28.500103 
L 74.104611 -28.49929 
L 74.11734 -28.498477 
L 74.129296 -28.497664 
L 74.140484 -28.496851 
L 74.150907 -28.496038 
L 74.16057 -28.495225 
L 74.169475 -28.494412 
L 74.177626 -28.493599 
L 74.185025 -28.492785 
L 74.191677 -28.491972 
L 74.197582 -28.491159 
L 74.202744 -28.490346 
L 74.207165 -28.489533 
L 74.210847 -28.48872 
L 74.21379 -28.487907 
L 74.215996 -28.487094 
L 74.217467 -28.486281 
L 74.218202 -28.485467 
L 74.218202 -28.484654 
L 74.217467 -28.483841 
L 74.215996 -28.483028 
L 74.21379 -28.482215 
L 74.210847 -28.481402 
L 74.207165 -28.480589 
L 74.202744 -28.479776 
L 74.197582 -28.478963 
L 74.191677 -28.47815 
L 74.185025 -28.477336 
L 74.177626 -28.476523 
L 74.169475 -28.47571 
L 74.16057 -28.474897 
L 74.150907 -28.474084 
L 74.140484 -28.473271 
L 74.129296 -28.472458 
L 74.11734 -28.471645 
L 74.104611 -28.470832 
L 74.091105 -28.470018 
L 74.076819 -28.469205 
L 74.061748 -28.468392 
L 74.045887 -28.467579 
L 74.029232 -28.466766 
L 74.011778 -28.465953 
L 73.993521 -28.46514 
L 73.974457 -28.464327 
L 73.954581 -28.463514 
L 73.933888 -28.4627 
L 73.912375 -28.461887 
L 73.890037 -28.461074 
L 73.866869 -28.460261 
L 73.842869 -28.459448 
L 73.818033 -28.458635 
L 73.792357 -28.457822 
L 73.765837 -28.457009 
L 73.738471 -28.456196 
L 73.710256 -28.455383 
L 73.68119 -28.454569 
L 73.651271 -28.453756 
L 73.620496 -28.452943 
L 73.588865 -28.45213 
L 73.556377 -28.451317 
L 73.523031 -28.450504 
L 73.488828 -28.449691 
L 73.453766 -28.448878 
L 73.417849 -28.448065 
L 73.381076 -28.447251 
L 73.34345 -28.446438 
L 73.304974 -28.445625 
L 73.26565 -28.444812 
z
" style="stroke: #333333; stroke-width: 0.3"/>
    </defs>
    <g clip-path="url(#p6e9b88df02)">
     <use xlink:href="#mfbba3be7a1" x="0" y="131.238387" style="fill: #3c2f7b; stroke: #333333; stroke-width: 0.3"/>
    </g>
   </g>
   <g id="PolyCollection_2">
    <defs>
     <path id="ma0c388579c" d="M 82.565812 -28.409243 
L 81.915667 -28.409243 
L 81.729271 -28.486959 
L 81.477309 -28.564675 
L 81.153372 -28.64239 
L 80.756562 -28.720106 
L 80.292994 -28.797822 
L 79.775171 -28.875538 
L 79.218859 -28.953253 
L 78.638912 -29.030969 
L 78.046304 -29.108685 
L 77.447888 -29.186401 
L 76.849233 -29.264116 
L 76.259851 -29.341832 
L 75.698365 -29.419548 
L 75.193464 -29.497264 
L 74.777603 -29.574979 
L 74.475354 -29.652695 
L 74.293303 -29.730411 
L 74.218202 -29.808127 
L 74.224453 -29.885842 
L 74.285957 -29.963558 
L 74.38582 -30.041274 
L 74.520101 -30.11899 
L 74.69501 -30.196705 
L 74.918932 -30.274421 
L 75.192698 -30.352137 
L 75.503718 -30.429853 
L 75.828724 -30.507568 
L 76.144185 -30.585284 
L 76.437185 -30.663 
L 76.708899 -30.740716 
L 76.968783 -30.818431 
L 77.224763 -30.896147 
L 77.477103 -30.973863 
L 77.719826 -31.051579 
L 77.947093 -31.129294 
L 78.158158 -31.20701 
L 78.356586 -31.284726 
L 78.545236 -31.362442 
L 78.722256 -31.440158 
L 78.881733 -31.517873 
L 79.018045 -31.595589 
L 79.13025 -31.673305 
L 79.223458 -31.751021 
L 79.306498 -31.828736 
L 79.387415 -31.906452 
L 79.469806 -31.984168 
L 79.552673 -32.061884 
L 79.633835 -32.139599 
L 79.713898 -32.217315 
L 79.79726 -32.295031 
L 79.889282 -32.372747 
L 79.992046 -32.450462 
L 80.102232 -32.528178 
L 80.212868 -32.605894 
L 80.317719 -32.68361 
L 80.415128 -32.761325 
L 80.508598 -32.839041 
L 80.603862 -32.916757 
L 80.704678 -32.994473 
L 80.810232 -33.072188 
L 80.915592 -33.149904 
L 81.014362 -33.22762 
L 81.101361 -33.305336 
L 81.173673 -33.383051 
L 81.230217 -33.460767 
L 81.271261 -33.538483 
L 81.298906 -33.616199 
L 81.318039 -33.693914 
L 81.336387 -33.77163 
L 81.362799 -33.849346 
L 81.404244 -33.927062 
L 81.462949 -34.004777 
L 81.535326 -34.082493 
L 81.613424 -34.160209 
L 81.68821 -34.237925 
L 81.752797 -34.31564 
L 81.804019 -34.393356 
L 81.842163 -34.471072 
L 81.869881 -34.548788 
L 81.891227 -34.626503 
L 81.910836 -34.704219 
L 81.932844 -34.781935 
L 81.959631 -34.859651 
L 81.991122 -34.937366 
L 82.025196 -35.015082 
L 82.058912 -35.092798 
L 82.089658 -35.170514 
L 82.115669 -35.248229 
L 82.136059 -35.325945 
L 82.150849 -35.403661 
L 82.161073 -35.481377 
L 82.168637 -35.559092 
L 82.175678 -35.636808 
L 82.183681 -35.714524 
L 82.192949 -35.79224 
L 82.202774 -35.869955 
L 82.212088 -35.947671 
L 82.220095 -36.025387 
L 82.22649 -36.103103 
L 82.25499 -36.103103 
L 82.25499 -36.103103 
L 82.261385 -36.025387 
L 82.269391 -35.947671 
L 82.278706 -35.869955 
L 82.28853 -35.79224 
L 82.297799 -35.714524 
L 82.305802 -35.636808 
L 82.312843 -35.559092 
L 82.320407 -35.481377 
L 82.330631 -35.403661 
L 82.345421 -35.325945 
L 82.365811 -35.248229 
L 82.391822 -35.170514 
L 82.422568 -35.092798 
L 82.456283 -35.015082 
L 82.490357 -34.937366 
L 82.521849 -34.859651 
L 82.548636 -34.781935 
L 82.570643 -34.704219 
L 82.590253 -34.626503 
L 82.611599 -34.548788 
L 82.639317 -34.471072 
L 82.67746 -34.393356 
L 82.728682 -34.31564 
L 82.793269 -34.237925 
L 82.868056 -34.160209 
L 82.946154 -34.082493 
L 83.018531 -34.004777 
L 83.077236 -33.927062 
L 83.11868 -33.849346 
L 83.145093 -33.77163 
L 83.16344 -33.693914 
L 83.182574 -33.616199 
L 83.210219 -33.538483 
L 83.251263 -33.460767 
L 83.307807 -33.383051 
L 83.380119 -33.305336 
L 83.467117 -33.22762 
L 83.565887 -33.149904 
L 83.671248 -33.072188 
L 83.776802 -32.994473 
L 83.877618 -32.916757 
L 83.972882 -32.839041 
L 84.066352 -32.761325 
L 84.163761 -32.68361 
L 84.268611 -32.605894 
L 84.379247 -32.528178 
L 84.489434 -32.450462 
L 84.592198 -32.372747 
L 84.68422 -32.295031 
L 84.767582 -32.217315 
L 84.847645 -32.139599 
L 84.928807 -32.061884 
L 85.011674 -31.984168 
L 85.094065 -31.906452 
L 85.174982 -31.828736 
L 85.258022 -31.751021 
L 85.35123 -31.673305 
L 85.463435 -31.595589 
L 85.599747 -31.517873 
L 85.759224 -31.440158 
L 85.936244 -31.362442 
L 86.124894 -31.284726 
L 86.323322 -31.20701 
L 86.534387 -31.129294 
L 86.761654 -31.051579 
L 87.004377 -30.973863 
L 87.256717 -30.896147 
L 87.512697 -30.818431 
L 87.77258 -30.740716 
L 88.044295 -30.663 
L 88.337295 -30.585284 
L 88.652756 -30.507568 
L 88.977762 -30.429853 
L 89.288782 -30.352137 
L 89.562547 -30.274421 
L 89.78647 -30.196705 
L 89.961379 -30.11899 
L 90.09566 -30.041274 
L 90.195522 -29.963558 
L 90.257027 -29.885842 
L 90.263278 -29.808127 
L 90.188177 -29.730411 
L 90.006125 -29.652695 
L 89.703877 -29.574979 
L 89.288015 -29.497264 
L 88.783114 -29.419548 
L 88.221628 -29.341832 
L 87.632247 -29.264116 
L 87.033592 -29.186401 
L 86.435175 -29.108685 
L 85.842568 -29.030969 
L 85.262621 -28.953253 
L 84.706309 -28.875538 
L 84.188485 -28.797822 
L 83.724917 -28.720106 
L 83.328107 -28.64239 
L 83.004171 -28.564675 
L 82.752209 -28.486959 
L 82.565812 -28.409243 
z
" style="stroke: #333333; stroke-width: 0.3"/>
    </defs>
    <g clip-path="url(#p6e9b88df02)">
     <use xlink:href="#ma0c388579c" x="0" y="131.238387" style="fill: #519d91; stroke: #333333; stroke-width: 0.3"/>
    </g>
   </g>
   <g id="PolyCollection_3">
    <defs>
     <path id="m42a958b177" d="M 99.364794 -32.332315 
L 97.206838 -32.332315 
L 96.916239 -32.56115 
L 96.5953 -32.789984 
L 96.250207 -33.018819 
L 95.886329 -33.247653 
L 95.507195 -33.476488 
L 95.114302 -33.705322 
L 94.707925 -33.934157 
L 94.288683 -34.162991 
L 93.859296 -34.391826 
L 93.42581 -34.62066 
L 92.997719 -34.849495 
L 92.586807 -35.078329 
L 92.204975 -35.307164 
L 91.861731 -35.535998 
L 91.562127 -35.764833 
L 91.305852 -35.993667 
L 91.087839 -36.222502 
L 90.900276 -36.451336 
L 90.735505 -36.680171 
L 90.588936 -36.909005 
L 90.461029 -37.13784 
L 90.357614 -37.366674 
L 90.288283 -37.595509 
L 90.263278 -37.824343 
L 90.289785 -38.053178 
L 90.368878 -38.282012 
L 90.494098 -38.510847 
L 90.652138 -38.739681 
L 90.82537 -38.968516 
L 90.995378 -39.19735 
L 91.146438 -39.426185 
L 91.268044 -39.655019 
L 91.356003 -39.883854 
L 91.412103 -40.112688 
L 91.44275 -40.341523 
L 91.457086 -40.570357 
L 91.465079 -40.799191 
L 91.475919 -41.028026 
L 91.496898 -41.25686 
L 91.532853 -41.485695 
L 91.58617 -41.714529 
L 91.657303 -41.943364 
L 91.745652 -42.172198 
L 91.850559 -42.401033 
L 91.97208 -42.629867 
L 92.111282 -42.858702 
L 92.269892 -43.087536 
L 92.449439 -43.316371 
L 92.650167 -43.545205 
L 92.870169 -43.77404 
L 93.105079 -44.002874 
L 93.348514 -44.231709 
L 93.593144 -44.460543 
L 93.832108 -44.689378 
L 94.060359 -44.918212 
L 94.275588 -45.147047 
L 94.47852 -45.375881 
L 94.672497 -45.604716 
L 94.862474 -45.83355 
L 95.053612 -46.062385 
L 95.249792 -46.291219 
L 95.452395 -46.520054 
L 95.659692 -46.748888 
L 95.867085 -46.977723 
L 96.068179 -47.206557 
L 96.256429 -47.435392 
L 96.426879 -47.664226 
L 96.57745 -47.893061 
L 96.709358 -48.121895 
L 96.826577 -48.35073 
L 96.934522 -48.579564 
L 97.038437 -48.808399 
L 97.141976 -49.037233 
L 97.246397 -49.266068 
L 97.350518 -49.494902 
L 97.451358 -49.723737 
L 97.545189 -49.952571 
L 97.628646 -50.181405 
L 97.699599 -50.41024 
L 97.757592 -50.639074 
L 97.803818 -50.867909 
L 97.840706 -51.096743 
L 97.871295 -51.325578 
L 97.898563 -51.554412 
L 97.924892 -51.783247 
L 97.951742 -52.012081 
L 97.979577 -52.240916 
L 98.008003 -52.46975 
L 98.036058 -52.698585 
L 98.062565 -52.927419 
L 98.086468 -53.156254 
L 98.107092 -53.385088 
L 98.124291 -53.613923 
L 98.138452 -53.842757 
L 98.150386 -54.071592 
L 98.161125 -54.300426 
L 98.171672 -54.529261 
L 98.182782 -54.758095 
L 98.194811 -54.98693 
L 98.376821 -54.98693 
L 98.376821 -54.98693 
L 98.38885 -54.758095 
L 98.39996 -54.529261 
L 98.410507 -54.300426 
L 98.421246 -54.071592 
L 98.43318 -53.842757 
L 98.447341 -53.613923 
L 98.46454 -53.385088 
L 98.485164 -53.156254 
L 98.509067 -52.927419 
L 98.535574 -52.698585 
L 98.563629 -52.46975 
L 98.592055 -52.240916 
L 98.61989 -52.012081 
L 98.64674 -51.783247 
L 98.673069 -51.554412 
L 98.700337 -51.325578 
L 98.730926 -51.096743 
L 98.767814 -50.867909 
L 98.81404 -50.639074 
L 98.872033 -50.41024 
L 98.942986 -50.181405 
L 99.026443 -49.952571 
L 99.120274 -49.723737 
L 99.221114 -49.494902 
L 99.325235 -49.266068 
L 99.429656 -49.037233 
L 99.533195 -48.808399 
L 99.63711 -48.579564 
L 99.745055 -48.35073 
L 99.862274 -48.121895 
L 99.994182 -47.893061 
L 100.144753 -47.664226 
L 100.315203 -47.435392 
L 100.503453 -47.206557 
L 100.704547 -46.977723 
L 100.91194 -46.748888 
L 101.119237 -46.520054 
L 101.32184 -46.291219 
L 101.51802 -46.062385 
L 101.709158 -45.83355 
L 101.899135 -45.604716 
L 102.093112 -45.375881 
L 102.296044 -45.147047 
L 102.511273 -44.918212 
L 102.739524 -44.689378 
L 102.978488 -44.460543 
L 103.223118 -44.231709 
L 103.466553 -44.002874 
L 103.701463 -43.77404 
L 103.921465 -43.545205 
L 104.122193 -43.316371 
L 104.30174 -43.087536 
L 104.46035 -42.858702 
L 104.599552 -42.629867 
L 104.721073 -42.401033 
L 104.82598 -42.172198 
L 104.914329 -41.943364 
L 104.985462 -41.714529 
L 105.038779 -41.485695 
L 105.074734 -41.25686 
L 105.095713 -41.028026 
L 105.106553 -40.799191 
L 105.114546 -40.570357 
L 105.128882 -40.341523 
L 105.159529 -40.112688 
L 105.215629 -39.883854 
L 105.303588 -39.655019 
L 105.425194 -39.426185 
L 105.576254 -39.19735 
L 105.746261 -38.968516 
L 105.919494 -38.739681 
L 106.077534 -38.510847 
L 106.202754 -38.282012 
L 106.281847 -38.053178 
L 106.308354 -37.824343 
L 106.283349 -37.595509 
L 106.214018 -37.366674 
L 106.110603 -37.13784 
L 105.982696 -36.909005 
L 105.836127 -36.680171 
L 105.671356 -36.451336 
L 105.483793 -36.222502 
L 105.26578 -35.993667 
L 105.009505 -35.764833 
L 104.709901 -35.535998 
L 104.366657 -35.307164 
L 103.984825 -35.078329 
L 103.573913 -34.849495 
L 103.145822 -34.62066 
L 102.712336 -34.391826 
L 102.282949 -34.162991 
L 101.863707 -33.934157 
L 101.45733 -33.705322 
L 101.064437 -33.476488 
L 100.685303 -33.247653 
L 100.321425 -33.018819 
L 99.976332 -32.789984 
L 99.655393 -32.56115 
L 99.364794 -32.332315 
z
" style="stroke: #333333; stroke-width: 0.3"/>
    </defs>
    <g clip-path="url(#p6e9b88df02)">
     <use xlink:href="#m42a958b177" x="0" y="131.238387" style="fill: #bf7380; stroke: #333333; stroke-width: 0.3"/>
    </g>
   </g>
   <g id="PolyCollection_4">
    <defs>
     <path id="m8bf4ec7443" d="M 117.052118 -45.986973 
L 111.609666 -45.986973 
L 111.373045 -46.200149 
L 111.14209 -46.413326 
L 110.918316 -46.626502 
L 110.702288 -46.839679 
L 110.493556 -47.052855 
L 110.290672 -47.266032 
L 110.091313 -47.479208 
L 109.89249 -47.692385 
L 109.690844 -47.905561 
L 109.482999 -48.118738 
L 109.265946 -48.331914 
L 109.037426 -48.545091 
L 108.796269 -48.758267 
L 108.542674 -48.971444 
L 108.278383 -49.18462 
L 108.006742 -49.397797 
L 107.732633 -49.610974 
L 107.462288 -49.82415 
L 107.202976 -50.037327 
L 106.962615 -50.250503 
L 106.749308 -50.46368 
L 106.570856 -50.676856 
L 106.43428 -50.890033 
L 106.345376 -51.103209 
L 106.308354 -51.316386 
L 106.325568 -51.529562 
L 106.397364 -51.742739 
L 106.522047 -51.955915 
L 106.695975 -52.169092 
L 106.913766 -52.382268 
L 107.168595 -52.595445 
L 107.452571 -52.808621 
L 107.757155 -53.021798 
L 108.0736 -53.234974 
L 108.39338 -53.448151 
L 108.708584 -53.661327 
L 109.012252 -53.874504 
L 109.298637 -54.08768 
L 109.563385 -54.300857 
L 109.803622 -54.514033 
L 110.017954 -54.72721 
L 110.206391 -54.940387 
L 110.370195 -55.153563 
L 110.511679 -55.36674 
L 110.633966 -55.579916 
L 110.740725 -55.793093 
L 110.835919 -56.006269 
L 110.923548 -56.219446 
L 111.00743 -56.432622 
L 111.091019 -56.645799 
L 111.177257 -56.858975 
L 111.26848 -57.072152 
L 111.36636 -57.285328 
L 111.471895 -57.498505 
L 111.585429 -57.711681 
L 111.706702 -57.924858 
L 111.834927 -58.138034 
L 111.968872 -58.351211 
L 112.106968 -58.564387 
L 112.247404 -58.777564 
L 112.388235 -58.99074 
L 112.527479 -59.203917 
L 112.663215 -59.417093 
L 112.793662 -59.63027 
L 112.917259 -59.843447 
L 113.03272 -60.056623 
L 113.139082 -60.2698 
L 113.235733 -60.482976 
L 113.322423 -60.696153 
L 113.399255 -60.909329 
L 113.466659 -61.122506 
L 113.525352 -61.335682 
L 113.576276 -61.548859 
L 113.620534 -61.762035 
L 113.659313 -61.975212 
L 113.693807 -62.188388 
L 113.725143 -62.401565 
L 113.754318 -62.614741 
L 113.782145 -62.827918 
L 113.809219 -63.041094 
L 113.835896 -63.254271 
L 113.862302 -63.467447 
L 113.888353 -63.680624 
L 113.913792 -63.8938 
L 113.938241 -64.106977 
L 113.961262 -64.320153 
L 113.982416 -64.53333 
L 114.001324 -64.746506 
L 114.017714 -64.959683 
L 114.031458 -65.17286 
L 114.042597 -65.386036 
L 114.051338 -65.599213 
L 114.058049 -65.812389 
L 114.063224 -66.025566 
L 114.067447 -66.238742 
L 114.071341 -66.451919 
L 114.075521 -66.665095 
L 114.080543 -66.878272 
L 114.086864 -67.091448 
L 114.57492 -67.091448 
L 114.57492 -67.091448 
L 114.581241 -66.878272 
L 114.586263 -66.665095 
L 114.590443 -66.451919 
L 114.594338 -66.238742 
L 114.59856 -66.025566 
L 114.603735 -65.812389 
L 114.610446 -65.599213 
L 114.619188 -65.386036 
L 114.630326 -65.17286 
L 114.64407 -64.959683 
L 114.66046 -64.746506 
L 114.679368 -64.53333 
L 114.700523 -64.320153 
L 114.723544 -64.106977 
L 114.747993 -63.8938 
L 114.773431 -63.680624 
L 114.799482 -63.467447 
L 114.825889 -63.254271 
L 114.852566 -63.041094 
L 114.879639 -62.827918 
L 114.907466 -62.614741 
L 114.936642 -62.401565 
L 114.967978 -62.188388 
L 115.002471 -61.975212 
L 115.04125 -61.762035 
L 115.085508 -61.548859 
L 115.136432 -61.335682 
L 115.195125 -61.122506 
L 115.262529 -60.909329 
L 115.339361 -60.696153 
L 115.426051 -60.482976 
L 115.522702 -60.2698 
L 115.629064 -60.056623 
L 115.744525 -59.843447 
L 115.868122 -59.63027 
L 115.99857 -59.417093 
L 116.134305 -59.203917 
L 116.27355 -58.99074 
L 116.41438 -58.777564 
L 116.554816 -58.564387 
L 116.692912 -58.351211 
L 116.826858 -58.138034 
L 116.955082 -57.924858 
L 117.076355 -57.711681 
L 117.189889 -57.498505 
L 117.295425 -57.285328 
L 117.393305 -57.072152 
L 117.484527 -56.858975 
L 117.570765 -56.645799 
L 117.654354 -56.432622 
L 117.738236 -56.219446 
L 117.825865 -56.006269 
L 117.921059 -55.793093 
L 118.027819 -55.579916 
L 118.150105 -55.36674 
L 118.291589 -55.153563 
L 118.455393 -54.940387 
L 118.64383 -54.72721 
L 118.858162 -54.514033 
L 119.098399 -54.300857 
L 119.363147 -54.08768 
L 119.649533 -53.874504 
L 119.953201 -53.661327 
L 120.268405 -53.448151 
L 120.588185 -53.234974 
L 120.904629 -53.021798 
L 121.209213 -52.808621 
L 121.493189 -52.595445 
L 121.748018 -52.382268 
L 121.965809 -52.169092 
L 122.139738 -51.955915 
L 122.26442 -51.742739 
L 122.336216 -51.529562 
L 122.35343 -51.316386 
L 122.316408 -51.103209 
L 122.227504 -50.890033 
L 122.090928 -50.676856 
L 121.912477 -50.46368 
L 121.69917 -50.250503 
L 121.458809 -50.037327 
L 121.199497 -49.82415 
L 120.929151 -49.610974 
L 120.655043 -49.397797 
L 120.383401 -49.18462 
L 120.11911 -48.971444 
L 119.865516 -48.758267 
L 119.624359 -48.545091 
L 119.395838 -48.331914 
L 119.178785 -48.118738 
L 118.970941 -47.905561 
L 118.769295 -47.692385 
L 118.570471 -47.479208 
L 118.371112 -47.266032 
L 118.168229 -47.052855 
L 117.959497 -46.839679 
L 117.743469 -46.626502 
L 117.519694 -46.413326 
L 117.288739 -46.200149 
L 117.052118 -45.986973 
z
" style="stroke: #333333; stroke-width: 0.3"/>
    </defs>
    <g clip-path="url(#p6e9b88df02)">
     <use xlink:href="#m8bf4ec7443" x="0" y="131.238387" style="fill: #7b2f55; stroke: #333333; stroke-width: 0.3"/>
    </g>
   </g>
   <g id="PolyCollection_5">
    <defs>
     <path id="m4f6e4f8b87" d="M 150.527522 -29.222113 
L 142.314567 -29.222113 
L 142.257421 -29.223807 
L 142.200861 -29.225501 
L 142.144845 -29.227195 
L 142.089323 -29.228888 
L 142.034245 -29.230582 
L 141.979551 -29.232276 
L 141.925184 -29.23397 
L 141.871081 -29.235664 
L 141.817175 -29.237358 
L 141.763401 -29.239051 
L 141.709689 -29.240745 
L 141.655971 -29.242439 
L 141.602176 -29.244133 
L 141.548236 -29.245827 
L 141.494082 -29.247521 
L 141.439647 -29.249214 
L 141.384866 -29.250908 
L 141.329677 -29.252602 
L 141.274021 -29.254296 
L 141.217843 -29.25599 
L 141.161091 -29.257684 
L 141.103719 -29.259377 
L 141.045686 -29.261071 
L 140.986956 -29.262765 
L 140.927501 -29.264459 
L 140.867298 -29.266153 
L 140.806331 -29.267847 
L 140.744592 -29.26954 
L 140.682079 -29.271234 
L 140.6188 -29.272928 
L 140.554769 -29.274622 
L 140.49001 -29.276316 
L 140.424553 -29.27801 
L 140.358439 -29.279703 
L 140.291714 -29.281397 
L 140.224436 -29.283091 
L 140.156668 -29.284785 
L 140.088483 -29.286479 
L 140.019962 -29.288173 
L 139.951192 -29.289866 
L 139.882269 -29.29156 
L 139.813297 -29.293254 
L 139.744384 -29.294948 
L 139.675647 -29.296642 
L 139.607209 -29.298336 
L 139.539197 -29.300029 
L 139.471744 -29.301723 
L 139.40499 -29.303417 
L 139.339076 -29.305111 
L 139.274147 -29.306805 
L 139.210354 -29.308499 
L 139.147849 -29.310192 
L 139.086784 -29.311886 
L 139.027315 -29.31358 
L 138.969599 -29.315274 
L 138.913792 -29.316968 
L 138.860051 -29.318662 
L 138.80853 -29.320355 
L 138.759383 -29.322049 
L 138.712762 -29.323743 
L 138.668817 -29.325437 
L 138.627693 -29.327131 
L 138.589532 -29.328825 
L 138.554472 -29.330518 
L 138.522647 -29.332212 
L 138.494184 -29.333906 
L 138.469205 -29.3356 
L 138.447827 -29.337294 
L 138.430158 -29.338988 
L 138.4163 -29.340681 
L 138.406349 -29.342375 
L 138.400392 -29.344069 
L 138.398506 -29.345763 
L 138.400764 -29.347457 
L 138.407226 -29.349151 
L 138.417946 -29.350844 
L 138.432968 -29.352538 
L 138.452325 -29.354232 
L 138.476045 -29.355926 
L 138.504142 -29.35762 
L 138.536622 -29.359314 
L 138.573482 -29.361007 
L 138.61471 -29.362701 
L 138.660282 -29.364395 
L 138.710165 -29.366089 
L 138.76432 -29.367783 
L 138.822693 -29.369477 
L 138.885226 -29.37117 
L 138.951848 -29.372864 
L 139.022482 -29.374558 
L 139.09704 -29.376252 
L 139.175427 -29.377946 
L 139.25754 -29.37964 
L 139.343268 -29.381333 
L 139.432492 -29.383027 
L 139.525086 -29.384721 
L 139.620919 -29.386415 
L 139.719851 -29.388109 
L 139.821738 -29.389803 
L 153.020351 -29.389803 
L 153.020351 -29.389803 
L 153.122238 -29.388109 
L 153.22117 -29.386415 
L 153.317003 -29.384721 
L 153.409597 -29.383027 
L 153.498821 -29.381333 
L 153.584549 -29.37964 
L 153.666662 -29.377946 
L 153.745049 -29.376252 
L 153.819607 -29.374558 
L 153.890241 -29.372864 
L 153.956863 -29.37117 
L 154.019396 -29.369477 
L 154.077769 -29.367783 
L 154.131924 -29.366089 
L 154.181807 -29.364395 
L 154.227379 -29.362701 
L 154.268607 -29.361007 
L 154.305467 -29.359314 
L 154.337947 -29.35762 
L 154.366044 -29.355926 
L 154.389764 -29.354232 
L 154.409121 -29.352538 
L 154.424143 -29.350844 
L 154.434863 -29.349151 
L 154.441325 -29.347457 
L 154.443583 -29.345763 
L 154.441697 -29.344069 
L 154.43574 -29.342375 
L 154.425789 -29.340681 
L 154.411931 -29.338988 
L 154.394262 -29.337294 
L 154.372884 -29.3356 
L 154.347905 -29.333906 
L 154.319442 -29.332212 
L 154.287617 -29.330518 
L 154.252557 -29.328825 
L 154.214396 -29.327131 
L 154.173272 -29.325437 
L 154.129327 -29.323743 
L 154.082706 -29.322049 
L 154.033559 -29.320355 
L 153.982038 -29.318662 
L 153.928297 -29.316968 
L 153.87249 -29.315274 
L 153.814774 -29.31358 
L 153.755305 -29.311886 
L 153.69424 -29.310192 
L 153.631735 -29.308499 
L 153.567942 -29.306805 
L 153.503013 -29.305111 
L 153.437099 -29.303417 
L 153.370345 -29.301723 
L 153.302892 -29.300029 
L 153.23488 -29.298336 
L 153.166442 -29.296642 
L 153.097705 -29.294948 
L 153.028792 -29.293254 
L 152.95982 -29.29156 
L 152.890897 -29.289866 
L 152.822127 -29.288173 
L 152.753606 -29.286479 
L 152.685421 -29.284785 
L 152.617653 -29.283091 
L 152.550375 -29.281397 
L 152.48365 -29.279703 
L 152.417536 -29.27801 
L 152.352079 -29.276316 
L 152.28732 -29.274622 
L 152.223289 -29.272928 
L 152.16001 -29.271234 
L 152.097497 -29.26954 
L 152.035758 -29.267847 
L 151.974791 -29.266153 
L 151.914588 -29.264459 
L 151.855133 -29.262765 
L 151.796403 -29.261071 
L 151.73837 -29.259377 
L 151.680998 -29.257684 
L 151.624246 -29.25599 
L 151.568068 -29.254296 
L 151.512412 -29.252602 
L 151.457223 -29.250908 
L 151.402442 -29.249214 
L 151.348007 -29.247521 
L 151.293853 -29.245827 
L 151.239913 -29.244133 
L 151.186118 -29.242439 
L 151.1324 -29.240745 
L 151.078688 -29.239051 
L 151.024914 -29.237358 
L 150.971008 -29.235664 
L 150.916905 -29.23397 
L 150.862538 -29.232276 
L 150.807844 -29.230582 
L 150.752766 -29.228888 
L 150.697244 -29.227195 
L 150.641228 -29.225501 
L 150.584668 -29.223807 
L 150.527522 -29.222113 
z
" style="stroke: #333333; stroke-width: 0.3"/>
    </defs>
    <g clip-path="url(#p6e9b88df02)">
     <use xlink:href="#m4f6e4f8b87" x="0" y="131.238387" style="fill: #3c2f7b; stroke: #333333; stroke-width: 0.3"/>
    </g>
   </g>
   <g id="PolyCollection_6">
    <defs>
     <path id="mea4cc2a3d9" d="M 163.618933 -28.817859 
L 161.313309 -28.817859 
L 160.846706 -28.899681 
L 160.301337 -28.981502 
L 159.702051 -29.063324 
L 159.079555 -29.145145 
L 158.463116 -29.226967 
L 157.874204 -29.308788 
L 157.323773 -29.39061 
L 156.814113 -29.472431 
L 156.343894 -29.554253 
L 155.913489 -29.636074 
L 155.527772 -29.717896 
L 155.195258 -29.799717 
L 154.92451 -29.881539 
L 154.720027 -29.96336 
L 154.579786 -30.045182 
L 154.495404 -30.127003 
L 154.454455 -30.208825 
L 154.443583 -30.290646 
L 154.450991 -30.372468 
L 154.467566 -30.454289 
L 154.48672 -30.536111 
L 154.503661 -30.617932 
L 154.514923 -30.699754 
L 154.51861 -30.781575 
L 154.515247 -30.863397 
L 154.508591 -30.945218 
L 154.505669 -31.02704 
L 154.515711 -31.108861 
L 154.548256 -31.190683 
L 154.61116 -31.272504 
L 154.70919 -31.354326 
L 154.843398 -31.436147 
L 155.011069 -31.517969 
L 155.205907 -31.59979 
L 155.418491 -31.681612 
L 155.637282 -31.763433 
L 155.850354 -31.845255 
L 156.047535 -31.927076 
L 156.222161 -32.008898 
L 156.371634 -32.090719 
L 156.496572 -32.172541 
L 156.59909 -32.254362 
L 156.68118 -32.336184 
L 156.743991 -32.418005 
L 156.788267 -32.499827 
L 156.815664 -32.581648 
L 156.830493 -32.66347 
L 156.841439 -32.745291 
L 156.862708 -32.827113 
L 156.913839 -32.908934 
L 157.017278 -32.990756 
L 157.193409 -33.072577 
L 157.454062 -33.154399 
L 157.796806 -33.23622 
L 158.202793 -33.318042 
L 158.639752 -33.399863 
L 159.069502 -33.481685 
L 159.457299 -33.563506 
L 159.779534 -33.645328 
L 160.027285 -33.727149 
L 160.205193 -33.808971 
L 160.327069 -33.890792 
L 160.41052 -33.972614 
L 160.472588 -34.054435 
L 160.527298 -34.136257 
L 160.584893 -34.218078 
L 160.651968 -34.2999 
L 160.731786 -34.381721 
L 160.824557 -34.463543 
L 160.92788 -34.545364 
L 161.037651 -34.627186 
L 161.149405 -34.709007 
L 161.259663 -34.790829 
L 161.366677 -34.87265 
L 161.470234 -34.954472 
L 161.570663 -35.036293 
L 161.66767 -35.118115 
L 161.759704 -35.199936 
L 161.844194 -35.281758 
L 161.918514 -35.363579 
L 161.981093 -35.445401 
L 162.03209 -35.527222 
L 162.073332 -35.609044 
L 162.107629 -35.690865 
L 162.137884 -35.772687 
L 162.166405 -35.854508 
L 162.194636 -35.93633 
L 162.223256 -36.018151 
L 162.252419 -36.099973 
L 162.281921 -36.181794 
L 162.311243 -36.263616 
L 162.339546 -36.345437 
L 162.365739 -36.427259 
L 162.388704 -36.50908 
L 162.407604 -36.590902 
L 162.422143 -36.672723 
L 162.432652 -36.754545 
L 162.439955 -36.836366 
L 162.445086 -36.918188 
L 162.487155 -36.918188 
L 162.487155 -36.918188 
L 162.492287 -36.836366 
L 162.49959 -36.754545 
L 162.510099 -36.672723 
L 162.524637 -36.590902 
L 162.543537 -36.50908 
L 162.566502 -36.427259 
L 162.592695 -36.345437 
L 162.620998 -36.263616 
L 162.650321 -36.181794 
L 162.679822 -36.099973 
L 162.708985 -36.018151 
L 162.737605 -35.93633 
L 162.765836 -35.854508 
L 162.794357 -35.772687 
L 162.824613 -35.690865 
L 162.85891 -35.609044 
L 162.900151 -35.527222 
L 162.951148 -35.445401 
L 163.013727 -35.363579 
L 163.088047 -35.281758 
L 163.172537 -35.199936 
L 163.264571 -35.118115 
L 163.361579 -35.036293 
L 163.462007 -34.954472 
L 163.565564 -34.87265 
L 163.672579 -34.790829 
L 163.782836 -34.709007 
L 163.894591 -34.627186 
L 164.004362 -34.545364 
L 164.107685 -34.463543 
L 164.200455 -34.381721 
L 164.280273 -34.2999 
L 164.347348 -34.218078 
L 164.404944 -34.136257 
L 164.459654 -34.054435 
L 164.521722 -33.972614 
L 164.605172 -33.890792 
L 164.727048 -33.808971 
L 164.904957 -33.727149 
L 165.152707 -33.645328 
L 165.474942 -33.563506 
L 165.862739 -33.481685 
L 166.292489 -33.399863 
L 166.729448 -33.318042 
L 167.135436 -33.23622 
L 167.478179 -33.154399 
L 167.738832 -33.072577 
L 167.914964 -32.990756 
L 168.018402 -32.908934 
L 168.069534 -32.827113 
L 168.090803 -32.745291 
L 168.101748 -32.66347 
L 168.116578 -32.581648 
L 168.143974 -32.499827 
L 168.18825 -32.418005 
L 168.251061 -32.336184 
L 168.333151 -32.254362 
L 168.435669 -32.172541 
L 168.560607 -32.090719 
L 168.71008 -32.008898 
L 168.884706 -31.927076 
L 169.081888 -31.845255 
L 169.294959 -31.763433 
L 169.51375 -31.681612 
L 169.726334 -31.59979 
L 169.921172 -31.517969 
L 170.088843 -31.436147 
L 170.223052 -31.354326 
L 170.321081 -31.272504 
L 170.383985 -31.190683 
L 170.41653 -31.108861 
L 170.426572 -31.02704 
L 170.42365 -30.945218 
L 170.416994 -30.863397 
L 170.413632 -30.781575 
L 170.417318 -30.699754 
L 170.42858 -30.617932 
L 170.445522 -30.536111 
L 170.464675 -30.454289 
L 170.48125 -30.372468 
L 170.488659 -30.290646 
L 170.477786 -30.208825 
L 170.436838 -30.127003 
L 170.352455 -30.045182 
L 170.212215 -29.96336 
L 170.007731 -29.881539 
L 169.736983 -29.799717 
L 169.40447 -29.717896 
L 169.018752 -29.636074 
L 168.588347 -29.554253 
L 168.118129 -29.472431 
L 167.608468 -29.39061 
L 167.058037 -29.308788 
L 166.469125 -29.226967 
L 165.852687 -29.145145 
L 165.230191 -29.063324 
L 164.630904 -28.981502 
L 164.085535 -28.899681 
L 163.618933 -28.817859 
z
" style="stroke: #333333; stroke-width: 0.3"/>
    </defs>
    <g clip-path="url(#p6e9b88df02)">
     <use xlink:href="#mea4cc2a3d9" x="0" y="131.238387" style="fill: #519d91; stroke: #333333; stroke-width: 0.3"/>
    </g>
   </g>
   <g id="PolyCollection_7">
    <defs>
     <path id="mc563d2bd9e" d="M 180.922603 -32.074678 
L 176.09979 -32.074678 
L 175.3046 -32.347114 
L 174.50048 -32.61955 
L 173.743311 -32.891986 
L 173.063187 -33.164422 
L 172.465335 -33.436858 
L 171.945216 -33.709294 
L 171.504443 -33.98173 
L 171.154354 -34.254166 
L 170.905255 -34.526602 
L 170.751775 -34.799038 
L 170.667852 -35.071474 
L 170.616874 -35.34391 
L 170.570411 -35.616346 
L 170.522383 -35.888782 
L 170.488659 -36.161218 
L 170.492221 -36.433654 
L 170.544025 -36.70609 
L 170.632653 -36.978526 
L 170.729631 -37.250962 
L 170.80615 -37.523398 
L 170.849107 -37.795834 
L 170.865756 -38.06827 
L 170.875472 -38.340706 
L 170.896421 -38.613142 
L 170.93683 -38.885577 
L 170.994605 -39.158013 
L 171.061705 -39.430449 
L 171.127884 -39.702885 
L 171.182492 -39.975321 
L 171.217297 -40.247757 
L 171.2323 -40.520193 
L 171.241612 -40.792629 
L 171.273459 -41.065065 
L 171.361224 -41.337501 
L 171.528875 -41.609937 
L 171.778593 -41.882373 
L 172.087242 -42.154809 
L 172.413104 -42.427245 
L 172.709104 -42.699681 
L 172.936976 -42.972117 
L 173.07818 -43.244553 
L 173.13967 -43.516989 
L 173.153572 -43.789425 
L 173.170022 -44.061861 
L 173.243675 -44.334297 
L 173.417213 -44.606733 
L 173.707811 -44.879169 
L 174.102174 -45.151605 
L 174.562051 -45.424041 
L 175.037241 -45.696477 
L 175.480197 -45.968913 
L 175.856886 -46.241349 
L 176.151494 -46.513785 
L 176.365685 -46.786221 
L 176.514461 -47.058657 
L 176.620341 -47.331093 
L 176.706753 -47.603529 
L 176.791586 -47.875965 
L 176.882541 -48.148401 
L 176.976168 -48.420837 
L 177.061327 -48.693273 
L 177.125769 -48.965709 
L 177.162871 -49.238145 
L 177.175447 -49.510581 
L 177.174994 -49.783017 
L 177.176958 -50.055453 
L 177.194526 -50.327889 
L 177.234005 -50.600325 
L 177.293844 -50.872761 
L 177.367307 -51.145197 
L 177.44688 -51.417633 
L 177.527887 -51.690069 
L 177.609626 -51.962505 
L 177.693993 -52.234941 
L 177.782885 -52.507376 
L 177.876062 -52.779812 
L 177.970537 -53.052248 
L 178.061567 -53.324684 
L 178.144467 -53.59712 
L 178.216198 -53.869556 
L 178.275949 -54.141992 
L 178.324654 -54.414428 
L 178.36395 -54.686864 
L 178.395296 -54.9593 
L 178.419657 -55.231736 
L 178.437732 -55.504172 
L 178.450346 -55.776608 
L 178.458693 -56.049044 
L 178.464273 -56.32148 
L 178.468601 -56.593916 
L 178.472851 -56.866352 
L 178.477604 -57.138788 
L 178.482808 -57.411224 
L 178.48796 -57.68366 
L 178.492436 -57.956096 
L 178.495824 -58.228532 
L 178.498105 -58.500968 
L 178.499622 -58.773404 
L 178.500871 -59.04584 
L 178.521522 -59.04584 
L 178.521522 -59.04584 
L 178.522772 -58.773404 
L 178.524289 -58.500968 
L 178.52657 -58.228532 
L 178.529958 -57.956096 
L 178.534434 -57.68366 
L 178.539586 -57.411224 
L 178.54479 -57.138788 
L 178.549543 -56.866352 
L 178.553793 -56.593916 
L 178.558121 -56.32148 
L 178.5637 -56.049044 
L 178.572047 -55.776608 
L 178.584661 -55.504172 
L 178.602736 -55.231736 
L 178.627098 -54.9593 
L 178.658443 -54.686864 
L 178.69774 -54.414428 
L 178.746445 -54.141992 
L 178.806196 -53.869556 
L 178.877926 -53.59712 
L 178.960827 -53.324684 
L 179.051857 -53.052248 
L 179.146332 -52.779812 
L 179.239509 -52.507376 
L 179.328401 -52.234941 
L 179.412768 -51.962505 
L 179.494507 -51.690069 
L 179.575513 -51.417633 
L 179.655086 -51.145197 
L 179.728549 -50.872761 
L 179.788389 -50.600325 
L 179.827867 -50.327889 
L 179.845436 -50.055453 
L 179.8474 -49.783017 
L 179.846946 -49.510581 
L 179.859523 -49.238145 
L 179.896624 -48.965709 
L 179.961066 -48.693273 
L 180.046226 -48.420837 
L 180.139853 -48.148401 
L 180.230807 -47.875965 
L 180.31564 -47.603529 
L 180.402053 -47.331093 
L 180.507932 -47.058657 
L 180.656708 -46.786221 
L 180.870899 -46.513785 
L 181.165508 -46.241349 
L 181.542196 -45.968913 
L 181.985153 -45.696477 
L 182.460342 -45.424041 
L 182.92022 -45.151605 
L 183.314583 -44.879169 
L 183.605181 -44.606733 
L 183.778719 -44.334297 
L 183.852371 -44.061861 
L 183.868822 -43.789425 
L 183.882723 -43.516989 
L 183.944214 -43.244553 
L 184.085418 -42.972117 
L 184.313289 -42.699681 
L 184.60929 -42.427245 
L 184.935151 -42.154809 
L 185.243801 -41.882373 
L 185.493519 -41.609937 
L 185.66117 -41.337501 
L 185.748934 -41.065065 
L 185.780782 -40.792629 
L 185.790094 -40.520193 
L 185.805096 -40.247757 
L 185.839901 -39.975321 
L 185.89451 -39.702885 
L 185.960688 -39.430449 
L 186.027789 -39.158013 
L 186.085564 -38.885577 
L 186.125973 -38.613142 
L 186.146922 -38.340706 
L 186.156638 -38.06827 
L 186.173287 -37.795834 
L 186.216244 -37.523398 
L 186.292763 -37.250962 
L 186.38974 -36.978526 
L 186.478369 -36.70609 
L 186.530173 -36.433654 
L 186.533735 -36.161218 
L 186.50001 -35.888782 
L 186.451983 -35.616346 
L 186.40552 -35.34391 
L 186.354542 -35.071474 
L 186.270619 -34.799038 
L 186.117138 -34.526602 
L 185.86804 -34.254166 
L 185.51795 -33.98173 
L 185.077178 -33.709294 
L 184.557059 -33.436858 
L 183.959207 -33.164422 
L 183.279083 -32.891986 
L 182.521914 -32.61955 
L 181.717793 -32.347114 
L 180.922603 -32.074678 
z
" style="stroke: #333333; stroke-width: 0.3"/>
    </defs>
    <g clip-path="url(#p6e9b88df02)">
     <use xlink:href="#mc563d2bd9e" x="0" y="131.238387" style="fill: #bf7380; stroke: #333333; stroke-width: 0.3"/>
    </g>
   </g>
   <g id="PolyCollection_8">
    <defs>
     <path id="m1c79d68ef8" d="M 195.585892 -51.818191 
L 193.526654 -51.818191 
L 193.444474 -51.952612 
L 193.357657 -52.087033 
L 193.2662 -52.221454 
L 193.170184 -52.355876 
L 193.069793 -52.490297 
L 192.965326 -52.624718 
L 192.8572 -52.759139 
L 192.745957 -52.89356 
L 192.632257 -53.027981 
L 192.516869 -53.162402 
L 192.400655 -53.296823 
L 192.284547 -53.431244 
L 192.169518 -53.565665 
L 192.056545 -53.700087 
L 191.946574 -53.834508 
L 191.840478 -53.968929 
L 191.739012 -54.10335 
L 191.642777 -54.237771 
L 191.55218 -54.372192 
L 191.467397 -54.506613 
L 191.388355 -54.641034 
L 191.314704 -54.775455 
L 191.245817 -54.909877 
L 191.180786 -55.044298 
L 191.118439 -55.178719 
L 191.057359 -55.31314 
L 190.995925 -55.447561 
L 190.932352 -55.581982 
L 190.864746 -55.716403 
L 190.79117 -55.850824 
L 190.709701 -55.985245 
L 190.618511 -56.119667 
L 190.515931 -56.254088 
L 190.400527 -56.388509 
L 190.271163 -56.52293 
L 190.127061 -56.657351 
L 189.967859 -56.791772 
L 189.793644 -56.926193 
L 189.60499 -57.060614 
L 189.402964 -57.195035 
L 189.189129 -57.329457 
L 188.965524 -57.463878 
L 188.734632 -57.598299 
L 188.499327 -57.73272 
L 188.262807 -57.867141 
L 188.028514 -58.001562 
L 187.800047 -58.135983 
L 187.581055 -58.270404 
L 187.375135 -58.404825 
L 187.185727 -58.539246 
L 187.016007 -58.673668 
L 186.868788 -58.808089 
L 186.746439 -58.94251 
L 186.650803 -59.076931 
L 186.583146 -59.211352 
L 186.544117 -59.345773 
L 186.533735 -59.480194 
L 186.551388 -59.614615 
L 186.595863 -59.749036 
L 186.665394 -59.883458 
L 186.757721 -60.017879 
L 186.870173 -60.1523 
L 186.999761 -60.286721 
L 187.14327 -60.421142 
L 187.297372 -60.555563 
L 187.45872 -60.689984 
L 187.624056 -60.824405 
L 187.790296 -60.958826 
L 187.954617 -61.093248 
L 188.114525 -61.227669 
L 188.267908 -61.36209 
L 188.413079 -61.496511 
L 188.548799 -61.630932 
L 188.674286 -61.765353 
L 188.789209 -61.899774 
L 188.893671 -62.034195 
L 188.988177 -62.168616 
L 189.073595 -62.303038 
L 189.15111 -62.437459 
L 189.222165 -62.57188 
L 189.288409 -62.706301 
L 189.351633 -62.840722 
L 189.41371 -62.975143 
L 189.476535 -63.109564 
L 189.541967 -63.243985 
L 189.611775 -63.378406 
L 189.687588 -63.512827 
L 189.77085 -63.647249 
L 189.862782 -63.78167 
L 189.964352 -63.916091 
L 190.076249 -64.050512 
L 190.198873 -64.184933 
L 190.332324 -64.319354 
L 190.476405 -64.453775 
L 190.630634 -64.588196 
L 190.79426 -64.722617 
L 190.966289 -64.857039 
L 191.145516 -64.99146 
L 191.330562 -65.125881 
L 197.781984 -65.125881 
L 197.781984 -65.125881 
L 197.96703 -64.99146 
L 198.146257 -64.857039 
L 198.318286 -64.722617 
L 198.481912 -64.588196 
L 198.636141 -64.453775 
L 198.780222 -64.319354 
L 198.913673 -64.184933 
L 199.036297 -64.050512 
L 199.148194 -63.916091 
L 199.249764 -63.78167 
L 199.341696 -63.647249 
L 199.424958 -63.512827 
L 199.500771 -63.378406 
L 199.570579 -63.243985 
L 199.636011 -63.109564 
L 199.698836 -62.975143 
L 199.760913 -62.840722 
L 199.824137 -62.706301 
L 199.890381 -62.57188 
L 199.961436 -62.437459 
L 200.038951 -62.303038 
L 200.124369 -62.168616 
L 200.218875 -62.034195 
L 200.323337 -61.899774 
L 200.43826 -61.765353 
L 200.563747 -61.630932 
L 200.699467 -61.496511 
L 200.844638 -61.36209 
L 200.998021 -61.227669 
L 201.157929 -61.093248 
L 201.32225 -60.958826 
L 201.48849 -60.824405 
L 201.653826 -60.689984 
L 201.815174 -60.555563 
L 201.969276 -60.421142 
L 202.112785 -60.286721 
L 202.242373 -60.1523 
L 202.354825 -60.017879 
L 202.447152 -59.883458 
L 202.516683 -59.749036 
L 202.561158 -59.614615 
L 202.578811 -59.480194 
L 202.568429 -59.345773 
L 202.5294 -59.211352 
L 202.461743 -59.076931 
L 202.366107 -58.94251 
L 202.243758 -58.808089 
L 202.096539 -58.673668 
L 201.926819 -58.539246 
L 201.737411 -58.404825 
L 201.531491 -58.270404 
L 201.312499 -58.135983 
L 201.084032 -58.001562 
L 200.849739 -57.867141 
L 200.613219 -57.73272 
L 200.377914 -57.598299 
L 200.147022 -57.463878 
L 199.923417 -57.329457 
L 199.709582 -57.195035 
L 199.507556 -57.060614 
L 199.318902 -56.926193 
L 199.144687 -56.791772 
L 198.985485 -56.657351 
L 198.841383 -56.52293 
L 198.712019 -56.388509 
L 198.596615 -56.254088 
L 198.494035 -56.119667 
L 198.402845 -55.985245 
L 198.321376 -55.850824 
L 198.247799 -55.716403 
L 198.180194 -55.581982 
L 198.116621 -55.447561 
L 198.055187 -55.31314 
L 197.994107 -55.178719 
L 197.93176 -55.044298 
L 197.866729 -54.909877 
L 197.797842 -54.775455 
L 197.724191 -54.641034 
L 197.645149 -54.506613 
L 197.560366 -54.372192 
L 197.469769 -54.237771 
L 197.373534 -54.10335 
L 197.272068 -53.968929 
L 197.165972 -53.834508 
L 197.056001 -53.700087 
L 196.943028 -53.565665 
L 196.827999 -53.431244 
L 196.711891 -53.296823 
L 196.595677 -53.162402 
L 196.480289 -53.027981 
L 196.366589 -52.89356 
L 196.255346 -52.759139 
L 196.14722 -52.624718 
L 196.042753 -52.490297 
L 195.942362 -52.355876 
L 195.846346 -52.221454 
L 195.754889 -52.087033 
L 195.668072 -51.952612 
L 195.585892 -51.818191 
z
" style="stroke: #333333; stroke-width: 0.3"/>
    </defs>
    <g clip-path="url(#p6e9b88df02)">
     <use xlink:href="#m1c79d68ef8" x="0" y="131.238387" style="fill: #7b2f55; stroke: #333333; stroke-width: 0.3"/>
    </g>
   </g>
   <g id="PolyCollection_9">
    <defs>
     <path id="m801b4d34ef" d="M 243.421171 -30.132407 
L 241.961832 -30.132407 
L 241.916301 -30.221441 
L 241.869404 -30.310475 
L 241.820842 -30.399509 
L 241.770252 -30.488544 
L 241.717216 -30.577578 
L 241.661265 -30.666612 
L 241.601898 -30.755646 
L 241.538595 -30.84468 
L 241.47083 -30.933715 
L 241.398097 -31.022749 
L 241.31992 -31.111783 
L 241.235878 -31.200817 
L 241.145615 -31.289852 
L 241.04886 -31.378886 
L 240.945437 -31.46792 
L 240.835274 -31.556954 
L 240.71841 -31.645988 
L 240.594997 -31.735023 
L 240.465299 -31.824057 
L 240.32969 -31.913091 
L 240.188648 -32.002125 
L 240.042747 -32.091159 
L 239.892647 -32.180194 
L 239.739088 -32.269228 
L 239.582876 -32.358262 
L 239.42488 -32.447296 
L 239.266019 -32.53633 
L 239.107256 -32.625365 
L 238.949592 -32.714399 
L 238.794055 -32.803433 
L 238.641697 -32.892467 
L 238.493579 -32.981502 
L 238.350762 -33.070536 
L 238.214289 -33.15957 
L 238.085168 -33.248604 
L 237.964347 -33.337638 
L 237.852691 -33.426673 
L 237.750945 -33.515707 
L 237.659709 -33.604741 
L 237.579399 -33.693775 
L 237.510216 -33.782809 
L 237.45212 -33.871844 
L 237.404798 -33.960878 
L 237.367651 -34.049912 
L 237.339785 -34.138946 
L 237.32001 -34.22798 
L 237.306856 -34.317015 
L 237.298597 -34.406049 
L 237.293291 -34.495083 
L 237.288829 -34.584117 
L 237.282996 -34.673152 
L 237.273536 -34.762186 
L 237.258232 -34.85122 
L 237.234977 -34.940254 
L 237.201855 -35.029288 
L 237.15721 -35.118323 
L 237.099715 -35.207357 
L 237.028426 -35.296391 
L 236.942827 -35.385425 
L 236.842863 -35.474459 
L 236.728948 -35.563494 
L 236.601974 -35.652528 
L 236.463284 -35.741562 
L 236.314648 -35.830596 
L 236.158217 -35.91963 
L 235.99646 -36.008665 
L 235.832106 -36.097699 
L 235.668065 -36.186733 
L 235.507356 -36.275767 
L 235.353027 -36.364802 
L 235.208078 -36.453836 
L 235.075392 -36.54287 
L 234.957669 -36.631904 
L 234.857371 -36.720938 
L 234.776674 -36.809973 
L 234.717429 -36.899007 
L 234.681144 -36.988041 
L 234.668963 -37.077075 
L 234.681665 -37.166109 
L 234.719666 -37.255144 
L 234.783037 -37.344178 
L 234.87152 -37.433212 
L 234.98455 -37.522246 
L 235.121288 -37.61128 
L 235.28065 -37.700315 
L 235.461333 -37.789349 
L 235.66185 -37.878383 
L 235.880557 -37.967417 
L 236.11568 -38.056452 
L 236.365344 -38.145486 
L 236.62759 -38.23452 
L 236.900404 -38.323554 
L 237.181732 -38.412588 
L 237.469505 -38.501623 
L 237.761653 -38.590657 
L 238.056128 -38.679691 
L 238.35092 -38.768725 
L 238.644077 -38.857759 
L 238.933728 -38.946794 
L 246.449275 -38.946794 
L 246.449275 -38.946794 
L 246.738926 -38.857759 
L 247.032083 -38.768725 
L 247.326875 -38.679691 
L 247.62135 -38.590657 
L 247.913498 -38.501623 
L 248.201271 -38.412588 
L 248.482599 -38.323554 
L 248.755413 -38.23452 
L 249.017659 -38.145486 
L 249.267323 -38.056452 
L 249.502446 -37.967417 
L 249.721153 -37.878383 
L 249.92167 -37.789349 
L 250.102353 -37.700315 
L 250.261715 -37.61128 
L 250.398453 -37.522246 
L 250.511483 -37.433212 
L 250.599965 -37.344178 
L 250.663337 -37.255144 
L 250.701338 -37.166109 
L 250.71404 -37.077075 
L 250.701859 -36.988041 
L 250.665574 -36.899007 
L 250.606329 -36.809973 
L 250.525632 -36.720938 
L 250.425334 -36.631904 
L 250.307611 -36.54287 
L 250.174925 -36.453836 
L 250.029976 -36.364802 
L 249.875646 -36.275767 
L 249.714938 -36.186733 
L 249.550897 -36.097699 
L 249.386543 -36.008665 
L 249.224786 -35.91963 
L 249.068355 -35.830596 
L 248.919719 -35.741562 
L 248.781029 -35.652528 
L 248.654055 -35.563494 
L 248.54014 -35.474459 
L 248.440176 -35.385425 
L 248.354577 -35.296391 
L 248.283288 -35.207357 
L 248.225793 -35.118323 
L 248.181148 -35.029288 
L 248.148026 -34.940254 
L 248.124771 -34.85122 
L 248.109467 -34.762186 
L 248.100007 -34.673152 
L 248.094174 -34.584117 
L 248.089712 -34.495083 
L 248.084406 -34.406049 
L 248.076147 -34.317015 
L 248.062993 -34.22798 
L 248.043218 -34.138946 
L 248.015352 -34.049912 
L 247.978205 -33.960878 
L 247.930883 -33.871844 
L 247.872787 -33.782809 
L 247.803604 -33.693775 
L 247.723294 -33.604741 
L 247.632058 -33.515707 
L 247.530312 -33.426673 
L 247.418656 -33.337638 
L 247.297835 -33.248604 
L 247.168714 -33.15957 
L 247.032241 -33.070536 
L 246.889424 -32.981502 
L 246.741306 -32.892467 
L 246.588948 -32.803433 
L 246.433411 -32.714399 
L 246.275747 -32.625365 
L 246.116984 -32.53633 
L 245.958123 -32.447296 
L 245.800127 -32.358262 
L 245.643915 -32.269228 
L 245.490356 -32.180194 
L 245.340256 -32.091159 
L 245.194355 -32.002125 
L 245.053313 -31.913091 
L 244.917704 -31.824057 
L 244.788006 -31.735023 
L 244.664593 -31.645988 
L 244.547729 -31.556954 
L 244.437566 -31.46792 
L 244.334143 -31.378886 
L 244.237388 -31.289852 
L 244.147125 -31.200817 
L 244.063083 -31.111783 
L 243.984906 -31.022749 
L 243.912173 -30.933715 
L 243.844408 -30.84468 
L 243.781105 -30.755646 
L 243.721738 -30.666612 
L 243.665787 -30.577578 
L 243.612751 -30.488544 
L 243.562161 -30.399509 
L 243.513599 -30.310475 
L 243.466702 -30.221441 
L 243.421171 -30.132407 
z
" style="stroke: #333333; stroke-width: 0.3"/>
    </defs>
    <g clip-path="url(#p6e9b88df02)">
     <use xlink:href="#m801b4d34ef" x="0" y="131.238387" style="fill: #519d91; stroke: #333333; stroke-width: 0.3"/>
    </g>
   </g>
   <g id="PolyCollection_10">
    <defs>
     <path id="m9699d93f09" d="M 263.261056 -36.661924 
L 254.2121 -36.661924 
L 254.044056 -36.791946 
L 253.878937 -36.921967 
L 253.717186 -37.051989 
L 253.559203 -37.18201 
L 253.405342 -37.312032 
L 253.255908 -37.442053 
L 253.111153 -37.572075 
L 252.971279 -37.702096 
L 252.836434 -37.832118 
L 252.706716 -37.962139 
L 252.582173 -38.092161 
L 252.462809 -38.222182 
L 252.348584 -38.352204 
L 252.23942 -38.482225 
L 252.135209 -38.612247 
L 252.035811 -38.742268 
L 251.941069 -38.87229 
L 251.850806 -39.002311 
L 251.764838 -39.132333 
L 251.682976 -39.262354 
L 251.605031 -39.392376 
L 251.530823 -39.522397 
L 251.460181 -39.652419 
L 251.39295 -39.78244 
L 251.328992 -39.912462 
L 251.268193 -40.042484 
L 251.210461 -40.172505 
L 251.155727 -40.302527 
L 251.10395 -40.432548 
L 251.055111 -40.56257 
L 251.009217 -40.692591 
L 250.966299 -40.822613 
L 250.926405 -40.952634 
L 250.889604 -41.082656 
L 250.855982 -41.212677 
L 250.825634 -41.342699 
L 250.798669 -41.47272 
L 250.775198 -41.602742 
L 250.755338 -41.732763 
L 250.739204 -41.862785 
L 250.726908 -41.992806 
L 250.718554 -42.122828 
L 250.714237 -42.252849 
L 250.71404 -42.382871 
L 250.718028 -42.512892 
L 250.726253 -42.642914 
L 250.738743 -42.772935 
L 250.755507 -42.902957 
L 250.776531 -43.032978 
L 250.801776 -43.163 
L 250.83118 -43.293021 
L 250.864654 -43.423043 
L 250.902083 -43.553064 
L 250.943328 -43.683086 
L 250.988223 -43.813107 
L 251.036579 -43.943129 
L 251.088185 -44.07315 
L 251.142806 -44.203172 
L 251.20019 -44.333194 
L 251.260068 -44.463215 
L 251.322159 -44.593237 
L 251.386169 -44.723258 
L 251.4518 -44.85328 
L 251.518754 -44.983301 
L 251.586733 -45.113323 
L 251.65545 -45.243344 
L 251.724629 -45.373366 
L 251.794015 -45.503387 
L 251.863373 -45.633409 
L 251.932502 -45.76343 
L 252.001231 -45.893452 
L 252.069428 -46.023473 
L 252.137005 -46.153495 
L 252.203917 -46.283516 
L 252.27017 -46.413538 
L 252.335816 -46.543559 
L 252.400961 -46.673581 
L 252.465758 -46.803602 
L 252.530409 -46.933624 
L 252.595164 -47.063645 
L 252.660311 -47.193667 
L 252.726177 -47.323688 
L 252.793121 -47.45371 
L 252.861525 -47.583731 
L 252.931788 -47.713753 
L 253.004318 -47.843774 
L 253.079524 -47.973796 
L 253.157805 -48.103817 
L 253.239542 -48.233839 
L 253.325091 -48.36386 
L 253.414772 -48.493882 
L 253.508863 -48.623904 
L 253.607592 -48.753925 
L 253.711129 -48.883947 
L 253.819587 -49.013968 
L 253.933009 -49.14399 
L 254.051373 -49.274011 
L 254.174587 -49.404033 
L 254.30249 -49.534054 
L 263.170666 -49.534054 
L 263.170666 -49.534054 
L 263.298568 -49.404033 
L 263.421782 -49.274011 
L 263.540146 -49.14399 
L 263.653569 -49.013968 
L 263.762026 -48.883947 
L 263.865564 -48.753925 
L 263.964292 -48.623904 
L 264.058383 -48.493882 
L 264.148064 -48.36386 
L 264.233613 -48.233839 
L 264.31535 -48.103817 
L 264.393631 -47.973796 
L 264.468837 -47.843774 
L 264.541367 -47.713753 
L 264.611631 -47.583731 
L 264.680034 -47.45371 
L 264.746978 -47.323688 
L 264.812845 -47.193667 
L 264.877992 -47.063645 
L 264.942746 -46.933624 
L 265.007398 -46.803602 
L 265.072195 -46.673581 
L 265.137339 -46.543559 
L 265.202986 -46.413538 
L 265.269238 -46.283516 
L 265.336151 -46.153495 
L 265.403727 -46.023473 
L 265.471925 -45.893452 
L 265.540653 -45.76343 
L 265.609782 -45.633409 
L 265.679141 -45.503387 
L 265.748526 -45.373366 
L 265.817705 -45.243344 
L 265.886422 -45.113323 
L 265.954401 -44.983301 
L 266.021355 -44.85328 
L 266.086987 -44.723258 
L 266.150997 -44.593237 
L 266.213087 -44.463215 
L 266.272965 -44.333194 
L 266.33035 -44.203172 
L 266.384971 -44.07315 
L 266.436576 -43.943129 
L 266.484933 -43.813107 
L 266.529828 -43.683086 
L 266.571072 -43.553064 
L 266.608501 -43.423043 
L 266.641975 -43.293021 
L 266.671379 -43.163 
L 266.696624 -43.032978 
L 266.717648 -42.902957 
L 266.734412 -42.772935 
L 266.746902 -42.642914 
L 266.755127 -42.512892 
L 266.759116 -42.382871 
L 266.758918 -42.252849 
L 266.754602 -42.122828 
L 266.746248 -41.992806 
L 266.733951 -41.862785 
L 266.717817 -41.732763 
L 266.697957 -41.602742 
L 266.674487 -41.47272 
L 266.647521 -41.342699 
L 266.617174 -41.212677 
L 266.583551 -41.082656 
L 266.546751 -40.952634 
L 266.506857 -40.822613 
L 266.463938 -40.692591 
L 266.418044 -40.56257 
L 266.369206 -40.432548 
L 266.317428 -40.302527 
L 266.262695 -40.172505 
L 266.204962 -40.042484 
L 266.144163 -39.912462 
L 266.080206 -39.78244 
L 266.012974 -39.652419 
L 265.942332 -39.522397 
L 265.868124 -39.392376 
L 265.79018 -39.262354 
L 265.708317 -39.132333 
L 265.62235 -39.002311 
L 265.532087 -38.87229 
L 265.437344 -38.742268 
L 265.337947 -38.612247 
L 265.233735 -38.482225 
L 265.124571 -38.352204 
L 265.010346 -38.222182 
L 264.890982 -38.092161 
L 264.766439 -37.962139 
L 264.636721 -37.832118 
L 264.501876 -37.702096 
L 264.362002 -37.572075 
L 264.217248 -37.442053 
L 264.067814 -37.312032 
L 263.913953 -37.18201 
L 263.75597 -37.051989 
L 263.594218 -36.921967 
L 263.429099 -36.791946 
L 263.261056 -36.661924 
z
" style="stroke: #333333; stroke-width: 0.3"/>
    </defs>
    <g clip-path="url(#p6e9b88df02)">
     <use xlink:href="#m9699d93f09" x="0" y="131.238387" style="fill: #bf7380; stroke: #333333; stroke-width: 0.3"/>
    </g>
   </g>
   <g id="PolyCollection_11">
    <defs>
     <path id="mb529808a17" d="M 275.599157 -48.904026 
L 273.964151 -48.904026 
L 273.759178 -49.375423 
L 273.520068 -49.84682 
L 273.245239 -50.318217 
L 272.934186 -50.789615 
L 272.587827 -51.261012 
L 272.208815 -51.732409 
L 271.801739 -52.203806 
L 271.373131 -52.675203 
L 270.931237 -53.1466 
L 270.485537 -53.617997 
L 270.046046 -54.089394 
L 269.622501 -54.560791 
L 269.223543 -55.032188 
L 268.856027 -55.503585 
L 268.524569 -55.974982 
L 268.231374 -56.446379 
L 267.976349 -56.917776 
L 267.757437 -57.389173 
L 267.571102 -57.86057 
L 267.412875 -58.331967 
L 267.277918 -58.803365 
L 267.161595 -59.274762 
L 267.06004 -59.746159 
L 266.970732 -60.217556 
L 266.893037 -60.688953 
L 266.828646 -61.16035 
L 266.781788 -61.631747 
L 266.759116 -62.103144 
L 266.769158 -62.574541 
L 266.821354 -63.045938 
L 266.924754 -63.517335 
L 267.086572 -63.988732 
L 267.310842 -64.460129 
L 267.597431 -64.931526 
L 267.941609 -65.402923 
L 268.334261 -65.87432 
L 268.762725 -66.345717 
L 269.2121 -66.817114 
L 269.666785 -67.288512 
L 270.112006 -67.759909 
L 270.53508 -68.231306 
L 270.926279 -68.702703 
L 271.279204 -69.1741 
L 271.590725 -69.645497 
L 271.860569 -70.116894 
L 272.090688 -70.588291 
L 272.28457 -71.059688 
L 272.446577 -71.531085 
L 272.581415 -72.002482 
L 272.693745 -72.473879 
L 272.787942 -72.945276 
L 272.867972 -73.416673 
L 272.93734 -73.88807 
L 272.999081 -74.359467 
L 273.055753 -74.830864 
L 273.109439 -75.302262 
L 273.161739 -75.773659 
L 273.213778 -76.245056 
L 273.266227 -76.716453 
L 273.319355 -77.18785 
L 273.373092 -77.659247 
L 273.427115 -78.130644 
L 273.480929 -78.602041 
L 273.533939 -79.073438 
L 273.585507 -79.544835 
L 273.634994 -80.016232 
L 273.68179 -80.487629 
L 273.725344 -80.959026 
L 273.76519 -81.430423 
L 273.800967 -81.90182 
L 273.83244 -82.373217 
L 273.859512 -82.844614 
L 273.882223 -83.316012 
L 273.900747 -83.787409 
L 273.915384 -84.258806 
L 273.92656 -84.730203 
L 273.934826 -85.2016 
L 273.940851 -85.672997 
L 273.945417 -86.144394 
L 273.949381 -86.615791 
L 273.953629 -87.087188 
L 273.959005 -87.558585 
L 273.966242 -88.029982 
L 273.97591 -88.501379 
L 273.98839 -88.972776 
L 274.003899 -89.444173 
L 274.022536 -89.91557 
L 274.044356 -90.386967 
L 274.069427 -90.858364 
L 274.097861 -91.329762 
L 274.129796 -91.801159 
L 274.16534 -92.272556 
L 274.204488 -92.743953 
L 274.247038 -93.21535 
L 274.292533 -93.686747 
L 274.340246 -94.158144 
L 274.389215 -94.629541 
L 274.438318 -95.100938 
L 274.486371 -95.572335 
L 275.076937 -95.572335 
L 275.076937 -95.572335 
L 275.12499 -95.100938 
L 275.174092 -94.629541 
L 275.223062 -94.158144 
L 275.270775 -93.686747 
L 275.316269 -93.21535 
L 275.358819 -92.743953 
L 275.397968 -92.272556 
L 275.433512 -91.801159 
L 275.465447 -91.329762 
L 275.49388 -90.858364 
L 275.518951 -90.386967 
L 275.540771 -89.91557 
L 275.559409 -89.444173 
L 275.574917 -88.972776 
L 275.587398 -88.501379 
L 275.597065 -88.029982 
L 275.604303 -87.558585 
L 275.609678 -87.087188 
L 275.613926 -86.615791 
L 275.61789 -86.144394 
L 275.622456 -85.672997 
L 275.628482 -85.2016 
L 275.636747 -84.730203 
L 275.647924 -84.258806 
L 275.662561 -83.787409 
L 275.681084 -83.316012 
L 275.703795 -82.844614 
L 275.730867 -82.373217 
L 275.762341 -81.90182 
L 275.798117 -81.430423 
L 275.837963 -80.959026 
L 275.881518 -80.487629 
L 275.928314 -80.016232 
L 275.977801 -79.544835 
L 276.029369 -79.073438 
L 276.082379 -78.602041 
L 276.136193 -78.130644 
L 276.190216 -77.659247 
L 276.243953 -77.18785 
L 276.29708 -76.716453 
L 276.34953 -76.245056 
L 276.401569 -75.773659 
L 276.453869 -75.302262 
L 276.507555 -74.830864 
L 276.564227 -74.359467 
L 276.625967 -73.88807 
L 276.695336 -73.416673 
L 276.775366 -72.945276 
L 276.869563 -72.473879 
L 276.981893 -72.002482 
L 277.116731 -71.531085 
L 277.278738 -71.059688 
L 277.472619 -70.588291 
L 277.702739 -70.116894 
L 277.972582 -69.645497 
L 278.284104 -69.1741 
L 278.637029 -68.702703 
L 279.028227 -68.231306 
L 279.451302 -67.759909 
L 279.896523 -67.288512 
L 280.351208 -66.817114 
L 280.800582 -66.345717 
L 281.229047 -65.87432 
L 281.621699 -65.402923 
L 281.965876 -64.931526 
L 282.252466 -64.460129 
L 282.476736 -63.988732 
L 282.638553 -63.517335 
L 282.741953 -63.045938 
L 282.79415 -62.574541 
L 282.804192 -62.103144 
L 282.78152 -61.631747 
L 282.734662 -61.16035 
L 282.67027 -60.688953 
L 282.592575 -60.217556 
L 282.503268 -59.746159 
L 282.401713 -59.274762 
L 282.28539 -58.803365 
L 282.150433 -58.331967 
L 281.992205 -57.86057 
L 281.80587 -57.389173 
L 281.586959 -56.917776 
L 281.331933 -56.446379 
L 281.038738 -55.974982 
L 280.707281 -55.503585 
L 280.339765 -55.032188 
L 279.940807 -54.560791 
L 279.517262 -54.089394 
L 279.077771 -53.617997 
L 278.63207 -53.1466 
L 278.190177 -52.675203 
L 277.761569 -52.203806 
L 277.354493 -51.732409 
L 276.975481 -51.261012 
L 276.629121 -50.789615 
L 276.318068 -50.318217 
L 276.04324 -49.84682 
L 275.804129 -49.375423 
L 275.599157 -48.904026 
z
" style="stroke: #333333; stroke-width: 0.3"/>
    </defs>
    <g clip-path="url(#p6e9b88df02)">
     <use xlink:href="#mb529808a17" x="0" y="131.238387" style="fill: #7b2f55; stroke: #333333; stroke-width: 0.3"/>
    </g>
   </g>
   <g id="patch_3">
    <path d="M 90.263278 103.248267 
L 90.263278 103.248267 
L 90.263278 103.248267 
L 90.263278 103.248267 
z
" clip-path="url(#p6e9b88df02)" style="fill: #3c2f7b; stroke: #333333; stroke-width: 0.3; stroke-linejoin: miter"/>
   </g>
   <g id="patch_4">
    <path d="M 90.263278 103.248267 
L 90.263278 103.248267 
L 90.263278 103.248267 
L 90.263278 103.248267 
z
" clip-path="url(#p6e9b88df02)" style="fill: #519d91; stroke: #333333; stroke-width: 0.3; stroke-linejoin: miter"/>
   </g>
   <g id="patch_5">
    <path d="M 90.263278 103.248267 
L 90.263278 103.248267 
L 90.263278 103.248267 
L 90.263278 103.248267 
z
" clip-path="url(#p6e9b88df02)" style="fill: #bf7380; stroke: #333333; stroke-width: 0.3; stroke-linejoin: miter"/>
   </g>
   <g id="patch_6">
    <path d="M 90.263278 103.248267 
L 90.263278 103.248267 
L 90.263278 103.248267 
L 90.263278 103.248267 
z
" clip-path="url(#p6e9b88df02)" style="fill: #7b2f55; stroke: #333333; stroke-width: 0.3; stroke-linejoin: miter"/>
   </g>
   <g id="line2d_1">
    <path d="M 66.195664 102.793575 
L 66.195664 102.713078 
" clip-path="url(#p6e9b88df02)" style="fill: none; stroke: #b2b2b2; stroke-width: 1.666667; stroke-linecap: round"/>
   </g>
   <g id="line2d_2">
    <path d="M 66.195664 102.773451 
L 66.195664 102.733202 
" clip-path="url(#p6e9b88df02)" style="fill: none; stroke: #b2b2b2; stroke-width: 5; stroke-linecap: round"/>
   </g>
   <g id="line2d_3">
    <path d="M 66.195664 102.753327 
" clip-path="url(#p6e9b88df02)" style="fill: none; stroke: #333333; stroke-width: 1.2; stroke-linecap: round"/>
    <defs>
     <path id="m462e0ab659" d="M 2.083333 0 
L -2.083333 -0 
" style="stroke: #ffffff"/>
    </defs>
    <g clip-path="url(#p6e9b88df02)">
     <use xlink:href="#m462e0ab659" x="66.195664" y="102.753327" style="fill: #ffffff; stroke: #ffffff"/>
    </g>
   </g>
   <g id="line2d_4">
    <path d="M 82.24074 102.829144 
L 82.24074 97.136717 
" clip-path="url(#p6e9b88df02)" style="fill: none; stroke: #b2b2b2; stroke-width: 1.666667; stroke-linecap: round"/>
   </g>
   <g id="line2d_5">
    <path d="M 82.24074 101.509086 
L 82.24074 99.756828 
" clip-path="url(#p6e9b88df02)" style="fill: none; stroke: #b2b2b2; stroke-width: 5; stroke-linecap: round"/>
   </g>
   <g id="line2d_6">
    <path d="M 82.24074 100.846523 
" clip-path="url(#p6e9b88df02)" style="fill: none; stroke: #333333; stroke-width: 1.2; stroke-linecap: round"/>
    <g clip-path="url(#p6e9b88df02)">
     <use xlink:href="#m462e0ab659" x="82.24074" y="100.846523" style="fill: #ffffff; stroke: #ffffff"/>
    </g>
   </g>
   <g id="line2d_7">
    <path d="M 98.285816 98.906072 
L 98.285816 79.096595 
" clip-path="url(#p6e9b88df02)" style="fill: none; stroke: #b2b2b2; stroke-width: 1.666667; stroke-linecap: round"/>
   </g>
   <g id="line2d_8">
    <path d="M 98.285816 94.314917 
L 98.285816 88.222786 
" clip-path="url(#p6e9b88df02)" style="fill: none; stroke: #b2b2b2; stroke-width: 5; stroke-linecap: round"/>
   </g>
   <g id="line2d_9">
    <path d="M 98.285816 91.453377 
" clip-path="url(#p6e9b88df02)" style="fill: none; stroke: #333333; stroke-width: 1.2; stroke-linecap: round"/>
    <g clip-path="url(#p6e9b88df02)">
     <use xlink:href="#m462e0ab659" x="98.285816" y="91.453377" style="fill: #ffffff; stroke: #ffffff"/>
    </g>
   </g>
   <g id="line2d_10">
    <path d="M 114.330892 85.251415 
L 114.330892 71.037108 
" clip-path="url(#p6e9b88df02)" style="fill: none; stroke: #b2b2b2; stroke-width: 1.666667; stroke-linecap: round"/>
   </g>
   <g id="line2d_11">
    <path d="M 114.330892 81.300987 
L 114.330892 76.796599 
" clip-path="url(#p6e9b88df02)" style="fill: none; stroke: #b2b2b2; stroke-width: 5; stroke-linecap: round"/>
   </g>
   <g id="line2d_12">
    <path d="M 114.330892 79.603699 
" clip-path="url(#p6e9b88df02)" style="fill: none; stroke: #333333; stroke-width: 1.2; stroke-linecap: round"/>
    <g clip-path="url(#p6e9b88df02)">
     <use xlink:href="#m462e0ab659" x="114.330892" y="79.603699" style="fill: #ffffff; stroke: #ffffff"/>
    </g>
   </g>
   <g id="line2d_13">
    <path d="M 146.421044 102.016274 
L 146.421044 101.848585 
" clip-path="url(#p6e9b88df02)" style="fill: none; stroke: #b2b2b2; stroke-width: 1.666667; stroke-linecap: round"/>
   </g>
   <g id="line2d_14">
    <path d="M 146.421044 101.94973 
L 146.421044 101.87706 
" clip-path="url(#p6e9b88df02)" style="fill: none; stroke: #b2b2b2; stroke-width: 5; stroke-linecap: round"/>
   </g>
   <g id="line2d_15">
    <path d="M 146.421044 101.90705 
" clip-path="url(#p6e9b88df02)" style="fill: none; stroke: #333333; stroke-width: 1.2; stroke-linecap: round"/>
    <g clip-path="url(#p6e9b88df02)">
     <use xlink:href="#m462e0ab659" x="146.421044" y="101.90705" style="fill: #ffffff; stroke: #ffffff"/>
    </g>
   </g>
   <g id="line2d_16">
    <path d="M 162.466121 102.420528 
L 162.466121 95.283799 
" clip-path="url(#p6e9b88df02)" style="fill: none; stroke: #b2b2b2; stroke-width: 1.666667; stroke-linecap: round"/>
   </g>
   <g id="line2d_17">
    <path d="M 162.466121 100.969641 
L 162.466121 98.688007 
" clip-path="url(#p6e9b88df02)" style="fill: none; stroke: #b2b2b2; stroke-width: 5; stroke-linecap: round"/>
   </g>
   <g id="line2d_18">
    <path d="M 162.466121 99.954442 
" clip-path="url(#p6e9b88df02)" style="fill: none; stroke: #333333; stroke-width: 1.2; stroke-linecap: round"/>
    <g clip-path="url(#p6e9b88df02)">
     <use xlink:href="#m462e0ab659" x="162.466121" y="99.954442" style="fill: #ffffff; stroke: #ffffff"/>
    </g>
   </g>
   <g id="line2d_19">
    <path d="M 178.511197 99.16371 
L 178.511197 77.939375 
" clip-path="url(#p6e9b88df02)" style="fill: none; stroke: #b2b2b2; stroke-width: 1.666667; stroke-linecap: round"/>
   </g>
   <g id="line2d_20">
    <path d="M 178.511197 95.267814 
L 178.511197 88.336045 
" clip-path="url(#p6e9b88df02)" style="fill: none; stroke: #b2b2b2; stroke-width: 5; stroke-linecap: round"/>
   </g>
   <g id="line2d_21">
    <path d="M 178.511197 91.986195 
" clip-path="url(#p6e9b88df02)" style="fill: none; stroke: #333333; stroke-width: 1.2; stroke-linecap: round"/>
    <g clip-path="url(#p6e9b88df02)">
     <use xlink:href="#m462e0ab659" x="178.511197" y="91.986195" style="fill: #ffffff; stroke: #ffffff"/>
    </g>
   </g>
   <g id="line2d_22">
    <path d="M 194.556273 77.161581 
L 194.556273 66.112507 
" clip-path="url(#p6e9b88df02)" style="fill: none; stroke: #b2b2b2; stroke-width: 1.666667; stroke-linecap: round"/>
   </g>
   <g id="line2d_23">
    <path d="M 194.556273 72.939766 
L 194.556273 69.039545 
" clip-path="url(#p6e9b88df02)" style="fill: none; stroke: #b2b2b2; stroke-width: 5; stroke-linecap: round"/>
   </g>
   <g id="line2d_24">
    <path d="M 194.556273 72.002463 
" clip-path="url(#p6e9b88df02)" style="fill: none; stroke: #333333; stroke-width: 1.2; stroke-linecap: round"/>
    <g clip-path="url(#p6e9b88df02)">
     <use xlink:href="#m462e0ab659" x="194.556273" y="72.002463" style="fill: #ffffff; stroke: #ffffff"/>
    </g>
   </g>
   <g id="line2d_25">
    <path d="M 242.691501 101.105981 
L 242.691501 92.291594 
" clip-path="url(#p6e9b88df02)" style="fill: none; stroke: #b2b2b2; stroke-width: 1.666667; stroke-linecap: round"/>
   </g>
   <g id="line2d_26">
    <path d="M 242.691501 97.143515 
L 242.691501 93.935667 
" clip-path="url(#p6e9b88df02)" style="fill: none; stroke: #b2b2b2; stroke-width: 5; stroke-linecap: round"/>
   </g>
   <g id="line2d_27">
    <path d="M 242.691501 94.929685 
" clip-path="url(#p6e9b88df02)" style="fill: none; stroke: #333333; stroke-width: 1.2; stroke-linecap: round"/>
    <g clip-path="url(#p6e9b88df02)">
     <use xlink:href="#m462e0ab659" x="242.691501" y="94.929685" style="fill: #ffffff; stroke: #ffffff"/>
    </g>
   </g>
   <g id="line2d_28">
    <path d="M 258.736578 94.576463 
L 258.736578 81.704333 
" clip-path="url(#p6e9b88df02)" style="fill: none; stroke: #b2b2b2; stroke-width: 1.666667; stroke-linecap: round"/>
   </g>
   <g id="line2d_29">
    <path d="M 258.736578 91.211227 
L 258.736578 85.70315 
" clip-path="url(#p6e9b88df02)" style="fill: none; stroke: #b2b2b2; stroke-width: 5; stroke-linecap: round"/>
   </g>
   <g id="line2d_30">
    <path d="M 258.736578 88.672341 
" clip-path="url(#p6e9b88df02)" style="fill: none; stroke: #333333; stroke-width: 1.2; stroke-linecap: round"/>
    <g clip-path="url(#p6e9b88df02)">
     <use xlink:href="#m462e0ab659" x="258.736578" y="88.672341" style="fill: #ffffff; stroke: #ffffff"/>
    </g>
   </g>
   <g id="line2d_31">
    <path d="M 274.781654 82.334361 
L 274.781654 51.265017 
" clip-path="url(#p6e9b88df02)" style="fill: none; stroke: #b2b2b2; stroke-width: 1.666667; stroke-linecap: round"/>
   </g>
   <g id="line2d_32">
    <path d="M 274.781654 73.230805 
L 274.781654 64.127109 
" clip-path="url(#p6e9b88df02)" style="fill: none; stroke: #b2b2b2; stroke-width: 5; stroke-linecap: round"/>
   </g>
   <g id="line2d_33">
    <path d="M 274.781654 68.497452 
" clip-path="url(#p6e9b88df02)" style="fill: none; stroke: #333333; stroke-width: 1.2; stroke-linecap: round"/>
    <g clip-path="url(#p6e9b88df02)">
     <use xlink:href="#m462e0ab659" x="274.781654" y="68.497452" style="fill: #ffffff; stroke: #ffffff"/>
    </g>
   </g>
   <g id="patch_7">
    <path d="M 50.150588 105.27615 
L 50.150588 22.13295 
" style="fill: none; stroke: #373737; stroke-linejoin: miter; stroke-linecap: square"/>
   </g>
   <g id="patch_8">
    <path d="M 50.150588 105.27615 
L 290.82673 105.27615 
" style="fill: none; stroke: #373737; stroke-linejoin: miter; stroke-linecap: square"/>
   </g>
   <g id="text_8">
    <text style="fill: #373737; font: 12.48px 'Arial', 'DejaVu Sans', 'Liberation Sans', 'Bitstream Vera Sans', sans-serif; text-anchor: middle" x="170.488659" y="16.13295" transform="rotate(-0 170.488659 16.13295)">Pro Mean Biomass</text>
   </g>
  </g>
  <g id="legend_1">
   <g id="text_9">
    <text style="fill: #373737; font: 12.48px 'Arial', 'DejaVu Sans', 'Liberation Sans', 'Bitstream Vera Sans', sans-serif; text-anchor: start" x="317.781345" y="36.271125" transform="rotate(-0 317.781345 36.271125)">y_pred</text>
   </g>
   <g id="patch_9">
    <path d="M 295.40347 52.806312 
L 318.28347 52.806312 
L 318.28347 44.798312 
L 295.40347 44.798312 
z
" style="fill: #3c2f7b; stroke: #333333; stroke-width: 0.3; stroke-linejoin: miter"/>
   </g>
   <g id="text_10">
    <text style="fill: #373737; font: 11.44px 'Arial', 'DejaVu Sans', 'Liberation Sans', 'Bitstream Vera Sans', sans-serif; text-anchor: start" x="327.43547" y="52.806312" transform="rotate(-0 327.43547 52.806312)">Inhibited</text>
   </g>
   <g id="patch_10">
    <path d="M 295.40347 68.98855 
L 318.28347 68.98855 
L 318.28347 60.98055 
L 295.40347 60.98055 
z
" style="fill: #519d91; stroke: #333333; stroke-width: 0.3; stroke-linejoin: miter"/>
   </g>
   <g id="text_11">
    <text style="fill: #373737; font: 11.44px 'Arial', 'DejaVu Sans', 'Liberation Sans', 'Bitstream Vera Sans', sans-serif; text-anchor: start" x="327.43547" y="68.98855" transform="rotate(-0 327.43547 68.98855)">Weak</text>
   </g>
   <g id="patch_11">
    <path d="M 295.40347 85.170787 
L 318.28347 85.170787 
L 318.28347 77.162787 
L 295.40347 77.162787 
z
" style="fill: #bf7380; stroke: #333333; stroke-width: 0.3; stroke-linejoin: miter"/>
   </g>
   <g id="text_12">
    <text style="fill: #373737; font: 11.44px 'Arial', 'DejaVu Sans', 'Liberation Sans', 'Bitstream Vera Sans', sans-serif; text-anchor: start" x="327.43547" y="85.170787" transform="rotate(-0 327.43547 85.170787)">Sustained</text>
   </g>
   <g id="patch_12">
    <path d="M 295.40347 101.49245 
L 318.28347 101.49245 
L 318.28347 93.48445 
L 295.40347 93.48445 
z
" style="fill: #7b2f55; stroke: #333333; stroke-width: 0.3; stroke-linejoin: miter"/>
   </g>
   <g id="text_13">
    <text style="fill: #373737; font: 11.44px 'Arial', 'DejaVu Sans', 'Liberation Sans', 'Bitstream Vera Sans', sans-serif; text-anchor: start" x="327.43547" y="101.49245" transform="rotate(-0 327.43547 101.49245)">Strong</text>
   </g>
  </g>
 </g>
 <defs>
  <clipPath id="p6e9b88df02">
   <rect x="50.150588" y="22.13295" width="240.676142" height="83.1432"/>
  </clipPath>
 </defs>
</svg>
