<?xml version="1.0" encoding="utf-8" standalone="no"?>
<!DOCTYPE svg PUBLIC "-//W3C//DTD SVG 1.1//EN"
  "http://www.w3.org/Graphics/SVG/1.1/DTD/svg11.dtd">
<svg xmlns:xlink="http://www.w3.org/1999/xlink" width="322.43875pt" height="384.068438pt" viewBox="0 0 322.43875 384.068438" xmlns="http://www.w3.org/2000/svg" version="1.1">
 <metadata>
  <rdf:RDF xmlns:dc="http://purl.org/dc/elements/1.1/" xmlns:cc="http://creativecommons.org/ns#" xmlns:rdf="http://www.w3.org/1999/02/22-rdf-syntax-ns#">
   <cc:Work>
    <dc:type rdf:resource="http://purl.org/dc/dcmitype/StillImage"/>
    <dc:date>2024-12-17T10:30:30.908728</dc:date>
    <dc:format>image/svg+xml</dc:format>
    <dc:creator>
     <cc:Agent>
      <dc:title>Matplotlib v3.8.0, https://matplotlib.org/</dc:title>
     </cc:Agent>
    </dc:creator>
   </cc:Work>
  </rdf:RDF>
 </metadata>
 <defs>
  <style type="text/css">*{stroke-linejoin: round; stroke-linecap: butt}</style>
 </defs>
 <g id="figure_1">
  <g id="patch_1">
   <path d="M 0 384.068438 
L 322.43875 384.068438 
L 322.43875 -0 
L 0 -0 
L 0 384.068438 
z
" style="fill: none"/>
  </g>
  <g id="axes_1">
   <g id="patch_2">
    <path d="M 79.51 315.3 
L 315.23875 315.3 
L 315.23875 92.4 
L 79.51 92.4 
L 79.51 315.3 
z
" style="fill: none"/>
   </g>
   <g id="matplotlib.axis_1">
    <g id="xtick_1">
     <g id="text_1">
      <text style="fill: #262626; font: 22px 'Arial', 'DejaVu Sans', 'Liberation Sans', 'Bitstream Vera Sans', sans-serif; text-anchor: middle" x="92.801253" y="346.547188" transform="rotate(-0 92.801253 346.547188)">−5</text>
     </g>
    </g>
    <g id="xtick_2">
     <g id="text_2">
      <text style="fill: #262626; font: 22px 'Arial', 'DejaVu Sans', 'Liberation Sans', 'Bitstream Vera Sans', sans-serif; text-anchor: middle" x="197.394799" y="346.547188" transform="rotate(-0 197.394799 346.547188)">0</text>
     </g>
    </g>
    <g id="xtick_3">
     <g id="text_3">
      <text style="fill: #262626; font: 22px 'Arial', 'DejaVu Sans', 'Liberation Sans', 'Bitstream Vera Sans', sans-serif; text-anchor: middle" x="301.988344" y="346.547188" transform="rotate(-0 301.988344 346.547188)">5</text>
     </g>
    </g>
    <g id="text_4">
     <text style="fill: #262626; font: 24px 'Arial', 'DejaVu Sans', 'Liberation Sans', 'Bitstream Vera Sans', sans-serif; text-anchor: middle" x="197.374375" y="372.098438" transform="rotate(-0 197.374375 372.098438)">FC</text>
    </g>
   </g>
   <g id="matplotlib.axis_2">
    <g id="ytick_1">
     <g id="text_5">
      <text style="fill: #262626; font: 22px 'Arial', 'DejaVu Sans', 'Liberation Sans', 'Bitstream Vera Sans', sans-serif; text-anchor: end" x="64.01" y="323.173594" transform="rotate(-0 64.01 323.173594)">0.0</text>
     </g>
    </g>
    <g id="ytick_2">
     <g id="text_6">
      <text style="fill: #262626; font: 22px 'Arial', 'DejaVu Sans', 'Liberation Sans', 'Bitstream Vera Sans', sans-serif; text-anchor: end" x="64.01" y="250.257836" transform="rotate(-0 64.01 250.257836)">0.2</text>
     </g>
    </g>
    <g id="ytick_3">
     <g id="text_7">
      <text style="fill: #262626; font: 22px 'Arial', 'DejaVu Sans', 'Liberation Sans', 'Bitstream Vera Sans', sans-serif; text-anchor: end" x="64.01" y="177.342077" transform="rotate(-0 64.01 177.342077)">0.4</text>
     </g>
    </g>
    <g id="ytick_4">
     <g id="text_8">
      <text style="fill: #262626; font: 22px 'Arial', 'DejaVu Sans', 'Liberation Sans', 'Bitstream Vera Sans', sans-serif; text-anchor: end" x="64.01" y="104.426319" transform="rotate(-0 64.01 104.426319)">0.6</text>
     </g>
    </g>
    <g id="text_9">
     <text style="fill: #262626; font: 24px 'Arial', 'DejaVu Sans', 'Liberation Sans', 'Bitstream Vera Sans', sans-serif; text-anchor: middle" x="24.37875" y="203.85" transform="rotate(-90 24.37875 203.85)">Density</text>
    </g>
   </g>
   <g id="line2d_1">
    <path d="M 112.435409 315.237766 
L 114.996957 315.014277 
L 116.704656 314.604979 
L 117.558506 314.25605 
L 118.412355 313.770366 
L 119.266204 313.113099 
L 120.120054 312.248405 
L 120.973903 311.142611 
L 121.827753 309.768162 
L 122.681602 308.107915 
L 124.389301 303.937114 
L 126.096999 298.828615 
L 129.512397 287.889582 
L 131.220096 283.314691 
L 132.073945 281.457501 
L 132.927795 279.917703 
L 133.781644 278.693114 
L 134.635493 277.764358 
L 135.489343 277.098955 
L 136.343192 276.656088 
L 137.197042 276.391326 
L 138.90474 276.224193 
L 142.320138 276.424984 
L 144.881686 276.483719 
L 150.858632 276.362797 
L 152.566331 276.751405 
L 154.274029 277.474677 
L 159.397126 280.225506 
L 161.104825 280.725695 
L 162.812523 280.895966 
L 164.520222 280.796399 
L 167.08177 280.353992 
L 171.351017 279.571111 
L 174.766415 279.240611 
L 177.327963 278.936681 
L 179.035662 278.466267 
L 179.889511 278.060932 
L 180.743361 277.472585 
L 181.59721 276.620764 
L 182.451059 275.393006 
L 183.304909 273.637456 
L 184.158758 271.158145 
L 185.012608 267.715648 
L 185.866457 263.036168 
L 186.720306 256.831723 
L 187.574156 248.832856 
L 188.428005 238.833086 
L 189.281855 226.741274 
L 190.989553 196.803978 
L 194.404951 129.965611 
L 195.2588 117.214034 
L 196.11265 108.047374 
L 196.966499 103.182583 
L 197.820348 103.011504 
L 198.674198 107.549203 
L 199.528047 116.43261 
L 200.381897 128.969593 
L 202.089595 161.157521 
L 204.651144 211.979705 
L 205.504993 226.407771 
L 206.358842 238.868076 
L 207.212692 249.261496 
L 208.066541 257.658283 
L 208.920391 264.246478 
L 209.77424 269.280631 
L 210.628089 273.037858 
L 211.481939 275.785052 
L 212.335788 277.758123 
L 213.189637 279.15196 
L 214.043487 280.118614 
L 214.897336 280.770821 
L 215.751186 281.188327 
L 216.605035 281.425073 
L 217.458884 281.516052 
L 219.166583 281.340487 
L 220.874282 280.762513 
L 222.581981 279.859763 
L 227.705077 276.679272 
L 229.412776 276.0649 
L 231.120475 275.804254 
L 236.243571 275.585052 
L 237.95127 275.054033 
L 239.658969 274.127382 
L 241.366667 272.853232 
L 244.782065 270.006264 
L 245.635914 269.448548 
L 246.489764 269.037022 
L 247.343613 268.807631 
L 248.197463 268.785787 
L 249.051312 268.982707 
L 249.905161 269.39324 
L 250.759011 269.995799 
L 252.46671 271.624369 
L 256.735957 276.186528 
L 259.297505 278.810898 
L 261.005203 281.079853 
L 261.859053 282.516132 
L 262.712902 284.193754 
L 264.420601 288.276092 
L 266.1283 293.124216 
L 269.543697 303.150025 
L 271.251396 307.293753 
L 272.105246 309.001417 
L 272.959095 310.450825 
L 273.812944 311.648325 
L 274.666794 312.611436 
L 275.520643 313.365483 
L 276.374493 313.940174 
L 278.082191 314.674419 
L 279.78989 315.038873 
L 282.351438 315.241574 
L 282.351438 315.241574 
" clip-path="url(#pbb97f1a948)" style="fill: none; stroke: #b3b3b3; stroke-width: 7; stroke-linecap: round"/>
   </g>
   <g id="line2d_2">
    <path d="M 95.914932 315.174458 
L 99.995896 314.901373 
L 103.056619 314.433729 
L 105.097102 313.907261 
L 107.137584 313.135194 
L 109.178066 312.045782 
L 111.218548 310.567109 
L 113.25903 308.637052 
L 115.299512 306.215182 
L 117.339994 303.294593 
L 119.380476 299.91099 
L 122.4412 294.158507 
L 129.582887 280.112286 
L 131.623369 276.637324 
L 133.663851 273.609424 
L 135.704333 271.07155 
L 137.744815 269.023001 
L 139.785298 267.429831 
L 141.82578 266.238702 
L 143.866262 265.390137 
L 145.906744 264.827955 
L 147.947226 264.503375 
L 149.987708 264.374241 
L 153.048431 264.460836 
L 157.129396 264.876264 
L 161.21036 265.282447 
L 164.271083 265.348839 
L 166.311565 265.199082 
L 168.352047 264.848181 
L 170.392529 264.255103 
L 172.433012 263.373545 
L 174.473494 262.151154 
L 176.513976 260.53346 
L 178.554458 258.473718 
L 180.59494 255.948234 
L 182.635422 252.974878 
L 184.675904 249.630684 
L 190.797351 239.193072 
L 192.837833 236.471814 
L 193.858074 235.421593 
L 194.878315 234.623139 
L 195.898556 234.104461 
L 196.918797 233.887629 
L 197.939038 233.987806 
L 198.959279 234.412551 
L 199.97952 235.161426 
L 200.999761 236.225936 
L 202.020002 237.589801 
L 203.040243 239.229546 
L 205.080725 243.212203 
L 207.121208 247.880281 
L 213.242654 262.687927 
L 215.283136 266.931331 
L 217.323618 270.507643 
L 219.3641 273.337271 
L 220.384341 274.465726 
L 221.404582 275.406902 
L 222.424823 276.166983 
L 223.445065 276.754289 
L 224.465306 277.178768 
L 225.485547 277.45155 
L 226.505788 277.584551 
L 227.526029 277.590153 
L 229.566511 277.269564 
L 231.606993 276.590269 
L 233.647475 275.650789 
L 236.708198 273.964163 
L 240.789163 271.696049 
L 242.829645 270.764221 
L 244.870127 270.085404 
L 246.910609 269.738194 
L 248.951091 269.7887 
L 249.971332 269.979616 
L 250.991573 270.287691 
L 252.011814 270.716583 
L 254.052296 271.945737 
L 256.092778 273.673068 
L 258.133261 275.884731 
L 260.173743 278.545456 
L 262.214225 281.59698 
L 265.274948 286.722316 
L 272.416635 299.241967 
L 274.457118 302.423289 
L 276.4976 305.253095 
L 278.538082 307.681057 
L 280.578564 309.689869 
L 282.619046 311.292216 
L 284.659528 312.524271 
L 286.70001 313.437376 
L 288.740492 314.08962 
L 290.780974 314.538669 
L 293.841698 314.942994 
L 297.922662 315.184312 
L 298.942903 315.214538 
L 298.942903 315.214538 
" clip-path="url(#pbb97f1a948)" style="fill: none; stroke: #000000; stroke-width: 7; stroke-linecap: round"/>
   </g>
   <g id="line2d_3">
    <path d="M 90.224943 315.199028 
L 95.609337 314.936756 
L 98.839973 314.578194 
L 102.070609 313.949725 
L 104.224366 313.316894 
L 106.378124 312.462925 
L 108.531881 311.345169 
L 110.685639 309.926359 
L 112.839396 308.180178 
L 114.993154 306.096891 
L 117.146911 303.688065 
L 119.300668 300.989346 
L 122.531305 296.534079 
L 130.069456 285.805435 
L 132.223213 283.07126 
L 134.37697 280.611447 
L 136.530728 278.455853 
L 138.684485 276.607238 
L 140.838243 275.044866 
L 142.992 273.73105 
L 145.145757 272.619181 
L 148.376394 271.227148 
L 152.683908 269.686775 
L 159.145181 267.687183 
L 164.529574 266.000631 
L 167.76021 264.760396 
L 169.913968 263.739172 
L 172.067725 262.504365 
L 174.221483 261.017039 
L 176.37524 259.258294 
L 178.528998 257.238089 
L 181.759634 253.827041 
L 187.144027 247.997798 
L 189.297785 246.039219 
L 191.451542 244.530874 
L 192.528421 243.989312 
L 193.6053 243.608482 
L 194.682178 243.399012 
L 195.759057 243.368142 
L 196.835936 243.519436 
L 197.912814 243.852606 
L 198.989693 244.36347 
L 200.066572 245.04404 
L 201.14345 245.882735 
L 203.297208 247.972365 
L 205.450965 250.483298 
L 214.065995 261.256173 
L 216.219752 263.394431 
L 218.37351 265.140237 
L 220.527267 266.480896 
L 222.681025 267.437141 
L 224.834782 268.052643 
L 226.98854 268.38305 
L 229.142297 268.486622 
L 232.372933 268.334308 
L 236.680448 267.796039 
L 242.064842 267.055701 
L 245.295478 266.87345 
L 247.449235 266.992014 
L 249.602993 267.384974 
L 251.75675 268.120917 
L 253.910507 269.258945 
L 256.064265 270.841277 
L 258.218022 272.886645 
L 260.37178 275.385493 
L 262.525537 278.297841 
L 264.679294 281.554356 
L 267.909931 286.873145 
L 273.294324 295.930731 
L 276.52496 300.863325 
L 278.678718 303.761959 
L 280.832475 306.291115 
L 282.986233 308.43199 
L 285.13999 310.190406 
L 287.293747 311.592021 
L 289.447505 312.676346 
L 291.601262 313.490588 
L 293.75502 314.084118 
L 296.985656 314.66245 
L 300.216292 314.985126 
L 304.523807 315.188137 
L 304.523807 315.188137 
" clip-path="url(#pbb97f1a948)" style="fill: none; stroke: #9c110b; stroke-width: 7; stroke-linecap: round"/>
   </g>
   <g id="patch_3">
    <path d="M 79.51 315.3 
L 79.51 92.4 
" style="fill: none; stroke: #262626; stroke-width: 2.5; stroke-linejoin: miter; stroke-linecap: square"/>
   </g>
   <g id="patch_4">
    <path d="M 79.51 315.3 
L 315.23875 315.3 
" style="fill: none; stroke: #262626; stroke-width: 2.5; stroke-linejoin: miter; stroke-linecap: square"/>
   </g>
   <g id="text_10">
    <text style="fill: #262626; font: 24px 'Arial', 'DejaVu Sans', 'Liberation Sans', 'Bitstream Vera Sans', sans-serif; text-anchor: middle" x="197.374375" y="86.4" transform="rotate(-0 197.374375 86.4)">Koverflowp</text>
   </g>
  </g>
  <g id="text_11">
   <text style="fill: #262626; font: 28.8px 'Arial', 'DejaVu Sans', 'Liberation Sans', 'Bitstream Vera Sans', sans-serif; text-anchor: middle" x="161.15875" y="27.8145" transform="rotate(-0 161.15875 27.8145)">OVERFLOW</text>
  </g>
 </g>
 <defs>
  <clipPath id="pbb97f1a948">
   <rect x="79.51" y="92.4" width="235.72875" height="222.9"/>
  </clipPath>
 </defs>
</svg>
