<?xml version="1.0" encoding="utf-8" standalone="no"?>
<!DOCTYPE svg PUBLIC "-//W3C//DTD SVG 1.1//EN"
  "http://www.w3.org/Graphics/SVG/1.1/DTD/svg11.dtd">
<svg xmlns:xlink="http://www.w3.org/1999/xlink" width="1042.43875pt" height="384.068438pt" viewBox="0 0 1042.43875 384.068438" xmlns="http://www.w3.org/2000/svg" version="1.1">
 <metadata>
  <rdf:RDF xmlns:dc="http://purl.org/dc/elements/1.1/" xmlns:cc="http://creativecommons.org/ns#" xmlns:rdf="http://www.w3.org/1999/02/22-rdf-syntax-ns#">
   <cc:Work>
    <dc:type rdf:resource="http://purl.org/dc/dcmitype/StillImage"/>
    <dc:date>2024-12-17T10:30:32.258791</dc:date>
    <dc:format>image/svg+xml</dc:format>
    <dc:creator>
     <cc:Agent>
      <dc:title>Matplotlib v3.8.0, https://matplotlib.org/</dc:title>
     </cc:Agent>
    </dc:creator>
   </cc:Work>
  </rdf:RDF>
 </metadata>
 <defs>
  <style type="text/css">*{stroke-linejoin: round; stroke-linecap: butt}</style>
 </defs>
 <g id="figure_1">
  <g id="patch_1">
   <path d="M 0 384.068438 
L 1042.43875 384.068438 
L 1042.43875 -0 
L 0 -0 
L 0 384.068438 
z
" style="fill: none"/>
  </g>
  <g id="axes_1">
   <g id="patch_2">
    <path d="M 79.51 315.3 
L 350.132917 315.3 
L 350.132917 92.4 
L 79.51 92.4 
L 79.51 315.3 
z
" style="fill: none"/>
   </g>
   <g id="matplotlib.axis_1">
    <g id="xtick_1">
     <g id="text_1">
      <text style="fill: #262626; font: 22px 'Arial', 'DejaVu Sans', 'Liberation Sans', 'Bitstream Vera Sans', sans-serif; text-anchor: middle" x="87.382049" y="346.547188" transform="rotate(-0 87.382049 346.547188)">−5</text>
     </g>
    </g>
    <g id="xtick_2">
     <g id="text_2">
      <text style="fill: #262626; font: 22px 'Arial', 'DejaVu Sans', 'Liberation Sans', 'Bitstream Vera Sans', sans-serif; text-anchor: middle" x="215.007658" y="346.547188" transform="rotate(-0 215.007658 346.547188)">0</text>
     </g>
    </g>
    <g id="xtick_3">
     <g id="text_3">
      <text style="fill: #262626; font: 22px 'Arial', 'DejaVu Sans', 'Liberation Sans', 'Bitstream Vera Sans', sans-serif; text-anchor: middle" x="342.633267" y="346.547188" transform="rotate(-0 342.633267 346.547188)">5</text>
     </g>
    </g>
    <g id="text_4">
     <text style="fill: #262626; font: 24px 'Arial', 'DejaVu Sans', 'Liberation Sans', 'Bitstream Vera Sans', sans-serif; text-anchor: middle" x="214.821458" y="372.098438" transform="rotate(-0 214.821458 372.098438)">FC</text>
    </g>
   </g>
   <g id="matplotlib.axis_2">
    <g id="ytick_1">
     <g id="text_5">
      <text style="fill: #262626; font: 22px 'Arial', 'DejaVu Sans', 'Liberation Sans', 'Bitstream Vera Sans', sans-serif; text-anchor: end" x="64.01" y="323.173594" transform="rotate(-0 64.01 323.173594)">0.0</text>
     </g>
    </g>
    <g id="ytick_2">
     <g id="text_6">
      <text style="fill: #262626; font: 22px 'Arial', 'DejaVu Sans', 'Liberation Sans', 'Bitstream Vera Sans', sans-serif; text-anchor: end" x="64.01" y="276.183116" transform="rotate(-0 64.01 276.183116)">0.5</text>
     </g>
    </g>
    <g id="ytick_3">
     <g id="text_7">
      <text style="fill: #262626; font: 22px 'Arial', 'DejaVu Sans', 'Liberation Sans', 'Bitstream Vera Sans', sans-serif; text-anchor: end" x="64.01" y="229.192638" transform="rotate(-0 64.01 229.192638)">1.0</text>
     </g>
    </g>
    <g id="ytick_4">
     <g id="text_8">
      <text style="fill: #262626; font: 22px 'Arial', 'DejaVu Sans', 'Liberation Sans', 'Bitstream Vera Sans', sans-serif; text-anchor: end" x="64.01" y="182.20216" transform="rotate(-0 64.01 182.20216)">1.5</text>
     </g>
    </g>
    <g id="ytick_5">
     <g id="text_9">
      <text style="fill: #262626; font: 22px 'Arial', 'DejaVu Sans', 'Liberation Sans', 'Bitstream Vera Sans', sans-serif; text-anchor: end" x="64.01" y="135.211682" transform="rotate(-0 64.01 135.211682)">2.0</text>
     </g>
    </g>
    <g id="text_10">
     <text style="fill: #262626; font: 24px 'Arial', 'DejaVu Sans', 'Liberation Sans', 'Bitstream Vera Sans', sans-serif; text-anchor: middle" x="24.37875" y="203.85" transform="rotate(-90 24.37875 203.85)">Density</text>
    </g>
   </g>
   <g id="line2d_1">
    <path d="M 112.027025 315.289322 
L 117.20319 315.167537 
L 120.308889 314.857997 
L 122.379355 314.427568 
L 124.449821 313.735406 
L 126.520287 312.743074 
L 128.590753 311.47834 
L 133.766918 308.001461 
L 135.837384 306.95354 
L 137.90785 306.284021 
L 139.978316 305.991636 
L 142.048783 305.998909 
L 145.154482 306.326539 
L 149.295414 306.822128 
L 152.401113 306.936914 
L 155.506812 306.757303 
L 162.753443 306.095946 
L 165.859142 306.121666 
L 177.246705 306.629027 
L 185.528569 306.492536 
L 194.845666 306.731216 
L 196.916132 306.413576 
L 197.951365 306.049895 
L 198.986598 305.4666 
L 200.021832 304.581104 
L 201.057065 303.297163 
L 202.092298 301.511345 
L 203.127531 299.123995 
L 204.162764 296.054589 
L 205.197997 292.260311 
L 206.23323 287.755475 
L 208.303696 277.050803 
L 210.374162 265.635904 
L 211.409395 260.490316 
L 212.444628 256.212558 
L 213.479861 253.13344 
L 214.515094 251.501035 
L 215.550327 251.447047 
L 216.58556 252.968486 
L 217.620793 255.928187 
L 218.656026 260.074069 
L 220.726492 270.555568 
L 222.796958 281.553882 
L 223.832191 286.498807 
L 224.867424 290.824093 
L 225.902657 294.446995 
L 226.93789 297.358579 
L 227.973123 299.607002 
L 229.008356 301.278206 
L 230.043589 302.477365 
L 231.078822 303.313389 
L 232.114055 303.887564 
L 234.184521 304.578605 
L 239.360686 305.642836 
L 242.466385 306.186705 
L 245.572084 306.468544 
L 248.677783 306.454487 
L 266.276745 305.719443 
L 274.558609 305.82707 
L 277.664308 305.47822 
L 282.840473 304.697733 
L 284.910939 304.649348 
L 286.981405 304.876175 
L 289.051871 305.385072 
L 291.122337 306.146052 
L 293.192803 307.118807 
L 296.298502 308.879287 
L 302.5099 312.586384 
L 304.580366 313.538375 
L 306.650832 314.249459 
L 308.721298 314.727707 
L 310.791764 315.016499 
L 313.897463 315.217934 
L 318.038396 315.289053 
L 318.038396 315.289053 
" clip-path="url(#p80d2c8cd29)" style="fill: none; stroke: #b3b3b3; stroke-width: 7; stroke-linecap: round"/>
   </g>
   <g id="line2d_2">
    <path d="M 92.491933 315.278719 
L 101.121981 315.135382 
L 106.053437 314.864261 
L 109.75203 314.47531 
L 113.450622 313.856022 
L 117.149214 312.957739 
L 120.847806 311.773776 
L 125.779262 309.858893 
L 131.943582 307.386496 
L 135.642174 306.157703 
L 138.107902 305.525247 
L 140.57363 305.061812 
L 143.039358 304.764906 
L 146.73795 304.59057 
L 150.436543 304.651359 
L 170.162367 305.425161 
L 178.792415 305.335292 
L 183.723871 305.119234 
L 187.422463 304.739994 
L 189.888191 304.303955 
L 192.35392 303.66801 
L 194.819648 302.79792 
L 197.285376 301.682242 
L 199.751104 300.342055 
L 203.449696 298.04905 
L 207.148288 295.729317 
L 209.614016 294.378639 
L 212.079744 293.325562 
L 214.545472 292.659566 
L 217.0112 292.4263 
L 219.476928 292.621987 
L 221.942656 293.197347 
L 224.408384 294.069574 
L 228.106976 295.715864 
L 235.504161 299.130968 
L 239.202753 300.531928 
L 242.901345 301.641925 
L 246.599937 302.461639 
L 250.298529 303.005124 
L 253.997121 303.287494 
L 257.695713 303.325419 
L 261.394305 303.142398 
L 266.325761 302.622093 
L 276.188674 301.346497 
L 279.887266 301.188622 
L 282.352994 301.305391 
L 284.818722 301.641417 
L 287.28445 302.214337 
L 289.750178 303.0209 
L 292.215906 304.035801 
L 295.914498 305.846251 
L 304.544546 310.323611 
L 308.243138 311.90014 
L 310.708866 312.757707 
L 313.174594 313.454895 
L 316.873187 314.222259 
L 320.571779 314.712687 
L 325.503235 315.065832 
L 331.667555 315.238089 
L 337.831875 315.286678 
L 337.831875 315.286678 
" clip-path="url(#p80d2c8cd29)" style="fill: none; stroke: #000000; stroke-width: 7; stroke-linecap: round"/>
   </g>
   <g id="line2d_3">
    <path d="M 267.451402 314.972599 
L 268.320114 314.541954 
L 269.015083 313.90529 
L 269.710052 312.870893 
L 270.405022 311.293869 
L 271.099991 309.040281 
L 271.79496 306.024655 
L 272.663672 301.193577 
L 273.879868 292.898 
L 275.617291 279.398079 
L 276.486002 271.368169 
L 277.180971 263.186041 
L 277.875941 252.330981 
L 278.57091 237.838499 
L 279.439621 213.926097 
L 280.655818 172.028816 
L 281.872014 130.693026 
L 282.566983 113.482501 
L 283.08821 105.690019 
L 283.435694 103.318416 
L 283.609437 103.013777 
L 283.783179 103.296977 
L 283.956921 104.160321 
L 284.304406 107.565733 
L 284.825633 116.490289 
L 285.520602 133.96602 
L 288.300479 212.740398 
L 288.995448 224.467297 
L 289.690417 232.086194 
L 290.211644 235.657108 
L 290.732871 237.9981 
L 292.470294 244.327375 
L 292.991521 247.534716 
L 293.68649 253.396461 
L 294.555202 263.0274 
L 297.508821 298.443466 
L 298.377533 305.178035 
L 299.072502 308.960975 
L 299.767471 311.537687 
L 300.46244 313.184326 
L 301.157409 314.173002 
L 301.852379 314.731384 
L 302.026121 314.824825 
L 302.026121 314.824825 
" clip-path="url(#p80d2c8cd29)" style="fill: none; stroke: #9c110b; stroke-width: 7; stroke-linecap: round"/>
   </g>
   <g id="patch_3">
    <path d="M 79.51 315.3 
L 79.51 92.4 
" style="fill: none; stroke: #262626; stroke-width: 2.5; stroke-linejoin: miter; stroke-linecap: square"/>
   </g>
   <g id="patch_4">
    <path d="M 79.51 315.3 
L 350.132917 315.3 
" style="fill: none; stroke: #262626; stroke-width: 2.5; stroke-linejoin: miter; stroke-linecap: square"/>
   </g>
   <g id="text_11">
    <text style="fill: #262626; font: 24px 'Arial', 'DejaVu Sans', 'Liberation Sans', 'Bitstream Vera Sans', sans-serif; text-anchor: middle" x="214.821458" y="86.4" transform="rotate(-0 214.821458 86.4)">KprodROSp</text>
   </g>
  </g>
  <g id="axes_2">
   <g id="patch_5">
    <path d="M 422.062917 315.3 
L 692.685833 315.3 
L 692.685833 92.4 
L 422.062917 92.4 
L 422.062917 315.3 
z
" style="fill: none"/>
   </g>
   <g id="matplotlib.axis_3">
    <g id="xtick_4">
     <g id="text_12">
      <text style="fill: #262626; font: 22px 'Arial', 'DejaVu Sans', 'Liberation Sans', 'Bitstream Vera Sans', sans-serif; text-anchor: middle" x="429.934966" y="346.547188" transform="rotate(-0 429.934966 346.547188)">−5</text>
     </g>
    </g>
    <g id="xtick_5">
     <g id="text_13">
      <text style="fill: #262626; font: 22px 'Arial', 'DejaVu Sans', 'Liberation Sans', 'Bitstream Vera Sans', sans-serif; text-anchor: middle" x="557.560575" y="346.547188" transform="rotate(-0 557.560575 346.547188)">0</text>
     </g>
    </g>
    <g id="xtick_6">
     <g id="text_14">
      <text style="fill: #262626; font: 22px 'Arial', 'DejaVu Sans', 'Liberation Sans', 'Bitstream Vera Sans', sans-serif; text-anchor: middle" x="685.186184" y="346.547188" transform="rotate(-0 685.186184 346.547188)">5</text>
     </g>
    </g>
    <g id="text_15">
     <text style="fill: #262626; font: 24px 'Arial', 'DejaVu Sans', 'Liberation Sans', 'Bitstream Vera Sans', sans-serif; text-anchor: middle" x="557.374375" y="372.098438" transform="rotate(-0 557.374375 372.098438)">FC</text>
    </g>
   </g>
   <g id="matplotlib.axis_4">
    <g id="ytick_6">
     <g id="text_16">
      <text style="fill: #262626; font: 22px 'Arial', 'DejaVu Sans', 'Liberation Sans', 'Bitstream Vera Sans', sans-serif; text-anchor: end" x="406.562917" y="323.173594" transform="rotate(-0 406.562917 323.173594)">0.0</text>
     </g>
    </g>
    <g id="ytick_7">
     <g id="text_17">
      <text style="fill: #262626; font: 22px 'Arial', 'DejaVu Sans', 'Liberation Sans', 'Bitstream Vera Sans', sans-serif; text-anchor: end" x="406.562917" y="245.32044" transform="rotate(-0 406.562917 245.32044)">0.5</text>
     </g>
    </g>
    <g id="ytick_8">
     <g id="text_18">
      <text style="fill: #262626; font: 22px 'Arial', 'DejaVu Sans', 'Liberation Sans', 'Bitstream Vera Sans', sans-serif; text-anchor: end" x="406.562917" y="167.467287" transform="rotate(-0 406.562917 167.467287)">1.0</text>
     </g>
    </g>
   </g>
   <g id="line2d_4">
    <path d="M 454.508109 315.281991 
L 458.65114 315.163509 
L 460.722655 314.978547 
L 462.794171 314.615423 
L 464.865687 313.977168 
L 466.937202 312.970805 
L 469.008718 311.543757 
L 471.080233 309.718517 
L 474.187507 306.499945 
L 477.29478 303.300222 
L 479.366296 301.52616 
L 481.437811 300.214015 
L 482.473569 299.750885 
L 483.509327 299.41417 
L 485.580842 299.077059 
L 487.652358 299.071138 
L 493.866905 299.43181 
L 498.009936 299.247555 
L 501.117209 299.211399 
L 503.188725 299.414825 
L 505.26024 299.816966 
L 513.546303 301.78026 
L 516.653576 302.100545 
L 519.760849 302.185525 
L 528.046912 302.087759 
L 531.154185 301.865639 
L 534.261458 301.351644 
L 536.332974 300.840246 
L 538.404489 300.109678 
L 539.440247 299.571441 
L 540.476005 298.821141 
L 541.511763 297.748293 
L 542.547521 296.211477 
L 543.583278 294.04364 
L 544.619036 291.064067 
L 545.654794 287.097828 
L 546.690552 282.002349 
L 547.72631 275.699048 
L 548.762067 268.206033 
L 550.833583 250.363592 
L 552.905098 231.286597 
L 553.940856 222.668743 
L 554.976614 215.492537 
L 556.012372 210.316337 
L 557.04813 207.562455 
L 558.083887 207.460444 
L 559.119645 210.015585 
L 560.155403 215.008612 
L 561.191161 222.026667 
L 563.262676 239.870098 
L 565.334192 258.77116 
L 566.36995 267.352716 
L 567.405707 274.921694 
L 568.441465 281.324884 
L 569.477223 286.530404 
L 570.512981 290.600665 
L 571.548739 293.661243 
L 572.584496 295.871316 
L 573.620254 297.399373 
L 574.656012 298.405862 
L 575.69177 299.032708 
L 576.727528 299.398481 
L 578.799043 299.701578 
L 583.977832 300.06167 
L 590.192379 300.655986 
L 593.299652 300.682899 
L 606.764503 300.403098 
L 614.014808 300.424072 
L 618.157839 300.242236 
L 621.265112 299.935177 
L 626.443901 299.108937 
L 628.515417 298.833933 
L 630.586932 298.75369 
L 632.658448 299.013607 
L 633.694206 299.318326 
L 634.729964 299.76115 
L 635.765721 300.352519 
L 636.801479 301.095684 
L 638.872995 303.005112 
L 640.94451 305.330634 
L 644.051784 308.982823 
L 646.123299 311.101579 
L 648.194815 312.748381 
L 650.26633 313.887182 
L 652.337846 314.589405 
L 654.409362 314.976113 
L 657.516635 315.217488 
L 660.623908 315.283325 
L 660.623908 315.283325 
" clip-path="url(#p798075e50a)" style="fill: none; stroke: #b3b3b3; stroke-width: 7; stroke-linecap: round"/>
   </g>
   <g id="line2d_5">
    <path d="M 434.363958 315.270189 
L 441.771508 315.130674 
L 446.709874 314.840902 
L 450.413649 314.407113 
L 452.882833 313.961913 
L 455.352016 313.35545 
L 457.821199 312.558607 
L 460.290382 311.549064 
L 462.759565 310.316238 
L 465.228749 308.865744 
L 468.932523 306.341434 
L 475.105482 301.659824 
L 478.809256 298.969483 
L 481.27844 297.382162 
L 483.747623 296.032003 
L 486.216806 294.964137 
L 488.685989 294.207821 
L 491.155173 293.777544 
L 493.624356 293.674728 
L 496.093539 293.888813 
L 498.562722 294.397111 
L 501.031905 295.163583 
L 503.501089 296.137477 
L 508.439455 298.431743 
L 512.14323 300.126999 
L 514.612413 301.081457 
L 517.081596 301.804603 
L 519.55078 302.235902 
L 522.019963 302.333838 
L 524.489146 302.075609 
L 526.958329 301.453905 
L 529.427512 300.472168 
L 531.896696 299.140318 
L 534.365879 297.472934 
L 536.835062 295.491218 
L 539.304245 293.228815 
L 543.00802 289.435304 
L 549.180978 282.900941 
L 551.650162 280.633531 
L 554.119345 278.805925 
L 555.353936 278.101879 
L 556.588528 277.556689 
L 557.82312 277.180487 
L 559.057711 276.979545 
L 560.292303 276.956002 
L 561.526894 277.107765 
L 562.761486 277.428598 
L 563.996078 277.908377 
L 565.230669 278.533512 
L 567.699852 280.151556 
L 570.169036 282.12776 
L 578.811177 289.557928 
L 581.28036 291.324187 
L 583.749543 292.816727 
L 586.218727 294.031155 
L 588.68791 294.988612 
L 591.157093 295.725682 
L 594.860868 296.509352 
L 598.564643 297.012573 
L 602.268418 297.300175 
L 605.972192 297.369998 
L 609.675967 297.176269 
L 613.379742 296.678934 
L 617.083517 295.902434 
L 624.491067 294.163892 
L 626.96025 293.836543 
L 629.429433 293.795147 
L 631.898616 294.117697 
L 634.3678 294.851337 
L 636.836983 296.003196 
L 639.306166 297.537349 
L 641.775349 299.378765 
L 645.479124 302.485296 
L 650.417491 306.655071 
L 652.886674 308.521726 
L 655.355857 310.151507 
L 657.82504 311.513521 
L 660.294223 312.604684 
L 662.763407 313.443677 
L 665.23259 314.06337 
L 667.701773 314.503366 
L 671.405548 314.913391 
L 676.343914 315.169124 
L 680.047689 315.246917 
L 680.047689 315.246917 
" clip-path="url(#p798075e50a)" style="fill: none; stroke: #000000; stroke-width: 7; stroke-linecap: round"/>
   </g>
   <g id="line2d_6">
    <path d="M 461.06758 314.952358 
L 462.202183 314.594396 
L 463.053135 314.145938 
L 463.904087 313.474031 
L 464.755039 312.504504 
L 465.605991 311.157448 
L 466.456944 309.355561 
L 467.307896 307.035016 
L 468.158848 304.15707 
L 469.293451 299.451291 
L 470.711705 292.328893 
L 472.413609 282.487665 
L 474.966466 266.249787 
L 476.952021 252.141754 
L 478.653925 238.177102 
L 480.35583 222.177056 
L 482.341385 201.181175 
L 484.043289 181.065618 
L 485.745193 158.509803 
L 488.581701 119.701325 
L 489.432653 110.792214 
L 489.999954 106.473958 
L 490.567256 103.798772 
L 490.850907 103.156964 
L 491.134557 103.013492 
L 491.418208 103.388029 
L 491.701859 104.294625 
L 492.26916 107.729517 
L 492.836462 113.304325 
L 493.403763 120.900301 
L 494.254715 135.581847 
L 495.389318 159.527284 
L 498.225826 221.522462 
L 499.360429 240.538663 
L 500.211381 251.633819 
L 501.062333 260.206447 
L 501.913285 266.706773 
L 502.764237 271.708519 
L 503.89884 277.03314 
L 510.422807 304.592035 
L 511.55741 308.071927 
L 512.408362 310.120698 
L 513.259314 311.710544 
L 514.110267 312.894443 
L 514.961219 313.741229 
L 515.812171 314.323446 
L 516.946774 314.803305 
L 517.514075 314.953666 
L 517.514075 314.953666 
" clip-path="url(#p798075e50a)" style="fill: none; stroke: #9c110b; stroke-width: 7; stroke-linecap: round"/>
   </g>
   <g id="patch_6">
    <path d="M 422.062917 315.3 
L 422.062917 92.4 
" style="fill: none; stroke: #262626; stroke-width: 2.5; stroke-linejoin: miter; stroke-linecap: square"/>
   </g>
   <g id="patch_7">
    <path d="M 422.062917 315.3 
L 692.685833 315.3 
" style="fill: none; stroke: #262626; stroke-width: 2.5; stroke-linejoin: miter; stroke-linecap: square"/>
   </g>
   <g id="text_19">
    <text style="fill: #262626; font: 24px 'Arial', 'DejaVu Sans', 'Liberation Sans', 'Bitstream Vera Sans', sans-serif; text-anchor: middle" x="557.374375" y="86.4" transform="rotate(-0 557.374375 86.4)">KlossROSp</text>
   </g>
  </g>
  <g id="axes_3">
   <g id="patch_8">
    <path d="M 764.615833 315.3 
L 1035.23875 315.3 
L 1035.23875 92.4 
L 764.615833 92.4 
L 764.615833 315.3 
z
" style="fill: none"/>
   </g>
   <g id="matplotlib.axis_5">
    <g id="xtick_7">
     <g id="text_20">
      <text style="fill: #262626; font: 22px 'Arial', 'DejaVu Sans', 'Liberation Sans', 'Bitstream Vera Sans', sans-serif; text-anchor: middle" x="772.487882" y="346.547188" transform="rotate(-0 772.487882 346.547188)">−5</text>
     </g>
    </g>
    <g id="xtick_8">
     <g id="text_21">
      <text style="fill: #262626; font: 22px 'Arial', 'DejaVu Sans', 'Liberation Sans', 'Bitstream Vera Sans', sans-serif; text-anchor: middle" x="900.113491" y="346.547188" transform="rotate(-0 900.113491 346.547188)">0</text>
     </g>
    </g>
    <g id="xtick_9">
     <g id="text_22">
      <text style="fill: #262626; font: 22px 'Arial', 'DejaVu Sans', 'Liberation Sans', 'Bitstream Vera Sans', sans-serif; text-anchor: middle" x="1027.7391" y="346.547188" transform="rotate(-0 1027.7391 346.547188)">5</text>
     </g>
    </g>
    <g id="text_23">
     <text style="fill: #262626; font: 24px 'Arial', 'DejaVu Sans', 'Liberation Sans', 'Bitstream Vera Sans', sans-serif; text-anchor: middle" x="899.927292" y="372.098438" transform="rotate(-0 899.927292 372.098438)">FC</text>
    </g>
   </g>
   <g id="matplotlib.axis_6">
    <g id="ytick_9">
     <g id="text_24">
      <text style="fill: #262626; font: 22px 'Arial', 'DejaVu Sans', 'Liberation Sans', 'Bitstream Vera Sans', sans-serif; text-anchor: end" x="749.115833" y="323.173594" transform="rotate(-0 749.115833 323.173594)">0.0</text>
     </g>
    </g>
    <g id="ytick_10">
     <g id="text_25">
      <text style="fill: #262626; font: 22px 'Arial', 'DejaVu Sans', 'Liberation Sans', 'Bitstream Vera Sans', sans-serif; text-anchor: end" x="749.115833" y="264.301995" transform="rotate(-0 749.115833 264.301995)">0.2</text>
     </g>
    </g>
    <g id="ytick_11">
     <g id="text_26">
      <text style="fill: #262626; font: 22px 'Arial', 'DejaVu Sans', 'Liberation Sans', 'Bitstream Vera Sans', sans-serif; text-anchor: end" x="749.115833" y="205.430396" transform="rotate(-0 749.115833 205.430396)">0.4</text>
     </g>
    </g>
    <g id="ytick_12">
     <g id="text_27">
      <text style="fill: #262626; font: 22px 'Arial', 'DejaVu Sans', 'Liberation Sans', 'Bitstream Vera Sans', sans-serif; text-anchor: end" x="749.115833" y="146.558797" transform="rotate(-0 749.115833 146.558797)">0.6</text>
     </g>
    </g>
   </g>
   <g id="line2d_7">
    <path d="M 797.629851 315.262369 
L 800.71987 315.113735 
L 802.779882 314.829382 
L 804.839895 314.234313 
L 805.869901 313.759882 
L 806.899907 313.132498 
L 807.929913 312.328259 
L 808.959919 311.329012 
L 809.989926 310.125803 
L 812.049938 307.134804 
L 814.109951 303.552158 
L 817.199969 297.943254 
L 819.259982 294.677934 
L 821.319994 292.104975 
L 822.350001 291.091124 
L 824.410013 289.532437 
L 826.470025 288.438832 
L 828.530038 287.63617 
L 830.59005 287.023039 
L 832.650063 286.569687 
L 834.710075 286.279277 
L 837.800094 286.127232 
L 848.100156 286.082863 
L 850.160169 285.807864 
L 853.250188 285.112948 
L 856.340206 284.390088 
L 858.400219 284.219033 
L 859.430225 284.293846 
L 860.460231 284.487424 
L 862.520244 285.19916 
L 868.700281 287.972623 
L 870.760294 288.348226 
L 872.820306 288.285333 
L 874.880319 287.850827 
L 876.940331 287.174344 
L 879.000343 286.357235 
L 881.060356 285.295503 
L 882.090362 284.514819 
L 883.120368 283.390442 
L 884.150375 281.713686 
L 885.180381 279.209767 
L 886.210387 275.543785 
L 887.240393 270.340335 
L 888.2704 263.21977 
L 889.300406 253.851688 
L 890.330412 242.022369 
L 891.360418 227.708141 
L 893.420431 192.858222 
L 896.510449 137.355385 
L 897.540456 122.765618 
L 898.570462 112.188781 
L 899.600468 106.525112 
L 900.630474 106.260981 
L 901.660481 111.398773 
L 902.690487 121.458044 
L 903.720493 135.547622 
L 905.780506 171.000364 
L 907.840518 207.827978 
L 908.870524 224.236759 
L 909.900531 238.509294 
L 910.930537 250.411598 
L 911.960543 259.953757 
L 912.990549 267.322946 
L 914.020555 272.81173 
L 915.050562 276.754196 
L 916.080568 279.477482 
L 917.110574 281.271287 
L 918.14058 282.373975 
L 919.170587 282.971457 
L 920.200593 283.204154 
L 921.230599 283.177694 
L 923.290612 282.660141 
L 926.38063 281.625104 
L 927.410637 281.413697 
L 928.440643 281.335899 
L 929.470649 281.417564 
L 930.500655 281.671921 
L 931.530661 282.098499 
L 932.560668 282.683389 
L 934.62068 284.216272 
L 938.740705 287.653255 
L 940.800718 288.998685 
L 942.86073 289.903269 
L 944.920743 290.378558 
L 946.980755 290.515545 
L 950.070774 290.346037 
L 958.310824 289.622682 
L 968.610886 289.112399 
L 970.670898 289.156844 
L 972.730911 289.386318 
L 974.790923 289.934877 
L 975.82093 290.382597 
L 976.850936 290.976878 
L 977.880942 291.738927 
L 978.910948 292.685139 
L 979.940955 293.824163 
L 982.000967 296.661122 
L 984.060979 300.084669 
L 988.181004 307.222239 
L 990.241017 310.13885 
L 991.271023 311.319965 
L 992.301029 312.306079 
L 993.331036 313.104396 
L 994.361042 313.731064 
L 995.391048 314.20806 
L 997.451061 314.812083 
L 999.511073 315.104632 
L 1002.601092 315.259875 
L 1002.601092 315.259875 
" clip-path="url(#pf51c008b6e)" style="fill: none; stroke: #b3b3b3; stroke-width: 7; stroke-linecap: round"/>
   </g>
   <g id="line2d_8">
    <path d="M 788.437963 315.21185 
L 792.25947 314.986716 
L 795.125601 314.571441 
L 797.036355 314.083868 
L 798.947109 313.348896 
L 800.857863 312.289539 
L 802.768617 310.829407 
L 804.67937 308.904544 
L 806.590124 306.476791 
L 808.500878 303.545744 
L 810.411632 300.155974 
L 813.277763 294.417156 
L 819.965401 280.408665 
L 821.876155 276.875985 
L 823.786909 273.746383 
L 825.697663 271.083523 
L 827.608417 268.927656 
L 829.51917 267.297033 
L 831.429924 266.185856 
L 833.340678 265.559202 
L 835.251432 265.347606 
L 837.162186 265.445211 
L 842.894447 266.158253 
L 844.805201 266.063099 
L 846.715955 265.654197 
L 848.626709 264.942739 
L 851.49284 263.525209 
L 853.403594 262.593742 
L 855.314347 261.907125 
L 856.269724 261.713643 
L 857.225101 261.644032 
L 858.180478 261.709773 
L 859.135855 261.916053 
L 860.091232 262.261245 
L 862.001986 263.327543 
L 863.91274 264.765339 
L 867.734247 267.849138 
L 869.645001 269.013396 
L 870.600378 269.414421 
L 871.555755 269.673004 
L 872.511132 269.778713 
L 873.466509 269.725219 
L 874.421886 269.509397 
L 875.377263 269.130146 
L 876.33264 268.587067 
L 877.288017 267.879142 
L 878.243394 267.003548 
L 879.198771 265.95478 
L 880.154147 264.724181 
L 881.109524 263.299997 
L 882.064901 261.668 
L 883.975655 257.719008 
L 885.886409 252.771768 
L 887.797163 246.801597 
L 889.707917 239.938043 
L 895.440178 218.289608 
L 896.395555 215.377499 
L 897.350932 212.898612 
L 898.306309 210.926741 
L 899.261686 209.521169 
L 900.217063 208.723536 
L 901.17244 208.555676 
L 902.127817 209.01858 
L 903.083194 210.092527 
L 904.038571 211.738359 
L 904.993947 213.899778 
L 905.949324 216.506469 
L 907.860078 222.726873 
L 913.59234 243.350714 
L 915.503094 249.09838 
L 917.413847 253.832139 
L 919.324601 257.562585 
L 921.235355 260.447317 
L 923.146109 262.744171 
L 927.922994 267.924548 
L 929.833747 270.481572 
L 931.744501 273.563791 
L 933.655255 277.191543 
L 935.566009 281.279366 
L 943.209024 298.409656 
L 945.119778 301.924398 
L 947.030532 304.905557 
L 948.941286 307.346781 
L 950.85204 309.28853 
L 952.762794 310.799248 
L 954.673547 311.957457 
L 956.584301 312.838272 
L 958.495055 313.505679 
L 961.361186 314.213311 
L 964.227317 314.671099 
L 968.048824 315.024083 
L 972.825709 315.218284 
L 978.557971 315.28612 
L 978.557971 315.28612 
" clip-path="url(#pf51c008b6e)" style="fill: none; stroke: #000000; stroke-width: 7; stroke-linecap: round"/>
   </g>
   <g id="line2d_9">
    <path d="M 868.806331 314.297719 
L 870.310616 313.641911 
L 871.313472 313.012686 
L 872.316328 312.179525 
L 873.319184 311.089904 
L 874.322041 309.682554 
L 875.324897 307.887561 
L 876.327753 305.627062 
L 877.330609 302.816662 
L 878.333466 299.367699 
L 879.336322 295.19045 
L 880.339178 290.19828 
L 881.342034 284.312715 
L 882.344891 277.469261 
L 883.849175 265.318575 
L 885.353459 250.890196 
L 886.857744 234.335326 
L 888.863456 209.616922 
L 893.877738 145.361476 
L 895.382022 129.346062 
L 896.384878 120.421413 
L 897.387734 113.176726 
L 898.390591 107.792837 
L 898.892019 105.838409 
L 899.393447 104.38843 
L 899.894875 103.44697 
L 900.396303 103.013625 
L 900.897731 103.08353 
L 901.399159 103.647442 
L 901.900587 104.691882 
L 902.402016 106.199342 
L 903.404872 110.514727 
L 904.407728 116.383962 
L 905.410584 123.554229 
L 906.914869 136.127317 
L 909.923437 164.17739 
L 911.92915 182.169887 
L 913.433434 194.172672 
L 914.937719 204.479508 
L 916.442003 212.949279 
L 917.444859 217.590385 
L 918.447716 221.480896 
L 919.450572 224.691306 
L 920.453428 227.306618 
L 921.456284 229.42026 
L 922.45914 231.128734 
L 923.963425 233.138599 
L 925.969137 235.240874 
L 928.977706 238.29731 
L 930.48199 240.153953 
L 931.986275 242.377037 
L 933.490559 245.028653 
L 934.994844 248.138936 
L 936.499128 251.710284 
L 938.50484 257.146514 
L 940.510553 263.24011 
L 943.519122 273.184676 
L 948.031975 288.15385 
L 950.037687 294.120196 
L 952.0434 299.353435 
L 953.547684 302.722078 
L 955.051968 305.591881 
L 956.556253 307.971756 
L 958.060537 309.892587 
L 959.564822 311.401305 
L 961.069106 312.554444 
L 962.57339 313.412067 
L 964.077675 314.032722 
L 966.083387 314.582874 
L 968.590528 314.969032 
L 968.590528 314.969032 
" clip-path="url(#pf51c008b6e)" style="fill: none; stroke: #9c110b; stroke-width: 7; stroke-linecap: round"/>
   </g>
   <g id="patch_9">
    <path d="M 764.615833 315.3 
L 764.615833 92.4 
" style="fill: none; stroke: #262626; stroke-width: 2.5; stroke-linejoin: miter; stroke-linecap: square"/>
   </g>
   <g id="patch_10">
    <path d="M 764.615833 315.3 
L 1035.23875 315.3 
" style="fill: none; stroke: #262626; stroke-width: 2.5; stroke-linejoin: miter; stroke-linecap: square"/>
   </g>
   <g id="text_28">
    <text style="fill: #262626; font: 24px 'Arial', 'DejaVu Sans', 'Liberation Sans', 'Bitstream Vera Sans', sans-serif; text-anchor: middle" x="899.927292" y="86.4" transform="rotate(-0 899.927292 86.4)">omegaP</text>
   </g>
  </g>
  <g id="text_29">
   <text style="fill: #262626; font: 28.8px 'Arial', 'DejaVu Sans', 'Liberation Sans', 'Bitstream Vera Sans', sans-serif; text-anchor: middle" x="521.15875" y="27.8145" transform="rotate(-0 521.15875 27.8145)">ROS</text>
  </g>
 </g>
 <defs>
  <clipPath id="p80d2c8cd29">
   <rect x="79.51" y="92.4" width="270.622917" height="222.9"/>
  </clipPath>
  <clipPath id="p798075e50a">
   <rect x="422.062917" y="92.4" width="270.622917" height="222.9"/>
  </clipPath>
  <clipPath id="pf51c008b6e">
   <rect x="764.615833" y="92.4" width="270.622917" height="222.9"/>
  </clipPath>
 </defs>
</svg>
