<?xml version="1.0" encoding="utf-8" standalone="no"?>
<!DOCTYPE svg PUBLIC "-//W3C//DTD SVG 1.1//EN"
  "http://www.w3.org/Graphics/SVG/1.1/DTD/svg11.dtd">
<svg xmlns:xlink="http://www.w3.org/1999/xlink" width="322.43875pt" height="384.068438pt" viewBox="0 0 322.43875 384.068438" xmlns="http://www.w3.org/2000/svg" version="1.1">
 <metadata>
  <rdf:RDF xmlns:dc="http://purl.org/dc/elements/1.1/" xmlns:cc="http://creativecommons.org/ns#" xmlns:rdf="http://www.w3.org/1999/02/22-rdf-syntax-ns#">
   <cc:Work>
    <dc:type rdf:resource="http://purl.org/dc/dcmitype/StillImage"/>
    <dc:date>2024-12-17T11:27:17.220386</dc:date>
    <dc:format>image/svg+xml</dc:format>
    <dc:creator>
     <cc:Agent>
      <dc:title>Matplotlib v3.8.0, https://matplotlib.org/</dc:title>
     </cc:Agent>
    </dc:creator>
   </cc:Work>
  </rdf:RDF>
 </metadata>
 <defs>
  <style type="text/css">*{stroke-linejoin: round; stroke-linecap: butt}</style>
 </defs>
 <g id="figure_1">
  <g id="patch_1">
   <path d="M 0 384.068438 
L 322.43875 384.068438 
L 322.43875 -0 
L 0 -0 
L 0 384.068438 
z
" style="fill: none"/>
  </g>
  <g id="axes_1">
   <g id="patch_2">
    <path d="M 79.51 315.3 
L 315.23875 315.3 
L 315.23875 92.4 
L 79.51 92.4 
L 79.51 315.3 
z
" style="fill: none"/>
   </g>
   <g id="matplotlib.axis_1">
    <g id="xtick_1">
     <g id="text_1">
      <text style="fill: #262626; font: 22px 'Arial', 'DejaVu Sans', 'Liberation Sans', 'Bitstream Vera Sans', sans-serif; text-anchor: middle" x="131.389952" y="346.547188" transform="rotate(-0 131.389952 346.547188)">−2.5</text>
     </g>
    </g>
    <g id="xtick_2">
     <g id="text_2">
      <text style="fill: #262626; font: 22px 'Arial', 'DejaVu Sans', 'Liberation Sans', 'Bitstream Vera Sans', sans-serif; text-anchor: middle" x="197.372504" y="346.547188" transform="rotate(-0 197.372504 346.547188)">0.0</text>
     </g>
    </g>
    <g id="xtick_3">
     <g id="text_3">
      <text style="fill: #262626; font: 22px 'Arial', 'DejaVu Sans', 'Liberation Sans', 'Bitstream Vera Sans', sans-serif; text-anchor: middle" x="263.355055" y="346.547188" transform="rotate(-0 263.355055 346.547188)">2.5</text>
     </g>
    </g>
    <g id="text_4">
     <text style="fill: #262626; font: 24px 'Arial', 'DejaVu Sans', 'Liberation Sans', 'Bitstream Vera Sans', sans-serif; text-anchor: middle" x="197.374375" y="372.098438" transform="rotate(-0 197.374375 372.098438)">FC</text>
    </g>
   </g>
   <g id="matplotlib.axis_2">
    <g id="ytick_1">
     <g id="text_5">
      <text style="fill: #262626; font: 22px 'Arial', 'DejaVu Sans', 'Liberation Sans', 'Bitstream Vera Sans', sans-serif; text-anchor: end" x="64.01" y="323.173594" transform="rotate(-0 64.01 323.173594)">0.0</text>
     </g>
    </g>
    <g id="ytick_2">
     <g id="text_6">
      <text style="fill: #262626; font: 22px 'Arial', 'DejaVu Sans', 'Liberation Sans', 'Bitstream Vera Sans', sans-serif; text-anchor: end" x="64.01" y="240.054339" transform="rotate(-0 64.01 240.054339)">0.5</text>
     </g>
    </g>
    <g id="ytick_3">
     <g id="text_7">
      <text style="fill: #262626; font: 22px 'Arial', 'DejaVu Sans', 'Liberation Sans', 'Bitstream Vera Sans', sans-serif; text-anchor: end" x="64.01" y="156.935084" transform="rotate(-0 64.01 156.935084)">1.0</text>
     </g>
    </g>
    <g id="text_8">
     <text style="fill: #262626; font: 24px 'Arial', 'DejaVu Sans', 'Liberation Sans', 'Bitstream Vera Sans', sans-serif; text-anchor: middle" x="24.37875" y="203.85" transform="rotate(-90 24.37875 203.85)">Density</text>
    </g>
   </g>
   <g id="line2d_1">
    <path d="M 90.224943 315.278054 
L 94.532458 315.143974 
L 96.686215 314.941934 
L 98.839973 314.554541 
L 100.99373 313.888431 
L 103.147488 312.860993 
L 105.301245 311.438686 
L 107.455003 309.670238 
L 113.916275 303.886451 
L 116.070032 302.38591 
L 118.22379 301.252397 
L 120.377547 300.468974 
L 122.531305 299.983069 
L 124.685062 299.738339 
L 126.838819 299.686841 
L 130.069456 299.868046 
L 136.530728 300.397188 
L 139.761364 300.400084 
L 145.145757 300.069387 
L 149.453272 299.872845 
L 167.76021 299.740033 
L 175.298361 300.213166 
L 176.37524 300.121609 
L 177.452119 299.891942 
L 178.528998 299.460835 
L 179.605876 298.746102 
L 180.682755 297.645108 
L 181.759634 296.035826 
L 182.836512 293.781933 
L 183.913391 290.743128 
L 184.99027 286.791275 
L 186.067149 281.831903 
L 187.144027 275.829217 
L 188.220906 268.831226 
L 190.374663 252.574087 
L 192.528421 235.622557 
L 193.6053 228.078599 
L 194.682178 221.851469 
L 195.759057 217.403825 
L 196.835936 215.082526 
L 197.912814 215.073797 
L 198.989693 217.378362 
L 200.066572 221.811121 
L 201.14345 228.025469 
L 202.220329 235.557793 
L 206.527844 268.676172 
L 207.604723 275.624236 
L 208.681601 281.561502 
L 209.75848 286.43961 
L 210.835359 290.294958 
L 211.912238 293.223039 
L 212.989116 295.352755 
L 214.065995 296.824248 
L 215.142874 297.772271 
L 216.219752 298.315713 
L 217.296631 298.552748 
L 218.37351 298.560415 
L 219.450389 298.397179 
L 221.604146 297.72395 
L 224.834782 296.282356 
L 228.065418 294.881906 
L 230.219176 294.218074 
L 232.372933 293.853756 
L 234.526691 293.772027 
L 236.680448 293.899331 
L 240.987963 294.443871 
L 250.679871 295.742583 
L 252.833629 295.81711 
L 254.987386 295.720143 
L 258.218022 295.326573 
L 262.525537 294.802056 
L 264.679294 294.716894 
L 266.833052 294.788613 
L 270.063688 295.179235 
L 272.217445 295.632031 
L 274.371203 296.281062 
L 276.52496 297.205549 
L 278.678718 298.504921 
L 280.832475 300.253516 
L 282.986233 302.442292 
L 286.216869 306.234986 
L 288.370626 308.739916 
L 290.524384 310.925276 
L 292.678141 312.628149 
L 294.831898 313.812569 
L 296.985656 314.547915 
L 299.139413 314.955549 
L 302.370049 315.211697 
L 304.523807 315.268667 
L 304.523807 315.268667 
" clip-path="url(#p46357038ff)" style="fill: none; stroke: #b3b3b3; stroke-width: 7; stroke-linecap: round"/>
   </g>
   <g id="line2d_2">
    <path d="M 111.203668 315.290128 
L 116.888828 315.171139 
L 121.626462 314.816235 
L 126.364096 314.436293 
L 129.206676 314.442509 
L 132.996783 314.726574 
L 136.78689 314.998376 
L 140.576997 315.023814 
L 149.104737 314.883794 
L 164.265165 315.27572 
L 169.950325 315.131782 
L 182.268173 314.565106 
L 188.90086 314.613139 
L 190.795913 314.417908 
L 192.690967 313.998974 
L 194.58602 313.339009 
L 199.323654 311.333893 
L 201.218707 310.879748 
L 203.113761 310.816575 
L 205.008814 311.089077 
L 208.798921 311.845892 
L 209.746448 311.899802 
L 210.693975 311.837538 
L 211.641501 311.626153 
L 212.589028 311.228549 
L 213.536555 310.601388 
L 214.484082 309.693841 
L 215.431608 308.447872 
L 216.379135 306.800658 
L 217.326662 304.689522 
L 218.274189 302.059359 
L 219.221715 298.872078 
L 220.169242 295.116968 
L 222.064295 286.052834 
L 226.801929 260.498702 
L 227.749456 256.398978 
L 228.696983 253.028111 
L 229.644509 250.461599 
L 230.592036 248.708602 
L 231.539563 247.713324 
L 232.487089 247.364165 
L 233.434616 247.508855 
L 234.382143 247.973063 
L 236.277196 249.166941 
L 237.224723 249.6021 
L 238.17225 249.792341 
L 239.119777 249.690017 
L 240.067303 249.29387 
L 241.01483 248.645949 
L 244.804937 245.392456 
L 245.752464 244.938312 
L 246.69999 244.77142 
L 247.647517 244.890802 
L 248.595044 245.243536 
L 250.490097 246.221728 
L 251.437624 246.576654 
L 252.385151 246.669687 
L 253.332678 246.412018 
L 254.280204 245.767723 
L 255.227731 244.760113 
L 257.122785 242.009363 
L 259.017838 239.162894 
L 259.965365 238.039708 
L 260.912891 237.249498 
L 261.860418 236.846606 
L 262.807945 236.84904 
L 263.755472 237.244963 
L 264.702998 238.002049 
L 265.650525 239.077016 
L 266.598052 240.423226 
L 268.493105 243.749385 
L 271.335685 249.67521 
L 274.178266 255.633815 
L 276.073319 259.161437 
L 278.915899 264.176146 
L 279.863426 266.085945 
L 280.810953 268.278475 
L 281.75848 270.832503 
L 282.706006 273.791256 
L 284.60106 280.860916 
L 289.338693 300.426702 
L 290.28622 303.623469 
L 291.233747 306.373433 
L 292.181274 308.658065 
L 293.1288 310.492027 
L 294.076327 311.915158 
L 295.023854 312.983125 
L 295.97138 313.758457 
L 296.918907 314.303182 
L 297.866434 314.673651 
L 299.761487 315.073209 
L 299.761487 315.073209 
" clip-path="url(#p46357038ff)" style="fill: none; stroke: #000000; stroke-width: 7; stroke-linecap: round"/>
   </g>
   <g id="line2d_3">
    <path d="M 94.764586 314.995874 
L 96.152647 314.694929 
L 97.540708 314.162674 
L 98.581753 313.540943 
L 99.622799 312.664546 
L 100.663845 311.474743 
L 101.70489 309.920168 
L 102.745936 307.966859 
L 103.786982 305.608519 
L 105.175042 301.890069 
L 107.257134 295.467436 
L 113.156392 276.23198 
L 114.197438 271.69519 
L 115.238483 265.881242 
L 116.279529 258.268392 
L 117.320575 248.39072 
L 118.36162 235.938251 
L 119.402666 220.856032 
L 120.790727 197.193208 
L 124.607894 128.272565 
L 125.64894 114.770399 
L 126.34297 108.372463 
L 127.037 104.393214 
L 127.384016 103.371394 
L 127.731031 103.013816 
L 128.078046 103.325862 
L 128.425061 104.305613 
L 128.772076 105.943842 
L 129.466107 111.123062 
L 130.160137 118.650708 
L 131.201183 133.643596 
L 132.589244 158.356204 
L 135.365365 210.085664 
L 136.406411 226.129579 
L 137.447457 239.003671 
L 138.141487 245.67725 
L 138.835517 250.839737 
L 139.529548 254.586833 
L 140.223578 257.074113 
L 140.917609 258.503059 
L 141.264624 258.892465 
L 141.611639 259.10596 
L 142.305669 259.130559 
L 142.9997 258.825232 
L 144.387761 258.141958 
L 145.081791 258.15165 
L 145.775821 258.590696 
L 146.469852 259.550942 
L 147.163882 261.079109 
L 147.857913 263.178833 
L 148.898958 267.31465 
L 150.287019 274.256176 
L 154.798217 298.419528 
L 155.839262 302.658508 
L 156.880308 306.128732 
L 157.921354 308.854377 
L 158.962399 310.911691 
L 160.003445 312.405849 
L 161.044491 313.451012 
L 162.085536 314.155718 
L 163.126582 314.614011 
L 163.820612 314.820822 
L 163.820612 314.820822 
" clip-path="url(#p46357038ff)" style="fill: none; stroke: #9c110b; stroke-width: 7; stroke-linecap: round"/>
   </g>
   <g id="patch_3">
    <path d="M 79.51 315.3 
L 79.51 92.4 
" style="fill: none; stroke: #262626; stroke-width: 2.5; stroke-linejoin: miter; stroke-linecap: square"/>
   </g>
   <g id="patch_4">
    <path d="M 79.51 315.3 
L 315.23875 315.3 
" style="fill: none; stroke: #262626; stroke-width: 2.5; stroke-linejoin: miter; stroke-linecap: square"/>
   </g>
   <g id="text_9">
    <text style="fill: #262626; font: 24px 'Arial', 'DejaVu Sans', 'Liberation Sans', 'Bitstream Vera Sans', sans-serif; text-anchor: middle" x="197.374375" y="86.4" transform="rotate(-0 197.374375 86.4)">Mp</text>
   </g>
  </g>
  <g id="text_10">
   <text style="fill: #262626; font: 28.8px 'Arial', 'DejaVu Sans', 'Liberation Sans', 'Bitstream Vera Sans', sans-serif; text-anchor: middle" x="161.15875" y="27.8145" transform="rotate(-0 161.15875 27.8145)">ROS</text>
  </g>
 </g>
 <defs>
  <clipPath id="p46357038ff">
   <rect x="79.51" y="92.4" width="235.72875" height="222.9"/>
  </clipPath>
 </defs>
</svg>
