<?xml version="1.0" encoding="utf-8" standalone="no"?>
<!DOCTYPE svg PUBLIC "-//W3C//DTD SVG 1.1//EN"
  "http://www.w3.org/Graphics/SVG/1.1/DTD/svg11.dtd">
<svg xmlns:xlink="http://www.w3.org/1999/xlink" width="328.555781pt" height="384.068438pt" viewBox="0 0 328.555781 384.068438" xmlns="http://www.w3.org/2000/svg" version="1.1">
 <metadata>
  <rdf:RDF xmlns:dc="http://purl.org/dc/elements/1.1/" xmlns:cc="http://creativecommons.org/ns#" xmlns:rdf="http://www.w3.org/1999/02/22-rdf-syntax-ns#">
   <cc:Work>
    <dc:type rdf:resource="http://purl.org/dc/dcmitype/StillImage"/>
    <dc:date>2024-12-17T11:38:39.922809</dc:date>
    <dc:format>image/svg+xml</dc:format>
    <dc:creator>
     <cc:Agent>
      <dc:title>Matplotlib v3.8.0, https://matplotlib.org/</dc:title>
     </cc:Agent>
    </dc:creator>
   </cc:Work>
  </rdf:RDF>
 </metadata>
 <defs>
  <style type="text/css">*{stroke-linejoin: round; stroke-linecap: butt}</style>
 </defs>
 <g id="figure_1">
  <g id="patch_1">
   <path d="M 0 384.068438 
L 328.555781 384.068438 
L 328.555781 -0 
L 0 -0 
L 0 384.068438 
z
" style="fill: none"/>
  </g>
  <g id="axes_1">
   <g id="patch_2">
    <path d="M 79.51 315.3 
L 315.23875 315.3 
L 315.23875 92.4 
L 79.51 92.4 
L 79.51 315.3 
z
" style="fill: none"/>
   </g>
   <g id="matplotlib.axis_1">
    <g id="xtick_1">
     <g id="text_1">
      <text style="fill: #262626; font: 22px 'Arial', 'DejaVu Sans', 'Liberation Sans', 'Bitstream Vera Sans', sans-serif; text-anchor: middle" x="79.51" y="346.547188" transform="rotate(-0 79.51 346.547188)">−5</text>
     </g>
    </g>
    <g id="xtick_2">
     <g id="text_2">
      <text style="fill: #262626; font: 22px 'Arial', 'DejaVu Sans', 'Liberation Sans', 'Bitstream Vera Sans', sans-serif; text-anchor: middle" x="197.374375" y="346.547188" transform="rotate(-0 197.374375 346.547188)">0</text>
     </g>
    </g>
    <g id="xtick_3">
     <g id="text_3">
      <text style="fill: #262626; font: 22px 'Arial', 'DejaVu Sans', 'Liberation Sans', 'Bitstream Vera Sans', sans-serif; text-anchor: middle" x="315.23875" y="346.547188" transform="rotate(-0 315.23875 346.547188)">5</text>
     </g>
    </g>
    <g id="text_4">
     <text style="fill: #262626; font: 24px 'Arial', 'DejaVu Sans', 'Liberation Sans', 'Bitstream Vera Sans', sans-serif; text-anchor: middle" x="197.374375" y="372.098438" transform="rotate(-0 197.374375 372.098438)">FC</text>
    </g>
   </g>
   <g id="matplotlib.axis_2">
    <g id="ytick_1">
     <g id="text_5">
      <text style="fill: #262626; font: 22px 'Arial', 'DejaVu Sans', 'Liberation Sans', 'Bitstream Vera Sans', sans-serif; text-anchor: end" x="64.01" y="323.173594" transform="rotate(-0 64.01 323.173594)">0.0</text>
     </g>
    </g>
    <g id="ytick_2">
     <g id="text_6">
      <text style="fill: #262626; font: 22px 'Arial', 'DejaVu Sans', 'Liberation Sans', 'Bitstream Vera Sans', sans-serif; text-anchor: end" x="64.01" y="240.054339" transform="rotate(-0 64.01 240.054339)">0.5</text>
     </g>
    </g>
    <g id="ytick_3">
     <g id="text_7">
      <text style="fill: #262626; font: 22px 'Arial', 'DejaVu Sans', 'Liberation Sans', 'Bitstream Vera Sans', sans-serif; text-anchor: end" x="64.01" y="156.935084" transform="rotate(-0 64.01 156.935084)">1.0</text>
     </g>
    </g>
    <g id="text_8">
     <text style="fill: #262626; font: 24px 'Arial', 'DejaVu Sans', 'Liberation Sans', 'Bitstream Vera Sans', sans-serif; text-anchor: middle" x="24.37875" y="203.85" transform="rotate(-90 24.37875 203.85)">Density</text>
    </g>
   </g>
   <g id="line2d_1">
    <path d="M 101.67574 315.278054 
L 105.522988 315.143974 
L 107.446612 314.941934 
L 109.370237 314.554541 
L 111.293861 313.888431 
L 113.217485 312.860993 
L 115.141109 311.438686 
L 117.064734 309.670238 
L 122.835606 303.886451 
L 124.759231 302.38591 
L 126.682855 301.252397 
L 128.606479 300.468974 
L 130.530103 299.983069 
L 132.453728 299.738339 
L 134.377352 299.686841 
L 137.262788 299.868046 
L 143.033661 300.397188 
L 145.919097 300.400084 
L 150.728158 300.069387 
L 154.575407 299.872845 
L 170.926213 299.740033 
L 177.658898 300.213166 
L 178.62071 300.121609 
L 179.582522 299.891942 
L 180.544334 299.460835 
L 181.506146 298.746102 
L 182.467958 297.645108 
L 183.42977 296.035826 
L 184.391583 293.781933 
L 185.353395 290.743128 
L 186.315207 286.791275 
L 187.277019 281.831903 
L 188.238831 275.829217 
L 189.200643 268.831226 
L 191.124267 252.574087 
L 193.047892 235.622557 
L 194.009704 228.078599 
L 194.971516 221.851469 
L 195.933328 217.403825 
L 196.89514 215.082526 
L 197.856952 215.073797 
L 198.818764 217.378362 
L 199.780577 221.811121 
L 200.742389 228.025469 
L 202.666013 243.884183 
L 205.551449 268.676172 
L 206.513261 275.624236 
L 207.475074 281.561502 
L 208.436886 286.43961 
L 209.398698 290.294958 
L 210.36051 293.223039 
L 211.322322 295.352755 
L 212.284134 296.824248 
L 213.245946 297.772271 
L 214.207758 298.315713 
L 215.169571 298.552748 
L 216.131383 298.560415 
L 217.093195 298.397179 
L 219.016819 297.72395 
L 221.902255 296.282356 
L 224.787692 294.881906 
L 226.711316 294.218074 
L 228.63494 293.853756 
L 230.558565 293.772027 
L 233.444001 294.01295 
L 239.214874 294.917338 
L 244.023934 295.649262 
L 245.947559 295.800459 
L 247.871183 295.789905 
L 250.756619 295.478157 
L 255.56568 294.802056 
L 257.489304 294.716894 
L 259.412928 294.788613 
L 262.298365 295.179235 
L 264.221989 295.632031 
L 266.145613 296.281062 
L 268.069238 297.205549 
L 269.992862 298.504921 
L 271.916486 300.253516 
L 273.84011 302.442292 
L 277.687359 307.512801 
L 279.610983 309.885591 
L 281.534607 311.842234 
L 283.458232 313.28274 
L 285.381856 314.229326 
L 287.30548 314.784618 
L 289.229104 315.075529 
L 292.114541 315.246713 
L 293.076353 315.268667 
L 293.076353 315.268667 
" clip-path="url(#p3e7f8e3dbe)" style="fill: none; stroke: #b3b3b3; stroke-width: 7; stroke-linecap: round"/>
   </g>
   <g id="line2d_2">
    <path d="M 120.412847 315.290128 
L 125.490537 315.171139 
L 129.721945 314.816235 
L 133.953353 314.436293 
L 136.492198 314.442509 
L 139.877325 314.726574 
L 143.262452 314.998376 
L 146.647578 315.023814 
L 154.264113 314.883794 
L 167.80462 315.27572 
L 172.88231 315.131782 
L 183.883971 314.565106 
L 189.807943 314.613139 
L 191.500506 314.417908 
L 193.193069 313.998974 
L 194.885633 313.339009 
L 199.117041 311.333893 
L 200.809604 310.879748 
L 202.502168 310.816575 
L 204.194731 311.089077 
L 207.579857 311.845892 
L 208.426139 311.899802 
L 209.272421 311.837538 
L 210.118702 311.626153 
L 210.964984 311.228549 
L 211.811266 310.601388 
L 212.657547 309.693841 
L 213.503829 308.447872 
L 214.350111 306.800658 
L 215.196392 304.689522 
L 216.042674 302.059359 
L 216.888956 298.872078 
L 217.735237 295.116968 
L 219.427801 286.052834 
L 223.659209 260.498702 
L 224.505491 256.398978 
L 225.351772 253.028111 
L 226.198054 250.461599 
L 227.044336 248.708602 
L 227.890617 247.713324 
L 228.736899 247.364165 
L 229.583181 247.508855 
L 230.429462 247.973063 
L 232.122026 249.166941 
L 232.968307 249.6021 
L 233.814589 249.792341 
L 234.660871 249.690017 
L 235.507152 249.29387 
L 236.353434 248.645949 
L 239.73856 245.392456 
L 240.584842 244.938312 
L 241.431124 244.77142 
L 242.277405 244.890802 
L 243.123687 245.243536 
L 245.662532 246.576654 
L 246.508814 246.669687 
L 247.355095 246.412018 
L 248.201377 245.767723 
L 249.047659 244.760113 
L 250.740222 242.009363 
L 252.432785 239.162894 
L 253.279067 238.039708 
L 254.125349 237.249498 
L 254.97163 236.846606 
L 255.817912 236.84904 
L 256.664194 237.244963 
L 257.510475 238.002049 
L 258.356757 239.077016 
L 259.203039 240.423226 
L 260.895602 243.749385 
L 263.434447 249.67521 
L 265.973292 255.633815 
L 267.665855 259.161437 
L 270.2047 264.176146 
L 271.050982 266.085945 
L 271.897263 268.278475 
L 272.743545 270.832503 
L 274.436108 277.15166 
L 276.128672 284.821255 
L 278.667517 296.839587 
L 280.36008 303.623469 
L 281.206362 306.373433 
L 282.052643 308.658065 
L 282.898925 310.492027 
L 283.745207 311.915158 
L 284.591488 312.983125 
L 285.43777 313.758457 
L 286.284052 314.303182 
L 287.130333 314.673651 
L 288.822897 315.073209 
L 288.822897 315.073209 
" clip-path="url(#p3e7f8e3dbe)" style="fill: none; stroke: #000000; stroke-width: 7; stroke-linecap: round"/>
   </g>
   <g id="line2d_3">
    <path d="M 105.730313 314.995874 
L 106.970057 314.694929 
L 108.209801 314.162674 
L 109.139608 313.540943 
L 110.069416 312.664546 
L 110.999224 311.474743 
L 111.929032 309.920168 
L 112.85884 307.966859 
L 114.098584 304.736344 
L 115.648264 299.831545 
L 118.747623 288.783394 
L 121.846983 277.547595 
L 122.776791 273.323754 
L 123.706598 267.993574 
L 124.636406 261.036864 
L 125.566214 251.958398 
L 126.496022 240.384802 
L 127.42583 226.165911 
L 128.665574 203.423768 
L 132.694741 123.309123 
L 133.624549 111.284394 
L 134.244421 106.066728 
L 134.554357 104.393214 
L 134.864293 103.371394 
L 135.174229 103.013816 
L 135.484165 103.325862 
L 135.794101 104.305613 
L 136.104037 105.943842 
L 136.723909 111.123062 
L 137.34378 118.650708 
L 138.273588 133.643596 
L 139.513332 158.356204 
L 142.302756 215.751633 
L 143.232564 230.795081 
L 144.162371 242.532646 
L 145.092179 250.839737 
L 145.712051 254.586833 
L 146.331923 257.074113 
L 146.951795 258.503059 
L 147.571667 259.10596 
L 148.191539 259.130559 
L 148.811411 258.825232 
L 150.051155 258.141958 
L 150.671027 258.15165 
L 151.290898 258.590696 
L 151.91077 259.550942 
L 152.530642 261.079109 
L 153.150514 263.178833 
L 154.080322 267.31465 
L 155.320066 274.256176 
L 159.349233 298.419528 
L 160.588977 303.900805 
L 161.518785 307.117089 
L 162.448593 309.609598 
L 163.378401 311.466699 
L 164.308209 312.79854 
L 165.238017 313.718745 
L 166.167824 314.331731 
L 167.407568 314.820822 
L 167.407568 314.820822 
" clip-path="url(#p3e7f8e3dbe)" style="fill: none; stroke: #9c110b; stroke-width: 7; stroke-linecap: round"/>
   </g>
   <g id="patch_3">
    <path d="M 79.51 315.3 
L 79.51 92.4 
" style="fill: none; stroke: #262626; stroke-width: 2.5; stroke-linejoin: miter; stroke-linecap: square"/>
   </g>
   <g id="patch_4">
    <path d="M 79.51 315.3 
L 315.23875 315.3 
" style="fill: none; stroke: #262626; stroke-width: 2.5; stroke-linejoin: miter; stroke-linecap: square"/>
   </g>
   <g id="text_9">
    <text style="fill: #262626; font: 24px 'Arial', 'DejaVu Sans', 'Liberation Sans', 'Bitstream Vera Sans', sans-serif; text-anchor: middle" x="197.374375" y="86.4" transform="rotate(-0 197.374375 86.4)">Mp</text>
   </g>
  </g>
  <g id="text_10">
   <text style="fill: #262626; font: 28.8px 'Arial', 'DejaVu Sans', 'Liberation Sans', 'Bitstream Vera Sans', sans-serif; text-anchor: middle" x="161.15875" y="27.8145" transform="rotate(-0 161.15875 27.8145)">ROS</text>
  </g>
 </g>
 <defs>
  <clipPath id="p3e7f8e3dbe">
   <rect x="79.51" y="92.4" width="235.72875" height="222.9"/>
  </clipPath>
 </defs>
</svg>
