<?xml version="1.0" encoding="utf-8" standalone="no"?>
<!DOCTYPE svg PUBLIC "-//W3C//DTD SVG 1.1//EN"
  "http://www.w3.org/Graphics/SVG/1.1/DTD/svg11.dtd">
<svg xmlns:xlink="http://www.w3.org/1999/xlink" width="1697.43875pt" height="682.339687pt" viewBox="0 0 1697.43875 682.339687" xmlns="http://www.w3.org/2000/svg" version="1.1">
 <metadata>
  <rdf:RDF xmlns:dc="http://purl.org/dc/elements/1.1/" xmlns:cc="http://creativecommons.org/ns#" xmlns:rdf="http://www.w3.org/1999/02/22-rdf-syntax-ns#">
   <cc:Work>
    <dc:type rdf:resource="http://purl.org/dc/dcmitype/StillImage"/>
    <dc:date>2024-12-17T10:30:58.415488</dc:date>
    <dc:format>image/svg+xml</dc:format>
    <dc:creator>
     <cc:Agent>
      <dc:title>Matplotlib v3.8.0, https://matplotlib.org/</dc:title>
     </cc:Agent>
    </dc:creator>
   </cc:Work>
  </rdf:RDF>
 </metadata>
 <defs>
  <style type="text/css">*{stroke-linejoin: round; stroke-linecap: butt}</style>
 </defs>
 <g id="figure_1">
  <g id="patch_1">
   <path d="M 0 682.339687 
L 1697.43875 682.339687 
L 1697.43875 0 
L 0 0 
L 0 682.339687 
z
" style="fill: none"/>
  </g>
  <g id="axes_1">
   <g id="patch_2">
    <path d="M 79.51 278.17125 
L 350.194487 278.17125 
L 350.194487 30.67125 
L 79.51 30.67125 
L 79.51 278.17125 
z
" style="fill: none"/>
   </g>
   <g id="matplotlib.axis_1">
    <g id="xtick_1"/>
    <g id="xtick_2"/>
    <g id="xtick_3"/>
   </g>
   <g id="matplotlib.axis_2">
    <g id="ytick_1">
     <g id="text_1">
      <text style="fill: #262626; font: 22px 'Arial', 'DejaVu Sans', 'Liberation Sans', 'Bitstream Vera Sans', sans-serif; text-anchor: end" x="64.01" y="286.044844" transform="rotate(-0 64.01 286.044844)">0.0</text>
     </g>
    </g>
    <g id="ytick_2">
     <g id="text_2">
      <text style="fill: #262626; font: 22px 'Arial', 'DejaVu Sans', 'Liberation Sans', 'Bitstream Vera Sans', sans-serif; text-anchor: end" x="64.01" y="233.672457" transform="rotate(-0 64.01 233.672457)">0.2</text>
     </g>
    </g>
    <g id="ytick_3">
     <g id="text_3">
      <text style="fill: #262626; font: 22px 'Arial', 'DejaVu Sans', 'Liberation Sans', 'Bitstream Vera Sans', sans-serif; text-anchor: end" x="64.01" y="181.300071" transform="rotate(-0 64.01 181.300071)">0.4</text>
     </g>
    </g>
    <g id="ytick_4">
     <g id="text_4">
      <text style="fill: #262626; font: 22px 'Arial', 'DejaVu Sans', 'Liberation Sans', 'Bitstream Vera Sans', sans-serif; text-anchor: end" x="64.01" y="128.927684" transform="rotate(-0 64.01 128.927684)">0.6</text>
     </g>
    </g>
    <g id="ytick_5">
     <g id="text_5">
      <text style="fill: #262626; font: 22px 'Arial', 'DejaVu Sans', 'Liberation Sans', 'Bitstream Vera Sans', sans-serif; text-anchor: end" x="64.01" y="76.555297" transform="rotate(-0 64.01 76.555297)">0.8</text>
     </g>
    </g>
    <g id="text_6">
     <text style="fill: #262626; font: 24px 'Arial', 'DejaVu Sans', 'Liberation Sans', 'Bitstream Vera Sans', sans-serif; text-anchor: middle" x="24.37875" y="154.42125" transform="rotate(-90 24.37875 154.42125)">Density</text>
    </g>
   </g>
   <g id="line2d_1">
    <path d="M 118.376441 278.139188 
L 121.297947 277.96771 
L 123.245617 277.595107 
L 124.219453 277.254834 
L 125.193288 276.766076 
L 126.167123 276.092832 
L 127.140958 275.20347 
L 128.114793 274.076706 
L 129.088628 272.707542 
L 131.036299 269.327851 
L 135.905475 260.001775 
L 136.87931 258.552985 
L 137.853145 257.347966 
L 138.82698 256.391496 
L 139.800816 255.670843 
L 140.774651 255.161042 
L 141.748486 254.830521 
L 142.722321 254.645943 
L 144.669992 254.59141 
L 147.591497 254.933331 
L 151.486838 255.500835 
L 154.408344 255.670478 
L 157.329849 255.513531 
L 161.22519 254.946069 
L 165.120531 254.403877 
L 168.042036 254.27181 
L 170.963542 254.402388 
L 178.754224 254.953862 
L 182.649564 254.968604 
L 185.57107 254.753115 
L 194.335587 253.832963 
L 198.230928 253.67933 
L 199.204763 253.486143 
L 200.178598 253.072895 
L 201.152433 252.270664 
L 202.126268 250.829209 
L 203.100104 248.403257 
L 204.073939 244.553719 
L 205.047774 238.775024 
L 206.021609 230.558373 
L 206.995444 219.494237 
L 207.96928 205.405476 
L 208.943115 188.486976 
L 212.838456 113.156222 
L 213.812291 100.671857 
L 214.786126 94.00186 
L 215.759961 93.951746 
L 216.733796 100.515032 
L 217.707631 112.875032 
L 218.681467 129.569844 
L 222.576807 204.262509 
L 223.550643 218.217933 
L 224.524478 229.19959 
L 225.498313 237.393582 
L 226.472148 243.210682 
L 227.445983 247.152993 
L 228.419819 249.712558 
L 229.393654 251.31027 
L 230.367489 252.271258 
L 231.341324 252.826444 
L 232.315159 253.128639 
L 234.26283 253.319603 
L 237.184335 253.173478 
L 242.053511 252.853643 
L 244.975017 252.671059 
L 246.922687 252.388841 
L 248.870358 251.884246 
L 250.818028 251.113086 
L 252.765699 250.056244 
L 254.713369 248.721478 
L 257.634875 246.345186 
L 261.530215 243.178972 
L 264.451721 241.191296 
L 274.190073 235.124191 
L 276.137743 234.282387 
L 277.111579 234.037969 
L 278.085414 233.938631 
L 279.059249 233.996789 
L 280.033084 234.216574 
L 281.006919 234.59364 
L 281.980755 235.11617 
L 283.928425 236.526196 
L 285.876095 238.29883 
L 287.823766 240.353488 
L 289.771436 242.762826 
L 291.719107 245.762499 
L 292.692942 247.575315 
L 294.640612 251.935891 
L 296.588283 257.168434 
L 299.509788 265.493729 
L 301.457459 270.282354 
L 302.431294 272.229477 
L 303.405129 273.839539 
L 304.378964 275.118013 
L 305.352799 276.092544 
L 306.326634 276.80546 
L 307.30047 277.305871 
L 308.274305 277.642837 
L 310.221975 277.995308 
L 312.169646 278.121026 
L 312.169646 278.121026 
" clip-path="url(#p0a28273ade)" style="fill: none; stroke: #b3b3b3; stroke-width: 7; stroke-linecap: round"/>
   </g>
   <g id="line2d_2">
    <path d="M 229.250169 278.167135 
L 232.661701 278.047355 
L 236.452292 277.806708 
L 240.621942 277.931255 
L 242.138178 277.636261 
L 243.275356 277.215604 
L 244.412533 276.535457 
L 245.170651 275.839042 
L 245.928769 274.839499 
L 246.686887 273.431361 
L 247.445006 271.526528 
L 248.203124 269.077394 
L 249.340301 264.397073 
L 250.477478 258.661736 
L 251.993715 249.653615 
L 253.130892 241.516397 
L 253.88901 234.859034 
L 254.647128 226.701527 
L 255.405246 216.691736 
L 256.542424 198.125818 
L 258.816778 157.440739 
L 259.574896 148.047434 
L 259.953955 144.87373 
L 260.333015 142.778985 
L 260.712074 141.725657 
L 261.091133 141.613727 
L 261.470192 142.293355 
L 261.849251 143.581033 
L 263.744546 152.098221 
L 264.123605 152.872916 
L 264.502665 152.934576 
L 264.881724 152.142433 
L 265.260783 150.389031 
L 265.639842 147.616452 
L 266.39796 139.126321 
L 267.535137 121.546927 
L 268.672315 105.045542 
L 269.430433 97.833409 
L 270.188551 93.581488 
L 270.946669 90.281641 
L 271.325728 88.191915 
L 272.083846 82.027224 
L 272.841964 73.178013 
L 273.979142 58.925319 
L 274.73726 52.642515 
L 275.116319 51.176052 
L 275.495378 50.900675 
L 275.874437 51.736436 
L 276.253496 53.51929 
L 277.011614 59.039465 
L 278.90691 74.866685 
L 280.044087 81.895946 
L 282.697501 95.642067 
L 283.455619 101.11782 
L 284.213737 107.828861 
L 285.350914 120.214025 
L 286.867151 140.028702 
L 288.383387 160.130076 
L 289.141505 168.371679 
L 289.899623 174.366877 
L 290.657742 177.879712 
L 291.036801 178.853084 
L 291.794919 179.974039 
L 292.173978 180.509191 
L 292.553037 181.28672 
L 292.932096 182.467578 
L 293.311155 184.164465 
L 294.069273 189.272972 
L 294.827392 196.44586 
L 295.964569 209.65554 
L 300.134219 261.771435 
L 300.892337 268.12062 
L 301.650455 272.56787 
L 302.408573 275.343736 
L 303.166692 276.884484 
L 303.92481 277.644466 
L 304.682928 277.977601 
L 304.682928 277.977601 
" clip-path="url(#p0a28273ade)" style="fill: none; stroke: #000000; stroke-width: 7; stroke-linecap: round"/>
   </g>
   <g id="line2d_3">
    <path d="M 241.841829 278.01705 
L 242.833842 277.780228 
L 243.495184 277.478907 
L 244.156525 276.992254 
L 244.817867 276.23982 
L 245.479209 275.12657 
L 246.140551 273.551243 
L 246.801892 271.4205 
L 247.463234 268.667926 
L 248.455247 263.350033 
L 249.77793 254.482022 
L 251.761955 240.594405 
L 252.753968 234.956241 
L 253.74598 230.498391 
L 255.730005 222.235732 
L 256.391347 218.322393 
L 257.052689 213.211949 
L 257.71403 206.677567 
L 258.706043 194.137186 
L 260.028726 173.560007 
L 261.682081 147.389069 
L 262.674093 134.946661 
L 263.335435 128.808086 
L 263.996777 124.434457 
L 264.658118 121.566209 
L 265.31946 119.731251 
L 266.642144 116.763399 
L 267.303485 114.503363 
L 267.964827 111.211266 
L 268.626169 106.761582 
L 269.618181 98.156933 
L 273.586232 60.128408 
L 274.908915 51.031609 
L 275.900928 45.83124 
L 276.562269 43.488683 
L 276.89294 42.782616 
L 277.223611 42.456768 
L 277.554282 42.566481 
L 277.884953 43.165923 
L 278.215623 44.305002 
L 278.546294 46.026241 
L 279.207636 51.331006 
L 279.868978 59.170247 
L 280.86099 75.236537 
L 282.183674 101.794296 
L 283.837028 134.225575 
L 284.829041 148.934614 
L 285.490382 156.025699 
L 286.151724 161.039316 
L 286.813066 164.347098 
L 287.474407 166.490809 
L 289.458433 171.676363 
L 290.119774 174.363258 
L 291.111787 179.724628 
L 292.43447 188.585608 
L 296.402521 217.241993 
L 297.725204 228.549521 
L 301.362583 261.058258 
L 302.354596 267.305006 
L 303.346608 271.797362 
L 304.00795 273.90357 
L 304.669292 275.418193 
L 305.330634 276.461132 
L 305.991975 277.148863 
L 306.653317 277.583212 
L 307.64533 277.932869 
L 307.64533 277.932869 
" clip-path="url(#p0a28273ade)" style="fill: none; stroke: #9c110b; stroke-width: 7; stroke-linecap: round"/>
   </g>
   <g id="patch_3">
    <path d="M 79.51 278.17125 
L 79.51 30.67125 
" style="fill: none; stroke: #262626; stroke-width: 2.5; stroke-linejoin: miter; stroke-linecap: square"/>
   </g>
   <g id="patch_4">
    <path d="M 79.51 278.17125 
L 350.194487 278.17125 
" style="fill: none; stroke: #262626; stroke-width: 2.5; stroke-linejoin: miter; stroke-linecap: square"/>
   </g>
   <g id="text_7">
    <text style="fill: #262626; font: 24px 'Arial', 'DejaVu Sans', 'Liberation Sans', 'Bitstream Vera Sans', sans-serif; text-anchor: middle" x="214.852244" y="24.67125" transform="rotate(-0 214.852244 24.67125)">VmaxICp</text>
   </g>
  </g>
  <g id="axes_2">
   <g id="patch_5">
    <path d="M 422.124487 278.17125 
L 692.808975 278.17125 
L 692.808975 30.67125 
L 422.124487 30.67125 
L 422.124487 278.17125 
z
" style="fill: none"/>
   </g>
   <g id="matplotlib.axis_3">
    <g id="xtick_4"/>
    <g id="xtick_5"/>
    <g id="xtick_6"/>
   </g>
   <g id="matplotlib.axis_4">
    <g id="ytick_6">
     <g id="text_8">
      <text style="fill: #262626; font: 22px 'Arial', 'DejaVu Sans', 'Liberation Sans', 'Bitstream Vera Sans', sans-serif; text-anchor: end" x="406.624487" y="286.044844" transform="rotate(-0 406.624487 286.044844)">0.0</text>
     </g>
    </g>
    <g id="ytick_7">
     <g id="text_9">
      <text style="fill: #262626; font: 22px 'Arial', 'DejaVu Sans', 'Liberation Sans', 'Bitstream Vera Sans', sans-serif; text-anchor: end" x="406.624487" y="218.195632" transform="rotate(-0 406.624487 218.195632)">0.2</text>
     </g>
    </g>
    <g id="ytick_8">
     <g id="text_10">
      <text style="fill: #262626; font: 22px 'Arial', 'DejaVu Sans', 'Liberation Sans', 'Bitstream Vera Sans', sans-serif; text-anchor: end" x="406.624487" y="150.346419" transform="rotate(-0 406.624487 150.346419)">0.4</text>
     </g>
    </g>
    <g id="ytick_9">
     <g id="text_11">
      <text style="fill: #262626; font: 22px 'Arial', 'DejaVu Sans', 'Liberation Sans', 'Bitstream Vera Sans', sans-serif; text-anchor: end" x="406.624487" y="82.497207" transform="rotate(-0 406.624487 82.497207)">0.6</text>
     </g>
    </g>
   </g>
   <g id="line2d_4">
    <path d="M 460.917351 278.12818 
L 463.840933 277.898581 
L 465.789987 277.400368 
L 466.764514 276.945699 
L 467.739041 276.292954 
L 468.713568 275.394336 
L 469.688096 274.208046 
L 470.662623 272.706325 
L 471.63715 270.883378 
L 473.586204 266.392491 
L 477.484313 256.264193 
L 478.45884 254.066472 
L 479.433367 252.153381 
L 480.407894 250.55424 
L 481.382421 249.270317 
L 482.356949 248.28019 
L 483.331476 247.547248 
L 484.306003 247.027362 
L 485.28053 246.675225 
L 487.229584 246.31047 
L 490.153166 246.144449 
L 498.92391 245.803274 
L 501.847492 246.09675 
L 505.7456 246.518516 
L 508.669182 246.54704 
L 512.567291 246.275352 
L 520.363508 245.678752 
L 523.287089 245.605327 
L 526.210671 245.736785 
L 534.981415 246.491039 
L 537.904997 246.266282 
L 539.854051 245.947694 
L 540.828578 245.686537 
L 541.803105 245.272868 
L 542.777632 244.577392 
L 543.75216 243.39106 
L 544.726687 241.401456 
L 545.701214 238.176164 
L 546.675741 233.164628 
L 547.650268 225.732629 
L 548.624795 215.241826 
L 549.599323 201.178621 
L 550.57385 183.321454 
L 551.548377 161.916226 
L 555.446486 66.768833 
L 556.421013 50.992327 
L 557.39554 42.546673 
L 558.370067 42.455912 
L 559.344594 50.726194 
L 560.319121 66.344954 
L 561.293648 87.48414 
L 565.191757 182.568562 
L 566.166284 200.44194 
L 567.140811 214.533208 
L 568.115339 225.055421 
L 569.089866 232.514405 
L 570.064393 237.542046 
L 571.03892 240.767693 
L 572.013447 242.738637 
L 572.987974 243.885457 
L 573.962502 244.519928 
L 574.937029 244.851462 
L 576.886083 245.07177 
L 578.835137 245.029774 
L 580.784192 244.818142 
L 582.733246 244.427317 
L 585.656827 243.540364 
L 588.580409 242.423027 
L 590.529463 241.542931 
L 592.478518 240.473915 
L 595.402099 238.488003 
L 598.325681 236.493512 
L 600.274735 235.518001 
L 602.223789 234.905804 
L 605.147371 234.376934 
L 610.020006 233.688456 
L 612.943588 233.561223 
L 616.841697 233.5634 
L 618.790751 233.386147 
L 621.714332 232.830154 
L 629.51055 231.223764 
L 631.459604 230.964158 
L 632.434131 231.074442 
L 633.408658 231.489107 
L 634.383185 232.329789 
L 635.357713 233.70806 
L 636.33224 235.70483 
L 637.306767 238.351244 
L 638.281294 241.615474 
L 640.230348 249.545495 
L 643.15393 262.152922 
L 644.128457 265.780661 
L 645.102984 268.903697 
L 646.077511 271.475009 
L 647.052038 273.500958 
L 648.026566 275.029238 
L 649.001093 276.133417 
L 649.97562 276.897726 
L 650.950147 277.404712 
L 651.924674 277.727046 
L 653.873729 278.038302 
L 654.848256 278.102623 
L 654.848256 278.102623 
" clip-path="url(#p752e0ee92f)" style="fill: none; stroke: #b3b3b3; stroke-width: 7; stroke-linecap: round"/>
   </g>
   <g id="line2d_5">
    <path d="M 576.242639 278.129387 
L 577.706213 277.988538 
L 578.803894 277.697936 
L 579.535681 277.337348 
L 580.267468 276.774768 
L 580.999255 275.940042 
L 581.731042 274.756576 
L 582.462829 273.146329 
L 583.194616 271.037409 
L 583.926403 268.376065 
L 585.024083 263.321792 
L 586.487657 254.954669 
L 589.414805 237.327342 
L 592.707847 218.927166 
L 593.805528 211.282354 
L 594.903208 201.929717 
L 596.000889 190.299101 
L 597.464463 171.235976 
L 599.29393 147.080458 
L 600.025717 140.190682 
L 600.391611 137.772212 
L 600.757504 136.110329 
L 601.123398 135.209724 
L 601.489291 135.031002 
L 601.855185 135.490968 
L 602.221078 136.466572 
L 604.050546 143.119499 
L 604.416439 143.582143 
L 604.782333 143.437368 
L 605.148226 142.619871 
L 605.51412 141.107323 
L 606.245907 136.109536 
L 606.977694 128.988873 
L 610.270736 93.10336 
L 611.002523 87.855712 
L 611.73431 84.29508 
L 612.100203 83.213734 
L 612.466097 82.628613 
L 612.83199 82.555623 
L 613.197884 83.002035 
L 613.563777 83.96385 
L 613.929671 85.423621 
L 614.661458 89.692387 
L 615.759138 98.538014 
L 617.222712 111.152833 
L 617.954499 116.045019 
L 618.686286 119.137457 
L 619.05218 119.894796 
L 619.418073 120.107693 
L 619.783967 119.791149 
L 620.14986 118.983216 
L 620.881647 116.15043 
L 623.442902 103.451103 
L 623.808795 102.472364 
L 624.174689 101.836797 
L 624.540582 101.52172 
L 624.906476 101.474082 
L 625.638263 101.834842 
L 626.004157 102.020029 
L 626.37005 102.04229 
L 626.735944 101.778573 
L 627.101837 101.119458 
L 627.467731 99.978866 
L 627.833624 98.302082 
L 628.565411 93.307467 
L 629.297198 86.449625 
L 631.492559 63.641861 
L 632.224346 58.134578 
L 632.956133 54.240664 
L 633.68792 51.820189 
L 634.053814 51.116573 
L 634.419707 50.756273 
L 634.785601 50.774915 
L 635.151494 51.236963 
L 635.517388 52.234292 
L 635.883281 53.880902 
L 636.249175 56.304253 
L 636.615068 59.634107 
L 637.346855 69.468654 
L 638.078642 84.000881 
L 638.810429 103.179574 
L 639.90811 138.628556 
L 642.103471 212.389253 
L 643.201152 239.995869 
L 643.932939 253.33243 
L 644.664726 262.882601 
L 645.396513 269.281509 
L 646.1283 273.294181 
L 646.860087 275.649427 
L 647.591874 276.943378 
L 648.323661 277.608746 
L 649.055448 277.928962 
L 649.055448 277.928962 
" clip-path="url(#p752e0ee92f)" style="fill: none; stroke: #000000; stroke-width: 7; stroke-linecap: round"/>
   </g>
   <g id="line2d_6">
    <path d="M 575.163631 278.149153 
L 578.251446 277.986095 
L 580.18133 277.648872 
L 581.725237 277.129301 
L 582.883168 276.532289 
L 584.041098 275.692342 
L 585.199029 274.505259 
L 585.970982 273.436449 
L 586.742936 272.058919 
L 587.51489 270.275628 
L 588.286843 267.972256 
L 589.058797 265.023778 
L 589.830751 261.304614 
L 590.602704 256.701768 
L 591.760635 247.965648 
L 592.918565 236.972104 
L 594.462473 219.267217 
L 598.708218 167.641249 
L 599.866148 156.855775 
L 601.410056 144.965816 
L 603.725916 127.698613 
L 604.883847 117.291295 
L 607.199708 93.477003 
L 608.357638 82.55469 
L 609.129592 76.692153 
L 609.901546 72.375256 
L 610.673499 69.778424 
L 611.059476 69.129271 
L 611.445453 68.892706 
L 611.83143 69.041049 
L 612.217407 69.538391 
L 612.603384 70.34241 
L 613.375337 72.681128 
L 614.533268 77.282355 
L 616.463152 85.073458 
L 617.235106 87.546419 
L 618.007059 89.432053 
L 618.779013 90.63432 
L 619.16499 90.956721 
L 619.550967 91.085855 
L 619.936943 91.020287 
L 620.32292 90.763078 
L 621.094874 89.714465 
L 621.866828 88.08918 
L 623.796712 83.460912 
L 624.182689 82.830179 
L 624.568665 82.41508 
L 624.954642 82.257331 
L 625.340619 82.389896 
L 625.726596 82.834903 
L 626.112573 83.602041 
L 626.884526 86.073645 
L 627.65648 89.609988 
L 630.358318 103.649979 
L 631.130271 105.867506 
L 631.516248 106.411069 
L 631.902225 106.553713 
L 632.288202 106.300159 
L 632.674179 105.674808 
L 633.446132 103.506235 
L 635.376017 96.874955 
L 635.761993 96.269176 
L 636.14797 96.195457 
L 636.533947 96.76753 
L 636.919924 98.084314 
L 637.305901 100.225373 
L 637.691878 103.247106 
L 638.463831 112.026381 
L 639.235785 124.33072 
L 640.393715 148.160712 
L 643.867507 227.035214 
L 645.025437 246.024454 
L 645.797391 255.600082 
L 646.569345 262.880347 
L 647.341298 268.179381 
L 648.113252 271.874932 
L 648.885206 274.345995 
L 649.657159 275.931046 
L 650.429113 276.906813 
L 651.201067 277.483508 
L 651.97302 277.810825 
L 651.97302 277.810825 
" clip-path="url(#p752e0ee92f)" style="fill: none; stroke: #9c110b; stroke-width: 7; stroke-linecap: round"/>
   </g>
   <g id="patch_6">
    <path d="M 422.124487 278.17125 
L 422.124487 30.67125 
" style="fill: none; stroke: #262626; stroke-width: 2.5; stroke-linejoin: miter; stroke-linecap: square"/>
   </g>
   <g id="patch_7">
    <path d="M 422.124487 278.17125 
L 692.808975 278.17125 
" style="fill: none; stroke: #262626; stroke-width: 2.5; stroke-linejoin: miter; stroke-linecap: square"/>
   </g>
   <g id="text_12">
    <text style="fill: #262626; font: 24px 'Arial', 'DejaVu Sans', 'Liberation Sans', 'Bitstream Vera Sans', sans-serif; text-anchor: middle" x="557.466731" y="24.67125" transform="rotate(-0 557.466731 24.67125)">VmaxINp</text>
   </g>
  </g>
  <g id="axes_3">
   <g id="patch_8">
    <path d="M 764.738975 278.17125 
L 1035.423463 278.17125 
L 1035.423463 30.67125 
L 764.738975 30.67125 
L 764.738975 278.17125 
z
" style="fill: none"/>
   </g>
   <g id="matplotlib.axis_5">
    <g id="xtick_7">
     <g id="text_13">
      <text style="fill: #262626; font: 22px 'Arial', 'DejaVu Sans', 'Liberation Sans', 'Bitstream Vera Sans', sans-serif; text-anchor: middle" x="776.007663" y="309.418437" transform="rotate(-0 776.007663 309.418437)">−5</text>
     </g>
    </g>
    <g id="xtick_8">
     <g id="text_14">
      <text style="fill: #262626; font: 22px 'Arial', 'DejaVu Sans', 'Liberation Sans', 'Bitstream Vera Sans', sans-serif; text-anchor: middle" x="900.497744" y="309.418437" transform="rotate(-0 900.497744 309.418437)">0</text>
     </g>
    </g>
    <g id="xtick_9">
     <g id="text_15">
      <text style="fill: #262626; font: 22px 'Arial', 'DejaVu Sans', 'Liberation Sans', 'Bitstream Vera Sans', sans-serif; text-anchor: middle" x="1024.987825" y="309.418437" transform="rotate(-0 1024.987825 309.418437)">5</text>
     </g>
    </g>
    <g id="text_16">
     <text style="fill: #262626; font: 24px 'Arial', 'DejaVu Sans', 'Liberation Sans', 'Bitstream Vera Sans', sans-serif; text-anchor: middle" x="900.081219" y="334.969687" transform="rotate(-0 900.081219 334.969687)">FC</text>
    </g>
   </g>
   <g id="matplotlib.axis_6">
    <g id="ytick_10">
     <g id="text_17">
      <text style="fill: #262626; font: 22px 'Arial', 'DejaVu Sans', 'Liberation Sans', 'Bitstream Vera Sans', sans-serif; text-anchor: end" x="749.238975" y="286.044844" transform="rotate(-0 749.238975 286.044844)">0.0</text>
     </g>
    </g>
    <g id="ytick_11">
     <g id="text_18">
      <text style="fill: #262626; font: 22px 'Arial', 'DejaVu Sans', 'Liberation Sans', 'Bitstream Vera Sans', sans-serif; text-anchor: end" x="749.238975" y="231.42795" transform="rotate(-0 749.238975 231.42795)">0.2</text>
     </g>
    </g>
    <g id="ytick_12">
     <g id="text_19">
      <text style="fill: #262626; font: 22px 'Arial', 'DejaVu Sans', 'Liberation Sans', 'Bitstream Vera Sans', sans-serif; text-anchor: end" x="749.238975" y="176.811057" transform="rotate(-0 749.238975 176.811057)">0.4</text>
     </g>
    </g>
    <g id="ytick_13">
     <g id="text_20">
      <text style="fill: #262626; font: 22px 'Arial', 'DejaVu Sans', 'Liberation Sans', 'Bitstream Vera Sans', sans-serif; text-anchor: end" x="749.238975" y="122.194164" transform="rotate(-0 749.238975 122.194164)">0.6</text>
     </g>
    </g>
    <g id="ytick_14">
     <g id="text_21">
      <text style="fill: #262626; font: 22px 'Arial', 'DejaVu Sans', 'Liberation Sans', 'Bitstream Vera Sans', sans-serif; text-anchor: end" x="749.238975" y="67.577271" transform="rotate(-0 749.238975 67.577271)">0.8</text>
     </g>
    </g>
   </g>
   <g id="line2d_7">
    <path d="M 804.53622 278.138799 
L 807.429535 277.939564 
L 809.358411 277.477816 
L 810.322849 277.044409 
L 811.287287 276.413375 
L 812.251725 275.536513 
L 813.216163 274.37353 
L 814.180601 272.901093 
L 815.145039 271.121165 
L 817.073916 266.799808 
L 820.931668 257.517211 
L 821.896106 255.601446 
L 822.860544 253.964163 
L 823.824982 252.617626 
L 824.78942 251.552473 
L 825.753858 250.74496 
L 826.718297 250.163972 
L 827.682735 249.776304 
L 828.647173 249.549768 
L 830.576049 249.463631 
L 832.504925 249.703032 
L 835.398239 250.376953 
L 841.184868 251.977987 
L 843.113744 252.171197 
L 845.04262 251.992917 
L 846.971497 251.492227 
L 852.758125 249.648757 
L 854.687001 249.329112 
L 856.615877 249.30627 
L 858.544754 249.617595 
L 861.438068 250.514553 
L 864.331382 251.411191 
L 866.260258 251.806185 
L 868.189135 252.01292 
L 871.082449 252.047593 
L 878.797954 251.830996 
L 883.620144 251.835647 
L 884.584582 251.647288 
L 885.54902 251.23264 
L 886.513458 250.42249 
L 887.477896 248.950867 
L 888.442335 246.422947 
L 889.406773 242.293541 
L 890.371211 235.874932 
L 891.335649 226.396295 
L 892.300087 213.13214 
L 893.264525 195.600475 
L 894.228963 173.803257 
L 896.157839 121.079203 
L 897.122277 94.009463 
L 898.086716 70.061931 
L 899.051154 52.097293 
L 900.015592 42.456159 
L 900.98003 42.455419 
L 901.944468 52.089085 
L 902.908906 70.027003 
L 903.873344 93.912302 
L 906.766658 173.128399 
L 907.731096 194.567653 
L 908.695535 211.669603 
L 909.659973 224.46057 
L 910.624411 233.462155 
L 911.588849 239.444232 
L 912.553287 243.218719 
L 913.517725 245.503703 
L 914.482163 246.859244 
L 915.446601 247.678652 
L 916.411039 248.21307 
L 918.339915 248.947128 
L 922.197668 250.294155 
L 927.019858 252.053446 
L 928.948735 252.456062 
L 930.877611 252.585603 
L 932.806487 252.477148 
L 939.557554 251.739301 
L 943.415306 251.503032 
L 949.201935 250.870837 
L 951.130811 250.980974 
L 954.988563 251.562287 
L 963.668506 253.019152 
L 971.384011 253.370356 
L 974.277325 253.792665 
L 976.206201 254.304042 
L 977.170639 254.749585 
L 978.135077 255.401857 
L 979.099515 256.319702 
L 980.063954 257.546007 
L 981.028392 259.095116 
L 982.957268 263.029977 
L 985.850582 269.670664 
L 986.81502 271.637253 
L 987.779458 273.337149 
L 988.743896 274.733396 
L 989.708334 275.823701 
L 990.672773 276.633464 
L 991.637211 277.205656 
L 992.601649 277.59045 
L 994.530525 277.986931 
L 996.459401 278.12227 
L 996.459401 278.12227 
" clip-path="url(#pd24f8a7146)" style="fill: none; stroke: #b3b3b3; stroke-width: 7; stroke-linecap: round"/>
   </g>
   <g id="line2d_8">
    <path d="M 792.373745 278.132586 
L 796.72008 277.983079 
L 799.97983 277.641578 
L 802.152997 277.187039 
L 804.326164 276.440054 
L 806.499331 275.284792 
L 807.585915 274.516537 
L 808.672498 273.602816 
L 809.759082 272.532421 
L 810.845666 271.297394 
L 813.018833 268.323781 
L 815.192 264.718781 
L 817.365167 260.620607 
L 822.798084 249.980488 
L 824.971252 246.447145 
L 826.057835 244.989081 
L 827.144419 243.769903 
L 828.231002 242.802445 
L 829.317586 242.088718 
L 830.404169 241.619667 
L 831.490753 241.375624 
L 832.577336 241.327475 
L 833.66392 241.438447 
L 835.837087 241.96662 
L 839.096837 242.870586 
L 841.270005 243.136879 
L 843.443172 242.972258 
L 845.616339 242.408858 
L 851.049256 240.486074 
L 853.222423 240.13514 
L 854.309007 240.143474 
L 855.395591 240.28802 
L 856.482174 240.569564 
L 858.655341 241.509431 
L 860.828508 242.830554 
L 866.261426 246.411684 
L 868.434593 247.431368 
L 870.60776 248.035639 
L 871.694344 248.170536 
L 872.780927 248.192128 
L 873.867511 248.098608 
L 874.954094 247.885333 
L 876.040678 247.542812 
L 877.127261 247.055015 
L 878.213845 246.398228 
L 879.300428 245.540688 
L 880.387012 244.443202 
L 881.473595 243.06088 
L 882.560179 241.346062 
L 883.646762 239.252364 
L 884.733346 236.739689 
L 885.81993 233.779875 
L 886.906513 230.362514 
L 889.07968 222.233824 
L 891.252847 212.800412 
L 894.512598 198.309923 
L 895.599181 194.033103 
L 896.685765 190.314931 
L 897.772348 187.304515 
L 898.858932 185.12175 
L 899.945516 183.848201 
L 901.032099 183.520943 
L 902.118683 184.130066 
L 903.205266 185.620135 
L 904.29185 187.895426 
L 905.378433 190.828357 
L 907.5516 198.062578 
L 911.897934 213.84799 
L 914.071102 220.679881 
L 916.244269 226.342574 
L 918.417436 230.91349 
L 920.590603 234.61901 
L 922.76377 237.68503 
L 924.936937 240.255257 
L 927.110104 242.382732 
L 929.283271 244.068695 
L 931.456438 245.312754 
L 933.629605 246.146706 
L 935.802772 246.641722 
L 937.975939 246.894678 
L 942.322273 247.068083 
L 946.668608 247.290376 
L 949.928358 247.67892 
L 954.274692 248.499922 
L 961.880777 250.270382 
L 965.140528 251.160827 
L 967.313695 251.903154 
L 969.486862 252.835137 
L 971.660029 254.009743 
L 973.833196 255.464728 
L 976.006363 257.21756 
L 978.17953 259.260024 
L 981.439281 262.76852 
L 987.958782 270.154751 
L 990.131949 272.264845 
L 992.305116 274.031371 
L 994.478283 275.418542 
L 996.65145 276.43888 
L 998.824617 277.141294 
L 1000.997784 277.59363 
L 1004.257535 277.954368 
L 1008.603869 278.123806 
L 1008.603869 278.123806 
" clip-path="url(#pd24f8a7146)" style="fill: none; stroke: #000000; stroke-width: 7; stroke-linecap: round"/>
   </g>
   <g id="line2d_9">
    <path d="M 779.333325 278.093536 
L 785.437825 277.853787 
L 789.100524 277.501634 
L 791.542324 277.113596 
L 793.984124 276.553435 
L 796.425924 275.774014 
L 798.867723 274.728997 
L 801.309523 273.379333 
L 803.751323 271.70084 
L 806.193123 269.691614 
L 808.634922 267.377652 
L 812.297622 263.465709 
L 819.623021 255.248832 
L 822.064821 252.79069 
L 824.506621 250.623232 
L 826.94842 248.79831 
L 829.39022 247.337959 
L 831.83202 246.238391 
L 834.273819 245.477639 
L 836.715619 245.024396 
L 839.157419 244.845544 
L 841.599219 244.91054 
L 844.041018 245.19195 
L 846.482818 245.662684 
L 850.145518 246.652679 
L 859.912717 249.690834 
L 862.354516 250.130684 
L 864.796316 250.260645 
L 866.017216 250.179825 
L 867.238116 249.986442 
L 868.459016 249.669486 
L 869.679916 249.218562 
L 870.900816 248.624095 
L 872.121715 247.877585 
L 873.342615 246.971908 
L 874.563515 245.901667 
L 875.784415 244.663591 
L 878.226215 241.684111 
L 880.668014 238.066636 
L 883.109814 233.905871 
L 886.772514 227.026482 
L 890.435213 220.151723 
L 892.877013 216.090794 
L 894.097913 214.337295 
L 895.318813 212.816935 
L 896.539713 211.560633 
L 897.760613 210.593403 
L 898.981513 209.933284 
L 900.202412 209.590526 
L 901.423312 209.567083 
L 902.644212 209.856454 
L 903.865112 210.44389 
L 905.086012 211.306946 
L 906.306912 212.416377 
L 907.527812 213.737309 
L 909.969611 216.854532 
L 917.295011 227.053478 
L 919.73681 229.84598 
L 922.17861 232.095704 
L 924.62041 233.798682 
L 927.062209 235.025317 
L 929.504009 235.893495 
L 933.166709 236.819652 
L 939.271208 238.275719 
L 942.933908 239.392556 
L 949.038407 241.564925 
L 958.805606 245.001145 
L 962.468306 246.388302 
L 964.910105 247.466659 
L 967.351905 248.728833 
L 969.793705 250.214002 
L 972.235505 251.941719 
L 974.677304 253.907663 
L 978.340004 257.233495 
L 990.549003 268.918187 
L 992.990802 270.836237 
L 995.432602 272.501884 
L 997.874402 273.902297 
L 1000.316202 275.042133 
L 1002.758001 275.940145 
L 1005.199801 276.624844 
L 1007.641601 277.129982 
L 1011.3043 277.626964 
L 1016.1879 277.965155 
L 1022.292399 278.119879 
L 1022.292399 278.119879 
" clip-path="url(#pd24f8a7146)" style="fill: none; stroke: #9c110b; stroke-width: 7; stroke-linecap: round"/>
   </g>
   <g id="patch_9">
    <path d="M 764.738975 278.17125 
L 764.738975 30.67125 
" style="fill: none; stroke: #262626; stroke-width: 2.5; stroke-linejoin: miter; stroke-linecap: square"/>
   </g>
   <g id="patch_10">
    <path d="M 764.738975 278.17125 
L 1035.423463 278.17125 
" style="fill: none; stroke: #262626; stroke-width: 2.5; stroke-linejoin: miter; stroke-linecap: square"/>
   </g>
   <g id="text_22">
    <text style="fill: #262626; font: 24px 'Arial', 'DejaVu Sans', 'Liberation Sans', 'Bitstream Vera Sans', sans-serif; text-anchor: middle" x="900.081219" y="24.67125" transform="rotate(-0 900.081219 24.67125)">KICp</text>
   </g>
  </g>
  <g id="axes_4">
   <g id="patch_11">
    <path d="M 1107.353463 278.17125 
L 1378.03795 278.17125 
L 1378.03795 30.67125 
L 1107.353463 30.67125 
L 1107.353463 278.17125 
z
" style="fill: none"/>
   </g>
   <g id="matplotlib.axis_7">
    <g id="xtick_10">
     <g id="text_23">
      <text style="fill: #262626; font: 22px 'Arial', 'DejaVu Sans', 'Liberation Sans', 'Bitstream Vera Sans', sans-serif; text-anchor: middle" x="1118.622151" y="309.418437" transform="rotate(-0 1118.622151 309.418437)">−5</text>
     </g>
    </g>
    <g id="xtick_11">
     <g id="text_24">
      <text style="fill: #262626; font: 22px 'Arial', 'DejaVu Sans', 'Liberation Sans', 'Bitstream Vera Sans', sans-serif; text-anchor: middle" x="1243.112231" y="309.418437" transform="rotate(-0 1243.112231 309.418437)">0</text>
     </g>
    </g>
    <g id="xtick_12">
     <g id="text_25">
      <text style="fill: #262626; font: 22px 'Arial', 'DejaVu Sans', 'Liberation Sans', 'Bitstream Vera Sans', sans-serif; text-anchor: middle" x="1367.602312" y="309.418437" transform="rotate(-0 1367.602312 309.418437)">5</text>
     </g>
    </g>
    <g id="text_26">
     <text style="fill: #262626; font: 24px 'Arial', 'DejaVu Sans', 'Liberation Sans', 'Bitstream Vera Sans', sans-serif; text-anchor: middle" x="1242.695706" y="334.969687" transform="rotate(-0 1242.695706 334.969687)">FC</text>
    </g>
   </g>
   <g id="matplotlib.axis_8">
    <g id="ytick_15">
     <g id="text_27">
      <text style="fill: #262626; font: 22px 'Arial', 'DejaVu Sans', 'Liberation Sans', 'Bitstream Vera Sans', sans-serif; text-anchor: end" x="1091.853463" y="286.044844" transform="rotate(-0 1091.853463 286.044844)">0.0</text>
     </g>
    </g>
    <g id="ytick_16">
     <g id="text_28">
      <text style="fill: #262626; font: 22px 'Arial', 'DejaVu Sans', 'Liberation Sans', 'Bitstream Vera Sans', sans-serif; text-anchor: end" x="1091.853463" y="228.591194" transform="rotate(-0 1091.853463 228.591194)">0.2</text>
     </g>
    </g>
    <g id="ytick_17">
     <g id="text_29">
      <text style="fill: #262626; font: 22px 'Arial', 'DejaVu Sans', 'Liberation Sans', 'Bitstream Vera Sans', sans-serif; text-anchor: end" x="1091.853463" y="171.137545" transform="rotate(-0 1091.853463 171.137545)">0.4</text>
     </g>
    </g>
    <g id="ytick_18">
     <g id="text_30">
      <text style="fill: #262626; font: 22px 'Arial', 'DejaVu Sans', 'Liberation Sans', 'Bitstream Vera Sans', sans-serif; text-anchor: end" x="1091.853463" y="113.683895" transform="rotate(-0 1091.853463 113.683895)">0.6</text>
     </g>
    </g>
    <g id="ytick_19">
     <g id="text_31">
      <text style="fill: #262626; font: 22px 'Arial', 'DejaVu Sans', 'Liberation Sans', 'Bitstream Vera Sans', sans-serif; text-anchor: end" x="1091.853463" y="56.230246" transform="rotate(-0 1091.853463 56.230246)">0.8</text>
     </g>
    </g>
   </g>
   <g id="line2d_10">
    <path d="M 1146.958633 278.133614 
L 1148.891369 278.02753 
L 1150.824104 277.708632 
L 1151.790472 277.391998 
L 1152.75684 276.911861 
L 1153.723208 276.217206 
L 1154.689576 275.25841 
L 1155.655944 273.996016 
L 1156.622312 272.410601 
L 1157.58868 270.511455 
L 1159.521416 265.975748 
L 1162.42052 258.738351 
L 1164.353255 254.743211 
L 1165.319623 253.148459 
L 1166.285991 251.818685 
L 1167.252359 250.725026 
L 1168.218727 249.832046 
L 1169.185095 249.108643 
L 1170.151463 248.534757 
L 1171.117831 248.102644 
L 1172.084199 247.813202 
L 1173.050567 247.669235 
L 1174.016935 247.668229 
L 1175.949671 248.030707 
L 1181.747878 249.742615 
L 1184.646982 250.135486 
L 1187.546086 250.34101 
L 1189.478822 250.280557 
L 1191.411557 249.975843 
L 1196.243397 248.833743 
L 1198.176133 248.746509 
L 1200.108869 249.022646 
L 1203.007973 249.882086 
L 1205.907076 250.765641 
L 1208.80618 251.364006 
L 1210.738916 251.563817 
L 1212.671652 251.524489 
L 1214.604388 251.125643 
L 1216.537124 250.292033 
L 1218.469859 249.103065 
L 1220.402595 247.846788 
L 1221.368963 247.325349 
L 1222.335331 246.944859 
L 1223.301699 246.741441 
L 1224.268067 246.726924 
L 1226.200803 247.145053 
L 1227.167171 247.415745 
L 1228.133539 247.535816 
L 1229.099907 247.278418 
L 1230.066275 246.324359 
L 1231.032643 244.23638 
L 1231.99901 240.442245 
L 1232.965378 234.245687 
L 1233.931746 224.887539 
L 1234.898114 211.673649 
L 1235.864482 194.168669 
L 1236.83085 172.426914 
L 1238.763586 120.050971 
L 1239.729954 93.277787 
L 1240.696322 69.652039 
L 1241.66269 51.960631 
L 1242.629058 42.471384 
L 1243.595426 42.455244 
L 1244.561794 51.905057 
L 1245.528161 69.53679 
L 1246.494529 93.073032 
L 1249.393633 171.763654 
L 1250.360001 193.317229 
L 1251.326369 210.643794 
L 1252.292737 223.709948 
L 1253.259105 232.971498 
L 1254.225473 239.139845 
L 1255.191841 242.985565 
L 1256.158209 245.20827 
L 1257.124577 246.373949 
L 1258.090945 246.903451 
L 1259.057312 247.090043 
L 1262.922784 247.280404 
L 1268.720992 248.180613 
L 1274.519199 248.321579 
L 1277.418303 248.942339 
L 1279.351039 249.358902 
L 1281.283775 249.540503 
L 1283.216511 249.415037 
L 1289.014718 248.518409 
L 1292.88019 248.414328 
L 1297.71203 248.397126 
L 1299.644765 248.592829 
L 1306.409341 249.698581 
L 1308.342077 249.67784 
L 1311.241181 249.310822 
L 1314.140284 248.894469 
L 1316.07302 248.915337 
L 1317.039388 249.124276 
L 1318.005756 249.529696 
L 1318.972124 250.184894 
L 1319.938492 251.140359 
L 1320.90486 252.434705 
L 1321.871228 254.084513 
L 1322.837596 256.075618 
L 1324.770332 260.850278 
L 1327.669435 268.449859 
L 1328.635803 270.652418 
L 1329.602171 272.55474 
L 1330.568539 274.124328 
L 1331.534907 275.36167 
L 1332.501275 276.293701 
L 1333.467643 276.964546 
L 1334.434011 277.425935 
L 1336.366747 277.919554 
L 1338.299483 278.099264 
L 1339.265851 278.135119 
L 1339.265851 278.135119 
" clip-path="url(#pbf58e283ad)" style="fill: none; stroke: #b3b3b3; stroke-width: 7; stroke-linecap: round"/>
   </g>
   <g id="line2d_11">
    <path d="M 1134.092858 278.112377 
L 1138.476839 277.905381 
L 1140.668829 277.653117 
L 1142.86082 277.217082 
L 1145.05281 276.509065 
L 1147.244801 275.428591 
L 1149.436791 273.878009 
L 1151.628781 271.783746 
L 1153.820772 269.119076 
L 1156.012762 265.921803 
L 1158.204753 262.300893 
L 1164.780724 250.827266 
L 1166.972714 247.561594 
L 1169.164705 244.91867 
L 1170.2607 243.873226 
L 1171.356695 243.024415 
L 1172.45269 242.374449 
L 1173.548686 241.919352 
L 1174.644681 241.648953 
L 1175.740676 241.547181 
L 1176.836671 241.592702 
L 1179.028662 242.020093 
L 1185.604633 243.93367 
L 1187.796623 244.207649 
L 1189.988614 244.214351 
L 1193.276599 243.907161 
L 1196.564585 243.619567 
L 1198.756575 243.642898 
L 1200.948566 243.906267 
L 1204.236551 244.667302 
L 1207.524537 245.483964 
L 1209.716527 245.76919 
L 1210.812523 245.773249 
L 1211.908518 245.665961 
L 1213.004513 245.439345 
L 1214.100508 245.090763 
L 1216.292499 244.040704 
L 1218.484489 242.570262 
L 1220.67648 240.734684 
L 1222.86847 238.521189 
L 1225.06046 235.802948 
L 1226.156456 234.185077 
L 1227.252451 232.350832 
L 1228.348446 230.269764 
L 1229.444441 227.919238 
L 1231.636432 222.388484 
L 1233.828422 215.911146 
L 1238.212403 202.448721 
L 1239.308398 199.617681 
L 1240.404393 197.236498 
L 1241.500388 195.404833 
L 1242.596384 194.199381 
L 1243.692379 193.668239 
L 1244.788374 193.827609 
L 1245.884369 194.661129 
L 1246.980365 196.121832 
L 1248.07636 198.136447 
L 1249.172355 200.611492 
L 1251.364345 206.511515 
L 1255.748326 219.155966 
L 1257.940317 224.615471 
L 1259.036312 226.972679 
L 1260.132307 229.062252 
L 1261.228302 230.884202 
L 1262.324297 232.447073 
L 1263.420293 233.765574 
L 1264.516288 234.85858 
L 1265.612283 235.747536 
L 1266.708278 236.455277 
L 1267.804273 237.005168 
L 1269.996264 237.723911 
L 1272.188254 238.080551 
L 1275.47624 238.266812 
L 1280.956216 238.475766 
L 1284.244202 238.795028 
L 1287.532187 239.315555 
L 1290.820173 240.038448 
L 1295.204154 241.240773 
L 1302.87612 243.41897 
L 1310.548087 245.436039 
L 1312.740077 246.257928 
L 1314.932067 247.390772 
L 1317.124058 248.958718 
L 1319.316048 251.04897 
L 1321.508039 253.677594 
L 1323.700029 256.769452 
L 1331.371996 268.487794 
L 1333.563986 271.218042 
L 1335.755976 273.425023 
L 1337.947967 275.096342 
L 1340.139957 276.282927 
L 1342.331948 277.073196 
L 1344.523938 277.567166 
L 1346.715929 277.857064 
L 1350.003914 278.065314 
L 1352.195905 278.123484 
L 1352.195905 278.123484 
" clip-path="url(#pbf58e283ad)" style="fill: none; stroke: #000000; stroke-width: 7; stroke-linecap: round"/>
   </g>
   <g id="line2d_12">
    <path d="M 1119.657303 278.124674 
L 1127.076704 277.920368 
L 1130.786405 277.645101 
L 1134.496105 277.13884 
L 1136.969239 276.61113 
L 1139.442373 275.880715 
L 1141.915506 274.902778 
L 1144.38864 273.636455 
L 1146.861774 272.050899 
L 1149.334908 270.131722 
L 1151.808041 267.886728 
L 1154.281175 265.349694 
L 1157.990876 261.135503 
L 1165.410277 252.409522 
L 1167.883411 249.795275 
L 1170.356544 247.475524 
L 1172.829678 245.504601 
L 1175.302812 243.908724 
L 1177.775946 242.687586 
L 1180.249079 241.819293 
L 1182.722213 241.267221 
L 1185.195347 240.987049 
L 1187.668481 240.932483 
L 1190.141614 241.058683 
L 1193.851315 241.494376 
L 1204.980417 243.185053 
L 1207.45355 243.30021 
L 1209.926684 243.184988 
L 1212.399818 242.773872 
L 1214.872952 242.00678 
L 1217.346085 240.835402 
L 1219.819219 239.230972 
L 1222.292353 237.192979 
L 1224.765487 234.757615 
L 1227.23862 232.004018 
L 1234.658022 223.256346 
L 1237.131155 220.791946 
L 1238.367722 219.750736 
L 1239.604289 218.863167 
L 1240.840856 218.144988 
L 1242.077423 217.608055 
L 1243.31399 217.259909 
L 1244.550557 217.103528 
L 1245.787123 217.137264 
L 1247.02369 217.354971 
L 1248.260257 217.746314 
L 1249.496824 218.29725 
L 1251.969958 219.806952 
L 1254.443092 221.723077 
L 1259.389359 226.089537 
L 1263.09906 229.263098 
L 1265.572193 231.1537 
L 1268.045327 232.818764 
L 1270.518461 234.256433 
L 1272.991595 235.486271 
L 1276.701295 237.00713 
L 1280.410996 238.22613 
L 1284.120696 239.209491 
L 1287.830397 239.986515 
L 1291.540098 240.569697 
L 1296.486365 241.095258 
L 1303.905766 241.777208 
L 1306.3789 242.169446 
L 1308.852034 242.751719 
L 1311.325167 243.59154 
L 1313.798301 244.747894 
L 1316.271435 246.262353 
L 1318.744569 248.15091 
L 1321.217702 250.398224 
L 1323.690836 252.955762 
L 1327.400537 257.194776 
L 1333.583371 264.437929 
L 1336.056505 267.082126 
L 1338.529639 269.454392 
L 1341.002772 271.50589 
L 1343.475906 273.216773 
L 1345.94904 274.593298 
L 1348.422174 275.662129 
L 1350.895307 276.463289 
L 1353.368441 277.043149 
L 1357.078142 277.599339 
L 1360.787842 277.900735 
L 1365.73411 278.081856 
L 1365.73411 278.081856 
" clip-path="url(#pbf58e283ad)" style="fill: none; stroke: #9c110b; stroke-width: 7; stroke-linecap: round"/>
   </g>
   <g id="patch_12">
    <path d="M 1107.353463 278.17125 
L 1107.353463 30.67125 
" style="fill: none; stroke: #262626; stroke-width: 2.5; stroke-linejoin: miter; stroke-linecap: square"/>
   </g>
   <g id="patch_13">
    <path d="M 1107.353463 278.17125 
L 1378.03795 278.17125 
" style="fill: none; stroke: #262626; stroke-width: 2.5; stroke-linejoin: miter; stroke-linecap: square"/>
   </g>
   <g id="text_32">
    <text style="fill: #262626; font: 24px 'Arial', 'DejaVu Sans', 'Liberation Sans', 'Bitstream Vera Sans', sans-serif; text-anchor: middle" x="1242.695706" y="24.67125" transform="rotate(-0 1242.695706 24.67125)">KINp</text>
   </g>
  </g>
  <g id="axes_5">
   <g id="patch_14">
    <path d="M 79.51 613.57125 
L 350.194487 613.57125 
L 350.194487 366.07125 
L 79.51 366.07125 
L 79.51 613.57125 
z
" style="fill: none"/>
   </g>
   <g id="matplotlib.axis_9">
    <g id="xtick_13">
     <g id="text_33">
      <text style="fill: #262626; font: 22px 'Arial', 'DejaVu Sans', 'Liberation Sans', 'Bitstream Vera Sans', sans-serif; text-anchor: middle" x="90.778688" y="644.818437" transform="rotate(-0 90.778688 644.818437)">−5</text>
     </g>
    </g>
    <g id="xtick_14">
     <g id="text_34">
      <text style="fill: #262626; font: 22px 'Arial', 'DejaVu Sans', 'Liberation Sans', 'Bitstream Vera Sans', sans-serif; text-anchor: middle" x="215.268769" y="644.818437" transform="rotate(-0 215.268769 644.818437)">0</text>
     </g>
    </g>
    <g id="xtick_15">
     <g id="text_35">
      <text style="fill: #262626; font: 22px 'Arial', 'DejaVu Sans', 'Liberation Sans', 'Bitstream Vera Sans', sans-serif; text-anchor: middle" x="339.75885" y="644.818437" transform="rotate(-0 339.75885 644.818437)">5</text>
     </g>
    </g>
    <g id="text_36">
     <text style="fill: #262626; font: 24px 'Arial', 'DejaVu Sans', 'Liberation Sans', 'Bitstream Vera Sans', sans-serif; text-anchor: middle" x="214.852244" y="670.369687" transform="rotate(-0 214.852244 670.369687)">FC</text>
    </g>
   </g>
   <g id="matplotlib.axis_10">
    <g id="ytick_20">
     <g id="text_37">
      <text style="fill: #262626; font: 22px 'Arial', 'DejaVu Sans', 'Liberation Sans', 'Bitstream Vera Sans', sans-serif; text-anchor: end" x="64.01" y="621.444844" transform="rotate(-0 64.01 621.444844)">0.0</text>
     </g>
    </g>
    <g id="ytick_21">
     <g id="text_38">
      <text style="fill: #262626; font: 22px 'Arial', 'DejaVu Sans', 'Liberation Sans', 'Bitstream Vera Sans', sans-serif; text-anchor: end" x="64.01" y="555.061478" transform="rotate(-0 64.01 555.061478)">0.2</text>
     </g>
    </g>
    <g id="ytick_22">
     <g id="text_39">
      <text style="fill: #262626; font: 22px 'Arial', 'DejaVu Sans', 'Liberation Sans', 'Bitstream Vera Sans', sans-serif; text-anchor: end" x="64.01" y="488.678112" transform="rotate(-0 64.01 488.678112)">0.4</text>
     </g>
    </g>
    <g id="ytick_23">
     <g id="text_40">
      <text style="fill: #262626; font: 22px 'Arial', 'DejaVu Sans', 'Liberation Sans', 'Bitstream Vera Sans', sans-serif; text-anchor: end" x="64.01" y="422.294746" transform="rotate(-0 64.01 422.294746)">0.6</text>
     </g>
    </g>
    <g id="text_41">
     <text style="fill: #262626; font: 24px 'Arial', 'DejaVu Sans', 'Liberation Sans', 'Bitstream Vera Sans', sans-serif; text-anchor: middle" x="24.37875" y="489.82125" transform="rotate(-90 24.37875 489.82125)">Density</text>
    </g>
   </g>
   <g id="line2d_13">
    <path d="M 118.591044 613.529113 
L 120.53435 613.418243 
L 122.477656 613.097232 
L 123.44931 612.784341 
L 124.420963 612.314041 
L 125.392616 611.637032 
L 126.364269 610.703643 
L 127.335922 609.471118 
L 128.307575 607.912235 
L 129.279229 606.023623 
L 131.222535 601.394488 
L 135.109148 591.111726 
L 136.080801 588.914917 
L 137.052454 587.013758 
L 138.024107 585.432059 
L 138.99576 584.165436 
L 139.967414 583.187805 
L 140.939067 582.45981 
L 141.91072 581.93714 
L 142.882373 581.577214 
L 144.825679 581.206481 
L 146.768986 581.140282 
L 149.683945 581.341025 
L 154.542211 581.734861 
L 160.37213 581.86787 
L 165.230396 581.753312 
L 169.117009 581.722936 
L 172.031968 581.9406 
L 175.918581 582.27221 
L 177.861887 582.245945 
L 180.776847 581.896947 
L 183.691806 581.476334 
L 185.635112 581.390811 
L 187.578419 581.548092 
L 190.493378 582.120855 
L 194.379991 582.897255 
L 196.323297 583.106386 
L 198.266604 583.050123 
L 199.238257 582.799612 
L 200.20991 582.25195 
L 201.181563 581.206647 
L 202.153216 579.362263 
L 203.124869 576.296018 
L 204.096523 571.459957 
L 205.068176 564.209057 
L 206.039829 553.876262 
L 207.011482 539.901858 
L 207.983135 522.008786 
L 208.954788 500.39374 
L 212.841401 402.899779 
L 213.813054 386.596796 
L 214.784708 377.886472 
L 215.756361 377.856964 
L 216.728014 386.506437 
L 217.699667 402.743184 
L 218.67132 424.611116 
L 221.58628 499.871114 
L 222.557933 521.369437 
L 223.529586 539.141955 
L 224.501239 552.997524 
L 225.472892 563.218572 
L 226.444546 570.368409 
L 227.416199 575.114319 
L 228.387852 578.097006 
L 229.359505 579.855228 
L 230.331158 580.798483 
L 231.302811 581.212823 
L 232.274465 581.284028 
L 233.246118 581.125771 
L 234.217771 580.805155 
L 236.161077 579.822469 
L 238.104384 578.525303 
L 241.019343 576.252912 
L 244.905956 573.240416 
L 246.849262 572.057782 
L 248.792568 571.238251 
L 250.735875 570.784472 
L 252.679181 570.594394 
L 255.594141 570.41114 
L 257.537447 570.085052 
L 259.480753 569.478762 
L 264.339019 567.553183 
L 266.282325 567.227563 
L 268.225632 567.305487 
L 271.140591 567.851216 
L 277.942163 569.335001 
L 280.857123 570.38111 
L 284.743736 572.152011 
L 286.687042 573.191587 
L 288.630348 574.541809 
L 289.602001 575.440606 
L 290.573655 576.562066 
L 291.545308 577.962822 
L 292.516961 579.690757 
L 293.488614 581.775032 
L 294.460267 584.216678 
L 296.403574 590.001171 
L 300.290186 602.357844 
L 301.26184 604.92843 
L 302.233493 607.125661 
L 303.205146 608.925793 
L 304.176799 610.339109 
L 305.148452 611.402316 
L 306.120105 612.168606 
L 307.091759 612.697693 
L 308.063412 613.047632 
L 310.006718 613.403864 
L 311.950024 613.525587 
L 311.950024 613.525587 
" clip-path="url(#p3104c9ac05)" style="fill: none; stroke: #b3b3b3; stroke-width: 7; stroke-linecap: round"/>
   </g>
   <g id="line2d_14">
    <path d="M 140.590831 613.56339 
L 143.92921 613.450299 
L 147.267588 613.040855 
L 148.936777 612.877605 
L 150.605966 612.908469 
L 157.282723 613.546643 
L 162.29029 613.508952 
L 168.967047 613.241716 
L 176.478398 613.565935 
L 190.666506 613.531424 
L 194.839479 613.286344 
L 198.177857 613.169616 
L 205.689208 613.307843 
L 209.862181 613.513987 
L 211.53137 613.440224 
L 213.200559 613.130677 
L 214.869748 612.42466 
L 218.208127 610.490987 
L 219.042721 610.308765 
L 219.877316 610.355978 
L 220.71191 610.609988 
L 224.050289 612.202007 
L 225.719478 612.555855 
L 227.388667 612.546418 
L 229.057856 612.194697 
L 229.892451 611.802995 
L 230.727045 611.148874 
L 231.56164 610.094174 
L 232.396234 608.477023 
L 233.230829 606.145585 
L 234.065424 603.00559 
L 234.900018 599.065174 
L 236.569207 589.380241 
L 239.072991 573.070564 
L 240.74218 560.687836 
L 242.411369 545.744808 
L 244.915153 522.478468 
L 245.749748 516.262518 
L 246.584342 511.336029 
L 247.418937 507.750117 
L 248.253531 505.369967 
L 249.088126 503.894752 
L 250.757315 501.959917 
L 251.59191 500.688539 
L 252.426504 498.898351 
L 253.261099 496.591154 
L 254.930288 491.039733 
L 256.599477 484.942571 
L 257.434072 481.393024 
L 258.268666 477.028373 
L 259.103261 471.428103 
L 259.937855 464.301515 
L 260.77245 455.632819 
L 264.110828 415.919668 
L 264.945423 408.307446 
L 265.780017 402.587628 
L 266.614612 398.849994 
L 267.449207 397.036816 
L 268.283801 396.981565 
L 269.118396 398.380927 
L 271.622179 405.501889 
L 272.456774 406.531757 
L 273.291369 406.243588 
L 274.125963 404.956132 
L 274.960558 403.459077 
L 275.795152 402.766716 
L 276.629747 403.790771 
L 277.464341 407.07068 
L 278.298936 412.657404 
L 279.133531 420.161975 
L 282.471909 455.261598 
L 284.141098 468.747607 
L 285.810287 480.601305 
L 286.644882 487.257173 
L 288.314071 503.284858 
L 290.817855 529.770356 
L 292.487044 544.675197 
L 297.494611 583.807814 
L 299.1638 596.999355 
L 299.998395 602.274652 
L 300.832989 606.358518 
L 301.667584 609.268773 
L 302.502179 611.177848 
L 303.336773 612.331208 
L 304.171368 612.973396 
L 305.005962 613.303193 
L 306.675151 613.527972 
L 306.675151 613.527972 
" clip-path="url(#p3104c9ac05)" style="fill: none; stroke: #000000; stroke-width: 7; stroke-linecap: round"/>
   </g>
   <g id="line2d_15">
    <path d="M 114.880919 613.559039 
L 121.904162 613.40423 
L 125.917444 613.104844 
L 129.930726 612.592334 
L 132.940687 612.054846 
L 135.950649 611.277218 
L 137.95729 610.523635 
L 139.963931 609.524859 
L 142.973892 607.648334 
L 144.980533 606.372096 
L 146.987174 605.363204 
L 147.990495 605.037712 
L 148.993815 604.862672 
L 149.997136 604.849693 
L 151.000456 604.998948 
L 152.003776 605.298942 
L 154.010417 606.254632 
L 159.02702 609.14836 
L 161.033661 609.947885 
L 163.040302 610.465456 
L 166.050263 610.933945 
L 170.063545 611.555117 
L 178.090109 613.057981 
L 181.10007 613.355796 
L 185.113352 613.521699 
L 194.143237 613.570761 
L 217.219608 613.479041 
L 220.229569 613.208752 
L 222.23621 612.757288 
L 223.23953 612.387992 
L 224.242851 611.884805 
L 225.246171 611.213677 
L 226.249492 610.337025 
L 227.252812 609.214801 
L 228.256133 607.805804 
L 229.259453 606.06905 
L 230.262774 603.96499 
L 231.266094 601.456381 
L 232.269415 598.508686 
L 233.272735 595.090026 
L 234.276056 591.170886 
L 235.279376 586.723947 
L 236.282697 581.724569 
L 238.289338 569.994614 
L 240.295979 555.937868 
L 242.30262 539.807131 
L 248.322542 488.547551 
L 249.325863 481.42512 
L 250.329183 475.114287 
L 251.332504 469.669471 
L 252.335824 465.080915 
L 253.339145 461.275874 
L 254.342465 458.127507 
L 256.349106 453.121731 
L 259.359068 446.287123 
L 261.365709 440.998729 
L 264.37567 432.626308 
L 265.378991 430.241983 
L 266.382311 428.321685 
L 267.385632 427.003888 
L 268.388952 426.397232 
L 269.392273 426.573841 
L 270.395593 427.56754 
L 271.398913 429.376264 
L 272.402234 431.967432 
L 273.405554 435.284862 
L 274.408875 439.255868 
L 276.415516 448.821809 
L 278.422157 459.960847 
L 282.435439 484.322089 
L 291.465323 540.134803 
L 296.481925 572.980901 
L 298.488566 584.604822 
L 300.495207 594.256862 
L 301.498528 598.219943 
L 302.501848 601.595342 
L 303.505169 604.404873 
L 304.508489 606.690014 
L 305.51181 608.506127 
L 306.51513 609.91646 
L 307.518451 610.986652 
L 308.521771 611.780214 
L 309.525092 612.355261 
L 310.528412 612.762506 
L 312.535053 613.235087 
L 314.541694 613.442724 
L 314.541694 613.442724 
" clip-path="url(#p3104c9ac05)" style="fill: none; stroke: #9c110b; stroke-width: 7; stroke-linecap: round"/>
   </g>
   <g id="patch_15">
    <path d="M 79.51 613.57125 
L 79.51 366.07125 
" style="fill: none; stroke: #262626; stroke-width: 2.5; stroke-linejoin: miter; stroke-linecap: square"/>
   </g>
   <g id="patch_16">
    <path d="M 79.51 613.57125 
L 350.194487 613.57125 
" style="fill: none; stroke: #262626; stroke-width: 2.5; stroke-linejoin: miter; stroke-linecap: square"/>
   </g>
   <g id="text_42">
    <text style="fill: #262626; font: 24px 'Arial', 'DejaVu Sans', 'Liberation Sans', 'Bitstream Vera Sans', sans-serif; text-anchor: middle" x="214.852244" y="360.07125" transform="rotate(-0 214.852244 360.07125)">Mp</text>
   </g>
  </g>
  <g id="axes_6">
   <g id="patch_17">
    <path d="M 422.124487 613.57125 
L 692.808975 613.57125 
L 692.808975 366.07125 
L 422.124487 366.07125 
L 422.124487 613.57125 
z
" style="fill: none"/>
   </g>
   <g id="matplotlib.axis_11">
    <g id="xtick_16">
     <g id="text_43">
      <text style="fill: #262626; font: 22px 'Arial', 'DejaVu Sans', 'Liberation Sans', 'Bitstream Vera Sans', sans-serif; text-anchor: middle" x="433.393176" y="644.818437" transform="rotate(-0 433.393176 644.818437)">−5</text>
     </g>
    </g>
    <g id="xtick_17">
     <g id="text_44">
      <text style="fill: #262626; font: 22px 'Arial', 'DejaVu Sans', 'Liberation Sans', 'Bitstream Vera Sans', sans-serif; text-anchor: middle" x="557.883256" y="644.818437" transform="rotate(-0 557.883256 644.818437)">0</text>
     </g>
    </g>
    <g id="xtick_18">
     <g id="text_45">
      <text style="fill: #262626; font: 22px 'Arial', 'DejaVu Sans', 'Liberation Sans', 'Bitstream Vera Sans', sans-serif; text-anchor: middle" x="682.373337" y="644.818437" transform="rotate(-0 682.373337 644.818437)">5</text>
     </g>
    </g>
    <g id="text_46">
     <text style="fill: #262626; font: 24px 'Arial', 'DejaVu Sans', 'Liberation Sans', 'Bitstream Vera Sans', sans-serif; text-anchor: middle" x="557.466731" y="670.369687" transform="rotate(-0 557.466731 670.369687)">FC</text>
    </g>
   </g>
   <g id="matplotlib.axis_12">
    <g id="ytick_24">
     <g id="text_47">
      <text style="fill: #262626; font: 22px 'Arial', 'DejaVu Sans', 'Liberation Sans', 'Bitstream Vera Sans', sans-serif; text-anchor: end" x="406.624487" y="621.444844" transform="rotate(-0 406.624487 621.444844)">0</text>
     </g>
    </g>
    <g id="ytick_25">
     <g id="text_48">
      <text style="fill: #262626; font: 22px 'Arial', 'DejaVu Sans', 'Liberation Sans', 'Bitstream Vera Sans', sans-serif; text-anchor: end" x="406.624487" y="557.412527" transform="rotate(-0 406.624487 557.412527)">1</text>
     </g>
    </g>
    <g id="ytick_26">
     <g id="text_49">
      <text style="fill: #262626; font: 22px 'Arial', 'DejaVu Sans', 'Liberation Sans', 'Bitstream Vera Sans', sans-serif; text-anchor: end" x="406.624487" y="493.380211" transform="rotate(-0 406.624487 493.380211)">2</text>
     </g>
    </g>
    <g id="ytick_27">
     <g id="text_50">
      <text style="fill: #262626; font: 22px 'Arial', 'DejaVu Sans', 'Liberation Sans', 'Bitstream Vera Sans', sans-serif; text-anchor: end" x="406.624487" y="429.347894" transform="rotate(-0 406.624487 429.347894)">3</text>
     </g>
    </g>
   </g>
   <g id="line2d_16">
    <path d="M 474.697196 613.556524 
L 477.107038 613.395379 
L 478.070975 613.175189 
L 479.034911 612.763722 
L 479.998848 612.075939 
L 480.962784 611.047047 
L 481.926721 609.668855 
L 483.372626 607.129979 
L 485.300499 603.744037 
L 486.264436 602.420158 
L 487.228373 601.445894 
L 488.192309 600.802046 
L 489.156246 600.423836 
L 490.602151 600.196575 
L 492.048056 600.218889 
L 494.939866 600.583903 
L 496.867739 600.747679 
L 498.313644 600.68795 
L 500.723485 600.301888 
L 502.651358 600.038778 
L 504.579232 600.027181 
L 508.434978 600.157228 
L 510.362851 599.87972 
L 513.73663 599.201725 
L 515.182535 599.134532 
L 525.785837 599.589784 
L 528.677647 599.73465 
L 531.569457 599.592648 
L 533.49733 599.583137 
L 535.425204 599.836502 
L 538.317014 600.510693 
L 540.726855 601.022973 
L 542.17276 601.128211 
L 544.100633 600.984652 
L 547.474412 600.451641 
L 548.438348 600.16535 
L 548.920316 599.918761 
L 549.402285 599.545315 
L 549.884253 598.979683 
L 550.366221 598.135653 
L 550.84819 596.905563 
L 551.330158 595.163247 
L 551.812126 592.771904 
L 552.294095 589.597884 
L 552.776063 585.530469 
L 553.74 574.535958 
L 555.185905 552.587015 
L 556.149841 538.105789 
L 556.631809 532.345749 
L 557.113778 528.210767 
L 557.595746 526.064872 
L 558.077714 526.120222 
L 558.559683 528.407969 
L 559.041651 532.774 
L 560.005588 546.347649 
L 562.415429 586.559972 
L 563.379366 597.799971 
L 564.343302 605.176654 
L 564.825271 607.645934 
L 565.307239 609.476368 
L 565.789207 610.798804 
L 566.271176 611.731242 
L 566.753144 612.373656 
L 567.717081 613.092194 
L 568.681017 613.39367 
L 570.126922 613.536665 
L 570.60889 613.552015 
L 570.60889 613.552015 
" clip-path="url(#p2a38c45554)" style="fill: none; stroke: #b3b3b3; stroke-width: 7; stroke-linecap: round"/>
   </g>
   <g id="line2d_17">
    <path d="M 469.269862 613.550608 
L 472.486933 613.402097 
L 474.095469 613.159143 
L 475.704005 612.667528 
L 476.776362 612.130881 
L 477.84872 611.376413 
L 478.921077 610.370431 
L 479.993434 609.098439 
L 481.60197 606.728614 
L 483.746685 603.014865 
L 485.891399 599.338643 
L 487.499935 597.044229 
L 488.572292 595.847862 
L 489.64465 594.946158 
L 490.717007 594.336944 
L 491.789364 594.000574 
L 492.861722 593.904825 
L 493.934079 594.008368 
L 495.542615 594.431239 
L 500.368222 596.046473 
L 501.976758 596.266735 
L 503.585294 596.214463 
L 505.19383 595.868494 
L 506.802366 595.234289 
L 508.947081 594.035936 
L 512.164153 592.146792 
L 513.772688 591.54901 
L 514.845046 591.36499 
L 515.917403 591.355386 
L 517.525939 591.607333 
L 522.887725 592.82302 
L 524.496261 592.863254 
L 526.640976 592.665399 
L 530.394226 592.248742 
L 532.002762 592.360138 
L 533.611298 592.778934 
L 535.219834 593.50265 
L 537.364548 594.779605 
L 540.045442 596.384883 
L 541.653978 597.12373 
L 543.262513 597.618734 
L 544.871049 597.860866 
L 546.479585 597.830248 
L 547.551943 597.619115 
L 548.6243 597.205756 
L 549.696657 596.542829 
L 550.769014 595.601469 
L 551.841372 594.397923 
L 555.058443 590.428766 
L 555.594622 589.990311 
L 556.130801 589.696673 
L 556.666979 589.574115 
L 557.203158 589.643512 
L 557.739337 589.918898 
L 558.275515 590.406417 
L 558.811694 591.103779 
L 559.884051 593.077325 
L 560.956408 595.666333 
L 565.245838 606.976369 
L 566.318195 609.004597 
L 567.390552 610.555793 
L 568.462909 611.672366 
L 569.535267 612.430758 
L 570.607624 612.917799 
L 572.21616 613.311714 
L 574.360874 613.506888 
L 575.96941 613.551226 
L 575.96941 613.551226 
" clip-path="url(#p2a38c45554)" style="fill: none; stroke: #000000; stroke-width: 7; stroke-linecap: round"/>
   </g>
   <g id="line2d_18">
    <path d="M 484.824114 613.562831 
L 486.906375 613.442649 
L 488.572184 613.107125 
L 490.237994 612.816957 
L 491.48735 612.928053 
L 494.402516 613.489124 
L 496.068325 613.509193 
L 497.734134 613.287468 
L 500.232848 612.814882 
L 501.482205 612.940982 
L 504.397371 613.499343 
L 506.896084 613.56965 
L 513.142868 613.498338 
L 514.808677 613.229035 
L 517.307391 612.669202 
L 521.888366 612.224383 
L 523.137723 612.486801 
L 526.052889 613.397619 
L 527.302245 613.509644 
L 528.968054 613.408963 
L 530.633864 613.028157 
L 532.716125 612.53986 
L 534.798386 612.158859 
L 536.880648 611.643835 
L 537.713552 611.661545 
L 538.962909 612.036665 
L 540.212266 612.392024 
L 541.04517 612.301738 
L 541.878075 611.818987 
L 542.710979 610.895084 
L 543.543884 609.474225 
L 544.376788 607.45674 
L 545.209693 604.682016 
L 546.042597 600.940661 
L 546.875502 596.092035 
L 549.790668 576.836315 
L 550.623572 573.700147 
L 551.872929 570.209279 
L 552.289381 568.573491 
L 552.705834 566.178907 
L 553.122286 562.547876 
L 553.538738 557.056493 
L 553.955191 548.957885 
L 554.371643 537.482309 
L 554.788095 522.026421 
L 555.621 479.134131 
L 556.870356 404.847019 
L 557.286809 387.389928 
L 557.703261 377.919285 
L 558.119713 377.856961 
L 558.536165 387.303329 
L 558.952618 405.032206 
L 559.785522 455.847416 
L 561.034879 532.514474 
L 561.867784 567.325482 
L 562.700688 588.766019 
L 563.533593 601.051324 
L 563.950045 604.939805 
L 564.366497 607.771542 
L 564.782949 609.789279 
L 565.199402 611.186859 
L 565.615854 612.122414 
L 566.032306 612.724884 
L 566.448759 613.096839 
L 567.281663 613.440295 
L 567.698115 613.506886 
L 567.698115 613.506886 
" clip-path="url(#p2a38c45554)" style="fill: none; stroke: #9c110b; stroke-width: 7; stroke-linecap: round"/>
   </g>
   <g id="patch_18">
    <path d="M 422.124487 613.57125 
L 422.124487 366.07125 
" style="fill: none; stroke: #262626; stroke-width: 2.5; stroke-linejoin: miter; stroke-linecap: square"/>
   </g>
   <g id="patch_19">
    <path d="M 422.124487 613.57125 
L 692.808975 613.57125 
" style="fill: none; stroke: #262626; stroke-width: 2.5; stroke-linejoin: miter; stroke-linecap: square"/>
   </g>
   <g id="text_51">
    <text style="fill: #262626; font: 24px 'Arial', 'DejaVu Sans', 'Liberation Sans', 'Bitstream Vera Sans', sans-serif; text-anchor: middle" x="557.466731" y="360.07125" transform="rotate(-0 557.466731 360.07125)">gammaDp</text>
   </g>
  </g>
  <g id="legend_1">
   <g id="text_52">
    <text style="fill: #262626; font: 24px 'Arial', 'DejaVu Sans', 'Liberation Sans', 'Bitstream Vera Sans', sans-serif; text-anchor: start" x="1469.878437" y="300.840937" transform="rotate(-0 1469.878437 300.840937)">Versatile_STR</text>
   </g>
   <g id="line2d_19">
    <path d="M 1415.515625 324.658125 
L 1437.515625 324.658125 
L 1459.515625 324.658125 
" style="fill: none; stroke: #9c110b; stroke-width: 7; stroke-linecap: round"/>
   </g>
   <g id="text_53">
    <text style="fill: #262626; font: 22px 'Arial', 'DejaVu Sans', 'Liberation Sans', 'Bitstream Vera Sans', sans-serif; text-anchor: start" x="1477.115625" y="332.358125" transform="rotate(-0 1477.115625 332.358125)">Versatile VPRO</text>
   </g>
   <g id="line2d_20">
    <path d="M 1415.515625 355.777812 
L 1437.515625 355.777812 
L 1459.515625 355.777812 
" style="fill: none; stroke: #000000; stroke-width: 7; stroke-linecap: round"/>
   </g>
   <g id="text_54">
    <text style="fill: #262626; font: 22px 'Arial', 'DejaVu Sans', 'Liberation Sans', 'Bitstream Vera Sans', sans-serif; text-anchor: start" x="1477.115625" y="363.477812" transform="rotate(-0 1477.115625 363.477812)">Non-Versatile VPRO</text>
   </g>
   <g id="line2d_21">
    <path d="M 1415.515625 386.8975 
L 1437.515625 386.8975 
L 1459.515625 386.8975 
" style="fill: none; stroke: #b3b3b3; stroke-width: 7; stroke-linecap: round"/>
   </g>
   <g id="text_55">
    <text style="fill: #262626; font: 22px 'Arial', 'DejaVu Sans', 'Liberation Sans', 'Bitstream Vera Sans', sans-serif; text-anchor: start" x="1477.115625" y="394.5975" transform="rotate(-0 1477.115625 394.5975)">Not VPRO</text>
   </g>
  </g>
 </g>
 <defs>
  <clipPath id="p0a28273ade">
   <rect x="79.51" y="30.67125" width="270.684487" height="247.5"/>
  </clipPath>
  <clipPath id="p752e0ee92f">
   <rect x="422.124487" y="30.67125" width="270.684488" height="247.5"/>
  </clipPath>
  <clipPath id="pd24f8a7146">
   <rect x="764.738975" y="30.67125" width="270.684487" height="247.5"/>
  </clipPath>
  <clipPath id="pbf58e283ad">
   <rect x="1107.353463" y="30.67125" width="270.684487" height="247.5"/>
  </clipPath>
  <clipPath id="p3104c9ac05">
   <rect x="79.51" y="366.07125" width="270.684487" height="247.5"/>
  </clipPath>
  <clipPath id="p2a38c45554">
   <rect x="422.124487" y="366.07125" width="270.684488" height="247.5"/>
  </clipPath>
 </defs>
</svg>
