<?xml version="1.0" encoding="utf-8" standalone="no"?>
<!DOCTYPE svg PUBLIC "-//W3C//DTD SVG 1.1//EN"
  "http://www.w3.org/Graphics/SVG/1.1/DTD/svg11.dtd">
<svg xmlns:xlink="http://www.w3.org/1999/xlink" width="1402.43875pt" height="384.068438pt" viewBox="0 0 1402.43875 384.068438" xmlns="http://www.w3.org/2000/svg" version="1.1">
 <metadata>
  <rdf:RDF xmlns:dc="http://purl.org/dc/elements/1.1/" xmlns:cc="http://creativecommons.org/ns#" xmlns:rdf="http://www.w3.org/1999/02/22-rdf-syntax-ns#">
   <cc:Work>
    <dc:type rdf:resource="http://purl.org/dc/dcmitype/StillImage"/>
    <dc:date>2024-12-17T10:30:29.966156</dc:date>
    <dc:format>image/svg+xml</dc:format>
    <dc:creator>
     <cc:Agent>
      <dc:title>Matplotlib v3.8.0, https://matplotlib.org/</dc:title>
     </cc:Agent>
    </dc:creator>
   </cc:Work>
  </rdf:RDF>
 </metadata>
 <defs>
  <style type="text/css">*{stroke-linejoin: round; stroke-linecap: butt}</style>
 </defs>
 <g id="figure_1">
  <g id="patch_1">
   <path d="M 0 384.068438 
L 1402.43875 384.068438 
L 1402.43875 -0 
L 0 -0 
L 0 384.068438 
z
" style="fill: none"/>
  </g>
  <g id="axes_1">
   <g id="patch_2">
    <path d="M 79.51 315.3 
L 354.494687 315.3 
L 354.494687 92.4 
L 79.51 92.4 
L 79.51 315.3 
z
" style="fill: none"/>
   </g>
   <g id="matplotlib.axis_1">
    <g id="xtick_1">
     <g id="text_1">
      <text style="fill: #262626; font: 22px 'Arial', 'DejaVu Sans', 'Liberation Sans', 'Bitstream Vera Sans', sans-serif; text-anchor: middle" x="115.516562" y="346.547188" transform="rotate(-0 115.516562 346.547188)">−5</text>
     </g>
    </g>
    <g id="xtick_2">
     <g id="text_2">
      <text style="fill: #262626; font: 22px 'Arial', 'DejaVu Sans', 'Liberation Sans', 'Bitstream Vera Sans', sans-serif; text-anchor: middle" x="213.654404" y="346.547188" transform="rotate(-0 213.654404 346.547188)">0</text>
     </g>
    </g>
    <g id="xtick_3">
     <g id="text_3">
      <text style="fill: #262626; font: 22px 'Arial', 'DejaVu Sans', 'Liberation Sans', 'Bitstream Vera Sans', sans-serif; text-anchor: middle" x="311.792245" y="346.547188" transform="rotate(-0 311.792245 346.547188)">5</text>
     </g>
    </g>
    <g id="text_4">
     <text style="fill: #262626; font: 24px 'Arial', 'DejaVu Sans', 'Liberation Sans', 'Bitstream Vera Sans', sans-serif; text-anchor: middle" x="217.002344" y="372.098438" transform="rotate(-0 217.002344 372.098438)">FC</text>
    </g>
   </g>
   <g id="matplotlib.axis_2">
    <g id="ytick_1">
     <g id="text_5">
      <text style="fill: #262626; font: 22px 'Arial', 'DejaVu Sans', 'Liberation Sans', 'Bitstream Vera Sans', sans-serif; text-anchor: end" x="64.01" y="323.173594" transform="rotate(-0 64.01 323.173594)">0.0</text>
     </g>
    </g>
    <g id="ytick_2">
     <g id="text_6">
      <text style="fill: #262626; font: 22px 'Arial', 'DejaVu Sans', 'Liberation Sans', 'Bitstream Vera Sans', sans-serif; text-anchor: end" x="64.01" y="265.640335" transform="rotate(-0 64.01 265.640335)">0.2</text>
     </g>
    </g>
    <g id="ytick_3">
     <g id="text_7">
      <text style="fill: #262626; font: 22px 'Arial', 'DejaVu Sans', 'Liberation Sans', 'Bitstream Vera Sans', sans-serif; text-anchor: end" x="64.01" y="208.107077" transform="rotate(-0 64.01 208.107077)">0.4</text>
     </g>
    </g>
    <g id="ytick_4">
     <g id="text_8">
      <text style="fill: #262626; font: 22px 'Arial', 'DejaVu Sans', 'Liberation Sans', 'Bitstream Vera Sans', sans-serif; text-anchor: end" x="64.01" y="150.573819" transform="rotate(-0 64.01 150.573819)">0.6</text>
     </g>
    </g>
    <g id="text_9">
     <text style="fill: #262626; font: 24px 'Arial', 'DejaVu Sans', 'Liberation Sans', 'Bitstream Vera Sans', sans-serif; text-anchor: middle" x="24.37875" y="203.85" transform="rotate(-90 24.37875 203.85)">Density</text>
    </g>
   </g>
   <g id="line2d_1">
    <path d="M 134.918064 315.268509 
L 137.291998 315.144885 
L 138.874621 314.909397 
L 140.457244 314.417871 
L 141.248556 314.026224 
L 142.039867 313.507957 
L 142.831178 312.84235 
L 143.62249 312.012556 
L 145.205113 309.82728 
L 146.787735 306.980587 
L 149.16167 301.920725 
L 151.535604 296.879029 
L 153.118227 294.030693 
L 154.70085 291.814076 
L 155.492161 290.970968 
L 156.283472 290.308994 
L 157.074784 289.824854 
L 157.866095 289.50949 
L 158.657407 289.347462 
L 160.24003 289.388052 
L 164.196587 290.022648 
L 165.779209 289.810105 
L 167.361832 289.164043 
L 168.944455 288.161553 
L 171.318389 286.278043 
L 176.857569 281.561385 
L 178.440192 280.667737 
L 179.231504 280.41868 
L 180.022815 280.322197 
L 180.814126 280.380286 
L 181.605438 280.583484 
L 183.188061 281.342394 
L 185.561995 282.966301 
L 189.518552 285.736328 
L 191.101175 286.648769 
L 192.683798 287.349361 
L 194.26642 287.790072 
L 195.849043 287.967074 
L 197.431666 287.868702 
L 198.222978 287.671952 
L 199.014289 287.30848 
L 199.8056 286.680345 
L 200.596912 285.638426 
L 201.388223 283.972854 
L 202.179535 281.408602 
L 202.970846 277.610355 
L 203.762157 272.201046 
L 204.553469 264.797568 
L 205.34478 255.064768 
L 206.136092 242.784812 
L 206.927403 227.933876 
L 208.510026 191.796999 
L 210.88396 134.361979 
L 211.675272 119.359335 
L 212.466583 108.593385 
L 213.257894 103.01322 
L 214.049206 103.13017 
L 214.840517 108.941921 
L 215.631829 119.93253 
L 216.42314 135.1483 
L 218.005763 173.102275 
L 219.588386 212.178121 
L 221.171009 244.323236 
L 221.96232 256.590046 
L 222.753631 266.260254 
L 223.544943 273.553854 
L 224.336254 278.81255 
L 225.127566 282.430474 
L 225.918877 284.799517 
L 226.710189 286.272266 
L 227.5015 287.141741 
L 228.292811 287.63478 
L 229.875434 288.092166 
L 233.831991 288.899108 
L 236.997237 289.856712 
L 241.745105 291.410374 
L 243.327728 291.627366 
L 244.910351 291.557633 
L 246.492974 291.196321 
L 248.075597 290.588916 
L 250.449531 289.394187 
L 252.823465 288.189336 
L 254.406088 287.583829 
L 255.988711 287.238455 
L 257.571334 287.158132 
L 259.945268 287.344315 
L 262.319202 287.523615 
L 267.858382 287.723242 
L 269.441005 288.25426 
L 271.023628 289.222893 
L 272.606251 290.713022 
L 274.188874 292.800811 
L 275.771496 295.525203 
L 277.354119 298.815602 
L 281.310676 307.665079 
L 282.893299 310.487635 
L 283.684611 311.617925 
L 284.475922 312.553945 
L 285.267233 313.304983 
L 286.058545 313.888828 
L 287.641168 314.64943 
L 289.22379 315.031697 
L 291.597725 315.242587 
L 292.389036 315.267582 
L 292.389036 315.267582 
" clip-path="url(#p6b8699ffc2)" style="fill: none; stroke: #b3b3b3; stroke-width: 7; stroke-linecap: round"/>
   </g>
   <g id="line2d_2">
    <path d="M 124.462492 315.277627 
L 129.839501 315.123887 
L 132.528005 314.872377 
L 134.320341 314.56655 
L 136.112677 314.092073 
L 137.905013 313.388314 
L 139.697349 312.39031 
L 141.489686 311.037349 
L 143.282022 309.284578 
L 145.074358 307.116029 
L 146.866694 304.556233 
L 149.555198 300.152298 
L 154.932207 290.996721 
L 156.724543 288.366395 
L 158.516879 286.082271 
L 160.309215 284.118646 
L 163.893887 280.699969 
L 166.582392 277.959611 
L 168.374728 275.808822 
L 170.167064 273.366379 
L 175.544072 265.592976 
L 177.336408 263.625718 
L 178.232576 262.898049 
L 179.128745 262.371651 
L 180.024913 262.061642 
L 180.921081 261.975775 
L 181.817249 262.113973 
L 182.713417 262.46825 
L 183.609585 263.022998 
L 184.505753 263.755602 
L 186.298089 265.634285 
L 190.778929 270.945533 
L 191.675097 271.773115 
L 192.571266 272.422032 
L 193.467434 272.850779 
L 194.363602 273.019307 
L 195.25977 272.889532 
L 196.155938 272.426077 
L 197.052106 271.597329 
L 197.948274 270.376882 
L 198.844442 268.745348 
L 199.74061 266.692493 
L 200.636778 264.219571 
L 201.532946 261.341669 
L 203.325282 254.51256 
L 206.013787 242.586682 
L 207.806123 234.680849 
L 209.598459 227.966388 
L 210.494627 225.367384 
L 211.390795 223.417773 
L 212.286963 222.200544 
L 213.183131 221.772465 
L 214.079299 222.160526 
L 214.975467 223.360186 
L 215.871635 225.335589 
L 216.767803 228.021758 
L 217.663972 231.328575 
L 219.456308 239.351642 
L 224.833316 265.852853 
L 226.625652 272.92947 
L 228.417988 278.546263 
L 229.314156 280.819784 
L 230.210325 282.76763 
L 231.106493 284.422255 
L 232.002661 285.819643 
L 232.898829 286.996457 
L 234.691165 288.824896 
L 236.483501 290.139522 
L 238.275837 291.091676 
L 240.068173 291.752831 
L 241.860509 292.135819 
L 243.652846 292.22486 
L 245.445182 292.004365 
L 247.237518 291.479565 
L 249.029854 290.685673 
L 251.718358 289.133353 
L 257.991535 285.225532 
L 259.783871 284.335728 
L 261.576207 283.636118 
L 263.368543 283.175628 
L 265.160879 283.01454 
L 266.953215 283.224366 
L 267.849383 283.491849 
L 268.745552 283.879327 
L 269.64172 284.393959 
L 271.434056 285.823061 
L 273.226392 287.788352 
L 275.018728 290.247684 
L 276.811064 293.104791 
L 284.876577 306.698508 
L 286.668913 309.002541 
L 288.461249 310.870972 
L 290.253585 312.31144 
L 292.045921 313.367368 
L 293.838258 314.103391 
L 295.630594 314.591227 
L 298.319098 315.003129 
L 301.90377 315.22081 
L 302.799938 315.244726 
L 302.799938 315.244726 
" clip-path="url(#p6b8699ffc2)" style="fill: none; stroke: #000000; stroke-width: 7; stroke-linecap: round"/>
   </g>
   <g id="line2d_3">
    <path d="M 116.958148 314.766323 
L 119.588078 314.279853 
L 121.692023 313.647832 
L 123.269981 312.977606 
L 124.847939 312.09395 
L 126.425898 310.953253 
L 128.003856 309.512004 
L 129.581814 307.730364 
L 131.159772 305.576492 
L 132.737731 303.031347 
L 134.315689 300.093458 
L 136.419633 295.603771 
L 138.523578 290.570443 
L 142.731466 279.70457 
L 145.361397 273.146321 
L 147.465341 268.448466 
L 149.043299 265.36328 
L 150.621258 262.682825 
L 152.199216 260.378872 
L 154.30316 257.742963 
L 157.985063 253.303689 
L 159.563021 250.954519 
L 161.140979 248.038192 
L 162.192951 245.690477 
L 163.77091 241.465314 
L 165.348868 236.334544 
L 166.926826 230.306379 
L 169.030771 221.060573 
L 172.186687 205.708429 
L 174.816617 193.278167 
L 176.394576 186.805284 
L 177.446548 183.147367 
L 178.49852 180.140694 
L 179.550492 177.878282 
L 180.076478 177.050795 
L 180.602464 176.436598 
L 181.128451 176.04222 
L 181.654437 175.872858 
L 182.180423 175.932333 
L 182.706409 176.223063 
L 183.232395 176.746046 
L 183.758381 177.500858 
L 184.810353 179.697247 
L 185.862325 182.781163 
L 186.914297 186.700853 
L 187.96627 191.38599 
L 189.544228 199.656854 
L 191.122186 209.112657 
L 193.752117 226.475726 
L 197.960005 254.623873 
L 200.06395 267.32815 
L 202.167894 278.484595 
L 203.745852 285.699534 
L 205.32381 291.898309 
L 206.901769 297.109047 
L 208.479727 301.397163 
L 210.057685 304.853475 
L 211.635644 307.583123 
L 213.213602 309.696053 
L 214.79156 311.299531 
L 216.369518 312.492793 
L 217.947477 313.363726 
L 219.525435 313.987282 
L 221.629379 314.538913 
L 221.629379 314.538913 
" clip-path="url(#p6b8699ffc2)" style="fill: none; stroke: #9c110b; stroke-width: 7; stroke-linecap: round"/>
   </g>
   <g id="patch_3">
    <path d="M 79.51 315.3 
L 79.51 92.4 
" style="fill: none; stroke: #262626; stroke-width: 2.5; stroke-linejoin: miter; stroke-linecap: square"/>
   </g>
   <g id="patch_4">
    <path d="M 79.51 315.3 
L 354.494687 315.3 
" style="fill: none; stroke: #262626; stroke-width: 2.5; stroke-linejoin: miter; stroke-linecap: square"/>
   </g>
   <g id="text_10">
    <text style="fill: #262626; font: 24px 'Arial', 'DejaVu Sans', 'Liberation Sans', 'Bitstream Vera Sans', sans-serif; text-anchor: middle" x="217.002344" y="86.4" transform="rotate(-0 217.002344 86.4)">VmaxOCp</text>
   </g>
  </g>
  <g id="axes_2">
   <g id="patch_5">
    <path d="M 426.424688 315.3 
L 701.409375 315.3 
L 701.409375 92.4 
L 426.424688 92.4 
L 426.424688 315.3 
z
" style="fill: none"/>
   </g>
   <g id="matplotlib.axis_3">
    <g id="xtick_4">
     <g id="text_11">
      <text style="fill: #262626; font: 22px 'Arial', 'DejaVu Sans', 'Liberation Sans', 'Bitstream Vera Sans', sans-serif; text-anchor: middle" x="462.43125" y="346.547188" transform="rotate(-0 462.43125 346.547188)">−5</text>
     </g>
    </g>
    <g id="xtick_5">
     <g id="text_12">
      <text style="fill: #262626; font: 22px 'Arial', 'DejaVu Sans', 'Liberation Sans', 'Bitstream Vera Sans', sans-serif; text-anchor: middle" x="560.569091" y="346.547188" transform="rotate(-0 560.569091 346.547188)">0</text>
     </g>
    </g>
    <g id="xtick_6">
     <g id="text_13">
      <text style="fill: #262626; font: 22px 'Arial', 'DejaVu Sans', 'Liberation Sans', 'Bitstream Vera Sans', sans-serif; text-anchor: middle" x="658.706932" y="346.547188" transform="rotate(-0 658.706932 346.547188)">5</text>
     </g>
    </g>
    <g id="text_14">
     <text style="fill: #262626; font: 24px 'Arial', 'DejaVu Sans', 'Liberation Sans', 'Bitstream Vera Sans', sans-serif; text-anchor: middle" x="563.917031" y="372.098438" transform="rotate(-0 563.917031 372.098438)">FC</text>
    </g>
   </g>
   <g id="matplotlib.axis_4">
    <g id="ytick_5">
     <g id="text_15">
      <text style="fill: #262626; font: 22px 'Arial', 'DejaVu Sans', 'Liberation Sans', 'Bitstream Vera Sans', sans-serif; text-anchor: end" x="410.924688" y="323.173594" transform="rotate(-0 410.924688 323.173594)">0.0</text>
     </g>
    </g>
    <g id="ytick_6">
     <g id="text_16">
      <text style="fill: #262626; font: 22px 'Arial', 'DejaVu Sans', 'Liberation Sans', 'Bitstream Vera Sans', sans-serif; text-anchor: end" x="410.924688" y="237.207307" transform="rotate(-0 410.924688 237.207307)">0.5</text>
     </g>
    </g>
    <g id="ytick_7">
     <g id="text_17">
      <text style="fill: #262626; font: 22px 'Arial', 'DejaVu Sans', 'Liberation Sans', 'Bitstream Vera Sans', sans-serif; text-anchor: end" x="410.924688" y="151.241021" transform="rotate(-0 410.924688 151.241021)">1.0</text>
     </g>
    </g>
   </g>
   <g id="line2d_4">
    <path d="M 482.103289 315.281021 
L 485.257507 315.145806 
L 486.834616 314.930136 
L 488.411724 314.506408 
L 489.988833 313.771537 
L 491.565942 312.645933 
L 493.143051 311.122526 
L 495.508714 308.336198 
L 497.874378 305.584886 
L 499.451487 304.124107 
L 501.028596 303.08517 
L 502.605705 302.430624 
L 508.125586 300.813663 
L 510.491249 299.612798 
L 512.856912 298.488517 
L 514.434021 298.04172 
L 516.01113 297.88581 
L 518.376794 298.012474 
L 527.050893 298.803374 
L 530.20511 298.778477 
L 533.359328 298.783357 
L 537.302101 298.916266 
L 538.879209 298.704296 
L 540.456318 298.234552 
L 546.764754 295.670081 
L 547.553308 295.219563 
L 548.341863 294.515993 
L 549.130417 293.388107 
L 549.918972 291.623053 
L 550.707526 288.977601 
L 551.496081 285.199682 
L 552.284635 280.061141 
L 553.07319 273.400309 
L 553.861744 265.169907 
L 555.438853 244.643355 
L 557.804516 211.125064 
L 558.593071 202.222888 
L 559.381625 195.777322 
L 560.17018 192.373064 
L 560.958734 192.326312 
L 561.747289 195.636145 
L 562.535843 201.98448 
L 563.324397 210.784688 
L 564.901506 232.594267 
L 566.478615 254.659437 
L 567.26717 264.206723 
L 568.055724 272.290624 
L 568.844279 278.79806 
L 569.632833 283.773529 
L 570.421388 287.373129 
L 571.209942 289.817019 
L 571.998496 291.348256 
L 572.787051 292.202342 
L 573.575605 292.588408 
L 574.36416 292.680487 
L 578.306932 292.456263 
L 579.884041 292.949288 
L 581.46115 293.830534 
L 585.403922 296.462488 
L 586.981031 297.212569 
L 588.55814 297.683063 
L 590.923803 298.006771 
L 594.078021 298.339694 
L 597.232239 298.974683 
L 599.597902 299.367439 
L 601.175011 299.449328 
L 604.329229 299.301683 
L 606.694892 299.281414 
L 609.060556 299.559861 
L 618.523209 301.329564 
L 620.100318 302.014037 
L 621.677427 303.143176 
L 623.254536 304.75183 
L 625.620199 307.794265 
L 627.985863 310.854291 
L 629.562972 312.505386 
L 631.14008 313.709081 
L 632.717189 314.483701 
L 634.294298 314.923952 
L 635.871407 315.144956 
L 639.025625 315.281291 
L 639.025625 315.281291 
" clip-path="url(#pc759420fc9)" style="fill: none; stroke: #b3b3b3; stroke-width: 7; stroke-linecap: round"/>
   </g>
   <g id="line2d_5">
    <path d="M 474.165607 315.282161 
L 479.393646 315.157485 
L 482.879005 314.861591 
L 485.493025 314.407257 
L 488.107044 313.665974 
L 490.721064 312.589002 
L 493.335083 311.173862 
L 495.949103 309.446909 
L 498.563123 307.419994 
L 501.177142 305.069371 
L 503.791162 302.388795 
L 509.019201 296.771658 
L 510.761881 295.277853 
L 512.50456 294.216668 
L 513.3759 293.879302 
L 514.24724 293.677703 
L 515.11858 293.609926 
L 515.98992 293.668068 
L 517.732599 294.102786 
L 520.346619 295.219494 
L 522.960639 296.277744 
L 524.703318 296.656311 
L 526.445998 296.660001 
L 528.188678 296.27987 
L 529.931357 295.571317 
L 531.674037 294.623996 
L 534.288057 292.944844 
L 538.644756 289.828792 
L 544.744135 285.099455 
L 549.100834 281.540254 
L 551.714854 279.010143 
L 555.200213 275.08922 
L 556.942893 273.200919 
L 558.685573 271.670618 
L 559.556912 271.107675 
L 560.428252 270.703 
L 561.299592 270.462402 
L 562.170932 270.380989 
L 563.042272 270.443344 
L 564.784952 270.893501 
L 568.270311 272.12971 
L 570.012991 272.445071 
L 571.75567 272.450305 
L 576.11237 272.106693 
L 576.98371 272.220545 
L 577.855049 272.461569 
L 578.726389 272.847497 
L 579.597729 273.388269 
L 580.469069 274.085703 
L 582.211749 275.919529 
L 583.954428 278.224732 
L 590.925147 288.324853 
L 592.667827 290.308448 
L 594.410507 291.9376 
L 596.153186 293.219335 
L 597.895866 294.193505 
L 599.638546 294.929942 
L 605.737925 297.095724 
L 607.480605 297.979473 
L 610.094624 299.644185 
L 618.808023 305.7804 
L 624.036062 308.830513 
L 629.264101 311.764396 
L 631.87812 313.005471 
L 634.49214 313.956356 
L 637.10616 314.594916 
L 639.720179 314.969918 
L 643.205539 315.200039 
L 647.562238 315.28336 
L 647.562238 315.28336 
" clip-path="url(#pc759420fc9)" style="fill: none; stroke: #000000; stroke-width: 7; stroke-linecap: round"/>
   </g>
   <g id="line2d_6">
    <path d="M 591.258464 314.372433 
L 591.987741 313.731165 
L 592.717017 312.730302 
L 593.446294 311.223281 
L 594.175571 309.03487 
L 594.904848 305.971177 
L 595.634125 301.837865 
L 596.363402 296.466194 
L 597.274998 287.847544 
L 598.186594 277.106538 
L 599.462828 259.051376 
L 603.83849 193.713319 
L 605.479363 174.559806 
L 608.39647 140.996357 
L 610.584301 115.316192 
L 611.313577 108.787794 
L 611.860535 105.288971 
L 612.225173 103.793547 
L 612.589812 103.065947 
L 612.772131 103.013493 
L 612.95445 103.179599 
L 613.319089 104.195158 
L 613.683727 106.157829 
L 614.230685 110.932548 
L 614.777643 117.905314 
L 615.506919 130.443007 
L 616.418515 150.562148 
L 617.877069 189.141404 
L 619.882581 242.131802 
L 620.976496 265.684209 
L 621.888092 281.180566 
L 622.799688 292.910739 
L 623.528965 299.852262 
L 624.258242 304.962315 
L 624.987519 308.591381 
L 625.716795 311.078909 
L 626.446072 312.72523 
L 627.175349 313.77762 
L 627.539988 314.143015 
L 627.539988 314.143015 
" clip-path="url(#pc759420fc9)" style="fill: none; stroke: #9c110b; stroke-width: 7; stroke-linecap: round"/>
   </g>
   <g id="patch_6">
    <path d="M 426.424688 315.3 
L 426.424688 92.4 
" style="fill: none; stroke: #262626; stroke-width: 2.5; stroke-linejoin: miter; stroke-linecap: square"/>
   </g>
   <g id="patch_7">
    <path d="M 426.424688 315.3 
L 701.409375 315.3 
" style="fill: none; stroke: #262626; stroke-width: 2.5; stroke-linejoin: miter; stroke-linecap: square"/>
   </g>
   <g id="text_18">
    <text style="fill: #262626; font: 24px 'Arial', 'DejaVu Sans', 'Liberation Sans', 'Bitstream Vera Sans', sans-serif; text-anchor: middle" x="563.917031" y="86.4" transform="rotate(-0 563.917031 86.4)">VmaxONp</text>
   </g>
  </g>
  <g id="axes_3">
   <g id="patch_8">
    <path d="M 773.339375 315.3 
L 1048.324063 315.3 
L 1048.324063 92.4 
L 773.339375 92.4 
L 773.339375 315.3 
z
" style="fill: none"/>
   </g>
   <g id="matplotlib.axis_5">
    <g id="xtick_7">
     <g id="text_19">
      <text style="fill: #262626; font: 22px 'Arial', 'DejaVu Sans', 'Liberation Sans', 'Bitstream Vera Sans', sans-serif; text-anchor: middle" x="809.345937" y="346.547188" transform="rotate(-0 809.345937 346.547188)">−5</text>
     </g>
    </g>
    <g id="xtick_8">
     <g id="text_20">
      <text style="fill: #262626; font: 22px 'Arial', 'DejaVu Sans', 'Liberation Sans', 'Bitstream Vera Sans', sans-serif; text-anchor: middle" x="907.483779" y="346.547188" transform="rotate(-0 907.483779 346.547188)">0</text>
     </g>
    </g>
    <g id="xtick_9">
     <g id="text_21">
      <text style="fill: #262626; font: 22px 'Arial', 'DejaVu Sans', 'Liberation Sans', 'Bitstream Vera Sans', sans-serif; text-anchor: middle" x="1005.62162" y="346.547188" transform="rotate(-0 1005.62162 346.547188)">5</text>
     </g>
    </g>
    <g id="text_22">
     <text style="fill: #262626; font: 24px 'Arial', 'DejaVu Sans', 'Liberation Sans', 'Bitstream Vera Sans', sans-serif; text-anchor: middle" x="910.831719" y="372.098438" transform="rotate(-0 910.831719 372.098438)">FC</text>
    </g>
   </g>
   <g id="matplotlib.axis_6">
    <g id="ytick_8">
     <g id="text_23">
      <text style="fill: #262626; font: 22px 'Arial', 'DejaVu Sans', 'Liberation Sans', 'Bitstream Vera Sans', sans-serif; text-anchor: end" x="757.839375" y="323.173594" transform="rotate(-0 757.839375 323.173594)">0.0</text>
     </g>
    </g>
    <g id="ytick_9">
     <g id="text_24">
      <text style="fill: #262626; font: 22px 'Arial', 'DejaVu Sans', 'Liberation Sans', 'Bitstream Vera Sans', sans-serif; text-anchor: end" x="757.839375" y="263.636717" transform="rotate(-0 757.839375 263.636717)">0.2</text>
     </g>
    </g>
    <g id="ytick_10">
     <g id="text_25">
      <text style="fill: #262626; font: 22px 'Arial', 'DejaVu Sans', 'Liberation Sans', 'Bitstream Vera Sans', sans-serif; text-anchor: end" x="757.839375" y="204.099841" transform="rotate(-0 757.839375 204.099841)">0.4</text>
     </g>
    </g>
    <g id="ytick_11">
     <g id="text_26">
      <text style="fill: #262626; font: 22px 'Arial', 'DejaVu Sans', 'Liberation Sans', 'Bitstream Vera Sans', sans-serif; text-anchor: end" x="757.839375" y="144.562965" transform="rotate(-0 757.839375 144.562965)">0.6</text>
     </g>
    </g>
   </g>
   <g id="line2d_7">
    <path d="M 828.632127 315.263274 
L 831.010411 315.123965 
L 832.595933 314.86389 
L 834.181456 314.329829 
L 834.974217 313.909058 
L 835.766979 313.356598 
L 836.55974 312.652606 
L 837.352501 311.781827 
L 838.938024 309.516589 
L 840.523546 306.612978 
L 842.90183 301.551868 
L 845.280114 296.578629 
L 846.865637 293.729625 
L 848.451159 291.387226 
L 850.036682 289.570418 
L 851.622205 288.259217 
L 853.207727 287.409933 
L 854.79325 286.953218 
L 856.378772 286.801067 
L 857.964295 286.863836 
L 863.513624 287.420698 
L 865.099147 287.28172 
L 867.477431 286.789788 
L 869.855715 286.289621 
L 872.233999 286.034607 
L 874.612283 286.064376 
L 876.197805 286.289767 
L 877.783328 286.741824 
L 879.36885 287.427301 
L 883.332657 289.426992 
L 884.918179 289.859953 
L 885.710941 289.910828 
L 886.503702 289.832242 
L 887.296463 289.616076 
L 888.089225 289.259552 
L 888.881986 288.764929 
L 890.467509 287.386033 
L 892.053031 285.50221 
L 892.845793 284.327039 
L 893.638554 282.915593 
L 894.431315 281.148061 
L 895.224076 278.842441 
L 896.016838 275.748111 
L 896.809599 271.54949 
L 897.60236 265.884307 
L 898.395122 258.379766 
L 899.187883 248.707162 
L 899.980644 236.651396 
L 900.773406 222.186819 
L 902.358928 187.266385 
L 904.737212 132.3198 
L 905.529973 118.125229 
L 906.322735 108.057113 
L 907.115496 103.01336 
L 907.908257 103.471464 
L 908.701019 109.418397 
L 909.49378 120.352415 
L 910.286541 135.356228 
L 911.872064 172.63487 
L 913.457586 211.070122 
L 915.043109 242.904187 
L 915.83587 255.160207 
L 916.628632 264.897301 
L 917.421393 272.308911 
L 918.214154 277.705766 
L 919.006916 281.451011 
L 919.799677 283.909289 
L 920.592438 285.412536 
L 921.3852 286.241483 
L 922.177961 286.619589 
L 922.970722 286.715377 
L 924.556245 286.50304 
L 928.520051 285.706126 
L 931.691097 285.29422 
L 934.06938 285.169408 
L 939.61871 285.083669 
L 942.789755 284.880248 
L 944.375277 285.002034 
L 946.753561 285.518396 
L 949.131845 286.065395 
L 950.717368 286.229377 
L 952.30289 286.176312 
L 953.888413 285.93332 
L 957.059458 285.12202 
L 959.437742 284.516914 
L 961.023265 284.294702 
L 962.608787 284.386799 
L 963.401549 284.610758 
L 964.19431 284.989321 
L 964.987071 285.54918 
L 965.779833 286.313887 
L 966.572594 287.301056 
L 967.365355 288.519621 
L 968.950878 291.630381 
L 970.536401 295.47951 
L 974.500207 305.827358 
L 976.08573 309.161841 
L 977.671252 311.662184 
L 978.464014 312.596353 
L 979.256775 313.338844 
L 980.049536 313.912308 
L 981.635059 314.656296 
L 983.220581 315.031044 
L 985.598865 315.240628 
L 986.391627 315.266032 
L 986.391627 315.266032 
" clip-path="url(#p644e752d00)" style="fill: none; stroke: #b3b3b3; stroke-width: 7; stroke-linecap: round"/>
   </g>
   <g id="line2d_8">
    <path d="M 818.403344 315.28057 
L 823.724033 315.15652 
L 827.271158 314.85374 
L 829.931503 314.354403 
L 831.705066 313.810653 
L 833.478628 313.037651 
L 835.252191 311.983138 
L 837.025754 310.602686 
L 838.799317 308.868583 
L 840.57288 306.778327 
L 842.346443 304.360619 
L 845.006787 300.262039 
L 851.214257 290.240466 
L 853.874602 286.512415 
L 855.648165 284.338541 
L 857.421728 282.408755 
L 860.082072 279.918064 
L 862.742416 277.857796 
L 864.515979 276.739637 
L 866.289542 275.879938 
L 868.063105 275.349559 
L 869.836668 275.220603 
L 870.723449 275.32325 
L 872.497012 275.871146 
L 874.270575 276.840115 
L 876.044138 278.123052 
L 879.591264 280.871469 
L 881.364827 281.85845 
L 882.251608 282.148618 
L 883.13839 282.267782 
L 884.025171 282.193793 
L 884.911952 281.908779 
L 885.798734 281.399469 
L 886.685515 280.657286 
L 887.572297 279.678235 
L 888.459078 278.462635 
L 889.34586 277.014756 
L 891.119423 273.456817 
L 892.892986 269.10546 
L 894.666548 264.112603 
L 900.874019 245.335882 
L 902.647581 241.174175 
L 903.534363 239.574321 
L 904.421144 238.362193 
L 905.307926 237.57712 
L 906.194707 237.246272 
L 907.081489 237.382397 
L 907.96827 237.982307 
L 908.855052 239.026308 
L 909.741833 240.47866 
L 910.628615 242.289092 
L 912.402177 246.726079 
L 917.722866 261.298026 
L 919.496429 264.985563 
L 920.38321 266.471457 
L 921.269992 267.717349 
L 922.156773 268.733987 
L 923.043555 269.539001 
L 923.930336 270.154588 
L 924.817118 270.605287 
L 926.590681 271.110395 
L 928.364243 271.232168 
L 930.137806 271.102508 
L 932.798151 270.609684 
L 936.345277 269.646475 
L 939.892402 268.736267 
L 941.665965 268.472751 
L 943.439528 268.403458 
L 945.213091 268.529517 
L 947.873435 268.973543 
L 951.420561 269.608925 
L 957.628031 270.468856 
L 958.514813 270.778966 
L 959.401594 271.207921 
L 960.288376 271.780193 
L 961.175157 272.517135 
L 962.061939 273.435596 
L 962.94872 274.546765 
L 964.722283 277.358956 
L 966.495846 280.90708 
L 968.269409 285.038765 
L 974.476879 300.497561 
L 976.250442 304.193728 
L 978.024005 307.285863 
L 979.797568 309.743204 
L 981.57113 311.600396 
L 983.344693 312.936363 
L 985.118256 313.851655 
L 986.891819 314.449188 
L 988.665382 314.821041 
L 991.325726 315.11336 
L 994.872852 315.254359 
L 994.872852 315.254359 
" clip-path="url(#p644e752d00)" style="fill: none; stroke: #000000; stroke-width: 7; stroke-linecap: round"/>
   </g>
   <g id="line2d_9">
    <path d="M 785.838679 315.063623 
L 794.372135 314.726545 
L 800.467461 314.282205 
L 805.343722 313.74565 
L 810.219983 312.999978 
L 815.096244 312.002091 
L 819.972505 310.717415 
L 824.848765 309.128223 
L 829.725026 307.241927 
L 834.601287 305.097353 
L 841.915678 301.562559 
L 851.6682 296.832699 
L 856.544461 294.723249 
L 861.420721 292.898862 
L 866.296982 291.382667 
L 871.173243 290.129592 
L 884.58296 286.900092 
L 888.240156 285.687459 
L 891.897351 284.17539 
L 894.335482 282.971033 
L 896.773612 281.596479 
L 900.430808 279.20896 
L 904.088003 276.449578 
L 907.745199 273.37593 
L 912.62146 268.960052 
L 919.935851 262.33332 
L 923.593046 259.380084 
L 926.031177 257.662341 
L 928.469307 256.201751 
L 930.907438 255.041515 
L 933.345568 254.218659 
L 935.783698 253.762728 
L 938.221829 253.694754 
L 940.659959 254.026544 
L 943.09809 254.760315 
L 945.53622 255.888681 
L 947.97435 257.395005 
L 950.412481 259.254072 
L 952.850611 261.433063 
L 955.288742 263.892773 
L 958.945937 268.011041 
L 962.603133 272.498636 
L 977.231915 290.927848 
L 980.889111 294.989496 
L 984.546306 298.65552 
L 988.203502 301.887347 
L 990.641632 303.793594 
L 993.079763 305.502866 
L 995.517893 307.02085 
L 997.956024 308.356267 
L 1001.613219 310.041755 
L 1005.270415 311.385518 
L 1008.92761 312.435335 
L 1012.584806 313.239272 
L 1016.242002 313.842875 
L 1021.118262 314.406387 
L 1027.213588 314.835546 
L 1028.432654 314.894871 
L 1028.432654 314.894871 
" clip-path="url(#p644e752d00)" style="fill: none; stroke: #9c110b; stroke-width: 7; stroke-linecap: round"/>
   </g>
   <g id="patch_9">
    <path d="M 773.339375 315.3 
L 773.339375 92.4 
" style="fill: none; stroke: #262626; stroke-width: 2.5; stroke-linejoin: miter; stroke-linecap: square"/>
   </g>
   <g id="patch_10">
    <path d="M 773.339375 315.3 
L 1048.324063 315.3 
" style="fill: none; stroke: #262626; stroke-width: 2.5; stroke-linejoin: miter; stroke-linecap: square"/>
   </g>
   <g id="text_27">
    <text style="fill: #262626; font: 24px 'Arial', 'DejaVu Sans', 'Liberation Sans', 'Bitstream Vera Sans', sans-serif; text-anchor: middle" x="910.831719" y="86.4" transform="rotate(-0 910.831719 86.4)">KOCp</text>
   </g>
  </g>
  <g id="axes_4">
   <g id="patch_11">
    <path d="M 1120.254063 315.3 
L 1395.23875 315.3 
L 1395.23875 92.4 
L 1120.254063 92.4 
L 1120.254063 315.3 
z
" style="fill: none"/>
   </g>
   <g id="matplotlib.axis_7">
    <g id="xtick_10">
     <g id="text_28">
      <text style="fill: #262626; font: 22px 'Arial', 'DejaVu Sans', 'Liberation Sans', 'Bitstream Vera Sans', sans-serif; text-anchor: middle" x="1156.260625" y="346.547188" transform="rotate(-0 1156.260625 346.547188)">−5</text>
     </g>
    </g>
    <g id="xtick_11">
     <g id="text_29">
      <text style="fill: #262626; font: 22px 'Arial', 'DejaVu Sans', 'Liberation Sans', 'Bitstream Vera Sans', sans-serif; text-anchor: middle" x="1254.398466" y="346.547188" transform="rotate(-0 1254.398466 346.547188)">0</text>
     </g>
    </g>
    <g id="xtick_12">
     <g id="text_30">
      <text style="fill: #262626; font: 22px 'Arial', 'DejaVu Sans', 'Liberation Sans', 'Bitstream Vera Sans', sans-serif; text-anchor: middle" x="1352.536307" y="346.547188" transform="rotate(-0 1352.536307 346.547188)">5</text>
     </g>
    </g>
    <g id="text_31">
     <text style="fill: #262626; font: 24px 'Arial', 'DejaVu Sans', 'Liberation Sans', 'Bitstream Vera Sans', sans-serif; text-anchor: middle" x="1257.746406" y="372.098438" transform="rotate(-0 1257.746406 372.098438)">FC</text>
    </g>
   </g>
   <g id="matplotlib.axis_8">
    <g id="ytick_12">
     <g id="text_32">
      <text style="fill: #262626; font: 22px 'Arial', 'DejaVu Sans', 'Liberation Sans', 'Bitstream Vera Sans', sans-serif; text-anchor: end" x="1104.754063" y="323.173594" transform="rotate(-0 1104.754063 323.173594)">0.0</text>
     </g>
    </g>
    <g id="ytick_13">
     <g id="text_33">
      <text style="fill: #262626; font: 22px 'Arial', 'DejaVu Sans', 'Liberation Sans', 'Bitstream Vera Sans', sans-serif; text-anchor: end" x="1104.754063" y="264.159935" transform="rotate(-0 1104.754063 264.159935)">0.2</text>
     </g>
    </g>
    <g id="ytick_14">
     <g id="text_34">
      <text style="fill: #262626; font: 22px 'Arial', 'DejaVu Sans', 'Liberation Sans', 'Bitstream Vera Sans', sans-serif; text-anchor: end" x="1104.754063" y="205.146277" transform="rotate(-0 1104.754063 205.146277)">0.4</text>
     </g>
    </g>
    <g id="ytick_15">
     <g id="text_35">
      <text style="fill: #262626; font: 22px 'Arial', 'DejaVu Sans', 'Liberation Sans', 'Bitstream Vera Sans', sans-serif; text-anchor: end" x="1104.754063" y="146.132619" transform="rotate(-0 1104.754063 146.132619)">0.6</text>
     </g>
    </g>
   </g>
   <g id="line2d_10">
    <path d="M 1175.473821 315.259919 
L 1177.853736 315.104788 
L 1179.440345 314.811064 
L 1181.026955 314.200313 
L 1181.82026 313.71478 
L 1182.613565 313.073268 
L 1183.40687 312.250749 
L 1184.200175 311.22732 
L 1184.99348 309.991505 
L 1186.58009 306.895948 
L 1188.1667 303.128812 
L 1191.339919 295.149765 
L 1192.926529 291.832735 
L 1193.719834 290.483676 
L 1194.513139 289.360876 
L 1195.306444 288.46242 
L 1196.099749 287.774876 
L 1196.893054 287.275877 
L 1197.686359 286.9371 
L 1199.272969 286.615427 
L 1200.859578 286.575532 
L 1204.032798 286.774268 
L 1207.206018 287.17198 
L 1209.585933 287.497426 
L 1211.172542 287.520857 
L 1212.759152 287.241329 
L 1214.345762 286.619112 
L 1215.932372 285.724817 
L 1219.105592 283.776233 
L 1220.692201 283.116433 
L 1221.485506 282.949609 
L 1222.278811 282.917728 
L 1223.072116 283.033794 
L 1223.865421 283.302944 
L 1224.658726 283.720876 
L 1226.245336 284.936896 
L 1231.79847 290.080707 
L 1233.38508 291.005977 
L 1234.97169 291.502229 
L 1235.764995 291.55568 
L 1236.5583 291.452013 
L 1237.351605 291.162713 
L 1238.14491 290.650424 
L 1238.938215 289.865171 
L 1239.73152 288.73843 
L 1240.524825 287.175083 
L 1241.318129 285.044126 
L 1242.111434 282.170127 
L 1242.904739 278.328566 
L 1243.698044 273.249119 
L 1244.491349 266.631101 
L 1245.284654 258.174385 
L 1246.077959 247.626705 
L 1246.871264 234.844509 
L 1248.457874 202.94163 
L 1251.631093 130.797029 
L 1252.424398 117.158528 
L 1253.217703 107.618105 
L 1254.011008 103.013084 
L 1254.804313 103.781104 
L 1255.597618 109.893866 
L 1256.390923 120.858106 
L 1257.184228 135.783829 
L 1258.770838 172.739057 
L 1260.357448 210.883731 
L 1261.944057 242.660339 
L 1262.737362 255.000604 
L 1263.530667 264.900183 
L 1264.323972 272.551902 
L 1265.117277 278.264738 
L 1265.910582 282.398484 
L 1266.703887 285.311638 
L 1267.497192 287.325938 
L 1268.290497 288.70717 
L 1269.083802 289.659393 
L 1269.877107 290.328604 
L 1271.463716 291.16828 
L 1273.050326 291.613148 
L 1274.636936 291.754541 
L 1276.223546 291.588691 
L 1277.810156 291.109894 
L 1279.396766 290.342734 
L 1281.77668 288.79463 
L 1286.53651 285.456051 
L 1288.916425 284.141844 
L 1290.503035 283.466804 
L 1292.089644 283.015694 
L 1293.676254 282.875604 
L 1295.262864 283.098024 
L 1296.849474 283.620174 
L 1299.229389 284.524305 
L 1300.815999 284.880225 
L 1302.402608 284.937364 
L 1305.575828 284.781388 
L 1307.162438 285.072569 
L 1307.955743 285.396715 
L 1308.749048 285.853807 
L 1310.335658 287.171382 
L 1311.922268 289.004673 
L 1313.508877 291.324416 
L 1315.095487 294.110504 
L 1316.682097 297.314855 
L 1321.441927 307.591098 
L 1323.028536 310.314182 
L 1324.615146 312.35401 
L 1325.408451 313.114974 
L 1326.995061 314.184202 
L 1328.581671 314.785638 
L 1330.168281 315.086588 
L 1332.548196 315.25341 
L 1333.3415 315.273443 
L 1333.3415 315.273443 
" clip-path="url(#p6489fb8d05)" style="fill: none; stroke: #b3b3b3; stroke-width: 7; stroke-linecap: round"/>
   </g>
   <g id="line2d_11">
    <path d="M 1163.924843 315.244077 
L 1168.455267 315.020076 
L 1171.173521 314.650244 
L 1172.98569 314.217324 
L 1174.797859 313.566607 
L 1176.610029 312.631626 
L 1178.422198 311.347268 
L 1180.234368 309.660311 
L 1182.046537 307.541309 
L 1183.858706 304.99532 
L 1185.670876 302.068651 
L 1188.38913 297.167279 
L 1192.919553 288.755624 
L 1194.731722 285.724212 
L 1196.543892 283.057058 
L 1198.356061 280.817667 
L 1200.16823 279.021186 
L 1201.9804 277.633579 
L 1203.792569 276.576939 
L 1206.510823 275.367848 
L 1210.135162 273.841625 
L 1212.853416 272.446596 
L 1216.477755 270.463417 
L 1218.289924 269.714795 
L 1220.102093 269.349 
L 1221.008178 269.352781 
L 1221.914263 269.495337 
L 1222.820347 269.77993 
L 1223.726432 270.202852 
L 1225.538601 271.411849 
L 1228.256856 273.754169 
L 1230.069025 275.244226 
L 1230.97511 275.839732 
L 1231.881194 276.278011 
L 1232.787279 276.518994 
L 1233.693364 276.527033 
L 1234.599448 276.272347 
L 1235.505533 275.732285 
L 1236.411618 274.892353 
L 1237.317702 273.747009 
L 1238.223787 272.300195 
L 1239.129872 270.565627 
L 1240.942041 266.336772 
L 1242.75421 261.359545 
L 1246.378549 250.961947 
L 1248.190718 246.608015 
L 1249.096803 244.87376 
L 1250.002888 243.509933 
L 1250.908973 242.561761 
L 1251.815057 242.063106 
L 1252.721142 242.034951 
L 1253.627227 242.484408 
L 1254.533311 243.404335 
L 1255.439396 244.773602 
L 1256.345481 246.55801 
L 1257.251565 248.711811 
L 1259.063735 253.899498 
L 1261.781989 262.895785 
L 1264.500243 271.783265 
L 1266.312412 276.935357 
L 1268.124581 281.144303 
L 1269.030666 282.846735 
L 1269.936751 284.268646 
L 1270.842835 285.407384 
L 1271.74892 286.264539 
L 1272.655005 286.845099 
L 1273.561089 287.156763 
L 1274.467174 287.209439 
L 1275.373259 287.014943 
L 1276.279344 286.586858 
L 1277.185428 285.940544 
L 1278.091513 285.093235 
L 1279.903682 282.874669 
L 1281.715852 280.110363 
L 1285.34019 273.809645 
L 1288.058444 269.325756 
L 1289.870614 266.846982 
L 1291.682783 264.951357 
L 1292.588868 264.250115 
L 1293.494952 263.720547 
L 1294.401037 263.363987 
L 1295.307122 263.179143 
L 1296.213206 263.162785 
L 1297.119291 263.31046 
L 1298.025376 263.617174 
L 1298.931461 264.077971 
L 1299.837545 264.688358 
L 1301.649715 266.343444 
L 1303.461884 268.559604 
L 1305.274053 271.316355 
L 1307.086223 274.580109 
L 1308.898392 278.288112 
L 1311.616646 284.450766 
L 1317.053154 297.045912 
L 1318.865323 300.74845 
L 1320.677493 304.010617 
L 1322.489662 306.780715 
L 1324.301832 309.050101 
L 1326.114001 310.845294 
L 1327.92617 312.217273 
L 1329.73834 313.230524 
L 1331.550509 313.953575 
L 1333.362678 314.451903 
L 1336.080932 314.901963 
L 1339.705271 315.17172 
L 1344.235694 315.274765 
L 1344.235694 315.274765 
" clip-path="url(#p6489fb8d05)" style="fill: none; stroke: #000000; stroke-width: 7; stroke-linecap: round"/>
   </g>
   <g id="line2d_12">
    <path d="M 1153.843457 314.953153 
L 1159.594612 314.614626 
L 1164.195536 314.158032 
L 1168.796461 313.454299 
L 1172.247154 312.706528 
L 1175.697847 311.717473 
L 1179.148541 310.434876 
L 1181.449003 309.389994 
L 1183.749465 308.174793 
L 1186.049927 306.774408 
L 1188.35039 305.175557 
L 1190.650852 303.367292 
L 1192.951314 301.341786 
L 1195.251776 299.095144 
L 1197.552238 296.628187 
L 1201.002932 292.530012 
L 1204.453625 287.998872 
L 1207.904318 283.115616 
L 1213.655474 274.521539 
L 1219.406629 265.999058 
L 1222.857323 261.278265 
L 1225.157785 258.414523 
L 1227.458247 255.841589 
L 1229.758709 253.609388 
L 1232.059172 251.761379 
L 1234.359634 250.332869 
L 1236.660096 249.349574 
L 1237.810327 249.030013 
L 1238.960558 248.826505 
L 1240.110789 248.739133 
L 1241.26102 248.767247 
L 1242.411251 248.909463 
L 1244.711714 249.527051 
L 1247.012176 250.566662 
L 1249.312638 251.992633 
L 1251.6131 253.760142 
L 1253.913562 255.816848 
L 1257.364256 259.316395 
L 1261.96518 264.430862 
L 1267.716336 270.86588 
L 1271.167029 274.436391 
L 1274.617722 277.630098 
L 1276.918185 279.51012 
L 1279.218647 281.177034 
L 1281.519109 282.629584 
L 1283.819571 283.875239 
L 1286.120033 284.929218 
L 1289.570727 286.19976 
L 1293.02142 287.182211 
L 1297.622344 288.229157 
L 1305.673962 290.02837 
L 1309.124655 291.000381 
L 1312.575349 292.164266 
L 1316.026042 293.533934 
L 1320.626966 295.657954 
L 1325.227891 298.044118 
L 1340.180895 306.063288 
L 1344.78182 308.16455 
L 1349.382744 309.959741 
L 1352.833437 311.091926 
L 1356.284131 312.043208 
L 1360.885055 313.04984 
L 1365.485979 313.794483 
L 1370.086904 314.324587 
L 1375.838059 314.758117 
L 1382.739446 315.049556 
L 1382.739446 315.049556 
" clip-path="url(#p6489fb8d05)" style="fill: none; stroke: #9c110b; stroke-width: 7; stroke-linecap: round"/>
   </g>
   <g id="patch_12">
    <path d="M 1120.254063 315.3 
L 1120.254063 92.4 
" style="fill: none; stroke: #262626; stroke-width: 2.5; stroke-linejoin: miter; stroke-linecap: square"/>
   </g>
   <g id="patch_13">
    <path d="M 1120.254063 315.3 
L 1395.23875 315.3 
" style="fill: none; stroke: #262626; stroke-width: 2.5; stroke-linejoin: miter; stroke-linecap: square"/>
   </g>
   <g id="text_36">
    <text style="fill: #262626; font: 24px 'Arial', 'DejaVu Sans', 'Liberation Sans', 'Bitstream Vera Sans', sans-serif; text-anchor: middle" x="1257.746406" y="86.4" transform="rotate(-0 1257.746406 86.4)">KONp</text>
   </g>
  </g>
  <g id="text_37">
   <text style="fill: #262626; font: 28.8px 'Arial', 'DejaVu Sans', 'Liberation Sans', 'Bitstream Vera Sans', sans-serif; text-anchor: middle" x="701.15875" y="27.8145" transform="rotate(-0 701.15875 27.8145)">MIXOTROPH</text>
  </g>
 </g>
 <defs>
  <clipPath id="p6b8699ffc2">
   <rect x="79.51" y="92.4" width="274.984687" height="222.9"/>
  </clipPath>
  <clipPath id="pc759420fc9">
   <rect x="426.424688" y="92.4" width="274.984687" height="222.9"/>
  </clipPath>
  <clipPath id="p644e752d00">
   <rect x="773.339375" y="92.4" width="274.984687" height="222.9"/>
  </clipPath>
  <clipPath id="p6489fb8d05">
   <rect x="1120.254063" y="92.4" width="274.984687" height="222.9"/>
  </clipPath>
 </defs>
</svg>
