<?xml version="1.0" encoding="utf-8" standalone="no"?>
<!DOCTYPE svg PUBLIC "-//W3C//DTD SVG 1.1//EN"
  "http://www.w3.org/Graphics/SVG/1.1/DTD/svg11.dtd">
<svg xmlns:xlink="http://www.w3.org/1999/xlink" width="902.505937pt" height="517.782656pt" viewBox="0 0 902.505937 517.782656" xmlns="http://www.w3.org/2000/svg" version="1.1">
 <metadata>
  <rdf:RDF xmlns:dc="http://purl.org/dc/elements/1.1/" xmlns:cc="http://creativecommons.org/ns#" xmlns:rdf="http://www.w3.org/1999/02/22-rdf-syntax-ns#">
   <cc:Work>
    <dc:type rdf:resource="http://purl.org/dc/dcmitype/StillImage"/>
    <dc:date>2025-10-27T13:06:52.780391</dc:date>
    <dc:format>image/svg+xml</dc:format>
    <dc:creator>
     <cc:Agent>
      <dc:title>Matplotlib v3.7.1, https://matplotlib.org/</dc:title>
     </cc:Agent>
    </dc:creator>
   </cc:Work>
  </rdf:RDF>
 </metadata>
 <defs>
  <style type="text/css">*{stroke-linejoin: round; stroke-linecap: butt}</style>
 </defs>
 <g id="figure_1">
  <g id="patch_1">
   <path d="M 0 517.782656 
L 902.505937 517.782656 
L 902.505937 0 
L 0 0 
L 0 517.782656 
z
" style="fill: none"/>
  </g>
  <g id="axes_1">
   <g id="patch_2">
    <path d="M 58.305938 473.322969 
L 895.305938 473.322969 
L 895.305938 12.522969 
L 58.305938 12.522969 
L 58.305938 473.322969 
z
" style="fill: none"/>
   </g>
   <g id="matplotlib.axis_1">
    <g id="xtick_1">
     <g id="text_1">
      <text style="fill: #373737; font: 11px 'Arial', 'DejaVu Sans', 'Liberation Sans', 'Bitstream Vera Sans', sans-serif; text-anchor: middle" x="58.305938" y="491.68125" transform="rotate(-0 58.305938 491.68125)">0</text>
     </g>
    </g>
    <g id="xtick_2">
     <g id="text_2">
      <text style="fill: #373737; font: 11px 'Arial', 'DejaVu Sans', 'Liberation Sans', 'Bitstream Vera Sans', sans-serif; text-anchor: middle" x="169.905937" y="491.68125" transform="rotate(-0 169.905937 491.68125)">2</text>
     </g>
    </g>
    <g id="xtick_3">
     <g id="text_3">
      <text style="fill: #373737; font: 11px 'Arial', 'DejaVu Sans', 'Liberation Sans', 'Bitstream Vera Sans', sans-serif; text-anchor: middle" x="281.505938" y="491.68125" transform="rotate(-0 281.505938 491.68125)">4</text>
     </g>
    </g>
    <g id="xtick_4">
     <g id="text_4">
      <text style="fill: #373737; font: 11px 'Arial', 'DejaVu Sans', 'Liberation Sans', 'Bitstream Vera Sans', sans-serif; text-anchor: middle" x="393.105937" y="491.68125" transform="rotate(-0 393.105937 491.68125)">6</text>
     </g>
    </g>
    <g id="xtick_5">
     <g id="text_5">
      <text style="fill: #373737; font: 11px 'Arial', 'DejaVu Sans', 'Liberation Sans', 'Bitstream Vera Sans', sans-serif; text-anchor: middle" x="504.705938" y="491.68125" transform="rotate(-0 504.705938 491.68125)">8</text>
     </g>
    </g>
    <g id="xtick_6">
     <g id="text_6">
      <text style="fill: #373737; font: 11px 'Arial', 'DejaVu Sans', 'Liberation Sans', 'Bitstream Vera Sans', sans-serif; text-anchor: middle" x="616.305938" y="491.68125" transform="rotate(-0 616.305938 491.68125)">10</text>
     </g>
    </g>
    <g id="xtick_7">
     <g id="text_7">
      <text style="fill: #373737; font: 11px 'Arial', 'DejaVu Sans', 'Liberation Sans', 'Bitstream Vera Sans', sans-serif; text-anchor: middle" x="727.905937" y="491.68125" transform="rotate(-0 727.905937 491.68125)">12</text>
     </g>
    </g>
    <g id="xtick_8">
     <g id="text_8">
      <text style="fill: #373737; font: 11px 'Arial', 'DejaVu Sans', 'Liberation Sans', 'Bitstream Vera Sans', sans-serif; text-anchor: middle" x="839.505937" y="491.68125" transform="rotate(-0 839.505937 491.68125)">14</text>
     </g>
    </g>
    <g id="text_9">
     <text style="fill: #373737; font: 12px 'Arial', 'DejaVu Sans', 'Liberation Sans', 'Bitstream Vera Sans', sans-serif; text-anchor: middle" x="476.805938" y="508.087031" transform="rotate(-0 476.805938 508.087031)">Number of vPro parameters</text>
    </g>
   </g>
   <g id="matplotlib.axis_2">
    <g id="ytick_1">
     <g id="text_10">
      <text style="fill: #373737; font: 11px 'Arial', 'DejaVu Sans', 'Liberation Sans', 'Bitstream Vera Sans', sans-serif; text-anchor: end" x="48.305938" y="451.450173" transform="rotate(-0 48.305938 451.450173)">0.00</text>
     </g>
    </g>
    <g id="ytick_2">
     <g id="text_11">
      <text style="fill: #373737; font: 11px 'Arial', 'DejaVu Sans', 'Liberation Sans', 'Bitstream Vera Sans', sans-serif; text-anchor: end" x="48.305938" y="389.179903" transform="rotate(-0 48.305938 389.179903)">0.05</text>
     </g>
    </g>
    <g id="ytick_3">
     <g id="text_12">
      <text style="fill: #373737; font: 11px 'Arial', 'DejaVu Sans', 'Liberation Sans', 'Bitstream Vera Sans', sans-serif; text-anchor: end" x="48.305938" y="326.909633" transform="rotate(-0 48.305938 326.909633)">0.10</text>
     </g>
    </g>
    <g id="ytick_4">
     <g id="text_13">
      <text style="fill: #373737; font: 11px 'Arial', 'DejaVu Sans', 'Liberation Sans', 'Bitstream Vera Sans', sans-serif; text-anchor: end" x="48.305938" y="264.639362" transform="rotate(-0 48.305938 264.639362)">0.15</text>
     </g>
    </g>
    <g id="ytick_5">
     <g id="text_14">
      <text style="fill: #373737; font: 11px 'Arial', 'DejaVu Sans', 'Liberation Sans', 'Bitstream Vera Sans', sans-serif; text-anchor: end" x="48.305938" y="202.369092" transform="rotate(-0 48.305938 202.369092)">0.20</text>
     </g>
    </g>
    <g id="ytick_6">
     <g id="text_15">
      <text style="fill: #373737; font: 11px 'Arial', 'DejaVu Sans', 'Liberation Sans', 'Bitstream Vera Sans', sans-serif; text-anchor: end" x="48.305938" y="140.098822" transform="rotate(-0 48.305938 140.098822)">0.25</text>
     </g>
    </g>
    <g id="ytick_7">
     <g id="text_16">
      <text style="fill: #373737; font: 11px 'Arial', 'DejaVu Sans', 'Liberation Sans', 'Bitstream Vera Sans', sans-serif; text-anchor: end" x="48.305938" y="77.828552" transform="rotate(-0 48.305938 77.828552)">0.30</text>
     </g>
    </g>
    <g id="ytick_8">
     <g id="text_17">
      <text style="fill: #373737; font: 11px 'Arial', 'DejaVu Sans', 'Liberation Sans', 'Bitstream Vera Sans', sans-serif; text-anchor: end" x="48.305938" y="15.558281" transform="rotate(-0 48.305938 15.558281)">0.35</text>
     </g>
    </g>
    <g id="text_18">
     <text style="fill: #373737; font: 12px 'Arial', 'DejaVu Sans', 'Liberation Sans', 'Bitstream Vera Sans', sans-serif; text-anchor: middle" x="16.318125" y="242.922969" transform="rotate(-90 16.318125 242.922969)">fraction of versatile vPros</text>
    </g>
   </g>
   <g id="line2d_1">
    <defs>
     <path id="m336c26c5ec" d="M 0 5 
C 1.326016 5 2.597899 4.473168 3.535534 3.535534 
C 4.473168 2.597899 5 1.326016 5 0 
C 5 -1.326016 4.473168 -2.597899 3.535534 -3.535534 
C 2.597899 -4.473168 1.326016 -5 0 -5 
C -1.326016 -5 -2.597899 -4.473168 -3.535534 -3.535534 
C -4.473168 -2.597899 -5 -1.326016 -5 0 
C -5 1.326016 -4.473168 2.597899 -3.535534 3.535534 
C -2.597899 4.473168 -1.326016 5 0 5 
z
" style="stroke: #1a1a1a; stroke-width: 0.5"/>
    </defs>
    <g clip-path="url(#p04a5827b39)">
     <use xlink:href="#m336c26c5ec" x="393.105937" y="448.414861" style="fill: #d60000; stroke: #1a1a1a; stroke-width: 0.5"/>
    </g>
   </g>
   <g id="line2d_2">
    <defs>
     <path id="mf6c3abd720" d="M 0 5 
C 1.326016 5 2.597899 4.473168 3.535534 3.535534 
C 4.473168 2.597899 5 1.326016 5 0 
C 5 -1.326016 4.473168 -2.597899 3.535534 -3.535534 
C 2.597899 -4.473168 1.326016 -5 0 -5 
C -1.326016 -5 -2.597899 -4.473168 -3.535534 -3.535534 
C -4.473168 -2.597899 -5 -1.326016 -5 0 
C -5 1.326016 -4.473168 2.597899 -3.535534 3.535534 
C -2.597899 4.473168 -1.326016 5 0 5 
z
" style="stroke: #1a1a1a; stroke-width: 0.5"/>
    </defs>
    <g clip-path="url(#p04a5827b39)">
     <use xlink:href="#mf6c3abd720" x="616.305938" y="444.394181" style="fill: #8c3bff; stroke: #1a1a1a; stroke-width: 0.5"/>
    </g>
   </g>
   <g id="line2d_3">
    <defs>
     <path id="ma51955d39a" d="M 0 5 
C 1.326016 5 2.597899 4.473168 3.535534 3.535534 
C 4.473168 2.597899 5 1.326016 5 0 
C 5 -1.326016 4.473168 -2.597899 3.535534 -3.535534 
C 2.597899 -4.473168 1.326016 -5 0 -5 
C -1.326016 -5 -2.597899 -4.473168 -3.535534 -3.535534 
C -4.473168 -2.597899 -5 -1.326016 -5 0 
C -5 1.326016 -4.473168 2.597899 -3.535534 3.535534 
C -2.597899 4.473168 -1.326016 5 0 5 
z
" style="stroke: #1a1a1a; stroke-width: 0.5"/>
    </defs>
    <g clip-path="url(#p04a5827b39)">
     <use xlink:href="#ma51955d39a" x="560.505937" y="429.596922" style="fill: #018700; stroke: #1a1a1a; stroke-width: 0.5"/>
    </g>
   </g>
   <g id="line2d_4">
    <defs>
     <path id="m16aab177e6" d="M 0 5 
C 1.326016 5 2.597899 4.473168 3.535534 3.535534 
C 4.473168 2.597899 5 1.326016 5 0 
C 5 -1.326016 4.473168 -2.597899 3.535534 -3.535534 
C 2.597899 -4.473168 1.326016 -5 0 -5 
C -1.326016 -5 -2.597899 -4.473168 -3.535534 -3.535534 
C -4.473168 -2.597899 -5 -1.326016 -5 0 
C -5 1.326016 -4.473168 2.597899 -3.535534 3.535534 
C -2.597899 4.473168 -1.326016 5 0 5 
z
" style="stroke: #1a1a1a; stroke-width: 0.5"/>
    </defs>
    <g clip-path="url(#p04a5827b39)">
     <use xlink:href="#m16aab177e6" x="783.705938" y="427.635015" style="fill: #00acc6; stroke: #1a1a1a; stroke-width: 0.5"/>
    </g>
   </g>
   <g id="line2d_5">
    <defs>
     <path id="me6f66aabe3" d="M 0 5 
C 1.326016 5 2.597899 4.473168 3.535534 3.535534 
C 4.473168 2.597899 5 1.326016 5 0 
C 5 -1.326016 4.473168 -2.597899 3.535534 -3.535534 
C 2.597899 -4.473168 1.326016 -5 0 -5 
C -1.326016 -5 -2.597899 -4.473168 -3.535534 -3.535534 
C -4.473168 -2.597899 -5 -1.326016 -5 0 
C -5 1.326016 -4.473168 2.597899 -3.535534 3.535534 
C -2.597899 4.473168 -1.326016 5 0 5 
z
" style="stroke: #1a1a1a; stroke-width: 0.5"/>
    </defs>
    <g clip-path="url(#p04a5827b39)">
     <use xlink:href="#me6f66aabe3" x="616.305938" y="282.523445" style="fill: #e6a500; stroke: #1a1a1a; stroke-width: 0.5"/>
    </g>
   </g>
   <g id="line2d_6">
    <defs>
     <path id="m4d4f840c70" d="M 0 5 
C 1.326016 5 2.597899 4.473168 3.535534 3.535534 
C 4.473168 2.597899 5 1.326016 5 0 
C 5 -1.326016 4.473168 -2.597899 3.535534 -3.535534 
C 2.597899 -4.473168 1.326016 -5 0 -5 
C -1.326016 -5 -2.597899 -4.473168 -3.535534 -3.535534 
C -4.473168 -2.597899 -5 -1.326016 -5 0 
C -5 1.326016 -4.473168 2.597899 -3.535534 3.535534 
C -2.597899 4.473168 -1.326016 5 0 5 
z
" style="stroke: #1a1a1a; stroke-width: 0.5"/>
    </defs>
    <g clip-path="url(#p04a5827b39)">
     <use xlink:href="#m4d4f840c70" x="672.105937" y="202.793239" style="fill: #ff7ed1; stroke: #1a1a1a; stroke-width: 0.5"/>
    </g>
   </g>
   <g id="line2d_7">
    <defs>
     <path id="m331435b993" d="M 0 5 
C 1.326016 5 2.597899 4.473168 3.535534 3.535534 
C 4.473168 2.597899 5 1.326016 5 0 
C 5 -1.326016 4.473168 -2.597899 3.535534 -3.535534 
C 2.597899 -4.473168 1.326016 -5 0 -5 
C -1.326016 -5 -2.597899 -4.473168 -3.535534 -3.535534 
C -4.473168 -2.597899 -5 -1.326016 -5 0 
C -5 1.326016 -4.473168 2.597899 -3.535534 3.535534 
C -2.597899 4.473168 -1.326016 5 0 5 
z
" style="stroke: #1a1a1a; stroke-width: 0.5"/>
    </defs>
    <g clip-path="url(#p04a5827b39)">
     <use xlink:href="#m331435b993" x="393.105937" y="186.121991" style="fill: #6b004f; stroke: #1a1a1a; stroke-width: 0.5"/>
    </g>
   </g>
   <g id="line2d_8">
    <defs>
     <path id="m4058730a40" d="M 0 5 
C 1.326016 5 2.597899 4.473168 3.535534 3.535534 
C 4.473168 2.597899 5 1.326016 5 0 
C 5 -1.326016 4.473168 -2.597899 3.535534 -3.535534 
C 2.597899 -4.473168 1.326016 -5 0 -5 
C -1.326016 -5 -2.597899 -4.473168 -3.535534 -3.535534 
C -4.473168 -2.597899 -5 -1.326016 -5 0 
C -5 1.326016 -4.473168 2.597899 -3.535534 3.535534 
C -2.597899 4.473168 -1.326016 5 0 5 
z
" style="stroke: #1a1a1a; stroke-width: 0.5"/>
    </defs>
    <g clip-path="url(#p04a5827b39)">
     <use xlink:href="#m4058730a40" x="839.505937" y="178.425514" style="fill: #573b00; stroke: #1a1a1a; stroke-width: 0.5"/>
    </g>
   </g>
   <g id="line2d_9">
    <defs>
     <path id="mff0651cce8" d="M 0 5 
C 1.326016 5 2.597899 4.473168 3.535534 3.535534 
C 4.473168 2.597899 5 1.326016 5 0 
C 5 -1.326016 4.473168 -2.597899 3.535534 -3.535534 
C 2.597899 -4.473168 1.326016 -5 0 -5 
C -1.326016 -5 -2.597899 -4.473168 -3.535534 -3.535534 
C -4.473168 -2.597899 -5 -1.326016 -5 0 
C -5 1.326016 -4.473168 2.597899 -3.535534 3.535534 
C -2.597899 4.473168 -1.326016 5 0 5 
z
" style="stroke: #1a1a1a; stroke-width: 0.5"/>
    </defs>
    <g clip-path="url(#p04a5827b39)">
     <use xlink:href="#mff0651cce8" x="672.105937" y="164.41447" style="fill: #005659; stroke: #1a1a1a; stroke-width: 0.5"/>
    </g>
   </g>
   <g id="line2d_10">
    <defs>
     <path id="m2f4558b613" d="M 0 5 
C 1.326016 5 2.597899 4.473168 3.535534 3.535534 
C 4.473168 2.597899 5 1.326016 5 0 
C 5 -1.326016 4.473168 -2.597899 3.535534 -3.535534 
C 2.597899 -4.473168 1.326016 -5 0 -5 
C -1.326016 -5 -2.597899 -4.473168 -3.535534 -3.535534 
C -4.473168 -2.597899 -5 -1.326016 -5 0 
C -5 1.326016 -4.473168 2.597899 -3.535534 3.535534 
C -2.597899 4.473168 -1.326016 5 0 5 
z
" style="stroke: #1a1a1a; stroke-width: 0.5"/>
    </defs>
    <g clip-path="url(#p04a5827b39)">
     <use xlink:href="#m2f4558b613" x="448.905937" y="142.545047" style="fill: #15e18c; stroke: #1a1a1a; stroke-width: 0.5"/>
    </g>
   </g>
   <g id="line2d_11">
    <defs>
     <path id="m5ce13ea678" d="M 0 5 
C 1.326016 5 2.597899 4.473168 3.535534 3.535534 
C 4.473168 2.597899 5 1.326016 5 0 
C 5 -1.326016 4.473168 -2.597899 3.535534 -3.535534 
C 2.597899 -4.473168 1.326016 -5 0 -5 
C -1.326016 -5 -2.597899 -4.473168 -3.535534 -3.535534 
C -4.473168 -2.597899 -5 -1.326016 -5 0 
C -5 1.326016 -4.473168 2.597899 -3.535534 3.535534 
C -2.597899 4.473168 -1.326016 5 0 5 
z
" style="stroke: #1a1a1a; stroke-width: 0.5"/>
    </defs>
    <g clip-path="url(#p04a5827b39)">
     <use xlink:href="#m5ce13ea678" x="783.705938" y="119.567123" style="fill: #0000dd; stroke: #1a1a1a; stroke-width: 0.5"/>
    </g>
   </g>
   <g id="line2d_12">
    <defs>
     <path id="m2f2f966405" d="M 0 5 
C 1.326016 5 2.597899 4.473168 3.535534 3.535534 
C 4.473168 2.597899 5 1.326016 5 0 
C 5 -1.326016 4.473168 -2.597899 3.535534 -3.535534 
C 2.597899 -4.473168 1.326016 -5 0 -5 
C -1.326016 -5 -2.597899 -4.473168 -3.535534 -3.535534 
C -4.473168 -2.597899 -5 -1.326016 -5 0 
C -5 1.326016 -4.473168 2.597899 -3.535534 3.535534 
C -2.597899 4.473168 -1.326016 5 0 5 
z
" style="stroke: #1a1a1a; stroke-width: 0.5"/>
    </defs>
    <g clip-path="url(#p04a5827b39)">
     <use xlink:href="#m2f2f966405" x="839.505937" y="107.329087" style="fill: #a17569; stroke: #1a1a1a; stroke-width: 0.5"/>
    </g>
   </g>
   <g id="line2d_13">
    <defs>
     <path id="mb0bfac9d48" d="M 0 5 
C 1.326016 5 2.597899 4.473168 3.535534 3.535534 
C 4.473168 2.597899 5 1.326016 5 0 
C 5 -1.326016 4.473168 -2.597899 3.535534 -3.535534 
C 2.597899 -4.473168 1.326016 -5 0 -5 
C -1.326016 -5 -2.597899 -4.473168 -3.535534 -3.535534 
C -4.473168 -2.597899 -5 -1.326016 -5 0 
C -5 1.326016 -4.473168 2.597899 -3.535534 3.535534 
C -2.597899 4.473168 -1.326016 5 0 5 
z
" style="stroke: #1a1a1a; stroke-width: 0.5"/>
    </defs>
    <g clip-path="url(#p04a5827b39)">
     <use xlink:href="#mb0bfac9d48" x="560.505937" y="100.612619" style="fill: #bcb6ff; stroke: #1a1a1a; stroke-width: 0.5"/>
    </g>
   </g>
   <g id="line2d_14">
    <defs>
     <path id="m4278c4cc68" d="M 0 5 
C 1.326016 5 2.597899 4.473168 3.535534 3.535534 
C 4.473168 2.597899 5 1.326016 5 0 
C 5 -1.326016 4.473168 -2.597899 3.535534 -3.535534 
C 2.597899 -4.473168 1.326016 -5 0 -5 
C -1.326016 -5 -2.597899 -4.473168 -3.535534 -3.535534 
C -4.473168 -2.597899 -5 -1.326016 -5 0 
C -5 1.326016 -4.473168 2.597899 -3.535534 3.535534 
C -2.597899 4.473168 -1.326016 5 0 5 
z
" style="stroke: #1a1a1a; stroke-width: 0.5"/>
    </defs>
    <g clip-path="url(#p04a5827b39)">
     <use xlink:href="#m4278c4cc68" x="616.305938" y="93.971997" style="fill: #bf03b8; stroke: #1a1a1a; stroke-width: 0.5"/>
    </g>
   </g>
   <g id="line2d_15">
    <defs>
     <path id="m094c5f86f6" d="M 0 5 
C 1.326016 5 2.597899 4.473168 3.535534 3.535534 
C 4.473168 2.597899 5 1.326016 5 0 
C 5 -1.326016 4.473168 -2.597899 3.535534 -3.535534 
C 2.597899 -4.473168 1.326016 -5 0 -5 
C -1.326016 -5 -2.597899 -4.473168 -3.535534 -3.535534 
C -4.473168 -2.597899 -5 -1.326016 -5 0 
C -5 1.326016 -4.473168 2.597899 -3.535534 3.535534 
C -2.597899 4.473168 -1.326016 5 0 5 
z
" style="stroke: #1a1a1a; stroke-width: 0.5"/>
    </defs>
    <g clip-path="url(#p04a5827b39)">
     <use xlink:href="#m094c5f86f6" x="616.305938" y="70.137518" style="fill: #645472; stroke: #1a1a1a; stroke-width: 0.5"/>
    </g>
   </g>
   <g id="line2d_16">
    <defs>
     <path id="mcd45ce2e64" d="M 0 5 
C 1.326016 5 2.597899 4.473168 3.535534 3.535534 
C 4.473168 2.597899 5 1.326016 5 0 
C 5 -1.326016 4.473168 -2.597899 3.535534 -3.535534 
C 2.597899 -4.473168 1.326016 -5 0 -5 
C -1.326016 -5 -2.597899 -4.473168 -3.535534 -3.535534 
C -4.473168 -2.597899 -5 -1.326016 -5 0 
C -5 1.326016 -4.473168 2.597899 -3.535534 3.535534 
C -2.597899 4.473168 -1.326016 5 0 5 
z
" style="stroke: #1a1a1a; stroke-width: 0.5"/>
    </defs>
    <g clip-path="url(#p04a5827b39)">
     <use xlink:href="#mcd45ce2e64" x="448.905937" y="63.237931" style="fill: #790000; stroke: #1a1a1a; stroke-width: 0.5"/>
    </g>
   </g>
   <g id="patch_3">
    <path d="M 58.305938 473.322969 
L 58.305938 12.522969 
" style="fill: none; stroke: #373737; stroke-width: 1.25; stroke-linejoin: miter; stroke-linecap: square"/>
   </g>
   <g id="patch_4">
    <path d="M 58.305938 473.322969 
L 895.305938 473.322969 
" style="fill: none; stroke: #373737; stroke-width: 1.25; stroke-linejoin: miter; stroke-linecap: square"/>
   </g>
   <g id="text_19">
    <text style="fill: #d60000; font: 12px 'Arial', 'DejaVu Sans', 'Liberation Sans', 'Bitstream Vera Sans', sans-serif; text-anchor: middle" x="393.105937" y="444.67383" transform="rotate(-0 393.105937 444.67383)">-</text>
   </g>
   <g id="text_20">
    <text style="fill: #8c3bff; font: 12px 'Arial', 'DejaVu Sans', 'Liberation Sans', 'Bitstream Vera Sans', sans-serif; text-anchor: middle" x="616.305938" y="440.653151" transform="rotate(-0 616.305938 440.653151)">M</text>
   </g>
   <g id="text_21">
    <text style="fill: #018700; font: 12px 'Arial', 'DejaVu Sans', 'Liberation Sans', 'Bitstream Vera Sans', sans-serif; text-anchor: middle" x="560.505937" y="425.855891" transform="rotate(-0 560.505937 425.855891)">R</text>
   </g>
   <g id="text_22">
    <text style="fill: #00acc6; font: 12px 'Arial', 'DejaVu Sans', 'Liberation Sans', 'Bitstream Vera Sans', sans-serif; text-anchor: middle" x="783.705938" y="423.893985" transform="rotate(-0 783.705938 423.893985)">RM</text>
   </g>
   <g id="text_23">
    <text style="fill: #e6a500; font: 12px 'Arial', 'DejaVu Sans', 'Liberation Sans', 'Bitstream Vera Sans', sans-serif; text-anchor: middle" x="616.305938" y="278.782415" transform="rotate(-0 616.305938 278.782415)">EM</text>
   </g>
   <g id="text_24">
    <text style="fill: #ff7ed1; font: 12px 'Arial', 'DejaVu Sans', 'Liberation Sans', 'Bitstream Vera Sans', sans-serif; text-anchor: middle" x="672.105937" y="199.052209" transform="rotate(-0 672.105937 199.052209)">EOM</text>
   </g>
   <g id="text_25">
    <text style="fill: #6b004f; font: 12px 'Arial', 'DejaVu Sans', 'Liberation Sans', 'Bitstream Vera Sans', sans-serif; text-anchor: middle" x="393.105937" y="182.38096" transform="rotate(-0 393.105937 182.38096)">E</text>
   </g>
   <g id="text_26">
    <text style="fill: #573b00; font: 12px 'Arial', 'DejaVu Sans', 'Liberation Sans', 'Bitstream Vera Sans', sans-serif; text-anchor: middle" x="839.505937" y="174.684483" transform="rotate(-0 839.505937 174.684483)">ORM</text>
   </g>
   <g id="text_27">
    <text style="fill: #005659; font: 12px 'Arial', 'DejaVu Sans', 'Liberation Sans', 'Bitstream Vera Sans', sans-serif; text-anchor: middle" x="672.105937" y="160.67344" transform="rotate(-0 672.105937 160.67344)">OM</text>
   </g>
   <g id="text_28">
    <text style="fill: #15e18c; font: 12px 'Arial', 'DejaVu Sans', 'Liberation Sans', 'Bitstream Vera Sans', sans-serif; text-anchor: middle" x="448.905937" y="138.804017" transform="rotate(-0 448.905937 138.804017)">EO</text>
   </g>
   <g id="text_29">
    <text style="fill: #0000dd; font: 12px 'Arial', 'DejaVu Sans', 'Liberation Sans', 'Bitstream Vera Sans', sans-serif; text-anchor: middle" x="783.705938" y="115.826093" transform="rotate(-0 783.705938 115.826093)">ERM</text>
   </g>
   <g id="text_30">
    <text style="fill: #a17569; font: 12px 'Arial', 'DejaVu Sans', 'Liberation Sans', 'Bitstream Vera Sans', sans-serif; text-anchor: middle" x="839.505937" y="103.588056" transform="rotate(-0 839.505937 103.588056)">EORM</text>
   </g>
   <g id="text_31">
    <text style="fill: #bcb6ff; font: 12px 'Arial', 'DejaVu Sans', 'Liberation Sans', 'Bitstream Vera Sans', sans-serif; text-anchor: middle" x="560.505937" y="96.871589" transform="rotate(-0 560.505937 96.871589)">ER</text>
   </g>
   <g id="text_32">
    <text style="fill: #bf03b8; font: 12px 'Arial', 'DejaVu Sans', 'Liberation Sans', 'Bitstream Vera Sans', sans-serif; text-anchor: middle" x="616.305938" y="90.230966" transform="rotate(-0 616.305938 90.230966)">EOR</text>
   </g>
   <g id="text_33">
    <text style="fill: #645472; font: 12px 'Arial', 'DejaVu Sans', 'Liberation Sans', 'Bitstream Vera Sans', sans-serif; text-anchor: middle" x="616.305938" y="66.396487" transform="rotate(-0 616.305938 66.396487)">OR</text>
   </g>
   <g id="text_34">
    <text style="fill: #790000; font: 12px 'Arial', 'DejaVu Sans', 'Liberation Sans', 'Bitstream Vera Sans', sans-serif; text-anchor: middle" x="448.905937" y="59.496901" transform="rotate(-0 448.905937 59.496901)">O</text>
   </g>
  </g>
 </g>
 <defs>
  <clipPath id="p04a5827b39">
   <rect x="58.305938" y="12.522969" width="837" height="460.8"/>
  </clipPath>
 </defs>
</svg>
