<?xml version="1.0" encoding="utf-8" standalone="no"?>
<!DOCTYPE svg PUBLIC "-//W3C//DTD SVG 1.1//EN"
  "http://www.w3.org/Graphics/SVG/1.1/DTD/svg11.dtd">
<svg xmlns:xlink="http://www.w3.org/1999/xlink" width="517.361719pt" height="351.418594pt" viewBox="0 0 517.361719 351.418594" xmlns="http://www.w3.org/2000/svg" version="1.1">
 <metadata>
  <rdf:RDF xmlns:dc="http://purl.org/dc/elements/1.1/" xmlns:cc="http://creativecommons.org/ns#" xmlns:rdf="http://www.w3.org/1999/02/22-rdf-syntax-ns#">
   <cc:Work>
    <dc:type rdf:resource="http://purl.org/dc/dcmitype/StillImage"/>
    <dc:date>2025-08-10T11:43:50.990327</dc:date>
    <dc:format>image/svg+xml</dc:format>
    <dc:creator>
     <cc:Agent>
      <dc:title>Matplotlib v3.7.1, https://matplotlib.org/</dc:title>
     </cc:Agent>
    </dc:creator>
   </cc:Work>
  </rdf:RDF>
 </metadata>
 <defs>
  <style type="text/css">*{stroke-linejoin: round; stroke-linecap: butt}</style>
 </defs>
 <g id="figure_1">
  <g id="patch_1">
   <path d="M 0 351.418594 
L 517.361719 351.418594 
L 517.361719 0 
L 0 0 
L 0 351.418594 
z
" style="fill: none"/>
  </g>
  <g id="axes_1">
   <g id="patch_2">
    <path d="M 63.761719 145.44 
L 195.055836 145.44 
L 195.055836 44.64 
L 63.761719 44.64 
L 63.761719 145.44 
z
" style="fill: none"/>
   </g>
   <g id="matplotlib.axis_1">
    <g id="xtick_1"/>
    <g id="xtick_2"/>
    <g id="xtick_3"/>
    <g id="xtick_4"/>
   </g>
   <g id="matplotlib.axis_2">
    <g id="ytick_1">
     <g id="text_1">
      <text style="fill: #373737; font: 11px 'Arial', 'DejaVu Sans', 'Liberation Sans', 'Bitstream Vera Sans', sans-serif; text-anchor: end" x="54.261719" y="149.619141" transform="rotate(-0 54.261719 149.619141)">0%</text>
     </g>
    </g>
    <g id="ytick_2">
     <g id="text_2">
      <text style="fill: #373737; font: 11px 'Arial', 'DejaVu Sans', 'Liberation Sans', 'Bitstream Vera Sans', sans-serif; text-anchor: end" x="54.261719" y="101.619141" transform="rotate(-0 54.261719 101.619141)">50%</text>
     </g>
    </g>
    <g id="ytick_3">
     <g id="text_3">
      <text style="fill: #373737; font: 11px 'Arial', 'DejaVu Sans', 'Liberation Sans', 'Bitstream Vera Sans', sans-serif; text-anchor: end" x="54.261719" y="53.619141" transform="rotate(-0 54.261719 53.619141)">100%</text>
     </g>
    </g>
    <g id="text_4">
     <text style="fill: #373737; font: 12px 'Arial', 'DejaVu Sans', 'Liberation Sans', 'Bitstream Vera Sans', sans-serif; text-anchor: middle" x="16.318125" y="95.04" transform="rotate(-90 16.318125 95.04)">DIN=100</text>
    </g>
   </g>
   <g id="patch_3">
    <path d="M 71.221612 145.44 
L 98.077227 145.44 
L 98.077227 69.578738 
L 71.221612 69.578738 
z
" clip-path="url(#pe4e79bfd74)" style="fill: #f49a7b"/>
   </g>
   <g id="patch_4">
    <path d="M 101.061184 145.44 
L 127.916799 145.44 
L 127.916799 106.342673 
L 101.061184 106.342673 
z
" clip-path="url(#pe4e79bfd74)" style="fill: #f49a7b"/>
   </g>
   <g id="patch_5">
    <path d="M 130.900756 145.44 
L 157.756371 145.44 
L 157.756371 138.39929 
L 130.900756 138.39929 
z
" clip-path="url(#pe4e79bfd74)" style="fill: #f49a7b"/>
   </g>
   <g id="patch_6">
    <path d="M 160.740328 145.44 
L 187.595943 145.44 
L 187.595943 79.721588 
L 160.740328 79.721588 
z
" clip-path="url(#pe4e79bfd74)" style="fill: #f49a7b"/>
   </g>
   <g id="patch_7">
    <path d="M 71.221612 69.578738 
L 98.077227 69.578738 
L 98.077227 52.087723 
L 71.221612 52.087723 
z
" clip-path="url(#pe4e79bfd74)" style="fill: #dcdddd"/>
   </g>
   <g id="patch_8">
    <path d="M 101.061184 106.342673 
L 127.916799 106.342673 
L 127.916799 78.057833 
L 101.061184 78.057833 
z
" clip-path="url(#pe4e79bfd74)" style="fill: #dcdddd"/>
   </g>
   <g id="patch_9">
    <path d="M 130.900756 138.39929 
L 157.756371 138.39929 
L 157.756371 125.823336 
L 130.900756 125.823336 
z
" clip-path="url(#pe4e79bfd74)" style="fill: #dcdddd"/>
   </g>
   <g id="patch_10">
    <path d="M 160.740328 79.721588 
L 187.595943 79.721588 
L 187.595943 67.634946 
L 160.740328 67.634946 
z
" clip-path="url(#pe4e79bfd74)" style="fill: #dcdddd"/>
   </g>
   <g id="patch_11">
    <path d="M 71.221612 52.087723 
L 98.077227 52.087723 
L 98.077227 49.44 
L 71.221612 49.44 
z
" clip-path="url(#pe4e79bfd74)" style="fill: #8caffe"/>
   </g>
   <g id="patch_12">
    <path d="M 101.061184 78.057833 
L 127.916799 78.057833 
L 127.916799 49.44 
L 101.061184 49.44 
z
" clip-path="url(#pe4e79bfd74)" style="fill: #8caffe"/>
   </g>
   <g id="patch_13">
    <path d="M 130.900756 125.823336 
L 157.756371 125.823336 
L 157.756371 49.44 
L 130.900756 49.44 
z
" clip-path="url(#pe4e79bfd74)" style="fill: #8caffe"/>
   </g>
   <g id="patch_14">
    <path d="M 160.740328 67.634946 
L 187.595943 67.634946 
L 187.595943 49.44 
L 160.740328 49.44 
z
" clip-path="url(#pe4e79bfd74)" style="fill: #8caffe"/>
   </g>
   <g id="patch_15">
    <path d="M 63.761719 145.44 
L 63.761719 44.64 
" style="fill: none; stroke: #373737; stroke-width: 1.25; stroke-linejoin: miter; stroke-linecap: square"/>
   </g>
   <g id="patch_16">
    <path d="M 195.055836 145.44 
L 195.055836 44.64 
" style="fill: none; stroke: #373737; stroke-width: 1.25; stroke-linejoin: miter; stroke-linecap: square"/>
   </g>
   <g id="patch_17">
    <path d="M 63.761719 145.44 
L 195.055836 145.44 
" style="fill: none; stroke: #373737; stroke-width: 1.25; stroke-linejoin: miter; stroke-linecap: square"/>
   </g>
   <g id="patch_18">
    <path d="M 63.761719 44.64 
L 195.055836 44.64 
" style="fill: none; stroke: #373737; stroke-width: 1.25; stroke-linejoin: miter; stroke-linecap: square"/>
   </g>
   <g id="text_5">
    <text style="fill: #373737; font: 12px 'Arial', 'DejaVu Sans', 'Liberation Sans', 'Bitstream Vera Sans', sans-serif; text-anchor: middle" x="129.408778" y="38.64" transform="rotate(-0 129.408778 38.64)">DOC=20</text>
   </g>
  </g>
  <g id="axes_2">
   <g id="patch_19">
    <path d="M 221.31466 145.44 
L 352.608778 145.44 
L 352.608778 44.64 
L 221.31466 44.64 
L 221.31466 145.44 
z
" style="fill: none"/>
   </g>
   <g id="matplotlib.axis_3">
    <g id="xtick_5"/>
    <g id="xtick_6"/>
    <g id="xtick_7"/>
    <g id="xtick_8"/>
   </g>
   <g id="matplotlib.axis_4">
    <g id="ytick_4"/>
    <g id="ytick_5"/>
    <g id="ytick_6"/>
   </g>
   <g id="patch_20">
    <path d="M 228.774553 145.44 
L 255.630168 145.44 
L 255.630168 53.657997 
L 228.774553 53.657997 
z
" clip-path="url(#pf2327c2670)" style="fill: #f49a7b"/>
   </g>
   <g id="patch_21">
    <path d="M 258.614125 145.44 
L 285.46974 145.44 
L 285.46974 82.022294 
L 258.614125 82.022294 
z
" clip-path="url(#pf2327c2670)" style="fill: #f49a7b"/>
   </g>
   <g id="patch_22">
    <path d="M 288.453697 145.44 
L 315.309312 145.44 
L 315.309312 127.707711 
L 288.453697 127.707711 
z
" clip-path="url(#pf2327c2670)" style="fill: #f49a7b"/>
   </g>
   <g id="patch_23">
    <path d="M 318.29327 145.44 
L 345.148885 145.44 
L 345.148885 64.355254 
L 318.29327 64.355254 
z
" clip-path="url(#pf2327c2670)" style="fill: #f49a7b"/>
   </g>
   <g id="patch_24">
    <path d="M 228.774553 53.657997 
L 255.630168 53.657997 
L 255.630168 50.778403 
L 228.774553 50.778403 
z
" clip-path="url(#pf2327c2670)" style="fill: #dcdddd"/>
   </g>
   <g id="patch_25">
    <path d="M 258.614125 82.022294 
L 285.46974 82.022294 
L 285.46974 67.772447 
L 258.614125 67.772447 
z
" clip-path="url(#pf2327c2670)" style="fill: #dcdddd"/>
   </g>
   <g id="patch_26">
    <path d="M 288.453697 127.707711 
L 315.309312 127.707711 
L 315.309312 119.00277 
L 288.453697 119.00277 
z
" clip-path="url(#pf2327c2670)" style="fill: #dcdddd"/>
   </g>
   <g id="patch_27">
    <path d="M 318.29327 64.355254 
L 345.148885 64.355254 
L 345.148885 62.502147 
L 318.29327 62.502147 
z
" clip-path="url(#pf2327c2670)" style="fill: #dcdddd"/>
   </g>
   <g id="patch_28">
    <path d="M 228.774553 50.778403 
L 255.630168 50.778403 
L 255.630168 49.44 
L 228.774553 49.44 
z
" clip-path="url(#pf2327c2670)" style="fill: #8caffe"/>
   </g>
   <g id="patch_29">
    <path d="M 258.614125 67.772447 
L 285.46974 67.772447 
L 285.46974 49.44 
L 258.614125 49.44 
z
" clip-path="url(#pf2327c2670)" style="fill: #8caffe"/>
   </g>
   <g id="patch_30">
    <path d="M 288.453697 119.00277 
L 315.309312 119.00277 
L 315.309312 49.44 
L 288.453697 49.44 
z
" clip-path="url(#pf2327c2670)" style="fill: #8caffe"/>
   </g>
   <g id="patch_31">
    <path d="M 318.29327 62.502147 
L 345.148885 62.502147 
L 345.148885 49.44 
L 318.29327 49.44 
z
" clip-path="url(#pf2327c2670)" style="fill: #8caffe"/>
   </g>
   <g id="patch_32">
    <path d="M 221.31466 145.44 
L 221.31466 44.64 
" style="fill: none; stroke: #373737; stroke-width: 1.25; stroke-linejoin: miter; stroke-linecap: square"/>
   </g>
   <g id="patch_33">
    <path d="M 352.608778 145.44 
L 352.608778 44.64 
" style="fill: none; stroke: #373737; stroke-width: 1.25; stroke-linejoin: miter; stroke-linecap: square"/>
   </g>
   <g id="patch_34">
    <path d="M 221.31466 145.44 
L 352.608778 145.44 
" style="fill: none; stroke: #373737; stroke-width: 1.25; stroke-linejoin: miter; stroke-linecap: square"/>
   </g>
   <g id="patch_35">
    <path d="M 221.31466 44.64 
L 352.608778 44.64 
" style="fill: none; stroke: #373737; stroke-width: 1.25; stroke-linejoin: miter; stroke-linecap: square"/>
   </g>
   <g id="text_6">
    <text style="fill: #373737; font: 12px 'Arial', 'DejaVu Sans', 'Liberation Sans', 'Bitstream Vera Sans', sans-serif; text-anchor: middle" x="286.961719" y="38.64" transform="rotate(-0 286.961719 38.64)">DOC=160</text>
   </g>
  </g>
  <g id="axes_3">
   <g id="patch_36">
    <path d="M 378.867601 145.44 
L 510.161719 145.44 
L 510.161719 44.64 
L 378.867601 44.64 
L 378.867601 145.44 
z
" style="fill: none"/>
   </g>
   <g id="matplotlib.axis_5">
    <g id="xtick_9"/>
    <g id="xtick_10"/>
    <g id="xtick_11"/>
    <g id="xtick_12"/>
   </g>
   <g id="matplotlib.axis_6">
    <g id="ytick_7"/>
    <g id="ytick_8"/>
    <g id="ytick_9"/>
   </g>
   <g id="patch_37">
    <path d="M 386.327494 145.44 
L 413.183109 145.44 
L 413.183109 49.831238 
L 386.327494 49.831238 
z
" clip-path="url(#pe43950927a)" style="fill: #f49a7b"/>
   </g>
   <g id="patch_38">
    <path d="M 416.167066 145.44 
L 443.022681 145.44 
L 443.022681 57.813541 
L 416.167066 57.813541 
z
" clip-path="url(#pe43950927a)" style="fill: #f49a7b"/>
   </g>
   <g id="patch_39">
    <path d="M 446.006639 145.44 
L 472.862254 145.44 
L 472.862254 50.940545 
L 446.006639 50.940545 
z
" clip-path="url(#pe43950927a)" style="fill: #f49a7b"/>
   </g>
   <g id="patch_40">
    <path d="M 475.846211 145.44 
L 502.701826 145.44 
L 502.701826 50.217778 
L 475.846211 50.217778 
z
" clip-path="url(#pe43950927a)" style="fill: #f49a7b"/>
   </g>
   <g id="patch_41">
    <path d="M 386.327494 49.831238 
L 413.183109 49.831238 
L 413.183109 49.44 
L 386.327494 49.44 
z
" clip-path="url(#pe43950927a)" style="fill: #dcdddd"/>
   </g>
   <g id="patch_42">
    <path d="M 416.167066 57.813541 
L 443.022681 57.813541 
L 443.022681 55.945837 
L 416.167066 55.945837 
z
" clip-path="url(#pe43950927a)" style="fill: #dcdddd"/>
   </g>
   <g id="patch_43">
    <path d="M 446.006639 50.940545 
L 472.862254 50.940545 
L 472.862254 50.417099 
L 446.006639 50.417099 
z
" clip-path="url(#pe43950927a)" style="fill: #dcdddd"/>
   </g>
   <g id="patch_44">
    <path d="M 475.846211 50.217778 
L 502.701826 50.217778 
L 502.701826 49.884444 
L 475.846211 49.884444 
z
" clip-path="url(#pe43950927a)" style="fill: #dcdddd"/>
   </g>
   <g id="patch_45">
    <path d="M 386.327494 145.44 
L 413.183109 145.44 
L 413.183109 145.44 
L 386.327494 145.44 
z
" clip-path="url(#pe43950927a)" style="fill: #8caffe"/>
   </g>
   <g id="patch_46">
    <path d="M 416.167066 55.945837 
L 443.022681 55.945837 
L 443.022681 49.44 
L 416.167066 49.44 
z
" clip-path="url(#pe43950927a)" style="fill: #8caffe"/>
   </g>
   <g id="patch_47">
    <path d="M 446.006639 50.417099 
L 472.862254 50.417099 
L 472.862254 49.44 
L 446.006639 49.44 
z
" clip-path="url(#pe43950927a)" style="fill: #8caffe"/>
   </g>
   <g id="patch_48">
    <path d="M 475.846211 49.884444 
L 502.701826 49.884444 
L 502.701826 49.44 
L 475.846211 49.44 
z
" clip-path="url(#pe43950927a)" style="fill: #8caffe"/>
   </g>
   <g id="patch_49">
    <path d="M 378.867601 145.44 
L 378.867601 44.64 
" style="fill: none; stroke: #373737; stroke-width: 1.25; stroke-linejoin: miter; stroke-linecap: square"/>
   </g>
   <g id="patch_50">
    <path d="M 510.161719 145.44 
L 510.161719 44.64 
" style="fill: none; stroke: #373737; stroke-width: 1.25; stroke-linejoin: miter; stroke-linecap: square"/>
   </g>
   <g id="patch_51">
    <path d="M 378.867601 145.44 
L 510.161719 145.44 
" style="fill: none; stroke: #373737; stroke-width: 1.25; stroke-linejoin: miter; stroke-linecap: square"/>
   </g>
   <g id="patch_52">
    <path d="M 378.867601 44.64 
L 510.161719 44.64 
" style="fill: none; stroke: #373737; stroke-width: 1.25; stroke-linejoin: miter; stroke-linecap: square"/>
   </g>
   <g id="text_7">
    <text style="fill: #373737; font: 12px 'Arial', 'DejaVu Sans', 'Liberation Sans', 'Bitstream Vera Sans', sans-serif; text-anchor: middle" x="444.51466" y="38.64" transform="rotate(-0 444.51466 38.64)">DOC=2750</text>
   </g>
  </g>
  <g id="axes_4">
   <g id="patch_53">
    <path d="M 63.761719 266.4 
L 195.055836 266.4 
L 195.055836 165.6 
L 63.761719 165.6 
L 63.761719 266.4 
z
" style="fill: none"/>
   </g>
   <g id="matplotlib.axis_7">
    <g id="xtick_13">
     <g id="text_8">
      <text style="fill: #373737; font: 11px 'Arial', 'DejaVu Sans', 'Liberation Sans', 'Bitstream Vera Sans', sans-serif" transform="translate(87.684732 342.054687) rotate(-90)">MIXOTROPH</text>
     </g>
    </g>
    <g id="xtick_14">
     <g id="text_9">
      <text style="fill: #373737; font: 11px 'Arial', 'DejaVu Sans', 'Liberation Sans', 'Bitstream Vera Sans', sans-serif" transform="translate(117.524304 338.0775) rotate(-90)">OVERFLOW</text>
     </g>
    </g>
    <g id="xtick_15">
     <g id="text_10">
      <text style="fill: #373737; font: 11px 'Arial', 'DejaVu Sans', 'Liberation Sans', 'Bitstream Vera Sans', sans-serif" transform="translate(147.363876 344.218594) rotate(-90)">EXOENZYME</text>
     </g>
    </g>
    <g id="xtick_16">
     <g id="text_11">
      <text style="fill: #373737; font: 11px 'Arial', 'DejaVu Sans', 'Liberation Sans', 'Bitstream Vera Sans', sans-serif" transform="translate(177.203448 299.185625) rotate(-90)">ROS</text>
     </g>
    </g>
   </g>
   <g id="matplotlib.axis_8">
    <g id="ytick_10">
     <g id="text_12">
      <text style="fill: #373737; font: 11px 'Arial', 'DejaVu Sans', 'Liberation Sans', 'Bitstream Vera Sans', sans-serif; text-anchor: end" x="54.261719" y="270.579141" transform="rotate(-0 54.261719 270.579141)">0%</text>
     </g>
    </g>
    <g id="ytick_11">
     <g id="text_13">
      <text style="fill: #373737; font: 11px 'Arial', 'DejaVu Sans', 'Liberation Sans', 'Bitstream Vera Sans', sans-serif; text-anchor: end" x="54.261719" y="222.579141" transform="rotate(-0 54.261719 222.579141)">50%</text>
     </g>
    </g>
    <g id="ytick_12">
     <g id="text_14">
      <text style="fill: #373737; font: 11px 'Arial', 'DejaVu Sans', 'Liberation Sans', 'Bitstream Vera Sans', sans-serif; text-anchor: end" x="54.261719" y="174.579141" transform="rotate(-0 54.261719 174.579141)">100%</text>
     </g>
    </g>
    <g id="text_15">
     <text style="fill: #373737; font: 12px 'Arial', 'DejaVu Sans', 'Liberation Sans', 'Bitstream Vera Sans', sans-serif; text-anchor: middle" x="16.318125" y="216" transform="rotate(-90 16.318125 216)">DIN=800</text>
    </g>
   </g>
   <g id="patch_54">
    <path d="M 71.221612 266.4 
L 98.077227 266.4 
L 98.077227 200.73534 
L 71.221612 200.73534 
z
" clip-path="url(#p1f9b80af5e)" style="fill: #f49a7b"/>
   </g>
   <g id="patch_55">
    <path d="M 101.061184 266.4 
L 127.916799 266.4 
L 127.916799 223.814424 
L 101.061184 223.814424 
z
" clip-path="url(#p1f9b80af5e)" style="fill: #f49a7b"/>
   </g>
   <g id="patch_56">
    <path d="M 130.900756 266.4 
L 157.756371 266.4 
L 157.756371 263.594409 
L 130.900756 263.594409 
z
" clip-path="url(#p1f9b80af5e)" style="fill: #f49a7b"/>
   </g>
   <g id="patch_57">
    <path d="M 160.740328 266.4 
L 187.595943 266.4 
L 187.595943 211.391736 
L 160.740328 211.391736 
z
" clip-path="url(#p1f9b80af5e)" style="fill: #f49a7b"/>
   </g>
   <g id="patch_58">
    <path d="M 71.221612 200.73534 
L 98.077227 200.73534 
L 98.077227 170.4 
L 71.221612 170.4 
z
" clip-path="url(#p1f9b80af5e)" style="fill: #dcdddd"/>
   </g>
   <g id="patch_59">
    <path d="M 101.061184 223.814424 
L 127.916799 223.814424 
L 127.916799 185.92332 
L 101.061184 185.92332 
z
" clip-path="url(#p1f9b80af5e)" style="fill: #dcdddd"/>
   </g>
   <g id="patch_60">
    <path d="M 130.900756 263.594409 
L 157.756371 263.594409 
L 157.756371 247.584244 
L 130.900756 247.584244 
z
" clip-path="url(#p1f9b80af5e)" style="fill: #dcdddd"/>
   </g>
   <g id="patch_61">
    <path d="M 160.740328 211.391736 
L 187.595943 211.391736 
L 187.595943 188.86832 
L 160.740328 188.86832 
z
" clip-path="url(#p1f9b80af5e)" style="fill: #dcdddd"/>
   </g>
   <g id="patch_62">
    <path d="M 71.221612 266.4 
L 98.077227 266.4 
L 98.077227 266.4 
L 71.221612 266.4 
z
" clip-path="url(#p1f9b80af5e)" style="fill: #8caffe"/>
   </g>
   <g id="patch_63">
    <path d="M 101.061184 185.92332 
L 127.916799 185.92332 
L 127.916799 170.4 
L 101.061184 170.4 
z
" clip-path="url(#p1f9b80af5e)" style="fill: #8caffe"/>
   </g>
   <g id="patch_64">
    <path d="M 130.900756 247.584244 
L 157.756371 247.584244 
L 157.756371 170.4 
L 130.900756 170.4 
z
" clip-path="url(#p1f9b80af5e)" style="fill: #8caffe"/>
   </g>
   <g id="patch_65">
    <path d="M 160.740328 188.86832 
L 187.595943 188.86832 
L 187.595943 170.4 
L 160.740328 170.4 
z
" clip-path="url(#p1f9b80af5e)" style="fill: #8caffe"/>
   </g>
   <g id="patch_66">
    <path d="M 63.761719 266.4 
L 63.761719 165.6 
" style="fill: none; stroke: #373737; stroke-width: 1.25; stroke-linejoin: miter; stroke-linecap: square"/>
   </g>
   <g id="patch_67">
    <path d="M 195.055836 266.4 
L 195.055836 165.6 
" style="fill: none; stroke: #373737; stroke-width: 1.25; stroke-linejoin: miter; stroke-linecap: square"/>
   </g>
   <g id="patch_68">
    <path d="M 63.761719 266.4 
L 195.055836 266.4 
" style="fill: none; stroke: #373737; stroke-width: 1.25; stroke-linejoin: miter; stroke-linecap: square"/>
   </g>
   <g id="patch_69">
    <path d="M 63.761719 165.6 
L 195.055836 165.6 
" style="fill: none; stroke: #373737; stroke-width: 1.25; stroke-linejoin: miter; stroke-linecap: square"/>
   </g>
  </g>
  <g id="axes_5">
   <g id="patch_70">
    <path d="M 221.31466 266.4 
L 352.608778 266.4 
L 352.608778 165.6 
L 221.31466 165.6 
L 221.31466 266.4 
z
" style="fill: none"/>
   </g>
   <g id="matplotlib.axis_9">
    <g id="xtick_17">
     <g id="text_16">
      <text style="fill: #373737; font: 11px 'Arial', 'DejaVu Sans', 'Liberation Sans', 'Bitstream Vera Sans', sans-serif" transform="translate(245.237673 342.054687) rotate(-90)">MIXOTROPH</text>
     </g>
    </g>
    <g id="xtick_18">
     <g id="text_17">
      <text style="fill: #373737; font: 11px 'Arial', 'DejaVu Sans', 'Liberation Sans', 'Bitstream Vera Sans', sans-serif" transform="translate(275.077245 338.0775) rotate(-90)">OVERFLOW</text>
     </g>
    </g>
    <g id="xtick_19">
     <g id="text_18">
      <text style="fill: #373737; font: 11px 'Arial', 'DejaVu Sans', 'Liberation Sans', 'Bitstream Vera Sans', sans-serif" transform="translate(304.916817 344.218594) rotate(-90)">EXOENZYME</text>
     </g>
    </g>
    <g id="xtick_20">
     <g id="text_19">
      <text style="fill: #373737; font: 11px 'Arial', 'DejaVu Sans', 'Liberation Sans', 'Bitstream Vera Sans', sans-serif" transform="translate(334.75639 299.185625) rotate(-90)">ROS</text>
     </g>
    </g>
   </g>
   <g id="matplotlib.axis_10">
    <g id="ytick_13"/>
    <g id="ytick_14"/>
    <g id="ytick_15"/>
   </g>
   <g id="patch_71">
    <path d="M 228.774553 266.4 
L 255.630168 266.4 
L 255.630168 194.02565 
L 228.774553 194.02565 
z
" clip-path="url(#p0e21cec1d6)" style="fill: #f49a7b"/>
   </g>
   <g id="patch_72">
    <path d="M 258.614125 266.4 
L 285.46974 266.4 
L 285.46974 218.577559 
L 258.614125 218.577559 
z
" clip-path="url(#p0e21cec1d6)" style="fill: #f49a7b"/>
   </g>
   <g id="patch_73">
    <path d="M 288.453697 266.4 
L 315.309312 266.4 
L 315.309312 262.236774 
L 288.453697 262.236774 
z
" clip-path="url(#p0e21cec1d6)" style="fill: #f49a7b"/>
   </g>
   <g id="patch_74">
    <path d="M 318.29327 266.4 
L 345.148885 266.4 
L 345.148885 203.483753 
L 318.29327 203.483753 
z
" clip-path="url(#p0e21cec1d6)" style="fill: #f49a7b"/>
   </g>
   <g id="patch_75">
    <path d="M 228.774553 194.02565 
L 255.630168 194.02565 
L 255.630168 170.4 
L 228.774553 170.4 
z
" clip-path="url(#p0e21cec1d6)" style="fill: #dcdddd"/>
   </g>
   <g id="patch_76">
    <path d="M 258.614125 218.577559 
L 285.46974 218.577559 
L 285.46974 185.176819 
L 258.614125 185.176819 
z
" clip-path="url(#p0e21cec1d6)" style="fill: #dcdddd"/>
   </g>
   <g id="patch_77">
    <path d="M 288.453697 262.236774 
L 315.309312 262.236774 
L 315.309312 245.660682 
L 288.453697 245.660682 
z
" clip-path="url(#p0e21cec1d6)" style="fill: #dcdddd"/>
   </g>
   <g id="patch_78">
    <path d="M 318.29327 203.483753 
L 345.148885 203.483753 
L 345.148885 188.940961 
L 318.29327 188.940961 
z
" clip-path="url(#p0e21cec1d6)" style="fill: #dcdddd"/>
   </g>
   <g id="patch_79">
    <path d="M 228.774553 266.4 
L 255.630168 266.4 
L 255.630168 266.4 
L 228.774553 266.4 
z
" clip-path="url(#p0e21cec1d6)" style="fill: #8caffe"/>
   </g>
   <g id="patch_80">
    <path d="M 258.614125 185.176819 
L 285.46974 185.176819 
L 285.46974 170.4 
L 258.614125 170.4 
z
" clip-path="url(#p0e21cec1d6)" style="fill: #8caffe"/>
   </g>
   <g id="patch_81">
    <path d="M 288.453697 245.660682 
L 315.309312 245.660682 
L 315.309312 170.4 
L 288.453697 170.4 
z
" clip-path="url(#p0e21cec1d6)" style="fill: #8caffe"/>
   </g>
   <g id="patch_82">
    <path d="M 318.29327 188.940961 
L 345.148885 188.940961 
L 345.148885 170.4 
L 318.29327 170.4 
z
" clip-path="url(#p0e21cec1d6)" style="fill: #8caffe"/>
   </g>
   <g id="patch_83">
    <path d="M 221.31466 266.4 
L 221.31466 165.6 
" style="fill: none; stroke: #373737; stroke-width: 1.25; stroke-linejoin: miter; stroke-linecap: square"/>
   </g>
   <g id="patch_84">
    <path d="M 352.608778 266.4 
L 352.608778 165.6 
" style="fill: none; stroke: #373737; stroke-width: 1.25; stroke-linejoin: miter; stroke-linecap: square"/>
   </g>
   <g id="patch_85">
    <path d="M 221.31466 266.4 
L 352.608778 266.4 
" style="fill: none; stroke: #373737; stroke-width: 1.25; stroke-linejoin: miter; stroke-linecap: square"/>
   </g>
   <g id="patch_86">
    <path d="M 221.31466 165.6 
L 352.608778 165.6 
" style="fill: none; stroke: #373737; stroke-width: 1.25; stroke-linejoin: miter; stroke-linecap: square"/>
   </g>
  </g>
  <g id="axes_6">
   <g id="patch_87">
    <path d="M 378.867601 266.4 
L 510.161719 266.4 
L 510.161719 165.6 
L 378.867601 165.6 
L 378.867601 266.4 
z
" style="fill: none"/>
   </g>
   <g id="matplotlib.axis_11">
    <g id="xtick_21">
     <g id="text_20">
      <text style="fill: #373737; font: 11px 'Arial', 'DejaVu Sans', 'Liberation Sans', 'Bitstream Vera Sans', sans-serif" transform="translate(402.790614 342.054687) rotate(-90)">MIXOTROPH</text>
     </g>
    </g>
    <g id="xtick_22">
     <g id="text_21">
      <text style="fill: #373737; font: 11px 'Arial', 'DejaVu Sans', 'Liberation Sans', 'Bitstream Vera Sans', sans-serif" transform="translate(432.630186 338.0775) rotate(-90)">OVERFLOW</text>
     </g>
    </g>
    <g id="xtick_23">
     <g id="text_22">
      <text style="fill: #373737; font: 11px 'Arial', 'DejaVu Sans', 'Liberation Sans', 'Bitstream Vera Sans', sans-serif" transform="translate(462.469759 344.218594) rotate(-90)">EXOENZYME</text>
     </g>
    </g>
    <g id="xtick_24">
     <g id="text_23">
      <text style="fill: #373737; font: 11px 'Arial', 'DejaVu Sans', 'Liberation Sans', 'Bitstream Vera Sans', sans-serif" transform="translate(492.309331 299.185625) rotate(-90)">ROS</text>
     </g>
    </g>
   </g>
   <g id="matplotlib.axis_12">
    <g id="ytick_16"/>
    <g id="ytick_17"/>
    <g id="ytick_18"/>
   </g>
   <g id="patch_88">
    <path d="M 386.327494 266.4 
L 413.183109 266.4 
L 413.183109 172.978125 
L 386.327494 172.978125 
z
" clip-path="url(#p6befbe6f45)" style="fill: #f49a7b"/>
   </g>
   <g id="patch_89">
    <path d="M 416.167066 266.4 
L 443.022681 266.4 
L 443.022681 185.113681 
L 416.167066 185.113681 
z
" clip-path="url(#p6befbe6f45)" style="fill: #f49a7b"/>
   </g>
   <g id="patch_90">
    <path d="M 446.006639 266.4 
L 472.862254 266.4 
L 472.862254 224.419728 
L 446.006639 224.419728 
z
" clip-path="url(#p6befbe6f45)" style="fill: #f49a7b"/>
   </g>
   <g id="patch_91">
    <path d="M 475.846211 266.4 
L 502.701826 266.4 
L 502.701826 176.175255 
L 475.846211 176.175255 
z
" clip-path="url(#p6befbe6f45)" style="fill: #f49a7b"/>
   </g>
   <g id="patch_92">
    <path d="M 386.327494 172.978125 
L 413.183109 172.978125 
L 413.183109 170.4 
L 386.327494 170.4 
z
" clip-path="url(#p6befbe6f45)" style="fill: #dcdddd"/>
   </g>
   <g id="patch_93">
    <path d="M 416.167066 185.113681 
L 443.022681 185.113681 
L 443.022681 178.591819 
L 416.167066 178.591819 
z
" clip-path="url(#p6befbe6f45)" style="fill: #dcdddd"/>
   </g>
   <g id="patch_94">
    <path d="M 446.006639 224.419728 
L 472.862254 224.419728 
L 472.862254 211.252983 
L 446.006639 211.252983 
z
" clip-path="url(#p6befbe6f45)" style="fill: #dcdddd"/>
   </g>
   <g id="patch_95">
    <path d="M 475.846211 176.175255 
L 502.701826 176.175255 
L 502.701826 173.01521 
L 475.846211 173.01521 
z
" clip-path="url(#p6befbe6f45)" style="fill: #dcdddd"/>
   </g>
   <g id="patch_96">
    <path d="M 386.327494 266.4 
L 413.183109 266.4 
L 413.183109 266.4 
L 386.327494 266.4 
z
" clip-path="url(#p6befbe6f45)" style="fill: #8caffe"/>
   </g>
   <g id="patch_97">
    <path d="M 416.167066 178.591819 
L 443.022681 178.591819 
L 443.022681 170.4 
L 416.167066 170.4 
z
" clip-path="url(#p6befbe6f45)" style="fill: #8caffe"/>
   </g>
   <g id="patch_98">
    <path d="M 446.006639 211.252983 
L 472.862254 211.252983 
L 472.862254 170.4 
L 446.006639 170.4 
z
" clip-path="url(#p6befbe6f45)" style="fill: #8caffe"/>
   </g>
   <g id="patch_99">
    <path d="M 475.846211 173.01521 
L 502.701826 173.01521 
L 502.701826 170.4 
L 475.846211 170.4 
z
" clip-path="url(#p6befbe6f45)" style="fill: #8caffe"/>
   </g>
   <g id="patch_100">
    <path d="M 378.867601 266.4 
L 378.867601 165.6 
" style="fill: none; stroke: #373737; stroke-width: 1.25; stroke-linejoin: miter; stroke-linecap: square"/>
   </g>
   <g id="patch_101">
    <path d="M 510.161719 266.4 
L 510.161719 165.6 
" style="fill: none; stroke: #373737; stroke-width: 1.25; stroke-linejoin: miter; stroke-linecap: square"/>
   </g>
   <g id="patch_102">
    <path d="M 378.867601 266.4 
L 510.161719 266.4 
" style="fill: none; stroke: #373737; stroke-width: 1.25; stroke-linejoin: miter; stroke-linecap: square"/>
   </g>
   <g id="patch_103">
    <path d="M 378.867601 165.6 
L 510.161719 165.6 
" style="fill: none; stroke: #373737; stroke-width: 1.25; stroke-linejoin: miter; stroke-linecap: square"/>
   </g>
  </g>
  <g id="text_24">
   <text style="fill: #373737; font: 14.4px 'Arial', 'DejaVu Sans', 'Liberation Sans', 'Bitstream Vera Sans', sans-serif; text-anchor: middle" x="279.761719" y="18.14175" transform="rotate(-0 279.761719 18.14175)">Interaction Classes of the Simulations</text>
  </g>
 </g>
 <defs>
  <clipPath id="pe4e79bfd74">
   <rect x="63.761719" y="44.64" width="131.294118" height="100.8"/>
  </clipPath>
  <clipPath id="pf2327c2670">
   <rect x="221.31466" y="44.64" width="131.294118" height="100.8"/>
  </clipPath>
  <clipPath id="pe43950927a">
   <rect x="378.867601" y="44.64" width="131.294118" height="100.8"/>
  </clipPath>
  <clipPath id="p1f9b80af5e">
   <rect x="63.761719" y="165.6" width="131.294118" height="100.8"/>
  </clipPath>
  <clipPath id="p0e21cec1d6">
   <rect x="221.31466" y="165.6" width="131.294118" height="100.8"/>
  </clipPath>
  <clipPath id="p6befbe6f45">
   <rect x="378.867601" y="165.6" width="131.294118" height="100.8"/>
  </clipPath>
 </defs>
</svg>
