<?xml version="1.0" encoding="utf-8" standalone="no"?>
<!DOCTYPE svg PUBLIC "-//W3C//DTD SVG 1.1//EN"
  "http://www.w3.org/Graphics/SVG/1.1/DTD/svg11.dtd">
<svg xmlns:xlink="http://www.w3.org/1999/xlink" width="405.761719pt" height="202.638949pt" viewBox="0 0 405.761719 202.638949" xmlns="http://www.w3.org/2000/svg" version="1.1">
 <metadata>
  <rdf:RDF xmlns:dc="http://purl.org/dc/elements/1.1/" xmlns:cc="http://creativecommons.org/ns#" xmlns:rdf="http://www.w3.org/1999/02/22-rdf-syntax-ns#">
   <cc:Work>
    <dc:type rdf:resource="http://purl.org/dc/dcmitype/StillImage"/>
    <dc:date>2025-08-10T12:13:55.665910</dc:date>
    <dc:format>image/svg+xml</dc:format>
    <dc:creator>
     <cc:Agent>
      <dc:title>Matplotlib v3.7.1, https://matplotlib.org/</dc:title>
     </cc:Agent>
    </dc:creator>
   </cc:Work>
  </rdf:RDF>
 </metadata>
 <defs>
  <style type="text/css">*{stroke-linejoin: round; stroke-linecap: butt}</style>
 </defs>
 <g id="figure_1">
  <g id="patch_1">
   <path d="M 0 202.638949 
L 405.761719 202.638949 
L 405.761719 0 
L 0 0 
L 0 202.638949 
z
" style="fill: none"/>
  </g>
  <g id="axes_1">
   <g id="patch_2">
    <path d="M 63.761719 82.08 
L 162.232307 82.08 
L 162.232307 31.68 
L 63.761719 31.68 
L 63.761719 82.08 
z
" style="fill: none"/>
   </g>
   <g id="matplotlib.axis_1">
    <g id="xtick_1"/>
    <g id="xtick_2"/>
    <g id="xtick_3"/>
    <g id="xtick_4"/>
    <g id="xtick_5"/>
   </g>
   <g id="matplotlib.axis_2">
    <g id="ytick_1">
     <g id="text_1">
      <text style="fill: #373737; font: 11px 'Arial', 'DejaVu Sans', 'Liberation Sans', 'Bitstream Vera Sans', sans-serif; text-anchor: end" x="54.261719" y="86.259141" transform="rotate(-0 54.261719 86.259141)">0%</text>
     </g>
    </g>
    <g id="ytick_2">
     <g id="text_2">
      <text style="fill: #373737; font: 11px 'Arial', 'DejaVu Sans', 'Liberation Sans', 'Bitstream Vera Sans', sans-serif; text-anchor: end" x="54.261719" y="38.259141" transform="rotate(-0 54.261719 38.259141)">100%</text>
     </g>
    </g>
    <g id="text_3">
     <text style="fill: #373737; font: 12px 'Arial', 'DejaVu Sans', 'Liberation Sans', 'Bitstream Vera Sans', sans-serif; text-anchor: middle" x="16.318125" y="56.88" transform="rotate(-90 16.318125 56.88)">DIN=100</text>
    </g>
   </g>
   <g id="patch_3">
    <path d="M 69.356639 82.08 
L 89.49835 82.08 
L 89.49835 44.149369 
L 69.356639 44.149369 
z
" clip-path="url(#p240538db67)" style="fill: #f49a7b"/>
   </g>
   <g id="patch_4">
    <path d="M 91.736318 82.08 
L 111.878029 82.08 
L 111.878029 62.531336 
L 91.736318 62.531336 
z
" clip-path="url(#p240538db67)" style="fill: #f49a7b"/>
   </g>
   <g id="patch_5">
    <path d="M 114.115997 82.08 
L 134.257708 82.08 
L 134.257708 78.559645 
L 114.115997 78.559645 
z
" clip-path="url(#p240538db67)" style="fill: #f49a7b"/>
   </g>
   <g id="patch_6">
    <path d="M 136.495676 82.08 
L 156.637387 82.08 
L 156.637387 49.220794 
L 136.495676 49.220794 
z
" clip-path="url(#p240538db67)" style="fill: #f49a7b"/>
   </g>
   <g id="patch_7">
    <path d="M 69.356639 44.149369 
L 89.49835 44.149369 
L 89.49835 35.403861 
L 69.356639 35.403861 
z
" clip-path="url(#p240538db67)" style="fill: #dcdddd"/>
   </g>
   <g id="patch_8">
    <path d="M 91.736318 62.531336 
L 111.878029 62.531336 
L 111.878029 48.388917 
L 91.736318 48.388917 
z
" clip-path="url(#p240538db67)" style="fill: #dcdddd"/>
   </g>
   <g id="patch_9">
    <path d="M 114.115997 78.559645 
L 134.257708 78.559645 
L 134.257708 72.271668 
L 114.115997 72.271668 
z
" clip-path="url(#p240538db67)" style="fill: #dcdddd"/>
   </g>
   <g id="patch_10">
    <path d="M 136.495676 49.220794 
L 156.637387 49.220794 
L 156.637387 43.177473 
L 136.495676 43.177473 
z
" clip-path="url(#p240538db67)" style="fill: #dcdddd"/>
   </g>
   <g id="patch_11">
    <path d="M 69.356639 35.403861 
L 89.49835 35.403861 
L 89.49835 34.08 
L 69.356639 34.08 
z
" clip-path="url(#p240538db67)" style="fill: #8caffe"/>
   </g>
   <g id="patch_12">
    <path d="M 91.736318 48.388917 
L 111.878029 48.388917 
L 111.878029 34.08 
L 91.736318 34.08 
z
" clip-path="url(#p240538db67)" style="fill: #8caffe"/>
   </g>
   <g id="patch_13">
    <path d="M 114.115997 72.271668 
L 134.257708 72.271668 
L 134.257708 34.08 
L 114.115997 34.08 
z
" clip-path="url(#p240538db67)" style="fill: #8caffe"/>
   </g>
   <g id="patch_14">
    <path d="M 136.495676 43.177473 
L 156.637387 43.177473 
L 156.637387 34.08 
L 136.495676 34.08 
z
" clip-path="url(#p240538db67)" style="fill: #8caffe"/>
   </g>
   <g id="patch_15">
    <path d="M 63.761719 82.08 
L 63.761719 31.68 
" style="fill: none; stroke: #373737; stroke-width: 1.25; stroke-linejoin: miter; stroke-linecap: square"/>
   </g>
   <g id="patch_16">
    <path d="M 162.232307 82.08 
L 162.232307 31.68 
" style="fill: none; stroke: #373737; stroke-width: 1.25; stroke-linejoin: miter; stroke-linecap: square"/>
   </g>
   <g id="patch_17">
    <path d="M 63.761719 82.08 
L 162.232307 82.08 
" style="fill: none; stroke: #373737; stroke-width: 1.25; stroke-linejoin: miter; stroke-linecap: square"/>
   </g>
   <g id="patch_18">
    <path d="M 63.761719 31.68 
L 162.232307 31.68 
" style="fill: none; stroke: #373737; stroke-width: 1.25; stroke-linejoin: miter; stroke-linecap: square"/>
   </g>
   <g id="text_4">
    <text style="fill: #373737; font: 12px 'Arial', 'DejaVu Sans', 'Liberation Sans', 'Bitstream Vera Sans', sans-serif; text-anchor: middle" x="112.997013" y="25.68" transform="rotate(-0 112.997013 25.68)">DOC=20</text>
   </g>
  </g>
  <g id="axes_2">
   <g id="patch_19">
    <path d="M 181.926425 82.08 
L 280.397013 82.08 
L 280.397013 31.68 
L 181.926425 31.68 
L 181.926425 82.08 
z
" style="fill: none"/>
   </g>
   <g id="matplotlib.axis_3">
    <g id="xtick_6"/>
    <g id="xtick_7"/>
    <g id="xtick_8"/>
    <g id="xtick_9"/>
    <g id="xtick_10"/>
   </g>
   <g id="matplotlib.axis_4">
    <g id="ytick_3"/>
    <g id="ytick_4"/>
   </g>
   <g id="patch_20">
    <path d="M 187.521344 82.08 
L 207.663056 82.08 
L 207.663056 36.188999 
L 187.521344 36.188999 
z
" clip-path="url(#p56f25a0fbc)" style="fill: #f49a7b"/>
   </g>
   <g id="patch_21">
    <path d="M 209.901024 82.08 
L 230.042735 82.08 
L 230.042735 50.371147 
L 209.901024 50.371147 
z
" clip-path="url(#p56f25a0fbc)" style="fill: #f49a7b"/>
   </g>
   <g id="patch_22">
    <path d="M 232.280703 82.08 
L 252.422414 82.08 
L 252.422414 73.213856 
L 232.280703 73.213856 
z
" clip-path="url(#p56f25a0fbc)" style="fill: #f49a7b"/>
   </g>
   <g id="patch_23">
    <path d="M 254.660382 82.08 
L 274.802093 82.08 
L 274.802093 41.537627 
L 254.660382 41.537627 
z
" clip-path="url(#p56f25a0fbc)" style="fill: #f49a7b"/>
   </g>
   <g id="patch_24">
    <path d="M 187.521344 36.188999 
L 207.663056 36.188999 
L 207.663056 34.749202 
L 187.521344 34.749202 
z
" clip-path="url(#p56f25a0fbc)" style="fill: #dcdddd"/>
   </g>
   <g id="patch_25">
    <path d="M 209.901024 50.371147 
L 230.042735 50.371147 
L 230.042735 43.246224 
L 209.901024 43.246224 
z
" clip-path="url(#p56f25a0fbc)" style="fill: #dcdddd"/>
   </g>
   <g id="patch_26">
    <path d="M 232.280703 73.213856 
L 252.422414 73.213856 
L 252.422414 68.861385 
L 232.280703 68.861385 
z
" clip-path="url(#p56f25a0fbc)" style="fill: #dcdddd"/>
   </g>
   <g id="patch_27">
    <path d="M 254.660382 41.537627 
L 274.802093 41.537627 
L 274.802093 40.611073 
L 254.660382 40.611073 
z
" clip-path="url(#p56f25a0fbc)" style="fill: #dcdddd"/>
   </g>
   <g id="patch_28">
    <path d="M 187.521344 34.749202 
L 207.663056 34.749202 
L 207.663056 34.08 
L 187.521344 34.08 
z
" clip-path="url(#p56f25a0fbc)" style="fill: #8caffe"/>
   </g>
   <g id="patch_29">
    <path d="M 209.901024 43.246224 
L 230.042735 43.246224 
L 230.042735 34.08 
L 209.901024 34.08 
z
" clip-path="url(#p56f25a0fbc)" style="fill: #8caffe"/>
   </g>
   <g id="patch_30">
    <path d="M 232.280703 68.861385 
L 252.422414 68.861385 
L 252.422414 34.08 
L 232.280703 34.08 
z
" clip-path="url(#p56f25a0fbc)" style="fill: #8caffe"/>
   </g>
   <g id="patch_31">
    <path d="M 254.660382 40.611073 
L 274.802093 40.611073 
L 274.802093 34.08 
L 254.660382 34.08 
z
" clip-path="url(#p56f25a0fbc)" style="fill: #8caffe"/>
   </g>
   <g id="patch_32">
    <path d="M 181.926425 82.08 
L 181.926425 31.68 
" style="fill: none; stroke: #373737; stroke-width: 1.25; stroke-linejoin: miter; stroke-linecap: square"/>
   </g>
   <g id="patch_33">
    <path d="M 280.397013 82.08 
L 280.397013 31.68 
" style="fill: none; stroke: #373737; stroke-width: 1.25; stroke-linejoin: miter; stroke-linecap: square"/>
   </g>
   <g id="patch_34">
    <path d="M 181.926425 82.08 
L 280.397013 82.08 
" style="fill: none; stroke: #373737; stroke-width: 1.25; stroke-linejoin: miter; stroke-linecap: square"/>
   </g>
   <g id="patch_35">
    <path d="M 181.926425 31.68 
L 280.397013 31.68 
" style="fill: none; stroke: #373737; stroke-width: 1.25; stroke-linejoin: miter; stroke-linecap: square"/>
   </g>
   <g id="text_5">
    <text style="fill: #373737; font: 12px 'Arial', 'DejaVu Sans', 'Liberation Sans', 'Bitstream Vera Sans', sans-serif; text-anchor: middle" x="231.161719" y="25.68" transform="rotate(-0 231.161719 25.68)">DOC=160</text>
   </g>
  </g>
  <g id="axes_3">
   <g id="patch_36">
    <path d="M 300.091131 82.08 
L 398.561719 82.08 
L 398.561719 31.68 
L 300.091131 31.68 
L 300.091131 82.08 
z
" style="fill: none"/>
   </g>
   <g id="matplotlib.axis_5">
    <g id="xtick_11"/>
    <g id="xtick_12"/>
    <g id="xtick_13"/>
    <g id="xtick_14"/>
    <g id="xtick_15"/>
   </g>
   <g id="matplotlib.axis_6">
    <g id="ytick_5"/>
    <g id="ytick_6"/>
   </g>
   <g id="patch_37">
    <path d="M 305.68605 82.08 
L 325.827762 82.08 
L 325.827762 34.275619 
L 305.68605 34.275619 
z
" clip-path="url(#pd1b2ad8b15)" style="fill: #f49a7b"/>
   </g>
   <g id="patch_38">
    <path d="M 328.065729 82.08 
L 348.207441 82.08 
L 348.207441 38.26677 
L 328.065729 38.26677 
z
" clip-path="url(#pd1b2ad8b15)" style="fill: #f49a7b"/>
   </g>
   <g id="patch_39">
    <path d="M 350.445409 82.08 
L 370.58712 82.08 
L 370.58712 34.830273 
L 350.445409 34.830273 
z
" clip-path="url(#pd1b2ad8b15)" style="fill: #f49a7b"/>
   </g>
   <g id="patch_40">
    <path d="M 372.825088 82.08 
L 392.966799 82.08 
L 392.966799 34.468889 
L 372.825088 34.468889 
z
" clip-path="url(#pd1b2ad8b15)" style="fill: #f49a7b"/>
   </g>
   <g id="patch_41">
    <path d="M 305.68605 34.275619 
L 325.827762 34.275619 
L 325.827762 34.08 
L 305.68605 34.08 
z
" clip-path="url(#pd1b2ad8b15)" style="fill: #dcdddd"/>
   </g>
   <g id="patch_42">
    <path d="M 328.065729 38.26677 
L 348.207441 38.26677 
L 348.207441 37.332918 
L 328.065729 37.332918 
z
" clip-path="url(#pd1b2ad8b15)" style="fill: #dcdddd"/>
   </g>
   <g id="patch_43">
    <path d="M 350.445409 34.830273 
L 370.58712 34.830273 
L 370.58712 34.56855 
L 350.445409 34.56855 
z
" clip-path="url(#pd1b2ad8b15)" style="fill: #dcdddd"/>
   </g>
   <g id="patch_44">
    <path d="M 372.825088 34.468889 
L 392.966799 34.468889 
L 392.966799 34.302222 
L 372.825088 34.302222 
z
" clip-path="url(#pd1b2ad8b15)" style="fill: #dcdddd"/>
   </g>
   <g id="patch_45">
    <path d="M 305.68605 82.08 
L 325.827762 82.08 
L 325.827762 82.08 
L 305.68605 82.08 
z
" clip-path="url(#pd1b2ad8b15)" style="fill: #8caffe"/>
   </g>
   <g id="patch_46">
    <path d="M 328.065729 37.332918 
L 348.207441 37.332918 
L 348.207441 34.08 
L 328.065729 34.08 
z
" clip-path="url(#pd1b2ad8b15)" style="fill: #8caffe"/>
   </g>
   <g id="patch_47">
    <path d="M 350.445409 34.56855 
L 370.58712 34.56855 
L 370.58712 34.08 
L 350.445409 34.08 
z
" clip-path="url(#pd1b2ad8b15)" style="fill: #8caffe"/>
   </g>
   <g id="patch_48">
    <path d="M 372.825088 34.302222 
L 392.966799 34.302222 
L 392.966799 34.08 
L 372.825088 34.08 
z
" clip-path="url(#pd1b2ad8b15)" style="fill: #8caffe"/>
   </g>
   <g id="patch_49">
    <path d="M 300.091131 82.08 
L 300.091131 31.68 
" style="fill: none; stroke: #373737; stroke-width: 1.25; stroke-linejoin: miter; stroke-linecap: square"/>
   </g>
   <g id="patch_50">
    <path d="M 398.561719 82.08 
L 398.561719 31.68 
" style="fill: none; stroke: #373737; stroke-width: 1.25; stroke-linejoin: miter; stroke-linecap: square"/>
   </g>
   <g id="patch_51">
    <path d="M 300.091131 82.08 
L 398.561719 82.08 
" style="fill: none; stroke: #373737; stroke-width: 1.25; stroke-linejoin: miter; stroke-linecap: square"/>
   </g>
   <g id="patch_52">
    <path d="M 300.091131 31.68 
L 398.561719 31.68 
" style="fill: none; stroke: #373737; stroke-width: 1.25; stroke-linejoin: miter; stroke-linecap: square"/>
   </g>
   <g id="text_6">
    <text style="fill: #373737; font: 12px 'Arial', 'DejaVu Sans', 'Liberation Sans', 'Bitstream Vera Sans', sans-serif; text-anchor: middle" x="349.326425" y="25.68" transform="rotate(-0 349.326425 25.68)">DOC=2750</text>
   </g>
  </g>
  <g id="axes_4">
   <g id="patch_53">
    <path d="M 63.761719 142.56 
L 162.232307 142.56 
L 162.232307 92.16 
L 63.761719 92.16 
L 63.761719 142.56 
z
" style="fill: none"/>
   </g>
   <g id="matplotlib.axis_7">
    <g id="xtick_16">
     <g id="text_7">
      <text style="fill: #373737; font: 11px 'Arial', 'DejaVu Sans', 'Liberation Sans', 'Bitstream Vera Sans', sans-serif" transform="translate(52.29933 192.375828) rotate(-30)">MIXOTROPH</text>
     </g>
    </g>
    <g id="xtick_17">
     <g id="text_8">
      <text style="fill: #373737; font: 11px 'Arial', 'DejaVu Sans', 'Liberation Sans', 'Bitstream Vera Sans', sans-serif" transform="translate(76.401182 190.387234) rotate(-30)">OVERFLOW</text>
     </g>
    </g>
    <g id="xtick_18">
     <g id="text_9">
      <text style="fill: #373737; font: 11px 'Arial', 'DejaVu Sans', 'Liberation Sans', 'Bitstream Vera Sans', sans-serif" transform="translate(96.12169 193.457781) rotate(-30)">EXOENZYME</text>
     </g>
    </g>
    <g id="xtick_19">
     <g id="text_10">
      <text style="fill: #373737; font: 11px 'Arial', 'DejaVu Sans', 'Liberation Sans', 'Bitstream Vera Sans', sans-serif" transform="translate(138.001216 170.941296) rotate(-30)">ROS</text>
     </g>
    </g>
    <g id="xtick_20"/>
   </g>
   <g id="matplotlib.axis_8">
    <g id="ytick_7">
     <g id="text_11">
      <text style="fill: #373737; font: 11px 'Arial', 'DejaVu Sans', 'Liberation Sans', 'Bitstream Vera Sans', sans-serif; text-anchor: end" x="54.261719" y="146.739141" transform="rotate(-0 54.261719 146.739141)">0%</text>
     </g>
    </g>
    <g id="ytick_8">
     <g id="text_12">
      <text style="fill: #373737; font: 11px 'Arial', 'DejaVu Sans', 'Liberation Sans', 'Bitstream Vera Sans', sans-serif; text-anchor: end" x="54.261719" y="98.739141" transform="rotate(-0 54.261719 98.739141)">100%</text>
     </g>
    </g>
    <g id="text_13">
     <text style="fill: #373737; font: 12px 'Arial', 'DejaVu Sans', 'Liberation Sans', 'Bitstream Vera Sans', sans-serif; text-anchor: middle" x="16.318125" y="117.36" transform="rotate(-90 16.318125 117.36)">DIN=800</text>
    </g>
   </g>
   <g id="patch_54">
    <path d="M 69.356639 142.56 
L 89.49835 142.56 
L 89.49835 109.72767 
L 69.356639 109.72767 
z
" clip-path="url(#pee65a12e52)" style="fill: #f49a7b"/>
   </g>
   <g id="patch_55">
    <path d="M 91.736318 142.56 
L 111.878029 142.56 
L 111.878029 121.267212 
L 91.736318 121.267212 
z
" clip-path="url(#pee65a12e52)" style="fill: #f49a7b"/>
   </g>
   <g id="patch_56">
    <path d="M 114.115997 142.56 
L 134.257708 142.56 
L 134.257708 141.157205 
L 114.115997 141.157205 
z
" clip-path="url(#pee65a12e52)" style="fill: #f49a7b"/>
   </g>
   <g id="patch_57">
    <path d="M 136.495676 142.56 
L 156.637387 142.56 
L 156.637387 115.055868 
L 136.495676 115.055868 
z
" clip-path="url(#pee65a12e52)" style="fill: #f49a7b"/>
   </g>
   <g id="patch_58">
    <path d="M 69.356639 109.72767 
L 89.49835 109.72767 
L 89.49835 94.56 
L 69.356639 94.56 
z
" clip-path="url(#pee65a12e52)" style="fill: #dcdddd"/>
   </g>
   <g id="patch_59">
    <path d="M 91.736318 121.267212 
L 111.878029 121.267212 
L 111.878029 102.32166 
L 91.736318 102.32166 
z
" clip-path="url(#pee65a12e52)" style="fill: #dcdddd"/>
   </g>
   <g id="patch_60">
    <path d="M 114.115997 141.157205 
L 134.257708 141.157205 
L 134.257708 133.152122 
L 114.115997 133.152122 
z
" clip-path="url(#pee65a12e52)" style="fill: #dcdddd"/>
   </g>
   <g id="patch_61">
    <path d="M 136.495676 115.055868 
L 156.637387 115.055868 
L 156.637387 103.79416 
L 136.495676 103.79416 
z
" clip-path="url(#pee65a12e52)" style="fill: #dcdddd"/>
   </g>
   <g id="patch_62">
    <path d="M 69.356639 142.56 
L 89.49835 142.56 
L 89.49835 142.56 
L 69.356639 142.56 
z
" clip-path="url(#pee65a12e52)" style="fill: #8caffe"/>
   </g>
   <g id="patch_63">
    <path d="M 91.736318 102.32166 
L 111.878029 102.32166 
L 111.878029 94.56 
L 91.736318 94.56 
z
" clip-path="url(#pee65a12e52)" style="fill: #8caffe"/>
   </g>
   <g id="patch_64">
    <path d="M 114.115997 133.152122 
L 134.257708 133.152122 
L 134.257708 94.56 
L 114.115997 94.56 
z
" clip-path="url(#pee65a12e52)" style="fill: #8caffe"/>
   </g>
   <g id="patch_65">
    <path d="M 136.495676 103.79416 
L 156.637387 103.79416 
L 156.637387 94.56 
L 136.495676 94.56 
z
" clip-path="url(#pee65a12e52)" style="fill: #8caffe"/>
   </g>
   <g id="patch_66">
    <path d="M 63.761719 142.56 
L 63.761719 92.16 
" style="fill: none; stroke: #373737; stroke-width: 1.25; stroke-linejoin: miter; stroke-linecap: square"/>
   </g>
   <g id="patch_67">
    <path d="M 162.232307 142.56 
L 162.232307 92.16 
" style="fill: none; stroke: #373737; stroke-width: 1.25; stroke-linejoin: miter; stroke-linecap: square"/>
   </g>
   <g id="patch_68">
    <path d="M 63.761719 142.56 
L 162.232307 142.56 
" style="fill: none; stroke: #373737; stroke-width: 1.25; stroke-linejoin: miter; stroke-linecap: square"/>
   </g>
   <g id="patch_69">
    <path d="M 63.761719 92.16 
L 162.232307 92.16 
" style="fill: none; stroke: #373737; stroke-width: 1.25; stroke-linejoin: miter; stroke-linecap: square"/>
   </g>
  </g>
  <g id="axes_5">
   <g id="patch_70">
    <path d="M 181.926425 142.56 
L 280.397013 142.56 
L 280.397013 92.16 
L 181.926425 92.16 
L 181.926425 142.56 
z
" style="fill: none"/>
   </g>
   <g id="matplotlib.axis_9">
    <g id="xtick_21">
     <g id="text_14">
      <text style="fill: #373737; font: 11px 'Arial', 'DejaVu Sans', 'Liberation Sans', 'Bitstream Vera Sans', sans-serif" transform="translate(170.464036 192.375828) rotate(-30)">MIXOTROPH</text>
     </g>
    </g>
    <g id="xtick_22">
     <g id="text_15">
      <text style="fill: #373737; font: 11px 'Arial', 'DejaVu Sans', 'Liberation Sans', 'Bitstream Vera Sans', sans-serif" transform="translate(194.565888 190.387234) rotate(-30)">OVERFLOW</text>
     </g>
    </g>
    <g id="xtick_23">
     <g id="text_16">
      <text style="fill: #373737; font: 11px 'Arial', 'DejaVu Sans', 'Liberation Sans', 'Bitstream Vera Sans', sans-serif" transform="translate(214.286396 193.457781) rotate(-30)">EXOENZYME</text>
     </g>
    </g>
    <g id="xtick_24">
     <g id="text_17">
      <text style="fill: #373737; font: 11px 'Arial', 'DejaVu Sans', 'Liberation Sans', 'Bitstream Vera Sans', sans-serif" transform="translate(256.165922 170.941296) rotate(-30)">ROS</text>
     </g>
    </g>
    <g id="xtick_25"/>
   </g>
   <g id="matplotlib.axis_10">
    <g id="ytick_9"/>
    <g id="ytick_10"/>
   </g>
   <g id="patch_71">
    <path d="M 187.521344 142.56 
L 207.663056 142.56 
L 207.663056 106.372825 
L 187.521344 106.372825 
z
" clip-path="url(#pba5e92a78a)" style="fill: #f49a7b"/>
   </g>
   <g id="patch_72">
    <path d="M 209.901024 142.56 
L 230.042735 142.56 
L 230.042735 118.648779 
L 209.901024 118.648779 
z
" clip-path="url(#pba5e92a78a)" style="fill: #f49a7b"/>
   </g>
   <g id="patch_73">
    <path d="M 232.280703 142.56 
L 252.422414 142.56 
L 252.422414 140.478387 
L 232.280703 140.478387 
z
" clip-path="url(#pba5e92a78a)" style="fill: #f49a7b"/>
   </g>
   <g id="patch_74">
    <path d="M 254.660382 142.56 
L 274.802093 142.56 
L 274.802093 111.101876 
L 254.660382 111.101876 
z
" clip-path="url(#pba5e92a78a)" style="fill: #f49a7b"/>
   </g>
   <g id="patch_75">
    <path d="M 187.521344 106.372825 
L 207.663056 106.372825 
L 207.663056 94.56 
L 187.521344 94.56 
z
" clip-path="url(#pba5e92a78a)" style="fill: #dcdddd"/>
   </g>
   <g id="patch_76">
    <path d="M 209.901024 118.648779 
L 230.042735 118.648779 
L 230.042735 101.948409 
L 209.901024 101.948409 
z
" clip-path="url(#pba5e92a78a)" style="fill: #dcdddd"/>
   </g>
   <g id="patch_77">
    <path d="M 232.280703 140.478387 
L 252.422414 140.478387 
L 252.422414 132.190341 
L 232.280703 132.190341 
z
" clip-path="url(#pba5e92a78a)" style="fill: #dcdddd"/>
   </g>
   <g id="patch_78">
    <path d="M 254.660382 111.101876 
L 274.802093 111.101876 
L 274.802093 103.830481 
L 254.660382 103.830481 
z
" clip-path="url(#pba5e92a78a)" style="fill: #dcdddd"/>
   </g>
   <g id="patch_79">
    <path d="M 187.521344 142.56 
L 207.663056 142.56 
L 207.663056 142.56 
L 187.521344 142.56 
z
" clip-path="url(#pba5e92a78a)" style="fill: #8caffe"/>
   </g>
   <g id="patch_80">
    <path d="M 209.901024 101.948409 
L 230.042735 101.948409 
L 230.042735 94.56 
L 209.901024 94.56 
z
" clip-path="url(#pba5e92a78a)" style="fill: #8caffe"/>
   </g>
   <g id="patch_81">
    <path d="M 232.280703 132.190341 
L 252.422414 132.190341 
L 252.422414 94.56 
L 232.280703 94.56 
z
" clip-path="url(#pba5e92a78a)" style="fill: #8caffe"/>
   </g>
   <g id="patch_82">
    <path d="M 254.660382 103.830481 
L 274.802093 103.830481 
L 274.802093 94.56 
L 254.660382 94.56 
z
" clip-path="url(#pba5e92a78a)" style="fill: #8caffe"/>
   </g>
   <g id="patch_83">
    <path d="M 181.926425 142.56 
L 181.926425 92.16 
" style="fill: none; stroke: #373737; stroke-width: 1.25; stroke-linejoin: miter; stroke-linecap: square"/>
   </g>
   <g id="patch_84">
    <path d="M 280.397013 142.56 
L 280.397013 92.16 
" style="fill: none; stroke: #373737; stroke-width: 1.25; stroke-linejoin: miter; stroke-linecap: square"/>
   </g>
   <g id="patch_85">
    <path d="M 181.926425 142.56 
L 280.397013 142.56 
" style="fill: none; stroke: #373737; stroke-width: 1.25; stroke-linejoin: miter; stroke-linecap: square"/>
   </g>
   <g id="patch_86">
    <path d="M 181.926425 92.16 
L 280.397013 92.16 
" style="fill: none; stroke: #373737; stroke-width: 1.25; stroke-linejoin: miter; stroke-linecap: square"/>
   </g>
  </g>
  <g id="axes_6">
   <g id="patch_87">
    <path d="M 300.091131 142.56 
L 398.561719 142.56 
L 398.561719 92.16 
L 300.091131 92.16 
L 300.091131 142.56 
z
" style="fill: none"/>
   </g>
   <g id="matplotlib.axis_11">
    <g id="xtick_26">
     <g id="text_18">
      <text style="fill: #373737; font: 11px 'Arial', 'DejaVu Sans', 'Liberation Sans', 'Bitstream Vera Sans', sans-serif" transform="translate(288.628742 192.375828) rotate(-30)">MIXOTROPH</text>
     </g>
    </g>
    <g id="xtick_27">
     <g id="text_19">
      <text style="fill: #373737; font: 11px 'Arial', 'DejaVu Sans', 'Liberation Sans', 'Bitstream Vera Sans', sans-serif" transform="translate(312.730594 190.387234) rotate(-30)">OVERFLOW</text>
     </g>
    </g>
    <g id="xtick_28">
     <g id="text_20">
      <text style="fill: #373737; font: 11px 'Arial', 'DejaVu Sans', 'Liberation Sans', 'Bitstream Vera Sans', sans-serif" transform="translate(332.451102 193.457781) rotate(-30)">EXOENZYME</text>
     </g>
    </g>
    <g id="xtick_29">
     <g id="text_21">
      <text style="fill: #373737; font: 11px 'Arial', 'DejaVu Sans', 'Liberation Sans', 'Bitstream Vera Sans', sans-serif" transform="translate(374.330628 170.941296) rotate(-30)">ROS</text>
     </g>
    </g>
    <g id="xtick_30"/>
   </g>
   <g id="matplotlib.axis_12">
    <g id="ytick_11"/>
    <g id="ytick_12"/>
   </g>
   <g id="patch_88">
    <path d="M 305.68605 142.56 
L 325.827762 142.56 
L 325.827762 95.849063 
L 305.68605 95.849063 
z
" clip-path="url(#p0d75780bc1)" style="fill: #f49a7b"/>
   </g>
   <g id="patch_89">
    <path d="M 328.065729 142.56 
L 348.207441 142.56 
L 348.207441 101.916841 
L 328.065729 101.916841 
z
" clip-path="url(#p0d75780bc1)" style="fill: #f49a7b"/>
   </g>
   <g id="patch_90">
    <path d="M 350.445409 142.56 
L 370.58712 142.56 
L 370.58712 121.569864 
L 350.445409 121.569864 
z
" clip-path="url(#p0d75780bc1)" style="fill: #f49a7b"/>
   </g>
   <g id="patch_91">
    <path d="M 372.825088 142.56 
L 392.966799 142.56 
L 392.966799 97.447628 
L 372.825088 97.447628 
z
" clip-path="url(#p0d75780bc1)" style="fill: #f49a7b"/>
   </g>
   <g id="patch_92">
    <path d="M 305.68605 95.849063 
L 325.827762 95.849063 
L 325.827762 94.56 
L 305.68605 94.56 
z
" clip-path="url(#p0d75780bc1)" style="fill: #dcdddd"/>
   </g>
   <g id="patch_93">
    <path d="M 328.065729 101.916841 
L 348.207441 101.916841 
L 348.207441 98.65591 
L 328.065729 98.65591 
z
" clip-path="url(#p0d75780bc1)" style="fill: #dcdddd"/>
   </g>
   <g id="patch_94">
    <path d="M 350.445409 121.569864 
L 370.58712 121.569864 
L 370.58712 114.986491 
L 350.445409 114.986491 
z
" clip-path="url(#p0d75780bc1)" style="fill: #dcdddd"/>
   </g>
   <g id="patch_95">
    <path d="M 372.825088 97.447628 
L 392.966799 97.447628 
L 392.966799 95.867605 
L 372.825088 95.867605 
z
" clip-path="url(#p0d75780bc1)" style="fill: #dcdddd"/>
   </g>
   <g id="patch_96">
    <path d="M 305.68605 142.56 
L 325.827762 142.56 
L 325.827762 142.56 
L 305.68605 142.56 
z
" clip-path="url(#p0d75780bc1)" style="fill: #8caffe"/>
   </g>
   <g id="patch_97">
    <path d="M 328.065729 98.65591 
L 348.207441 98.65591 
L 348.207441 94.56 
L 328.065729 94.56 
z
" clip-path="url(#p0d75780bc1)" style="fill: #8caffe"/>
   </g>
   <g id="patch_98">
    <path d="M 350.445409 114.986491 
L 370.58712 114.986491 
L 370.58712 94.56 
L 350.445409 94.56 
z
" clip-path="url(#p0d75780bc1)" style="fill: #8caffe"/>
   </g>
   <g id="patch_99">
    <path d="M 372.825088 95.867605 
L 392.966799 95.867605 
L 392.966799 94.56 
L 372.825088 94.56 
z
" clip-path="url(#p0d75780bc1)" style="fill: #8caffe"/>
   </g>
   <g id="patch_100">
    <path d="M 300.091131 142.56 
L 300.091131 92.16 
" style="fill: none; stroke: #373737; stroke-width: 1.25; stroke-linejoin: miter; stroke-linecap: square"/>
   </g>
   <g id="patch_101">
    <path d="M 398.561719 142.56 
L 398.561719 92.16 
" style="fill: none; stroke: #373737; stroke-width: 1.25; stroke-linejoin: miter; stroke-linecap: square"/>
   </g>
   <g id="patch_102">
    <path d="M 300.091131 142.56 
L 398.561719 142.56 
" style="fill: none; stroke: #373737; stroke-width: 1.25; stroke-linejoin: miter; stroke-linecap: square"/>
   </g>
   <g id="patch_103">
    <path d="M 300.091131 92.16 
L 398.561719 92.16 
" style="fill: none; stroke: #373737; stroke-width: 1.25; stroke-linejoin: miter; stroke-linecap: square"/>
   </g>
  </g>
  <g id="text_22">
   <text style="fill: #373737; font: 14.4px 'Arial', 'DejaVu Sans', 'Liberation Sans', 'Bitstream Vera Sans', sans-serif; text-anchor: middle" x="225.761719" y="18.14175" transform="rotate(-0 225.761719 18.14175)">Interaction Classes of the Simulations</text>
  </g>
 </g>
 <defs>
  <clipPath id="p240538db67">
   <rect x="63.761719" y="31.68" width="98.470588" height="50.4"/>
  </clipPath>
  <clipPath id="p56f25a0fbc">
   <rect x="181.926425" y="31.68" width="98.470588" height="50.4"/>
  </clipPath>
  <clipPath id="pd1b2ad8b15">
   <rect x="300.091131" y="31.68" width="98.470588" height="50.4"/>
  </clipPath>
  <clipPath id="pee65a12e52">
   <rect x="63.761719" y="92.16" width="98.470588" height="50.4"/>
  </clipPath>
  <clipPath id="pba5e92a78a">
   <rect x="181.926425" y="92.16" width="98.470588" height="50.4"/>
  </clipPath>
  <clipPath id="p0d75780bc1">
   <rect x="300.091131" y="92.16" width="98.470588" height="50.4"/>
  </clipPath>
 </defs>
</svg>
