<?xml version="1.0" encoding="utf-8" standalone="no"?>
<!DOCTYPE svg PUBLIC "-//W3C//DTD SVG 1.1//EN"
  "http://www.w3.org/Graphics/SVG/1.1/DTD/svg11.dtd">
<svg xmlns:xlink="http://www.w3.org/1999/xlink" width="633.6pt" height="2304pt" viewBox="0 0 633.6 2304" xmlns="http://www.w3.org/2000/svg" version="1.1">
 <metadata>
  <rdf:RDF xmlns:dc="http://purl.org/dc/elements/1.1/" xmlns:cc="http://creativecommons.org/ns#" xmlns:rdf="http://www.w3.org/1999/02/22-rdf-syntax-ns#">
   <cc:Work>
    <dc:type rdf:resource="http://purl.org/dc/dcmitype/StillImage"/>
    <dc:date>2024-11-17T13:20:09.922288</dc:date>
    <dc:format>image/svg+xml</dc:format>
    <dc:creator>
     <cc:Agent>
      <dc:title>Matplotlib v3.8.0, https://matplotlib.org/</dc:title>
     </cc:Agent>
    </dc:creator>
   </cc:Work>
  </rdf:RDF>
 </metadata>
 <defs>
  <style type="text/css">*{stroke-linejoin: round; stroke-linecap: butt}</style>
 </defs>
 <g id="figure_1">
  <g id="patch_1">
   <path d="M 0 2304 
L 633.6 2304 
L 633.6 0 
L 0 0 
z
" style="fill: #ffffff"/>
  </g>
  <g id="axes_1">
   <g id="patch_2">
    <path d="M 177.3525 521.34 
L 544.9725 521.34 
L 544.9725 91.04 
L 177.3525 91.04 
z
" style="fill: #ffffff"/>
   </g>
   <g id="matplotlib.axis_1">
    <g id="xtick_1"/>
    <g id="xtick_2"/>
    <g id="xtick_3"/>
   </g>
   <g id="matplotlib.axis_2">
    <g id="ytick_1">
     <g id="text_1">
      <!-- $\mathdefault{10^{-1}}$ -->
      <g style="fill: #262626" transform="translate(74.2325 450.473257) scale(0.44 -0.44)">
       <defs>
        <path id="ArialMT-31" d="M 2384 0 
L 1822 0 
L 1822 3584 
Q 1619 3391 1289 3197 
Q 959 3003 697 2906 
L 697 3450 
Q 1169 3672 1522 3987 
Q 1875 4303 2022 4600 
L 2384 4600 
L 2384 0 
z
" transform="scale(0.015625)"/>
        <path id="ArialMT-30" d="M 266 2259 
Q 266 3072 433 3567 
Q 600 4063 929 4331 
Q 1259 4600 1759 4600 
Q 2128 4600 2406 4451 
Q 2684 4303 2865 4023 
Q 3047 3744 3150 3342 
Q 3253 2941 3253 2259 
Q 3253 1453 3087 958 
Q 2922 463 2592 192 
Q 2263 -78 1759 -78 
Q 1097 -78 719 397 
Q 266 969 266 2259 
z
M 844 2259 
Q 844 1131 1108 757 
Q 1372 384 1759 384 
Q 2147 384 2411 759 
Q 2675 1134 2675 2259 
Q 2675 3391 2411 3762 
Q 2147 4134 1753 4134 
Q 1366 4134 1134 3806 
Q 844 3388 844 2259 
z
" transform="scale(0.015625)"/>
        <path id="ArialMT-2212" d="M 3381 1997 
L 356 1997 
L 356 2522 
L 3381 2522 
L 3381 1997 
z
" transform="scale(0.015625)"/>
       </defs>
       <use xlink:href="#ArialMT-31" transform="translate(0 0.99375)"/>
       <use xlink:href="#ArialMT-30" transform="translate(55.615234 0.99375)"/>
       <use xlink:href="#ArialMT-2212" transform="translate(112.972813 70.6875) scale(0.7)"/>
       <use xlink:href="#ArialMT-31" transform="translate(153.851719 70.6875) scale(0.7)"/>
      </g>
     </g>
    </g>
    <g id="ytick_2">
     <g id="text_2">
      <!-- $\mathdefault{10^{0}}$ -->
      <g style="fill: #262626" transform="translate(92.2725 279.914128) scale(0.44 -0.44)">
       <use xlink:href="#ArialMT-31" transform="translate(0 0.99375)"/>
       <use xlink:href="#ArialMT-30" transform="translate(55.615234 0.99375)"/>
       <use xlink:href="#ArialMT-30" transform="translate(112.972813 70.6875) scale(0.7)"/>
      </g>
     </g>
    </g>
    <g id="ytick_3"/>
    <g id="ytick_4"/>
    <g id="ytick_5"/>
    <g id="ytick_6"/>
    <g id="ytick_7"/>
    <g id="ytick_8"/>
    <g id="ytick_9"/>
    <g id="ytick_10"/>
    <g id="ytick_11"/>
    <g id="ytick_12"/>
    <g id="ytick_13"/>
    <g id="ytick_14"/>
    <g id="ytick_15"/>
    <g id="ytick_16"/>
    <g id="ytick_17"/>
    <g id="ytick_18"/>
    <g id="ytick_19"/>
    <g id="ytick_20"/>
    <g id="ytick_21"/>
    <g id="ytick_22"/>
    <g id="ytick_23"/>
    <g id="ytick_24"/>
    <g id="ytick_25"/>
    <g id="text_3">
     <!-- FL -->
     <g style="fill: #262626" transform="translate(59.6925 334.195) rotate(-90) scale(0.48 -0.48)">
      <defs>
       <path id="ArialMT-46" d="M 525 0 
L 525 4581 
L 3616 4581 
L 3616 4041 
L 1131 4041 
L 1131 2622 
L 3281 2622 
L 3281 2081 
L 1131 2081 
L 1131 0 
L 525 0 
z
" transform="scale(0.015625)"/>
       <path id="ArialMT-4c" d="M 469 0 
L 469 4581 
L 1075 4581 
L 1075 541 
L 3331 541 
L 3331 0 
L 469 0 
z
" transform="scale(0.015625)"/>
      </defs>
      <use xlink:href="#ArialMT-46"/>
      <use xlink:href="#ArialMT-4c" x="61.083984"/>
     </g>
    </g>
   </g>
   <g id="line2d_1">
    <path d="M 177.3525 409.381977 
L 180.193532 469.996586 
L 183.036387 482.034833 
L 184.566313 500.030558 
L 187.210405 479.185524 
L 189.697676 496.41653 
L 192.372768 500.030558 
L 195.029624 473.796029 
L 195.029624 468.772213 
L 195.029624 467.567749 
L 198.317416 429.968751 
L 200.83751 396.882216 
L 202.943666 386.99116 
L 202.943666 367.929619 
L 202.943666 366.085386 
L 205.802933 351.276344 
L 205.802933 346.000317 
L 205.802933 330.403176 
L 208.12244 313.090836 
L 208.12244 305.212294 
L 208.12244 304.152199 
L 211.043706 263.550503 
L 211.043706 262.119462 
L 211.043706 259.697844 
L 213.315802 234.898242 
L 213.315802 233.770467 
L 213.315802 232.20992 
L 219.736387 211.075031 
L 221.275431 220.273862 
L 221.275431 214.016182 
L 221.275431 213.743926 
L 223.901288 226.323087 
L 223.901288 226.323087 
L 223.901288 222.512144 
L 226.487028 230.828107 
L 226.487028 229.567674 
L 226.487028 224.640057 
L 229.111062 236.5171 
L 229.111062 235.053368 
L 229.111062 234.127445 
L 231.9138 205.452016 
L 231.9138 200.875669 
L 231.9138 199.967583 
L 234.807713 227.435592 
L 234.807713 223.082444 
L 234.807713 219.38877 
L 240.106839 247.786048 
L 240.106839 247.663208 
L 240.106839 243.54533 
L 244.928204 235.991012 
L 244.928204 230.584045 
L 244.928204 228.375616 
L 247.586885 235.001623 
L 247.586885 230.146748 
L 247.586885 226.830912 
L 250.489915 242.622291 
L 250.489915 241.710613 
L 250.489915 234.332208 
L 255.561102 230.535328 
L 258.954658 238.877334 
L 260.902168 246.445877 
L 260.902168 242.967084 
L 260.902168 240.754095 
L 263.425909 251.182174 
L 263.425909 246.506271 
L 263.425909 244.303861 
L 265.938708 238.605307 
L 265.938708 236.781552 
L 265.938708 236.569915 
L 268.655741 241.034144 
L 268.655741 238.172131 
L 268.655741 237.420115 
L 274.253923 243.777898 
L 276.580724 154.021876 
L 276.580724 152.596858 
L 276.580724 150.732974 
L 282.146082 249.653531 
L 282.146082 245.307654 
L 282.146082 245.24823 
L 284.604176 251.763648 
L 287.204504 256.035701 
L 294.883313 286.968375 
L 300.228026 316.741985 
L 303.180292 325.50551 
L 305.521681 341.292134 
L 308.40283 333.857979 
L 313.329959 300.933931 
L 316.528399 295.23787 
L 321.23306 267.534296 
L 331.85137 257.914588 
L 334.672343 257.073638 
L 342.498856 307.792546 
L 349.743668 307.241816 
L 353.266693 309.46974 
L 355.868845 317.211297 
L 360.642799 310.322796 
L 368.449254 324.114429 
L 371.058699 303.497262 
L 379.384854 317.054529 
L 386.883135 279.435768 
L 389.755167 266.656739 
L 392.563375 302.848065 
L 398.498906 329.286478 
L 405.519427 329.656844 
L 407.888169 329.101988 
L 410.393674 359.690815 
L 416.3055 337.895648 
L 423.625077 355.101956 
L 426.591931 360.813153 
L 431.626647 364.880922 
L 434.681029 356.957188 
L 441.885725 355.101956 
L 460.195608 391.557321 
L 468.674938 394.616813 
L 481.547109 398.745783 
L 489.275152 384.225451 
L 497.123548 425.774826 
L 515.477195 430.691419 
" clip-path="url(#pb6aec66d79)" style="fill: none; stroke: #882255; stroke-width: 5; stroke-linecap: round"/>
   </g>
   <g id="line2d_2">
    <path d="M 177.3525 430.691419 
L 180.193532 457.527503 
L 183.036387 482.034833 
L 184.566313 500.030558 
L 187.210405 500.030558 
L 189.697676 453.467699 
L 192.372768 500.030558 
L 195.029624 500.030558 
L 195.029624 500.030558 
L 195.029624 486.525474 
L 198.317416 467.567749 
L 200.83751 423.105244 
L 202.943666 423.105244 
L 202.943666 419.898124 
L 202.943666 412.156567 
L 205.802933 375.114117 
L 205.802933 371.76183 
L 205.802933 370.785031 
L 208.12244 345.7692 
L 208.12244 338.940417 
L 208.12244 332.688382 
L 211.043706 305.07895 
L 211.043706 298.334615 
L 211.043706 297.12819 
L 213.315802 268.829593 
L 213.315802 268.666436 
L 213.315802 266.498295 
L 219.736387 202.960502 
L 221.275431 186.639996 
L 221.275431 183.917296 
L 221.275431 182.63083 
L 223.901288 164.547132 
L 223.901288 163.870844 
L 223.901288 163.2203 
L 226.487028 187.670309 
L 226.487028 181.341254 
L 226.487028 179.240631 
L 229.111062 189.69073 
L 229.111062 189.048193 
L 229.111062 188.604475 
L 231.9138 195.314057 
L 231.9138 194.291931 
L 231.9138 192.784711 
L 234.807713 221.427602 
L 234.807713 216.95723 
L 234.807713 213.821611 
L 240.106839 237.848903 
L 240.106839 235.729363 
L 240.106839 233.212953 
L 244.928204 236.043453 
L 244.928204 234.640417 
L 244.928204 233.974244 
L 247.586885 239.314666 
L 247.586885 237.848903 
L 247.586885 236.887598 
L 250.489915 251.310997 
L 250.489915 248.155797 
L 250.489915 248.155797 
L 255.561102 210.73876 
L 258.954658 240.141689 
L 260.902168 253.336937 
L 260.902168 244.245236 
L 260.902168 242.393318 
L 263.425909 256.587457 
L 263.425909 255.624565 
L 263.425909 253.270711 
L 265.938708 247.970692 
L 265.938708 246.204794 
L 265.938708 245.904538 
L 268.655741 187.971252 
L 268.655741 173.815663 
L 268.655741 173.296643 
L 274.253923 225.27239 
L 276.580724 231.220287 
L 276.580724 229.663873 
L 276.580724 225.773039 
L 282.146082 242.679645 
L 282.146082 241.597438 
L 282.146082 239.589316 
L 284.604176 242.794487 
L 287.204504 228.470278 
L 294.883313 261.377242 
L 300.228026 292.265411 
L 303.180292 298.456346 
L 305.521681 294.772733 
L 308.40283 281.248331 
L 313.329959 260.277674 
L 316.528399 245.784776 
L 321.23306 255.147772 
L 331.85137 283.404043 
L 334.672343 286.968375 
L 342.498856 312.205492 
L 349.743668 326.388392 
L 353.266693 324.806704 
L 355.868845 340.643317 
L 360.642799 325.33019 
L 368.449254 340.428301 
L 371.058699 328.551258 
L 379.384854 318.637343 
L 386.883135 292.265411 
L 389.755167 293.394593 
L 392.563375 319.441617 
L 398.498906 326.566238 
L 405.519427 324.286892 
L 407.888169 314.590339 
L 410.393674 353.292057 
L 416.3055 347.87568 
L 423.625077 368.554711 
L 426.591931 366.389587 
L 431.626647 353.292057 
L 434.681029 365.480706 
L 441.885725 354.840676 
L 460.195608 388.619201 
L 468.674938 384.225451 
L 481.547109 396.882216 
L 489.275152 429.968751 
L 497.123548 413.296172 
L 515.477195 457.527503 
" clip-path="url(#pb6aec66d79)" style="fill: none; stroke: #882255; stroke-width: 5; stroke-linecap: round"/>
   </g>
   <g id="line2d_3">
    <path d="M 177.3525 419.898124 
L 180.193532 462.936686 
L 183.036387 468.772213 
L 184.566313 480.596479 
L 187.210405 500.030558 
L 189.697676 475.107088 
L 192.372768 500.030558 
L 195.029624 475.107088 
L 195.029624 453.467699 
L 195.029624 429.253065 
L 198.317416 395.967724 
L 200.83751 392.418643 
L 202.943666 375.457843 
L 202.943666 364.880922 
L 202.943666 360.249859 
L 205.802933 343.720971 
L 205.802933 335.046339 
L 205.802933 326.566238 
L 208.12244 297.12819 
L 208.12244 291.485102 
L 208.12244 290.822747 
L 211.043706 272.857197 
L 211.043706 266.261261 
L 211.043706 263.85533 
L 213.315802 228.045249 
L 213.315802 226.277094 
L 213.315802 224.415526 
L 219.736387 224.775103 
L 221.275431 227.109382 
L 221.275431 223.923939 
L 221.275431 222.468456 
L 223.901288 235.053368 
L 223.901288 234.434802 
L 223.901288 231.171151 
L 226.487028 244.892679 
L 226.487028 243.371382 
L 226.487028 242.393318 
L 229.111062 233.974244 
L 229.111062 233.314008 
L 229.111062 230.925958 
L 231.9138 250.98936 
L 231.9138 250.98936 
L 231.9138 246.084545 
L 234.807713 262.56839 
L 234.807713 260.862079 
L 234.807713 259.337742 
L 240.106839 257.773765 
L 240.106839 250.60523 
L 240.106839 249.150914 
L 244.928204 257.143354 
L 244.928204 256.656716 
L 244.928204 253.07239 
L 247.586885 256.311065 
L 247.586885 248.279458 
L 247.586885 247.601864 
L 250.489915 270.648438 
L 250.489915 268.911306 
L 250.489915 268.829593 
L 255.561102 241.540916 
L 258.954658 255.147772 
L 260.902168 250.286636 
L 260.902168 250.286636 
L 260.902168 245.964492 
L 263.425909 258.551626 
L 263.425909 256.72604 
L 263.425909 254.539228 
L 265.938708 254.002466 
L 265.938708 250.350246 
L 265.938708 249.46465 
L 268.655741 258.055679 
L 268.655741 250.477628 
L 268.655741 247.970692 
L 274.253923 261.896014 
L 276.580724 255.624565 
L 276.580724 255.012107 
L 276.580724 254.606598 
L 282.146082 269.650808 
L 282.146082 269.156987 
L 282.146082 267.534296 
L 284.604176 271.574888 
L 287.204504 267.694975 
L 294.883313 300.306722 
L 300.228026 302.589971 
L 303.180292 306.69515 
L 305.521681 294.772733 
L 308.40283 289.407645 
L 313.329959 262.418445 
L 316.528399 261.599128 
L 321.23306 274.249913 
L 331.85137 291.596073 
L 334.672343 275.579803 
L 342.498856 322.580068 
L 349.743668 324.633028 
L 353.266693 330.779182 
L 355.868845 328.186366 
L 360.642799 328.004592 
L 368.449254 329.47143 
L 371.058699 309.89504 
L 379.384854 281.441733 
L 386.883135 274.249913 
L 389.755167 270.98399 
L 392.563375 300.556969 
L 398.498906 325.155283 
L 405.519427 311.330606 
L 407.888169 317.211297 
L 410.393674 338.940417 
L 416.3055 356.422364 
L 423.625077 353.804675 
L 426.591931 344.62431 
L 431.626647 338.520739 
L 434.681029 339.362485 
L 441.885725 337.895648 
L 460.195608 363.695731 
L 468.674938 378.625337 
L 481.547109 381.186137 
L 489.275152 396.423559 
L 497.123548 413.872618 
L 515.477195 447.766972 
" clip-path="url(#pb6aec66d79)" style="fill: none; stroke: #882255; stroke-width: 5; stroke-linecap: round"/>
   </g>
   <g id="line2d_4">
    <path d="M 177.3525 417.025131 
L 180.193532 475.994199 
L 183.036387 400.657447 
L 184.566313 371.871163 
L 187.210405 343.347807 
L 189.697676 302.97745 
L 192.372768 259.649729 
L 195.029624 226.558613 
L 198.317416 183.194124 
L 200.83751 197.422381 
L 202.943666 225.920336 
L 205.802933 264.545812 
L 208.12244 267.382863 
L 211.043706 273.637375 
L 213.315802 270.946631 
L 219.736387 291.189991 
L 221.275431 292.991131 
L 223.901288 309.831878 
L 226.487028 330.737309 
L 229.111062 340.261497 
L 231.9138 347.638647 
L 234.807713 378.26663 
L 240.106839 401.577619 
L 244.928204 404.070026 
L 247.586885 421.093441 
L 250.489915 454.350844 
L 255.561102 500.030558 
L 258.954658 500.030558 
L 260.902168 495.636808 
L 263.425909 496.80949 
L 265.938708 491.489151 
L 268.655741 489.143163 
L 274.253923 500.030558 
L 276.580724 488.965742 
L 282.146082 494.865208 
L 284.604176 500.030558 
L 287.204504 495.250003 
L 294.883313 500.030558 
L 300.228026 500.030558 
L 303.180292 498.201505 
L 305.521681 475.107088 
L 308.40283 500.030558 
L 313.329959 500.030558 
L 316.528399 497.601721 
L 321.23306 500.030558 
L 331.85137 485.503762 
L 334.672343 498.201505 
L 342.498856 500.030558 
L 349.743668 492.411614 
L 353.266693 500.030558 
L 355.868845 497.601721 
L 360.642799 500.030558 
L 368.449254 495.250003 
L 371.058699 500.030558 
L 379.384854 492.970658 
L 386.883135 500.030558 
L 389.755167 498.201505 
L 392.563375 495.250003 
L 398.498906 500.030558 
L 405.519427 500.030558 
L 407.888169 490.759362 
L 410.393674 498.201505 
L 416.3055 489.143163 
L 423.625077 495.250003 
L 426.591931 500.030558 
L 431.626647 500.030558 
L 434.681029 498.201505 
L 441.885725 500.030558 
L 460.195608 500.030558 
L 468.674938 500.030558 
L 481.547109 498.201505 
L 489.275152 475.549315 
L 497.123548 500.030558 
L 515.477195 500.030558 
" clip-path="url(#pb6aec66d79)" style="fill: none; stroke: #000000; stroke-width: 2; stroke-linecap: round"/>
   </g>
   <g id="patch_3">
    <path d="M 177.3525 521.34 
L 177.3525 91.04 
" style="fill: none; stroke: #262626; stroke-width: 2.5; stroke-linejoin: miter; stroke-linecap: square"/>
   </g>
   <g id="patch_4">
    <path d="M 177.3525 521.34 
L 544.9725 521.34 
" style="fill: none; stroke: #262626; stroke-width: 2.5; stroke-linejoin: miter; stroke-linecap: square"/>
   </g>
  </g>
  <g id="axes_2">
   <g id="patch_5">
    <path d="M 177.3525 1063.38 
L 544.9725 1063.38 
L 544.9725 633.08 
L 177.3525 633.08 
z
" style="fill: #ffffff"/>
   </g>
   <g id="matplotlib.axis_3">
    <g id="xtick_4"/>
    <g id="xtick_5"/>
    <g id="xtick_6"/>
   </g>
   <g id="matplotlib.axis_4">
    <g id="ytick_26">
     <g id="text_4">
      <!-- $\mathdefault{10^{-1}}$ -->
      <g style="fill: #262626" transform="translate(74.2325 992.513257) scale(0.44 -0.44)">
       <use xlink:href="#ArialMT-31" transform="translate(0 0.99375)"/>
       <use xlink:href="#ArialMT-30" transform="translate(55.615234 0.99375)"/>
       <use xlink:href="#ArialMT-2212" transform="translate(112.972813 70.6875) scale(0.7)"/>
       <use xlink:href="#ArialMT-31" transform="translate(153.851719 70.6875) scale(0.7)"/>
      </g>
     </g>
    </g>
    <g id="ytick_27">
     <g id="text_5">
      <!-- $\mathdefault{10^{0}}$ -->
      <g style="fill: #262626" transform="translate(92.2725 821.954128) scale(0.44 -0.44)">
       <use xlink:href="#ArialMT-31" transform="translate(0 0.99375)"/>
       <use xlink:href="#ArialMT-30" transform="translate(55.615234 0.99375)"/>
       <use xlink:href="#ArialMT-30" transform="translate(112.972813 70.6875) scale(0.7)"/>
      </g>
     </g>
    </g>
    <g id="ytick_28"/>
    <g id="ytick_29"/>
    <g id="ytick_30"/>
    <g id="ytick_31"/>
    <g id="ytick_32"/>
    <g id="ytick_33"/>
    <g id="ytick_34"/>
    <g id="ytick_35"/>
    <g id="ytick_36"/>
    <g id="ytick_37"/>
    <g id="ytick_38"/>
    <g id="ytick_39"/>
    <g id="ytick_40"/>
    <g id="ytick_41"/>
    <g id="ytick_42"/>
    <g id="ytick_43"/>
    <g id="ytick_44"/>
    <g id="ytick_45"/>
    <g id="ytick_46"/>
    <g id="ytick_47"/>
    <g id="ytick_48"/>
    <g id="ytick_49"/>
    <g id="ytick_50"/>
    <g id="text_6">
     <!-- FL -->
     <g style="fill: #262626" transform="translate(59.6925 876.235) rotate(-90) scale(0.48 -0.48)">
      <use xlink:href="#ArialMT-46"/>
      <use xlink:href="#ArialMT-4c" x="61.083984"/>
     </g>
    </g>
   </g>
   <g id="line2d_5">
    <path d="M 177.3525 987.113116 
L 180.193532 1042.070558 
L 183.036387 929.840708 
L 184.566313 940.785783 
L 187.210405 879.315787 
L 189.697676 858.160825 
L 192.372768 836.120458 
L 195.029624 849.281816 
L 195.029624 846.060748 
L 195.029624 842.346722 
L 198.317416 871.51143 
L 200.83751 898.997188 
L 202.943666 922.485402 
L 202.943666 917.497843 
L 202.943666 906.325956 
L 205.802933 922.854843 
L 205.802933 921.388005 
L 205.802933 900.900083 
L 208.12244 925.878646 
L 208.12244 924.351316 
L 208.12244 912.825031 
L 211.043706 927.833189 
L 211.043706 926.654286 
L 211.043706 924.730206 
L 213.315802 916.811978 
L 213.315802 916.471412 
L 213.315802 906.030255 
L 219.736387 929.03116 
L 221.275431 956.493585 
L 221.275431 951.968643 
L 221.275431 936.656813 
L 223.901288 939.848139 
L 223.901288 931.071864 
L 223.901288 919.240815 
L 226.487028 934.458643 
L 226.487028 932.745899 
L 226.487028 924.351316 
L 229.111062 943.183173 
L 229.111062 941.735448 
L 229.111062 941.735448 
L 231.9138 934.458643 
L 231.9138 930.248824 
L 231.9138 924.730206 
L 234.807713 939.848139 
L 234.807713 938.463559 
L 234.807713 932.745899 
L 240.106839 922.485402 
L 240.106839 921.752001 
L 240.106839 917.154117 
L 244.928204 916.471412 
L 244.928204 903.136415 
L 244.928204 895.077073 
L 247.586885 918.538697 
L 247.586885 916.471412 
L 247.586885 912.180915 
L 250.489915 931.48684 
L 250.489915 926.265451 
L 250.489915 915.794943 
L 255.561102 957.66937 
L 258.954658 948.747575 
L 260.902168 954.764178 
L 260.902168 945.158567 
L 260.902168 938.922216 
L 263.425909 936.21193 
L 263.425909 933.170387 
L 263.425909 927.045173 
L 265.938708 950.879316 
L 265.938708 942.214886 
L 265.938708 928.62968 
L 268.655741 934.89309 
L 268.655741 925.878646 
L 268.655741 919.240815 
L 274.253923 987.113116 
L 276.580724 965.803674 
L 276.580724 955.912618 
L 276.580724 933.170387 
L 282.146082 929.434828 
L 282.146082 919.240815 
L 282.146082 914.46026 
L 284.604176 915.124595 
L 287.204504 925.493851 
L 294.883313 933.597321 
L 300.228026 913.474797 
L 303.180292 945.660758 
L 305.521681 952.519373 
L 308.40283 929.434828 
L 313.329959 942.697447 
L 316.528399 921.02579 
L 321.23306 949.274787 
L 331.85137 976.454458 
L 334.672343 949.805777 
L 342.498856 953.633272 
L 349.743668 993.5583 
L 353.266693 982.002615 
L 355.868845 957.079144 
L 360.642799 950.879316 
L 368.449254 958.864119 
L 371.058699 973.461207 
L 379.384854 977.997699 
L 386.883135 957.079144 
L 389.755167 988.000227 
L 392.563375 951.421977 
L 398.498906 929.840708 
L 405.519427 973.461207 
L 407.888169 954.196567 
L 410.393674 998.531502 
L 416.3055 942.697447 
L 423.625077 974.942714 
L 426.591931 958.864119 
L 431.626647 974.198257 
L 434.681029 980.374574 
L 441.885725 969.186585 
L 460.195608 964.492615 
L 468.674938 942.214886 
L 481.547109 977.997699 
L 489.275152 974.942714 
L 497.123548 978.781547 
L 515.477195 974.198257 
" clip-path="url(#p32bf7e513a)" style="fill: none; stroke: #cc6677; stroke-width: 5; stroke-linecap: round"/>
   </g>
   <g id="line2d_6">
    <path d="M 177.3525 965.803674 
L 180.193532 1036.713558 
L 183.036387 970.584229 
L 184.566313 937.104385 
L 187.210405 886.66431 
L 189.697676 860.040153 
L 192.372768 834.86785 
L 195.029624 843.100012 
L 195.029624 834.529874 
L 195.029624 831.124887 
L 198.317416 875.506058 
L 200.83751 904.859118 
L 202.943666 905.735731 
L 202.943666 896.360864 
L 202.943666 884.868516 
L 205.802933 908.125386 
L 205.802933 905.150171 
L 205.802933 893.068194 
L 208.12244 920.665337 
L 208.12244 917.497843 
L 208.12244 915.459011 
L 211.043706 923.974354 
L 211.043706 922.117793 
L 211.043706 906.030255 
L 213.315802 919.240815 
L 213.315802 918.538697 
L 213.315802 917.154117 
L 219.736387 921.388005 
L 221.275431 965.145244 
L 221.275431 942.697447 
L 221.275431 911.225122 
L 223.901288 953.074229 
L 223.901288 931.904153 
L 223.901288 918.888924 
L 226.487028 961.938124 
L 226.487028 941.259094 
L 226.487028 931.904153 
L 229.111062 938.922216 
L 229.111062 937.104385 
L 229.111062 922.854843 
L 231.9138 935.769702 
L 231.9138 921.388005 
L 231.9138 918.538697 
L 234.807713 929.840708 
L 234.807713 927.438133 
L 234.807713 920.30663 
L 240.106839 936.21193 
L 240.106839 925.493851 
L 240.106839 914.130314 
L 244.928204 927.833189 
L 244.928204 921.388005 
L 244.928204 915.459011 
L 247.586885 950.340602 
L 247.586885 935.769702 
L 247.586885 915.124595 
L 250.489915 943.672105 
L 250.489915 943.183173 
L 250.489915 933.597321 
L 255.561102 960.078456 
L 258.954658 994.526587 
L 260.902168 965.145244 
L 260.902168 958.264336 
L 260.902168 952.519373 
L 263.425909 963.845686 
L 263.425909 957.66937 
L 263.425909 947.188088 
L 265.938708 985.370144 
L 265.938708 970.584229 
L 265.938708 958.864119 
L 268.655741 942.697447 
L 268.655741 938.463559 
L 268.655741 932.745899 
L 274.253923 965.803674 
L 276.580724 954.196567 
L 276.580724 947.704278 
L 276.580724 942.214886 
L 282.146082 958.264336 
L 282.146082 950.340602 
L 282.146082 940.785783 
L 284.604176 941.735448 
L 287.204504 928.62968 
L 294.883313 943.183173 
L 300.228026 959.468799 
L 303.180292 953.633272 
L 305.521681 924.351316 
L 308.40283 951.968643 
L 313.329959 939.848139 
L 316.528399 941.735448 
L 321.23306 925.111045 
L 331.85137 950.340602 
L 334.672343 952.519373 
L 342.498856 994.526587 
L 349.743668 974.198257 
L 353.266693 989.806972 
L 355.868845 1001.684016 
L 360.642799 977.22206 
L 368.449254 977.997699 
L 371.058699 970.584229 
L 379.384854 970.584229 
L 386.883135 981.184121 
L 389.755167 960.078456 
L 392.563375 972.008751 
L 398.498906 963.204358 
L 405.519427 994.526587 
L 407.888169 998.531502 
L 410.393674 994.526587 
L 416.3055 930.659201 
L 423.625077 982.002615 
L 426.591931 963.845686 
L 431.626647 955.336172 
L 434.681029 980.374574 
L 441.885725 948.22409 
L 460.195608 967.814826 
L 468.674938 989.806972 
L 481.547109 973.461207 
L 489.275152 938.007724 
L 497.123548 950.879316 
L 515.477195 965.145244 
" clip-path="url(#p32bf7e513a)" style="fill: none; stroke: #cc6677; stroke-width: 5; stroke-linecap: round"/>
   </g>
   <g id="line2d_7">
    <path d="M 177.3525 961.938124 
L 180.193532 1024.074833 
L 183.036387 974.198257 
L 184.566313 938.922216 
L 187.210405 892.574373 
L 189.697676 858.006345 
L 192.372768 822.043379 
L 195.029624 854.245492 
L 195.029624 843.861042 
L 195.029624 838.691068 
L 198.317416 886.211264 
L 200.83751 898.997188 
L 202.943666 909.969619 
L 202.943666 907.520706 
L 202.943666 907.220207 
L 205.802933 916.811978 
L 205.802933 902.289859 
L 205.802933 897.404161 
L 208.12244 913.149201 
L 208.12244 903.706209 
L 208.12244 900.078563 
L 211.043706 920.30663 
L 211.043706 915.794943 
L 211.043706 906.920922 
L 213.315802 927.438133 
L 213.315802 926.654286 
L 213.315802 903.136415 
L 219.736387 914.791683 
L 221.275431 938.922216 
L 221.275431 937.104385 
L 221.275431 914.791683 
L 223.901288 937.104385 
L 223.901288 936.656813 
L 223.901288 932.32383 
L 226.487028 945.660758 
L 226.487028 939.383731 
L 226.487028 939.383731 
L 229.111062 925.878646 
L 229.111062 920.665337 
L 229.111062 917.154117 
L 231.9138 943.672105 
L 231.9138 931.904153 
L 231.9138 922.117793 
L 234.807713 947.188088 
L 234.807713 933.170387 
L 234.807713 933.170387 
L 240.106839 943.183173 
L 240.106839 915.794943 
L 240.106839 915.124595 
L 244.928204 938.007724 
L 244.928204 925.878646 
L 244.928204 911.542351 
L 247.586885 919.949652 
L 247.586885 918.538697 
L 247.586885 914.130314 
L 250.489915 936.21193 
L 250.489915 926.265451 
L 250.489915 923.599301 
L 255.561102 917.843172 
L 258.954658 1027.038143 
L 260.902168 945.158567 
L 260.902168 938.922216 
L 260.902168 936.21193 
L 263.425909 972.731419 
L 263.425909 969.186585 
L 263.425909 958.264336 
L 265.938708 972.731419 
L 265.938708 953.074229 
L 265.938708 947.704278 
L 268.655741 961.313033 
L 268.655741 939.383731 
L 268.655741 935.330099 
L 274.253923 958.264336 
L 276.580724 948.747575 
L 276.580724 942.214886 
L 276.580724 938.922216 
L 282.146082 947.188088 
L 282.146082 940.785783 
L 282.146082 934.458643 
L 284.604176 924.351316 
L 287.204504 928.230364 
L 294.883313 935.330099 
L 300.228026 948.747575 
L 303.180292 937.104385 
L 305.521681 929.03116 
L 308.40283 931.071864 
L 313.329959 947.188088 
L 316.528399 934.02673 
L 321.23306 972.008751 
L 331.85137 947.188088 
L 334.672343 935.769702 
L 342.498856 982.830253 
L 349.743668 964.492615 
L 353.266693 971.293065 
L 355.868845 965.803674 
L 360.642799 988.898091 
L 368.449254 1003.862787 
L 371.058699 959.468799 
L 379.384854 998.531502 
L 386.883135 964.492615 
L 389.755167 980.374574 
L 392.563375 951.968643 
L 398.498906 958.264336 
L 405.519427 953.074229 
L 407.888169 957.66937 
L 410.393674 995.507699 
L 416.3055 965.803674 
L 423.625077 974.198257 
L 426.591931 960.693173 
L 431.626647 964.492615 
L 434.681029 962.568536 
L 441.885725 963.204358 
L 460.195608 958.264336 
L 468.674938 976.454458 
L 481.547109 934.458643 
L 489.275152 955.912618 
L 497.123548 983.667244 
L 515.477195 967.814826 
" clip-path="url(#p32bf7e513a)" style="fill: none; stroke: #cc6677; stroke-width: 5; stroke-linecap: round"/>
   </g>
   <g id="line2d_8">
    <path d="M 177.3525 959.065131 
L 180.193532 1018.034199 
L 183.036387 942.697447 
L 184.566313 913.911163 
L 187.210405 885.387807 
L 189.697676 845.01745 
L 192.372768 801.689729 
L 195.029624 768.598613 
L 198.317416 725.234124 
L 200.83751 739.462381 
L 202.943666 767.960336 
L 205.802933 806.585812 
L 208.12244 809.422863 
L 211.043706 815.677375 
L 213.315802 812.986631 
L 219.736387 833.229991 
L 221.275431 835.031131 
L 223.901288 851.871878 
L 226.487028 872.777309 
L 229.111062 882.301497 
L 231.9138 889.678647 
L 234.807713 920.30663 
L 240.106839 943.617619 
L 244.928204 946.110026 
L 247.586885 963.133441 
L 250.489915 996.390844 
L 255.561102 1042.070558 
L 258.954658 1042.070558 
L 260.902168 1037.676808 
L 263.425909 1038.84949 
L 265.938708 1033.529151 
L 268.655741 1031.183163 
L 274.253923 1042.070558 
L 276.580724 1031.005742 
L 282.146082 1036.905208 
L 284.604176 1042.070558 
L 287.204504 1037.290003 
L 294.883313 1042.070558 
L 300.228026 1042.070558 
L 303.180292 1040.241505 
L 305.521681 1017.147088 
L 308.40283 1042.070558 
L 313.329959 1042.070558 
L 316.528399 1039.641721 
L 321.23306 1042.070558 
L 331.85137 1027.543762 
L 334.672343 1040.241505 
L 342.498856 1042.070558 
L 349.743668 1034.451614 
L 353.266693 1042.070558 
L 355.868845 1039.641721 
L 360.642799 1042.070558 
L 368.449254 1037.290003 
L 371.058699 1042.070558 
L 379.384854 1035.010658 
L 386.883135 1042.070558 
L 389.755167 1040.241505 
L 392.563375 1037.290003 
L 398.498906 1042.070558 
L 405.519427 1042.070558 
L 407.888169 1032.799362 
L 410.393674 1040.241505 
L 416.3055 1031.183163 
L 423.625077 1037.290003 
L 426.591931 1042.070558 
L 431.626647 1042.070558 
L 434.681029 1040.241505 
L 441.885725 1042.070558 
L 460.195608 1042.070558 
L 468.674938 1042.070558 
L 481.547109 1040.241505 
L 489.275152 1017.589315 
L 497.123548 1042.070558 
L 515.477195 1042.070558 
" clip-path="url(#p32bf7e513a)" style="fill: none; stroke: #000000; stroke-width: 2; stroke-linecap: round"/>
   </g>
   <g id="patch_6">
    <path d="M 177.3525 1063.38 
L 177.3525 633.08 
" style="fill: none; stroke: #262626; stroke-width: 2.5; stroke-linejoin: miter; stroke-linecap: square"/>
   </g>
   <g id="patch_7">
    <path d="M 177.3525 1063.38 
L 544.9725 1063.38 
" style="fill: none; stroke: #262626; stroke-width: 2.5; stroke-linejoin: miter; stroke-linecap: square"/>
   </g>
  </g>
  <g id="axes_3">
   <g id="patch_8">
    <path d="M 177.3525 1605.42 
L 544.9725 1605.42 
L 544.9725 1175.12 
L 177.3525 1175.12 
z
" style="fill: #ffffff"/>
   </g>
   <g id="matplotlib.axis_5">
    <g id="xtick_7"/>
    <g id="xtick_8"/>
    <g id="xtick_9"/>
   </g>
   <g id="matplotlib.axis_6">
    <g id="ytick_51">
     <g id="text_7">
      <!-- $\mathdefault{10^{-1}}$ -->
      <g style="fill: #262626" transform="translate(74.2325 1534.553257) scale(0.44 -0.44)">
       <use xlink:href="#ArialMT-31" transform="translate(0 0.99375)"/>
       <use xlink:href="#ArialMT-30" transform="translate(55.615234 0.99375)"/>
       <use xlink:href="#ArialMT-2212" transform="translate(112.972813 70.6875) scale(0.7)"/>
       <use xlink:href="#ArialMT-31" transform="translate(153.851719 70.6875) scale(0.7)"/>
      </g>
     </g>
    </g>
    <g id="ytick_52">
     <g id="text_8">
      <!-- $\mathdefault{10^{0}}$ -->
      <g style="fill: #262626" transform="translate(92.2725 1363.994128) scale(0.44 -0.44)">
       <use xlink:href="#ArialMT-31" transform="translate(0 0.99375)"/>
       <use xlink:href="#ArialMT-30" transform="translate(55.615234 0.99375)"/>
       <use xlink:href="#ArialMT-30" transform="translate(112.972813 70.6875) scale(0.7)"/>
      </g>
     </g>
    </g>
    <g id="ytick_53"/>
    <g id="ytick_54"/>
    <g id="ytick_55"/>
    <g id="ytick_56"/>
    <g id="ytick_57"/>
    <g id="ytick_58"/>
    <g id="ytick_59"/>
    <g id="ytick_60"/>
    <g id="ytick_61"/>
    <g id="ytick_62"/>
    <g id="ytick_63"/>
    <g id="ytick_64"/>
    <g id="ytick_65"/>
    <g id="ytick_66"/>
    <g id="ytick_67"/>
    <g id="ytick_68"/>
    <g id="ytick_69"/>
    <g id="ytick_70"/>
    <g id="ytick_71"/>
    <g id="ytick_72"/>
    <g id="ytick_73"/>
    <g id="ytick_74"/>
    <g id="ytick_75"/>
    <g id="text_9">
     <!-- FL -->
     <g style="fill: #262626" transform="translate(59.6925 1418.275) rotate(-90) scale(0.48 -0.48)">
      <use xlink:href="#ArialMT-46"/>
      <use xlink:href="#ArialMT-4c" x="61.083984"/>
     </g>
    </g>
   </g>
   <g id="line2d_9">
    <path d="M 177.3525 1532.767144 
L 180.193532 1516.982714 
L 183.036387 1481.888139 
L 184.566313 1450.775043 
L 187.210405 1430.544725 
L 189.697676 1392.566767 
L 192.372768 1368.384332 
L 195.029624 1352.746436 
L 195.029624 1345.309687 
L 195.029624 1344.576286 
L 198.317416 1412.084592 
L 200.83751 1419.126339 
L 202.943666 1424.723317 
L 202.943666 1423.23115 
L 202.943666 1418.134719 
L 205.802933 1437.372057 
L 205.802933 1434.614373 
L 205.802933 1430.312157 
L 208.12244 1445.460764 
L 208.12244 1433.636498 
L 208.12244 1425.15523 
L 211.043706 1466.014354 
L 211.043706 1458.511412 
L 211.043706 1439.971373 
L 213.315802 1466.770206 
L 213.315802 1461.280815 
L 213.315802 1458.172405 
L 219.736387 1476.498643 
L 221.275431 1471.07116 
L 221.275431 1466.770206 
L 221.275431 1453.582351 
L 223.901288 1497.376172 
L 223.901288 1481.423731 
L 223.901288 1476.06673 
L 226.487028 1495.114229 
L 226.487028 1490.26409 
L 226.487028 1483.299094 
L 229.111062 1511.922111 
L 229.111062 1509.854826 
L 229.111062 1503.978124 
L 231.9138 1504.608536 
L 231.9138 1495.114229 
L 231.9138 1480.503559 
L 234.807713 1536.566587 
L 234.807713 1524.042615 
L 234.807713 1520.037699 
L 240.106839 1566.114833 
L 240.106839 1552.852213 
L 240.106839 1541.607503 
L 244.928204 1584.110558 
L 244.928204 1584.110558 
L 244.928204 1584.110558 
L 247.586885 1572.16496 
L 247.586885 1559.187088 
L 247.586885 1557.876029 
L 250.489915 1584.110558 
L 250.489915 1584.110558 
L 250.489915 1580.49653 
L 255.561102 1584.110558 
L 258.954658 1584.110558 
L 260.902168 1584.110558 
L 260.902168 1584.110558 
L 260.902168 1541.607503 
L 263.425909 1584.110558 
L 263.425909 1584.110558 
L 263.425909 1584.110558 
L 265.938708 1584.110558 
L 265.938708 1584.110558 
L 265.938708 1584.110558 
L 268.655741 1584.110558 
L 268.655741 1584.110558 
L 268.655741 1559.187088 
L 274.253923 1584.110558 
L 276.580724 1584.110558 
L 276.580724 1584.110558 
L 276.580724 1584.110558 
L 282.146082 1584.110558 
L 282.146082 1578.753558 
L 282.146082 1578.753558 
L 284.604176 1584.110558 
L 287.204504 1564.676479 
L 294.883313 1570.605474 
L 300.228026 1584.110558 
L 303.180292 1584.110558 
L 305.521681 1584.110558 
L 308.40283 1570.605474 
L 313.329959 1570.605474 
L 316.528399 1584.110558 
L 321.23306 1584.110558 
L 331.85137 1563.265524 
L 334.672343 1584.110558 
L 342.498856 1564.676479 
L 349.743668 1584.110558 
L 353.266693 1578.753558 
L 355.868845 1584.110558 
L 360.642799 1530.040227 
L 368.449254 1584.110558 
L 371.058699 1580.49653 
L 379.384854 1570.605474 
L 386.883135 1563.265524 
L 389.755167 1584.110558 
L 392.563375 1539.549791 
L 398.498906 1584.110558 
L 405.519427 1570.605474 
L 407.888169 1530.938091 
L 410.393674 1532.767144 
L 416.3055 1584.110558 
L 423.625077 1584.110558 
L 426.591931 1584.110558 
L 431.626647 1584.110558 
L 434.681029 1570.605474 
L 441.885725 1584.110558 
L 460.195608 1584.110558 
L 468.674938 1555.321538 
L 481.547109 1572.16496 
L 489.275152 1572.16496 
L 497.123548 1584.110558 
L 515.477195 1541.607503 
" clip-path="url(#pad43b42baf)" style="fill: none; stroke: #44aa99; stroke-width: 5; stroke-linecap: round"/>
   </g>
   <g id="line2d_10">
    <path d="M 177.3525 1529.153116 
L 180.193532 1557.876029 
L 183.036387 1493.461977 
L 184.566313 1467.151045 
L 187.210405 1479.594677 
L 189.697676 1430.544725 
L 192.372768 1409.58551 
L 195.029624 1392.986445 
L 195.029624 1391.872546 
L 195.029624 1387.577262 
L 198.317416 1457.499011 
L 200.83751 1451.699041 
L 202.943666 1473.111864 
L 202.943666 1467.533851 
L 202.943666 1465.266137 
L 205.802933 1520.821547 
L 205.802933 1467.151045 
L 205.802933 1466.014354 
L 208.12244 1503.353033 
L 208.12244 1495.673272 
L 208.12244 1490.26409 
L 211.043706 1498.533585 
L 211.043706 1494.008643 
L 211.043706 1493.461977 
L 213.315802 1508.508009 
L 213.315802 1503.978124 
L 213.315802 1487.700758 
L 219.736387 1528.276503 
L 221.275431 1520.821547 
L 221.275431 1507.185244 
L 221.275431 1485.712105 
L 223.901288 1578.753558 
L 223.901288 1548.147592 
L 223.901288 1529.153116 
L 226.487028 1547.016686 
L 226.487028 1531.846972 
L 226.487028 1490.26409 
L 229.111062 1516.238257 
L 229.111062 1509.178357 
L 229.111062 1503.353033 
L 231.9138 1577.050658 
L 231.9138 1522.414574 
L 231.9138 1502.733173 
L 234.807713 1551.647749 
L 234.807713 1541.607503 
L 234.807713 1520.821547 
L 240.106839 1584.110558 
L 240.106839 1572.16496 
L 240.106839 1552.852213 
L 244.928204 1570.605474 
L 244.928204 1557.876029 
L 244.928204 1547.016686 
L 247.586885 1584.110558 
L 247.586885 1570.605474 
L 247.586885 1541.607503 
L 250.489915 1584.110558 
L 250.489915 1584.110558 
L 250.489915 1584.110558 
L 255.561102 1584.110558 
L 258.954658 1584.110558 
L 260.902168 1584.110558 
L 260.902168 1584.110558 
L 260.902168 1523.224121 
L 263.425909 1584.110558 
L 263.425909 1563.265524 
L 263.425909 1556.587772 
L 265.938708 1572.16496 
L 265.938708 1563.265524 
L 265.938708 1545.902787 
L 268.655741 1584.110558 
L 268.655741 1572.16496 
L 268.655741 1564.676479 
L 274.253923 1584.110558 
L 276.580724 1584.110558 
L 276.580724 1584.110558 
L 276.580724 1584.110558 
L 282.146082 1584.110558 
L 282.146082 1584.110558 
L 282.146082 1528.276503 
L 284.604176 1572.16496 
L 287.204504 1584.110558 
L 294.883313 1584.110558 
L 300.228026 1584.110558 
L 303.180292 1564.676479 
L 305.521681 1563.265524 
L 308.40283 1584.110558 
L 313.329959 1584.110558 
L 316.528399 1584.110558 
L 321.23306 1584.110558 
L 331.85137 1584.110558 
L 334.672343 1572.16496 
L 342.498856 1564.676479 
L 349.743668 1584.110558 
L 353.266693 1557.876029 
L 355.868845 1563.265524 
L 360.642799 1540.571502 
L 368.449254 1529.153116 
L 371.058699 1584.110558 
L 379.384854 1578.753558 
L 386.883135 1556.587772 
L 389.755167 1550.462558 
L 392.563375 1584.110558 
L 398.498906 1535.5983 
L 405.519427 1584.110558 
L 407.888169 1584.110558 
L 410.393674 1545.902787 
L 416.3055 1577.050658 
L 423.625077 1584.110558 
L 426.591931 1536.566587 
L 431.626647 1584.110558 
L 434.681029 1563.265524 
L 441.885725 1577.050658 
L 460.195608 1584.110558 
L 468.674938 1570.605474 
L 481.547109 1536.566587 
L 489.275152 1584.110558 
L 497.123548 1549.296032 
L 515.477195 1584.110558 
" clip-path="url(#pad43b42baf)" style="fill: none; stroke: #44aa99; stroke-width: 5; stroke-linecap: round"/>
   </g>
   <g id="line2d_11">
    <path d="M 177.3525 1559.187088 
L 180.193532 1566.114833 
L 183.036387 1511.226585 
L 184.566313 1495.114229 
L 187.210405 1486.699758 
L 189.697676 1441.846736 
L 192.372768 1453.900945 
L 195.029624 1496.236567 
L 195.029624 1480.503559 
L 195.029624 1477.809702 
L 198.317416 1584.110558 
L 200.83751 1516.238257 
L 202.943666 1552.852213 
L 202.943666 1542.6582 
L 202.943666 1528.276503 
L 205.802933 1556.587772 
L 205.802933 1545.902787 
L 205.802933 1520.821547 
L 208.12244 1559.187088 
L 208.12244 1531.846972 
L 208.12244 1528.276503 
L 211.043706 1584.110558 
L 211.043706 1529.153116 
L 211.043706 1528.276503 
L 213.315802 1551.647749 
L 213.315802 1534.642507 
L 213.315802 1532.767144 
L 219.736387 1520.037699 
L 221.275431 1564.676479 
L 221.275431 1536.566587 
L 221.275431 1519.26206 
L 223.901288 1573.757987 
L 223.901288 1557.876029 
L 223.901288 1533.698891 
L 226.487028 1580.49653 
L 226.487028 1572.16496 
L 226.487028 1557.876029 
L 229.111062 1584.110558 
L 229.111062 1570.605474 
L 229.111062 1551.647749 
L 231.9138 1578.753558 
L 231.9138 1570.605474 
L 231.9138 1550.462558 
L 234.807713 1584.110558 
L 234.807713 1559.187088 
L 234.807713 1547.016686 
L 240.106839 1584.110558 
L 240.106839 1580.49653 
L 240.106839 1578.753558 
L 244.928204 1584.110558 
L 244.928204 1578.753558 
L 244.928204 1556.587772 
L 247.586885 1584.110558 
L 247.586885 1580.49653 
L 247.586885 1541.607503 
L 250.489915 1584.110558 
L 250.489915 1578.753558 
L 250.489915 1551.647749 
L 255.561102 1584.110558 
L 258.954658 1584.110558 
L 260.902168 1584.110558 
L 260.902168 1578.753558 
L 260.902168 1572.16496 
L 263.425909 1584.110558 
L 263.425909 1584.110558 
L 263.425909 1535.5983 
L 265.938708 1584.110558 
L 265.938708 1584.110558 
L 265.938708 1584.110558 
L 268.655741 1584.110558 
L 268.655741 1584.110558 
L 268.655741 1545.902787 
L 274.253923 1584.110558 
L 276.580724 1584.110558 
L 276.580724 1584.110558 
L 276.580724 1559.187088 
L 282.146082 1584.110558 
L 282.146082 1584.110558 
L 282.146082 1564.676479 
L 284.604176 1556.587772 
L 287.204504 1584.110558 
L 294.883313 1584.110558 
L 300.228026 1572.16496 
L 303.180292 1584.110558 
L 305.521681 1564.676479 
L 308.40283 1557.876029 
L 313.329959 1516.238257 
L 316.528399 1569.078143 
L 321.23306 1552.852213 
L 331.85137 1578.753558 
L 334.672343 1584.110558 
L 342.498856 1570.605474 
L 349.743668 1584.110558 
L 353.266693 1584.110558 
L 355.868845 1584.110558 
L 360.642799 1540.571502 
L 368.449254 1572.16496 
L 371.058699 1551.647749 
L 379.384854 1564.676479 
L 386.883135 1570.605474 
L 389.755167 1563.265524 
L 392.563375 1584.110558 
L 398.498906 1570.605474 
L 405.519427 1559.187088 
L 407.888169 1530.040227 
L 410.393674 1584.110558 
L 416.3055 1577.050658 
L 423.625077 1572.16496 
L 426.591931 1584.110558 
L 431.626647 1552.852213 
L 434.681029 1577.050658 
L 441.885725 1557.876029 
L 460.195608 1584.110558 
L 468.674938 1584.110558 
L 481.547109 1584.110558 
L 489.275152 1584.110558 
L 497.123548 1575.386028 
L 515.477195 1557.876029 
" clip-path="url(#pad43b42baf)" style="fill: none; stroke: #44aa99; stroke-width: 5; stroke-linecap: round"/>
   </g>
   <g id="line2d_12">
    <path d="M 177.3525 1501.105131 
L 180.193532 1560.074199 
L 183.036387 1484.737447 
L 184.566313 1455.951163 
L 187.210405 1427.427807 
L 189.697676 1387.05745 
L 192.372768 1343.729729 
L 195.029624 1310.638613 
L 198.317416 1267.274124 
L 200.83751 1281.502381 
L 202.943666 1310.000336 
L 205.802933 1348.625812 
L 208.12244 1351.462863 
L 211.043706 1357.717375 
L 213.315802 1355.026631 
L 219.736387 1375.269991 
L 221.275431 1377.071131 
L 223.901288 1393.911878 
L 226.487028 1414.817309 
L 229.111062 1424.341497 
L 231.9138 1431.718647 
L 234.807713 1462.34663 
L 240.106839 1485.657619 
L 244.928204 1488.150026 
L 247.586885 1505.173441 
L 250.489915 1538.430844 
L 255.561102 1584.110558 
L 258.954658 1584.110558 
L 260.902168 1579.716808 
L 263.425909 1580.88949 
L 265.938708 1575.569151 
L 268.655741 1573.223163 
L 274.253923 1584.110558 
L 276.580724 1573.045742 
L 282.146082 1578.945208 
L 284.604176 1584.110558 
L 287.204504 1579.330003 
L 294.883313 1584.110558 
L 300.228026 1584.110558 
L 303.180292 1582.281505 
L 305.521681 1559.187088 
L 308.40283 1584.110558 
L 313.329959 1584.110558 
L 316.528399 1581.681721 
L 321.23306 1584.110558 
L 331.85137 1569.583762 
L 334.672343 1582.281505 
L 342.498856 1584.110558 
L 349.743668 1576.491614 
L 353.266693 1584.110558 
L 355.868845 1581.681721 
L 360.642799 1584.110558 
L 368.449254 1579.330003 
L 371.058699 1584.110558 
L 379.384854 1577.050658 
L 386.883135 1584.110558 
L 389.755167 1582.281505 
L 392.563375 1579.330003 
L 398.498906 1584.110558 
L 405.519427 1584.110558 
L 407.888169 1574.839362 
L 410.393674 1582.281505 
L 416.3055 1573.223163 
L 423.625077 1579.330003 
L 426.591931 1584.110558 
L 431.626647 1584.110558 
L 434.681029 1582.281505 
L 441.885725 1584.110558 
L 460.195608 1584.110558 
L 468.674938 1584.110558 
L 481.547109 1582.281505 
L 489.275152 1559.629315 
L 497.123548 1584.110558 
L 515.477195 1584.110558 
" clip-path="url(#pad43b42baf)" style="fill: none; stroke: #000000; stroke-width: 2; stroke-linecap: round"/>
   </g>
   <g id="patch_9">
    <path d="M 177.3525 1605.42 
L 177.3525 1175.12 
" style="fill: none; stroke: #262626; stroke-width: 2.5; stroke-linejoin: miter; stroke-linecap: square"/>
   </g>
   <g id="patch_10">
    <path d="M 177.3525 1605.42 
L 544.9725 1605.42 
" style="fill: none; stroke: #262626; stroke-width: 2.5; stroke-linejoin: miter; stroke-linecap: square"/>
   </g>
  </g>
  <g id="axes_4">
   <g id="patch_11">
    <path d="M 177.3525 2147.46 
L 544.9725 2147.46 
L 544.9725 1717.16 
L 177.3525 1717.16 
z
" style="fill: #ffffff"/>
   </g>
   <g id="matplotlib.axis_7">
    <g id="xtick_10">
     <g id="text_10">
      <!-- 0 -->
      <g style="fill: #262626" transform="translate(165.118437 2194.954375) scale(0.44 -0.44)">
       <use xlink:href="#ArialMT-30"/>
      </g>
     </g>
    </g>
    <g id="xtick_11">
     <g id="text_11">
      <!-- 70 -->
      <g style="fill: #262626" transform="translate(336.694375 2194.954375) scale(0.44 -0.44)">
       <defs>
        <path id="ArialMT-37" d="M 303 3981 
L 303 4522 
L 3269 4522 
L 3269 4084 
Q 2831 3619 2401 2847 
Q 1972 2075 1738 1259 
Q 1569 684 1522 0 
L 944 0 
Q 953 541 1156 1306 
Q 1359 2072 1739 2783 
Q 2119 3494 2547 3981 
L 303 3981 
z
" transform="scale(0.015625)"/>
       </defs>
       <use xlink:href="#ArialMT-37"/>
       <use xlink:href="#ArialMT-30" x="55.615234"/>
      </g>
     </g>
    </g>
    <g id="xtick_12">
     <g id="text_12">
      <!-- 140 -->
      <g style="fill: #262626" transform="translate(508.270312 2194.954375) scale(0.44 -0.44)">
       <defs>
        <path id="ArialMT-34" d="M 2069 0 
L 2069 1097 
L 81 1097 
L 81 1613 
L 2172 4581 
L 2631 4581 
L 2631 1613 
L 3250 1613 
L 3250 1097 
L 2631 1097 
L 2631 0 
L 2069 0 
z
M 2069 1613 
L 2069 3678 
L 634 1613 
L 2069 1613 
z
" transform="scale(0.015625)"/>
       </defs>
       <use xlink:href="#ArialMT-31"/>
       <use xlink:href="#ArialMT-34" x="55.615234"/>
       <use xlink:href="#ArialMT-30" x="111.230469"/>
      </g>
     </g>
    </g>
    <g id="text_13">
     <!-- day -->
     <g style="fill: #262626" transform="translate(322.47 2243.056875) scale(0.48 -0.48)">
      <defs>
       <path id="ArialMT-64" d="M 2575 0 
L 2575 419 
Q 2259 -75 1647 -75 
Q 1250 -75 917 144 
Q 584 363 401 755 
Q 219 1147 219 1656 
Q 219 2153 384 2558 
Q 550 2963 881 3178 
Q 1213 3394 1622 3394 
Q 1922 3394 2156 3267 
Q 2391 3141 2538 2938 
L 2538 4581 
L 3097 4581 
L 3097 0 
L 2575 0 
z
M 797 1656 
Q 797 1019 1065 703 
Q 1334 388 1700 388 
Q 2069 388 2326 689 
Q 2584 991 2584 1609 
Q 2584 2291 2321 2609 
Q 2059 2928 1675 2928 
Q 1300 2928 1048 2622 
Q 797 2316 797 1656 
z
" transform="scale(0.015625)"/>
       <path id="ArialMT-61" d="M 2588 409 
Q 2275 144 1986 34 
Q 1697 -75 1366 -75 
Q 819 -75 525 192 
Q 231 459 231 875 
Q 231 1119 342 1320 
Q 453 1522 633 1644 
Q 813 1766 1038 1828 
Q 1203 1872 1538 1913 
Q 2219 1994 2541 2106 
Q 2544 2222 2544 2253 
Q 2544 2597 2384 2738 
Q 2169 2928 1744 2928 
Q 1347 2928 1158 2789 
Q 969 2650 878 2297 
L 328 2372 
Q 403 2725 575 2942 
Q 747 3159 1072 3276 
Q 1397 3394 1825 3394 
Q 2250 3394 2515 3294 
Q 2781 3194 2906 3042 
Q 3031 2891 3081 2659 
Q 3109 2516 3109 2141 
L 3109 1391 
Q 3109 606 3145 398 
Q 3181 191 3288 0 
L 2700 0 
Q 2613 175 2588 409 
z
M 2541 1666 
Q 2234 1541 1622 1453 
Q 1275 1403 1131 1340 
Q 988 1278 909 1158 
Q 831 1038 831 891 
Q 831 666 1001 516 
Q 1172 366 1500 366 
Q 1825 366 2078 508 
Q 2331 650 2450 897 
Q 2541 1088 2541 1459 
L 2541 1666 
z
" transform="scale(0.015625)"/>
       <path id="ArialMT-79" d="M 397 -1278 
L 334 -750 
Q 519 -800 656 -800 
Q 844 -800 956 -737 
Q 1069 -675 1141 -563 
Q 1194 -478 1313 -144 
Q 1328 -97 1363 -6 
L 103 3319 
L 709 3319 
L 1400 1397 
Q 1534 1031 1641 628 
Q 1738 1016 1872 1384 
L 2581 3319 
L 3144 3319 
L 1881 -56 
Q 1678 -603 1566 -809 
Q 1416 -1088 1222 -1217 
Q 1028 -1347 759 -1347 
Q 597 -1347 397 -1278 
z
" transform="scale(0.015625)"/>
      </defs>
      <use xlink:href="#ArialMT-64"/>
      <use xlink:href="#ArialMT-61" x="55.615234"/>
      <use xlink:href="#ArialMT-79" x="111.230469"/>
     </g>
    </g>
   </g>
   <g id="matplotlib.axis_8">
    <g id="ytick_76">
     <g id="text_14">
      <!-- $\mathdefault{10^{-1}}$ -->
      <g style="fill: #262626" transform="translate(74.2325 2076.593257) scale(0.44 -0.44)">
       <use xlink:href="#ArialMT-31" transform="translate(0 0.99375)"/>
       <use xlink:href="#ArialMT-30" transform="translate(55.615234 0.99375)"/>
       <use xlink:href="#ArialMT-2212" transform="translate(112.972813 70.6875) scale(0.7)"/>
       <use xlink:href="#ArialMT-31" transform="translate(153.851719 70.6875) scale(0.7)"/>
      </g>
     </g>
    </g>
    <g id="ytick_77">
     <g id="text_15">
      <!-- $\mathdefault{10^{0}}$ -->
      <g style="fill: #262626" transform="translate(92.2725 1906.034128) scale(0.44 -0.44)">
       <use xlink:href="#ArialMT-31" transform="translate(0 0.99375)"/>
       <use xlink:href="#ArialMT-30" transform="translate(55.615234 0.99375)"/>
       <use xlink:href="#ArialMT-30" transform="translate(112.972813 70.6875) scale(0.7)"/>
      </g>
     </g>
    </g>
    <g id="ytick_78"/>
    <g id="ytick_79"/>
    <g id="ytick_80"/>
    <g id="ytick_81"/>
    <g id="ytick_82"/>
    <g id="ytick_83"/>
    <g id="ytick_84"/>
    <g id="ytick_85"/>
    <g id="ytick_86"/>
    <g id="ytick_87"/>
    <g id="ytick_88"/>
    <g id="ytick_89"/>
    <g id="ytick_90"/>
    <g id="ytick_91"/>
    <g id="ytick_92"/>
    <g id="ytick_93"/>
    <g id="ytick_94"/>
    <g id="ytick_95"/>
    <g id="ytick_96"/>
    <g id="ytick_97"/>
    <g id="ytick_98"/>
    <g id="ytick_99"/>
    <g id="ytick_100"/>
    <g id="text_16">
     <!-- FL -->
     <g style="fill: #262626" transform="translate(59.6925 1960.315) rotate(-90) scale(0.48 -0.48)">
      <use xlink:href="#ArialMT-46"/>
      <use xlink:href="#ArialMT-4c" x="61.083984"/>
     </g>
    </g>
   </g>
   <g id="line2d_13">
    <path d="M 177.3525 2053.266585 
L 180.193532 2087.942787 
L 183.036387 2053.962111 
L 184.566313 2066.082615 
L 187.210405 2071.193116 
L 189.697676 2067.747244 
L 192.372768 2059.77473 
L 195.029624 2122.53653 
L 195.029624 2069.450144 
L 195.029624 2066.082615 
L 198.317416 2073.886972 
L 200.83751 2036.599373 
L 202.943666 2094.892213 
L 202.943666 2072.080227 
L 202.943666 2066.910253 
L 205.802933 2089.056686 
L 205.802933 2054.664229 
L 205.802933 2051.218357 
L 208.12244 2074.807144 
L 208.12244 2070.316503 
L 208.12244 2059.77473 
L 211.043706 2089.056686 
L 211.043706 2084.6982 
L 211.043706 2078.606587 
L 213.315802 2120.793558 
L 213.315802 2106.716479 
L 213.315802 2074.807144 
L 219.736387 2070.316503 
L 221.275431 2074.807144 
L 221.275431 2062.861547 
L 221.275431 2059.022714 
L 223.901288 2090.187592 
L 223.901288 2083.647503 
L 223.901288 2077.6383 
L 226.487028 2094.892213 
L 226.487028 2079.587699 
L 226.487028 2062.077699 
L 229.111062 2098.627772 
L 229.111062 2055.373065 
L 229.111062 2054.664229 
L 231.9138 2093.687749 
L 231.9138 2072.978091 
L 231.9138 2032.827575 
L 234.807713 2087.942787 
L 234.807713 2078.606587 
L 234.807713 2071.193116 
L 240.106839 2099.916029 
L 240.106839 2062.861547 
L 240.106839 2051.894826 
L 244.928204 2087.942787 
L 244.928204 2069.450144 
L 244.928204 2068.5938 
L 247.586885 2126.150558 
L 247.586885 2089.056686 
L 247.586885 2083.647503 
L 250.489915 2089.056686 
L 250.489915 2089.056686 
L 250.489915 2078.606587 
L 255.561102 2086.845391 
L 258.954658 2126.150558 
L 260.902168 2090.187592 
L 260.902168 2083.647503 
L 260.902168 2083.647503 
L 263.425909 2086.845391 
L 263.425909 2082.611502 
L 263.425909 2060.534458 
L 265.938708 2126.150558 
L 265.938708 2093.687749 
L 265.938708 2083.647503 
L 268.655741 2101.227088 
L 268.655741 2069.450144 
L 268.655741 2057.541207 
L 274.253923 2126.150558 
L 276.580724 2126.150558 
L 276.580724 2108.154833 
L 276.580724 2072.080227 
L 282.146082 2106.716479 
L 282.146082 2099.916029 
L 282.146082 2059.022714 
L 284.604176 2093.687749 
L 287.204504 2087.942787 
L 294.883313 2126.150558 
L 300.228026 2089.056686 
L 303.180292 2079.587699 
L 305.521681 2105.305524 
L 308.40283 2087.942787 
L 313.329959 2126.150558 
L 316.528399 2044.773173 
L 321.23306 2043.548799 
L 331.85137 2062.077699 
L 334.672343 2112.645474 
L 342.498856 2106.716479 
L 349.743668 2061.30206 
L 353.266693 2062.077699 
L 355.868845 2112.645474 
L 360.642799 2051.218357 
L 368.449254 2074.807144 
L 371.058699 2077.6383 
L 379.384854 2078.606587 
L 386.883135 2045.393033 
L 389.755167 2081.589791 
L 392.563375 2072.978091 
L 398.498906 2126.150558 
L 405.519427 2087.942787 
L 407.888169 2126.150558 
L 410.393674 2089.056686 
L 416.3055 2098.627772 
L 423.625077 2073.886972 
L 426.591931 2126.150558 
L 431.626647 2065.264121 
L 434.681029 2072.978091 
L 441.885725 2092.502558 
L 460.195608 2066.082615 
L 468.674938 2087.942787 
L 481.547109 2048.572615 
L 489.275152 2083.647503 
L 497.123548 2085.764016 
L 515.477195 2066.082615 
" clip-path="url(#p9cd156d16d)" style="fill: none; stroke: #332288; stroke-width: 5; stroke-linecap: round"/>
   </g>
   <g id="line2d_14">
    <path d="M 177.3525 2023.928139 
L 180.193532 2101.227088 
L 183.036387 2052.57753 
L 184.566313 2062.861547 
L 187.210405 2090.187592 
L 189.697676 2059.022714 
L 192.372768 2079.587699 
L 195.029624 2089.056686 
L 195.029624 2079.587699 
L 195.029624 2052.57753 
L 198.317416 2074.807144 
L 200.83751 2046.018124 
L 202.943666 2058.278257 
L 202.943666 2051.894826 
L 202.943666 2047.284358 
L 205.802933 2073.886972 
L 205.802933 2057.541207 
L 205.802933 2056.088751 
L 208.12244 2079.587699 
L 208.12244 2066.082615 
L 208.12244 2062.861547 
L 211.043706 2083.647503 
L 211.043706 2074.807144 
L 211.043706 2071.193116 
L 213.315802 2070.316503 
L 213.315802 2055.373065 
L 213.315802 2051.894826 
L 219.736387 2051.894826 
L 221.275431 2082.611502 
L 221.275431 2064.454574 
L 221.275431 2055.373065 
L 223.901288 2097.361538 
L 223.901288 2066.082615 
L 223.901288 2062.077699 
L 226.487028 2062.861547 
L 226.487028 2042.944119 
L 226.487028 2037.713272 
L 229.111062 2114.20496 
L 229.111062 2084.6982 
L 229.111062 2066.082615 
L 231.9138 2126.150558 
L 231.9138 2114.20496 
L 231.9138 2106.716479 
L 234.807713 2089.056686 
L 234.807713 2062.861547 
L 234.807713 2039.416172 
L 240.106839 2089.056686 
L 240.106839 2074.807144 
L 240.106839 2062.861547 
L 244.928204 2099.916029 
L 244.928204 2093.687749 
L 244.928204 2059.022714 
L 247.586885 2126.150558 
L 247.586885 2114.20496 
L 247.586885 2094.892213 
L 250.489915 2114.20496 
L 250.489915 2089.056686 
L 250.489915 2066.910253 
L 255.561102 2103.920944 
L 258.954658 2126.150558 
L 260.902168 2073.886972 
L 260.902168 2070.316503 
L 260.902168 2070.316503 
L 263.425909 2106.716479 
L 263.425909 2093.687749 
L 263.425909 2067.747244 
L 265.938708 2122.53653 
L 265.938708 2082.611502 
L 265.938708 2069.450144 
L 268.655741 2126.150558 
L 268.655741 2112.645474 
L 268.655741 2055.373065 
L 274.253923 2126.150558 
L 276.580724 2126.150558 
L 276.580724 2101.227088 
L 276.580724 2059.77473 
L 282.146082 2126.150558 
L 282.146082 2099.916029 
L 282.146082 2083.647503 
L 284.604176 2079.587699 
L 287.204504 2114.20496 
L 294.883313 2078.606587 
L 300.228026 2101.227088 
L 303.180292 2070.316503 
L 305.521681 2087.942787 
L 308.40283 2093.687749 
L 313.329959 2062.077699 
L 316.528399 2081.589791 
L 321.23306 2070.316503 
L 331.85137 2065.264121 
L 334.672343 2061.30206 
L 342.498856 2114.20496 
L 349.743668 2073.886972 
L 353.266693 2069.450144 
L 355.868845 2109.621671 
L 360.642799 2068.5938 
L 368.449254 2098.627772 
L 371.058699 2099.916029 
L 379.384854 2068.5938 
L 386.883135 2077.6383 
L 389.755167 2051.894826 
L 392.563375 2035.501977 
L 398.498906 2077.6383 
L 405.519427 2078.606587 
L 407.888169 2056.811419 
L 410.393674 2069.450144 
L 416.3055 2086.845391 
L 423.625077 2074.807144 
L 426.591931 2082.611502 
L 431.626647 2074.807144 
L 434.681029 2060.534458 
L 441.885725 2061.30206 
L 460.195608 2037.154229 
L 468.674938 2054.664229 
L 481.547109 2066.082615 
L 489.275152 2106.716479 
L 497.123548 2062.077699 
L 515.477195 2078.606587 
" clip-path="url(#p9cd156d16d)" style="fill: none; stroke: #332288; stroke-width: 5; stroke-linecap: round"/>
   </g>
   <g id="line2d_15">
    <path d="M 177.3525 2015.151864 
L 180.193532 2094.892213 
L 183.036387 2083.647503 
L 184.566313 2062.077699 
L 187.210405 2062.861547 
L 189.697676 2049.883674 
L 192.372768 2061.30206 
L 195.029624 2070.316503 
L 195.029624 2052.57753 
L 195.029624 2045.393033 
L 198.317416 2070.316503 
L 200.83751 2030.246377 
L 202.943666 2079.587699 
L 202.943666 2075.738891 
L 202.943666 2063.653778 
L 205.802933 2083.647503 
L 205.802933 2073.886972 
L 205.802933 2066.082615 
L 208.12244 2090.187592 
L 208.12244 2070.316503 
L 208.12244 2062.077699 
L 211.043706 2114.20496 
L 211.043706 2099.916029 
L 211.043706 2066.910253 
L 213.315802 2083.647503 
L 213.315802 2066.082615 
L 213.315802 2059.77473 
L 219.736387 2062.861547 
L 221.275431 2126.150558 
L 221.275431 2093.687749 
L 221.275431 2079.587699 
L 223.901288 2093.687749 
L 223.901288 2083.647503 
L 223.901288 2078.606587 
L 226.487028 2106.716479 
L 226.487028 2087.942787 
L 226.487028 2061.30206 
L 229.111062 2099.916029 
L 229.111062 2074.807144 
L 229.111062 2062.861547 
L 231.9138 2098.627772 
L 231.9138 2093.687749 
L 231.9138 2083.647503 
L 234.807713 2106.716479 
L 234.807713 2094.892213 
L 234.807713 2058.278257 
L 240.106839 2074.807144 
L 240.106839 2061.30206 
L 240.106839 2059.77473 
L 244.928204 2126.150558 
L 244.928204 2073.886972 
L 244.928204 2062.861547 
L 247.586885 2114.20496 
L 247.586885 2083.647503 
L 247.586885 2049.225244 
L 250.489915 2126.150558 
L 250.489915 2126.150558 
L 250.489915 2114.20496 
L 255.561102 2119.090658 
L 258.954658 2126.150558 
L 260.902168 2099.916029 
L 260.902168 2093.687749 
L 260.902168 2072.978091 
L 263.425909 2092.502558 
L 263.425909 2082.611502 
L 263.425909 2069.450144 
L 265.938708 2098.627772 
L 265.938708 2078.606587 
L 265.938708 2069.450144 
L 268.655741 2108.154833 
L 268.655741 2084.6982 
L 268.655741 2049.225244 
L 274.253923 2126.150558 
L 276.580724 2090.187592 
L 276.580724 2087.942787 
L 276.580724 2078.606587 
L 282.146082 2078.606587 
L 282.146082 2062.861547 
L 282.146082 2059.022714 
L 284.604176 2089.056686 
L 287.204504 2082.611502 
L 294.883313 2083.647503 
L 300.228026 2115.797987 
L 303.180292 2094.892213 
L 305.521681 2093.687749 
L 308.40283 2126.150558 
L 313.329959 2051.218357 
L 316.528399 2082.611502 
L 321.23306 2063.653778 
L 331.85137 2051.894826 
L 334.672343 2087.942787 
L 342.498856 2078.606587 
L 349.743668 2077.6383 
L 353.266693 2099.916029 
L 355.868845 2092.502558 
L 360.642799 2078.606587 
L 368.449254 2063.653778 
L 371.058699 2037.713272 
L 379.384854 2048.572615 
L 386.883135 2069.450144 
L 389.755167 2067.747244 
L 392.563375 2076.682507 
L 398.498906 2068.5938 
L 405.519427 2094.892213 
L 407.888169 2092.502558 
L 410.393674 2087.942787 
L 416.3055 2060.534458 
L 423.625077 2099.916029 
L 426.591931 2087.942787 
L 431.626647 2120.793558 
L 434.681029 2057.541207 
L 441.885725 2061.30206 
L 460.195608 2105.305524 
L 468.674938 2112.645474 
L 481.547109 2077.6383 
L 489.275152 2106.716479 
L 497.123548 2066.910253 
L 515.477195 2039.992618 
" clip-path="url(#p9cd156d16d)" style="fill: none; stroke: #332288; stroke-width: 5; stroke-linecap: round"/>
   </g>
   <g id="line2d_16">
    <path d="M 177.3525 2043.145131 
L 180.193532 2102.114199 
L 183.036387 2026.777447 
L 184.566313 1997.991163 
L 187.210405 1969.467807 
L 189.697676 1929.09745 
L 192.372768 1885.769729 
L 195.029624 1852.678613 
L 198.317416 1809.314124 
L 200.83751 1823.542381 
L 202.943666 1852.040336 
L 205.802933 1890.665812 
L 208.12244 1893.502863 
L 211.043706 1899.757375 
L 213.315802 1897.066631 
L 219.736387 1917.309991 
L 221.275431 1919.111131 
L 223.901288 1935.951878 
L 226.487028 1956.857309 
L 229.111062 1966.381497 
L 231.9138 1973.758647 
L 234.807713 2004.38663 
L 240.106839 2027.697619 
L 244.928204 2030.190026 
L 247.586885 2047.213441 
L 250.489915 2080.470844 
L 255.561102 2126.150558 
L 258.954658 2126.150558 
L 260.902168 2121.756808 
L 263.425909 2122.92949 
L 265.938708 2117.609151 
L 268.655741 2115.263163 
L 274.253923 2126.150558 
L 276.580724 2115.085742 
L 282.146082 2120.985208 
L 284.604176 2126.150558 
L 287.204504 2121.370003 
L 294.883313 2126.150558 
L 300.228026 2126.150558 
L 303.180292 2124.321505 
L 305.521681 2101.227088 
L 308.40283 2126.150558 
L 313.329959 2126.150558 
L 316.528399 2123.721721 
L 321.23306 2126.150558 
L 331.85137 2111.623762 
L 334.672343 2124.321505 
L 342.498856 2126.150558 
L 349.743668 2118.531614 
L 353.266693 2126.150558 
L 355.868845 2123.721721 
L 360.642799 2126.150558 
L 368.449254 2121.370003 
L 371.058699 2126.150558 
L 379.384854 2119.090658 
L 386.883135 2126.150558 
L 389.755167 2124.321505 
L 392.563375 2121.370003 
L 398.498906 2126.150558 
L 405.519427 2126.150558 
L 407.888169 2116.879362 
L 410.393674 2124.321505 
L 416.3055 2115.263163 
L 423.625077 2121.370003 
L 426.591931 2126.150558 
L 431.626647 2126.150558 
L 434.681029 2124.321505 
L 441.885725 2126.150558 
L 460.195608 2126.150558 
L 468.674938 2126.150558 
L 481.547109 2124.321505 
L 489.275152 2101.669315 
L 497.123548 2126.150558 
L 515.477195 2126.150558 
" clip-path="url(#p9cd156d16d)" style="fill: none; stroke: #000000; stroke-width: 2; stroke-linecap: round"/>
   </g>
   <g id="patch_12">
    <path d="M 177.3525 2147.46 
L 177.3525 1717.16 
" style="fill: none; stroke: #262626; stroke-width: 2.5; stroke-linejoin: miter; stroke-linecap: square"/>
   </g>
   <g id="patch_13">
    <path d="M 177.3525 2147.46 
L 544.9725 2147.46 
" style="fill: none; stroke: #262626; stroke-width: 2.5; stroke-linejoin: miter; stroke-linecap: square"/>
   </g>
  </g>
 </g>
 <defs>
  <clipPath id="pb6aec66d79">
   <rect x="177.3525" y="91.04" width="367.62" height="430.3"/>
  </clipPath>
  <clipPath id="p32bf7e513a">
   <rect x="177.3525" y="633.08" width="367.62" height="430.3"/>
  </clipPath>
  <clipPath id="pad43b42baf">
   <rect x="177.3525" y="1175.12" width="367.62" height="430.3"/>
  </clipPath>
  <clipPath id="p9cd156d16d">
   <rect x="177.3525" y="1717.16" width="367.62" height="430.3"/>
  </clipPath>
 </defs>
</svg>
