<?xml version="1.0" encoding="utf-8" standalone="no"?>
<!DOCTYPE svg PUBLIC "-//W3C//DTD SVG 1.1//EN"
  "http://www.w3.org/Graphics/SVG/1.1/DTD/svg11.dtd">
<svg xmlns:xlink="http://www.w3.org/1999/xlink" width="315.46125pt" height="209.175375pt" viewBox="0 0 315.46125 209.175375" xmlns="http://www.w3.org/2000/svg" version="1.1">
 <metadata>
  <rdf:RDF xmlns:dc="http://purl.org/dc/elements/1.1/" xmlns:cc="http://creativecommons.org/ns#" xmlns:rdf="http://www.w3.org/1999/02/22-rdf-syntax-ns#">
   <cc:Work>
    <dc:type rdf:resource="http://purl.org/dc/dcmitype/StillImage"/>
    <dc:date>2024-11-25T11:07:10.782652</dc:date>
    <dc:format>image/svg+xml</dc:format>
    <dc:creator>
     <cc:Agent>
      <dc:title>Matplotlib v3.8.0, https://matplotlib.org/</dc:title>
     </cc:Agent>
    </dc:creator>
   </cc:Work>
  </rdf:RDF>
 </metadata>
 <defs>
  <style type="text/css">*{stroke-linejoin: round; stroke-linecap: butt}</style>
 </defs>
 <g id="figure_1">
  <g id="patch_1">
   <path d="M 0 209.175375 
L 315.46125 209.175375 
L 315.46125 0 
L 0 0 
L 0 209.175375 
z
" style="fill: none"/>
  </g>
  <g id="axes_1">
   <g id="patch_2">
    <path d="M 47.2035 171.2355 
L 308.26125 171.2355 
L 308.26125 19.0715 
L 47.2035 19.0715 
L 47.2035 171.2355 
z
" style="fill: none"/>
   </g>
   <g id="matplotlib.axis_1">
    <g id="xtick_1">
     <g id="text_1">
      <text style="fill: #262626; font: 8.8px 'Arial', 'DejaVu Sans', 'Liberation Sans', 'Bitstream Vera Sans', sans-serif; text-anchor: middle" x="47.2035" y="186.334375" transform="rotate(-0 47.2035 186.334375)">0</text>
     </g>
    </g>
    <g id="xtick_2">
     <g id="text_2">
      <text style="fill: #262626; font: 8.8px 'Arial', 'DejaVu Sans', 'Liberation Sans', 'Bitstream Vera Sans', sans-serif; text-anchor: middle" x="159.085393" y="186.334375" transform="rotate(-0 159.085393 186.334375)">60</text>
     </g>
    </g>
    <g id="xtick_3">
     <g id="text_3">
      <text style="fill: #262626; font: 8.8px 'Arial', 'DejaVu Sans', 'Liberation Sans', 'Bitstream Vera Sans', sans-serif; text-anchor: middle" x="270.967286" y="186.334375" transform="rotate(-0 270.967286 186.334375)">120</text>
     </g>
    </g>
    <g id="text_4">
     <text style="fill: #262626; font: 9.6px 'Arial', 'DejaVu Sans', 'Liberation Sans', 'Bitstream Vera Sans', sans-serif; text-anchor: middle" x="177.732375" y="199.954875" transform="rotate(-0 177.732375 199.954875)">day</text>
    </g>
   </g>
   <g id="matplotlib.axis_2">
    <g id="ytick_1">
     <g id="text_5">
      <!-- $\mathdefault{10^{-1}}$ -->
      <g style="fill: #262626" transform="translate(20.9795 143.36178)">
       <text>
        <tspan style="font: 8.8px 'Arial'" x="0 4.892395" y="-0.4372624999999992">10</tspan>
        <tspan style="font: 6.16px 'Arial'" x="9.938116 13.534183" y="-6.570312499999999">−1</tspan>
       </text>
      </g>
     </g>
    </g>
    <g id="ytick_2">
     <g id="text_6">
      <!-- $\mathdefault{10^{0}}$ -->
      <g style="fill: #262626" transform="translate(24.5875 83.04814)">
       <text>
        <tspan style="font: 8.8px 'Arial'" x="0 4.892395" y="-0.4372624999999992">10</tspan>
        <tspan style="font: 6.16px 'Arial'" x="9.938116" y="-6.570312499999999">0</tspan>
       </text>
      </g>
     </g>
    </g>
    <g id="ytick_3">
     <g id="text_7">
      <!-- $\mathdefault{10^{1}}$ -->
      <g style="fill: #262626" transform="translate(24.5875 22.7345)">
       <text>
        <tspan style="font: 8.8px 'Arial'" x="0 4.892395" y="-0.4372624999999992">10</tspan>
        <tspan style="font: 6.16px 'Arial'" x="9.938116" y="-6.570312499999999">1</tspan>
       </text>
      </g>
     </g>
    </g>
    <g id="ytick_4"/>
    <g id="ytick_5"/>
    <g id="ytick_6"/>
    <g id="ytick_7"/>
    <g id="ytick_8"/>
    <g id="ytick_9"/>
    <g id="ytick_10"/>
    <g id="ytick_11"/>
    <g id="ytick_12"/>
    <g id="ytick_13"/>
    <g id="ytick_14"/>
    <g id="ytick_15"/>
    <g id="ytick_16"/>
    <g id="ytick_17"/>
    <g id="ytick_18"/>
    <g id="ytick_19"/>
    <g id="ytick_20"/>
    <g id="ytick_21"/>
    <g id="ytick_22"/>
    <g id="ytick_23"/>
    <g id="ytick_24"/>
    <g id="ytick_25"/>
    <g id="ytick_26"/>
    <g id="text_8">
     <text style="fill: #262626; font: 9.6px 'Arial', 'DejaVu Sans', 'Liberation Sans', 'Bitstream Vera Sans', sans-serif; text-anchor: middle" x="14.0715" y="95.1535" transform="rotate(-90 14.0715 95.1535)">Fluorescence</text>
    </g>
   </g>
   <g id="line2d_1">
    <path d="M 47.2035 131.644562 
L 49.221 153.079285 
L 51.239795 157.336287 
L 52.32624 163.69999 
L 54.203888 156.328706 
L 55.970171 162.421986 
L 57.869833 163.69999 
L 59.756545 154.422856 
L 59.756545 152.646319 
L 59.756545 152.220393 
L 62.091302 138.92452 
L 63.880895 127.224358 
L 65.376538 123.726653 
L 65.376538 116.986053 
L 65.376538 116.333889 
L 67.406987 111.097071 
L 67.406987 109.231346 
L 67.406987 103.715837 
L 69.054137 97.593795 
L 69.054137 94.807761 
L 69.054137 94.432887 
L 71.128614 80.075191 
L 71.128614 79.569142 
L 71.128614 78.712802 
L 72.742096 69.943091 
L 72.742096 69.544283 
L 72.742096 68.992438 
L 77.301542 61.518654 
L 78.394462 64.771573 
L 78.394462 62.558713 
L 78.394462 62.462437 
L 80.259161 66.910718 
L 80.259161 66.910718 
L 80.259161 65.563081 
L 82.09537 68.503797 
L 82.09537 68.058079 
L 82.09537 66.31556 
L 83.958774 70.515556 
L 83.958774 69.997947 
L 83.958774 69.670519 
L 85.94908 59.530226 
L 85.94908 57.911925 
L 85.94908 57.590805 
L 88.004133 67.304126 
L 88.004133 65.764752 
L 88.004133 64.458584 
L 91.767197 74.500516 
L 91.767197 74.457077 
L 91.767197 73.0009 
L 95.190991 70.32952 
L 95.190991 68.417491 
L 95.190991 67.63654 
L 97.078998 69.979649 
L 97.078998 68.262853 
L 97.078998 67.090297 
L 99.140525 72.674493 
L 99.140525 72.352102 
L 99.140525 69.742928 
L 102.741723 68.400264 
L 105.151587 71.35019 
L 106.534571 74.026601 
L 106.534571 72.796419 
L 106.534571 72.013855 
L 108.326754 75.701465 
L 108.326754 74.047957 
L 108.326754 73.269135 
L 110.111166 71.253994 
L 110.111166 70.609073 
L 110.111166 70.534233 
L 112.040611 72.112887 
L 112.040611 71.100813 
L 112.040611 70.834883 
L 116.016044 73.083142 
L 117.668374 41.343343 
L 117.668374 40.839424 
L 117.668374 40.180312 
L 121.620498 75.160901 
L 121.620498 73.624099 
L 121.620498 73.603085 
L 123.366063 75.907087 
L 125.212632 77.417784 
L 130.665579 88.35629 
L 134.461017 98.884925 
L 136.557508 101.98391 
L 138.220197 107.566424 
L 140.266185 104.937535 
L 143.765084 93.294833 
L 146.03639 91.280574 
L 149.377308 81.483952 
L 156.917681 78.082201 
L 158.920937 77.784822 
L 164.478773 95.720197 
L 169.623528 95.525446 
L 172.125331 96.313292 
L 173.973195 99.050885 
L 177.36332 96.614952 
L 182.906913 101.491991 
L 184.759956 94.201286 
L 190.672604 98.995448 
L 195.997353 85.692587 
L 198.036867 81.173628 
L 200.031058 93.971715 
L 204.246053 103.320947 
L 209.231531 103.451917 
L 210.913644 103.255707 
L 212.692877 114.072622 
L 216.891037 106.365348 
L 222.088884 112.449895 
L 224.195734 114.469506 
L 227.771034 115.907963 
L 229.94004 113.105948 
L 235.056306 112.449895 
L 248.058691 125.341353 
L 254.080113 126.42326 
L 263.221019 127.883359 
L 268.708929 122.748634 
L 274.282305 137.441451 
L 287.315768 139.180072 
" clip-path="url(#p56fe985484)" style="fill: none; stroke: #882255; stroke-width: 3; stroke-linecap: round"/>
   </g>
   <g id="line2d_2">
    <path d="M 47.2035 139.180072 
L 49.221 148.66993 
L 51.239795 157.336287 
L 52.32624 163.69999 
L 54.203888 163.69999 
L 55.970171 147.23429 
L 57.869833 163.69999 
L 59.756545 163.69999 
L 59.756545 163.69999 
L 59.756545 158.924281 
L 62.091302 152.220393 
L 63.880895 136.497426 
L 65.376538 136.497426 
L 65.376538 135.363314 
L 65.376538 132.625721 
L 67.406987 119.526657 
L 67.406987 118.341211 
L 67.406987 117.995792 
L 69.054137 109.149618 
L 69.054137 106.734802 
L 69.054137 104.523939 
L 71.128614 94.760607 
L 71.128614 92.375655 
L 71.128614 91.949035 
L 72.742096 81.941999 
L 72.742096 81.884303 
L 72.742096 81.117598 
L 77.301542 58.64917 
L 78.394462 52.877863 
L 78.394462 51.915053 
L 78.394462 51.460129 
L 80.259161 45.065317 
L 80.259161 44.826166 
L 80.259161 44.596118 
L 82.09537 53.242205 
L 82.09537 51.004105 
L 82.09537 50.261276 
L 83.958774 53.956672 
L 83.958774 53.729457 
L 83.958774 53.572548 
L 85.94908 55.945211 
L 85.94908 55.583763 
L 85.94908 55.050775 
L 88.004133 65.179562 
L 88.004133 63.598735 
L 88.004133 62.489908 
L 91.767197 70.986513 
L 91.767197 70.236994 
L 91.767197 69.347134 
L 95.190991 70.348064 
L 95.190991 69.851918 
L 95.190991 69.616344 
L 97.078998 71.50484 
L 97.078998 70.986513 
L 97.078998 70.646573 
L 99.140525 75.747019 
L 99.140525 74.631268 
L 99.140525 74.631268 
L 102.741723 61.399741 
L 105.151587 71.797294 
L 106.534571 76.463438 
L 106.534571 73.248403 
L 106.534571 72.593522 
L 108.326754 77.612897 
L 108.326754 77.272396 
L 108.326754 76.44002 
L 110.111166 74.565811 
L 110.111166 73.941348 
L 110.111166 73.835171 
L 112.040611 53.348625 
L 112.040611 48.342883 
L 112.040611 48.159345 
L 116.016044 66.539168 
L 117.668374 68.642481 
L 117.668374 68.092097 
L 117.668374 66.716209 
L 121.620498 72.694774 
L 121.620498 72.312081 
L 121.620498 71.601963 
L 123.366063 72.735385 
L 125.212632 67.670015 
L 130.665579 79.306676 
L 134.461017 90.229444 
L 136.557508 92.418702 
L 138.220197 91.116091 
L 140.266185 86.333551 
L 143.765084 78.917843 
L 146.03639 73.79282 
L 149.377308 77.103791 
L 156.917681 87.09586 
L 158.920937 88.35629 
L 164.478773 97.280717 
L 169.623528 102.296117 
L 172.125331 101.736796 
L 173.973195 107.336987 
L 177.36332 101.921912 
L 182.906913 107.260952 
L 184.759956 103.060956 
L 190.672604 99.555168 
L 195.997353 90.229444 
L 198.036867 90.628749 
L 200.031058 99.839577 
L 204.246053 102.359008 
L 209.231531 101.552978 
L 210.913644 98.124053 
L 212.692877 111.809873 
L 216.891037 109.894517 
L 222.088884 117.207099 
L 224.195734 116.441462 
L 227.771034 111.809873 
L 229.94004 116.12006 
L 235.056306 112.357501 
L 248.058691 124.302366 
L 254.080113 122.748634 
L 263.221019 127.224358 
L 268.708929 138.92452 
L 274.282305 133.028712 
L 287.315768 148.66993 
" clip-path="url(#p56fe985484)" style="fill: none; stroke: #882255; stroke-width: 3; stroke-linecap: round"/>
   </g>
   <g id="line2d_3">
    <path d="M 47.2035 135.363314 
L 49.221 150.582742 
L 51.239795 152.646319 
L 52.32624 156.827652 
L 54.203888 163.69999 
L 55.970171 154.886476 
L 57.869833 163.69999 
L 59.756545 154.886476 
L 59.756545 147.23429 
L 59.756545 138.671437 
L 62.091302 126.900973 
L 63.880895 125.645936 
L 65.376538 119.648206 
L 65.376538 115.907963 
L 65.376538 114.270312 
L 67.406987 108.425317 
L 67.406987 105.357767 
L 67.406987 102.359008 
L 69.054137 91.949035 
L 69.054137 89.953509 
L 69.054137 89.719285 
L 71.128614 83.366252 
L 71.128614 81.033777 
L 71.128614 80.182985 
L 72.742096 67.519715 
L 72.742096 66.894454 
L 72.742096 66.236161 
L 77.301542 66.363316 
L 78.394462 67.18877 
L 78.394462 66.062324 
L 78.394462 65.547632 
L 80.259161 69.997947 
L 80.259161 69.779208 
L 80.259161 68.625106 
L 82.09537 73.477354 
L 82.09537 72.939388 
L 82.09537 72.593522 
L 83.958774 69.616344 
L 83.958774 69.382869 
L 83.958774 68.5384 
L 85.94908 75.633281 
L 85.94908 75.633281 
L 85.94908 73.898826 
L 88.004133 79.727893 
L 88.004133 79.124502 
L 88.004133 78.585461 
L 91.767197 78.032403 
L 91.767197 75.497444 
L 91.767197 74.983164 
L 95.190991 77.809475 
L 95.190991 77.637389 
L 95.190991 76.369889 
L 97.078998 77.515159 
L 97.078998 74.674997 
L 97.078998 74.435384 
L 99.140525 82.585184 
L 99.140525 81.970894 
L 99.140525 81.941999 
L 102.741723 72.292093 
L 105.151587 77.103791 
L 106.534571 75.384782 
L 106.534571 75.384782 
L 106.534571 73.856372 
L 108.326754 78.307473 
L 108.326754 77.661904 
L 108.326754 76.888596 
L 110.111166 76.698785 
L 110.111166 75.407276 
L 110.111166 75.094108 
L 112.040611 78.132095 
L 112.040611 75.452321 
L 112.040611 74.565811 
L 116.016044 79.490125 
L 117.668374 77.272396 
L 117.668374 77.055817 
L 117.668374 76.91242 
L 121.620498 82.232399 
L 121.620498 82.057773 
L 121.620498 81.483952 
L 123.366063 82.912798 
L 125.212632 81.540772 
L 130.665579 93.073037 
L 134.461017 93.880447 
L 136.557508 95.332133 
L 138.220197 91.116091 
L 140.266185 89.218872 
L 143.765084 79.674869 
L 146.03639 79.38514 
L 149.377308 83.858749 
L 156.917681 89.992751 
L 158.920937 84.329029 
L 164.478773 100.949406 
L 169.623528 101.67538 
L 172.125331 103.848801 
L 173.973195 102.931922 
L 177.36332 102.867643 
L 182.906913 103.38635 
L 184.759956 96.463687 
L 190.672604 86.401942 
L 195.997353 83.858749 
L 198.036867 82.703843 
L 200.031058 93.16153 
L 204.246053 101.860061 
L 209.231531 96.971337 
L 210.913644 99.050885 
L 212.692877 106.734802 
L 216.891037 112.916822 
L 222.088884 111.991147 
L 224.195734 108.744758 
L 227.771034 106.586395 
L 229.94004 106.884056 
L 235.056306 106.365348 
L 248.058691 115.488852 
L 254.080113 120.768305 
L 263.221019 121.673863 
L 268.708929 127.062167 
L 274.282305 133.232556 
L 287.315768 145.218381 
" clip-path="url(#p56fe985484)" style="fill: none; stroke: #882255; stroke-width: 3; stroke-linecap: round"/>
   </g>
   <g id="patch_3">
    <path d="M 47.2035 171.2355 
L 47.2035 19.0715 
" style="fill: none; stroke: #262626; stroke-linejoin: miter; stroke-linecap: square"/>
   </g>
   <g id="patch_4">
    <path d="M 47.2035 171.2355 
L 308.26125 171.2355 
" style="fill: none; stroke: #262626; stroke-linejoin: miter; stroke-linecap: square"/>
   </g>
   <g id="text_9">
    <text style="fill: #262626; font: 9.6px 'Arial', 'DejaVu Sans', 'Liberation Sans', 'Bitstream Vera Sans', sans-serif; text-anchor: middle" x="177.732375" y="14.0715" transform="rotate(-0 177.732375 14.0715)">A. macleodii 1A3</text>
   </g>
  </g>
 </g>
 <defs>
  <clipPath id="p56fe985484">
   <rect x="47.2035" y="19.0715" width="261.05775" height="152.164"/>
  </clipPath>
 </defs>
</svg>
