<?xml version="1.0" encoding="utf-8" standalone="no"?>
<!DOCTYPE svg PUBLIC "-//W3C//DTD SVG 1.1//EN"
  "http://www.w3.org/Graphics/SVG/1.1/DTD/svg11.dtd">
<svg xmlns:xlink="http://www.w3.org/1999/xlink" width="216pt" height="144pt" viewBox="0 0 216 144" xmlns="http://www.w3.org/2000/svg" version="1.1">
 <metadata>
  <rdf:RDF xmlns:dc="http://purl.org/dc/elements/1.1/" xmlns:cc="http://creativecommons.org/ns#" xmlns:rdf="http://www.w3.org/1999/02/22-rdf-syntax-ns#">
   <cc:Work>
    <dc:type rdf:resource="http://purl.org/dc/dcmitype/StillImage"/>
    <dc:date>2024-12-17T13:28:22.064845</dc:date>
    <dc:format>image/svg+xml</dc:format>
    <dc:creator>
     <cc:Agent>
      <dc:title>Matplotlib v3.8.0, https://matplotlib.org/</dc:title>
     </cc:Agent>
    </dc:creator>
   </cc:Work>
  </rdf:RDF>
 </metadata>
 <defs>
  <style type="text/css">*{stroke-linejoin: round; stroke-linecap: butt}</style>
 </defs>
 <g id="figure_1">
  <g id="patch_1">
   <path d="M 0 144 
L 216 144 
L 216 0 
L 0 0 
z
" style="fill: #ffffff"/>
  </g>
  <g id="axes_1">
   <g id="patch_2">
    <path d="M 45.318 102.732 
L 198.37575 102.732 
L 198.37575 22.568 
L 45.318 22.568 
z
" style="fill: #ffffff"/>
   </g>
   <g id="matplotlib.axis_1">
    <g id="xtick_1">
     <g id="text_1">
      <!-- 0 -->
      <g style="fill: #262626" transform="translate(42.871188 117.830875) scale(0.088 -0.088)">
       <defs>
        <path id="ArialMT-30" d="M 266 2259 
Q 266 3072 433 3567 
Q 600 4063 929 4331 
Q 1259 4600 1759 4600 
Q 2128 4600 2406 4451 
Q 2684 4303 2865 4023 
Q 3047 3744 3150 3342 
Q 3253 2941 3253 2259 
Q 3253 1453 3087 958 
Q 2922 463 2592 192 
Q 2263 -78 1759 -78 
Q 1097 -78 719 397 
Q 266 969 266 2259 
z
M 844 2259 
Q 844 1131 1108 757 
Q 1372 384 1759 384 
Q 2147 384 2411 759 
Q 2675 1134 2675 2259 
Q 2675 3391 2411 3762 
Q 2147 4134 1753 4134 
Q 1366 4134 1134 3806 
Q 844 3388 844 2259 
z
" transform="scale(0.015625)"/>
       </defs>
       <use xlink:href="#ArialMT-30"/>
      </g>
     </g>
    </g>
    <g id="xtick_2">
     <g id="text_2">
      <!-- 60 -->
      <g style="fill: #262626" transform="translate(106.020554 117.830875) scale(0.088 -0.088)">
       <defs>
        <path id="ArialMT-36" d="M 3184 3459 
L 2625 3416 
Q 2550 3747 2413 3897 
Q 2184 4138 1850 4138 
Q 1581 4138 1378 3988 
Q 1113 3794 959 3422 
Q 806 3050 800 2363 
Q 1003 2672 1297 2822 
Q 1591 2972 1913 2972 
Q 2475 2972 2870 2558 
Q 3266 2144 3266 1488 
Q 3266 1056 3080 686 
Q 2894 316 2569 119 
Q 2244 -78 1831 -78 
Q 1128 -78 684 439 
Q 241 956 241 2144 
Q 241 3472 731 4075 
Q 1159 4600 1884 4600 
Q 2425 4600 2770 4297 
Q 3116 3994 3184 3459 
z
M 888 1484 
Q 888 1194 1011 928 
Q 1134 663 1356 523 
Q 1578 384 1822 384 
Q 2178 384 2434 671 
Q 2691 959 2691 1453 
Q 2691 1928 2437 2201 
Q 2184 2475 1800 2475 
Q 1419 2475 1153 2201 
Q 888 1928 888 1484 
z
" transform="scale(0.015625)"/>
       </defs>
       <use xlink:href="#ArialMT-36"/>
       <use xlink:href="#ArialMT-30" x="55.615234"/>
      </g>
     </g>
    </g>
    <g id="xtick_3">
     <g id="text_3">
      <!-- 120 -->
      <g style="fill: #262626" transform="translate(169.16992 117.830875) scale(0.088 -0.088)">
       <defs>
        <path id="ArialMT-31" d="M 2384 0 
L 1822 0 
L 1822 3584 
Q 1619 3391 1289 3197 
Q 959 3003 697 2906 
L 697 3450 
Q 1169 3672 1522 3987 
Q 1875 4303 2022 4600 
L 2384 4600 
L 2384 0 
z
" transform="scale(0.015625)"/>
        <path id="ArialMT-32" d="M 3222 541 
L 3222 0 
L 194 0 
Q 188 203 259 391 
Q 375 700 629 1000 
Q 884 1300 1366 1694 
Q 2113 2306 2375 2664 
Q 2638 3022 2638 3341 
Q 2638 3675 2398 3904 
Q 2159 4134 1775 4134 
Q 1369 4134 1125 3890 
Q 881 3647 878 3216 
L 300 3275 
Q 359 3922 746 4261 
Q 1134 4600 1788 4600 
Q 2447 4600 2831 4234 
Q 3216 3869 3216 3328 
Q 3216 3053 3103 2787 
Q 2991 2522 2730 2228 
Q 2469 1934 1863 1422 
Q 1356 997 1212 845 
Q 1069 694 975 541 
L 3222 541 
z
" transform="scale(0.015625)"/>
       </defs>
       <use xlink:href="#ArialMT-31"/>
       <use xlink:href="#ArialMT-32" x="55.615234"/>
       <use xlink:href="#ArialMT-30" x="111.230469"/>
      </g>
     </g>
    </g>
    <g id="text_4">
     <!-- day -->
     <g style="fill: #262626" transform="translate(114.108375 131.451375) scale(0.096 -0.096)">
      <defs>
       <path id="ArialMT-64" d="M 2575 0 
L 2575 419 
Q 2259 -75 1647 -75 
Q 1250 -75 917 144 
Q 584 363 401 755 
Q 219 1147 219 1656 
Q 219 2153 384 2558 
Q 550 2963 881 3178 
Q 1213 3394 1622 3394 
Q 1922 3394 2156 3267 
Q 2391 3141 2538 2938 
L 2538 4581 
L 3097 4581 
L 3097 0 
L 2575 0 
z
M 797 1656 
Q 797 1019 1065 703 
Q 1334 388 1700 388 
Q 2069 388 2326 689 
Q 2584 991 2584 1609 
Q 2584 2291 2321 2609 
Q 2059 2928 1675 2928 
Q 1300 2928 1048 2622 
Q 797 2316 797 1656 
z
" transform="scale(0.015625)"/>
       <path id="ArialMT-61" d="M 2588 409 
Q 2275 144 1986 34 
Q 1697 -75 1366 -75 
Q 819 -75 525 192 
Q 231 459 231 875 
Q 231 1119 342 1320 
Q 453 1522 633 1644 
Q 813 1766 1038 1828 
Q 1203 1872 1538 1913 
Q 2219 1994 2541 2106 
Q 2544 2222 2544 2253 
Q 2544 2597 2384 2738 
Q 2169 2928 1744 2928 
Q 1347 2928 1158 2789 
Q 969 2650 878 2297 
L 328 2372 
Q 403 2725 575 2942 
Q 747 3159 1072 3276 
Q 1397 3394 1825 3394 
Q 2250 3394 2515 3294 
Q 2781 3194 2906 3042 
Q 3031 2891 3081 2659 
Q 3109 2516 3109 2141 
L 3109 1391 
Q 3109 606 3145 398 
Q 3181 191 3288 0 
L 2700 0 
Q 2613 175 2588 409 
z
M 2541 1666 
Q 2234 1541 1622 1453 
Q 1275 1403 1131 1340 
Q 988 1278 909 1158 
Q 831 1038 831 891 
Q 831 666 1001 516 
Q 1172 366 1500 366 
Q 1825 366 2078 508 
Q 2331 650 2450 897 
Q 2541 1088 2541 1459 
L 2541 1666 
z
" transform="scale(0.015625)"/>
       <path id="ArialMT-79" d="M 397 -1278 
L 334 -750 
Q 519 -800 656 -800 
Q 844 -800 956 -737 
Q 1069 -675 1141 -563 
Q 1194 -478 1313 -144 
Q 1328 -97 1363 -6 
L 103 3319 
L 709 3319 
L 1400 1397 
Q 1534 1031 1641 628 
Q 1738 1016 1872 1384 
L 2581 3319 
L 3144 3319 
L 1881 -56 
Q 1678 -603 1566 -809 
Q 1416 -1088 1222 -1217 
Q 1028 -1347 759 -1347 
Q 597 -1347 397 -1278 
z
" transform="scale(0.015625)"/>
      </defs>
      <use xlink:href="#ArialMT-64"/>
      <use xlink:href="#ArialMT-61" x="55.615234"/>
      <use xlink:href="#ArialMT-79" x="111.230469"/>
     </g>
    </g>
   </g>
   <g id="matplotlib.axis_2">
    <g id="ytick_1">
     <g id="text_5">
      <!-- $\mathdefault{10^{-1}}$ -->
      <g style="fill: #262626" transform="translate(19.094 89.780626) scale(0.088 -0.088)">
       <defs>
        <path id="ArialMT-2212" d="M 3381 1997 
L 356 1997 
L 356 2522 
L 3381 2522 
L 3381 1997 
z
" transform="scale(0.015625)"/>
       </defs>
       <use xlink:href="#ArialMT-31" transform="translate(0 0.99375)"/>
       <use xlink:href="#ArialMT-30" transform="translate(55.615234 0.99375)"/>
       <use xlink:href="#ArialMT-2212" transform="translate(112.972813 70.6875) scale(0.7)"/>
       <use xlink:href="#ArialMT-31" transform="translate(153.851719 70.6875) scale(0.7)"/>
      </g>
     </g>
    </g>
    <g id="ytick_2">
     <g id="text_6">
      <!-- $\mathdefault{10^{0}}$ -->
      <g style="fill: #262626" transform="translate(22.702 58.005813) scale(0.088 -0.088)">
       <use xlink:href="#ArialMT-31" transform="translate(0 0.99375)"/>
       <use xlink:href="#ArialMT-30" transform="translate(55.615234 0.99375)"/>
       <use xlink:href="#ArialMT-30" transform="translate(112.972813 70.6875) scale(0.7)"/>
      </g>
     </g>
    </g>
    <g id="ytick_3">
     <g id="text_7">
      <!-- $\mathdefault{10^{1}}$ -->
      <g style="fill: #262626" transform="translate(22.702 26.231) scale(0.088 -0.088)">
       <use xlink:href="#ArialMT-31" transform="translate(0 0.99375)"/>
       <use xlink:href="#ArialMT-30" transform="translate(55.615234 0.99375)"/>
       <use xlink:href="#ArialMT-31" transform="translate(112.972813 70.6875) scale(0.7)"/>
      </g>
     </g>
    </g>
    <g id="ytick_4"/>
    <g id="ytick_5"/>
    <g id="ytick_6"/>
    <g id="ytick_7"/>
    <g id="ytick_8"/>
    <g id="ytick_9"/>
    <g id="ytick_10"/>
    <g id="ytick_11"/>
    <g id="ytick_12"/>
    <g id="ytick_13"/>
    <g id="ytick_14"/>
    <g id="ytick_15"/>
    <g id="ytick_16"/>
    <g id="ytick_17"/>
    <g id="ytick_18"/>
    <g id="ytick_19"/>
    <g id="ytick_20"/>
    <g id="ytick_21"/>
    <g id="ytick_22"/>
    <g id="ytick_23"/>
    <g id="ytick_24"/>
    <g id="ytick_25"/>
    <g id="ytick_26"/>
    <g id="text_8">
     <!-- Fluorescence -->
     <g style="fill: #262626" transform="translate(12.186 91.462) rotate(-90) scale(0.096 -0.096)">
      <defs>
       <path id="ArialMT-46" d="M 525 0 
L 525 4581 
L 3616 4581 
L 3616 4041 
L 1131 4041 
L 1131 2622 
L 3281 2622 
L 3281 2081 
L 1131 2081 
L 1131 0 
L 525 0 
z
" transform="scale(0.015625)"/>
       <path id="ArialMT-6c" d="M 409 0 
L 409 4581 
L 972 4581 
L 972 0 
L 409 0 
z
" transform="scale(0.015625)"/>
       <path id="ArialMT-75" d="M 2597 0 
L 2597 488 
Q 2209 -75 1544 -75 
Q 1250 -75 995 37 
Q 741 150 617 320 
Q 494 491 444 738 
Q 409 903 409 1263 
L 409 3319 
L 972 3319 
L 972 1478 
Q 972 1038 1006 884 
Q 1059 663 1231 536 
Q 1403 409 1656 409 
Q 1909 409 2131 539 
Q 2353 669 2445 892 
Q 2538 1116 2538 1541 
L 2538 3319 
L 3100 3319 
L 3100 0 
L 2597 0 
z
" transform="scale(0.015625)"/>
       <path id="ArialMT-6f" d="M 213 1659 
Q 213 2581 725 3025 
Q 1153 3394 1769 3394 
Q 2453 3394 2887 2945 
Q 3322 2497 3322 1706 
Q 3322 1066 3130 698 
Q 2938 331 2570 128 
Q 2203 -75 1769 -75 
Q 1072 -75 642 372 
Q 213 819 213 1659 
z
M 791 1659 
Q 791 1022 1069 705 
Q 1347 388 1769 388 
Q 2188 388 2466 706 
Q 2744 1025 2744 1678 
Q 2744 2294 2464 2611 
Q 2184 2928 1769 2928 
Q 1347 2928 1069 2612 
Q 791 2297 791 1659 
z
" transform="scale(0.015625)"/>
       <path id="ArialMT-72" d="M 416 0 
L 416 3319 
L 922 3319 
L 922 2816 
Q 1116 3169 1280 3281 
Q 1444 3394 1641 3394 
Q 1925 3394 2219 3213 
L 2025 2691 
Q 1819 2813 1613 2813 
Q 1428 2813 1281 2702 
Q 1134 2591 1072 2394 
Q 978 2094 978 1738 
L 978 0 
L 416 0 
z
" transform="scale(0.015625)"/>
       <path id="ArialMT-65" d="M 2694 1069 
L 3275 997 
Q 3138 488 2766 206 
Q 2394 -75 1816 -75 
Q 1088 -75 661 373 
Q 234 822 234 1631 
Q 234 2469 665 2931 
Q 1097 3394 1784 3394 
Q 2450 3394 2872 2941 
Q 3294 2488 3294 1666 
Q 3294 1616 3291 1516 
L 816 1516 
Q 847 969 1125 678 
Q 1403 388 1819 388 
Q 2128 388 2347 550 
Q 2566 713 2694 1069 
z
M 847 1978 
L 2700 1978 
Q 2663 2397 2488 2606 
Q 2219 2931 1791 2931 
Q 1403 2931 1139 2672 
Q 875 2413 847 1978 
z
" transform="scale(0.015625)"/>
       <path id="ArialMT-73" d="M 197 991 
L 753 1078 
Q 800 744 1014 566 
Q 1228 388 1613 388 
Q 2000 388 2187 545 
Q 2375 703 2375 916 
Q 2375 1106 2209 1216 
Q 2094 1291 1634 1406 
Q 1016 1563 777 1677 
Q 538 1791 414 1992 
Q 291 2194 291 2438 
Q 291 2659 392 2848 
Q 494 3038 669 3163 
Q 800 3259 1026 3326 
Q 1253 3394 1513 3394 
Q 1903 3394 2198 3281 
Q 2494 3169 2634 2976 
Q 2775 2784 2828 2463 
L 2278 2388 
Q 2241 2644 2061 2787 
Q 1881 2931 1553 2931 
Q 1166 2931 1000 2803 
Q 834 2675 834 2503 
Q 834 2394 903 2306 
Q 972 2216 1119 2156 
Q 1203 2125 1616 2013 
Q 2213 1853 2448 1751 
Q 2684 1650 2818 1456 
Q 2953 1263 2953 975 
Q 2953 694 2789 445 
Q 2625 197 2315 61 
Q 2006 -75 1616 -75 
Q 969 -75 630 194 
Q 291 463 197 991 
z
" transform="scale(0.015625)"/>
       <path id="ArialMT-63" d="M 2588 1216 
L 3141 1144 
Q 3050 572 2676 248 
Q 2303 -75 1759 -75 
Q 1078 -75 664 370 
Q 250 816 250 1647 
Q 250 2184 428 2587 
Q 606 2991 970 3192 
Q 1334 3394 1763 3394 
Q 2303 3394 2647 3120 
Q 2991 2847 3088 2344 
L 2541 2259 
Q 2463 2594 2264 2762 
Q 2066 2931 1784 2931 
Q 1359 2931 1093 2626 
Q 828 2322 828 1663 
Q 828 994 1084 691 
Q 1341 388 1753 388 
Q 2084 388 2306 591 
Q 2528 794 2588 1216 
z
" transform="scale(0.015625)"/>
       <path id="ArialMT-6e" d="M 422 0 
L 422 3319 
L 928 3319 
L 928 2847 
Q 1294 3394 1984 3394 
Q 2284 3394 2536 3286 
Q 2788 3178 2913 3003 
Q 3038 2828 3088 2588 
Q 3119 2431 3119 2041 
L 3119 0 
L 2556 0 
L 2556 2019 
Q 2556 2363 2490 2533 
Q 2425 2703 2258 2804 
Q 2091 2906 1866 2906 
Q 1506 2906 1245 2678 
Q 984 2450 984 1813 
L 984 0 
L 422 0 
z
" transform="scale(0.015625)"/>
      </defs>
      <use xlink:href="#ArialMT-46"/>
      <use xlink:href="#ArialMT-6c" x="61.083984"/>
      <use xlink:href="#ArialMT-75" x="83.300781"/>
      <use xlink:href="#ArialMT-6f" x="138.916016"/>
      <use xlink:href="#ArialMT-72" x="194.53125"/>
      <use xlink:href="#ArialMT-65" x="227.832031"/>
      <use xlink:href="#ArialMT-73" x="283.447266"/>
      <use xlink:href="#ArialMT-63" x="333.447266"/>
      <use xlink:href="#ArialMT-65" x="383.447266"/>
      <use xlink:href="#ArialMT-6e" x="439.0625"/>
      <use xlink:href="#ArialMT-63" x="494.677734"/>
      <use xlink:href="#ArialMT-65" x="544.677734"/>
     </g>
    </g>
   </g>
   <g id="line2d_1">
    <path d="M 45.318 81.874452 
L 46.500857 93.166828 
L 47.684473 95.409529 
L 48.321455 98.762095 
L 49.422316 94.878708 
L 50.457886 98.088809 
L 51.571654 98.762095 
L 52.67783 93.874656 
L 52.67783 92.93873 
L 52.67783 92.714341 
L 54.046695 85.709725 
L 55.09593 79.545772 
L 55.972824 77.703089 
L 55.972824 74.151963 
L 55.972824 73.808386 
L 57.163273 71.049493 
L 57.163273 70.06658 
L 57.163273 67.160865 
L 58.128994 63.935612 
L 58.128994 62.467855 
L 58.128994 62.270362 
L 59.345257 54.70635 
L 59.345257 54.43975 
L 59.345257 53.988608 
L 60.291239 49.368493 
L 60.291239 49.158391 
L 60.291239 48.867664 
L 62.964435 44.930278 
L 63.605212 46.644001 
L 63.605212 45.478208 
L 63.605212 45.427488 
L 64.698482 47.770959 
L 64.698482 47.770959 
L 64.698482 47.060988 
L 65.775049 48.610235 
L 65.775049 48.375419 
L 65.775049 47.457414 
L 66.867559 49.670083 
L 66.867559 49.397393 
L 66.867559 49.224895 
L 68.034473 43.882722 
L 68.034473 43.030158 
L 68.034473 42.860983 
L 69.239347 47.978217 
L 69.239347 47.167234 
L 69.239347 46.47911 
L 71.445626 51.769465 
L 71.445626 51.74658 
L 71.445626 50.979427 
L 73.452991 49.572074 
L 73.452991 48.564767 
L 73.452991 48.153341 
L 74.559926 49.387753 
L 74.559926 48.4833 
L 74.559926 47.865566 
L 75.768596 50.807467 
L 75.768596 50.637624 
L 75.768596 49.263042 
L 77.879973 48.555691 
L 79.292873 50.10979 
L 80.103714 51.519794 
L 80.103714 50.871702 
L 80.103714 50.459426 
L 81.154468 52.402156 
L 81.154468 51.531045 
L 81.154468 51.12074 
L 82.200666 50.059111 
L 82.200666 49.71935 
L 82.200666 49.679922 
L 83.331897 50.511599 
L 83.331897 49.978412 
L 83.331897 49.838313 
L 85.662687 51.022754 
L 86.631445 34.301393 
L 86.631445 34.035915 
L 86.631445 33.688678 
L 88.948569 52.117373 
L 88.948569 51.307745 
L 88.948569 51.296674 
L 89.971991 52.510483 
L 91.054632 53.306358 
L 94.251686 59.069051 
L 96.476946 64.615813 
L 97.706115 66.24844 
L 98.680947 69.189455 
L 99.880507 67.804487 
L 101.931906 61.670805 
L 103.263569 60.609641 
L 105.222343 55.448522 
L 109.643253 53.656391 
L 110.817758 53.499723 
L 114.076309 62.948551 
L 117.09267 62.845951 
L 118.559474 63.261009 
L 119.642874 64.703245 
L 121.630499 63.419931 
L 124.880698 65.989284 
L 125.967135 62.148349 
L 129.433711 64.674039 
L 132.555603 57.665742 
L 133.751367 55.285035 
L 134.920558 62.027404 
L 137.391803 66.952826 
L 140.314781 67.021824 
L 141.301001 66.918456 
L 142.344162 72.617091 
L 144.805538 68.556697 
L 147.853027 71.762196 
L 149.088269 72.82618 
L 151.184462 73.583997 
L 152.456147 72.107822 
L 155.455806 71.762196 
L 163.079084 78.553755 
L 166.609434 79.123732 
L 171.968733 79.892951 
L 175.186286 77.187843 
L 178.453948 84.928406 
L 186.095447 85.844357 
" clip-path="url(#p896b9e437c)" style="fill: none; stroke: #882255; stroke-width: 3; stroke-linecap: round"/>
   </g>
   <g id="line2d_2">
    <path d="M 45.318 85.844357 
L 46.500857 90.843864 
L 47.684473 95.409529 
L 48.321455 98.762095 
L 49.422316 98.762095 
L 50.457886 90.087531 
L 51.571654 98.762095 
L 52.67783 98.762095 
L 52.67783 98.762095 
L 52.67783 96.246126 
L 54.046695 92.714341 
L 55.09593 84.431068 
L 55.972824 84.431068 
L 55.972824 83.833588 
L 55.972824 82.391352 
L 57.163273 75.49042 
L 57.163273 74.865896 
L 57.163273 74.683921 
L 58.128994 70.023523 
L 58.128994 68.751335 
L 58.128994 67.586594 
L 59.345257 62.443014 
L 59.345257 61.186558 
L 59.345257 60.961804 
L 60.291239 55.689833 
L 60.291239 55.659438 
L 60.291239 55.255517 
L 62.964435 43.418558 
L 63.605212 40.378082 
L 63.605212 39.870848 
L 63.605212 39.631182 
L 64.698482 36.262227 
L 64.698482 36.136236 
L 64.698482 36.015041 
L 65.775049 40.570027 
L 65.775049 39.390937 
L 65.775049 38.999595 
L 66.867559 40.946427 
L 66.867559 40.826724 
L 66.867559 40.74406 
L 68.034473 41.994041 
L 68.034473 41.803621 
L 68.034473 41.522829 
L 69.239347 46.858941 
L 69.239347 46.026119 
L 69.239347 45.44196 
L 71.445626 49.918195 
L 71.445626 49.523329 
L 71.445626 49.054527 
L 73.452991 49.581843 
L 73.452991 49.320461 
L 73.452991 49.196354 
L 74.559926 50.191264 
L 74.559926 49.918195 
L 74.559926 49.739106 
L 75.768596 52.426155 
L 75.768596 51.838348 
L 75.768596 51.838348 
L 77.879973 44.867631 
L 79.292873 50.345336 
L 80.103714 52.803584 
L 80.103714 51.109819 
L 80.103714 50.76481 
L 81.154468 53.409149 
L 81.154468 53.229764 
L 81.154468 52.791246 
L 82.200666 51.803863 
L 82.200666 51.47488 
L 82.200666 51.418943 
L 83.331897 40.626092 
L 83.331897 37.988935 
L 83.331897 37.892243 
L 85.662687 47.575217 
L 86.631445 48.683298 
L 86.631445 48.393341 
L 86.631445 47.668486 
L 88.948569 50.818152 
L 88.948569 50.616539 
L 88.948569 50.24243 
L 89.971991 50.839547 
L 91.054632 48.170977 
L 94.251686 54.301476 
L 96.476946 60.055878 
L 97.706115 61.209236 
L 98.680947 60.522987 
L 99.880507 58.003419 
L 101.931906 54.096629 
L 103.263569 51.396632 
L 105.222343 53.140938 
L 109.643253 58.405023 
L 110.817758 59.069051 
L 114.076309 63.770674 
L 117.09267 66.412919 
L 118.559474 66.118253 
L 119.642874 69.068582 
L 121.630499 66.215778 
L 124.880698 69.028525 
L 125.967135 66.815856 
L 129.433711 64.968914 
L 132.555603 60.055878 
L 133.751367 60.266242 
L 134.920558 65.118749 
L 137.391803 66.446051 
L 140.314781 66.021414 
L 141.301001 64.214966 
L 142.344162 71.425016 
L 144.805538 70.415956 
L 147.853027 74.268417 
L 149.088269 73.865059 
L 151.184462 71.425016 
L 152.456147 73.695736 
L 155.455806 71.71352 
L 163.079084 78.00639 
L 166.609434 77.187843 
L 171.968733 79.545772 
L 175.186286 85.709725 
L 178.453948 82.603658 
L 186.095447 90.843864 
" clip-path="url(#p896b9e437c)" style="fill: none; stroke: #882255; stroke-width: 3; stroke-linecap: round"/>
   </g>
   <g id="line2d_3">
    <path d="M 45.318 83.833588 
L 46.500857 91.851583 
L 47.684473 92.93873 
L 48.321455 95.141566 
L 49.422316 98.762095 
L 50.457886 94.118904 
L 51.571654 98.762095 
L 52.67783 94.118904 
L 52.67783 90.087531 
L 52.67783 85.576395 
L 54.046695 79.375404 
L 55.09593 78.714218 
L 55.972824 75.554456 
L 55.972824 73.583997 
L 55.972824 72.72124 
L 57.163273 69.641942 
L 57.163273 68.025876 
L 57.163273 66.446051 
L 58.128994 60.961804 
L 58.128994 59.910508 
L 58.128994 59.787113 
L 59.345257 56.440168 
L 59.345257 55.211359 
L 59.345257 54.763139 
L 60.291239 48.091795 
L 60.291239 47.762391 
L 60.291239 47.415585 
L 62.964435 47.482573 
L 63.605212 47.917444 
L 63.605212 47.324003 
L 63.605212 47.052849 
L 64.698482 49.397393 
L 64.698482 49.282155 
L 64.698482 48.674144 
L 65.775049 51.230436 
L 65.775049 50.947021 
L 65.775049 50.76481 
L 66.867559 49.196354 
L 66.867559 49.073353 
L 66.867559 48.628465 
L 68.034473 52.366235 
L 68.034473 52.366235 
L 68.034473 51.452478 
L 69.239347 54.523384 
L 69.239347 54.205502 
L 69.239347 53.921521 
L 71.445626 53.630156 
L 71.445626 52.294672 
L 71.445626 52.023736 
L 73.452991 53.512711 
L 73.452991 53.422052 
L 73.452991 52.754299 
L 74.559926 53.357658 
L 74.559926 51.861386 
L 74.559926 51.735151 
L 75.768596 56.028681 
L 75.768596 55.705056 
L 75.768596 55.689833 
L 77.879973 50.606009 
L 79.292873 53.140938 
L 80.103714 52.235319 
L 80.103714 52.235319 
L 80.103714 51.430112 
L 81.154468 53.775069 
L 81.154468 53.434967 
L 81.154468 53.027568 
L 82.200666 52.92757 
L 82.200666 52.247169 
L 82.200666 52.082185 
L 83.331897 53.682676 
L 83.331897 52.2709 
L 83.331897 51.803863 
L 85.662687 54.398122 
L 86.631445 53.229764 
L 86.631445 53.115664 
L 86.631445 53.040119 
L 88.948569 55.842824 
L 88.948569 55.750826 
L 88.948569 55.448522 
L 89.971991 56.201276 
L 91.054632 55.478456 
L 94.251686 61.553958 
L 96.476946 61.979322 
L 97.706115 62.744108 
L 98.680947 60.522987 
L 99.880507 59.523482 
L 101.931906 54.49545 
L 103.263569 54.342813 
L 105.222343 56.699628 
L 109.643253 59.931182 
L 110.817758 56.947384 
L 114.076309 65.703436 
L 117.09267 66.085898 
L 118.559474 67.230914 
L 119.642874 66.747877 
L 121.630499 66.714013 
L 124.880698 66.987282 
L 125.967135 63.340241 
L 129.433711 58.039449 
L 132.555603 56.699628 
L 133.751367 56.091193 
L 134.920558 61.600578 
L 137.391803 66.183193 
L 140.314781 63.607684 
L 141.301001 64.703245 
L 142.344162 68.751335 
L 144.805538 72.008185 
L 147.853027 71.520515 
L 149.088269 69.810233 
L 151.184462 68.67315 
L 152.456147 68.829965 
L 155.455806 68.556697 
L 163.079084 73.363199 
L 166.609434 76.144554 
L 171.968733 76.621625 
L 175.186286 79.460325 
L 178.453948 82.711049 
L 186.095447 89.025497 
" clip-path="url(#p896b9e437c)" style="fill: none; stroke: #882255; stroke-width: 3; stroke-linecap: round"/>
   </g>
   <g id="patch_3">
    <path d="M 45.318 102.732 
L 45.318 22.568 
" style="fill: none; stroke: #262626; stroke-linejoin: miter; stroke-linecap: square"/>
   </g>
   <g id="patch_4">
    <path d="M 45.318 102.732 
L 198.37575 102.732 
" style="fill: none; stroke: #262626; stroke-linejoin: miter; stroke-linecap: square"/>
   </g>
   <g id="text_9">
    <!-- A. macleodii 1A3 -->
    <g style="fill: #262626" transform="translate(85.829625 17.568) scale(0.096 -0.096)">
     <defs>
      <path id="ArialMT-41" d="M -9 0 
L 1750 4581 
L 2403 4581 
L 4278 0 
L 3588 0 
L 3053 1388 
L 1138 1388 
L 634 0 
L -9 0 
z
M 1313 1881 
L 2866 1881 
L 2388 3150 
Q 2169 3728 2063 4100 
Q 1975 3659 1816 3225 
L 1313 1881 
z
" transform="scale(0.015625)"/>
      <path id="ArialMT-2e" d="M 581 0 
L 581 641 
L 1222 641 
L 1222 0 
L 581 0 
z
" transform="scale(0.015625)"/>
      <path id="ArialMT-20" transform="scale(0.015625)"/>
      <path id="ArialMT-6d" d="M 422 0 
L 422 3319 
L 925 3319 
L 925 2853 
Q 1081 3097 1340 3245 
Q 1600 3394 1931 3394 
Q 2300 3394 2536 3241 
Q 2772 3088 2869 2813 
Q 3263 3394 3894 3394 
Q 4388 3394 4653 3120 
Q 4919 2847 4919 2278 
L 4919 0 
L 4359 0 
L 4359 2091 
Q 4359 2428 4304 2576 
Q 4250 2725 4106 2815 
Q 3963 2906 3769 2906 
Q 3419 2906 3187 2673 
Q 2956 2441 2956 1928 
L 2956 0 
L 2394 0 
L 2394 2156 
Q 2394 2531 2256 2718 
Q 2119 2906 1806 2906 
Q 1569 2906 1367 2781 
Q 1166 2656 1075 2415 
Q 984 2175 984 1722 
L 984 0 
L 422 0 
z
" transform="scale(0.015625)"/>
      <path id="ArialMT-69" d="M 425 3934 
L 425 4581 
L 988 4581 
L 988 3934 
L 425 3934 
z
M 425 0 
L 425 3319 
L 988 3319 
L 988 0 
L 425 0 
z
" transform="scale(0.015625)"/>
      <path id="ArialMT-33" d="M 269 1209 
L 831 1284 
Q 928 806 1161 595 
Q 1394 384 1728 384 
Q 2125 384 2398 659 
Q 2672 934 2672 1341 
Q 2672 1728 2419 1979 
Q 2166 2231 1775 2231 
Q 1616 2231 1378 2169 
L 1441 2663 
Q 1497 2656 1531 2656 
Q 1891 2656 2178 2843 
Q 2466 3031 2466 3422 
Q 2466 3731 2256 3934 
Q 2047 4138 1716 4138 
Q 1388 4138 1169 3931 
Q 950 3725 888 3313 
L 325 3413 
Q 428 3978 793 4289 
Q 1159 4600 1703 4600 
Q 2078 4600 2393 4439 
Q 2709 4278 2876 4000 
Q 3044 3722 3044 3409 
Q 3044 3113 2884 2869 
Q 2725 2625 2413 2481 
Q 2819 2388 3044 2092 
Q 3269 1797 3269 1353 
Q 3269 753 2831 336 
Q 2394 -81 1725 -81 
Q 1122 -81 723 278 
Q 325 638 269 1209 
z
" transform="scale(0.015625)"/>
     </defs>
     <use xlink:href="#ArialMT-41"/>
     <use xlink:href="#ArialMT-2e" x="66.699219"/>
     <use xlink:href="#ArialMT-20" x="94.482422"/>
     <use xlink:href="#ArialMT-6d" x="122.265625"/>
     <use xlink:href="#ArialMT-61" x="205.566406"/>
     <use xlink:href="#ArialMT-63" x="261.181641"/>
     <use xlink:href="#ArialMT-6c" x="311.181641"/>
     <use xlink:href="#ArialMT-65" x="333.398438"/>
     <use xlink:href="#ArialMT-6f" x="389.013672"/>
     <use xlink:href="#ArialMT-64" x="444.628906"/>
     <use xlink:href="#ArialMT-69" x="500.244141"/>
     <use xlink:href="#ArialMT-69" x="522.460938"/>
     <use xlink:href="#ArialMT-20" x="544.677734"/>
     <use xlink:href="#ArialMT-31" x="572.460938"/>
     <use xlink:href="#ArialMT-41" x="628.076172"/>
     <use xlink:href="#ArialMT-33" x="694.775391"/>
    </g>
   </g>
  </g>
 </g>
 <defs>
  <clipPath id="p896b9e437c">
   <rect x="45.318" y="22.568" width="153.05775" height="80.164"/>
  </clipPath>
 </defs>
</svg>
