<?xml version="1.0" encoding="utf-8" standalone="no"?>
<!DOCTYPE svg PUBLIC "-//W3C//DTD SVG 1.1//EN"
  "http://www.w3.org/Graphics/SVG/1.1/DTD/svg11.dtd">
<svg xmlns:xlink="http://www.w3.org/1999/xlink" width="322.77375pt" height="857.175375pt" viewBox="0 0 322.77375 857.175375" xmlns="http://www.w3.org/2000/svg" version="1.1">
 <metadata>
  <rdf:RDF xmlns:dc="http://purl.org/dc/elements/1.1/" xmlns:cc="http://creativecommons.org/ns#" xmlns:rdf="http://www.w3.org/1999/02/22-rdf-syntax-ns#">
   <cc:Work>
    <dc:type rdf:resource="http://purl.org/dc/dcmitype/StillImage"/>
    <dc:date>2024-11-25T11:07:02.079699</dc:date>
    <dc:format>image/svg+xml</dc:format>
    <dc:creator>
     <cc:Agent>
      <dc:title>Matplotlib v3.8.0, https://matplotlib.org/</dc:title>
     </cc:Agent>
    </dc:creator>
   </cc:Work>
  </rdf:RDF>
 </metadata>
 <defs>
  <style type="text/css">*{stroke-linejoin: round; stroke-linecap: butt}</style>
 </defs>
 <g id="figure_1">
  <g id="patch_1">
   <path d="M 0 857.175375 
L 322.77375 857.175375 
L 322.77375 0 
L 0 0 
L 0 857.175375 
z
" style="fill: none"/>
  </g>
  <g id="axes_1">
   <g id="patch_2">
    <path d="M 47.2035 199.117359 
L 315.57375 199.117359 
L 315.57375 19.0715 
L 47.2035 19.0715 
L 47.2035 199.117359 
z
" style="fill: none"/>
   </g>
   <g id="matplotlib.axis_1">
    <g id="xtick_1"/>
    <g id="xtick_2"/>
    <g id="xtick_3"/>
   </g>
   <g id="matplotlib.axis_2">
    <g id="ytick_1">
     <g id="text_1">
      <!-- $\mathdefault{10^{-1}}$ -->
      <g style="fill: #262626" transform="translate(20.9795 165.46499)">
       <text>
        <tspan style="font: 8.8px 'Arial'" x="0 4.892395" y="-0.4372624999999992">10</tspan>
        <tspan style="font: 6.16px 'Arial'" x="9.938116 13.534183" y="-6.570312499999999">−1</tspan>
       </text>
      </g>
     </g>
    </g>
    <g id="ytick_2">
     <g id="text_2">
      <!-- $\mathdefault{10^{0}}$ -->
      <g style="fill: #262626" transform="translate(24.5875 94.099745)">
       <text>
        <tspan style="font: 8.8px 'Arial'" x="0 4.892395" y="-0.4372624999999992">10</tspan>
        <tspan style="font: 6.16px 'Arial'" x="9.938116" y="-6.570312499999999">0</tspan>
       </text>
      </g>
     </g>
    </g>
    <g id="ytick_3">
     <g id="text_3">
      <!-- $\mathdefault{10^{1}}$ -->
      <g style="fill: #262626" transform="translate(24.5875 22.7345)">
       <text>
        <tspan style="font: 8.8px 'Arial'" x="0 4.892395" y="-0.4372624999999992">10</tspan>
        <tspan style="font: 6.16px 'Arial'" x="9.938116" y="-6.570312499999999">1</tspan>
       </text>
      </g>
     </g>
    </g>
    <g id="ytick_4"/>
    <g id="ytick_5"/>
    <g id="ytick_6"/>
    <g id="ytick_7"/>
    <g id="ytick_8"/>
    <g id="ytick_9"/>
    <g id="ytick_10"/>
    <g id="ytick_11"/>
    <g id="ytick_12"/>
    <g id="ytick_13"/>
    <g id="ytick_14"/>
    <g id="ytick_15"/>
    <g id="ytick_16"/>
    <g id="ytick_17"/>
    <g id="ytick_18"/>
    <g id="ytick_19"/>
    <g id="ytick_20"/>
    <g id="ytick_21"/>
    <g id="ytick_22"/>
    <g id="ytick_23"/>
    <g id="ytick_24"/>
    <g id="ytick_25"/>
    <g id="ytick_26"/>
    <g id="text_4">
     <text style="fill: #262626; font: 9.6px 'Arial', 'DejaVu Sans', 'Liberation Sans', 'Bitstream Vera Sans', sans-serif; text-anchor: middle" x="14.0715" y="109.09443" transform="rotate(-90 14.0715 109.09443)">Fluorescence</text>
    </g>
   </g>
   <g id="line2d_1">
    <path d="M 47.2035 152.271953 
L 49.277512 177.63428 
L 51.352856 182.671316 
L 52.469734 190.201076 
L 54.399976 181.47911 
L 56.215735 188.688896 
L 58.168608 190.201076 
L 60.108169 179.22404 
L 60.108169 177.121979 
L 60.108169 176.618008 
L 62.508325 160.885858 
L 64.348046 147.04181 
L 65.885584 142.903201 
L 65.885584 134.927483 
L 65.885584 134.15582 
L 67.972908 127.95943 
L 67.972908 125.751838 
L 67.972908 119.225692 
L 69.666196 111.981873 
L 69.666196 108.685339 
L 69.666196 108.241774 
L 71.798781 91.253238 
L 71.798781 90.654462 
L 71.798781 89.641211 
L 73.457459 79.264576 
L 73.457459 78.792693 
L 73.457459 78.13973 
L 78.14462 69.296483 
L 79.268154 73.145452 
L 79.268154 70.527118 
L 79.268154 70.413201 
L 81.185084 75.676566 
L 81.185084 75.676566 
L 81.185084 74.081993 
L 83.072728 77.561553 
L 83.072728 77.034164 
L 83.072728 74.972353 
L 84.988327 79.941938 
L 84.988327 79.329484 
L 84.988327 78.94206 
L 87.034384 66.943705 
L 87.034384 65.028872 
L 87.034384 64.648912 
L 89.147001 76.142059 
L 89.147001 74.320618 
L 89.147001 72.775113 
L 93.015473 84.657084 
L 93.015473 84.605686 
L 93.015473 82.882686 
L 96.53517 79.721813 
L 96.53517 77.459433 
L 96.53517 76.535383 
L 98.476062 79.307833 
L 98.476062 77.276459 
L 98.476062 75.889049 
L 100.595335 82.496468 
L 100.595335 82.115005 
L 100.595335 79.027737 
L 104.297407 77.439049 
L 106.774773 80.929506 
L 108.196497 84.096331 
L 108.196497 82.640736 
L 108.196497 81.714779 
L 110.03888 86.078089 
L 110.03888 84.121601 
L 110.03888 83.20007 
L 111.873276 80.815684 
L 111.873276 80.05259 
L 111.873276 79.964037 
L 113.856766 81.831957 
L 113.856766 80.634435 
L 113.856766 80.319777 
L 117.943555 82.979997 
L 119.642168 45.424338 
L 119.642168 44.828082 
L 119.642168 44.048197 
L 123.704996 85.438475 
L 123.704996 83.620076 
L 123.704996 83.595212 
L 125.499455 86.321389 
L 127.397749 88.108899 
L 133.003439 101.051729 
L 136.905191 113.509585 
L 139.060407 117.176414 
L 140.769669 123.781843 
L 142.872968 120.671248 
L 146.469875 106.895188 
L 148.804803 104.511846 
L 152.239303 92.920134 
L 159.99089 88.895062 
L 162.050259 88.543192 
L 167.763776 109.764966 
L 173.05264 109.53453 
L 175.624522 110.466736 
L 177.524147 113.705954 
L 181.009233 110.823671 
L 186.708107 116.594358 
L 188.613056 107.967736 
L 194.691323 113.640359 
L 200.165224 97.89994 
L 202.261867 92.552947 
L 204.311917 107.696099 
L 208.644979 118.758444 
L 213.770105 118.913412 
L 215.499336 118.681249 
L 217.328407 131.480208 
L 221.644162 122.360687 
L 226.987606 129.56014 
L 229.153471 131.949816 
L 232.828919 133.651849 
L 235.058681 130.336405 
L 240.318259 129.56014 
L 253.684855 144.813771 
L 259.874942 146.093922 
L 269.271895 147.821563 
L 274.913527 141.745975 
L 280.643019 159.131039 
L 294.041564 161.188236 
" clip-path="url(#pbbe55ac206)" style="fill: none; stroke: #882255; stroke-width: 3; stroke-linecap: round"/>
   </g>
   <g id="line2d_2">
    <path d="M 47.2035 161.188236 
L 49.277512 172.416974 
L 51.352856 182.671316 
L 52.469734 190.201076 
L 54.399976 190.201076 
L 56.215735 170.718273 
L 58.168608 190.201076 
L 60.108169 190.201076 
L 60.108169 190.201076 
L 60.108169 184.550287 
L 62.508325 176.618008 
L 64.348046 158.014034 
L 65.885584 158.014034 
L 65.885584 156.672113 
L 65.885584 153.432895 
L 67.972908 137.933616 
L 67.972908 136.530954 
L 67.972908 136.122242 
L 69.666196 125.655134 
L 69.666196 122.797839 
L 69.666196 120.181866 
L 71.798781 108.629545 
L 71.798781 105.807584 
L 71.798781 105.302793 
L 73.457459 93.462111 
L 73.457459 93.393843 
L 73.457459 92.486651 
L 78.14462 65.901207 
L 79.268154 59.072391 
L 79.268154 57.933161 
L 79.268154 57.394878 
L 81.185084 49.828309 
L 81.185084 49.545337 
L 81.185084 49.273136 
L 83.072728 59.503494 
L 83.072728 56.855295 
L 83.072728 55.976353 
L 84.988327 60.348877 
L 84.988327 60.080027 
L 84.988327 59.894367 
L 87.034384 62.701786 
L 87.034384 62.274109 
L 87.034384 61.643459 
L 89.147001 73.6282 
L 89.147001 71.757709 
L 89.147001 70.445706 
L 93.015473 80.49919 
L 93.015473 79.612333 
L 93.015473 78.559419 
L 96.53517 79.743755 
L 96.53517 79.156698 
L 96.53517 78.877958 
L 98.476062 81.112494 
L 98.476062 80.49919 
L 98.476062 80.096961 
L 100.595335 86.131991 
L 100.595335 84.811795 
L 100.595335 84.811795 
L 104.297407 69.155781 
L 106.774773 81.458536 
L 108.196497 86.979684 
L 108.196497 83.17554 
L 108.196497 82.400661 
L 110.03888 88.339764 
L 110.03888 87.936872 
L 110.03888 86.951974 
L 111.873276 84.734343 
L 111.873276 83.995457 
L 111.873276 83.869824 
L 113.856766 59.629415 
L 113.856766 53.706442 
L 113.856766 53.489274 
L 117.943555 75.236934 
L 119.642168 77.725649 
L 119.642168 77.074415 
L 119.642168 75.446415 
L 123.704996 82.520466 
L 123.704996 82.06765 
L 123.704996 81.227413 
L 125.499455 82.568518 
L 127.397749 76.574992 
L 133.003439 90.343903 
L 136.905191 103.268112 
L 139.060407 105.858519 
L 140.769669 104.317224 
L 142.872968 98.658352 
L 146.469875 89.883823 
L 148.804803 83.819713 
L 152.239303 87.737372 
L 159.99089 99.560344 
L 162.050259 101.051729 
L 167.763776 111.611428 
L 173.05264 117.545828 
L 175.624522 116.88402 
L 177.524147 123.510365 
L 181.009233 117.103056 
L 186.708107 123.420398 
L 188.613056 118.450813 
L 194.691323 114.302639 
L 200.165224 103.268112 
L 202.261867 103.740583 
L 204.311917 114.639163 
L 208.644979 117.620243 
L 213.770105 116.66652 
L 215.499336 112.609294 
L 217.328407 128.802843 
L 221.644162 126.536526 
L 226.987606 135.189033 
L 229.153471 134.283104 
L 232.828919 128.802843 
L 235.058681 133.90281 
L 240.318259 129.450815 
L 253.684855 143.584405 
L 259.874942 141.745975 
L 269.271895 147.04181 
L 274.913527 160.885858 
L 280.643019 153.909728 
L 294.041564 172.416974 
" clip-path="url(#pbbe55ac206)" style="fill: none; stroke: #882255; stroke-width: 3; stroke-linecap: round"/>
   </g>
   <g id="line2d_3">
    <path d="M 47.2035 156.672113 
L 49.277512 174.680281 
L 51.352856 177.121979 
L 52.469734 182.069481 
L 54.399976 190.201076 
L 56.215735 179.772613 
L 58.168608 190.201076 
L 60.108169 179.772613 
L 60.108169 170.718273 
L 60.108169 160.586401 
L 62.508325 146.659169 
L 64.348046 145.174165 
L 65.885584 138.077438 
L 65.885584 133.651849 
L 65.885584 131.714122 
L 67.972908 124.798115 
L 67.972908 121.168481 
L 67.972908 117.620243 
L 69.666196 105.302793 
L 69.666196 102.941616 
L 69.666196 102.664473 
L 71.798781 95.147339 
L 71.798781 92.387472 
L 71.798781 91.380783 
L 73.457459 76.397151 
L 73.457459 75.657321 
L 73.457459 74.878405 
L 78.14462 75.028859 
L 79.268154 76.005566 
L 79.268154 74.672715 
L 79.268154 74.063713 
L 81.185084 79.329484 
L 81.185084 79.070664 
L 81.185084 77.705089 
L 83.072728 83.446443 
L 83.072728 82.809902 
L 83.072728 82.400661 
L 84.988327 78.877958 
L 84.988327 78.601702 
L 84.988327 77.602496 
L 87.034384 85.997412 
L 87.034384 85.997412 
L 87.034384 83.945143 
L 89.147001 90.842303 
L 89.147001 90.128349 
L 89.147001 89.490537 
L 93.015473 88.836139 
L 93.015473 85.836685 
L 93.015473 85.228171 
L 96.53517 88.572362 
L 96.53517 88.368744 
L 96.53517 86.868992 
L 98.476062 88.224117 
L 98.476062 84.863537 
L 98.476062 84.580018 
L 100.595335 94.223151 
L 100.595335 93.496302 
L 100.595335 93.462111 
L 104.297407 82.044 
L 106.774773 87.737372 
L 108.196497 85.703379 
L 108.196497 85.703379 
L 108.196497 83.89491 
L 110.03888 89.161611 
L 110.03888 88.39775 
L 110.03888 87.482746 
L 111.873276 87.258154 
L 111.873276 85.729994 
L 111.873276 85.359444 
L 113.856766 88.954097 
L 113.856766 85.783294 
L 113.856766 84.734343 
L 117.943555 90.560968 
L 119.642168 87.936872 
L 119.642168 87.680608 
L 119.642168 87.510934 
L 123.704996 93.805724 
L 123.704996 93.599099 
L 123.704996 92.920134 
L 125.499455 94.610796 
L 127.397749 92.987365 
L 133.003439 106.632752 
L 136.905191 107.588108 
L 139.060407 109.305794 
L 140.769669 104.317224 
L 142.872968 102.072367 
L 146.469875 90.779563 
L 148.804803 90.436745 
L 152.239303 95.730078 
L 159.99089 102.988048 
L 162.050259 96.28653 
L 167.763776 115.952352 
L 173.05264 116.81135 
L 175.624522 119.38302 
L 177.524147 118.298135 
L 181.009233 118.222078 
L 186.708107 118.835831 
L 188.613056 110.64469 
L 194.691323 98.739275 
L 200.165224 95.730078 
L 202.261867 94.363553 
L 204.311917 106.73746 
L 208.644979 117.029872 
L 213.770105 111.245359 
L 215.499336 113.705954 
L 217.328407 122.797839 
L 221.644162 130.112624 
L 226.987606 129.017332 
L 229.153471 125.17609 
L 232.828919 122.622237 
L 235.058681 122.97444 
L 240.318259 122.360687 
L 253.684855 133.155942 
L 259.874942 139.402779 
L 269.271895 140.474267 
L 274.913527 146.849899 
L 280.643019 154.150924 
L 294.041564 168.332979 
" clip-path="url(#pbbe55ac206)" style="fill: none; stroke: #882255; stroke-width: 3; stroke-linecap: round"/>
   </g>
   <g id="line2d_4">
    <path d="M 47.2035 155.469997 
L 49.277512 180.143797 
L 51.352856 148.621441 
L 52.469734 136.576701 
L 54.399976 124.641976 
L 56.215735 107.750237 
L 58.168608 89.621079 
L 60.108169 75.775114 
L 62.508325 57.630572 
L 64.348046 63.58395 
L 65.885584 75.508047 
L 67.972908 91.669695 
L 69.666196 92.856772 
L 71.798781 95.47378 
L 73.457459 94.347921 
L 78.14462 102.818135 
L 79.268154 103.571767 
L 81.185084 110.618262 
L 83.072728 119.365499 
L 84.988327 123.350604 
L 87.034384 126.437347 
L 89.147001 139.252689 
L 93.015473 149.006458 
L 96.53517 150.04933 
L 98.476062 157.172256 
L 100.595335 171.087798 
L 104.297407 190.201076 
L 106.774773 190.201076 
L 108.196497 188.362646 
L 110.03888 188.853319 
L 111.873276 186.627185 
L 113.856766 185.645579 
L 117.943555 190.201076 
L 119.642168 185.571343 
L 123.704996 188.039793 
L 125.499455 190.201076 
L 127.397749 188.200799 
L 133.003439 190.201076 
L 136.905191 190.201076 
L 139.060407 189.435765 
L 140.769669 179.772613 
L 142.872968 190.201076 
L 146.469875 190.201076 
L 148.804803 189.184803 
L 152.239303 190.201076 
L 159.99089 184.122783 
L 162.050259 189.435765 
L 167.763776 190.201076 
L 173.05264 187.013162 
L 175.624522 190.201076 
L 177.524147 189.184803 
L 181.009233 190.201076 
L 186.708107 188.200799 
L 188.613056 190.201076 
L 194.691323 187.247077 
L 200.165224 190.201076 
L 202.261867 189.435765 
L 204.311917 188.200799 
L 208.644979 190.201076 
L 213.770105 190.201076 
L 215.499336 186.321828 
L 217.328407 189.435765 
L 221.644162 185.645579 
L 226.987606 188.200799 
L 229.153471 190.201076 
L 232.828919 190.201076 
L 235.058681 189.435765 
L 240.318259 190.201076 
L 253.684855 190.201076 
L 259.874942 190.201076 
L 269.271895 189.435765 
L 274.913527 179.957649 
L 280.643019 190.201076 
L 294.041564 190.201076 
" clip-path="url(#pbbe55ac206)" style="fill: none; stroke: #000000; stroke-linecap: round"/>
   </g>
   <g id="patch_3">
    <path d="M 47.2035 199.117359 
L 47.2035 19.0715 
" style="fill: none; stroke: #262626; stroke-linejoin: miter; stroke-linecap: square"/>
   </g>
   <g id="patch_4">
    <path d="M 47.2035 199.117359 
L 315.57375 199.117359 
" style="fill: none; stroke: #262626; stroke-linejoin: miter; stroke-linecap: square"/>
   </g>
   <g id="text_5">
    <text style="fill: #262626; font: 9.6px 'Arial', 'DejaVu Sans', 'Liberation Sans', 'Bitstream Vera Sans', sans-serif; text-anchor: middle" x="181.388625" y="14.0715" transform="rotate(-0 181.388625 14.0715)">A. macleodii 1A3</text>
   </g>
  </g>
  <g id="axes_2">
   <g id="patch_5">
    <path d="M 47.2035 405.823406 
L 315.57375 405.823406 
L 315.57375 225.777547 
L 47.2035 225.777547 
L 47.2035 405.823406 
z
" style="fill: none"/>
   </g>
   <g id="matplotlib.axis_3">
    <g id="xtick_4"/>
    <g id="xtick_5"/>
    <g id="xtick_6"/>
   </g>
   <g id="matplotlib.axis_4">
    <g id="ytick_27">
     <g id="text_6">
      <!-- $\mathdefault{10^{-1}}$ -->
      <g style="fill: #262626" transform="translate(20.9795 372.171037)">
       <text>
        <tspan style="font: 8.8px 'Arial'" x="0 4.892395" y="-0.4372624999999992">10</tspan>
        <tspan style="font: 6.16px 'Arial'" x="9.938116 13.534183" y="-6.570312499999999">−1</tspan>
       </text>
      </g>
     </g>
    </g>
    <g id="ytick_28">
     <g id="text_7">
      <!-- $\mathdefault{10^{0}}$ -->
      <g style="fill: #262626" transform="translate(24.5875 300.805792)">
       <text>
        <tspan style="font: 8.8px 'Arial'" x="0 4.892395" y="-0.4372624999999992">10</tspan>
        <tspan style="font: 6.16px 'Arial'" x="9.938116" y="-6.570312499999999">0</tspan>
       </text>
      </g>
     </g>
    </g>
    <g id="ytick_29">
     <g id="text_8">
      <!-- $\mathdefault{10^{1}}$ -->
      <g style="fill: #262626" transform="translate(24.5875 229.440547)">
       <text>
        <tspan style="font: 8.8px 'Arial'" x="0 4.892395" y="-0.4372624999999992">10</tspan>
        <tspan style="font: 6.16px 'Arial'" x="9.938116" y="-6.570312499999999">1</tspan>
       </text>
      </g>
     </g>
    </g>
    <g id="ytick_30"/>
    <g id="ytick_31"/>
    <g id="ytick_32"/>
    <g id="ytick_33"/>
    <g id="ytick_34"/>
    <g id="ytick_35"/>
    <g id="ytick_36"/>
    <g id="ytick_37"/>
    <g id="ytick_38"/>
    <g id="ytick_39"/>
    <g id="ytick_40"/>
    <g id="ytick_41"/>
    <g id="ytick_42"/>
    <g id="ytick_43"/>
    <g id="ytick_44"/>
    <g id="ytick_45"/>
    <g id="ytick_46"/>
    <g id="ytick_47"/>
    <g id="ytick_48"/>
    <g id="ytick_49"/>
    <g id="ytick_50"/>
    <g id="ytick_51"/>
    <g id="ytick_52"/>
    <g id="text_9">
     <text style="fill: #262626; font: 9.6px 'Arial', 'DejaVu Sans', 'Liberation Sans', 'Bitstream Vera Sans', sans-serif; text-anchor: middle" x="14.0715" y="315.800477" transform="rotate(-90 14.0715 315.800477)">Fluorescence</text>
    </g>
   </g>
   <g id="line2d_5">
    <path d="M 47.2035 363.641936 
L 49.277512 387.037117 
L 51.352856 364.99558 
L 52.469734 359.903248 
L 54.399976 341.245297 
L 56.215735 334.355021 
L 58.168608 319.697982 
L 60.108169 311.217893 
L 60.108169 306.433247 
L 60.108169 305.689367 
L 62.508325 307.540277 
L 64.348046 322.517519 
L 65.885584 324.326289 
L 65.885584 323.590066 
L 65.885584 319.315341 
L 67.972908 326.326566 
L 67.972908 322.168095 
L 67.972908 322.098681 
L 69.666196 323.955992 
L 69.666196 323.156583 
L 69.666196 320.675777 
L 71.798781 310.589788 
L 71.798781 309.050289 
L 71.798781 308.553659 
L 73.457459 307.109804 
L 73.457459 306.98182 
L 73.457459 305.771144 
L 78.14462 308.823561 
L 79.268154 320.875093 
L 79.268154 319.000043 
L 79.268154 315.615571 
L 81.185084 312.462781 
L 81.185084 311.071812 
L 81.185084 308.419585 
L 83.072728 313.443507 
L 83.072728 310.494276 
L 83.072728 310.399058 
L 84.988327 307.281276 
L 84.988327 306.896789 
L 84.988327 306.059075 
L 87.034384 306.059075 
L 87.034384 305.526457 
L 87.034384 305.08282 
L 89.147001 311.660314 
L 89.147001 308.688317 
L 89.147001 307.889012 
L 93.015473 311.759494 
L 93.015473 310.878102 
L 93.015473 309.095834 
L 96.53517 298.472647 
L 96.53517 296.742472 
L 96.53517 294.61434 
L 98.476062 299.126543 
L 98.476062 298.343507 
L 98.476062 296.681341 
L 100.595335 300.650289 
L 100.595335 299.99777 
L 100.595335 298.440311 
L 104.297407 316.240577 
L 106.774773 299.760789 
L 108.196497 297.768945 
L 108.196497 296.742472 
L 108.196497 294.61434 
L 110.03888 301.49466 
L 110.03888 298.732552 
L 110.03888 297.204841 
L 111.873276 299.258994 
L 111.873276 298.569856 
L 111.873276 298.505016 
L 113.856766 300.859235 
L 113.856766 300.442743 
L 113.856766 300.339488 
L 117.943555 314.619265 
L 119.642168 311.809203 
L 119.642168 311.071812 
L 119.642168 308.868774 
L 123.704996 313.65399 
L 123.704996 310.781699 
L 123.704996 309.050289 
L 125.499455 313.130438 
L 127.397749 311.759494 
L 133.003439 312.820501 
L 136.905191 332.74982 
L 139.060407 336.818671 
L 140.769669 346.108826 
L 142.872968 349.441261 
L 146.469875 351.699491 
L 148.804803 362.857248 
L 152.239303 364.17632 
L 159.99089 359.669334 
L 162.050259 356.778955 
L 167.763776 366.122742 
L 173.05264 373.182571 
L 175.624522 360.376441 
L 177.524147 371.092327 
L 181.009233 370.097797 
L 186.708107 358.75094 
L 188.613056 354.135281 
L 194.691323 366.702077 
L 200.165224 353.940964 
L 202.261867 362.344946 
L 204.311917 363.907976 
L 208.644979 352.799969 
L 213.770105 360.856971 
L 215.499336 349.274179 
L 217.328407 351.163567 
L 221.644162 355.941241 
L 226.987606 355.941241 
L 229.153471 361.59203 
L 232.828919 362.091936 
L 235.058681 358.30175 
L 240.318259 350.986965 
L 253.684855 362.344946 
L 259.874942 361.59203 
L 269.271895 383.324054 
L 274.913527 391.256334 
L 280.643019 396.907123 
L 294.041564 396.907123 
" clip-path="url(#pfc2d553ffc)" style="fill: none; stroke: #882255; stroke-width: 3; stroke-linecap: round"/>
   </g>
   <g id="line2d_6">
    <path d="M 47.2035 351.519818 
L 49.277512 394.66565 
L 51.352856 366.122742 
L 52.469734 395.394943 
L 54.399976 381.386328 
L 56.215735 396.907123 
L 58.168608 375.813904 
L 60.108169 396.907123 
L 60.108169 383.324054 
L 60.108169 379.123021 
L 62.508325 391.256334 
L 64.348046 368.508037 
L 65.885584 388.775527 
L 65.885584 372.119831 
L 65.885584 370.757259 
L 67.972908 370.425774 
L 67.972908 363.116609 
L 67.972908 354.725652 
L 69.666196 363.37816 
L 69.666196 359.669334 
L 69.666196 356.778955 
L 71.798781 344.354006 
L 71.798781 343.100164 
L 71.798781 340.357896 
L 73.457459 334.252224 
L 73.457459 330.48789 
L 73.457459 327.7911 
L 78.14462 302.955168 
L 79.268154 297.142792 
L 79.268154 296.498667 
L 79.268154 296.317064 
L 81.185084 283.103198 
L 81.185084 282.575719 
L 81.185084 280.751491 
L 83.072728 269.496622 
L 83.072728 269.344568 
L 83.072728 269.231016 
L 84.988327 259.442404 
L 84.988327 258.315243 
L 84.988327 258.226816 
L 87.034384 251.455961 
L 87.034384 251.110135 
L 87.034384 250.095221 
L 89.147001 246.320431 
L 89.147001 245.583587 
L 89.147001 245.163646 
L 93.015473 241.455256 
L 93.015473 241.383381 
L 93.015473 240.874778 
L 96.53517 255.017001 
L 96.53517 254.945431 
L 96.53517 254.542963 
L 98.476062 265.767174 
L 98.476062 264.595799 
L 98.476062 263.792952 
L 100.595335 272.705713 
L 100.595335 272.369433 
L 100.595335 270.820113 
L 104.297407 347.024957 
L 106.774773 281.434724 
L 108.196497 282.114268 
L 108.196497 280.46064 
L 108.196497 278.328339 
L 110.03888 282.614485 
L 110.03888 281.659587 
L 110.03888 281.192949 
L 111.873276 281.829312 
L 111.873276 281.772634 
L 111.873276 279.69224 
L 113.856766 283.459905 
L 113.856766 283.083501 
L 113.856766 281.697224 
L 117.943555 288.18779 
L 119.642168 286.692198 
L 119.642168 286.581783 
L 119.642168 285.949017 
L 123.704996 289.808113 
L 123.704996 288.18779 
L 123.704996 287.00347 
L 125.499455 287.818541 
L 127.397749 285.520034 
L 133.003439 290.326123 
L 136.905191 297.329313 
L 139.060407 299.895985 
L 140.769669 307.845205 
L 142.872968 317.709739 
L 146.469875 343.100164 
L 148.804803 344.639663 
L 152.239303 353.175653 
L 159.99089 342.963929 
L 162.050259 343.374445 
L 167.763776 364.72008 
L 173.05264 353.747857 
L 175.624522 360.615775 
L 177.524147 361.59203 
L 181.009233 353.747857 
L 186.708107 344.354006 
L 188.613056 345.660718 
L 194.691323 321.617085 
L 200.165224 309.83381 
L 202.261867 303.067531 
L 204.311917 302.992577 
L 208.644979 334.874188 
L 213.770105 330.216412 
L 215.499336 336.266187 
L 217.328407 340.10895 
L 221.644162 342.026688 
L 226.987606 349.107994 
L 229.153471 351.880212 
L 232.828919 351.699491 
L 235.058681 358.079574 
L 240.318259 361.59203 
L 253.684855 372.82426 
L 259.874942 373.545072 
L 269.271895 378.689538 
L 274.913527 361.840975 
L 280.643019 387.037117 
L 294.041564 383.324054 
" clip-path="url(#pfc2d553ffc)" style="fill: none; stroke: #882255; stroke-width: 3; stroke-linecap: round"/>
   </g>
   <g id="line2d_7">
    <path d="M 47.2035 355.735303 
L 49.277512 385.930087 
L 51.352856 377.42432 
L 52.469734 379.123021 
L 54.399976 379.123021 
L 56.215735 369.13419 
L 58.168608 365.837085 
L 60.108169 360.856971 
L 60.108169 360.615775 
L 60.108169 356.99197 
L 62.508325 335.723379 
L 64.348046 324.029698 
L 65.885584 320.808512 
L 65.885584 319.955726 
L 65.885584 319.125778 
L 67.972908 309.278687 
L 67.972908 306.141835 
L 67.972908 305.976536 
L 69.666196 292.64979 
L 69.666196 291.132505 
L 69.666196 289.955235 
L 71.798781 279.745236 
L 71.798781 278.787763 
L 71.798781 277.380247 
L 73.457459 268.619979 
L 73.457459 267.863704 
L 73.457459 267.373536 
L 78.14462 248.994269 
L 79.268154 247.553343 
L 79.268154 247.032119 
L 79.268154 245.612962 
L 81.185084 246.440935 
L 81.185084 246.23036 
L 81.185084 245.372905 
L 83.072728 262.631466 
L 83.072728 262.166756 
L 83.072728 261.345491 
L 84.988327 269.572929 
L 84.988327 267.875757 
L 84.988327 266.879323 
L 87.034384 276.317508 
L 87.034384 274.459028 
L 87.034384 274.014987 
L 89.147001 282.459711 
L 89.147001 280.934668 
L 89.147001 280.751491 
L 93.015473 287.84149 
L 93.015473 284.534699 
L 93.015473 284.308543 
L 96.53517 286.559747 
L 96.53517 285.328912 
L 96.53517 285.054911 
L 98.476062 285.88429 
L 98.476062 285.605357 
L 98.476062 284.226711 
L 100.595335 290.226785 
L 100.595335 289.370893 
L 100.595335 286.847444 
L 104.297407 272.565153 
L 106.774773 288.141393 
L 108.196497 288.987364 
L 108.196497 286.936505 
L 108.196497 286.340245 
L 110.03888 288.444226 
L 110.03888 288.11822 
L 110.03888 287.385695 
L 111.873276 290.202 
L 111.873276 287.681198 
L 111.873276 287.499017 
L 113.856766 288.726415 
L 113.856766 288.048806 
L 113.856766 287.956494 
L 117.943555 289.25053 
L 119.642168 293.190704 
L 119.642168 290.52576 
L 119.642168 289.25053 
L 123.704996 297.991122 
L 123.704996 296.98821 
L 123.704996 296.256765 
L 125.499455 299.258994 
L 127.397749 300.546342 
L 133.003439 320.543608 
L 136.905191 331.130742 
L 139.060407 345.36554 
L 140.769669 337.26786 
L 142.872968 331.038085 
L 146.469875 347.968996 
L 148.804803 341.116959 
L 152.239303 349.274179 
L 159.99089 353.747857 
L 162.050259 348.614718 
L 167.763776 354.725652 
L 173.05264 353.555946 
L 175.624522 352.244846 
L 177.524147 376.208732 
L 181.009233 364.99558 
L 186.708107 353.940964 
L 188.613056 348.452022 
L 194.691323 334.458161 
L 200.165224 334.769657 
L 202.261867 328.464899 
L 204.311917 326.968942 
L 208.644979 334.561646 
L 213.770105 328.807372 
L 215.499336 329.153672 
L 217.328407 335.50889 
L 221.644162 335.939363 
L 226.987606 339.012798 
L 229.153471 349.77815 
L 232.828919 343.100164 
L 235.058681 342.424897 
L 240.318259 360.376441 
L 253.684855 370.425774 
L 259.874942 373.182571 
L 269.271895 365.837085 
L 274.913527 375.039026 
L 280.643019 364.447008 
L 294.041564 383.828025 
" clip-path="url(#pfc2d553ffc)" style="fill: none; stroke: #882255; stroke-width: 3; stroke-linecap: round"/>
   </g>
   <g id="line2d_8">
    <path d="M 47.2035 362.176044 
L 49.277512 386.849844 
L 51.352856 355.327487 
L 52.469734 343.282748 
L 54.399976 331.348023 
L 56.215735 314.456284 
L 58.168608 296.327125 
L 60.108169 282.481161 
L 62.508325 264.336619 
L 64.348046 270.289997 
L 65.885584 282.214094 
L 67.972908 298.375741 
L 69.666196 299.562818 
L 71.798781 302.179827 
L 73.457459 301.053968 
L 78.14462 309.524182 
L 79.268154 310.277814 
L 81.185084 317.324309 
L 83.072728 326.071546 
L 84.988327 330.056651 
L 87.034384 333.143394 
L 89.147001 345.958736 
L 93.015473 355.712505 
L 96.53517 356.755377 
L 98.476062 363.878303 
L 100.595335 377.793845 
L 104.297407 396.907123 
L 106.774773 396.907123 
L 108.196497 395.068692 
L 110.03888 395.559366 
L 111.873276 393.333232 
L 113.856766 392.351625 
L 117.943555 396.907123 
L 119.642168 392.277389 
L 123.704996 394.74584 
L 125.499455 396.907123 
L 127.397749 394.906846 
L 133.003439 396.907123 
L 136.905191 396.907123 
L 139.060407 396.141811 
L 140.769669 386.47866 
L 142.872968 396.907123 
L 146.469875 396.907123 
L 148.804803 395.89085 
L 152.239303 396.907123 
L 159.99089 390.82883 
L 162.050259 396.141811 
L 167.763776 396.907123 
L 173.05264 393.719209 
L 175.624522 396.907123 
L 177.524147 395.89085 
L 181.009233 396.907123 
L 186.708107 394.906846 
L 188.613056 396.907123 
L 194.691323 393.953124 
L 200.165224 396.907123 
L 202.261867 396.141811 
L 204.311917 394.906846 
L 208.644979 396.907123 
L 213.770105 396.907123 
L 215.499336 393.027875 
L 217.328407 396.141811 
L 221.644162 392.351625 
L 226.987606 394.906846 
L 229.153471 396.907123 
L 232.828919 396.907123 
L 235.058681 396.141811 
L 240.318259 396.907123 
L 253.684855 396.907123 
L 259.874942 396.907123 
L 269.271895 396.141811 
L 274.913527 386.663696 
L 280.643019 396.907123 
L 294.041564 396.907123 
" clip-path="url(#pfc2d553ffc)" style="fill: none; stroke: #000000; stroke-linecap: round"/>
   </g>
   <g id="patch_6">
    <path d="M 47.2035 405.823406 
L 47.2035 225.777547 
" style="fill: none; stroke: #262626; stroke-linejoin: miter; stroke-linecap: square"/>
   </g>
   <g id="patch_7">
    <path d="M 47.2035 405.823406 
L 315.57375 405.823406 
" style="fill: none; stroke: #262626; stroke-linejoin: miter; stroke-linecap: square"/>
   </g>
   <g id="text_10">
    <text style="fill: #262626; font: 9.6px 'Arial', 'DejaVu Sans', 'Liberation Sans', 'Bitstream Vera Sans', sans-serif; text-anchor: middle" x="181.388625" y="220.777547" transform="rotate(-0 181.388625 220.777547)">Pseudoalteromonas haloplanktis</text>
   </g>
  </g>
  <g id="axes_3">
   <g id="patch_8">
    <path d="M 47.2035 612.529453 
L 315.57375 612.529453 
L 315.57375 432.483594 
L 47.2035 432.483594 
L 47.2035 612.529453 
z
" style="fill: none"/>
   </g>
   <g id="matplotlib.axis_5">
    <g id="xtick_7"/>
    <g id="xtick_8"/>
    <g id="xtick_9"/>
   </g>
   <g id="matplotlib.axis_6">
    <g id="ytick_53">
     <g id="text_11">
      <!-- $\mathdefault{10^{-1}}$ -->
      <g style="fill: #262626" transform="translate(20.9795 578.877083)">
       <text>
        <tspan style="font: 8.8px 'Arial'" x="0 4.892395" y="-0.4372624999999992">10</tspan>
        <tspan style="font: 6.16px 'Arial'" x="9.938116 13.534183" y="-6.570312499999999">−1</tspan>
       </text>
      </g>
     </g>
    </g>
    <g id="ytick_54">
     <g id="text_12">
      <!-- $\mathdefault{10^{0}}$ -->
      <g style="fill: #262626" transform="translate(24.5875 507.511839)">
       <text>
        <tspan style="font: 8.8px 'Arial'" x="0 4.892395" y="-0.4372624999999992">10</tspan>
        <tspan style="font: 6.16px 'Arial'" x="9.938116" y="-6.570312499999999">0</tspan>
       </text>
      </g>
     </g>
    </g>
    <g id="ytick_55">
     <g id="text_13">
      <!-- $\mathdefault{10^{1}}$ -->
      <g style="fill: #262626" transform="translate(24.5875 436.146594)">
       <text>
        <tspan style="font: 8.8px 'Arial'" x="0 4.892395" y="-0.4372624999999992">10</tspan>
        <tspan style="font: 6.16px 'Arial'" x="9.938116" y="-6.570312499999999">1</tspan>
       </text>
      </g>
     </g>
    </g>
    <g id="ytick_56"/>
    <g id="ytick_57"/>
    <g id="ytick_58"/>
    <g id="ytick_59"/>
    <g id="ytick_60"/>
    <g id="ytick_61"/>
    <g id="ytick_62"/>
    <g id="ytick_63"/>
    <g id="ytick_64"/>
    <g id="ytick_65"/>
    <g id="ytick_66"/>
    <g id="ytick_67"/>
    <g id="ytick_68"/>
    <g id="ytick_69"/>
    <g id="ytick_70"/>
    <g id="ytick_71"/>
    <g id="ytick_72"/>
    <g id="ytick_73"/>
    <g id="ytick_74"/>
    <g id="ytick_75"/>
    <g id="ytick_76"/>
    <g id="ytick_77"/>
    <g id="ytick_78"/>
    <g id="text_14">
     <text style="fill: #262626; font: 9.6px 'Arial', 'DejaVu Sans', 'Liberation Sans', 'Bitstream Vera Sans', sans-serif; text-anchor: middle" x="14.0715" y="522.506523" transform="rotate(-90 14.0715 522.506523)">Fluorescence</text>
    </g>
   </g>
   <g id="line2d_9">
    <path d="M 47.2035 582.13009 
L 49.277512 588.092375 
L 51.352856 571.701627 
L 52.469734 564.345988 
L 54.399976 561.431699 
L 56.215735 546.445289 
L 58.168608 535.686086 
L 60.108169 532.481252 
L 60.108169 531.5583 
L 60.108169 529.934458 
L 62.508325 529.364446 
L 64.348046 516.353709 
L 65.885584 523.234937 
L 65.885584 519.42392 
L 65.885584 517.535909 
L 67.972908 534.413943 
L 67.972908 531.710229 
L 67.972908 531.181703 
L 69.666196 535.427445 
L 69.666196 534.497147 
L 69.666196 532.170538 
L 71.798781 528.666364 
L 71.798781 525.393967 
L 71.798781 522.60415 
L 73.457459 529.648141 
L 73.457459 525.643413 
L 73.457459 521.598866 
L 78.14462 527.249655 
L 79.268154 535.085915 
L 79.268154 534.664228 
L 79.268154 532.403281 
L 81.185084 536.034331 
L 81.185084 532.71635 
L 81.185084 532.403281 
L 83.072728 532.795114 
L 83.072728 531.786474 
L 83.072728 531.710229 
L 84.988327 538.304272 
L 84.988327 535.772781 
L 84.988327 535.34171 
L 87.034384 536.742786 
L 87.034384 532.247925 
L 87.034384 527.381824 
L 89.147001 535.25621 
L 89.147001 531.939529 
L 89.147001 530.735745 
L 93.015473 535.34171 
L 93.015473 534.165662 
L 93.015473 532.170538 
L 96.53517 537.744132 
L 96.53517 535.859719 
L 96.53517 531.407112 
L 98.476062 537.467814 
L 98.476062 534.664228 
L 98.476062 529.790969 
L 100.595335 532.016341 
L 100.595335 528.051257 
L 100.595335 527.916209 
L 104.297407 530.296113 
L 106.774773 538.778914 
L 108.196497 535.427445 
L 108.196497 533.191963 
L 108.196497 532.637786 
L 110.03888 533.513143 
L 110.03888 531.256657 
L 110.03888 529.790969 
L 111.873276 536.386534 
L 111.873276 534.580575 
L 111.873276 533.75623 
L 113.856766 536.475214 
L 113.856766 528.186896 
L 113.856766 527.315669 
L 117.943555 529.505969 
L 119.642168 525.580863 
L 119.642168 524.657452 
L 119.642168 524.657452 
L 123.704996 533.919355 
L 123.704996 530.078614 
L 123.704996 528.735469 
L 125.499455 527.781746 
L 127.397749 531.786474 
L 133.003439 532.874078 
L 136.905191 532.953244 
L 139.060407 539.94862 
L 140.769669 535.513419 
L 142.872968 534.580575 
L 146.469875 530.078614 
L 148.804803 532.55942 
L 152.239303 538.304272 
L 159.99089 544.660139 
L 162.050259 550.080492 
L 167.763776 536.209932 
L 173.05264 547.695197 
L 175.624522 544.660139 
L 177.524147 549.534336 
L 181.009233 549.399288 
L 186.708107 543.748499 
L 188.613056 547.951344 
L 194.691323 560.261993 
L 200.165224 552.071587 
L 202.261867 549.130944 
L 204.311917 564.345988 
L 208.644979 565.007797 
L 213.770105 546.93922 
L 215.499336 554.0425 
L 217.328407 554.0425 
L 221.644162 548.339577 
L 226.987606 539.455867 
L 229.153471 538.39862 
L 232.828919 539.163932 
L 235.058681 540.048118 
L 240.318259 541.895961 
L 253.684855 548.601127 
L 259.874942 542.001922 
L 269.271895 536.475214 
L 274.913527 540.550455 
L 280.643019 551.060053 
L 294.041564 584.130367 
" clip-path="url(#p6fdae1aa1c)" style="fill: none; stroke: #cc6677; stroke-width: 3; stroke-linecap: round"/>
   </g>
   <g id="line2d_10">
    <path d="M 47.2035 569.050993 
L 49.277512 599.962657 
L 51.352856 570.614023 
L 52.469734 582.13009 
L 54.399976 554.996222 
L 56.215735 546.568036 
L 58.168608 534.248201 
L 60.108169 533.112186 
L 60.108169 529.364446 
L 60.108169 528.051257 
L 62.508325 536.386534 
L 64.348046 535.001118 
L 65.885584 536.922459 
L 65.885584 532.71635 
L 65.885584 529.86263 
L 67.972908 544.544707 
L 67.972908 543.973907 
L 67.972908 540.248077 
L 69.666196 543.748499 
L 69.666196 542.862909 
L 69.666196 541.371524 
L 71.798781 545.009038 
L 71.798781 544.087229 
L 71.798781 543.192047 
L 73.457459 542.753969 
L 73.457459 540.753692 
L 73.457459 539.067228 
L 78.14462 541.895961 
L 79.268154 548.601127 
L 79.268154 547.441151 
L 79.268154 546.568036 
L 81.185084 553.88636 
L 81.185084 548.339577 
L 81.185084 548.209625 
L 83.072728 548.080215 
L 83.072728 547.695197 
L 83.072728 545.009038 
L 84.988327 551.202552 
L 84.988327 546.201244 
L 84.988327 545.838742 
L 87.034384 551.34571 
L 87.034384 551.202552 
L 87.034384 548.601127 
L 89.147001 557.169165 
L 89.147001 551.060053 
L 89.147001 544.087229 
L 93.015473 549.264825 
L 93.015473 542.53723 
L 93.015473 538.874721 
L 96.53517 546.93922 
L 96.53517 543.302541 
L 96.53517 537.012688 
L 98.476062 539.358249 
L 98.476062 538.778914 
L 98.476062 537.929723 
L 100.595335 544.660139 
L 100.595335 538.683402 
L 100.595335 537.651752 
L 104.297407 545.959106 
L 106.774773 553.269553 
L 108.196497 550.636445 
L 108.196497 549.669975 
L 108.196497 546.69127 
L 110.03888 546.445289 
L 110.03888 545.959106 
L 110.03888 543.973907 
L 111.873276 543.524718 
L 111.873276 542.321996 
L 111.873276 540.651907 
L 113.856766 540.855812 
L 113.856766 539.260938 
L 113.856766 538.778914 
L 117.943555 554.357157 
L 119.642168 544.429703 
L 119.642168 542.108247 
L 119.642168 535.085915 
L 123.704996 553.117251 
L 123.704996 544.315124 
L 123.704996 539.750577 
L 125.499455 543.524718 
L 127.397749 548.864903 
L 133.003439 553.117251 
L 136.905191 558.405538 
L 139.060407 556.484197 
L 140.769669 558.047227 
L 142.872968 554.515692 
L 146.469875 551.489531 
L 148.804803 560.071263 
L 152.239303 568.797983 
L 159.99089 558.76804 
L 162.050259 562.854603 
L 167.763776 558.950893 
L 173.05264 561.431699 
L 175.624522 567.563018 
L 177.524147 577.131821 
L 181.009233 560.647011 
L 186.708107 561.233657 
L 188.613056 558.76804 
L 194.691323 578.137105 
L 200.165224 561.831621 
L 202.261867 566.844989 
L 204.311917 568.051115 
L 208.644979 573.701904 
L 213.770105 572.828789 
L 215.499336 567.082488 
L 217.328407 566.375381 
L 221.644162 564.565025 
L 226.987606 564.565025 
L 229.153471 560.071263 
L 232.828919 557.517411 
L 235.058681 564.78562 
L 240.318259 560.261993 
L 253.684855 566.143218 
L 259.874942 587.167126 
L 269.271895 565.684047 
L 274.913527 572.828789 
L 280.643019 566.375381 
L 294.041564 579.888618 
" clip-path="url(#p6fdae1aa1c)" style="fill: none; stroke: #cc6677; stroke-width: 3; stroke-linecap: round"/>
   </g>
   <g id="line2d_11">
    <path d="M 47.2035 580.251119 
L 49.277512 603.61317 
L 51.352856 575.525579 
L 52.469734 563.273441 
L 54.399976 562.033534 
L 56.215735 549.534336 
L 58.168608 539.163932 
L 60.108169 544.544707 
L 60.108169 538.683402 
L 60.108169 533.112186 
L 62.508325 544.200967 
L 64.348046 533.75623 
L 65.885584 534.413943 
L 65.885584 530.441965 
L 65.885584 529.719473 
L 67.972908 541.475704 
L 67.972908 533.75623 
L 67.972908 533.352137 
L 69.666196 540.651907 
L 69.666196 539.94862 
L 69.666196 537.744132 
L 71.798781 545.361909 
L 71.798781 540.753692 
L 71.798781 537.651752 
L 73.457459 545.718845 
L 73.457459 540.147936 
L 73.457459 537.10318 
L 78.14462 544.429703 
L 79.268154 556.824789 
L 79.268154 547.695197 
L 79.268154 540.550455 
L 81.185084 551.779193 
L 81.185084 550.357222 
L 81.185084 544.660139 
L 83.072728 551.489531 
L 83.072728 548.732735 
L 83.072728 547.063943 
L 84.988327 549.943048 
L 84.988327 547.314904 
L 84.988327 544.660139 
L 87.034384 553.88636 
L 87.034384 549.669975 
L 87.034384 547.063943 
L 89.147001 550.496519 
L 89.147001 549.806211 
L 89.147001 543.524718 
L 93.015473 549.669975 
L 93.015473 544.660139 
L 93.015473 541.895961 
L 96.53517 545.838742 
L 96.53517 541.895961 
L 96.53517 541.68512 
L 98.476062 543.302541 
L 98.476062 540.048118 
L 98.476062 538.116431 
L 100.595335 537.28496 
L 100.595335 535.513419 
L 100.595335 534.916552 
L 104.297407 543.302541 
L 106.774773 549.130944 
L 108.196497 546.568036 
L 108.196497 546.445289 
L 108.196497 538.304272 
L 110.03888 539.455867 
L 110.03888 538.778914 
L 110.03888 533.59396 
L 111.873276 542.429426 
L 111.873276 540.95827 
L 111.873276 534.413943 
L 113.856766 539.260938 
L 113.856766 535.085915 
L 113.856766 534.165662 
L 117.943555 538.022937 
L 119.642168 537.28496 
L 119.642168 534.664228 
L 119.642168 533.432535 
L 123.704996 539.652029 
L 123.704996 532.795114 
L 123.704996 532.481252 
L 125.499455 538.874721 
L 127.397749 536.475214 
L 133.003439 542.321996 
L 136.905191 548.339577 
L 139.060407 548.080215 
L 140.769669 552.965693 
L 142.872968 546.69127 
L 146.469875 548.470076 
L 148.804803 553.422608 
L 152.239303 554.357157 
L 159.99089 561.036872 
L 162.050259 557.517411 
L 167.763776 556.824789 
L 173.05264 568.298077 
L 175.624522 563.063314 
L 177.524147 564.78562 
L 181.009233 569.822656 
L 186.708107 564.128489 
L 188.613056 566.143218 
L 194.691323 560.261993 
L 200.165224 564.128489 
L 202.261867 560.647011 
L 204.311917 577.131821 
L 208.644979 558.225865 
L 213.770105 575.214083 
L 215.499336 567.321822 
L 217.328407 561.431699 
L 221.644162 569.563294 
L 226.987606 562.236771 
L 229.153471 558.225865 
L 232.828919 567.563018 
L 235.058681 555.484319 
L 240.318259 564.78562 
L 253.684855 565.912782 
L 259.874942 571.979598 
L 269.271895 576.479301 
L 274.913527 581.745072 
L 280.643019 589.046097 
L 294.041564 585.829068 
" clip-path="url(#p6fdae1aa1c)" style="fill: none; stroke: #cc6677; stroke-width: 3; stroke-linecap: round"/>
   </g>
   <g id="line2d_12">
    <path d="M 47.2035 568.88209 
L 49.277512 593.555891 
L 51.352856 562.033534 
L 52.469734 549.988795 
L 54.399976 538.05407 
L 56.215735 521.16233 
L 58.168608 503.033172 
L 60.108169 489.187208 
L 62.508325 471.042665 
L 64.348046 476.996044 
L 65.885584 488.92014 
L 67.972908 505.081788 
L 69.666196 506.268865 
L 71.798781 508.885874 
L 73.457459 507.760015 
L 78.14462 516.230229 
L 79.268154 516.983861 
L 81.185084 524.030356 
L 83.072728 532.777593 
L 84.988327 536.762698 
L 87.034384 539.84944 
L 89.147001 552.664782 
L 93.015473 562.418552 
L 96.53517 563.461423 
L 98.476062 570.58435 
L 100.595335 584.499892 
L 104.297407 603.61317 
L 106.774773 603.61317 
L 108.196497 601.774739 
L 110.03888 602.265412 
L 111.873276 600.039279 
L 113.856766 599.057672 
L 117.943555 603.61317 
L 119.642168 598.983436 
L 123.704996 601.451887 
L 125.499455 603.61317 
L 127.397749 601.612893 
L 133.003439 603.61317 
L 136.905191 603.61317 
L 139.060407 602.847858 
L 140.769669 593.184707 
L 142.872968 603.61317 
L 146.469875 603.61317 
L 148.804803 602.596897 
L 152.239303 603.61317 
L 159.99089 597.534877 
L 162.050259 602.847858 
L 167.763776 603.61317 
L 173.05264 600.425256 
L 175.624522 603.61317 
L 177.524147 602.596897 
L 181.009233 603.61317 
L 186.708107 601.612893 
L 188.613056 603.61317 
L 194.691323 600.65917 
L 200.165224 603.61317 
L 202.261867 602.847858 
L 204.311917 601.612893 
L 208.644979 603.61317 
L 213.770105 603.61317 
L 215.499336 599.733922 
L 217.328407 602.847858 
L 221.644162 599.057672 
L 226.987606 601.612893 
L 229.153471 603.61317 
L 232.828919 603.61317 
L 235.058681 602.847858 
L 240.318259 603.61317 
L 253.684855 603.61317 
L 259.874942 603.61317 
L 269.271895 602.847858 
L 274.913527 593.369743 
L 280.643019 603.61317 
L 294.041564 603.61317 
" clip-path="url(#p6fdae1aa1c)" style="fill: none; stroke: #000000; stroke-linecap: round"/>
   </g>
   <g id="patch_9">
    <path d="M 47.2035 612.529453 
L 47.2035 432.483594 
" style="fill: none; stroke: #262626; stroke-linejoin: miter; stroke-linecap: square"/>
   </g>
   <g id="patch_10">
    <path d="M 47.2035 612.529453 
L 315.57375 612.529453 
" style="fill: none; stroke: #262626; stroke-linejoin: miter; stroke-linecap: square"/>
   </g>
   <g id="text_15">
    <text style="fill: #262626; font: 9.6px 'Arial', 'DejaVu Sans', 'Liberation Sans', 'Bitstream Vera Sans', sans-serif; text-anchor: middle" x="181.388625" y="427.483594" transform="rotate(-0 181.388625 427.483594)">Sulfitobacter pseudonitzschiae</text>
   </g>
  </g>
  <g id="axes_4">
   <g id="patch_11">
    <path d="M 47.2035 819.2355 
L 315.57375 819.2355 
L 315.57375 639.189641 
L 47.2035 639.189641 
L 47.2035 819.2355 
z
" style="fill: none"/>
   </g>
   <g id="matplotlib.axis_7">
    <g id="xtick_10">
     <g id="text_16">
      <text style="fill: #262626; font: 8.8px 'Arial', 'DejaVu Sans', 'Liberation Sans', 'Bitstream Vera Sans', sans-serif; text-anchor: middle" x="47.2035" y="834.334375" transform="rotate(-0 47.2035 834.334375)">0</text>
     </g>
    </g>
    <g id="xtick_11">
     <g id="text_17">
      <text style="fill: #262626; font: 8.8px 'Arial', 'DejaVu Sans', 'Liberation Sans', 'Bitstream Vera Sans', sans-serif; text-anchor: middle" x="162.219321" y="834.334375" transform="rotate(-0 162.219321 834.334375)">60</text>
     </g>
    </g>
    <g id="xtick_12">
     <g id="text_18">
      <text style="fill: #262626; font: 8.8px 'Arial', 'DejaVu Sans', 'Liberation Sans', 'Bitstream Vera Sans', sans-serif; text-anchor: middle" x="277.235143" y="834.334375" transform="rotate(-0 277.235143 834.334375)">120</text>
     </g>
    </g>
    <g id="text_19">
     <text style="fill: #262626; font: 9.6px 'Arial', 'DejaVu Sans', 'Liberation Sans', 'Bitstream Vera Sans', sans-serif; text-anchor: middle" x="181.388625" y="847.954875" transform="rotate(-0 181.388625 847.954875)">day</text>
    </g>
   </g>
   <g id="matplotlib.axis_8">
    <g id="ytick_79">
     <g id="text_20">
      <!-- $\mathdefault{10^{-1}}$ -->
      <g style="fill: #262626" transform="translate(20.9795 785.58313)">
       <text>
        <tspan style="font: 8.8px 'Arial'" x="0 4.892395" y="-0.4372624999999992">10</tspan>
        <tspan style="font: 6.16px 'Arial'" x="9.938116 13.534183" y="-6.570312499999999">−1</tspan>
       </text>
      </g>
     </g>
    </g>
    <g id="ytick_80">
     <g id="text_21">
      <!-- $\mathdefault{10^{0}}$ -->
      <g style="fill: #262626" transform="translate(24.5875 714.217885)">
       <text>
        <tspan style="font: 8.8px 'Arial'" x="0 4.892395" y="-0.4372624999999992">10</tspan>
        <tspan style="font: 6.16px 'Arial'" x="9.938116" y="-6.570312499999999">0</tspan>
       </text>
      </g>
     </g>
    </g>
    <g id="ytick_81">
     <g id="text_22">
      <!-- $\mathdefault{10^{1}}$ -->
      <g style="fill: #262626" transform="translate(24.5875 642.852641)">
       <text>
        <tspan style="font: 8.8px 'Arial'" x="0 4.892395" y="-0.4372624999999992">10</tspan>
        <tspan style="font: 6.16px 'Arial'" x="9.938116" y="-6.570312499999999">1</tspan>
       </text>
      </g>
     </g>
    </g>
    <g id="ytick_82"/>
    <g id="ytick_83"/>
    <g id="ytick_84"/>
    <g id="ytick_85"/>
    <g id="ytick_86"/>
    <g id="ytick_87"/>
    <g id="ytick_88"/>
    <g id="ytick_89"/>
    <g id="ytick_90"/>
    <g id="ytick_91"/>
    <g id="ytick_92"/>
    <g id="ytick_93"/>
    <g id="ytick_94"/>
    <g id="ytick_95"/>
    <g id="ytick_96"/>
    <g id="ytick_97"/>
    <g id="ytick_98"/>
    <g id="ytick_99"/>
    <g id="ytick_100"/>
    <g id="ytick_101"/>
    <g id="ytick_102"/>
    <g id="ytick_103"/>
    <g id="ytick_104"/>
    <g id="text_23">
     <text style="fill: #262626; font: 9.6px 'Arial', 'DejaVu Sans', 'Liberation Sans', 'Bitstream Vera Sans', sans-serif; text-anchor: middle" x="14.0715" y="729.21257" transform="rotate(-90 14.0715 729.21257)">Fluorescence</text>
    </g>
   </g>
   <g id="line2d_13">
    <path d="M 47.2035 787.323958 
L 49.277512 810.319216 
L 51.352856 763.360072 
L 52.469734 767.939704 
L 54.399976 742.219466 
L 56.215735 733.36782 
L 58.168608 724.145703 
L 60.108169 729.65267 
L 60.108169 728.304913 
L 60.108169 726.750893 
L 62.508325 738.953972 
L 64.348046 750.454546 
L 65.885584 760.282469 
L 65.885584 758.195578 
L 65.885584 753.521044 
L 67.972908 760.437051 
L 67.972908 759.823298 
L 67.972908 751.250754 
L 69.666196 761.702269 
L 69.666196 761.063204 
L 69.666196 756.240383 
L 71.798781 762.520088 
L 71.798781 762.026811 
L 71.798781 761.221739 
L 73.457459 757.908599 
L 73.457459 757.7661 
L 73.457459 753.397317 
L 78.14462 763.021342 
L 79.268154 774.512152 
L 79.268154 772.618829 
L 79.268154 766.212063 
L 81.185084 767.547375 
L 81.185084 763.875212 
L 81.185084 758.924871 
L 83.072728 765.292306 
L 83.072728 764.57566 
L 83.072728 761.063204 
L 84.988327 768.942818 
L 84.988327 768.337062 
L 84.988327 768.337062 
L 87.034384 765.292306 
L 87.034384 763.530836 
L 87.034384 761.221739 
L 89.147001 767.547375 
L 89.147001 766.96804 
L 89.147001 764.57566 
L 93.015473 760.282469 
L 93.015473 759.9756 
L 93.015473 758.051756 
L 96.53517 757.7661 
L 96.53517 752.186478 
L 96.53517 748.814294 
L 98.476062 758.631092 
L 98.476062 757.7661 
L 98.476062 755.970872 
L 100.595335 764.048846 
L 100.595335 761.864115 
L 100.595335 757.483052 
L 104.297407 775.004124 
L 106.774773 771.271072 
L 108.196497 773.788535 
L 108.196497 769.769361 
L 108.196497 767.159951 
L 110.03888 766.025915 
L 110.03888 764.753274 
L 110.03888 762.190366 
L 111.873276 772.163034 
L 111.873276 768.537668 
L 111.873276 762.853355 
L 113.856766 765.474087 
L 113.856766 761.702269 
L 113.856766 758.924871 
L 117.943555 787.323958 
L 119.642168 778.407674 
L 119.642168 774.269065 
L 119.642168 764.753274 
L 123.704996 763.190244 
L 123.704996 758.924871 
L 123.704996 756.924595 
L 125.499455 757.202565 
L 127.397749 761.541263 
L 133.003439 764.931912 
L 136.905191 756.512258 
L 139.060407 769.979488 
L 140.769669 772.849265 
L 142.872968 763.190244 
L 146.469875 768.739581 
L 148.804803 759.67174 
L 152.239303 771.491667 
L 159.99089 782.864169 
L 162.050259 771.713844 
L 167.763776 773.315342 
L 173.05264 790.020748 
L 175.624522 785.185625 
L 177.524147 774.757162 
L 181.009233 772.163034 
L 186.708107 775.50403 
L 188.613056 781.611734 
L 194.691323 783.509891 
L 200.165224 774.757162 
L 202.261867 787.695142 
L 204.311917 772.390093 
L 208.644979 763.360072 
L 213.770105 781.611734 
L 215.499336 773.551036 
L 217.328407 792.101632 
L 221.644162 768.739581 
L 226.987606 782.231626 
L 229.153471 775.50403 
L 232.828919 781.92013 
L 235.058681 784.504421 
L 240.318259 779.82315 
L 253.684855 777.859102 
L 259.874942 768.537668 
L 269.271895 783.509891 
L 274.913527 782.231626 
L 280.643019 783.837868 
L 294.041564 781.92013 
" clip-path="url(#pdac28e5559)" style="fill: none; stroke: #cc6677; stroke-width: 3; stroke-linecap: round"/>
   </g>
   <g id="line2d_14">
    <path d="M 47.2035 778.407674 
L 49.277512 808.077744 
L 51.352856 780.407951 
L 52.469734 766.399335 
L 54.399976 745.294231 
L 56.215735 734.154167 
L 58.168608 723.621588 
L 60.108169 727.066084 
L 60.108169 723.480172 
L 60.108169 722.05546 
L 62.508325 740.625401 
L 64.348046 752.907291 
L 65.885584 753.274082 
L 65.885584 749.351457 
L 65.885584 744.542835 
L 67.972908 754.273961 
L 67.972908 753.029073 
L 67.972908 747.973739 
L 69.666196 759.520919 
L 69.666196 758.195578 
L 69.666196 757.342491 
L 71.798781 760.905476 
L 71.798781 760.128655 
L 71.798781 753.397317 
L 73.457459 758.924871 
L 73.457459 758.631092 
L 73.457459 758.051756 
L 78.14462 759.823298 
L 79.268154 778.132174 
L 79.268154 768.739581 
L 79.268154 755.57095 
L 81.185084 773.081428 
L 81.185084 764.223457 
L 81.185084 758.777633 
L 83.072728 776.790253 
L 83.072728 768.137746 
L 83.072728 764.223457 
L 84.988327 767.159951 
L 84.988327 766.399335 
L 84.988327 760.437051 
L 87.034384 765.840878 
L 87.034384 759.823298 
L 87.034384 758.631092 
L 89.147001 763.360072 
L 89.147001 762.354788 
L 89.147001 759.370829 
L 93.015473 766.025915 
L 93.015473 761.541263 
L 93.015473 756.786539 
L 96.53517 762.520088 
L 96.53517 759.823298 
L 96.53517 757.342491 
L 98.476062 771.937625 
L 98.476062 765.840878 
L 98.476062 757.202565 
L 100.595335 769.147397 
L 100.595335 768.942818 
L 100.595335 764.931912 
L 104.297407 776.012132 
L 106.774773 790.425897 
L 108.196497 778.132174 
L 108.196497 775.253069 
L 108.196497 772.849265 
L 110.03888 777.588414 
L 110.03888 775.004124 
L 110.03888 770.618552 
L 111.873276 786.594664 
L 111.873276 780.407951 
L 111.873276 775.50403 
L 113.856766 768.739581 
L 113.856766 766.96804 
L 113.856766 764.57566 
L 117.943555 778.407674 
L 119.642168 773.551036 
L 119.642168 770.834536 
L 119.642168 768.537668 
L 123.704996 775.253069 
L 123.704996 771.937625 
L 123.704996 767.939704 
L 125.499455 768.337062 
L 127.397749 762.853355 
L 133.003439 768.942818 
L 136.905191 775.75704 
L 139.060407 773.315342 
L 140.769669 761.063204 
L 142.872968 772.618829 
L 146.469875 767.547375 
L 148.804803 768.337062 
L 152.239303 761.381089 
L 159.99089 771.937625 
L 162.050259 772.849265 
L 167.763776 790.425897 
L 173.05264 781.92013 
L 175.624522 788.451119 
L 177.524147 793.420704 
L 181.009233 783.185348 
L 186.708107 783.509891 
L 188.613056 780.407951 
L 194.691323 780.407951 
L 200.165224 784.843151 
L 202.261867 776.012132 
L 204.311917 781.003999 
L 208.644979 777.32007 
L 213.770105 790.425897 
L 215.499336 792.101632 
L 217.328407 790.425897 
L 221.644162 763.702545 
L 226.987606 785.185625 
L 229.153471 777.588414 
L 232.828919 774.027869 
L 235.058681 784.504421 
L 240.318259 771.052035 
L 253.684855 779.249179 
L 259.874942 788.451119 
L 269.271895 781.611734 
L 274.913527 766.77731 
L 280.643019 772.163034 
L 294.041564 778.132174 
" clip-path="url(#pdac28e5559)" style="fill: none; stroke: #cc6677; stroke-width: 3; stroke-linecap: round"/>
   </g>
   <g id="line2d_15">
    <path d="M 47.2035 776.790253 
L 49.277512 802.789456 
L 51.352856 781.92013 
L 52.469734 767.159951 
L 54.399976 747.767115 
L 56.215735 733.303183 
L 58.168608 718.255581 
L 60.108169 731.729569 
L 60.108169 727.384514 
L 60.108169 725.221296 
L 62.508325 745.104667 
L 64.348046 750.454546 
L 65.885584 755.045624 
L 65.885584 754.020951 
L 65.885584 753.895216 
L 67.972908 757.908599 
L 67.972908 751.832263 
L 67.972908 749.787992 
L 69.666196 756.376022 
L 69.666196 752.424891 
L 69.666196 750.907014 
L 71.798781 759.370829 
L 71.798781 757.483052 
L 71.798781 753.76999 
L 73.457459 762.354788 
L 73.457459 762.026811 
L 73.457459 752.186478 
L 78.14462 757.063268 
L 79.268154 767.159951 
L 79.268154 766.399335 
L 79.268154 757.063268 
L 81.185084 766.399335 
L 81.185084 766.212063 
L 81.185084 764.399059 
L 83.072728 769.979488 
L 83.072728 767.353058 
L 83.072728 767.353058 
L 84.988327 761.702269 
L 84.988327 759.520919 
L 84.988327 758.051756 
L 87.034384 769.147397 
L 87.034384 764.223457 
L 87.034384 760.128655 
L 89.147001 770.618552 
L 89.147001 764.753274 
L 89.147001 764.753274 
L 93.015473 768.942818 
L 93.015473 757.483052 
L 93.015473 757.202565 
L 96.53517 766.77731 
L 96.53517 761.702269 
L 96.53517 755.703685 
L 98.476062 759.221463 
L 98.476062 758.631092 
L 98.476062 756.786539 
L 100.595335 766.025915 
L 100.595335 761.864115 
L 100.595335 760.748546 
L 104.297407 758.34007 
L 106.774773 804.029363 
L 108.196497 769.769361 
L 108.196497 767.159951 
L 108.196497 766.025915 
L 110.03888 781.306377 
L 110.03888 779.82315 
L 110.03888 775.253069 
L 111.873276 781.306377 
L 111.873276 773.081428 
L 111.873276 770.834536 
L 113.856766 776.528703 
L 113.856766 767.353058 
L 113.856766 765.65694 
L 117.943555 775.253069 
L 119.642168 771.271072 
L 119.642168 768.537668 
L 119.642168 767.159951 
L 123.704996 770.618552 
L 123.704996 767.939704 
L 123.704996 765.292306 
L 125.499455 761.063204 
L 127.397749 762.686273 
L 133.003439 765.65694 
L 136.905191 771.271072 
L 139.060407 766.399335 
L 140.769669 763.021342 
L 142.872968 763.875212 
L 146.469875 770.618552 
L 148.804803 765.111585 
L 152.239303 781.003999 
L 159.99089 770.618552 
L 162.050259 765.840878 
L 167.763776 785.531925 
L 173.05264 777.859102 
L 175.624522 780.704542 
L 177.524147 778.407674 
L 181.009233 788.070826 
L 186.708107 794.332345 
L 188.613056 775.75704 
L 194.691323 792.101632 
L 200.165224 777.859102 
L 202.261867 784.504421 
L 204.311917 772.618829 
L 208.644979 775.253069 
L 213.770105 773.081428 
L 215.499336 775.004124 
L 217.328407 790.836414 
L 221.644162 778.407674 
L 226.987606 781.92013 
L 229.153471 776.269341 
L 232.828919 777.859102 
L 235.058681 777.05403 
L 240.318259 777.32007 
L 253.684855 775.253069 
L 259.874942 782.864169 
L 269.271895 765.292306 
L 274.913527 774.269065 
L 280.643019 785.882138 
L 294.041564 779.249179 
" clip-path="url(#pdac28e5559)" style="fill: none; stroke: #cc6677; stroke-width: 3; stroke-linecap: round"/>
   </g>
   <g id="line2d_16">
    <path d="M 47.2035 775.588137 
L 49.277512 800.261938 
L 51.352856 768.739581 
L 52.469734 756.694842 
L 54.399976 744.760117 
L 56.215735 727.868377 
L 58.168608 709.739219 
L 60.108169 695.893255 
L 62.508325 677.748712 
L 64.348046 683.70209 
L 65.885584 695.626187 
L 67.972908 711.787835 
L 69.666196 712.974912 
L 71.798781 715.591921 
L 73.457459 714.466062 
L 78.14462 722.936276 
L 79.268154 723.689908 
L 81.185084 730.736403 
L 83.072728 739.48364 
L 84.988327 743.468745 
L 87.034384 746.555487 
L 89.147001 759.370829 
L 93.015473 769.124599 
L 96.53517 770.16747 
L 98.476062 777.290397 
L 100.595335 791.205939 
L 104.297407 810.319216 
L 106.774773 810.319216 
L 108.196497 808.480786 
L 110.03888 808.971459 
L 111.873276 806.745326 
L 113.856766 805.763719 
L 117.943555 810.319216 
L 119.642168 805.689483 
L 123.704996 808.157934 
L 125.499455 810.319216 
L 127.397749 808.31894 
L 133.003439 810.319216 
L 136.905191 810.319216 
L 139.060407 809.553905 
L 140.769669 799.890753 
L 142.872968 810.319216 
L 146.469875 810.319216 
L 148.804803 809.302944 
L 152.239303 810.319216 
L 159.99089 804.240924 
L 162.050259 809.553905 
L 167.763776 810.319216 
L 173.05264 807.131303 
L 175.624522 810.319216 
L 177.524147 809.302944 
L 181.009233 810.319216 
L 186.708107 808.31894 
L 188.613056 810.319216 
L 194.691323 807.365217 
L 200.165224 810.319216 
L 202.261867 809.553905 
L 204.311917 808.31894 
L 208.644979 810.319216 
L 213.770105 810.319216 
L 215.499336 806.439969 
L 217.328407 809.553905 
L 221.644162 805.763719 
L 226.987606 808.31894 
L 229.153471 810.319216 
L 232.828919 810.319216 
L 235.058681 809.553905 
L 240.318259 810.319216 
L 253.684855 810.319216 
L 259.874942 810.319216 
L 269.271895 809.553905 
L 274.913527 800.07579 
L 280.643019 810.319216 
L 294.041564 810.319216 
" clip-path="url(#pdac28e5559)" style="fill: none; stroke: #000000; stroke-linecap: round"/>
   </g>
   <g id="patch_12">
    <path d="M 47.2035 819.2355 
L 47.2035 639.189641 
" style="fill: none; stroke: #262626; stroke-linejoin: miter; stroke-linecap: square"/>
   </g>
   <g id="patch_13">
    <path d="M 47.2035 819.2355 
L 315.57375 819.2355 
" style="fill: none; stroke: #262626; stroke-linejoin: miter; stroke-linecap: square"/>
   </g>
   <g id="text_24">
    <text style="fill: #262626; font: 9.6px 'Arial', 'DejaVu Sans', 'Liberation Sans', 'Bitstream Vera Sans', sans-serif; text-anchor: middle" x="181.388625" y="634.189641" transform="rotate(-0 181.388625 634.189641)">Ruegeria pomeroyi</text>
   </g>
  </g>
 </g>
 <defs>
  <clipPath id="pbbe55ac206">
   <rect x="47.2035" y="19.0715" width="268.37025" height="180.045859"/>
  </clipPath>
  <clipPath id="pfc2d553ffc">
   <rect x="47.2035" y="225.777547" width="268.37025" height="180.045859"/>
  </clipPath>
  <clipPath id="p6fdae1aa1c">
   <rect x="47.2035" y="432.483594" width="268.37025" height="180.045859"/>
  </clipPath>
  <clipPath id="pdac28e5559">
   <rect x="47.2035" y="639.189641" width="268.37025" height="180.045859"/>
  </clipPath>
 </defs>
</svg>
