<?xml version="1.0" encoding="utf-8" standalone="no"?>
<!DOCTYPE svg PUBLIC "-//W3C//DTD SVG 1.1//EN"
  "http://www.w3.org/Graphics/SVG/1.1/DTD/svg11.dtd">
<svg xmlns:xlink="http://www.w3.org/1999/xlink" width="208.2475pt" height="137.56625pt" viewBox="0 0 208.2475 137.56625" xmlns="http://www.w3.org/2000/svg" version="1.1">
 <metadata>
  <rdf:RDF xmlns:dc="http://purl.org/dc/elements/1.1/" xmlns:cc="http://creativecommons.org/ns#" xmlns:rdf="http://www.w3.org/1999/02/22-rdf-syntax-ns#">
   <cc:Work>
    <dc:type rdf:resource="http://purl.org/dc/dcmitype/StillImage"/>
    <dc:date>2025-08-07T13:39:13.513046</dc:date>
    <dc:format>image/svg+xml</dc:format>
    <dc:creator>
     <cc:Agent>
      <dc:title>Matplotlib v3.7.1, https://matplotlib.org/</dc:title>
     </cc:Agent>
    </dc:creator>
   </cc:Work>
  </rdf:RDF>
 </metadata>
 <defs>
  <style type="text/css">*{stroke-linejoin: round; stroke-linecap: butt}</style>
 </defs>
 <g id="figure_1">
  <g id="patch_1">
   <path d="M -0 137.56625 
L 208.2475 137.56625 
L 208.2475 0 
L -0 0 
L -0 137.56625 
z
" style="fill: none"/>
  </g>
  <g id="axes_1">
   <g id="patch_2">
    <path d="M 50.971 98.7585 
L 201.0475 98.7585 
L 201.0475 19.4945 
L 50.971 19.4945 
L 50.971 98.7585 
z
" style="fill: none"/>
   </g>
   <g id="matplotlib.axis_1">
    <g id="xtick_1">
     <g id="text_1">
      <text style="fill: #262626; font: 8.8px 'Arial', 'DejaVu Sans', 'Liberation Sans', 'Bitstream Vera Sans', sans-serif; text-anchor: middle" x="50.971" y="114.245125" transform="rotate(-0 50.971 114.245125)">0</text>
     </g>
    </g>
    <g id="xtick_2">
     <g id="text_2">
      <text style="fill: #262626; font: 8.8px 'Arial', 'DejaVu Sans', 'Liberation Sans', 'Bitstream Vera Sans', sans-serif; text-anchor: middle" x="115.2895" y="114.245125" transform="rotate(-0 115.2895 114.245125)">60</text>
     </g>
    </g>
    <g id="xtick_3">
     <g id="text_3">
      <text style="fill: #262626; font: 8.8px 'Arial', 'DejaVu Sans', 'Liberation Sans', 'Bitstream Vera Sans', sans-serif; text-anchor: middle" x="179.608" y="114.245125" transform="rotate(-0 179.608 114.245125)">120</text>
     </g>
    </g>
    <g id="text_4">
     <text style="fill: #262626; font: 9.6px 'Arial', 'DejaVu Sans', 'Liberation Sans', 'Bitstream Vera Sans', sans-serif; text-anchor: middle" x="126.00925" y="128.36975" transform="rotate(-0 126.00925 128.36975)">day</text>
    </g>
   </g>
   <g id="matplotlib.axis_2">
    <g id="ytick_1">
     <g id="text_5">
      <!-- $\mathdefault{10^{-1}}$ -->
      <g style="fill: #262626" transform="translate(21.491 84.758905)">
       <text>
        <tspan style="font: 8.8px 'DejaVu Sans'" x="0 5.596832" y="-0.14687499999999964">10</tspan>
        <tspan style="font: 6.16px 'DejaVu Sans'" x="11.277883 16.437457" y="-3.515625">−1</tspan>
       </text>
      </g>
     </g>
    </g>
    <g id="ytick_2">
     <g id="text_6">
      <!-- $\mathdefault{10^{0}}$ -->
      <g style="fill: #262626" transform="translate(26.683 53.340828)">
       <text>
        <tspan style="font: 8.8px 'DejaVu Sans'" x="0 5.596832" y="-0.059375000000001066">10</tspan>
        <tspan style="font: 6.16px 'DejaVu Sans'" x="11.277883" y="-3.4281250000000014">0</tspan>
       </text>
      </g>
     </g>
    </g>
    <g id="ytick_3">
     <g id="text_7">
      <!-- $\mathdefault{10^{1}}$ -->
      <g style="fill: #262626" transform="translate(26.683 21.92275)">
       <text>
        <tspan style="font: 8.8px 'DejaVu Sans'" x="0 5.596832" y="-0.14687499999999964">10</tspan>
        <tspan style="font: 6.16px 'DejaVu Sans'" x="11.277883" y="-3.515625">1</tspan>
       </text>
      </g>
     </g>
    </g>
    <g id="ytick_4"/>
    <g id="ytick_5"/>
    <g id="ytick_6"/>
    <g id="ytick_7"/>
    <g id="ytick_8"/>
    <g id="ytick_9"/>
    <g id="ytick_10"/>
    <g id="ytick_11"/>
    <g id="ytick_12"/>
    <g id="ytick_13"/>
    <g id="ytick_14"/>
    <g id="ytick_15"/>
    <g id="ytick_16"/>
    <g id="ytick_17"/>
    <g id="ytick_18"/>
    <g id="ytick_19"/>
    <g id="ytick_20"/>
    <g id="ytick_21"/>
    <g id="ytick_22"/>
    <g id="ytick_23"/>
    <g id="ytick_24"/>
    <g id="ytick_25"/>
    <g id="ytick_26"/>
    <g id="text_8">
     <text style="fill: #262626; font: 9.6px 'Arial', 'DejaVu Sans', 'Liberation Sans', 'Bitstream Vera Sans', sans-serif; text-anchor: middle" x="14.4945" y="59.1265" transform="rotate(-90 14.4945 59.1265)">Fluorescence</text>
    </g>
   </g>
   <g id="line2d_1">
    <path d="M 50.971 78.135119 
L 52.130817 89.300716 
L 53.291379 91.518238 
L 53.915954 94.833165 
L 54.995373 90.993377 
L 56.010771 94.167438 
L 57.102846 94.833165 
L 58.187476 90.000598 
L 58.187476 89.075179 
L 58.187476 88.853309 
L 59.529678 81.927334 
L 60.558476 75.832584 
L 61.41829 74.010588 
L 61.41829 70.499331 
L 61.41829 70.159611 
L 62.585551 67.431692 
L 62.585551 66.459814 
L 62.585551 63.586721 
L 63.532463 60.397678 
L 63.532463 58.9464 
L 63.532463 58.751124 
L 64.725035 51.272033 
L 64.725035 51.008426 
L 64.725035 50.562349 
L 65.652591 45.994104 
L 65.652591 45.786361 
L 65.652591 45.498898 
L 68.273719 41.605717 
L 68.902015 43.3002 
L 68.902015 42.147496 
L 68.902015 42.097345 
L 69.97399 44.414506 
L 69.97399 44.414506 
L 69.97399 43.712506 
L 71.029588 45.244359 
L 71.029588 45.01218 
L 71.029588 44.104481 
L 72.100818 46.292308 
L 72.100818 46.022679 
L 72.100818 45.852119 
L 73.245003 40.569922 
L 73.245003 39.72693 
L 73.245003 39.559654 
L 74.426409 44.619437 
L 74.426409 43.817559 
L 74.426409 43.137161 
L 76.589714 48.36812 
L 76.589714 48.345492 
L 76.589714 47.586953 
L 78.557979 46.195399 
L 78.557979 45.199402 
L 78.557979 44.792595 
L 79.643354 46.013148 
L 79.643354 45.118849 
L 79.643354 44.508051 
L 80.828481 47.416923 
L 80.828481 47.248986 
L 80.828481 45.889837 
L 82.898733 45.190428 
L 84.284112 46.727078 
L 85.07916 48.121252 
L 85.07916 47.480436 
L 85.07916 47.07279 
L 86.109447 48.993708 
L 86.109447 48.132377 
L 86.109447 47.726679 
L 87.135268 46.676969 
L 87.135268 46.341022 
L 87.135268 46.302037 
L 88.244464 47.124376 
L 88.244464 46.597175 
L 88.244464 46.458649 
L 90.529855 47.629793 
L 91.479744 31.096163 
L 91.479744 30.833665 
L 91.479744 30.490326 
L 93.751736 48.712122 
L 93.751736 47.911584 
L 93.751736 47.900638 
L 94.755223 49.100819 
L 95.816776 49.887759 
L 98.951559 55.585754 
L 101.133475 61.070243 
L 102.338702 62.68454 
L 103.294546 65.592537 
L 104.470741 64.223118 
L 106.482183 58.158299 
L 107.787908 57.109048 
L 109.70853 52.005873 
L 114.043329 50.233862 
L 115.194958 50.078953 
L 118.390039 59.421699 
L 121.347648 59.320251 
L 122.785881 59.730649 
L 123.848178 61.156693 
L 125.797088 59.887787 
L 128.983981 62.428294 
L 130.049256 58.630481 
L 133.44831 61.127815 
L 136.509394 54.1982 
L 137.681867 51.844222 
L 138.828284 58.510894 
L 141.251395 63.381018 
L 144.117439 63.449242 
L 145.08445 63.347034 
L 146.107292 68.981691 
L 148.520725 64.966882 
L 151.508855 68.136394 
L 152.720038 69.188433 
L 154.775401 69.937742 
L 156.022317 68.478139 
L 158.963548 68.136394 
L 166.43834 74.851704 
L 169.899926 75.415282 
L 175.154837 76.175865 
L 178.309719 73.501127 
L 181.513733 81.154786 
L 189.006392 82.060454 
" clip-path="url(#pafcf7b93fe)" style="fill: none; stroke: #882255; stroke-width: 3; stroke-linecap: round"/>
   </g>
   <g id="line2d_2">
    <path d="M 50.971 82.060454 
L 52.130817 87.003832 
L 53.291379 91.518238 
L 53.915954 94.833165 
L 54.995373 94.833165 
L 56.010771 86.25599 
L 57.102846 94.833165 
L 58.187476 94.833165 
L 58.187476 94.833165 
L 58.187476 92.345443 
L 59.529678 88.853309 
L 60.558476 80.663032 
L 61.41829 80.663032 
L 61.41829 80.072261 
L 61.41829 78.646216 
L 62.585551 71.822761 
L 62.585551 71.205249 
L 62.585551 71.025316 
L 63.532463 66.417241 
L 63.532463 65.159335 
L 63.532463 64.007671 
L 64.725035 58.921837 
L 64.725035 57.679488 
L 64.725035 57.457257 
L 65.652591 52.244475 
L 65.652591 52.214421 
L 65.652591 51.815035 
L 68.273719 40.110969 
L 68.902015 37.104628 
L 68.902015 36.603089 
L 68.902015 36.366114 
L 69.97399 33.034982 
L 69.97399 32.910405 
L 69.97399 32.790571 
L 71.029588 37.294418 
L 71.029588 36.128566 
L 71.029588 35.741618 
L 72.100818 37.666593 
L 72.100818 37.548233 
L 72.100818 37.466498 
L 73.245003 38.702445 
L 73.245003 38.514163 
L 73.245003 38.236524 
L 74.426409 43.512727 
L 74.426409 42.689256 
L 74.426409 42.111655 
L 76.589714 46.537635 
L 76.589714 46.147202 
L 76.589714 45.683663 
L 78.557979 46.205059 
L 78.557979 45.946611 
L 78.557979 45.823898 
L 79.643354 46.807638 
L 79.643354 46.537635 
L 79.643354 46.360556 
L 80.828481 49.017438 
L 80.828481 48.43623 
L 80.828481 48.43623 
L 82.898733 41.543774 
L 84.284112 46.95998 
L 85.07916 49.390629 
L 85.07916 47.71588 
L 85.07916 47.374745 
L 86.109447 49.989396 
L 86.109447 49.812025 
L 86.109447 49.37843 
L 87.135268 48.402133 
L 87.135268 48.076843 
L 87.135268 48.021534 
L 88.244464 37.349854 
L 88.244464 34.742304 
L 88.244464 34.646697 
L 90.529855 44.220961 
L 91.479744 45.316602 
L 91.479744 45.0299 
L 91.479744 44.313184 
L 93.751736 47.427488 
L 93.751736 47.228139 
L 93.751736 46.85823 
L 94.755223 47.448643 
L 95.816776 44.810032 
L 98.951559 50.871705 
L 101.133475 56.561502 
L 102.338702 57.701912 
L 103.294546 57.023367 
L 104.470741 54.532086 
L 106.482183 50.669157 
L 107.787908 47.999473 
L 109.70853 49.724197 
L 114.043329 54.929182 
L 115.194958 55.585754 
L 118.390039 60.234592 
L 121.347648 62.847172 
L 122.785881 62.555815 
L 123.848178 65.47302 
L 125.797088 62.652245 
L 128.983981 65.433413 
L 130.049256 63.245586 
L 133.44831 61.41938 
L 136.509394 56.561502 
L 137.681867 56.769504 
L 138.828284 61.567532 
L 141.251395 62.879933 
L 144.117439 62.460063 
L 145.08445 60.673896 
L 146.107292 67.802999 
L 148.520725 66.805268 
L 151.508855 70.614477 
L 152.720038 70.215647 
L 154.775401 67.802999 
L 156.022317 70.048226 
L 158.963548 68.088264 
L 166.43834 74.310484 
L 169.899926 73.501127 
L 175.154837 75.832584 
L 178.309719 81.927334 
L 181.513733 78.856139 
L 189.006392 87.003832 
" clip-path="url(#pafcf7b93fe)" style="fill: none; stroke: #882255; stroke-width: 3; stroke-linecap: round"/>
   </g>
   <g id="line2d_3">
    <path d="M 50.971 80.072261 
L 52.130817 88.000238 
L 53.291379 89.075179 
L 53.915954 91.253284 
L 54.995373 94.833165 
L 56.010771 90.242103 
L 57.102846 94.833165 
L 58.187476 90.242103 
L 58.187476 86.25599 
L 58.187476 81.7955 
L 59.529678 75.664128 
L 60.558476 75.010365 
L 61.41829 71.886078 
L 61.41829 69.937742 
L 61.41829 69.08467 
L 62.585551 66.039944 
L 62.585551 64.442021 
L 62.585551 62.879933 
L 63.532463 57.457257 
L 63.532463 56.417764 
L 63.532463 56.295754 
L 64.725035 52.986385 
L 64.725035 51.771372 
L 64.725035 51.328184 
L 65.652591 44.731739 
L 65.652591 44.406034 
L 65.652591 44.063121 
L 68.273719 44.129358 
L 68.902015 44.559347 
L 68.902015 43.972568 
L 68.902015 43.704458 
L 69.97399 46.022679 
L 69.97399 45.908736 
L 69.97399 45.30755 
L 71.029588 47.835143 
L 71.029588 47.55491 
L 71.029588 47.374745 
L 72.100818 45.823898 
L 72.100818 45.702278 
L 72.100818 45.262384 
L 73.245003 48.958191 
L 73.245003 48.958191 
L 73.245003 48.054693 
L 74.426409 51.091122 
L 74.426409 50.776808 
L 74.426409 50.496016 
L 76.589714 50.207921 
L 76.589714 48.887431 
L 76.589714 48.619537 
L 78.557979 50.091795 
L 78.557979 50.002154 
L 78.557979 49.341898 
L 79.643354 49.938483 
L 79.643354 48.459009 
L 79.643354 48.334192 
L 80.828481 52.579518 
L 80.828481 52.259527 
L 80.828481 52.244475 
L 82.898733 47.217727 
L 84.284112 49.724197 
L 85.07916 48.828744 
L 85.07916 48.828744 
L 85.07916 48.032578 
L 86.109447 50.351208 
L 86.109447 50.014924 
L 86.109447 49.612099 
L 87.135268 49.513224 
L 87.135268 48.840462 
L 87.135268 48.677329 
L 88.244464 50.259852 
L 88.244464 48.863926 
L 88.244464 48.402133 
L 90.529855 50.967266 
L 91.479744 49.812025 
L 91.479744 49.699206 
L 91.479744 49.624509 
L 93.751736 52.395748 
L 93.751736 52.304783 
L 93.751736 52.005873 
L 94.755223 52.750176 
L 95.816776 52.035471 
L 98.951559 58.042763 
L 101.133475 58.463352 
L 102.338702 59.219552 
L 103.294546 57.023367 
L 104.470741 56.035083 
L 106.482183 51.063501 
L 107.787908 50.912578 
L 109.70853 53.242933 
L 114.043329 56.438206 
L 115.194958 53.487907 
L 118.390039 62.145655 
L 121.347648 62.523823 
L 122.785881 63.655984 
L 123.848178 63.178371 
L 125.797088 63.144887 
L 128.983981 63.415088 
L 130.049256 59.808992 
L 133.44831 54.567712 
L 136.509394 53.242933 
L 137.681867 52.641329 
L 138.828284 58.08886 
L 141.251395 62.620026 
L 144.117439 60.073432 
L 145.08445 61.156693 
L 146.107292 65.159335 
L 148.520725 68.379621 
L 151.508855 67.897426 
L 152.720038 66.206345 
L 154.775401 65.082028 
L 156.022317 65.237083 
L 158.963548 64.966882 
L 166.43834 69.719422 
L 169.899926 72.46955 
L 175.154837 72.941266 
L 178.309719 75.748096 
L 181.513733 78.962324 
L 189.006392 85.20588 
" clip-path="url(#pafcf7b93fe)" style="fill: none; stroke: #882255; stroke-width: 3; stroke-linecap: round"/>
   </g>
   <g id="patch_3">
    <path d="M 50.971 98.7585 
L 50.971 19.4945 
" style="fill: none; stroke: #262626; stroke-linejoin: miter; stroke-linecap: square"/>
   </g>
   <g id="patch_4">
    <path d="M 50.971 98.7585 
L 201.0475 98.7585 
" style="fill: none; stroke: #262626; stroke-linejoin: miter; stroke-linecap: square"/>
   </g>
   <g id="text_9">
    <text style="fill: #262626; font: 9.6px 'Arial', 'DejaVu Sans', 'Liberation Sans', 'Bitstream Vera Sans', sans-serif; text-anchor: middle" x="126.00925" y="14.4945" transform="rotate(-0 126.00925 14.4945)">A. macleodii 1A3</text>
   </g>
  </g>
 </g>
 <defs>
  <clipPath id="pafcf7b93fe">
   <rect x="50.971" y="19.4945" width="150.0765" height="79.264"/>
  </clipPath>
 </defs>
</svg>
