<?xml version="1.0" encoding="utf-8" standalone="no"?>
<!DOCTYPE svg PUBLIC "-//W3C//DTD SVG 1.1//EN"
  "http://www.w3.org/Graphics/SVG/1.1/DTD/svg11.dtd">
<svg xmlns:xlink="http://www.w3.org/1999/xlink" width="200.401688pt" height="569.175375pt" viewBox="0 0 200.401688 569.175375" xmlns="http://www.w3.org/2000/svg" version="1.1">
 <metadata>
  <rdf:RDF xmlns:dc="http://purl.org/dc/elements/1.1/" xmlns:cc="http://creativecommons.org/ns#" xmlns:rdf="http://www.w3.org/1999/02/22-rdf-syntax-ns#">
   <cc:Work>
    <dc:type rdf:resource="http://purl.org/dc/dcmitype/StillImage"/>
    <dc:date>2024-11-21T14:01:19.490591</dc:date>
    <dc:format>image/svg+xml</dc:format>
    <dc:creator>
     <cc:Agent>
      <dc:title>Matplotlib v3.8.0, https://matplotlib.org/</dc:title>
     </cc:Agent>
    </dc:creator>
   </cc:Work>
  </rdf:RDF>
 </metadata>
 <defs>
  <style type="text/css">*{stroke-linejoin: round; stroke-linecap: butt}</style>
 </defs>
 <g id="figure_1">
  <g id="patch_1">
   <path d="M -0 569.175375 
L 200.401688 569.175375 
L 200.401688 0 
L -0 0 
L -0 569.175375 
z
" style="fill: none"/>
  </g>
  <g id="axes_1">
   <g id="patch_2">
    <path d="M 47.2035 127.149 
L 185.86125 127.149 
L 185.86125 19.0715 
L 47.2035 19.0715 
L 47.2035 127.149 
z
" style="fill: none"/>
   </g>
   <g id="matplotlib.axis_1">
    <g id="xtick_1"/>
    <g id="xtick_2"/>
    <g id="xtick_3"/>
   </g>
   <g id="matplotlib.axis_2">
    <g id="ytick_1">
     <g id="text_1">
      <!-- $\mathdefault{10^{-1}}$ -->
      <g style="fill: #262626" transform="translate(20.9795 108.412419)">
       <text>
        <tspan style="font: 8.8px 'Arial'" x="0 4.892395" y="-0.4372624999999992">10</tspan>
        <tspan style="font: 6.16px 'Arial'" x="9.938116 13.534183" y="-6.570312499999999">−1</tspan>
       </text>
      </g>
     </g>
    </g>
    <g id="ytick_2">
     <g id="text_2">
      <!-- $\mathdefault{10^{0}}$ -->
      <g style="fill: #262626" transform="translate(24.5875 65.573459)">
       <text>
        <tspan style="font: 8.8px 'Arial'" x="0 4.892395" y="-0.4372624999999992">10</tspan>
        <tspan style="font: 6.16px 'Arial'" x="9.938116" y="-6.570312499999999">0</tspan>
       </text>
      </g>
     </g>
    </g>
    <g id="ytick_3"/>
    <g id="ytick_4"/>
    <g id="ytick_5"/>
    <g id="ytick_6"/>
    <g id="ytick_7"/>
    <g id="ytick_8"/>
    <g id="ytick_9"/>
    <g id="ytick_10"/>
    <g id="ytick_11"/>
    <g id="ytick_12"/>
    <g id="ytick_13"/>
    <g id="ytick_14"/>
    <g id="ytick_15"/>
    <g id="ytick_16"/>
    <g id="ytick_17"/>
    <g id="ytick_18"/>
    <g id="ytick_19"/>
    <g id="ytick_20"/>
    <g id="ytick_21"/>
    <g id="ytick_22"/>
    <g id="ytick_23"/>
    <g id="ytick_24"/>
    <g id="ytick_25"/>
    <g id="text_3">
     <text style="fill: #262626; font: 9.6px 'Arial', 'DejaVu Sans', 'Liberation Sans', 'Bitstream Vera Sans', sans-serif; text-anchor: middle" x="14.0715" y="73.11025" transform="rotate(-90 14.0715 73.11025)">FL</text>
    </g>
   </g>
   <g id="line2d_1">
    <path d="M 47.2035 99.028751 
L 48.275071 114.253188 
L 49.34733 117.276808 
L 49.924383 121.796755 
L 50.921674 116.561154 
L 51.859814 120.889027 
L 52.868797 121.796755 
L 53.870902 115.207486 
L 53.870902 113.945665 
L 53.870902 113.643143 
L 55.110981 104.199485 
L 56.061502 95.889213 
L 56.855895 93.404899 
L 56.855895 88.617254 
L 56.855895 88.154042 
L 57.934344 84.434487 
L 57.934344 83.109319 
L 57.934344 79.19182 
L 58.809209 74.843518 
L 58.809209 72.864682 
L 58.809209 72.59842 
L 59.911043 62.400582 
L 59.911043 62.04115 
L 59.911043 61.432918 
L 60.768025 55.204057 
L 60.768025 54.920796 
L 60.768025 54.528837 
L 63.189721 49.220433 
L 63.770212 51.530883 
L 63.770212 49.959156 
L 63.770212 49.890774 
L 64.760625 53.050254 
L 64.760625 53.050254 
L 64.760625 52.093068 
L 65.735906 54.18177 
L 65.735906 53.86519 
L 65.735906 52.627531 
L 66.725631 55.610662 
L 66.725631 55.243019 
L 66.725631 55.010457 
L 67.782759 47.808113 
L 67.782759 46.658682 
L 67.782759 46.4306 
L 68.874276 53.329679 
L 68.874276 52.236309 
L 68.874276 51.308577 
L 70.872983 58.441059 
L 70.872983 58.410205 
L 70.872983 57.375927 
L 72.691491 55.478525 
L 72.691491 54.120469 
L 72.691491 53.565783 
L 73.694283 55.230023 
L 73.694283 54.010635 
L 73.694283 53.177803 
L 74.789239 57.144089 
L 74.789239 56.915105 
L 74.789239 55.061887 
L 76.701973 54.108233 
L 77.981944 56.203476 
L 78.7165 58.104451 
L 78.7165 57.23069 
L 78.7165 56.674858 
L 79.668396 59.294056 
L 79.668396 58.11962 
L 79.668396 57.566445 
L 80.616166 56.135152 
L 80.616166 55.677084 
L 80.616166 55.623927 
L 81.640968 56.745198 
L 81.640968 56.026352 
L 81.640968 55.83747 
L 83.752472 57.43434 
L 84.630088 34.890519 
L 84.630088 34.5326 
L 84.630088 34.064452 
L 86.729212 58.91011 
L 86.729212 57.818566 
L 86.729212 57.80364 
L 87.656348 59.440103 
L 88.637132 60.513106 
L 91.533401 68.282397 
L 93.549303 75.760569 
L 94.662829 77.961684 
L 95.545947 81.926776 
L 96.632649 80.059555 
L 98.491048 71.790095 
L 99.697426 70.359428 
L 101.471915 63.401182 
L 105.476895 60.985021 
L 106.540901 60.773802 
L 109.492881 73.512758 
L 112.225456 73.374432 
L 113.55426 73.934015 
L 114.535731 75.878445 
L 116.336356 74.148275 
L 119.28077 77.612289 
L 120.264992 72.433921 
L 123.405425 75.83907 
L 126.233603 66.390449 
L 127.316867 63.180768 
L 128.376058 72.270864 
L 130.614803 78.911341 
L 133.262781 79.004365 
L 134.156215 78.865003 
L 135.101234 86.547932 
L 137.331038 81.073687 
L 140.091812 85.395358 
L 141.210841 86.829827 
L 143.109819 87.851519 
L 144.261862 85.861332 
L 146.979306 85.395358 
L 153.88537 94.551771 
L 157.083577 95.320217 
L 161.938661 96.357281 
L 164.8535 92.710242 
L 167.813733 103.146106 
L 174.736304 104.380996 
" clip-path="url(#p40b7c24b4b)" style="fill: none; stroke: #882255; stroke-width: 2; stroke-linecap: round"/>
   </g>
   <g id="line2d_2">
    <path d="M 47.2035 104.380996 
L 48.275071 111.121356 
L 49.34733 117.276808 
L 49.924383 121.796755 
L 50.921674 121.796755 
L 51.859814 110.101664 
L 52.868797 121.796755 
L 53.870902 121.796755 
L 53.870902 121.796755 
L 53.870902 118.404712 
L 55.110981 113.643143 
L 56.061502 102.475593 
L 56.855895 102.475593 
L 56.855895 101.670068 
L 56.855895 99.725638 
L 57.934344 90.421768 
L 57.934344 89.579782 
L 57.934344 89.334441 
L 58.809209 83.05127 
L 58.809209 81.3361 
L 58.809209 79.76579 
L 59.911043 72.83119 
L 59.911043 71.13723 
L 59.911043 70.834215 
L 60.768025 63.726519 
L 60.768025 63.685539 
L 60.768025 63.140972 
L 63.189721 47.182325 
L 63.770212 43.08314 
L 63.770212 42.399285 
L 63.770212 42.076166 
L 64.760625 37.534124 
L 64.760625 37.364262 
L 64.760625 37.200866 
L 65.735906 43.341921 
L 65.735906 41.752266 
L 65.735906 41.224658 
L 66.725631 43.849386 
L 66.725631 43.688001 
L 66.725631 43.576554 
L 67.782759 45.261785 
L 67.782759 45.005059 
L 67.782759 44.626494 
L 68.874276 51.820666 
L 68.874276 50.697852 
L 68.874276 49.910286 
L 70.872983 55.945168 
L 70.872983 55.412807 
L 70.872983 54.780766 
L 72.691491 55.491697 
L 72.691491 55.139299 
L 72.691491 54.971978 
L 73.694283 56.31332 
L 73.694283 55.945168 
L 73.694283 55.703719 
L 74.789239 59.326412 
L 74.789239 58.533928 
L 74.789239 58.533928 
L 76.701973 49.135973 
L 77.981944 56.521042 
L 78.7165 59.835263 
L 78.7165 57.551721 
L 78.7165 57.086578 
L 79.668396 60.651689 
L 79.668396 60.409841 
L 79.668396 59.818629 
L 80.616166 58.487435 
L 80.616166 58.043898 
L 80.616166 57.968484 
L 81.640968 43.417508 
L 81.640968 39.86208 
L 81.640968 39.731719 
L 83.752472 52.786353 
L 84.630088 54.280273 
L 84.630088 53.889352 
L 84.630088 52.9121 
L 86.729212 57.158495 
L 86.729212 56.886679 
L 86.729212 56.382303 
L 87.656348 57.187339 
L 88.637132 53.589559 
L 91.533401 61.854729 
L 93.549303 69.612842 
L 94.662829 71.167805 
L 95.545947 70.2426 
L 96.632649 66.845706 
L 98.491048 61.578553 
L 99.697426 57.938403 
L 101.471915 60.290086 
L 105.476895 67.387152 
L 106.540901 68.282397 
L 109.492881 74.621148 
L 112.225456 78.183435 
L 113.55426 77.786166 
L 114.535731 81.763813 
L 116.336356 77.917649 
L 119.28077 81.709808 
L 120.264992 78.726678 
L 123.405425 76.236622 
L 126.233603 69.612842 
L 127.316867 69.896456 
L 128.376058 76.438629 
L 130.614803 78.228105 
L 133.262781 77.655606 
L 134.156215 75.220144 
L 135.101234 84.94077 
L 137.331038 83.58035 
L 140.091812 88.774257 
L 141.210841 88.230447 
L 143.109819 84.94077 
L 144.261862 88.002166 
L 146.979306 85.329733 
L 153.88537 93.81381 
L 157.083577 92.710242 
L 161.938661 95.889213 
L 164.8535 104.199485 
L 167.813733 100.011871 
L 174.736304 111.121356 
" clip-path="url(#p40b7c24b4b)" style="fill: none; stroke: #882255; stroke-width: 2; stroke-linecap: round"/>
   </g>
   <g id="line2d_3">
    <path d="M 47.2035 101.670068 
L 48.275071 112.479969 
L 49.34733 113.945665 
L 49.924383 116.91554 
L 50.921674 121.796755 
L 51.859814 115.536782 
L 52.868797 121.796755 
L 53.870902 115.536782 
L 53.870902 110.101664 
L 53.870902 104.019728 
L 55.110981 95.659523 
L 56.061502 94.768108 
L 56.855895 90.508101 
L 56.855895 87.851519 
L 56.855895 86.688345 
L 57.934344 82.536821 
L 57.934344 80.358033 
L 57.934344 78.228105 
L 58.809209 70.834215 
L 58.809209 69.416853 
L 58.809209 69.250491 
L 59.911043 64.738124 
L 59.911043 63.081437 
L 59.911043 62.477144 
L 60.768025 53.482806 
L 60.768025 53.038702 
L 60.768025 52.571136 
L 63.189721 52.66145 
L 63.770212 53.247746 
L 63.770212 52.447665 
L 63.770212 52.082095 
L 64.760625 55.243019 
L 64.760625 55.087655 
L 64.760625 54.267932 
L 65.735906 57.714337 
L 65.735906 57.332236 
L 65.735906 57.086578 
L 66.725631 54.971978 
L 66.725631 54.806148 
L 66.725631 54.206347 
L 67.782759 59.245627 
L 67.782759 59.245627 
L 67.782759 58.013696 
L 68.874276 62.153907 
L 68.874276 61.725336 
L 68.874276 61.342472 
L 70.872983 60.949651 
L 70.872983 59.149146 
L 70.872983 58.783869 
L 72.691491 60.791312 
L 72.691491 60.669085 
L 72.691491 59.768817 
L 73.694283 60.582268 
L 73.694283 58.564987 
L 73.694283 58.394797 
L 74.789239 64.183354 
L 74.789239 63.747043 
L 74.789239 63.726519 
L 76.701973 56.872482 
L 77.981944 60.290086 
L 78.7165 59.069126 
L 78.7165 59.069126 
L 78.7165 57.983542 
L 79.668396 61.145025 
L 79.668396 60.686497 
L 79.668396 60.13724 
L 80.616166 60.002422 
L 80.616166 59.085102 
L 80.616166 58.862669 
L 81.640968 61.020459 
L 81.640968 59.117097 
L 81.640968 58.487435 
L 83.752472 61.985027 
L 84.630088 60.409841 
L 84.630088 60.256012 
L 84.630088 60.154161 
L 86.729212 63.932782 
L 86.729212 63.80875 
L 86.729212 63.401182 
L 87.656348 64.416049 
L 88.637132 63.44154 
L 91.533401 71.63256 
L 93.549303 72.206039 
L 94.662829 73.237127 
L 95.545947 70.2426 
L 96.632649 68.895063 
L 98.491048 62.116245 
L 99.697426 61.910459 
L 101.471915 65.087929 
L 105.476895 69.444726 
L 106.540901 65.421954 
L 109.492881 77.226907 
L 112.225456 77.742545 
L 113.55426 79.28626 
L 114.535731 78.635029 
L 116.336356 78.589373 
L 119.28077 78.957795 
L 120.264992 74.040837 
L 123.405425 66.894282 
L 126.233603 65.087929 
L 127.316867 64.267634 
L 128.376058 71.695414 
L 130.614803 77.873718 
L 133.262781 74.401405 
L 134.156215 75.878445 
L 135.101234 81.3361 
L 137.331038 85.727002 
L 140.091812 85.069523 
L 141.210841 82.763711 
L 143.109819 81.23069 
L 144.261862 81.44211 
L 146.979306 81.073687 
L 153.88537 87.553837 
L 157.083577 91.303674 
L 161.938661 91.946864 
L 164.8535 95.774013 
L 167.813733 100.156655 
L 174.736304 108.669825 
" clip-path="url(#p40b7c24b4b)" style="fill: none; stroke: #882255; stroke-width: 2; stroke-linecap: round"/>
   </g>
   <g id="line2d_4">
    <path d="M 47.2035 100.948465 
L 48.275071 115.759595 
L 49.34733 96.83743 
L 49.924383 89.607243 
L 50.921674 82.443094 
L 51.859814 72.303361 
L 52.868797 61.420833 
L 53.870902 53.109411 
L 55.110981 42.217648 
L 56.061502 45.791327 
L 56.855895 52.949096 
L 57.934344 62.650571 
L 58.809209 63.363147 
L 59.911043 64.934079 
L 60.768025 64.258251 
L 63.189721 69.342731 
L 63.770212 69.795119 
L 64.760625 74.024972 
L 65.735906 79.275743 
L 66.725631 81.667913 
L 67.782759 83.520815 
L 68.874276 91.213578 
L 70.872983 97.068548 
L 72.691491 97.69456 
L 73.694283 101.970293 
L 74.789239 110.323482 
L 76.701973 121.796755 
L 77.981944 121.796755 
L 78.7165 120.693186 
L 79.668396 120.987726 
L 80.616166 119.651428 
L 81.640968 119.062192 
L 83.752472 121.796755 
L 84.630088 119.017629 
L 86.729212 120.499385 
L 87.656348 121.796755 
L 88.637132 120.596033 
L 91.533401 121.796755 
L 93.549303 121.796755 
L 94.662829 121.337355 
L 95.545947 115.536782 
L 96.632649 121.796755 
L 98.491048 121.796755 
L 99.697426 121.186709 
L 101.471915 121.796755 
L 105.476895 118.148091 
L 106.540901 121.337355 
L 109.492881 121.796755 
L 112.225456 119.883121 
L 113.55426 121.796755 
L 114.535731 121.186709 
L 116.336356 121.796755 
L 119.28077 120.596033 
L 120.264992 121.796755 
L 123.405425 120.023535 
L 126.233603 121.796755 
L 127.316867 121.337355 
L 128.376058 120.596033 
L 130.614803 121.796755 
L 133.262781 121.796755 
L 134.156215 119.468129 
L 135.101234 121.337355 
L 137.331038 119.062192 
L 140.091812 120.596033 
L 141.210841 121.796755 
L 143.109819 121.796755 
L 144.261862 121.337355 
L 146.979306 121.796755 
L 153.88537 121.796755 
L 157.083577 121.796755 
L 161.938661 121.337355 
L 164.8535 115.647855 
L 167.813733 121.796755 
L 174.736304 121.796755 
" clip-path="url(#p40b7c24b4b)" style="fill: none; stroke: #000000; stroke-linecap: round"/>
   </g>
   <g id="patch_3">
    <path d="M 47.2035 127.149 
L 47.2035 19.0715 
" style="fill: none; stroke: #262626; stroke-linejoin: miter; stroke-linecap: square"/>
   </g>
   <g id="patch_4">
    <path d="M 47.2035 127.149 
L 185.86125 127.149 
" style="fill: none; stroke: #262626; stroke-linejoin: miter; stroke-linecap: square"/>
   </g>
   <g id="text_4">
    <text style="fill: #262626; font: 9.6px 'Arial', 'DejaVu Sans', 'Liberation Sans', 'Bitstream Vera Sans', sans-serif; text-anchor: middle" x="116.532375" y="14.0715" transform="rotate(-0 116.532375 14.0715)">A. macleodii 1A3</text>
   </g>
  </g>
  <g id="axes_2">
   <g id="patch_5">
    <path d="M 47.2035 261.8445 
L 185.86125 261.8445 
L 185.86125 153.767 
L 47.2035 153.767 
L 47.2035 261.8445 
z
" style="fill: none"/>
   </g>
   <g id="matplotlib.axis_3">
    <g id="xtick_4"/>
    <g id="xtick_5"/>
    <g id="xtick_6"/>
   </g>
   <g id="matplotlib.axis_4">
    <g id="ytick_26">
     <g id="text_5">
      <!-- $\mathdefault{10^{-1}}$ -->
      <g style="fill: #262626" transform="translate(20.9795 243.107919)">
       <text>
        <tspan style="font: 8.8px 'Arial'" x="0 4.892395" y="-0.4372624999999992">10</tspan>
        <tspan style="font: 6.16px 'Arial'" x="9.938116 13.534183" y="-6.570312499999999">−1</tspan>
       </text>
      </g>
     </g>
    </g>
    <g id="ytick_27">
     <g id="text_6">
      <!-- $\mathdefault{10^{0}}$ -->
      <g style="fill: #262626" transform="translate(24.5875 200.268959)">
       <text>
        <tspan style="font: 8.8px 'Arial'" x="0 4.892395" y="-0.4372624999999992">10</tspan>
        <tspan style="font: 6.16px 'Arial'" x="9.938116" y="-6.570312499999999">0</tspan>
       </text>
      </g>
     </g>
    </g>
    <g id="ytick_28"/>
    <g id="ytick_29"/>
    <g id="ytick_30"/>
    <g id="ytick_31"/>
    <g id="ytick_32"/>
    <g id="ytick_33"/>
    <g id="ytick_34"/>
    <g id="ytick_35"/>
    <g id="ytick_36"/>
    <g id="ytick_37"/>
    <g id="ytick_38"/>
    <g id="ytick_39"/>
    <g id="ytick_40"/>
    <g id="ytick_41"/>
    <g id="ytick_42"/>
    <g id="ytick_43"/>
    <g id="ytick_44"/>
    <g id="ytick_45"/>
    <g id="ytick_46"/>
    <g id="ytick_47"/>
    <g id="ytick_48"/>
    <g id="ytick_49"/>
    <g id="ytick_50"/>
    <g id="text_7">
     <text style="fill: #262626; font: 9.6px 'Arial', 'DejaVu Sans', 'Liberation Sans', 'Bitstream Vera Sans', sans-serif; text-anchor: middle" x="14.0715" y="207.80575" transform="rotate(-90 14.0715 207.80575)">FL</text>
    </g>
   </g>
   <g id="line2d_5">
    <path d="M 47.2035 242.688715 
L 48.275071 256.492255 
L 49.34733 228.303731 
L 49.924383 231.052781 
L 50.921674 215.613498 
L 51.859814 210.300053 
L 52.868797 204.764223 
L 53.870902 208.069932 
L 53.870902 207.260904 
L 53.870902 206.32806 
L 55.110981 213.653295 
L 56.061502 220.556832 
L 56.855895 226.456315 
L 56.855895 225.203601 
L 56.855895 222.397583 
L 57.934344 226.549107 
L 57.934344 226.180685 
L 57.934344 221.034778 
L 58.809209 227.308589 
L 58.809209 226.924973 
L 58.809209 224.029941 
L 59.911043 227.799507 
L 59.911043 227.503405 
L 59.911043 227.020138 
L 60.768025 225.031334 
L 60.768025 224.945795 
L 60.768025 222.323312 
L 63.189721 228.100399 
L 63.770212 234.998075 
L 63.770212 233.861556 
L 63.770212 230.015717 
L 64.760625 230.817275 
L 64.760625 228.612958 
L 64.760625 225.641379 
L 65.735906 229.463608 
L 65.735906 229.033422 
L 65.735906 226.924973 
L 66.725631 231.654929 
L 66.725631 231.291307 
L 66.725631 231.291307 
L 67.782759 229.463608 
L 67.782759 228.406237 
L 67.782759 227.020138 
L 68.874276 230.817275 
L 68.874276 230.469513 
L 68.874276 229.033422 
L 70.872983 226.456315 
L 70.872983 226.272108 
L 70.872983 225.117268 
L 72.691491 224.945795 
L 72.691491 221.596473 
L 72.691491 219.572226 
L 73.694283 225.46503 
L 73.694283 224.945795 
L 73.694283 223.86816 
L 74.789239 228.717186 
L 74.789239 227.405742 
L 74.789239 224.775887 
L 76.701973 235.293395 
L 77.981944 233.052527 
L 78.7165 234.563704 
L 78.7165 232.151084 
L 78.7165 230.584713 
L 79.668396 229.903977 
L 79.668396 229.140039 
L 79.668396 227.601583 
L 80.616166 233.587952 
L 80.616166 231.411726 
L 80.616166 227.99956 
L 81.640968 229.572727 
L 81.640968 227.308589 
L 81.640968 225.641379 
L 83.752472 242.688715 
L 84.630088 237.33647 
L 84.630088 234.852155 
L 84.630088 229.140039 
L 86.729212 228.201787 
L 86.729212 225.641379 
L 86.729212 224.440658 
L 87.656348 224.607518 
L 88.637132 227.211941 
L 91.533401 229.247271 
L 93.549303 224.193141 
L 94.662829 232.277218 
L 95.545947 233.999881 
L 96.632649 228.201787 
L 98.491048 231.53293 
L 99.697426 226.089708 
L 101.471915 233.184946 
L 105.476895 240.011604 
L 106.540901 233.318313 
L 109.492881 234.279657 
L 112.225456 244.307538 
L 113.55426 241.405122 
L 114.535731 235.145149 
L 116.336356 233.587952 
L 119.28077 235.593477 
L 120.264992 239.259796 
L 123.405425 240.399216 
L 126.233603 235.145149 
L 127.316867 242.911529 
L 128.376058 233.724251 
L 130.614803 228.303731 
L 133.262781 239.259796 
L 134.156215 234.421138 
L 135.101234 245.556646 
L 137.331038 231.53293 
L 140.091812 239.631902 
L 141.210841 235.593477 
L 143.109819 239.444919 
L 144.261862 240.99621 
L 146.979306 238.186148 
L 153.88537 237.007174 
L 157.083577 231.411726 
L 161.938661 240.399216 
L 164.8535 239.631902 
L 167.813733 240.596093 
L 174.736304 239.444919 
" clip-path="url(#p1537e2562b)" style="fill: none; stroke: #cc6677; stroke-width: 2; stroke-linecap: round"/>
   </g>
   <g id="line2d_6">
    <path d="M 47.2035 237.33647 
L 48.275071 255.146749 
L 49.34733 238.537191 
L 49.924383 230.128133 
L 50.921674 217.459211 
L 51.859814 210.77208 
L 52.868797 204.449608 
L 53.870902 206.517262 
L 53.870902 204.36472 
L 53.870902 203.509497 
L 55.110981 214.656617 
L 56.061502 222.02916 
L 56.855895 222.249337 
L 56.855895 219.894673 
L 56.855895 217.008165 
L 57.934344 222.849542 
L 57.934344 222.102264 
L 57.934344 219.06766 
L 58.809209 225.999174 
L 58.809209 225.203601 
L 58.809209 224.691512 
L 59.911043 226.830292 
L 59.911043 226.363984 
L 59.911043 222.323312 
L 60.768025 225.641379 
L 60.768025 225.46503 
L 60.768025 225.117268 
L 63.189721 226.180685 
L 63.770212 237.171093 
L 63.770212 231.53293 
L 63.770212 223.628096 
L 64.760625 234.139243 
L 64.760625 228.822002 
L 64.760625 225.552996 
L 65.735906 236.365568 
L 65.735906 231.171662 
L 65.735906 228.822002 
L 66.725631 230.584713 
L 66.725631 230.128133 
L 66.725631 226.549107 
L 67.782759 229.792904 
L 67.782759 226.180685 
L 67.782759 225.46503 
L 68.874276 228.303731 
L 68.874276 227.700282 
L 68.874276 225.909078 
L 70.872983 229.903977 
L 70.872983 227.211941 
L 70.872983 224.357786 
L 72.691491 227.799507 
L 72.691491 226.180685 
L 72.691491 224.691512 
L 73.694283 233.452644 
L 73.694283 229.792904 
L 73.694283 224.607518 
L 74.789239 231.777733 
L 74.789239 231.654929 
L 74.789239 229.247271 
L 76.701973 235.89848 
L 77.981944 244.55074 
L 78.7165 237.171093 
L 78.7165 235.442831 
L 78.7165 233.999881 
L 79.668396 236.844686 
L 79.668396 235.293395 
L 79.668396 232.660834 
L 80.616166 242.250937 
L 80.616166 238.537191 
L 80.616166 235.593477 
L 81.640968 231.53293 
L 81.640968 230.469513 
L 81.640968 229.033422 
L 83.752472 237.33647 
L 84.630088 234.421138 
L 84.630088 232.790484 
L 84.630088 231.411726 
L 86.729212 235.442831 
L 86.729212 233.452644 
L 86.729212 231.052781 
L 87.656348 231.291307 
L 88.637132 227.99956 
L 91.533401 231.654929 
L 93.549303 235.745353 
L 94.662829 234.279657 
L 95.545947 226.924973 
L 96.632649 233.861556 
L 98.491048 230.817275 
L 99.697426 231.291307 
L 101.471915 227.115792 
L 105.476895 233.452644 
L 106.540901 233.999881 
L 109.492881 244.55074 
L 112.225456 239.444919 
L 113.55426 243.365325 
L 114.535731 246.348456 
L 116.336356 240.204401 
L 119.28077 240.399216 
L 120.264992 238.537191 
L 123.405425 238.537191 
L 126.233603 241.199543 
L 127.316867 235.89848 
L 128.376058 238.894985 
L 130.614803 236.683606 
L 133.262781 244.55074 
L 134.156215 245.556646 
L 135.101234 244.55074 
L 137.331038 228.50931 
L 140.091812 241.405122 
L 141.210841 236.844686 
L 143.109819 234.707371 
L 144.261862 240.99621 
L 146.979306 232.921044 
L 153.88537 237.841606 
L 157.083577 243.365325 
L 161.938661 239.259796 
L 164.8535 230.355023 
L 167.813733 233.587952 
L 174.736304 237.171093 
" clip-path="url(#p1537e2562b)" style="fill: none; stroke: #cc6677; stroke-width: 2; stroke-linecap: round"/>
   </g>
   <g id="line2d_7">
    <path d="M 47.2035 236.365568 
L 48.275071 251.972308 
L 49.34733 239.444919 
L 49.924383 230.584713 
L 50.921674 218.943628 
L 51.859814 210.261253 
L 52.868797 201.228514 
L 53.870902 209.316648 
L 53.870902 206.708408 
L 53.870902 205.409878 
L 55.110981 217.34542 
L 56.061502 220.556832 
L 56.855895 223.312754 
L 56.855895 222.697666 
L 56.855895 222.62219 
L 57.934344 225.031334 
L 57.934344 221.383845 
L 57.934344 220.156715 
L 58.809209 224.111362 
L 58.809209 221.739587 
L 58.809209 220.828439 
L 59.911043 225.909078 
L 59.911043 224.775887 
L 59.911043 222.547019 
L 60.768025 227.700282 
L 60.768025 227.503405 
L 60.768025 221.596473 
L 63.189721 224.523901 
L 63.770212 230.584713 
L 63.770212 230.128133 
L 63.770212 224.523901 
L 64.760625 230.128133 
L 64.760625 230.015717 
L 64.760625 228.927411 
L 65.735906 232.277218 
L 65.735906 230.700631 
L 65.735906 230.700631 
L 66.725631 227.308589 
L 66.725631 225.999174 
L 66.725631 225.117268 
L 67.782759 231.777733 
L 67.782759 228.822002 
L 67.782759 226.363984 
L 68.874276 232.660834 
L 68.874276 229.140039 
L 68.874276 229.140039 
L 70.872983 231.654929 
L 70.872983 224.775887 
L 70.872983 224.607518 
L 72.691491 230.355023 
L 72.691491 227.308589 
L 72.691491 223.707773 
L 73.694283 225.819416 
L 73.694283 225.46503 
L 73.694283 224.357786 
L 74.789239 229.903977 
L 74.789239 227.405742 
L 74.789239 226.736091 
L 76.701973 225.290336 
L 77.981944 252.716596 
L 78.7165 232.151084 
L 78.7165 230.584713 
L 78.7165 229.903977 
L 79.668396 239.076496 
L 79.668396 238.186148 
L 79.668396 235.442831 
L 80.616166 239.076496 
L 80.616166 234.139243 
L 80.616166 232.790484 
L 81.640968 236.208565 
L 81.640968 230.700631 
L 81.640968 229.682489 
L 83.752472 235.442831 
L 84.630088 233.052527 
L 84.630088 231.411726 
L 84.630088 230.584713 
L 86.729212 232.660834 
L 86.729212 231.052781 
L 86.729212 229.463608 
L 87.656348 226.924973 
L 88.637132 227.899265 
L 91.533401 229.682489 
L 93.549303 233.052527 
L 94.662829 230.128133 
L 95.545947 228.100399 
L 96.632649 228.612958 
L 98.491048 232.660834 
L 99.697426 229.355125 
L 101.471915 238.894985 
L 105.476895 232.660834 
L 106.540901 229.792904 
L 109.492881 241.612998 
L 112.225456 237.007174 
L 113.55426 238.715228 
L 114.535731 237.33647 
L 116.336356 243.137044 
L 119.28077 246.895693 
L 120.264992 235.745353 
L 123.405425 245.556646 
L 126.233603 237.007174 
L 127.316867 240.99621 
L 128.376058 233.861556 
L 130.614803 235.442831 
L 133.262781 234.139243 
L 134.156215 235.293395 
L 135.101234 244.797164 
L 137.331038 237.33647 
L 140.091812 239.444919 
L 141.210841 236.052877 
L 143.109819 237.007174 
L 144.261862 236.523907 
L 146.979306 236.683606 
L 153.88537 235.442831 
L 157.083577 240.011604 
L 161.938661 229.463608 
L 164.8535 234.852155 
L 167.813733 241.823223 
L 174.736304 237.841606 
" clip-path="url(#p1537e2562b)" style="fill: none; stroke: #cc6677; stroke-width: 2; stroke-linecap: round"/>
   </g>
   <g id="line2d_8">
    <path d="M 47.2035 235.643965 
L 48.275071 250.455095 
L 49.34733 231.53293 
L 49.924383 224.302743 
L 50.921674 217.138594 
L 51.859814 206.998861 
L 52.868797 196.116333 
L 53.870902 187.804911 
L 55.110981 176.913148 
L 56.061502 180.486827 
L 56.855895 187.644596 
L 57.934344 197.346071 
L 58.809209 198.058647 
L 59.911043 199.629579 
L 60.768025 198.953751 
L 63.189721 204.038231 
L 63.770212 204.490619 
L 64.760625 208.720472 
L 65.735906 213.971243 
L 66.725631 216.363413 
L 67.782759 218.216315 
L 68.874276 225.909078 
L 70.872983 231.764048 
L 72.691491 232.39006 
L 73.694283 236.665793 
L 74.789239 245.018982 
L 76.701973 256.492255 
L 77.981944 256.492255 
L 78.7165 255.388686 
L 79.668396 255.683226 
L 80.616166 254.346928 
L 81.640968 253.757692 
L 83.752472 256.492255 
L 84.630088 253.713129 
L 86.729212 255.194885 
L 87.656348 256.492255 
L 88.637132 255.291533 
L 91.533401 256.492255 
L 93.549303 256.492255 
L 94.662829 256.032855 
L 95.545947 250.232282 
L 96.632649 256.492255 
L 98.491048 256.492255 
L 99.697426 255.882209 
L 101.471915 256.492255 
L 105.476895 252.843591 
L 106.540901 256.032855 
L 109.492881 256.492255 
L 112.225456 254.578621 
L 113.55426 256.492255 
L 114.535731 255.882209 
L 116.336356 256.492255 
L 119.28077 255.291533 
L 120.264992 256.492255 
L 123.405425 254.719035 
L 126.233603 256.492255 
L 127.316867 256.032855 
L 128.376058 255.291533 
L 130.614803 256.492255 
L 133.262781 256.492255 
L 134.156215 254.163629 
L 135.101234 256.032855 
L 137.331038 253.757692 
L 140.091812 255.291533 
L 141.210841 256.492255 
L 143.109819 256.492255 
L 144.261862 256.032855 
L 146.979306 256.492255 
L 153.88537 256.492255 
L 157.083577 256.492255 
L 161.938661 256.032855 
L 164.8535 250.343355 
L 167.813733 256.492255 
L 174.736304 256.492255 
" clip-path="url(#p1537e2562b)" style="fill: none; stroke: #000000; stroke-linecap: round"/>
   </g>
   <g id="patch_6">
    <path d="M 47.2035 261.8445 
L 47.2035 153.767 
" style="fill: none; stroke: #262626; stroke-linejoin: miter; stroke-linecap: square"/>
   </g>
   <g id="patch_7">
    <path d="M 47.2035 261.8445 
L 185.86125 261.8445 
" style="fill: none; stroke: #262626; stroke-linejoin: miter; stroke-linecap: square"/>
   </g>
   <g id="text_8">
    <text style="fill: #262626; font: 9.6px 'Arial', 'DejaVu Sans', 'Liberation Sans', 'Bitstream Vera Sans', sans-serif; text-anchor: middle" x="116.532375" y="148.767" transform="rotate(-0 116.532375 148.767)">Ruegeria pomeroyi</text>
   </g>
  </g>
  <g id="axes_3">
   <g id="patch_8">
    <path d="M 47.2035 396.54 
L 185.86125 396.54 
L 185.86125 288.4625 
L 47.2035 288.4625 
L 47.2035 396.54 
z
" style="fill: none"/>
   </g>
   <g id="matplotlib.axis_5">
    <g id="xtick_7"/>
    <g id="xtick_8"/>
    <g id="xtick_9"/>
   </g>
   <g id="matplotlib.axis_6">
    <g id="ytick_51">
     <g id="text_9">
      <!-- $\mathdefault{10^{-1}}$ -->
      <g style="fill: #262626" transform="translate(20.9795 377.803419)">
       <text>
        <tspan style="font: 8.8px 'Arial'" x="0 4.892395" y="-0.4372624999999992">10</tspan>
        <tspan style="font: 6.16px 'Arial'" x="9.938116 13.534183" y="-6.570312499999999">−1</tspan>
       </text>
      </g>
     </g>
    </g>
    <g id="ytick_52">
     <g id="text_10">
      <!-- $\mathdefault{10^{0}}$ -->
      <g style="fill: #262626" transform="translate(24.5875 334.964459)">
       <text>
        <tspan style="font: 8.8px 'Arial'" x="0 4.892395" y="-0.4372624999999992">10</tspan>
        <tspan style="font: 6.16px 'Arial'" x="9.938116" y="-6.570312499999999">0</tspan>
       </text>
      </g>
     </g>
    </g>
    <g id="ytick_53"/>
    <g id="ytick_54"/>
    <g id="ytick_55"/>
    <g id="ytick_56"/>
    <g id="ytick_57"/>
    <g id="ytick_58"/>
    <g id="ytick_59"/>
    <g id="ytick_60"/>
    <g id="ytick_61"/>
    <g id="ytick_62"/>
    <g id="ytick_63"/>
    <g id="ytick_64"/>
    <g id="ytick_65"/>
    <g id="ytick_66"/>
    <g id="ytick_67"/>
    <g id="ytick_68"/>
    <g id="ytick_69"/>
    <g id="ytick_70"/>
    <g id="ytick_71"/>
    <g id="ytick_72"/>
    <g id="ytick_73"/>
    <g id="ytick_74"/>
    <g id="ytick_75"/>
    <g id="text_11">
     <text style="fill: #262626; font: 9.6px 'Arial', 'DejaVu Sans', 'Liberation Sans', 'Bitstream Vera Sans', sans-serif; text-anchor: middle" x="14.0715" y="342.50125" transform="rotate(-90 14.0715 342.50125)">FL</text>
    </g>
   </g>
   <g id="line2d_9">
    <path d="M 47.2035 378.291943 
L 48.275071 374.327402 
L 49.34733 365.512775 
L 49.924383 357.698168 
L 50.921674 352.616964 
L 51.859814 343.078124 
L 52.868797 337.004275 
L 53.870902 333.076539 
L 53.870902 331.208668 
L 53.870902 331.024461 
L 55.110981 347.980373 
L 56.061502 349.749033 
L 56.855895 351.154813 
L 56.855895 350.780029 
L 56.855895 349.49997 
L 57.934344 354.33177 
L 57.934344 353.639128 
L 57.934344 352.55855 
L 58.809209 356.363392 
L 58.809209 353.393518 
L 58.809209 351.263296 
L 59.911043 361.525792 
L 59.911043 359.641295 
L 59.911043 354.984634 
L 60.768025 361.715638 
L 60.768025 360.336879 
L 60.768025 359.556147 
L 63.189721 364.159108 
L 63.770212 362.795899 
L 63.770212 361.715638 
L 63.770212 358.403273 
L 64.760625 369.402871 
L 64.760625 365.396131 
L 64.760625 364.050625 
L 65.735906 368.834743 
L 65.735906 367.616544 
L 65.735906 365.867162 
L 66.725631 373.056342 
L 66.725631 372.537106 
L 66.725631 371.061068 
L 67.782759 371.219407 
L 67.782759 368.834743 
L 67.782759 365.165013 
L 68.874276 379.24624 
L 68.874276 376.100622 
L 68.874276 375.094716 
L 70.872983 386.667808 
L 70.872983 383.336665 
L 70.872983 380.512356 
L 72.691491 391.187755 
L 72.691491 391.187755 
L 72.691491 391.187755 
L 73.694283 388.187405 
L 73.694283 384.927782 
L 73.694283 384.598486 
L 74.789239 391.187755 
L 74.789239 391.187755 
L 74.789239 390.280027 
L 76.701973 391.187755 
L 77.981944 391.187755 
L 78.7165 391.187755 
L 78.7165 391.187755 
L 78.7165 380.512356 
L 79.668396 391.187755 
L 79.668396 391.187755 
L 79.668396 391.187755 
L 80.616166 391.187755 
L 80.616166 391.187755 
L 80.616166 391.187755 
L 81.640968 391.187755 
L 81.640968 391.187755 
L 81.640968 384.927782 
L 83.752472 391.187755 
L 84.630088 391.187755 
L 84.630088 391.187755 
L 84.630088 391.187755 
L 86.729212 391.187755 
L 86.729212 389.842249 
L 86.729212 389.842249 
L 87.656348 391.187755 
L 88.637132 386.30654 
L 91.533401 387.795712 
L 93.549303 391.187755 
L 94.662829 391.187755 
L 95.545947 391.187755 
L 96.632649 387.795712 
L 98.491048 387.795712 
L 99.697426 391.187755 
L 101.471915 391.187755 
L 105.476895 385.952154 
L 106.540901 391.187755 
L 109.492881 386.30654 
L 112.225456 391.187755 
L 113.55426 389.842249 
L 114.535731 391.187755 
L 116.336356 377.607029 
L 119.28077 391.187755 
L 120.264992 390.280027 
L 123.405425 387.795712 
L 126.233603 385.952154 
L 127.316867 391.187755 
L 128.376058 379.995525 
L 130.614803 391.187755 
L 133.262781 387.795712 
L 134.156215 377.832544 
L 135.101234 378.291943 
L 137.331038 391.187755 
L 140.091812 391.187755 
L 141.210841 391.187755 
L 143.109819 391.187755 
L 144.261862 387.795712 
L 146.979306 391.187755 
L 153.88537 391.187755 
L 157.083577 383.95688 
L 161.938661 388.187405 
L 164.8535 388.187405 
L 167.813733 391.187755 
L 174.736304 380.512356 
" clip-path="url(#pc8813c2aa0)" style="fill: none; stroke: #44aa99; stroke-width: 2; stroke-linecap: round"/>
   </g>
   <g id="line2d_10">
    <path d="M 47.2035 377.384215 
L 48.275071 384.598486 
L 49.34733 368.419751 
L 49.924383 361.811292 
L 50.921674 364.936732 
L 51.859814 352.616964 
L 52.868797 347.352684 
L 53.870902 343.183533 
L 53.870902 342.903758 
L 53.870902 341.824921 
L 55.110981 359.387012 
L 56.061502 357.930246 
L 56.855895 363.308458 
L 56.855895 361.907441 
L 56.855895 361.337864 
L 57.934344 375.291593 
L 57.934344 361.811292 
L 57.934344 361.525792 
L 58.809209 370.904065 
L 58.809209 368.975157 
L 58.809209 367.616544 
L 59.911043 369.693575 
L 59.911043 368.557056 
L 59.911043 368.419751 
L 60.768025 372.198829 
L 60.768025 371.061068 
L 60.768025 366.972718 
L 63.189721 377.164038 
L 63.770212 375.291593 
L 63.770212 371.866593 
L 63.770212 366.473233 
L 64.760625 389.842249 
L 64.760625 382.155016 
L 64.760625 377.384215 
L 65.735906 381.870969 
L 65.735906 378.060825 
L 65.735906 367.616544 
L 66.725631 374.140419 
L 66.725631 372.367199 
L 66.725631 370.904065 
L 67.782759 389.414535 
L 67.782759 375.69171 
L 67.782759 370.748377 
L 68.874276 383.034143 
L 68.874276 380.512356 
L 68.874276 375.291593 
L 70.872983 391.187755 
L 70.872983 388.187405 
L 70.872983 383.336665 
L 72.691491 387.795712 
L 72.691491 384.598486 
L 72.691491 381.870969 
L 73.694283 391.187755 
L 73.694283 387.795712 
L 73.694283 380.512356 
L 74.789239 391.187755 
L 74.789239 391.187755 
L 74.789239 391.187755 
L 76.701973 391.187755 
L 77.981944 391.187755 
L 78.7165 391.187755 
L 78.7165 391.187755 
L 78.7165 375.895043 
L 79.668396 391.187755 
L 79.668396 385.952154 
L 79.668396 384.274917 
L 80.616166 388.187405 
L 80.616166 385.952154 
L 80.616166 381.591193 
L 81.640968 391.187755 
L 81.640968 388.187405 
L 81.640968 386.30654 
L 83.752472 391.187755 
L 84.630088 391.187755 
L 84.630088 391.187755 
L 84.630088 391.187755 
L 86.729212 391.187755 
L 86.729212 391.187755 
L 86.729212 377.164038 
L 87.656348 388.187405 
L 88.637132 391.187755 
L 91.533401 391.187755 
L 93.549303 391.187755 
L 94.662829 386.30654 
L 95.545947 385.952154 
L 96.632649 391.187755 
L 98.491048 391.187755 
L 99.697426 391.187755 
L 101.471915 391.187755 
L 105.476895 391.187755 
L 106.540901 388.187405 
L 109.492881 386.30654 
L 112.225456 391.187755 
L 113.55426 384.598486 
L 114.535731 385.952154 
L 116.336356 380.252146 
L 119.28077 377.384215 
L 120.264992 391.187755 
L 123.405425 389.842249 
L 126.233603 384.274917 
L 127.316867 382.736461 
L 128.376058 391.187755 
L 130.614803 379.003038 
L 133.262781 391.187755 
L 134.156215 391.187755 
L 135.101234 381.591193 
L 137.331038 389.414535 
L 140.091812 391.187755 
L 141.210841 379.24624 
L 143.109819 391.187755 
L 144.261862 385.952154 
L 146.979306 389.414535 
L 153.88537 391.187755 
L 157.083577 387.795712 
L 161.938661 379.24624 
L 164.8535 391.187755 
L 167.813733 382.443467 
L 174.736304 391.187755 
" clip-path="url(#pc8813c2aa0)" style="fill: none; stroke: #44aa99; stroke-width: 2; stroke-linecap: round"/>
   </g>
   <g id="line2d_11">
    <path d="M 47.2035 384.927782 
L 48.275071 386.667808 
L 49.34733 372.881648 
L 49.924383 368.834743 
L 50.921674 366.721299 
L 51.859814 355.455665 
L 52.868797 358.483294 
L 53.870902 369.116638 
L 53.870902 365.165013 
L 53.870902 364.488404 
L 55.110981 391.187755 
L 56.061502 374.140419 
L 56.855895 383.336665 
L 56.855895 380.776257 
L 56.855895 377.164038 
L 57.934344 384.274917 
L 57.934344 381.591193 
L 57.934344 375.291593 
L 58.809209 384.927782 
L 58.809209 378.060825 
L 58.809209 377.164038 
L 59.911043 391.187755 
L 59.911043 377.384215 
L 59.911043 377.164038 
L 60.768025 383.034143 
L 60.768025 378.762974 
L 60.768025 378.291943 
L 63.189721 375.094716 
L 63.770212 386.30654 
L 63.770212 379.24624 
L 63.770212 374.899901 
L 64.760625 388.587522 
L 64.760625 384.598486 
L 64.760625 378.525968 
L 65.735906 390.280027 
L 65.735906 388.187405 
L 65.735906 384.598486 
L 66.725631 391.187755 
L 66.725631 387.795712 
L 66.725631 383.034143 
L 67.782759 389.842249 
L 67.782759 387.795712 
L 67.782759 382.736461 
L 68.874276 391.187755 
L 68.874276 384.927782 
L 68.874276 381.870969 
L 70.872983 391.187755 
L 70.872983 390.280027 
L 70.872983 389.842249 
L 72.691491 391.187755 
L 72.691491 389.842249 
L 72.691491 384.274917 
L 73.694283 391.187755 
L 73.694283 390.280027 
L 73.694283 380.512356 
L 74.789239 391.187755 
L 74.789239 389.842249 
L 74.789239 383.034143 
L 76.701973 391.187755 
L 77.981944 391.187755 
L 78.7165 391.187755 
L 78.7165 389.842249 
L 78.7165 388.187405 
L 79.668396 391.187755 
L 79.668396 391.187755 
L 79.668396 379.003038 
L 80.616166 391.187755 
L 80.616166 391.187755 
L 80.616166 391.187755 
L 81.640968 391.187755 
L 81.640968 391.187755 
L 81.640968 381.591193 
L 83.752472 391.187755 
L 84.630088 391.187755 
L 84.630088 391.187755 
L 84.630088 384.927782 
L 86.729212 391.187755 
L 86.729212 391.187755 
L 86.729212 386.30654 
L 87.656348 384.274917 
L 88.637132 391.187755 
L 91.533401 391.187755 
L 93.549303 388.187405 
L 94.662829 391.187755 
L 95.545947 386.30654 
L 96.632649 384.598486 
L 98.491048 374.140419 
L 99.697426 387.412096 
L 101.471915 383.336665 
L 105.476895 389.842249 
L 106.540901 391.187755 
L 109.492881 387.795712 
L 112.225456 391.187755 
L 113.55426 391.187755 
L 114.535731 391.187755 
L 116.336356 380.252146 
L 119.28077 388.187405 
L 120.264992 383.034143 
L 123.405425 386.30654 
L 126.233603 387.795712 
L 127.316867 385.952154 
L 128.376058 391.187755 
L 130.614803 387.795712 
L 133.262781 384.927782 
L 134.156215 377.607029 
L 135.101234 391.187755 
L 137.331038 389.414535 
L 140.091812 388.187405 
L 141.210841 391.187755 
L 143.109819 383.336665 
L 144.261862 389.414535 
L 146.979306 384.598486 
L 153.88537 391.187755 
L 157.083577 391.187755 
L 161.938661 391.187755 
L 164.8535 391.187755 
L 167.813733 388.996434 
L 174.736304 384.598486 
" clip-path="url(#pc8813c2aa0)" style="fill: none; stroke: #44aa99; stroke-width: 2; stroke-linecap: round"/>
   </g>
   <g id="line2d_12">
    <path d="M 47.2035 370.339465 
L 48.275071 385.150595 
L 49.34733 366.22843 
L 49.924383 358.998243 
L 50.921674 351.834094 
L 51.859814 341.694361 
L 52.868797 330.811833 
L 53.870902 322.500411 
L 55.110981 311.608648 
L 56.061502 315.182327 
L 56.855895 322.340096 
L 57.934344 332.041571 
L 58.809209 332.754147 
L 59.911043 334.325079 
L 60.768025 333.649251 
L 63.189721 338.733731 
L 63.770212 339.186119 
L 64.760625 343.415972 
L 65.735906 348.666743 
L 66.725631 351.058913 
L 67.782759 352.911815 
L 68.874276 360.604578 
L 70.872983 366.459548 
L 72.691491 367.08556 
L 73.694283 371.361293 
L 74.789239 379.714482 
L 76.701973 391.187755 
L 77.981944 391.187755 
L 78.7165 390.084186 
L 79.668396 390.378726 
L 80.616166 389.042428 
L 81.640968 388.453192 
L 83.752472 391.187755 
L 84.630088 388.408629 
L 86.729212 389.890385 
L 87.656348 391.187755 
L 88.637132 389.987033 
L 91.533401 391.187755 
L 93.549303 391.187755 
L 94.662829 390.728355 
L 95.545947 384.927782 
L 96.632649 391.187755 
L 98.491048 391.187755 
L 99.697426 390.577709 
L 101.471915 391.187755 
L 105.476895 387.539091 
L 106.540901 390.728355 
L 109.492881 391.187755 
L 112.225456 389.274121 
L 113.55426 391.187755 
L 114.535731 390.577709 
L 116.336356 391.187755 
L 119.28077 389.987033 
L 120.264992 391.187755 
L 123.405425 389.414535 
L 126.233603 391.187755 
L 127.316867 390.728355 
L 128.376058 389.987033 
L 130.614803 391.187755 
L 133.262781 391.187755 
L 134.156215 388.859129 
L 135.101234 390.728355 
L 137.331038 388.453192 
L 140.091812 389.987033 
L 141.210841 391.187755 
L 143.109819 391.187755 
L 144.261862 390.728355 
L 146.979306 391.187755 
L 153.88537 391.187755 
L 157.083577 391.187755 
L 161.938661 390.728355 
L 164.8535 385.038855 
L 167.813733 391.187755 
L 174.736304 391.187755 
" clip-path="url(#pc8813c2aa0)" style="fill: none; stroke: #000000; stroke-linecap: round"/>
   </g>
   <g id="patch_9">
    <path d="M 47.2035 396.54 
L 47.2035 288.4625 
" style="fill: none; stroke: #262626; stroke-linejoin: miter; stroke-linecap: square"/>
   </g>
   <g id="patch_10">
    <path d="M 47.2035 396.54 
L 185.86125 396.54 
" style="fill: none; stroke: #262626; stroke-linejoin: miter; stroke-linecap: square"/>
   </g>
   <g id="text_12">
    <text style="fill: #262626; font: 9.6px 'Arial', 'DejaVu Sans', 'Liberation Sans', 'Bitstream Vera Sans', sans-serif; text-anchor: middle" x="116.532375" y="283.4625" transform="rotate(-0 116.532375 283.4625)">Roseovarius 5C3</text>
   </g>
  </g>
  <g id="axes_4">
   <g id="patch_11">
    <path d="M 47.2035 531.2355 
L 185.86125 531.2355 
L 185.86125 423.158 
L 47.2035 423.158 
L 47.2035 531.2355 
z
" style="fill: none"/>
   </g>
   <g id="matplotlib.axis_7">
    <g id="xtick_10">
     <g id="text_13">
      <text style="fill: #262626; font: 8.8px 'Arial', 'DejaVu Sans', 'Liberation Sans', 'Bitstream Vera Sans', sans-serif; text-anchor: middle" x="47.2035" y="546.334375" transform="rotate(-0 47.2035 546.334375)">0</text>
     </g>
    </g>
    <g id="xtick_11">
     <g id="text_14">
      <text style="fill: #262626; font: 8.8px 'Arial', 'DejaVu Sans', 'Liberation Sans', 'Bitstream Vera Sans', sans-serif; text-anchor: middle" x="116.532375" y="546.334375" transform="rotate(-0 116.532375 546.334375)">70</text>
     </g>
    </g>
    <g id="xtick_12">
     <g id="text_15">
      <text style="fill: #262626; font: 8.8px 'Arial', 'DejaVu Sans', 'Liberation Sans', 'Bitstream Vera Sans', sans-serif; text-anchor: middle" x="185.86125" y="546.334375" transform="rotate(-0 185.86125 546.334375)">140</text>
     </g>
    </g>
    <g id="text_16">
     <text style="fill: #262626; font: 9.6px 'Arial', 'DejaVu Sans', 'Liberation Sans', 'Bitstream Vera Sans', sans-serif; text-anchor: middle" x="116.532375" y="559.954875" transform="rotate(-0 116.532375 559.954875)">day</text>
    </g>
   </g>
   <g id="matplotlib.axis_8">
    <g id="ytick_76">
     <g id="text_17">
      <!-- $\mathdefault{10^{-1}}$ -->
      <g style="fill: #262626" transform="translate(20.9795 512.498919)">
       <text>
        <tspan style="font: 8.8px 'Arial'" x="0 4.892395" y="-0.4372624999999992">10</tspan>
        <tspan style="font: 6.16px 'Arial'" x="9.938116 13.534183" y="-6.570312499999999">−1</tspan>
       </text>
      </g>
     </g>
    </g>
    <g id="ytick_77">
     <g id="text_18">
      <!-- $\mathdefault{10^{0}}$ -->
      <g style="fill: #262626" transform="translate(24.5875 469.659959)">
       <text>
        <tspan style="font: 8.8px 'Arial'" x="0 4.892395" y="-0.4372624999999992">10</tspan>
        <tspan style="font: 6.16px 'Arial'" x="9.938116" y="-6.570312499999999">0</tspan>
       </text>
      </g>
     </g>
    </g>
    <g id="ytick_78"/>
    <g id="ytick_79"/>
    <g id="ytick_80"/>
    <g id="ytick_81"/>
    <g id="ytick_82"/>
    <g id="ytick_83"/>
    <g id="ytick_84"/>
    <g id="ytick_85"/>
    <g id="ytick_86"/>
    <g id="ytick_87"/>
    <g id="ytick_88"/>
    <g id="ytick_89"/>
    <g id="ytick_90"/>
    <g id="ytick_91"/>
    <g id="ytick_92"/>
    <g id="ytick_93"/>
    <g id="ytick_94"/>
    <g id="ytick_95"/>
    <g id="ytick_96"/>
    <g id="ytick_97"/>
    <g id="ytick_98"/>
    <g id="ytick_99"/>
    <g id="ytick_100"/>
    <g id="text_19">
     <text style="fill: #262626; font: 9.6px 'Arial', 'DejaVu Sans', 'Liberation Sans', 'Bitstream Vera Sans', sans-serif; text-anchor: middle" x="14.0715" y="477.19675" transform="rotate(-90 14.0715 477.19675)">FL</text>
    </g>
   </g>
   <g id="line2d_13">
    <path d="M 47.2035 507.577148 
L 48.275071 516.286693 
L 49.34733 507.751842 
L 49.924383 510.796122 
L 50.921674 512.079715 
L 51.859814 511.214223 
L 52.868797 509.211784 
L 53.870902 524.975527 
L 53.870902 511.641937 
L 53.870902 510.796122 
L 55.110981 512.756325 
L 56.061502 503.390881 
L 56.855895 518.032165 
L 56.855895 512.302529 
L 56.855895 511.003998 
L 57.934344 516.566469 
L 57.934344 507.928191 
L 57.934344 507.062699 
L 58.809209 512.987443 
L 58.809209 511.859538 
L 58.809209 509.211784 
L 59.911043 516.566469 
L 59.911043 515.471757 
L 59.911043 513.94174 
L 60.768025 524.537749 
L 60.768025 521.00204 
L 60.768025 512.987443 
L 63.189721 511.859538 
L 63.770212 512.987443 
L 63.770212 509.987093 
L 63.770212 509.022902 
L 64.760625 516.850516 
L 64.760625 515.207856 
L 64.760625 513.698538 
L 65.735906 518.032165 
L 65.735906 514.188164 
L 65.735906 509.790216 
L 66.725631 518.970417 
L 66.725631 508.106228 
L 66.725631 507.928191 
L 67.782759 517.729643 
L 67.782759 512.528044 
L 67.782759 502.443527 
L 68.874276 516.286693 
L 68.874276 513.94174 
L 68.874276 512.079715 
L 70.872983 519.293986 
L 70.872983 509.987093 
L 70.872983 507.232606 
L 72.691491 516.286693 
L 72.691491 511.641937 
L 72.691491 511.426851 
L 73.694283 525.883255 
L 73.694283 516.566469 
L 73.694283 515.207856 
L 74.789239 516.566469 
L 74.789239 516.566469 
L 74.789239 513.94174 
L 76.701973 516.011063 
L 77.981944 525.883255 
L 78.7165 516.850516 
L 78.7165 515.207856 
L 78.7165 515.207856 
L 79.668396 516.011063 
L 79.668396 514.947646 
L 79.668396 509.402604 
L 80.616166 525.883255 
L 80.616166 517.729643 
L 80.616166 515.207856 
L 81.640968 519.623282 
L 81.640968 511.641937 
L 81.640968 508.650796 
L 83.752472 525.883255 
L 84.630088 525.883255 
L 84.630088 521.363308 
L 84.630088 512.302529 
L 86.729212 521.00204 
L 86.729212 519.293986 
L 86.729212 509.022902 
L 87.656348 517.729643 
L 88.637132 516.286693 
L 91.533401 525.883255 
L 93.549303 516.566469 
L 94.662829 514.188164 
L 95.545947 520.647654 
L 96.632649 516.286693 
L 98.491048 525.883255 
L 99.697426 505.443877 
L 101.471915 505.136353 
L 105.476895 509.790216 
L 106.540901 522.491212 
L 109.492881 521.00204 
L 112.225456 509.595401 
L 113.55426 509.790216 
L 114.535731 522.491212 
L 116.336356 507.062699 
L 119.28077 512.987443 
L 120.264992 513.698538 
L 123.405425 513.94174 
L 126.233603 505.599565 
L 127.316867 514.691025 
L 128.376058 512.528044 
L 130.614803 525.883255 
L 133.262781 516.286693 
L 134.156215 525.883255 
L 135.101234 516.566469 
L 137.331038 518.970417 
L 140.091812 512.756325 
L 141.210841 525.883255 
L 143.109819 510.590543 
L 144.261862 512.528044 
L 146.979306 517.431961 
L 153.88537 510.796122 
L 157.083577 516.286693 
L 161.938661 506.398174 
L 164.8535 515.207856 
L 167.813733 515.739456 
L 174.736304 510.796122 
" clip-path="url(#p4ccdbd2238)" style="fill: none; stroke: #332288; stroke-width: 2; stroke-linecap: round"/>
   </g>
   <g id="line2d_14">
    <path d="M 47.2035 500.208275 
L 48.275071 519.623282 
L 49.34733 507.40408 
L 49.924383 509.987093 
L 50.921674 516.850516 
L 51.859814 509.022902 
L 52.868797 514.188164 
L 53.870902 516.566469 
L 53.870902 514.188164 
L 53.870902 507.40408 
L 55.110981 512.987443 
L 56.061502 505.756568 
L 56.855895 508.835919 
L 56.855895 507.232606 
L 56.855895 506.074606 
L 57.934344 512.756325 
L 57.934344 508.650796 
L 57.934344 508.285985 
L 58.809209 514.188164 
L 58.809209 510.796122 
L 58.809209 509.987093 
L 59.911043 515.207856 
L 59.911043 512.987443 
L 59.911043 512.079715 
L 60.768025 511.859538 
L 60.768025 508.106228 
L 60.768025 507.232606 
L 63.189721 507.232606 
L 63.770212 514.947646 
L 63.770212 510.38721 
L 63.770212 508.106228 
L 64.760625 518.65238 
L 64.760625 510.796122 
L 64.760625 509.790216 
L 65.735906 509.987093 
L 65.735906 504.984477 
L 65.735906 503.670657 
L 66.725631 522.882905 
L 66.725631 515.471757 
L 66.725631 510.796122 
L 67.782759 525.883255 
L 67.782759 522.882905 
L 67.782759 521.00204 
L 68.874276 516.566469 
L 68.874276 509.987093 
L 68.874276 504.098371 
L 70.872983 516.566469 
L 70.872983 512.987443 
L 70.872983 509.987093 
L 72.691491 519.293986 
L 72.691491 517.729643 
L 72.691491 509.022902 
L 73.694283 525.883255 
L 73.694283 522.882905 
L 73.694283 518.032165 
L 74.789239 522.882905 
L 74.789239 516.566469 
L 74.789239 511.003998 
L 76.701973 520.299892 
L 77.981944 525.883255 
L 78.7165 512.756325 
L 78.7165 511.859538 
L 78.7165 511.859538 
L 79.668396 521.00204 
L 79.668396 517.729643 
L 79.668396 511.214223 
L 80.616166 524.975527 
L 80.616166 514.947646 
L 80.616166 511.641937 
L 81.640968 525.883255 
L 81.640968 522.491212 
L 81.640968 508.106228 
L 83.752472 525.883255 
L 84.630088 525.883255 
L 84.630088 519.623282 
L 84.630088 509.211784 
L 86.729212 525.883255 
L 86.729212 519.293986 
L 86.729212 515.207856 
L 87.656348 514.188164 
L 88.637132 522.882905 
L 91.533401 513.94174 
L 93.549303 519.623282 
L 94.662829 511.859538 
L 95.545947 516.286693 
L 96.632649 517.729643 
L 98.491048 509.790216 
L 99.697426 514.691025 
L 101.471915 511.859538 
L 105.476895 510.590543 
L 106.540901 509.595401 
L 109.492881 522.882905 
L 112.225456 512.756325 
L 113.55426 511.641937 
L 114.535731 521.73173 
L 116.336356 511.426851 
L 119.28077 518.970417 
L 120.264992 519.293986 
L 123.405425 511.426851 
L 126.233603 513.698538 
L 127.316867 507.232606 
L 128.376058 503.115251 
L 130.614803 513.698538 
L 133.262781 513.94174 
L 134.156215 508.467496 
L 135.101234 511.641937 
L 137.331038 516.011063 
L 140.091812 512.987443 
L 141.210841 514.947646 
L 143.109819 512.987443 
L 144.261862 509.402604 
L 146.979306 509.595401 
L 153.88537 503.530243 
L 157.083577 507.928191 
L 161.938661 510.796122 
L 164.8535 521.00204 
L 167.813733 509.790216 
L 174.736304 513.94174 
" clip-path="url(#p4ccdbd2238)" style="fill: none; stroke: #332288; stroke-width: 2; stroke-linecap: round"/>
   </g>
   <g id="line2d_15">
    <path d="M 47.2035 498.003958 
L 48.275071 518.032165 
L 49.34733 515.207856 
L 49.924383 509.790216 
L 50.921674 509.987093 
L 51.859814 506.72747 
L 52.868797 509.595401 
L 53.870902 511.859538 
L 53.870902 507.40408 
L 53.870902 505.599565 
L 55.110981 511.859538 
L 56.061502 501.795213 
L 56.855895 514.188164 
L 56.855895 513.221468 
L 56.855895 510.186076 
L 57.934344 515.207856 
L 57.934344 512.756325 
L 57.934344 510.796122 
L 58.809209 516.850516 
L 58.809209 511.859538 
L 58.809209 509.790216 
L 59.911043 522.882905 
L 59.911043 519.293986 
L 59.911043 511.003998 
L 60.768025 515.207856 
L 60.768025 510.796122 
L 60.768025 509.211784 
L 63.189721 509.987093 
L 63.770212 525.883255 
L 63.770212 517.729643 
L 63.770212 514.188164 
L 64.760625 517.729643 
L 64.760625 515.207856 
L 64.760625 513.94174 
L 65.735906 521.00204 
L 65.735906 516.286693 
L 65.735906 509.595401 
L 66.725631 519.293986 
L 66.725631 512.987443 
L 66.725631 509.987093 
L 67.782759 518.970417 
L 67.782759 517.729643 
L 67.782759 515.207856 
L 68.874276 521.00204 
L 68.874276 518.032165 
L 68.874276 508.835919 
L 70.872983 512.987443 
L 70.872983 509.595401 
L 70.872983 509.211784 
L 72.691491 525.883255 
L 72.691491 512.756325 
L 72.691491 509.987093 
L 73.694283 522.882905 
L 73.694283 515.207856 
L 73.694283 506.562093 
L 74.789239 525.883255 
L 74.789239 525.883255 
L 74.789239 522.882905 
L 76.701973 524.110035 
L 77.981944 525.883255 
L 78.7165 519.293986 
L 78.7165 517.729643 
L 78.7165 512.528044 
L 79.668396 517.431961 
L 79.668396 514.947646 
L 79.668396 511.641937 
L 80.616166 518.970417 
L 80.616166 513.94174 
L 80.616166 511.641937 
L 81.640968 521.363308 
L 81.640968 515.471757 
L 81.640968 506.562093 
L 83.752472 525.883255 
L 84.630088 516.850516 
L 84.630088 516.286693 
L 84.630088 513.94174 
L 86.729212 513.94174 
L 86.729212 509.987093 
L 86.729212 509.022902 
L 87.656348 516.566469 
L 88.637132 514.947646 
L 91.533401 515.207856 
L 93.549303 523.283022 
L 94.662829 518.032165 
L 95.545947 517.729643 
L 96.632649 525.883255 
L 98.491048 507.062699 
L 99.697426 514.947646 
L 101.471915 510.186076 
L 105.476895 507.232606 
L 106.540901 516.286693 
L 109.492881 513.94174 
L 112.225456 513.698538 
L 113.55426 519.293986 
L 114.535731 517.431961 
L 116.336356 513.94174 
L 119.28077 510.186076 
L 120.264992 503.670657 
L 123.405425 506.398174 
L 126.233603 511.641937 
L 127.316867 511.214223 
L 128.376058 513.458474 
L 130.614803 511.426851 
L 133.262781 518.032165 
L 134.156215 517.431961 
L 135.101234 516.286693 
L 137.331038 509.402604 
L 140.091812 519.293986 
L 141.210841 516.286693 
L 143.109819 524.537749 
L 144.261862 508.650796 
L 146.979306 509.595401 
L 153.88537 520.647654 
L 157.083577 522.491212 
L 161.938661 513.698538 
L 164.8535 521.00204 
L 167.813733 511.003998 
L 174.736304 504.243155 
" clip-path="url(#p4ccdbd2238)" style="fill: none; stroke: #332288; stroke-width: 2; stroke-linecap: round"/>
   </g>
   <g id="line2d_16">
    <path d="M 47.2035 505.034965 
L 48.275071 519.846095 
L 49.34733 500.92393 
L 49.924383 493.693743 
L 50.921674 486.529594 
L 51.859814 476.389861 
L 52.868797 465.507333 
L 53.870902 457.195911 
L 55.110981 446.304148 
L 56.061502 449.877827 
L 56.855895 457.035596 
L 57.934344 466.737071 
L 58.809209 467.449647 
L 59.911043 469.020579 
L 60.768025 468.344751 
L 63.189721 473.429231 
L 63.770212 473.881619 
L 64.760625 478.111472 
L 65.735906 483.362243 
L 66.725631 485.754413 
L 67.782759 487.607315 
L 68.874276 495.300078 
L 70.872983 501.155048 
L 72.691491 501.78106 
L 73.694283 506.056793 
L 74.789239 514.409982 
L 76.701973 525.883255 
L 77.981944 525.883255 
L 78.7165 524.779686 
L 79.668396 525.074226 
L 80.616166 523.737928 
L 81.640968 523.148692 
L 83.752472 525.883255 
L 84.630088 523.104129 
L 86.729212 524.585885 
L 87.656348 525.883255 
L 88.637132 524.682533 
L 91.533401 525.883255 
L 93.549303 525.883255 
L 94.662829 525.423855 
L 95.545947 519.623282 
L 96.632649 525.883255 
L 98.491048 525.883255 
L 99.697426 525.273209 
L 101.471915 525.883255 
L 105.476895 522.234591 
L 106.540901 525.423855 
L 109.492881 525.883255 
L 112.225456 523.969621 
L 113.55426 525.883255 
L 114.535731 525.273209 
L 116.336356 525.883255 
L 119.28077 524.682533 
L 120.264992 525.883255 
L 123.405425 524.110035 
L 126.233603 525.883255 
L 127.316867 525.423855 
L 128.376058 524.682533 
L 130.614803 525.883255 
L 133.262781 525.883255 
L 134.156215 523.554629 
L 135.101234 525.423855 
L 137.331038 523.148692 
L 140.091812 524.682533 
L 141.210841 525.883255 
L 143.109819 525.883255 
L 144.261862 525.423855 
L 146.979306 525.883255 
L 153.88537 525.883255 
L 157.083577 525.883255 
L 161.938661 525.423855 
L 164.8535 519.734355 
L 167.813733 525.883255 
L 174.736304 525.883255 
" clip-path="url(#p4ccdbd2238)" style="fill: none; stroke: #000000; stroke-linecap: round"/>
   </g>
   <g id="patch_12">
    <path d="M 47.2035 531.2355 
L 47.2035 423.158 
" style="fill: none; stroke: #262626; stroke-linejoin: miter; stroke-linecap: square"/>
   </g>
   <g id="patch_13">
    <path d="M 47.2035 531.2355 
L 185.86125 531.2355 
" style="fill: none; stroke: #262626; stroke-linejoin: miter; stroke-linecap: square"/>
   </g>
   <g id="text_20">
    <text style="fill: #262626; font: 9.6px 'Arial', 'DejaVu Sans', 'Liberation Sans', 'Bitstream Vera Sans', sans-serif; text-anchor: middle" x="116.532375" y="418.158" transform="rotate(-0 116.532375 418.158)">Marinobacter adhaerens HP15</text>
   </g>
  </g>
 </g>
 <defs>
  <clipPath id="p40b7c24b4b">
   <rect x="47.2035" y="19.0715" width="138.65775" height="108.0775"/>
  </clipPath>
  <clipPath id="p1537e2562b">
   <rect x="47.2035" y="153.767" width="138.65775" height="108.0775"/>
  </clipPath>
  <clipPath id="pc8813c2aa0">
   <rect x="47.2035" y="288.4625" width="138.65775" height="108.0775"/>
  </clipPath>
  <clipPath id="p4ccdbd2238">
   <rect x="47.2035" y="423.158" width="138.65775" height="108.0775"/>
  </clipPath>
 </defs>
</svg>
