<?xml version="1.0" encoding="utf-8" standalone="no"?>
<!DOCTYPE svg PUBLIC "-//W3C//DTD SVG 1.1//EN"
  "http://www.w3.org/Graphics/SVG/1.1/DTD/svg11.dtd">
<svg xmlns:xlink="http://www.w3.org/1999/xlink" width="237.6pt" height="216pt" viewBox="0 0 237.6 216" xmlns="http://www.w3.org/2000/svg" version="1.1">
 <metadata>
  <rdf:RDF xmlns:dc="http://purl.org/dc/elements/1.1/" xmlns:cc="http://creativecommons.org/ns#" xmlns:rdf="http://www.w3.org/1999/02/22-rdf-syntax-ns#">
   <cc:Work>
    <dc:type rdf:resource="http://purl.org/dc/dcmitype/StillImage"/>
    <dc:date>2024-11-17T13:18:18.056078</dc:date>
    <dc:format>image/svg+xml</dc:format>
    <dc:creator>
     <cc:Agent>
      <dc:title>Matplotlib v3.8.0, https://matplotlib.org/</dc:title>
     </cc:Agent>
    </dc:creator>
   </cc:Work>
  </rdf:RDF>
 </metadata>
 <defs>
  <style type="text/css">*{stroke-linejoin: round; stroke-linecap: butt}</style>
 </defs>
 <g id="figure_1">
  <g id="patch_1">
   <path d="M 0 216 
L 237.6 216 
L 237.6 0 
L 0 0 
z
" style="fill: #ffffff"/>
  </g>
  <g id="axes_1">
   <g id="patch_2">
    <path d="M 50.493 174.732 
L 221.157 174.732 
L 221.157 19.668 
L 50.493 19.668 
z
" style="fill: #ffffff"/>
   </g>
   <g id="matplotlib.axis_1">
    <g id="xtick_1">
     <g id="text_1">
      <!-- 0 -->
      <g style="fill: #262626" transform="translate(56.173045 189.830875) scale(0.088 -0.088)">
       <defs>
        <path id="ArialMT-30" d="M 266 2259 
Q 266 3072 433 3567 
Q 600 4063 929 4331 
Q 1259 4600 1759 4600 
Q 2128 4600 2406 4451 
Q 2684 4303 2865 4023 
Q 3047 3744 3150 3342 
Q 3253 2941 3253 2259 
Q 3253 1453 3087 958 
Q 2922 463 2592 192 
Q 2263 -78 1759 -78 
Q 1097 -78 719 397 
Q 266 969 266 2259 
z
M 844 2259 
Q 844 1131 1108 757 
Q 1372 384 1759 384 
Q 2147 384 2411 759 
Q 2675 1134 2675 2259 
Q 2675 3391 2411 3762 
Q 2147 4134 1753 4134 
Q 1366 4134 1134 3806 
Q 844 3388 844 2259 
z
" transform="scale(0.015625)"/>
       </defs>
       <use xlink:href="#ArialMT-30"/>
      </g>
     </g>
    </g>
    <g id="xtick_2">
     <g id="text_2">
      <!-- 1 -->
      <g style="fill: #262626" transform="translate(96.80733 189.830875) scale(0.088 -0.088)">
       <defs>
        <path id="ArialMT-31" d="M 2384 0 
L 1822 0 
L 1822 3584 
Q 1619 3391 1289 3197 
Q 959 3003 697 2906 
L 697 3450 
Q 1169 3672 1522 3987 
Q 1875 4303 2022 4600 
L 2384 4600 
L 2384 0 
z
" transform="scale(0.015625)"/>
       </defs>
       <use xlink:href="#ArialMT-31"/>
      </g>
     </g>
    </g>
    <g id="xtick_3">
     <g id="text_3">
      <!-- 2 -->
      <g style="fill: #262626" transform="translate(137.441616 189.830875) scale(0.088 -0.088)">
       <defs>
        <path id="ArialMT-32" d="M 3222 541 
L 3222 0 
L 194 0 
Q 188 203 259 391 
Q 375 700 629 1000 
Q 884 1300 1366 1694 
Q 2113 2306 2375 2664 
Q 2638 3022 2638 3341 
Q 2638 3675 2398 3904 
Q 2159 4134 1775 4134 
Q 1369 4134 1125 3890 
Q 881 3647 878 3216 
L 300 3275 
Q 359 3922 746 4261 
Q 1134 4600 1788 4600 
Q 2447 4600 2831 4234 
Q 3216 3869 3216 3328 
Q 3216 3053 3103 2787 
Q 2991 2522 2730 2228 
Q 2469 1934 1863 1422 
Q 1356 997 1212 845 
Q 1069 694 975 541 
L 3222 541 
z
" transform="scale(0.015625)"/>
       </defs>
       <use xlink:href="#ArialMT-32"/>
      </g>
     </g>
    </g>
    <g id="xtick_4">
     <g id="text_4">
      <!-- 3 -->
      <g style="fill: #262626" transform="translate(178.075902 189.830875) scale(0.088 -0.088)">
       <defs>
        <path id="ArialMT-33" d="M 269 1209 
L 831 1284 
Q 928 806 1161 595 
Q 1394 384 1728 384 
Q 2125 384 2398 659 
Q 2672 934 2672 1341 
Q 2672 1728 2419 1979 
Q 2166 2231 1775 2231 
Q 1616 2231 1378 2169 
L 1441 2663 
Q 1497 2656 1531 2656 
Q 1891 2656 2178 2843 
Q 2466 3031 2466 3422 
Q 2466 3731 2256 3934 
Q 2047 4138 1716 4138 
Q 1388 4138 1169 3931 
Q 950 3725 888 3313 
L 325 3413 
Q 428 3978 793 4289 
Q 1159 4600 1703 4600 
Q 2078 4600 2393 4439 
Q 2709 4278 2876 4000 
Q 3044 3722 3044 3409 
Q 3044 3113 2884 2869 
Q 2725 2625 2413 2481 
Q 2819 2388 3044 2092 
Q 3269 1797 3269 1353 
Q 3269 753 2831 336 
Q 2394 -81 1725 -81 
Q 1122 -81 723 278 
Q 325 638 269 1209 
z
" transform="scale(0.015625)"/>
       </defs>
       <use xlink:href="#ArialMT-33"/>
      </g>
     </g>
    </g>
    <g id="xtick_5">
     <g id="text_5">
      <!-- 4 -->
      <g style="fill: #262626" transform="translate(218.710188 189.830875) scale(0.088 -0.088)">
       <defs>
        <path id="ArialMT-34" d="M 2069 0 
L 2069 1097 
L 81 1097 
L 81 1613 
L 2172 4581 
L 2631 4581 
L 2631 1613 
L 3250 1613 
L 3250 1097 
L 2631 1097 
L 2631 0 
L 2069 0 
z
M 2069 1613 
L 2069 3678 
L 634 1613 
L 2069 1613 
z
" transform="scale(0.015625)"/>
       </defs>
       <use xlink:href="#ArialMT-34"/>
      </g>
     </g>
    </g>
    <g id="text_6">
     <!-- Fluorescence -->
     <g style="fill: #262626" transform="translate(107.013 203.451375) scale(0.096 -0.096)">
      <defs>
       <path id="ArialMT-46" d="M 525 0 
L 525 4581 
L 3616 4581 
L 3616 4041 
L 1131 4041 
L 1131 2622 
L 3281 2622 
L 3281 2081 
L 1131 2081 
L 1131 0 
L 525 0 
z
" transform="scale(0.015625)"/>
       <path id="ArialMT-6c" d="M 409 0 
L 409 4581 
L 972 4581 
L 972 0 
L 409 0 
z
" transform="scale(0.015625)"/>
       <path id="ArialMT-75" d="M 2597 0 
L 2597 488 
Q 2209 -75 1544 -75 
Q 1250 -75 995 37 
Q 741 150 617 320 
Q 494 491 444 738 
Q 409 903 409 1263 
L 409 3319 
L 972 3319 
L 972 1478 
Q 972 1038 1006 884 
Q 1059 663 1231 536 
Q 1403 409 1656 409 
Q 1909 409 2131 539 
Q 2353 669 2445 892 
Q 2538 1116 2538 1541 
L 2538 3319 
L 3100 3319 
L 3100 0 
L 2597 0 
z
" transform="scale(0.015625)"/>
       <path id="ArialMT-6f" d="M 213 1659 
Q 213 2581 725 3025 
Q 1153 3394 1769 3394 
Q 2453 3394 2887 2945 
Q 3322 2497 3322 1706 
Q 3322 1066 3130 698 
Q 2938 331 2570 128 
Q 2203 -75 1769 -75 
Q 1072 -75 642 372 
Q 213 819 213 1659 
z
M 791 1659 
Q 791 1022 1069 705 
Q 1347 388 1769 388 
Q 2188 388 2466 706 
Q 2744 1025 2744 1678 
Q 2744 2294 2464 2611 
Q 2184 2928 1769 2928 
Q 1347 2928 1069 2612 
Q 791 2297 791 1659 
z
" transform="scale(0.015625)"/>
       <path id="ArialMT-72" d="M 416 0 
L 416 3319 
L 922 3319 
L 922 2816 
Q 1116 3169 1280 3281 
Q 1444 3394 1641 3394 
Q 1925 3394 2219 3213 
L 2025 2691 
Q 1819 2813 1613 2813 
Q 1428 2813 1281 2702 
Q 1134 2591 1072 2394 
Q 978 2094 978 1738 
L 978 0 
L 416 0 
z
" transform="scale(0.015625)"/>
       <path id="ArialMT-65" d="M 2694 1069 
L 3275 997 
Q 3138 488 2766 206 
Q 2394 -75 1816 -75 
Q 1088 -75 661 373 
Q 234 822 234 1631 
Q 234 2469 665 2931 
Q 1097 3394 1784 3394 
Q 2450 3394 2872 2941 
Q 3294 2488 3294 1666 
Q 3294 1616 3291 1516 
L 816 1516 
Q 847 969 1125 678 
Q 1403 388 1819 388 
Q 2128 388 2347 550 
Q 2566 713 2694 1069 
z
M 847 1978 
L 2700 1978 
Q 2663 2397 2488 2606 
Q 2219 2931 1791 2931 
Q 1403 2931 1139 2672 
Q 875 2413 847 1978 
z
" transform="scale(0.015625)"/>
       <path id="ArialMT-73" d="M 197 991 
L 753 1078 
Q 800 744 1014 566 
Q 1228 388 1613 388 
Q 2000 388 2187 545 
Q 2375 703 2375 916 
Q 2375 1106 2209 1216 
Q 2094 1291 1634 1406 
Q 1016 1563 777 1677 
Q 538 1791 414 1992 
Q 291 2194 291 2438 
Q 291 2659 392 2848 
Q 494 3038 669 3163 
Q 800 3259 1026 3326 
Q 1253 3394 1513 3394 
Q 1903 3394 2198 3281 
Q 2494 3169 2634 2976 
Q 2775 2784 2828 2463 
L 2278 2388 
Q 2241 2644 2061 2787 
Q 1881 2931 1553 2931 
Q 1166 2931 1000 2803 
Q 834 2675 834 2503 
Q 834 2394 903 2306 
Q 972 2216 1119 2156 
Q 1203 2125 1616 2013 
Q 2213 1853 2448 1751 
Q 2684 1650 2818 1456 
Q 2953 1263 2953 975 
Q 2953 694 2789 445 
Q 2625 197 2315 61 
Q 2006 -75 1616 -75 
Q 969 -75 630 194 
Q 291 463 197 991 
z
" transform="scale(0.015625)"/>
       <path id="ArialMT-63" d="M 2588 1216 
L 3141 1144 
Q 3050 572 2676 248 
Q 2303 -75 1759 -75 
Q 1078 -75 664 370 
Q 250 816 250 1647 
Q 250 2184 428 2587 
Q 606 2991 970 3192 
Q 1334 3394 1763 3394 
Q 2303 3394 2647 3120 
Q 2991 2847 3088 2344 
L 2541 2259 
Q 2463 2594 2264 2762 
Q 2066 2931 1784 2931 
Q 1359 2931 1093 2626 
Q 828 2322 828 1663 
Q 828 994 1084 691 
Q 1341 388 1753 388 
Q 2084 388 2306 591 
Q 2528 794 2588 1216 
z
" transform="scale(0.015625)"/>
       <path id="ArialMT-6e" d="M 422 0 
L 422 3319 
L 928 3319 
L 928 2847 
Q 1294 3394 1984 3394 
Q 2284 3394 2536 3286 
Q 2788 3178 2913 3003 
Q 3038 2828 3088 2588 
Q 3119 2431 3119 2041 
L 3119 0 
L 2556 0 
L 2556 2019 
Q 2556 2363 2490 2533 
Q 2425 2703 2258 2804 
Q 2091 2906 1866 2906 
Q 1506 2906 1245 2678 
Q 984 2450 984 1813 
L 984 0 
L 422 0 
z
" transform="scale(0.015625)"/>
      </defs>
      <use xlink:href="#ArialMT-46"/>
      <use xlink:href="#ArialMT-6c" x="61.083984"/>
      <use xlink:href="#ArialMT-75" x="83.300781"/>
      <use xlink:href="#ArialMT-6f" x="138.916016"/>
      <use xlink:href="#ArialMT-72" x="194.53125"/>
      <use xlink:href="#ArialMT-65" x="227.832031"/>
      <use xlink:href="#ArialMT-73" x="283.447266"/>
      <use xlink:href="#ArialMT-63" x="333.447266"/>
      <use xlink:href="#ArialMT-65" x="383.447266"/>
      <use xlink:href="#ArialMT-6e" x="439.0625"/>
      <use xlink:href="#ArialMT-63" x="494.677734"/>
      <use xlink:href="#ArialMT-65" x="544.677734"/>
     </g>
    </g>
   </g>
   <g id="matplotlib.axis_2">
    <g id="ytick_1">
     <g id="text_7">
      <!-- 0.0 -->
      <g style="fill: #262626" transform="translate(29.461 172.308028) scale(0.088 -0.088)">
       <defs>
        <path id="ArialMT-2e" d="M 581 0 
L 581 641 
L 1222 641 
L 1222 0 
L 581 0 
z
" transform="scale(0.015625)"/>
       </defs>
       <use xlink:href="#ArialMT-30"/>
       <use xlink:href="#ArialMT-2e" x="55.615234"/>
       <use xlink:href="#ArialMT-30" x="83.398438"/>
      </g>
     </g>
    </g>
    <g id="ytick_2">
     <g id="text_8">
      <!-- 0.2 -->
      <g style="fill: #262626" transform="translate(29.461 153.512392) scale(0.088 -0.088)">
       <use xlink:href="#ArialMT-30"/>
       <use xlink:href="#ArialMT-2e" x="55.615234"/>
       <use xlink:href="#ArialMT-32" x="83.398438"/>
      </g>
     </g>
    </g>
    <g id="ytick_3">
     <g id="text_9">
      <!-- 0.4 -->
      <g style="fill: #262626" transform="translate(29.461 134.716756) scale(0.088 -0.088)">
       <use xlink:href="#ArialMT-30"/>
       <use xlink:href="#ArialMT-2e" x="55.615234"/>
       <use xlink:href="#ArialMT-34" x="83.398438"/>
      </g>
     </g>
    </g>
    <g id="ytick_4">
     <g id="text_10">
      <!-- 0.6 -->
      <g style="fill: #262626" transform="translate(29.461 115.921119) scale(0.088 -0.088)">
       <defs>
        <path id="ArialMT-36" d="M 3184 3459 
L 2625 3416 
Q 2550 3747 2413 3897 
Q 2184 4138 1850 4138 
Q 1581 4138 1378 3988 
Q 1113 3794 959 3422 
Q 806 3050 800 2363 
Q 1003 2672 1297 2822 
Q 1591 2972 1913 2972 
Q 2475 2972 2870 2558 
Q 3266 2144 3266 1488 
Q 3266 1056 3080 686 
Q 2894 316 2569 119 
Q 2244 -78 1831 -78 
Q 1128 -78 684 439 
Q 241 956 241 2144 
Q 241 3472 731 4075 
Q 1159 4600 1884 4600 
Q 2425 4600 2770 4297 
Q 3116 3994 3184 3459 
z
M 888 1484 
Q 888 1194 1011 928 
Q 1134 663 1356 523 
Q 1578 384 1822 384 
Q 2178 384 2434 671 
Q 2691 959 2691 1453 
Q 2691 1928 2437 2201 
Q 2184 2475 1800 2475 
Q 1419 2475 1153 2201 
Q 888 1928 888 1484 
z
" transform="scale(0.015625)"/>
       </defs>
       <use xlink:href="#ArialMT-30"/>
       <use xlink:href="#ArialMT-2e" x="55.615234"/>
       <use xlink:href="#ArialMT-36" x="83.398438"/>
      </g>
     </g>
    </g>
    <g id="ytick_5">
     <g id="text_11">
      <!-- 0.8 -->
      <g style="fill: #262626" transform="translate(29.461 97.125483) scale(0.088 -0.088)">
       <defs>
        <path id="ArialMT-38" d="M 1131 2484 
Q 781 2613 612 2850 
Q 444 3088 444 3419 
Q 444 3919 803 4259 
Q 1163 4600 1759 4600 
Q 2359 4600 2725 4251 
Q 3091 3903 3091 3403 
Q 3091 3084 2923 2848 
Q 2756 2613 2416 2484 
Q 2838 2347 3058 2040 
Q 3278 1734 3278 1309 
Q 3278 722 2862 322 
Q 2447 -78 1769 -78 
Q 1091 -78 675 323 
Q 259 725 259 1325 
Q 259 1772 486 2073 
Q 713 2375 1131 2484 
z
M 1019 3438 
Q 1019 3113 1228 2906 
Q 1438 2700 1772 2700 
Q 2097 2700 2305 2904 
Q 2513 3109 2513 3406 
Q 2513 3716 2298 3927 
Q 2084 4138 1766 4138 
Q 1444 4138 1231 3931 
Q 1019 3725 1019 3438 
z
M 838 1322 
Q 838 1081 952 856 
Q 1066 631 1291 507 
Q 1516 384 1775 384 
Q 2178 384 2440 643 
Q 2703 903 2703 1303 
Q 2703 1709 2433 1975 
Q 2163 2241 1756 2241 
Q 1359 2241 1098 1978 
Q 838 1716 838 1322 
z
" transform="scale(0.015625)"/>
       </defs>
       <use xlink:href="#ArialMT-30"/>
       <use xlink:href="#ArialMT-2e" x="55.615234"/>
       <use xlink:href="#ArialMT-38" x="83.398438"/>
      </g>
     </g>
    </g>
    <g id="ytick_6">
     <g id="text_12">
      <!-- 1.0 -->
      <g style="fill: #262626" transform="translate(29.461 78.329847) scale(0.088 -0.088)">
       <use xlink:href="#ArialMT-31"/>
       <use xlink:href="#ArialMT-2e" x="55.615234"/>
       <use xlink:href="#ArialMT-30" x="83.398438"/>
      </g>
     </g>
    </g>
    <g id="ytick_7">
     <g id="text_13">
      <!-- 1.2 -->
      <g style="fill: #262626" transform="translate(29.461 59.53421) scale(0.088 -0.088)">
       <use xlink:href="#ArialMT-31"/>
       <use xlink:href="#ArialMT-2e" x="55.615234"/>
       <use xlink:href="#ArialMT-32" x="83.398438"/>
      </g>
     </g>
    </g>
    <g id="ytick_8">
     <g id="text_14">
      <!-- 1.4 -->
      <g style="fill: #262626" transform="translate(29.461 40.738574) scale(0.088 -0.088)">
       <use xlink:href="#ArialMT-31"/>
       <use xlink:href="#ArialMT-2e" x="55.615234"/>
       <use xlink:href="#ArialMT-34" x="83.398438"/>
      </g>
     </g>
    </g>
    <g id="ytick_9">
     <g id="text_15">
      <!-- 1.6 -->
      <g style="fill: #262626" transform="translate(29.461 21.942937) scale(0.088 -0.088)">
       <use xlink:href="#ArialMT-31"/>
       <use xlink:href="#ArialMT-2e" x="55.615234"/>
       <use xlink:href="#ArialMT-36" x="83.398438"/>
      </g>
     </g>
    </g>
    <g id="text_16">
     <!-- $\mathregular{10^8}$ cell/ml -->
     <g style="fill: #262626" transform="translate(22.553 119.712) rotate(-90) scale(0.096 -0.096)">
      <defs>
       <path id="ArialMT-20" transform="scale(0.015625)"/>
       <path id="ArialMT-2f" d="M 0 -78 
L 1328 4659 
L 1778 4659 
L 453 -78 
L 0 -78 
z
" transform="scale(0.015625)"/>
       <path id="ArialMT-6d" d="M 422 0 
L 422 3319 
L 925 3319 
L 925 2853 
Q 1081 3097 1340 3245 
Q 1600 3394 1931 3394 
Q 2300 3394 2536 3241 
Q 2772 3088 2869 2813 
Q 3263 3394 3894 3394 
Q 4388 3394 4653 3120 
Q 4919 2847 4919 2278 
L 4919 0 
L 4359 0 
L 4359 2091 
Q 4359 2428 4304 2576 
Q 4250 2725 4106 2815 
Q 3963 2906 3769 2906 
Q 3419 2906 3187 2673 
Q 2956 2441 2956 1928 
L 2956 0 
L 2394 0 
L 2394 2156 
Q 2394 2531 2256 2718 
Q 2119 2906 1806 2906 
Q 1569 2906 1367 2781 
Q 1166 2656 1075 2415 
Q 984 2175 984 1722 
L 984 0 
L 422 0 
z
" transform="scale(0.015625)"/>
      </defs>
      <use xlink:href="#ArialMT-31" transform="translate(0 0.99375)"/>
      <use xlink:href="#ArialMT-30" transform="translate(55.615234 0.99375)"/>
      <use xlink:href="#ArialMT-38" transform="translate(112.972813 70.6875) scale(0.7)"/>
      <use xlink:href="#ArialMT-20" transform="translate(156.881602 0.99375)"/>
      <use xlink:href="#ArialMT-63" transform="translate(184.664805 0.99375)"/>
      <use xlink:href="#ArialMT-65" transform="translate(234.664805 0.99375)"/>
      <use xlink:href="#ArialMT-6c" transform="translate(290.280039 0.99375)"/>
      <use xlink:href="#ArialMT-6c" transform="translate(312.496836 0.99375)"/>
      <use xlink:href="#ArialMT-2f" transform="translate(334.713633 0.99375)"/>
      <use xlink:href="#ArialMT-6d" transform="translate(362.496836 0.99375)"/>
      <use xlink:href="#ArialMT-6c" transform="translate(445.797617 0.99375)"/>
     </g>
    </g>
    <g id="text_17">
     <!-- 1e8 -->
     <g style="fill: #262626" transform="translate(50.493 16.668) scale(0.088 -0.088)">
      <use xlink:href="#ArialMT-31"/>
      <use xlink:href="#ArialMT-65" x="55.615234"/>
      <use xlink:href="#ArialMT-38" x="111.230469"/>
     </g>
    </g>
   </g>
   <g id="PathCollection_1">
    <path d="M 74.914206 163.767051 
L 77.652819 158.289825 
L 72.175593 158.289825 
z
" clip-path="url(#pc39158b677)" style="fill: #88ccee; fill-opacity: 0.8; stroke: #ffffff; stroke-opacity: 0.8; stroke-width: 0.5"/>
    <path d="M 75.564354 163.767051 
L 78.302967 158.289825 
L 72.825741 158.289825 
z
" clip-path="url(#pc39158b677)" style="fill: #88ccee; fill-opacity: 0.8; stroke: #ffffff; stroke-opacity: 0.8; stroke-width: 0.5"/>
    <path d="M 74.995474 163.767051 
L 77.734087 158.289825 
L 72.256861 158.289825 
z
" clip-path="url(#pc39158b677)" style="fill: #88ccee; fill-opacity: 0.8; stroke: #ffffff; stroke-opacity: 0.8; stroke-width: 0.5"/>
    <path d="M 70.891411 168.130596 
L 73.630024 162.65337 
L 68.152799 162.65337 
z
" clip-path="url(#pc39158b677)" style="fill: #88ccee; fill-opacity: 0.8; stroke: #ffffff; stroke-opacity: 0.8; stroke-width: 0.5"/>
    <path d="M 70.932046 168.130596 
L 73.670659 162.65337 
L 68.193433 162.65337 
z
" clip-path="url(#pc39158b677)" style="fill: #88ccee; fill-opacity: 0.8; stroke: #ffffff; stroke-opacity: 0.8; stroke-width: 0.5"/>
    <path d="M 73.492006 168.130596 
L 76.230619 162.65337 
L 70.753393 162.65337 
z
" clip-path="url(#pc39158b677)" style="fill: #88ccee; fill-opacity: 0.8; stroke: #ffffff; stroke-opacity: 0.8; stroke-width: 0.5"/>
    <path d="M 71.379023 168.621759 
L 74.117636 163.144533 
L 68.64041 163.144533 
z
" clip-path="url(#pc39158b677)" style="fill: #88ccee; fill-opacity: 0.8; stroke: #ffffff; stroke-opacity: 0.8; stroke-width: 0.5"/>
    <path d="M 69.794286 168.621759 
L 72.532899 163.144533 
L 67.055673 163.144533 
z
" clip-path="url(#pc39158b677)" style="fill: #88ccee; fill-opacity: 0.8; stroke: #ffffff; stroke-opacity: 0.8; stroke-width: 0.5"/>
    <path d="M 72.069806 168.621759 
L 74.808419 163.144533 
L 69.331193 163.144533 
z
" clip-path="url(#pc39158b677)" style="fill: #88ccee; fill-opacity: 0.8; stroke: #ffffff; stroke-opacity: 0.8; stroke-width: 0.5"/>
    <path d="M 117.498937 132.922373 
C 118.225226 132.922373 118.921865 132.633815 119.435429 132.120252 
C 119.948992 131.606688 120.23755 130.910048 120.23755 130.18376 
C 120.23755 129.457471 119.948992 128.760832 119.435429 128.247268 
C 118.921865 127.733705 118.225226 127.445147 117.498937 127.445147 
C 116.772649 127.445147 116.076009 127.733705 115.562445 128.247268 
C 115.048882 128.760832 114.760324 129.457471 114.760324 130.18376 
C 114.760324 130.910048 115.048882 131.606688 115.562445 132.120252 
C 116.076009 132.633815 116.772649 132.922373 117.498937 132.922373 
z
" clip-path="url(#pc39158b677)" style="fill: #882255; fill-opacity: 0.8; stroke: #ffffff; stroke-opacity: 0.8; stroke-width: 0.5"/>
    <path d="M 116.76752 132.922373 
C 117.493809 132.922373 118.190448 132.633815 118.704012 132.120252 
C 119.217575 131.606688 119.506133 130.910048 119.506133 130.18376 
C 119.506133 129.457471 119.217575 128.760832 118.704012 128.247268 
C 118.190448 127.733705 117.493809 127.445147 116.76752 127.445147 
C 116.041231 127.445147 115.344592 127.733705 114.831028 128.247268 
C 114.317465 128.760832 114.028907 129.457471 114.028907 130.18376 
C 114.028907 130.910048 114.317465 131.606688 114.831028 132.120252 
C 115.344592 132.633815 116.041231 132.922373 116.76752 132.922373 
z
" clip-path="url(#pc39158b677)" style="fill: #882255; fill-opacity: 0.8; stroke: #ffffff; stroke-opacity: 0.8; stroke-width: 0.5"/>
    <path d="M 115.62976 132.922373 
C 116.356049 132.922373 117.052688 132.633815 117.566252 132.120252 
C 118.079815 131.606688 118.368373 130.910048 118.368373 130.18376 
C 118.368373 129.457471 118.079815 128.760832 117.566252 128.247268 
C 117.052688 127.733705 116.356049 127.445147 115.62976 127.445147 
C 114.903471 127.445147 114.206832 127.733705 113.693268 128.247268 
C 113.179705 128.760832 112.891147 129.457471 112.891147 130.18376 
C 112.891147 130.910048 113.179705 131.606688 113.693268 132.120252 
C 114.206832 132.633815 114.903471 132.922373 115.62976 132.922373 
z
" clip-path="url(#pc39158b677)" style="fill: #882255; fill-opacity: 0.8; stroke: #ffffff; stroke-opacity: 0.8; stroke-width: 0.5"/>
    <path d="M 165.894371 107.635405 
C 166.62066 107.635405 167.3173 107.346848 167.830863 106.833284 
C 168.344427 106.319721 168.632984 105.623081 168.632984 104.896793 
C 168.632984 104.170504 168.344427 103.473864 167.830863 102.960301 
C 167.3173 102.446737 166.62066 102.15818 165.894371 102.15818 
C 165.168083 102.15818 164.471443 102.446737 163.95788 102.960301 
C 163.444316 103.473864 163.155759 104.170504 163.155759 104.896793 
C 163.155759 105.623081 163.444316 106.319721 163.95788 106.833284 
C 164.471443 107.346848 165.168083 107.635405 165.894371 107.635405 
z
" clip-path="url(#pc39158b677)" style="fill: #882255; fill-opacity: 0.8; stroke: #ffffff; stroke-opacity: 0.8; stroke-width: 0.5"/>
    <path d="M 167.479109 107.635405 
C 168.205397 107.635405 168.902037 107.346848 169.4156 106.833284 
C 169.929164 106.319721 170.217721 105.623081 170.217721 104.896793 
C 170.217721 104.170504 169.929164 103.473864 169.4156 102.960301 
C 168.902037 102.446737 168.205397 102.15818 167.479109 102.15818 
C 166.75282 102.15818 166.05618 102.446737 165.542617 102.960301 
C 165.029053 103.473864 164.740496 104.170504 164.740496 104.896793 
C 164.740496 105.623081 165.029053 106.319721 165.542617 106.833284 
C 166.05618 107.346848 166.75282 107.635405 167.479109 107.635405 
z
" clip-path="url(#pc39158b677)" style="fill: #882255; fill-opacity: 0.8; stroke: #ffffff; stroke-opacity: 0.8; stroke-width: 0.5"/>
    <path d="M 166.82896 107.635405 
C 167.555249 107.635405 168.251888 107.346848 168.765452 106.833284 
C 169.279015 106.319721 169.567573 105.623081 169.567573 104.896793 
C 169.567573 104.170504 169.279015 103.473864 168.765452 102.960301 
C 168.251888 102.446737 167.555249 102.15818 166.82896 102.15818 
C 166.102671 102.15818 165.406032 102.446737 164.892468 102.960301 
C 164.378905 103.473864 164.090347 104.170504 164.090347 104.896793 
C 164.090347 105.623081 164.378905 106.319721 164.892468 106.833284 
C 165.406032 107.346848 166.102671 107.635405 166.82896 107.635405 
z
" clip-path="url(#pc39158b677)" style="fill: #882255; fill-opacity: 0.8; stroke: #ffffff; stroke-opacity: 0.8; stroke-width: 0.5"/>
    <path d="M 117.62084 145.501894 
C 118.347129 145.501894 119.043768 145.213336 119.557332 144.699772 
C 120.070895 144.186209 120.359453 143.489569 120.359453 142.763281 
C 120.359453 142.036992 120.070895 141.340353 119.557332 140.826789 
C 119.043768 140.313226 118.347129 140.024668 117.62084 140.024668 
C 116.894551 140.024668 116.197912 140.313226 115.684348 140.826789 
C 115.170785 141.340353 114.882227 142.036992 114.882227 142.763281 
C 114.882227 143.489569 115.170785 144.186209 115.684348 144.699772 
C 116.197912 145.213336 116.894551 145.501894 117.62084 145.501894 
z
" clip-path="url(#pc39158b677)" style="fill: #882255; fill-opacity: 0.8; stroke: #ffffff; stroke-opacity: 0.8; stroke-width: 0.5"/>
    <path d="M 120.099531 145.501894 
C 120.82582 145.501894 121.52246 145.213336 122.036023 144.699772 
C 122.549587 144.186209 122.838144 143.489569 122.838144 142.763281 
C 122.838144 142.036992 122.549587 141.340353 122.036023 140.826789 
C 121.52246 140.313226 120.82582 140.024668 120.099531 140.024668 
C 119.373243 140.024668 118.676603 140.313226 118.16304 140.826789 
C 117.649476 141.340353 117.360919 142.036992 117.360919 142.763281 
C 117.360919 143.489569 117.649476 144.186209 118.16304 144.699772 
C 118.676603 145.213336 119.373243 145.501894 120.099531 145.501894 
z
" clip-path="url(#pc39158b677)" style="fill: #882255; fill-opacity: 0.8; stroke: #ffffff; stroke-opacity: 0.8; stroke-width: 0.5"/>
    <path d="M 118.149086 145.501894 
C 118.875374 145.501894 119.572014 145.213336 120.085577 144.699772 
C 120.599141 144.186209 120.887699 143.489569 120.887699 142.763281 
C 120.887699 142.036992 120.599141 141.340353 120.085577 140.826789 
C 119.572014 140.313226 118.875374 140.024668 118.149086 140.024668 
C 117.422797 140.024668 116.726158 140.313226 116.212594 140.826789 
C 115.69903 141.340353 115.410473 142.036992 115.410473 142.763281 
C 115.410473 143.489569 115.69903 144.186209 116.212594 144.699772 
C 116.726158 145.213336 117.422797 145.501894 118.149086 145.501894 
z
" clip-path="url(#pc39158b677)" style="fill: #882255; fill-opacity: 0.8; stroke: #ffffff; stroke-opacity: 0.8; stroke-width: 0.5"/>
    <path d="M 86.913579 159.887627 
L 88.282886 158.51832 
L 89.652192 159.887627 
L 91.021499 158.51832 
L 89.652192 157.149014 
L 91.021499 155.779707 
L 89.652192 154.410401 
L 88.282886 155.779707 
L 86.913579 154.410401 
L 85.544273 155.779707 
L 86.913579 157.149014 
L 85.544273 158.51832 
z
" clip-path="url(#pc39158b677)" style="fill: #882255; fill-opacity: 0.8; stroke: #ffffff; stroke-opacity: 0.8; stroke-width: 0.5"/>
    <path d="M 86.547871 159.887627 
L 87.917177 158.51832 
L 89.286484 159.887627 
L 90.65579 158.51832 
L 89.286484 157.149014 
L 90.65579 155.779707 
L 89.286484 154.410401 
L 87.917177 155.779707 
L 86.547871 154.410401 
L 85.178564 155.779707 
L 86.547871 157.149014 
L 85.178564 158.51832 
z
" clip-path="url(#pc39158b677)" style="fill: #882255; fill-opacity: 0.8; stroke: #ffffff; stroke-opacity: 0.8; stroke-width: 0.5"/>
    <path d="M 87.726265 159.887627 
L 89.095571 158.51832 
L 90.464878 159.887627 
L 91.834184 158.51832 
L 90.464878 157.149014 
L 91.834184 155.779707 
L 90.464878 154.410401 
L 89.095571 155.779707 
L 87.726265 154.410401 
L 86.356959 155.779707 
L 87.726265 157.149014 
L 86.356959 158.51832 
z
" clip-path="url(#pc39158b677)" style="fill: #882255; fill-opacity: 0.8; stroke: #ffffff; stroke-opacity: 0.8; stroke-width: 0.5"/>
    <path d="M 199.470551 121.940158 
L 200.839857 120.570852 
L 202.209164 121.940158 
L 203.57847 120.570852 
L 202.209164 119.201545 
L 203.57847 117.832239 
L 202.209164 116.462932 
L 200.839857 117.832239 
L 199.470551 116.462932 
L 198.101244 117.832239 
L 199.470551 119.201545 
L 198.101244 120.570852 
z
" clip-path="url(#pc39158b677)" style="fill: #882255; fill-opacity: 0.8; stroke: #ffffff; stroke-opacity: 0.8; stroke-width: 0.5"/>
    <path d="M 199.876894 121.940158 
L 201.2462 120.570852 
L 202.615506 121.940158 
L 203.984813 120.570852 
L 202.615506 119.201545 
L 203.984813 117.832239 
L 202.615506 116.462932 
L 201.2462 117.832239 
L 199.876894 116.462932 
L 198.507587 117.832239 
L 199.876894 119.201545 
L 198.507587 120.570852 
z
" clip-path="url(#pc39158b677)" style="fill: #882255; fill-opacity: 0.8; stroke: #ffffff; stroke-opacity: 0.8; stroke-width: 0.5"/>
    <path d="M 194.391265 121.940158 
L 195.760571 120.570852 
L 197.129878 121.940158 
L 198.499184 120.570852 
L 197.129878 119.201545 
L 198.499184 117.832239 
L 197.129878 116.462932 
L 195.760571 117.832239 
L 194.391265 116.462932 
L 193.021959 117.832239 
L 194.391265 119.201545 
L 193.021959 120.570852 
z
" clip-path="url(#pc39158b677)" style="fill: #882255; fill-opacity: 0.8; stroke: #ffffff; stroke-opacity: 0.8; stroke-width: 0.5"/>
    <path d="M 156.154402 33.870014 
L 157.523709 32.500708 
L 158.893015 33.870014 
L 160.262321 32.500708 
L 158.893015 31.131402 
L 160.262321 29.762095 
L 158.893015 28.392789 
L 157.523709 29.762095 
L 156.154402 28.392789 
L 154.785096 29.762095 
L 156.154402 31.131402 
L 154.785096 32.500708 
z
" clip-path="url(#pc39158b677)" style="fill: #882255; fill-opacity: 0.8; stroke: #ffffff; stroke-opacity: 0.8; stroke-width: 0.5"/>
    <path d="M 161.721299 33.870014 
L 163.090606 32.500708 
L 164.459912 33.870014 
L 165.829219 32.500708 
L 164.459912 31.131402 
L 165.829219 29.762095 
L 164.459912 28.392789 
L 163.090606 29.762095 
L 161.721299 28.392789 
L 160.351993 29.762095 
L 161.721299 31.131402 
L 160.351993 32.500708 
z
" clip-path="url(#pc39158b677)" style="fill: #882255; fill-opacity: 0.8; stroke: #ffffff; stroke-opacity: 0.8; stroke-width: 0.5"/>
    <path d="M 165.134579 33.870014 
L 166.503886 32.500708 
L 167.873192 33.870014 
L 169.242499 32.500708 
L 167.873192 31.131402 
L 169.242499 29.762095 
L 167.873192 28.392789 
L 166.503886 29.762095 
L 165.134579 28.392789 
L 163.765273 29.762095 
L 165.134579 31.131402 
L 163.765273 32.500708 
z
" clip-path="url(#pc39158b677)" style="fill: #882255; fill-opacity: 0.8; stroke: #ffffff; stroke-opacity: 0.8; stroke-width: 0.5"/>
    <path d="M 63.883398 170.155689 
L 65.70914 170.155689 
L 65.70914 168.329947 
L 67.534881 168.329947 
L 67.534881 166.504205 
L 65.70914 166.504205 
L 65.70914 164.678464 
L 63.883398 164.678464 
L 63.883398 166.504205 
L 62.057656 166.504205 
L 62.057656 168.329947 
L 63.883398 168.329947 
z
" clip-path="url(#pc39158b677)" style="fill: #cc6677; fill-opacity: 0.8; stroke: #ffffff; stroke-opacity: 0.8; stroke-width: 0.5"/>
    <path d="M 64.0053 170.155689 
L 65.831042 170.155689 
L 65.831042 168.329947 
L 67.656784 168.329947 
L 67.656784 166.504205 
L 65.831042 166.504205 
L 65.831042 164.678464 
L 64.0053 164.678464 
L 64.0053 166.504205 
L 62.179559 166.504205 
L 62.179559 168.329947 
L 64.0053 168.329947 
z
" clip-path="url(#pc39158b677)" style="fill: #cc6677; fill-opacity: 0.8; stroke: #ffffff; stroke-opacity: 0.8; stroke-width: 0.5"/>
    <path d="M 64.0053 170.155689 
L 65.831042 170.155689 
L 65.831042 168.329947 
L 67.656784 168.329947 
L 67.656784 166.504205 
L 65.831042 166.504205 
L 65.831042 164.678464 
L 64.0053 164.678464 
L 64.0053 166.504205 
L 62.179559 166.504205 
L 62.179559 168.329947 
L 64.0053 168.329947 
z
" clip-path="url(#pc39158b677)" style="fill: #cc6677; fill-opacity: 0.8; stroke: #ffffff; stroke-opacity: 0.8; stroke-width: 0.5"/>
    <path d="M 65.833843 169.969669 
L 67.659585 169.969669 
L 67.659585 168.143927 
L 69.485327 168.143927 
L 69.485327 166.318186 
L 67.659585 166.318186 
L 67.659585 164.492444 
L 65.833843 164.492444 
L 65.833843 166.318186 
L 64.008101 166.318186 
L 64.008101 168.143927 
L 65.833843 168.143927 
z
" clip-path="url(#pc39158b677)" style="fill: #cc6677; fill-opacity: 0.8; stroke: #ffffff; stroke-opacity: 0.8; stroke-width: 0.5"/>
    <path d="M 64.249106 169.969669 
L 66.074848 169.969669 
L 66.074848 168.143927 
L 67.90059 168.143927 
L 67.90059 166.318186 
L 66.074848 166.318186 
L 66.074848 164.492444 
L 64.249106 164.492444 
L 64.249106 166.318186 
L 62.423364 166.318186 
L 62.423364 168.143927 
L 64.249106 168.143927 
z
" clip-path="url(#pc39158b677)" style="fill: #cc6677; fill-opacity: 0.8; stroke: #ffffff; stroke-opacity: 0.8; stroke-width: 0.5"/>
    <path d="M 64.411643 169.969669 
L 66.237385 169.969669 
L 66.237385 168.143927 
L 68.063127 168.143927 
L 68.063127 166.318186 
L 66.237385 166.318186 
L 66.237385 164.492444 
L 64.411643 164.492444 
L 64.411643 166.318186 
L 62.585901 166.318186 
L 62.585901 168.143927 
L 64.411643 168.143927 
z
" clip-path="url(#pc39158b677)" style="fill: #cc6677; fill-opacity: 0.8; stroke: #ffffff; stroke-opacity: 0.8; stroke-width: 0.5"/>
    <path d="M 66.077649 169.773087 
L 67.903391 169.773087 
L 67.903391 167.947345 
L 69.729133 167.947345 
L 69.729133 166.121603 
L 67.903391 166.121603 
L 67.903391 164.295861 
L 66.077649 164.295861 
L 66.077649 166.121603 
L 64.251907 166.121603 
L 64.251907 167.947345 
L 66.077649 167.947345 
z
" clip-path="url(#pc39158b677)" style="fill: #cc6677; fill-opacity: 0.8; stroke: #ffffff; stroke-opacity: 0.8; stroke-width: 0.5"/>
    <path d="M 66.483992 169.773087 
L 68.309734 169.773087 
L 68.309734 167.947345 
L 70.135476 167.947345 
L 70.135476 166.121603 
L 68.309734 166.121603 
L 68.309734 164.295861 
L 66.483992 164.295861 
L 66.483992 166.121603 
L 64.65825 166.121603 
L 64.65825 167.947345 
L 66.483992 167.947345 
z
" clip-path="url(#pc39158b677)" style="fill: #cc6677; fill-opacity: 0.8; stroke: #ffffff; stroke-opacity: 0.8; stroke-width: 0.5"/>
    <path d="M 65.508769 169.773087 
L 67.334511 169.773087 
L 67.334511 167.947345 
L 69.160253 167.947345 
L 69.160253 166.121603 
L 67.334511 166.121603 
L 67.334511 164.295861 
L 65.508769 164.295861 
L 65.508769 166.121603 
L 63.683027 166.121603 
L 63.683027 167.947345 
L 65.508769 167.947345 
z
" clip-path="url(#pc39158b677)" style="fill: #cc6677; fill-opacity: 0.8; stroke: #ffffff; stroke-opacity: 0.8; stroke-width: 0.5"/>
    <path d="M 70.052045 165.026391 
L 70.052045 168.899374 
L 73.925029 168.899374 
L 73.925029 165.026391 
z
" clip-path="url(#pc39158b677)" style="fill: #cc6677; fill-opacity: 0.8; stroke: #ffffff; stroke-opacity: 0.8; stroke-width: 0.5"/>
    <path d="M 71.189805 165.026391 
L 71.189805 168.899374 
L 75.062789 168.899374 
L 75.062789 165.026391 
z
" clip-path="url(#pc39158b677)" style="fill: #cc6677; fill-opacity: 0.8; stroke: #ffffff; stroke-opacity: 0.8; stroke-width: 0.5"/>
    <path d="M 71.392977 165.026391 
L 71.392977 168.899374 
L 75.26596 168.899374 
L 75.26596 165.026391 
z
" clip-path="url(#pc39158b677)" style="fill: #cc6677; fill-opacity: 0.8; stroke: #ffffff; stroke-opacity: 0.8; stroke-width: 0.5"/>
    <path d="M 67.167011 166.661253 
L 67.167011 170.534237 
L 71.039995 170.534237 
L 71.039995 166.661253 
z
" clip-path="url(#pc39158b677)" style="fill: #cc6677; fill-opacity: 0.8; stroke: #ffffff; stroke-opacity: 0.8; stroke-width: 0.5"/>
    <path d="M 65.501005 166.661253 
L 65.501005 170.534237 
L 69.373989 170.534237 
L 69.373989 166.661253 
z
" clip-path="url(#pc39158b677)" style="fill: #cc6677; fill-opacity: 0.8; stroke: #ffffff; stroke-opacity: 0.8; stroke-width: 0.5"/>
    <path d="M 67.045108 166.661253 
L 67.045108 170.534237 
L 70.918092 170.534237 
L 70.918092 166.661253 
z
" clip-path="url(#pc39158b677)" style="fill: #cc6677; fill-opacity: 0.8; stroke: #ffffff; stroke-opacity: 0.8; stroke-width: 0.5"/>
    <path d="M 67.573354 164.683692 
L 67.573354 168.556675 
L 71.446337 168.556675 
L 71.446337 164.683692 
z
" clip-path="url(#pc39158b677)" style="fill: #cc6677; fill-opacity: 0.8; stroke: #ffffff; stroke-opacity: 0.8; stroke-width: 0.5"/>
    <path d="M 65.866714 164.683692 
L 65.866714 168.556675 
L 69.739697 168.556675 
L 69.739697 164.683692 
z
" clip-path="url(#pc39158b677)" style="fill: #cc6677; fill-opacity: 0.8; stroke: #ffffff; stroke-opacity: 0.8; stroke-width: 0.5"/>
    <path d="M 66.6794 164.683692 
L 66.6794 168.556675 
L 70.552383 168.556675 
L 70.552383 164.683692 
z
" clip-path="url(#pc39158b677)" style="fill: #cc6677; fill-opacity: 0.8; stroke: #ffffff; stroke-opacity: 0.8; stroke-width: 0.5"/>
    <path d="M 61.098549 166.98288 
L 58.359936 169.721493 
L 61.098549 172.460106 
L 63.837161 169.721493 
z
" clip-path="url(#pc39158b677)" style="fill: #44aa99; fill-opacity: 0.8; stroke: #ffffff; stroke-opacity: 0.8; stroke-width: 0.5"/>
    <path d="M 62.845823 166.98288 
L 60.10721 169.721493 
L 62.845823 172.460106 
L 65.584436 169.721493 
z
" clip-path="url(#pc39158b677)" style="fill: #44aa99; fill-opacity: 0.8; stroke: #ffffff; stroke-opacity: 0.8; stroke-width: 0.5"/>
    <path d="M 60.367131 166.98288 
L 57.628519 169.721493 
L 60.367131 172.460106 
L 63.105744 169.721493 
z
" clip-path="url(#pc39158b677)" style="fill: #44aa99; fill-opacity: 0.8; stroke: #ffffff; stroke-opacity: 0.8; stroke-width: 0.5"/>
    <path d="M 60.976646 166.959408 
L 58.238033 169.69802 
L 60.976646 172.436633 
L 63.715259 169.69802 
z
" clip-path="url(#pc39158b677)" style="fill: #44aa99; fill-opacity: 0.8; stroke: #ffffff; stroke-opacity: 0.8; stroke-width: 0.5"/>
    <path d="M 61.30172 166.959408 
L 58.563107 169.69802 
L 61.30172 172.436633 
L 64.040333 169.69802 
z
" clip-path="url(#pc39158b677)" style="fill: #44aa99; fill-opacity: 0.8; stroke: #ffffff; stroke-opacity: 0.8; stroke-width: 0.5"/>
    <path d="M 62.72392 166.959408 
L 59.985307 169.69802 
L 62.72392 172.436633 
L 65.462533 169.69802 
z
" clip-path="url(#pc39158b677)" style="fill: #44aa99; fill-opacity: 0.8; stroke: #ffffff; stroke-opacity: 0.8; stroke-width: 0.5"/>
    <path d="M 67.478131 165.153782 
L 64.739519 167.892395 
L 67.478131 170.631008 
L 70.216744 167.892395 
z
" clip-path="url(#pc39158b677)" style="fill: #44aa99; fill-opacity: 0.8; stroke: #ffffff; stroke-opacity: 0.8; stroke-width: 0.5"/>
    <path d="M 65.893394 165.153782 
L 63.154781 167.892395 
L 65.893394 170.631008 
L 68.632007 167.892395 
z
" clip-path="url(#pc39158b677)" style="fill: #44aa99; fill-opacity: 0.8; stroke: #ffffff; stroke-opacity: 0.8; stroke-width: 0.5"/>
    <path d="M 65.730857 165.153782 
L 62.992244 167.892395 
L 65.730857 170.631008 
L 68.46947 167.892395 
z
" clip-path="url(#pc39158b677)" style="fill: #44aa99; fill-opacity: 0.8; stroke: #ffffff; stroke-opacity: 0.8; stroke-width: 0.5"/>
    <path d="M 63.414703 165.447776 
L 62.446457 167.218143 
L 60.67609 168.186389 
L 62.446457 169.154635 
L 63.414703 170.925002 
L 64.382949 169.154635 
L 66.153316 168.186389 
L 64.382949 167.218143 
z
" clip-path="url(#pc39158b677)" style="fill: #44aa99; fill-opacity: 0.8; stroke: #ffffff; stroke-opacity: 0.8; stroke-width: 0.5"/>
    <path d="M 62.927091 165.447776 
L 61.958846 167.218143 
L 60.188479 168.186389 
L 61.958846 169.154635 
L 62.927091 170.925002 
L 63.895337 169.154635 
L 65.665704 168.186389 
L 63.895337 167.218143 
z
" clip-path="url(#pc39158b677)" style="fill: #44aa99; fill-opacity: 0.8; stroke: #ffffff; stroke-opacity: 0.8; stroke-width: 0.5"/>
    <path d="M 63.048994 165.447776 
L 62.080748 167.218143 
L 60.310381 168.186389 
L 62.080748 169.154635 
L 63.048994 170.925002 
L 64.01724 169.154635 
L 65.787607 168.186389 
L 64.01724 167.218143 
z
" clip-path="url(#pc39158b677)" style="fill: #44aa99; fill-opacity: 0.8; stroke: #ffffff; stroke-opacity: 0.8; stroke-width: 0.5"/>
    <path d="M 63.455337 166.447706 
L 62.487091 168.218073 
L 60.716724 169.186319 
L 62.487091 170.154565 
L 63.455337 171.924932 
L 64.423583 170.154565 
L 66.19395 169.186319 
L 64.423583 168.218073 
z
" clip-path="url(#pc39158b677)" style="fill: #44aa99; fill-opacity: 0.8; stroke: #ffffff; stroke-opacity: 0.8; stroke-width: 0.5"/>
    <path d="M 62.683286 166.447706 
L 61.71504 168.218073 
L 59.944673 169.186319 
L 61.71504 170.154565 
L 62.683286 171.924932 
L 63.651532 170.154565 
L 65.421899 169.186319 
L 63.651532 168.218073 
z
" clip-path="url(#pc39158b677)" style="fill: #44aa99; fill-opacity: 0.8; stroke: #ffffff; stroke-opacity: 0.8; stroke-width: 0.5"/>
    <path d="M 63.089629 166.447706 
L 62.121383 168.218073 
L 60.351016 169.186319 
L 62.121383 170.154565 
L 63.089629 171.924932 
L 64.057874 170.154565 
L 65.828241 169.186319 
L 64.057874 168.218073 
z
" clip-path="url(#pc39158b677)" style="fill: #44aa99; fill-opacity: 0.8; stroke: #ffffff; stroke-opacity: 0.8; stroke-width: 0.5"/>
    <path d="M 60.16396 167.214085 
L 59.195714 168.984452 
L 57.425347 169.952697 
L 59.195714 170.920943 
L 60.16396 172.69131 
L 61.132206 170.920943 
L 62.902573 169.952697 
L 61.132206 168.984452 
z
" clip-path="url(#pc39158b677)" style="fill: #44aa99; fill-opacity: 0.8; stroke: #ffffff; stroke-opacity: 0.8; stroke-width: 0.5"/>
    <path d="M 60.570303 167.214085 
L 59.602057 168.984452 
L 57.83169 169.952697 
L 59.602057 170.920943 
L 60.570303 172.69131 
L 61.538549 170.920943 
L 63.308916 169.952697 
L 61.538549 168.984452 
z
" clip-path="url(#pc39158b677)" style="fill: #44aa99; fill-opacity: 0.8; stroke: #ffffff; stroke-opacity: 0.8; stroke-width: 0.5"/>
    <path d="M 61.139183 167.214085 
L 60.170937 168.984452 
L 58.40057 169.952697 
L 60.170937 170.920943 
L 61.139183 172.69131 
L 62.107429 170.920943 
L 63.877796 169.952697 
L 62.107429 168.984452 
z
" clip-path="url(#pc39158b677)" style="fill: #44aa99; fill-opacity: 0.8; stroke: #ffffff; stroke-opacity: 0.8; stroke-width: 0.5"/>
    <path d="M 60.570303 172.554208 
L 63.308916 167.076982 
L 57.83169 167.076982 
z
" clip-path="url(#pc39158b677)" style="fill: #88ccee; fill-opacity: 0.8; stroke: #ffffff; stroke-opacity: 0.8; stroke-width: 0.5"/>
    <path d="M 102.423617 158.408871 
C 103.149906 158.408871 103.846545 158.120314 104.360109 157.60675 
C 104.873672 157.093186 105.16223 156.396547 105.16223 155.670258 
C 105.16223 154.94397 104.873672 154.24733 104.360109 153.733767 
C 103.846545 153.220203 103.149906 152.931646 102.423617 152.931646 
C 101.697329 152.931646 101.000689 153.220203 100.487125 153.733767 
C 99.973562 154.24733 99.685004 154.94397 99.685004 155.670258 
C 99.685004 156.396547 99.973562 157.093186 100.487125 157.60675 
C 101.000689 158.120314 101.697329 158.408871 102.423617 158.408871 
z
" clip-path="url(#pc39158b677)" style="fill: #882255; fill-opacity: 0.8; stroke: #ffffff; stroke-opacity: 0.8; stroke-width: 0.5"/>
    <path d="M 122.17188 150.809601 
C 122.898169 150.809601 123.594808 150.521043 124.108372 150.00748 
C 124.621935 149.493916 124.910493 148.797277 124.910493 148.070988 
C 124.910493 147.344699 124.621935 146.64806 124.108372 146.134496 
C 123.594808 145.620933 122.898169 145.332375 122.17188 145.332375 
C 121.445591 145.332375 120.748952 145.620933 120.235388 146.134496 
C 119.721825 146.64806 119.433267 147.344699 119.433267 148.070988 
C 119.433267 148.797277 119.721825 149.493916 120.235388 150.00748 
C 120.748952 150.521043 121.445591 150.809601 122.17188 150.809601 
z
" clip-path="url(#pc39158b677)" style="fill: #882255; fill-opacity: 0.8; stroke: #ffffff; stroke-opacity: 0.8; stroke-width: 0.5"/>
    <path d="M 96.044034 164.982358 
C 96.770323 164.982358 97.466962 164.693801 97.980526 164.180237 
C 98.49409 163.666674 98.782647 162.970034 98.782647 162.243745 
C 98.782647 161.517457 98.49409 160.820817 97.980526 160.307254 
C 97.466962 159.79369 96.770323 159.505133 96.044034 159.505133 
C 95.317746 159.505133 94.621106 159.79369 94.107543 160.307254 
C 93.593979 160.820817 93.305421 161.517457 93.305421 162.243745 
C 93.305421 162.970034 93.593979 163.666674 94.107543 164.180237 
C 94.621106 164.693801 95.317746 164.982358 96.044034 164.982358 
z
" clip-path="url(#pc39158b677)" style="fill: #882255; fill-opacity: 0.8; stroke: #ffffff; stroke-opacity: 0.8; stroke-width: 0.5"/>
    <path d="M 82.606345 167.174144 
L 83.975651 165.804837 
L 85.344958 167.174144 
L 86.714264 165.804837 
L 85.344958 164.435531 
L 86.714264 163.066225 
L 85.344958 161.696918 
L 83.975651 163.066225 
L 82.606345 161.696918 
L 81.237039 163.066225 
L 82.606345 164.435531 
L 81.237039 165.804837 
z
" clip-path="url(#pc39158b677)" style="fill: #882255; fill-opacity: 0.8; stroke: #ffffff; stroke-opacity: 0.8; stroke-width: 0.5"/>
    <path d="M 116.373436 141.178707 
L 117.742743 139.8094 
L 119.112049 141.178707 
L 120.481356 139.8094 
L 119.112049 138.440094 
L 120.481356 137.070788 
L 119.112049 135.701481 
L 117.742743 137.070788 
L 116.373436 135.701481 
L 115.00413 137.070788 
L 116.373436 138.440094 
L 115.00413 139.8094 
z
" clip-path="url(#pc39158b677)" style="fill: #882255; fill-opacity: 0.8; stroke: #ffffff; stroke-opacity: 0.8; stroke-width: 0.5"/>
    <path d="M 93.658871 164.626512 
L 95.028177 163.257206 
L 96.397484 164.626512 
L 97.76679 163.257206 
L 96.397484 161.8879 
L 97.76679 160.518593 
L 96.397484 159.149287 
L 95.028177 160.518593 
L 93.658871 159.149287 
L 92.289564 160.518593 
L 93.658871 161.8879 
L 92.289564 163.257206 
z
" clip-path="url(#pc39158b677)" style="fill: #882255; fill-opacity: 0.8; stroke: #ffffff; stroke-opacity: 0.8; stroke-width: 0.5"/>
    <path d="M 65.549403 170.736964 
L 67.375145 170.736964 
L 67.375145 168.911222 
L 69.200887 168.911222 
L 69.200887 167.08548 
L 67.375145 167.08548 
L 67.375145 165.259738 
L 65.549403 165.259738 
L 65.549403 167.08548 
L 63.723661 167.08548 
L 63.723661 168.911222 
L 65.549403 168.911222 
z
" clip-path="url(#pc39158b677)" style="fill: #cc6677; fill-opacity: 0.8; stroke: #ffffff; stroke-opacity: 0.8; stroke-width: 0.5"/>
    <path d="M 65.224329 170.647223 
L 67.050071 170.647223 
L 67.050071 168.821482 
L 68.875813 168.821482 
L 68.875813 166.99574 
L 67.050071 166.99574 
L 67.050071 165.169998 
L 65.224329 165.169998 
L 65.224329 166.99574 
L 63.398587 166.99574 
L 63.398587 168.821482 
L 65.224329 168.821482 
z
" clip-path="url(#pc39158b677)" style="fill: #cc6677; fill-opacity: 0.8; stroke: #ffffff; stroke-opacity: 0.8; stroke-width: 0.5"/>
    <path d="M 65.264963 171.275407 
L 67.090705 171.275407 
L 67.090705 169.449665 
L 68.916447 169.449665 
L 68.916447 167.623923 
L 67.090705 167.623923 
L 67.090705 165.798181 
L 65.264963 165.798181 
L 65.264963 167.623923 
L 63.439221 167.623923 
L 63.439221 169.449665 
L 65.264963 169.449665 
z
" clip-path="url(#pc39158b677)" style="fill: #cc6677; fill-opacity: 0.8; stroke: #ffffff; stroke-opacity: 0.8; stroke-width: 0.5"/>
    <path d="M 73.180885 160.20131 
L 73.180885 164.074294 
L 77.053869 164.074294 
L 77.053869 160.20131 
z
" clip-path="url(#pc39158b677)" style="fill: #cc6677; fill-opacity: 0.8; stroke: #ffffff; stroke-opacity: 0.8; stroke-width: 0.5"/>
    <path d="M 66.191788 165.120208 
L 66.191788 168.993191 
L 70.064772 168.993191 
L 70.064772 165.120208 
z
" clip-path="url(#pc39158b677)" style="fill: #cc6677; fill-opacity: 0.8; stroke: #ffffff; stroke-opacity: 0.8; stroke-width: 0.5"/>
    <path d="M 70.864731 163.570316 
L 70.864731 167.443299 
L 74.737715 167.443299 
L 74.737715 163.570316 
z
" clip-path="url(#pc39158b677)" style="fill: #cc6677; fill-opacity: 0.8; stroke: #ffffff; stroke-opacity: 0.8; stroke-width: 0.5"/>
    <path d="M 60.367131 167.202245 
L 57.628519 169.940858 
L 60.367131 172.67947 
L 63.105744 169.940858 
z
" clip-path="url(#pc39158b677)" style="fill: #44aa99; fill-opacity: 0.8; stroke: #ffffff; stroke-opacity: 0.8; stroke-width: 0.5"/>
    <path d="M 61.748697 167.083837 
L 59.010084 169.82245 
L 61.748697 172.561063 
L 64.48731 169.82245 
z
" clip-path="url(#pc39158b677)" style="fill: #44aa99; fill-opacity: 0.8; stroke: #ffffff; stroke-opacity: 0.8; stroke-width: 0.5"/>
    <path d="M 101.814103 154.557432 
C 102.540391 154.557432 103.237031 154.268875 103.750595 153.755311 
C 104.264158 153.241747 104.552716 152.545108 104.552716 151.818819 
C 104.552716 151.092531 104.264158 150.395891 103.750595 149.882328 
C 103.237031 149.368764 102.540391 149.080206 101.814103 149.080206 
C 101.087814 149.080206 100.391175 149.368764 99.877611 149.882328 
C 99.364048 150.395891 99.07549 151.092531 99.07549 151.818819 
C 99.07549 152.545108 99.364048 153.241747 99.877611 153.755311 
C 100.391175 154.268875 101.087814 154.557432 101.814103 154.557432 
z
" clip-path="url(#pc39158b677)" style="fill: #882255; fill-opacity: 0.8; stroke: #ffffff; stroke-opacity: 0.8; stroke-width: 0.5"/>
    <path d="M 63.183156 171.557338 
L 64.552463 170.188032 
L 65.921769 171.557338 
L 67.291076 170.188032 
L 65.921769 168.818725 
L 67.291076 167.449419 
L 65.921769 166.080112 
L 64.552463 167.449419 
L 63.183156 166.080112 
L 61.81385 167.449419 
L 63.183156 168.818725 
L 61.81385 170.188032 
z
" clip-path="url(#pc39158b677)" style="fill: #882255; fill-opacity: 0.8; stroke: #ffffff; stroke-opacity: 0.8; stroke-width: 0.5"/>
    <path d="M 63.355152 171.364157 
L 65.180894 171.364157 
L 65.180894 169.538415 
L 67.006636 169.538415 
L 67.006636 167.712673 
L 65.180894 167.712673 
L 65.180894 165.886932 
L 63.355152 165.886932 
L 63.355152 167.712673 
L 61.52941 167.712673 
L 61.52941 169.538415 
L 63.355152 169.538415 
z
" clip-path="url(#pc39158b677)" style="fill: #cc6677; fill-opacity: 0.8; stroke: #ffffff; stroke-opacity: 0.8; stroke-width: 0.5"/>
    <path d="M 65.82608 165.133887 
L 65.82608 169.00687 
L 69.699063 169.00687 
L 69.699063 165.133887 
z
" clip-path="url(#pc39158b677)" style="fill: #cc6677; fill-opacity: 0.8; stroke: #ffffff; stroke-opacity: 0.8; stroke-width: 0.5"/>
    <path d="M 87.4702 159.43798 
C 88.196489 159.43798 88.893128 159.149422 89.406692 158.635859 
C 89.920255 158.122295 90.208813 157.425655 90.208813 156.699367 
C 90.208813 155.973078 89.920255 155.276439 89.406692 154.762875 
C 88.893128 154.249312 88.196489 153.960754 87.4702 153.960754 
C 86.743911 153.960754 86.047272 154.249312 85.533708 154.762875 
C 85.020145 155.276439 84.731587 155.973078 84.731587 156.699367 
C 84.731587 157.425655 85.020145 158.122295 85.533708 158.635859 
C 86.047272 159.149422 86.743911 159.43798 87.4702 159.43798 
z
" clip-path="url(#pc39158b677)" style="fill: #882255; fill-opacity: 0.8; stroke: #ffffff; stroke-opacity: 0.8; stroke-width: 0.5"/>
    <path d="M 66.393265 172.548149 
L 67.762571 171.178842 
L 69.131878 172.548149 
L 70.501184 171.178842 
L 69.131878 169.809536 
L 70.501184 168.440229 
L 69.131878 167.070923 
L 67.762571 168.440229 
L 66.393265 167.070923 
L 65.023959 168.440229 
L 66.393265 169.809536 
L 65.023959 171.178842 
z
" clip-path="url(#pc39158b677)" style="fill: #882255; fill-opacity: 0.8; stroke: #ffffff; stroke-opacity: 0.8; stroke-width: 0.5"/>
    <path d="M 63.15198 172.017205 
L 64.977722 172.017205 
L 64.977722 170.191463 
L 66.803464 170.191463 
L 66.803464 168.365722 
L 64.977722 168.365722 
L 64.977722 166.53998 
L 63.15198 166.53998 
L 63.15198 168.365722 
L 61.326239 168.365722 
L 61.326239 170.191463 
L 63.15198 170.191463 
z
" clip-path="url(#pc39158b677)" style="fill: #cc6677; fill-opacity: 0.8; stroke: #ffffff; stroke-opacity: 0.8; stroke-width: 0.5"/>
    <path d="M 62.737874 166.881626 
L 62.737874 170.754609 
L 66.610857 170.754609 
L 66.610857 166.881626 
z
" clip-path="url(#pc39158b677)" style="fill: #cc6677; fill-opacity: 0.8; stroke: #ffffff; stroke-opacity: 0.8; stroke-width: 0.5"/>
    <path d="M 92.265046 162.952897 
C 92.991334 162.952897 93.687974 162.66434 94.201537 162.150776 
C 94.715101 161.637213 95.003659 160.940573 95.003659 160.214284 
C 95.003659 159.487996 94.715101 158.791356 94.201537 158.277793 
C 93.687974 157.764229 92.991334 157.475672 92.265046 157.475672 
C 91.538757 157.475672 90.842118 157.764229 90.328554 158.277793 
C 89.81499 158.791356 89.526433 159.487996 89.526433 160.214284 
C 89.526433 160.940573 89.81499 161.637213 90.328554 162.150776 
C 90.842118 162.66434 91.538757 162.952897 92.265046 162.952897 
z
" clip-path="url(#pc39158b677)" style="fill: #882255; fill-opacity: 0.8; stroke: #ffffff; stroke-opacity: 0.8; stroke-width: 0.5"/>
    <path d="M 64.533546 170.995413 
L 66.359288 170.995413 
L 66.359288 169.169671 
L 68.18503 169.169671 
L 68.18503 167.343929 
L 66.359288 167.343929 
L 66.359288 165.518187 
L 64.533546 165.518187 
L 64.533546 167.343929 
L 62.707804 167.343929 
L 62.707804 169.169671 
L 64.533546 169.169671 
z
" clip-path="url(#pc39158b677)" style="fill: #cc6677; fill-opacity: 0.8; stroke: #ffffff; stroke-opacity: 0.8; stroke-width: 0.5"/>
    <path d="M 63.875634 167.02074 
L 63.875634 170.893724 
L 67.748617 170.893724 
L 67.748617 167.02074 
z
" clip-path="url(#pc39158b677)" style="fill: #cc6677; fill-opacity: 0.8; stroke: #ffffff; stroke-opacity: 0.8; stroke-width: 0.5"/>
    <path d="M 60.814109 167.20457 
L 58.075496 169.943183 
L 60.814109 172.681796 
L 63.552721 169.943183 
z
" clip-path="url(#pc39158b677)" style="fill: #44aa99; fill-opacity: 0.8; stroke: #ffffff; stroke-opacity: 0.8; stroke-width: 0.5"/>
    <path d="M 60.001423 172.727266 
L 62.740036 167.250041 
L 57.26281 167.250041 
z
" clip-path="url(#pc39158b677)" style="fill: #88ccee; fill-opacity: 0.8; stroke: #ffffff; stroke-opacity: 0.8; stroke-width: 0.5"/>
    <path d="M 96.57228 161.628158 
C 97.298569 161.628158 97.995208 161.3396 98.508772 160.826037 
C 99.022335 160.312473 99.310893 159.615834 99.310893 158.889545 
C 99.310893 158.163256 99.022335 157.466617 98.508772 156.953053 
C 97.995208 156.43949 97.298569 156.150932 96.57228 156.150932 
C 95.845991 156.150932 95.149352 156.43949 94.635788 156.953053 
C 94.122225 157.466617 93.833667 158.163256 93.833667 158.889545 
C 93.833667 159.615834 94.122225 160.312473 94.635788 160.826037 
C 95.149352 161.3396 95.845991 161.628158 96.57228 161.628158 
z
" clip-path="url(#pc39158b677)" style="fill: #882255; fill-opacity: 0.8; stroke: #ffffff; stroke-opacity: 0.8; stroke-width: 0.5"/>
    <path d="M 61.58616 167.277729 
L 58.847547 172.754955 
L 64.324773 172.754955 
z
" clip-path="url(#pc39158b677)" style="fill: #332288; fill-opacity: 0.8; stroke: #ffffff; stroke-opacity: 0.8; stroke-width: 0.5"/>
    <path d="M 57.658588 168.08901 
L 58.225774 170.025501 
L 57.658588 171.961993 
L 59.59508 171.394808 
L 61.531572 171.961993 
L 60.964386 170.025501 
L 61.531572 168.08901 
L 59.59508 168.656195 
z
" clip-path="url(#pc39158b677)" style="fill: #332288; fill-opacity: 0.8; stroke: #ffffff; stroke-opacity: 0.8; stroke-width: 0.5"/>
    <path d="M 62.207934 170.940398 
L 63.57724 169.571092 
L 64.946546 170.940398 
L 66.315853 169.571092 
L 64.946546 168.201786 
L 66.315853 166.832479 
L 64.946546 165.463173 
L 63.57724 166.832479 
L 62.207934 165.463173 
L 60.838627 166.832479 
L 62.207934 168.201786 
L 60.838627 169.571092 
z
" clip-path="url(#pc39158b677)" style="fill: #882255; fill-opacity: 0.8; stroke: #ffffff; stroke-opacity: 0.8; stroke-width: 0.5"/>
    <path d="M 61.079632 171.997476 
L 62.905374 171.997476 
L 62.905374 170.171734 
L 64.731116 170.171734 
L 64.731116 168.345993 
L 62.905374 168.345993 
L 62.905374 166.520251 
L 61.079632 166.520251 
L 61.079632 168.345993 
L 59.25389 168.345993 
L 59.25389 170.171734 
L 61.079632 170.171734 
z
" clip-path="url(#pc39158b677)" style="fill: #cc6677; fill-opacity: 0.8; stroke: #ffffff; stroke-opacity: 0.8; stroke-width: 0.5"/>
    <path d="M 66.11052 166.585778 
L 66.11052 170.458761 
L 69.983503 170.458761 
L 69.983503 166.585778 
z
" clip-path="url(#pc39158b677)" style="fill: #cc6677; fill-opacity: 0.8; stroke: #ffffff; stroke-opacity: 0.8; stroke-width: 0.5"/>
    <path d="M 59.59508 167.274065 
L 56.856467 170.012678 
L 59.59508 172.751291 
L 62.333693 170.012678 
z
" clip-path="url(#pc39158b677)" style="fill: #44aa99; fill-opacity: 0.8; stroke: #ffffff; stroke-opacity: 0.8; stroke-width: 0.5"/>
    <path d="M 59.59508 167.275583 
L 58.626834 169.04595 
L 56.856467 170.014196 
L 58.626834 170.982442 
L 59.59508 172.752809 
L 60.563326 170.982442 
L 62.333693 170.014196 
L 60.563326 169.04595 
z
" clip-path="url(#pc39158b677)" style="fill: #44aa99; fill-opacity: 0.8; stroke: #ffffff; stroke-opacity: 0.8; stroke-width: 0.5"/>
    <path d="M 59.229371 172.765056 
L 61.967984 167.287831 
L 56.490759 167.287831 
z
" clip-path="url(#pc39158b677)" style="fill: #88ccee; fill-opacity: 0.8; stroke: #ffffff; stroke-opacity: 0.8; stroke-width: 0.5"/>
    <path d="M 85.072777 167.110192 
C 85.799066 167.110192 86.495705 166.821635 87.009269 166.308071 
C 87.522832 165.794507 87.81139 165.097868 87.81139 164.371579 
C 87.81139 163.645291 87.522832 162.948651 87.009269 162.435088 
C 86.495705 161.921524 85.799066 161.632967 85.072777 161.632967 
C 84.346489 161.632967 83.649849 161.921524 83.136285 162.435088 
C 82.622722 162.948651 82.334164 163.645291 82.334164 164.371579 
C 82.334164 165.097868 82.622722 165.794507 83.136285 166.308071 
C 83.649849 166.821635 84.346489 167.110192 85.072777 167.110192 
z
" clip-path="url(#pc39158b677)" style="fill: #882255; fill-opacity: 0.8; stroke: #ffffff; stroke-opacity: 0.8; stroke-width: 0.5"/>
    <path d="M 63.048994 167.282806 
L 60.310381 172.760032 
L 65.787607 172.760032 
z
" clip-path="url(#pc39158b677)" style="fill: #332288; fill-opacity: 0.8; stroke: #ffffff; stroke-opacity: 0.8; stroke-width: 0.5"/>
    <path d="M 59.609034 168.082258 
L 60.176219 170.018749 
L 59.609034 171.955241 
L 61.545526 171.388056 
L 63.482017 171.955241 
L 62.914832 170.018749 
L 63.482017 168.082258 
L 61.545526 168.649443 
z
" clip-path="url(#pc39158b677)" style="fill: #332288; fill-opacity: 0.8; stroke: #ffffff; stroke-opacity: 0.8; stroke-width: 0.5"/>
    <path d="M 90.814471 166.607091 
L 92.183777 165.237784 
L 93.553084 166.607091 
L 94.92239 165.237784 
L 93.553084 163.868478 
L 94.92239 162.499172 
L 93.553084 161.129865 
L 92.183777 162.499172 
L 90.814471 161.129865 
L 89.445164 162.499172 
L 90.814471 163.868478 
L 89.445164 165.237784 
z
" clip-path="url(#pc39158b677)" style="fill: #882255; fill-opacity: 0.8; stroke: #ffffff; stroke-opacity: 0.8; stroke-width: 0.5"/>
    <path d="M 62.623735 172.307911 
L 64.449477 172.307911 
L 64.449477 170.482169 
L 66.275219 170.482169 
L 66.275219 168.656427 
L 64.449477 168.656427 
L 64.449477 166.830685 
L 62.623735 166.830685 
L 62.623735 168.656427 
L 60.797993 168.656427 
L 60.797993 170.482169 
L 62.623735 170.482169 
z
" clip-path="url(#pc39158b677)" style="fill: #cc6677; fill-opacity: 0.8; stroke: #ffffff; stroke-opacity: 0.8; stroke-width: 0.5"/>
    <path d="M 62.006457 167.51975 
L 62.006457 171.392733 
L 65.87944 171.392733 
L 65.87944 167.51975 
z
" clip-path="url(#pc39158b677)" style="fill: #cc6677; fill-opacity: 0.8; stroke: #ffffff; stroke-opacity: 0.8; stroke-width: 0.5"/>
    <path d="M 60.407766 167.278881 
L 57.669153 170.017493 
L 60.407766 172.756106 
L 63.146379 170.017493 
z
" clip-path="url(#pc39158b677)" style="fill: #44aa99; fill-opacity: 0.8; stroke: #ffffff; stroke-opacity: 0.8; stroke-width: 0.5"/>
    <path d="M 60.367131 172.765789 
L 63.105744 167.288564 
L 57.628519 167.288564 
z
" clip-path="url(#pc39158b677)" style="fill: #88ccee; fill-opacity: 0.8; stroke: #ffffff; stroke-opacity: 0.8; stroke-width: 0.5"/>
    <path d="M 94.418663 163.534729 
C 95.144951 163.534729 95.841591 163.246172 96.355155 162.732608 
C 96.868718 162.219045 97.157276 161.522405 97.157276 160.796116 
C 97.157276 160.069828 96.868718 159.373188 96.355155 158.859625 
C 95.841591 158.346061 95.144951 158.057504 94.418663 158.057504 
C 93.692374 158.057504 92.995735 158.346061 92.482171 158.859625 
C 91.968608 159.373188 91.68005 160.069828 91.68005 160.796116 
C 91.68005 161.522405 91.968608 162.219045 92.482171 162.732608 
C 92.995735 163.246172 93.692374 163.534729 94.418663 163.534729 
z
" clip-path="url(#pc39158b677)" style="fill: #882255; fill-opacity: 0.8; stroke: #ffffff; stroke-opacity: 0.8; stroke-width: 0.5"/>
    <path d="M 62.195674 167.286051 
L 59.457061 172.763277 
L 64.934287 172.763277 
z
" clip-path="url(#pc39158b677)" style="fill: #332288; fill-opacity: 0.8; stroke: #ffffff; stroke-opacity: 0.8; stroke-width: 0.5"/>
    <path d="M 57.29288 168.078437 
L 57.860065 170.014929 
L 57.29288 171.95142 
L 59.229371 171.384235 
L 61.165863 171.95142 
L 60.598678 170.014929 
L 61.165863 168.078437 
L 59.229371 168.645622 
z
" clip-path="url(#pc39158b677)" style="fill: #332288; fill-opacity: 0.8; stroke: #ffffff; stroke-opacity: 0.8; stroke-width: 0.5"/>
    <path d="M 72.041431 169.767333 
L 73.410737 168.398027 
L 74.780044 169.767333 
L 76.14935 168.398027 
L 74.780044 167.02872 
L 76.14935 165.659414 
L 74.780044 164.290107 
L 73.410737 165.659414 
L 72.041431 164.290107 
L 70.672124 165.659414 
L 72.041431 167.02872 
L 70.672124 168.398027 
z
" clip-path="url(#pc39158b677)" style="fill: #882255; fill-opacity: 0.8; stroke: #ffffff; stroke-opacity: 0.8; stroke-width: 0.5"/>
    <path d="M 61.44534 172.446666 
L 63.271082 172.446666 
L 63.271082 170.620925 
L 65.096824 170.620925 
L 65.096824 168.795183 
L 63.271082 168.795183 
L 63.271082 166.969441 
L 61.44534 166.969441 
L 61.44534 168.795183 
L 59.619599 168.795183 
L 59.619599 170.620925 
L 61.44534 170.620925 
z
" clip-path="url(#pc39158b677)" style="fill: #cc6677; fill-opacity: 0.8; stroke: #ffffff; stroke-opacity: 0.8; stroke-width: 0.5"/>
    <path d="M 63.184851 167.346082 
L 63.184851 171.219066 
L 67.057835 171.219066 
L 67.057835 167.346082 
z
" clip-path="url(#pc39158b677)" style="fill: #cc6677; fill-opacity: 0.8; stroke: #ffffff; stroke-opacity: 0.8; stroke-width: 0.5"/>
    <path d="M 61.179817 167.254594 
L 58.441204 169.993207 
L 61.179817 172.73182 
L 63.91843 169.993207 
z
" clip-path="url(#pc39158b677)" style="fill: #44aa99; fill-opacity: 0.8; stroke: #ffffff; stroke-opacity: 0.8; stroke-width: 0.5"/>
    <path d="M 59.960789 172.769881 
L 62.699401 167.292656 
L 57.222176 167.292656 
z
" clip-path="url(#pc39158b677)" style="fill: #88ccee; fill-opacity: 0.8; stroke: #ffffff; stroke-opacity: 0.8; stroke-width: 0.5"/>
    <path d="M 62.764554 168.578727 
C 63.490843 168.578727 64.187482 168.29017 64.701046 167.776606 
C 65.21461 167.263042 65.503167 166.566403 65.503167 165.840114 
C 65.503167 165.113826 65.21461 164.417186 64.701046 163.903623 
C 64.187482 163.390059 63.490843 163.101502 62.764554 163.101502 
C 62.038266 163.101502 61.341626 163.390059 60.828063 163.903623 
C 60.314499 164.417186 60.025941 165.113826 60.025941 165.840114 
C 60.025941 166.566403 60.314499 167.263042 60.828063 167.776606 
C 61.341626 168.29017 62.038266 168.578727 62.764554 168.578727 
z
" clip-path="url(#pc39158b677)" style="fill: #882255; fill-opacity: 0.8; stroke: #ffffff; stroke-opacity: 0.8; stroke-width: 0.5"/>
    <path d="M 62.276943 167.284325 
L 59.53833 172.761551 
L 65.015556 172.761551 
z
" clip-path="url(#pc39158b677)" style="fill: #332288; fill-opacity: 0.8; stroke: #ffffff; stroke-opacity: 0.8; stroke-width: 0.5"/>
    <path d="M 56.317657 167.942111 
L 56.884842 169.878603 
L 56.317657 171.815094 
L 58.254149 171.247909 
L 60.19064 171.815094 
L 59.623455 169.878603 
L 60.19064 167.942111 
L 58.254149 168.509296 
z
" clip-path="url(#pc39158b677)" style="fill: #332288; fill-opacity: 0.8; stroke: #ffffff; stroke-opacity: 0.8; stroke-width: 0.5"/>
    <path d="M 58.225774 172.644316 
L 59.59508 171.27501 
L 60.964386 172.644316 
L 62.333693 171.27501 
L 60.964386 169.905704 
L 62.333693 168.536397 
L 60.964386 167.167091 
L 59.59508 168.536397 
L 58.225774 167.167091 
L 56.856467 168.536397 
L 58.225774 169.905704 
L 56.856467 171.27501 
z
" clip-path="url(#pc39158b677)" style="fill: #882255; fill-opacity: 0.8; stroke: #ffffff; stroke-opacity: 0.8; stroke-width: 0.5"/>
    <path d="M 61.770415 172.674888 
L 63.596157 172.674888 
L 63.596157 170.849146 
L 65.421899 170.849146 
L 65.421899 169.023404 
L 63.596157 169.023404 
L 63.596157 167.197662 
L 61.770415 167.197662 
L 61.770415 169.023404 
L 59.944673 169.023404 
L 59.944673 170.849146 
L 61.770415 170.849146 
z
" clip-path="url(#pc39158b677)" style="fill: #cc6677; fill-opacity: 0.8; stroke: #ffffff; stroke-opacity: 0.8; stroke-width: 0.5"/>
    <path d="M 59.730937 166.987305 
L 59.730937 170.860288 
L 63.60392 170.860288 
L 63.60392 166.987305 
z
" clip-path="url(#pc39158b677)" style="fill: #cc6677; fill-opacity: 0.8; stroke: #ffffff; stroke-opacity: 0.8; stroke-width: 0.5"/>
    <path d="M 59.798251 167.279803 
L 57.059639 170.018416 
L 59.798251 172.757028 
L 62.536864 170.018416 
z
" clip-path="url(#pc39158b677)" style="fill: #44aa99; fill-opacity: 0.8; stroke: #ffffff; stroke-opacity: 0.8; stroke-width: 0.5"/>
    <path d="M 61.504891 167.293685 
L 60.536646 169.064052 
L 58.766279 170.032298 
L 60.536646 171.000544 
L 61.504891 172.770911 
L 62.473137 171.000544 
L 64.243504 170.032298 
L 62.473137 169.064052 
z
" clip-path="url(#pc39158b677)" style="fill: #44aa99; fill-opacity: 0.8; stroke: #ffffff; stroke-opacity: 0.8; stroke-width: 0.5"/>
    <path d="M 59.391909 172.770972 
L 62.130521 167.293747 
L 56.653296 167.293747 
z
" clip-path="url(#pc39158b677)" style="fill: #88ccee; fill-opacity: 0.8; stroke: #ffffff; stroke-opacity: 0.8; stroke-width: 0.5"/>
    <path d="M 61.504891 172.445133 
C 62.23118 172.445133 62.92782 172.156575 63.441383 171.643012 
C 63.954947 171.129448 64.243504 170.432808 64.243504 169.70652 
C 64.243504 168.980231 63.954947 168.283592 63.441383 167.770028 
C 62.92782 167.256465 62.23118 166.967907 61.504891 166.967907 
C 60.778603 166.967907 60.081963 167.256465 59.5684 167.770028 
C 59.054836 168.283592 58.766279 168.980231 58.766279 169.70652 
C 58.766279 170.432808 59.054836 171.129448 59.5684 171.643012 
C 60.081963 172.156575 60.778603 172.445133 61.504891 172.445133 
z
" clip-path="url(#pc39158b677)" style="fill: #882255; fill-opacity: 0.8; stroke: #ffffff; stroke-opacity: 0.8; stroke-width: 0.5"/>
    <path d="M 61.708063 167.289478 
L 58.96945 172.766703 
L 64.446676 172.766703 
z
" clip-path="url(#pc39158b677)" style="fill: #332288; fill-opacity: 0.8; stroke: #ffffff; stroke-opacity: 0.8; stroke-width: 0.5"/>
    <path d="M 58.593177 168.075326 
L 59.160362 170.011817 
L 58.593177 171.948309 
L 60.529669 171.381124 
L 62.46616 171.948309 
L 61.898975 170.011817 
L 62.46616 168.075326 
L 60.529669 168.642511 
z
" clip-path="url(#pc39158b677)" style="fill: #332288; fill-opacity: 0.8; stroke: #ffffff; stroke-opacity: 0.8; stroke-width: 0.5"/>
    <path d="M 59.769876 172.702281 
L 61.139183 171.332975 
L 62.508489 172.702281 
L 63.877796 171.332975 
L 62.508489 169.963668 
L 63.877796 168.594362 
L 62.508489 167.225055 
L 61.139183 168.594362 
L 59.769876 167.225055 
L 58.40057 168.594362 
L 59.769876 169.963668 
L 58.40057 171.332975 
z
" clip-path="url(#pc39158b677)" style="fill: #882255; fill-opacity: 0.8; stroke: #ffffff; stroke-opacity: 0.8; stroke-width: 0.5"/>
    <path d="M 62.29866 171.942193 
L 64.124402 171.942193 
L 64.124402 170.116451 
L 65.950144 170.116451 
L 65.950144 168.290709 
L 64.124402 168.290709 
L 64.124402 166.464967 
L 62.29866 166.464967 
L 62.29866 168.290709 
L 60.472919 168.290709 
L 60.472919 170.116451 
L 62.29866 170.116451 
z
" clip-path="url(#pc39158b677)" style="fill: #cc6677; fill-opacity: 0.8; stroke: #ffffff; stroke-opacity: 0.8; stroke-width: 0.5"/>
    <path d="M 60.177914 167.834878 
L 60.177914 171.707861 
L 64.050897 171.707861 
L 64.050897 167.834878 
z
" clip-path="url(#pc39158b677)" style="fill: #cc6677; fill-opacity: 0.8; stroke: #ffffff; stroke-opacity: 0.8; stroke-width: 0.5"/>
    <path d="M 61.098549 167.287633 
L 58.359936 170.026245 
L 61.098549 172.764858 
L 63.837161 170.026245 
z
" clip-path="url(#pc39158b677)" style="fill: #44aa99; fill-opacity: 0.8; stroke: #ffffff; stroke-opacity: 0.8; stroke-width: 0.5"/>
    <path d="M 58.416686 172.770337 
L 61.155299 167.293111 
L 55.678073 167.293111 
z
" clip-path="url(#pc39158b677)" style="fill: #88ccee; fill-opacity: 0.8; stroke: #ffffff; stroke-opacity: 0.8; stroke-width: 0.5"/>
    <path d="M 61.911234 171.421534 
C 62.637523 171.421534 63.334162 171.132977 63.847726 170.619413 
C 64.36129 170.105849 64.649847 169.40921 64.649847 168.682921 
C 64.649847 167.956633 64.36129 167.259993 63.847726 166.74643 
C 63.334162 166.232866 62.637523 165.944309 61.911234 165.944309 
C 61.184946 165.944309 60.488306 166.232866 59.974743 166.74643 
C 59.461179 167.259993 59.172621 167.956633 59.172621 168.682921 
C 59.172621 169.40921 59.461179 170.105849 59.974743 170.619413 
C 60.488306 171.132977 61.184946 171.421534 61.911234 171.421534 
z
" clip-path="url(#pc39158b677)" style="fill: #882255; fill-opacity: 0.8; stroke: #ffffff; stroke-opacity: 0.8; stroke-width: 0.5"/>
    <path d="M 63.821046 167.287492 
L 61.082433 172.764718 
L 66.559659 172.764718 
z
" clip-path="url(#pc39158b677)" style="fill: #332288; fill-opacity: 0.8; stroke: #ffffff; stroke-opacity: 0.8; stroke-width: 0.5"/>
    <path d="M 57.252245 168.092499 
L 57.819431 170.02899 
L 57.252245 171.965482 
L 59.188737 171.398297 
L 61.125229 171.965482 
L 60.558044 170.02899 
L 61.125229 168.092499 
L 59.188737 168.659684 
z
" clip-path="url(#pc39158b677)" style="fill: #332288; fill-opacity: 0.8; stroke: #ffffff; stroke-opacity: 0.8; stroke-width: 0.5"/>
    <path d="M 59.729242 172.711528 
L 61.098549 171.342222 
L 62.467855 172.711528 
L 63.837161 171.342222 
L 62.467855 169.972916 
L 63.837161 168.603609 
L 62.467855 167.234303 
L 61.098549 168.603609 
L 59.729242 167.234303 
L 58.359936 168.603609 
L 59.729242 169.972916 
L 58.359936 171.342222 
z
" clip-path="url(#pc39158b677)" style="fill: #882255; fill-opacity: 0.8; stroke: #ffffff; stroke-opacity: 0.8; stroke-width: 0.5"/>
    <path d="M 62.136123 172.014866 
L 63.961865 172.014866 
L 63.961865 170.189125 
L 65.787607 170.189125 
L 65.787607 168.363383 
L 63.961865 168.363383 
L 63.961865 166.537641 
L 62.136123 166.537641 
L 62.136123 168.363383 
L 60.310381 168.363383 
L 60.310381 170.189125 
L 62.136123 170.189125 
z
" clip-path="url(#pc39158b677)" style="fill: #cc6677; fill-opacity: 0.8; stroke: #ffffff; stroke-opacity: 0.8; stroke-width: 0.5"/>
    <path d="M 59.5684 167.974021 
L 59.5684 171.847005 
L 63.441383 171.847005 
L 63.441383 167.974021 
z
" clip-path="url(#pc39158b677)" style="fill: #cc6677; fill-opacity: 0.8; stroke: #ffffff; stroke-opacity: 0.8; stroke-width: 0.5"/>
    <path d="M 60.16396 167.282863 
L 57.425347 170.021475 
L 60.16396 172.760088 
L 62.902573 170.021475 
z
" clip-path="url(#pc39158b677)" style="fill: #44aa99; fill-opacity: 0.8; stroke: #ffffff; stroke-opacity: 0.8; stroke-width: 0.5"/>
   </g>
   <g id="PolyCollection_1">
    <path d="M 59.229371 169.66285 
L 59.229371 169.66285 
L 59.391909 169.564119 
L 59.59508 169.440705 
L 59.59508 169.440705 
L 59.59508 169.440705 
L 59.391909 169.564119 
L 59.229371 169.66285 
z
" clip-path="url(#pc39158b677)" style="fill-opacity: 0.2; stroke: #000000; stroke-opacity: 0.2; stroke-width: 0.8"/>
    <path d="M 59.960789 169.218561 
L 59.960789 169.218561 
L 59.960789 169.218561 
L 59.960789 169.218561 
z
" clip-path="url(#pc39158b677)" style="fill-opacity: 0.2; stroke: #000000; stroke-opacity: 0.2; stroke-width: 0.8"/>
    <path d="M 60.16396 169.095147 
L 60.16396 169.095147 
L 60.16396 169.095147 
L 60.16396 169.095147 
z
" clip-path="url(#pc39158b677)" style="fill-opacity: 0.2; stroke: #000000; stroke-opacity: 0.2; stroke-width: 0.8"/>
    <path d="M 60.367131 168.971734 
L 60.367131 168.971734 
L 60.407766 168.947051 
L 60.407766 168.947051 
L 60.407766 168.947051 
L 60.367131 168.971734 
z
" clip-path="url(#pc39158b677)" style="fill-opacity: 0.2; stroke: #000000; stroke-opacity: 0.2; stroke-width: 0.8"/>
    <path d="M 60.570303 168.84832 
L 60.570303 168.84832 
L 60.570303 168.84832 
L 60.570303 168.84832 
z
" clip-path="url(#pc39158b677)" style="fill-opacity: 0.2; stroke: #000000; stroke-opacity: 0.2; stroke-width: 0.8"/>
    <path d="M 61.098549 168.527445 
L 61.098549 168.527445 
L 61.139183 168.502762 
L 61.179817 168.478079 
L 61.179817 168.478079 
L 61.179817 168.478079 
L 61.139183 168.502762 
L 61.098549 168.527445 
z
" clip-path="url(#pc39158b677)" style="fill-opacity: 0.2; stroke: #000000; stroke-opacity: 0.2; stroke-width: 0.8"/>
    <path d="M 61.504891 168.280617 
L 61.504891 168.280617 
L 61.545526 168.255935 
L 61.545526 168.255935 
L 61.545526 168.255935 
L 61.504891 168.280617 
z
" clip-path="url(#pc39158b677)" style="fill-opacity: 0.2; stroke: #000000; stroke-opacity: 0.2; stroke-width: 0.8"/>
    <path d="M 61.911234 168.03379 
L 61.911234 168.03379 
L 61.911234 168.03379 
L 61.911234 168.03379 
z
" clip-path="url(#pc39158b677)" style="fill-opacity: 0.2; stroke: #000000; stroke-opacity: 0.2; stroke-width: 0.8"/>
    <path d="M 62.683286 167.564818 
L 62.683286 167.564818 
L 62.683286 167.564818 
L 62.683286 167.564818 
z
" clip-path="url(#pc39158b677)" style="fill-opacity: 0.2; stroke: #000000; stroke-opacity: 0.2; stroke-width: 0.8"/>
    <path d="M 62.927091 167.416722 
L 62.927091 167.416722 
L 63.048994 167.342674 
L 63.048994 167.342674 
L 63.048994 167.342674 
L 62.927091 167.416722 
z
" clip-path="url(#pc39158b677)" style="fill-opacity: 0.2; stroke: #000000; stroke-opacity: 0.2; stroke-width: 0.8"/>
    <path d="M 64.918171 166.207268 
L 64.918171 166.207268 
L 64.918171 166.207268 
L 64.918171 166.207268 
z
" clip-path="url(#pc39158b677)" style="fill-opacity: 0.2; stroke: #000000; stroke-opacity: 0.2; stroke-width: 0.8"/>
    <path d="M 65.161977 166.059172 
L 65.161977 166.059172 
L 65.161977 166.059172 
L 65.161977 166.059172 
z
" clip-path="url(#pc39158b677)" style="fill-opacity: 0.2; stroke: #000000; stroke-opacity: 0.2; stroke-width: 0.8"/>
    <path d="M 67.762571 164.479477 
L 67.762571 164.479477 
L 67.762571 164.479477 
L 67.762571 164.479477 
z
" clip-path="url(#pc39158b677)" style="fill-opacity: 0.2; stroke: #000000; stroke-opacity: 0.2; stroke-width: 0.8"/>
   </g>
   <g id="line2d_1">
    <path d="M 58.254149 170.255235 
L 201.2462 83.39672 
L 201.2462 83.39672 
" clip-path="url(#pc39158b677)" style="fill: none; stroke-dasharray: 6,6; stroke-dashoffset: 0; stroke: #000000; stroke-width: 1.2"/>
   </g>
   <g id="patch_3">
    <path d="M 50.493 174.732 
L 50.493 19.668 
" style="fill: none; stroke: #262626; stroke-linejoin: miter; stroke-linecap: square"/>
   </g>
   <g id="patch_4">
    <path d="M 50.493 174.732 
L 221.157 174.732 
" style="fill: none; stroke: #262626; stroke-linejoin: miter; stroke-linecap: square"/>
   </g>
  </g>
 </g>
 <defs>
  <clipPath id="pc39158b677">
   <rect x="50.493" y="19.668" width="170.664" height="155.064"/>
  </clipPath>
 </defs>
</svg>
