<?xml version="1.0" encoding="utf-8" standalone="no"?>
<!DOCTYPE svg PUBLIC "-//W3C//DTD SVG 1.1//EN"
  "http://www.w3.org/Graphics/SVG/1.1/DTD/svg11.dtd">
<svg xmlns:xlink="http://www.w3.org/1999/xlink" width="184.9415pt" height="167.530125pt" viewBox="0 0 184.9415 167.530125" xmlns="http://www.w3.org/2000/svg" version="1.1">
 <metadata>
  <rdf:RDF xmlns:dc="http://purl.org/dc/elements/1.1/" xmlns:cc="http://creativecommons.org/ns#" xmlns:rdf="http://www.w3.org/1999/02/22-rdf-syntax-ns#">
   <cc:Work>
    <dc:type rdf:resource="http://purl.org/dc/dcmitype/StillImage"/>
    <dc:date>2025-08-07T13:43:15.036958</dc:date>
    <dc:format>image/svg+xml</dc:format>
    <dc:creator>
     <cc:Agent>
      <dc:title>Matplotlib v3.7.1, https://matplotlib.org/</dc:title>
     </cc:Agent>
    </dc:creator>
   </cc:Work>
  </rdf:RDF>
 </metadata>
 <defs>
  <style type="text/css">*{stroke-linejoin: round; stroke-linecap: butt}</style>
 </defs>
 <g id="figure_1">
  <g id="patch_1">
   <path d="M 0 167.530125 
L 184.9415 167.530125 
L 184.9415 0 
L 0 0 
L 0 167.530125 
z
" style="fill: none"/>
  </g>
  <g id="axes_1">
   <g id="patch_2">
    <path d="M 50.971 128.722375 
L 169.9975 128.722375 
L 169.9975 11.458375 
L 50.971 11.458375 
L 50.971 128.722375 
z
" style="fill: none"/>
   </g>
   <g id="matplotlib.axis_1">
    <g id="xtick_1">
     <g id="text_1">
      <!-- $\mathdefault{10^{-7}}$ -->
      <g style="fill: #262626" transform="translate(40.631 144.209)">
       <text>
        <tspan style="font: 8.8px 'DejaVu Sans'" x="0 5.596832" y="-0.14687499999999964">10</tspan>
        <tspan style="font: 6.16px 'DejaVu Sans'" x="11.277883 16.437457" y="-3.515625">−7</tspan>
       </text>
      </g>
     </g>
    </g>
    <g id="xtick_2">
     <g id="text_2">
      <!-- $\mathdefault{10^{-3}}$ -->
      <g style="fill: #262626" transform="translate(70.387625 144.209)">
       <text>
        <tspan style="font: 8.8px 'DejaVu Sans'" x="0 5.596832" y="-0.059375000000001066">10</tspan>
        <tspan style="font: 6.16px 'DejaVu Sans'" x="11.277883 16.437457" y="-3.4281250000000014">−3</tspan>
       </text>
      </g>
     </g>
    </g>
    <g id="xtick_3">
     <g id="text_3">
      <!-- $\mathdefault{10^{1}}$ -->
      <g style="fill: #262626" transform="translate(102.74025 144.209)">
       <text>
        <tspan style="font: 8.8px 'DejaVu Sans'" x="0 5.596832" y="-0.14687499999999964">10</tspan>
        <tspan style="font: 6.16px 'DejaVu Sans'" x="11.277883" y="-3.515625">1</tspan>
       </text>
      </g>
     </g>
    </g>
    <g id="xtick_4">
     <g id="text_4">
      <!-- $\mathdefault{10^{5}}$ -->
      <g style="fill: #262626" transform="translate(132.496875 144.209)">
       <text>
        <tspan style="font: 8.8px 'DejaVu Sans'" x="0 5.596832" y="-0.14687499999999964">10</tspan>
        <tspan style="font: 6.16px 'DejaVu Sans'" x="11.277883" y="-3.515625">5</tspan>
       </text>
      </g>
     </g>
    </g>
    <g id="xtick_5">
     <g id="text_5">
      <!-- $\mathdefault{10^{9}}$ -->
      <g style="fill: #262626" transform="translate(162.2535 144.209)">
       <text>
        <tspan style="font: 8.8px 'DejaVu Sans'" x="0 5.596832" y="-0.059375000000001066">10</tspan>
        <tspan style="font: 6.16px 'DejaVu Sans'" x="11.277883" y="-3.4281250000000014">9</tspan>
       </text>
      </g>
     </g>
    </g>
    <g id="text_6">
     <text style="fill: #262626; font: 9.6px 'Arial', 'DejaVu Sans', 'Liberation Sans', 'Bitstream Vera Sans', sans-serif; text-anchor: middle" x="110.48425" y="158.333625" transform="rotate(-0 110.48425 158.333625)">Het/Pro (FCM)</text>
    </g>
   </g>
   <g id="matplotlib.axis_2">
    <g id="ytick_1">
     <g id="text_7">
      <!-- $\mathdefault{10^{-7}}$ -->
      <g style="fill: #262626" transform="translate(21.491 131.150625)">
       <text>
        <tspan style="font: 8.8px 'DejaVu Sans'" x="0 5.596832" y="-0.14687499999999964">10</tspan>
        <tspan style="font: 6.16px 'DejaVu Sans'" x="11.277883 16.437457" y="-3.515625">−7</tspan>
       </text>
      </g>
     </g>
    </g>
    <g id="ytick_2">
     <g id="text_8">
      <!-- $\mathdefault{10^{-3}}$ -->
      <g style="fill: #262626" transform="translate(21.491 101.834625)">
       <text>
        <tspan style="font: 8.8px 'DejaVu Sans'" x="0 5.596832" y="-0.059375000000001066">10</tspan>
        <tspan style="font: 6.16px 'DejaVu Sans'" x="11.277883 16.437457" y="-3.4281250000000014">−3</tspan>
       </text>
      </g>
     </g>
    </g>
    <g id="ytick_3">
     <g id="text_9">
      <!-- $\mathdefault{10^{1}}$ -->
      <g style="fill: #262626" transform="translate(26.683 72.518625)">
       <text>
        <tspan style="font: 8.8px 'DejaVu Sans'" x="0 5.596832" y="-0.14687499999999964">10</tspan>
        <tspan style="font: 6.16px 'DejaVu Sans'" x="11.277883" y="-3.515625">1</tspan>
       </text>
      </g>
     </g>
    </g>
    <g id="ytick_4">
     <g id="text_10">
      <!-- $\mathdefault{10^{5}}$ -->
      <g style="fill: #262626" transform="translate(26.683 43.202625)">
       <text>
        <tspan style="font: 8.8px 'DejaVu Sans'" x="0 5.596832" y="-0.14687499999999964">10</tspan>
        <tspan style="font: 6.16px 'DejaVu Sans'" x="11.277883" y="-3.515625">5</tspan>
       </text>
      </g>
     </g>
    </g>
    <g id="ytick_5">
     <g id="text_11">
      <!-- $\mathdefault{10^{9}}$ -->
      <g style="fill: #262626" transform="translate(26.683 13.886625)">
       <text>
        <tspan style="font: 8.8px 'DejaVu Sans'" x="0 5.596832" y="-0.059375000000001066">10</tspan>
        <tspan style="font: 6.16px 'DejaVu Sans'" x="11.277883" y="-3.4281250000000014">9</tspan>
       </text>
      </g>
     </g>
    </g>
    <g id="text_12">
     <text style="fill: #262626; font: 9.6px 'Arial', 'DejaVu Sans', 'Liberation Sans', 'Bitstream Vera Sans', sans-serif; text-anchor: middle" x="14.4945" y="70.090375" transform="rotate(-90 14.4945 70.090375)">Het/Pro (MPN)</text>
    </g>
   </g>
   <g id="PathCollection_1">
    <path d="M 112.918927 67.337413 
C 113.856561 67.337413 114.755919 66.964887 115.418927 66.301879 
C 116.081934 65.638871 116.45446 64.739514 116.45446 63.801879 
C 116.45446 62.864244 116.081934 61.964887 115.418927 61.301879 
C 114.755919 60.638871 113.856561 60.266345 112.918927 60.266345 
C 111.981292 60.266345 111.081934 60.638871 110.418927 61.301879 
C 109.755919 61.964887 109.383393 62.864244 109.383393 63.801879 
C 109.383393 64.739514 109.755919 65.638871 110.418927 66.301879 
C 111.081934 66.964887 111.981292 67.337413 112.918927 67.337413 
z
" clip-path="url(#pc9a8f04e7c)" style="fill: #882255; fill-opacity: 0.9; stroke: #ffffff; stroke-opacity: 0.9; stroke-width: 0.5"/>
    <path d="M 115.901935 44.554211 
C 116.83957 44.554211 117.738927 44.181685 118.401935 43.518677 
C 119.064943 42.85567 119.437469 41.956312 119.437469 41.018677 
C 119.437469 40.081043 119.064943 39.181685 118.401935 38.518677 
C 117.738927 37.85567 116.83957 37.483144 115.901935 37.483144 
C 114.964301 37.483144 114.064943 37.85567 113.401935 38.518677 
C 112.738927 39.181685 112.366401 40.081043 112.366401 41.018677 
C 112.366401 41.956312 112.738927 42.85567 113.401935 43.518677 
C 114.064943 44.181685 114.964301 44.554211 115.901935 44.554211 
z
" clip-path="url(#pc9a8f04e7c)" style="fill: #882255; fill-opacity: 0.9; stroke: #ffffff; stroke-opacity: 0.9; stroke-width: 0.5"/>
    <path d="M 110.159881 59.168714 
C 111.097516 59.168714 111.996873 58.796188 112.659881 58.13318 
C 113.322889 57.470173 113.695415 56.570815 113.695415 55.63318 
C 113.695415 54.695546 113.322889 53.796188 112.659881 53.13318 
C 111.996873 52.470173 111.097516 52.097647 110.159881 52.097647 
C 109.222246 52.097647 108.322889 52.470173 107.659881 53.13318 
C 106.996873 53.796188 106.624347 54.695546 106.624347 55.63318 
C 106.624347 56.570815 106.996873 57.470173 107.659881 58.13318 
C 108.322889 58.796188 109.222246 59.168714 110.159881 59.168714 
z
" clip-path="url(#pc9a8f04e7c)" style="fill: #882255; fill-opacity: 0.9; stroke: #ffffff; stroke-opacity: 0.9; stroke-width: 0.5"/>
    <path d="M 131.783981 42.995458 
L 128.248447 50.066526 
L 135.319515 50.066526 
z
" clip-path="url(#pc9a8f04e7c)" style="fill: #332288; fill-opacity: 0.9; stroke: #ffffff; stroke-opacity: 0.9; stroke-width: 0.5"/>
    <path d="M 131.287346 34.278128 
L 127.751812 41.349196 
L 134.82288 41.349196 
z
" clip-path="url(#pc9a8f04e7c)" style="fill: #332288; fill-opacity: 0.9; stroke: #ffffff; stroke-opacity: 0.9; stroke-width: 0.5"/>
    <path d="M 126.528311 36.653662 
L 122.992777 43.72473 
L 130.063845 43.72473 
z
" clip-path="url(#pc9a8f04e7c)" style="fill: #332288; fill-opacity: 0.9; stroke: #ffffff; stroke-opacity: 0.9; stroke-width: 0.5"/>
    <path d="M 119.798752 35.307028 
L 120.530986 37.807028 
L 119.798752 40.307028 
L 122.298752 39.574795 
L 124.798752 40.307028 
L 124.066519 37.807028 
L 124.798752 35.307028 
L 122.298752 36.039261 
z
" clip-path="url(#pc9a8f04e7c)" style="fill: #332288; fill-opacity: 0.9; stroke: #ffffff; stroke-opacity: 0.9; stroke-width: 0.5"/>
    <path d="M 119.117093 45.329093 
L 119.849326 47.829093 
L 119.117093 50.329093 
L 121.617093 49.59686 
L 124.117093 50.329093 
L 123.38486 47.829093 
L 124.117093 45.329093 
L 121.617093 46.061326 
z
" clip-path="url(#pc9a8f04e7c)" style="fill: #332288; fill-opacity: 0.9; stroke: #ffffff; stroke-opacity: 0.9; stroke-width: 0.5"/>
    <path d="M 117.654713 37.76613 
L 118.386946 40.26613 
L 117.654713 42.76613 
L 120.154713 42.033897 
L 122.654713 42.76613 
L 121.92248 40.26613 
L 122.654713 37.76613 
L 120.154713 38.498363 
z
" clip-path="url(#pc9a8f04e7c)" style="fill: #332288; fill-opacity: 0.9; stroke: #ffffff; stroke-opacity: 0.9; stroke-width: 0.5"/>
    <path d="M 112.881575 65.446683 
L 114.649342 63.678916 
L 116.417109 65.446683 
L 118.184876 63.678916 
L 116.417109 61.911149 
L 118.184876 60.143382 
L 116.417109 58.375615 
L 114.649342 60.143382 
L 112.881575 58.375615 
L 111.113808 60.143382 
L 112.881575 61.911149 
L 111.113808 63.678916 
z
" clip-path="url(#pc9a8f04e7c)" style="fill: #882255; fill-opacity: 0.9; stroke: #ffffff; stroke-opacity: 0.9; stroke-width: 0.5"/>
    <path d="M 111.988395 56.185569 
L 113.756162 54.417802 
L 115.523929 56.185569 
L 117.291696 54.417802 
L 115.523929 52.650035 
L 117.291696 50.882268 
L 115.523929 49.114501 
L 113.756162 50.882268 
L 111.988395 49.114501 
L 110.220628 50.882268 
L 111.988395 52.650035 
L 110.220628 54.417802 
z
" clip-path="url(#pc9a8f04e7c)" style="fill: #882255; fill-opacity: 0.9; stroke: #ffffff; stroke-opacity: 0.9; stroke-width: 0.5"/>
    <path d="M 114.004808 52.351492 
L 115.772575 50.583726 
L 117.540342 52.351492 
L 119.308109 50.583726 
L 117.540342 48.815959 
L 119.308109 47.048192 
L 117.540342 45.280425 
L 115.772575 47.048192 
L 114.004808 45.280425 
L 112.237041 47.048192 
L 114.004808 48.815959 
L 112.237041 50.583726 
z
" clip-path="url(#pc9a8f04e7c)" style="fill: #882255; fill-opacity: 0.9; stroke: #ffffff; stroke-opacity: 0.9; stroke-width: 0.5"/>
    <path d="M 67.423395 95.380715 
L 69.780417 95.380715 
L 69.780417 93.023693 
L 72.13744 93.023693 
L 72.13744 90.66667 
L 69.780417 90.66667 
L 69.780417 88.309647 
L 67.423395 88.309647 
L 67.423395 90.66667 
L 65.066372 90.66667 
L 65.066372 93.023693 
L 67.423395 93.023693 
z
" clip-path="url(#pc9a8f04e7c)" style="fill: #cc6677; fill-opacity: 0.9; stroke: #ffffff; stroke-opacity: 0.9; stroke-width: 0.5"/>
    <path d="M 60.48359 104.676215 
L 62.840612 104.676215 
L 62.840612 102.319193 
L 65.197635 102.319193 
L 65.197635 99.96217 
L 62.840612 99.96217 
L 62.840612 97.605148 
L 60.48359 97.605148 
L 60.48359 99.96217 
L 58.126567 99.96217 
L 58.126567 102.319193 
L 60.48359 102.319193 
z
" clip-path="url(#pc9a8f04e7c)" style="fill: #cc6677; fill-opacity: 0.9; stroke: #ffffff; stroke-opacity: 0.9; stroke-width: 0.5"/>
    <path d="M 60.779815 98.997839 
L 63.136837 98.997839 
L 63.136837 96.640817 
L 65.49386 96.640817 
L 65.49386 94.283794 
L 63.136837 94.283794 
L 63.136837 91.926772 
L 60.779815 91.926772 
L 60.779815 94.283794 
L 58.422792 94.283794 
L 58.422792 96.640817 
L 60.779815 96.640817 
z
" clip-path="url(#pc9a8f04e7c)" style="fill: #cc6677; fill-opacity: 0.9; stroke: #ffffff; stroke-opacity: 0.9; stroke-width: 0.5"/>
    <path d="M 118.728686 70.249775 
L 118.728686 75.249775 
L 123.728686 75.249775 
L 123.728686 70.249775 
z
" clip-path="url(#pc9a8f04e7c)" style="fill: #cc6677; fill-opacity: 0.9; stroke: #ffffff; stroke-opacity: 0.9; stroke-width: 0.5"/>
    <path d="M 119.47947 65.652972 
L 119.47947 70.652972 
L 124.47947 70.652972 
L 124.47947 65.652972 
z
" clip-path="url(#pc9a8f04e7c)" style="fill: #cc6677; fill-opacity: 0.9; stroke: #ffffff; stroke-opacity: 0.9; stroke-width: 0.5"/>
    <path d="M 116.622655 79.374397 
L 116.622655 84.374397 
L 121.622655 84.374397 
L 121.622655 79.374397 
z
" clip-path="url(#pc9a8f04e7c)" style="fill: #cc6677; fill-opacity: 0.9; stroke: #ffffff; stroke-opacity: 0.9; stroke-width: 0.5"/>
    <path d="M 128.965046 46.345218 
L 125.429512 49.880752 
L 128.965046 53.416286 
L 132.50058 49.880752 
z
" clip-path="url(#pc9a8f04e7c)" style="fill: #44aa99; fill-opacity: 0.9; stroke: #ffffff; stroke-opacity: 0.9; stroke-width: 0.5"/>
    <path d="M 128.03619 45.690783 
L 124.500656 49.226317 
L 128.03619 52.761851 
L 131.571724 49.226317 
z
" clip-path="url(#pc9a8f04e7c)" style="fill: #44aa99; fill-opacity: 0.9; stroke: #ffffff; stroke-opacity: 0.9; stroke-width: 0.5"/>
    <path d="M 124.929642 40.044715 
L 121.394108 43.580249 
L 124.929642 47.115783 
L 128.465176 43.580249 
z
" clip-path="url(#pc9a8f04e7c)" style="fill: #44aa99; fill-opacity: 0.9; stroke: #ffffff; stroke-opacity: 0.9; stroke-width: 0.5"/>
    <path d="M 130.978158 29.042827 
L 129.728158 31.328361 
L 127.442624 32.578361 
L 129.728158 33.828361 
L 130.978158 36.113895 
L 132.228158 33.828361 
L 134.513692 32.578361 
L 132.228158 31.328361 
z
" clip-path="url(#pc9a8f04e7c)" style="fill: #44aa99; fill-opacity: 0.9; stroke: #ffffff; stroke-opacity: 0.9; stroke-width: 0.5"/>
    <path d="M 136.702654 68.154694 
L 135.452654 70.440228 
L 133.16712 71.690228 
L 135.452654 72.940228 
L 136.702654 75.225762 
L 137.952654 72.940228 
L 140.238188 71.690228 
L 137.952654 70.440228 
z
" clip-path="url(#pc9a8f04e7c)" style="fill: #44aa99; fill-opacity: 0.9; stroke: #ffffff; stroke-opacity: 0.9; stroke-width: 0.5"/>
    <path d="M 137.257621 18.82871 
L 136.007621 21.114244 
L 133.722088 22.364244 
L 136.007621 23.614244 
L 137.257621 25.899778 
L 138.507621 23.614244 
L 140.793155 22.364244 
L 138.507621 21.114244 
z
" clip-path="url(#pc9a8f04e7c)" style="fill: #44aa99; fill-opacity: 0.9; stroke: #ffffff; stroke-opacity: 0.9; stroke-width: 0.5"/>
   </g>
   <g id="line2d_1">
    <path d="M 50.971 77.419375 
L 169.9975 77.419375 
" clip-path="url(#pc9a8f04e7c)" style="fill: none; stroke-dasharray: 6,6; stroke-dashoffset: 0; stroke: #4c72b0; stroke-width: 1.2"/>
   </g>
   <g id="line2d_2">
    <path d="M 103.045094 128.722375 
L 103.045094 11.458375 
" clip-path="url(#pc9a8f04e7c)" style="fill: none; stroke-dasharray: 6,6; stroke-dashoffset: 0; stroke: #4c72b0; stroke-width: 1.2"/>
   </g>
   <g id="patch_3">
    <path d="M 50.971 128.722375 
L 50.971 11.458375 
" style="fill: none; stroke: #262626; stroke-linejoin: miter; stroke-linecap: square"/>
   </g>
   <g id="patch_4">
    <path d="M 50.971 128.722375 
L 169.9975 128.722375 
" style="fill: none; stroke: #262626; stroke-linejoin: miter; stroke-linecap: square"/>
   </g>
  </g>
 </g>
 <defs>
  <clipPath id="pc9a8f04e7c">
   <rect x="50.971" y="11.458375" width="119.0265" height="117.264"/>
  </clipPath>
 </defs>
</svg>
