<?xml version="1.0" encoding="utf-8" standalone="no"?>
<!DOCTYPE svg PUBLIC "-//W3C//DTD SVG 1.1//EN"
  "http://www.w3.org/Graphics/SVG/1.1/DTD/svg11.dtd">
<svg xmlns:xlink="http://www.w3.org/1999/xlink" width="207.46125pt" height="137.175375pt" viewBox="0 0 207.46125 137.175375" xmlns="http://www.w3.org/2000/svg" version="1.1">
 <metadata>
  <rdf:RDF xmlns:dc="http://purl.org/dc/elements/1.1/" xmlns:cc="http://creativecommons.org/ns#" xmlns:rdf="http://www.w3.org/1999/02/22-rdf-syntax-ns#">
   <cc:Work>
    <dc:type rdf:resource="http://purl.org/dc/dcmitype/StillImage"/>
    <dc:date>2024-11-25T13:48:44.975873</dc:date>
    <dc:format>image/svg+xml</dc:format>
    <dc:creator>
     <cc:Agent>
      <dc:title>Matplotlib v3.8.0, https://matplotlib.org/</dc:title>
     </cc:Agent>
    </dc:creator>
   </cc:Work>
  </rdf:RDF>
 </metadata>
 <defs>
  <style type="text/css">*{stroke-linejoin: round; stroke-linecap: butt}</style>
 </defs>
 <g id="figure_1">
  <g id="patch_1">
   <path d="M 0 137.175375 
L 207.46125 137.175375 
L 207.46125 0 
L 0 0 
L 0 137.175375 
z
" style="fill: none"/>
  </g>
  <g id="axes_1">
   <g id="patch_2">
    <path d="M 47.2035 99.2355 
L 200.26125 99.2355 
L 200.26125 19.0715 
L 47.2035 19.0715 
L 47.2035 99.2355 
z
" style="fill: none"/>
   </g>
   <g id="matplotlib.axis_1">
    <g id="xtick_1">
     <g id="text_1">
      <text style="fill: #262626; font: 8.8px 'Arial', 'DejaVu Sans', 'Liberation Sans', 'Bitstream Vera Sans', sans-serif; text-anchor: middle" x="47.2035" y="114.334375" transform="rotate(-0 47.2035 114.334375)">0</text>
     </g>
    </g>
    <g id="xtick_2">
     <g id="text_2">
      <text style="fill: #262626; font: 8.8px 'Arial', 'DejaVu Sans', 'Liberation Sans', 'Bitstream Vera Sans', sans-serif; text-anchor: middle" x="112.799679" y="114.334375" transform="rotate(-0 112.799679 114.334375)">60</text>
     </g>
    </g>
    <g id="xtick_3">
     <g id="text_3">
      <text style="fill: #262626; font: 8.8px 'Arial', 'DejaVu Sans', 'Liberation Sans', 'Bitstream Vera Sans', sans-serif; text-anchor: middle" x="178.395857" y="114.334375" transform="rotate(-0 178.395857 114.334375)">120</text>
     </g>
    </g>
    <g id="text_4">
     <text style="fill: #262626; font: 9.6px 'Arial', 'DejaVu Sans', 'Liberation Sans', 'Bitstream Vera Sans', sans-serif; text-anchor: middle" x="123.732375" y="127.954875" transform="rotate(-0 123.732375 127.954875)">day</text>
    </g>
   </g>
   <g id="matplotlib.axis_2">
    <g id="ytick_1">
     <g id="text_5">
      <!-- $\mathdefault{10^{-1}}$ -->
      <g style="fill: #262626" transform="translate(20.9795 86.284126)">
       <text>
        <tspan style="font: 8.8px 'Arial'" x="0 4.892395" y="-0.4372624999999992">10</tspan>
        <tspan style="font: 6.16px 'Arial'" x="9.938116 13.534183" y="-6.570312499999999">−1</tspan>
       </text>
      </g>
     </g>
    </g>
    <g id="ytick_2">
     <g id="text_6">
      <!-- $\mathdefault{10^{0}}$ -->
      <g style="fill: #262626" transform="translate(24.5875 54.509313)">
       <text>
        <tspan style="font: 8.8px 'Arial'" x="0 4.892395" y="-0.4372624999999992">10</tspan>
        <tspan style="font: 6.16px 'Arial'" x="9.938116" y="-6.570312499999999">0</tspan>
       </text>
      </g>
     </g>
    </g>
    <g id="ytick_3">
     <g id="text_7">
      <!-- $\mathdefault{10^{1}}$ -->
      <g style="fill: #262626" transform="translate(24.5875 22.7345)">
       <text>
        <tspan style="font: 8.8px 'Arial'" x="0 4.892395" y="-0.4372624999999992">10</tspan>
        <tspan style="font: 6.16px 'Arial'" x="9.938116" y="-6.570312499999999">1</tspan>
       </text>
      </g>
     </g>
    </g>
    <g id="ytick_4"/>
    <g id="ytick_5"/>
    <g id="ytick_6"/>
    <g id="ytick_7"/>
    <g id="ytick_8"/>
    <g id="ytick_9"/>
    <g id="ytick_10"/>
    <g id="ytick_11"/>
    <g id="ytick_12"/>
    <g id="ytick_13"/>
    <g id="ytick_14"/>
    <g id="ytick_15"/>
    <g id="ytick_16"/>
    <g id="ytick_17"/>
    <g id="ytick_18"/>
    <g id="ytick_19"/>
    <g id="ytick_20"/>
    <g id="ytick_21"/>
    <g id="ytick_22"/>
    <g id="ytick_23"/>
    <g id="ytick_24"/>
    <g id="ytick_25"/>
    <g id="ytick_26"/>
    <g id="text_8">
     <text style="fill: #262626; font: 9.6px 'Arial', 'DejaVu Sans', 'Liberation Sans', 'Bitstream Vera Sans', sans-serif; text-anchor: middle" x="14.0715" y="59.1535" transform="rotate(-90 14.0715 59.1535)">Fluorescence</text>
    </g>
   </g>
   <g id="line2d_1">
    <path d="M 47.2035 79.877058 
L 48.386357 95.265595 
L 49.569973 76.22177 
L 50.206955 71.308471 
L 51.307816 67.187418 
L 52.343386 59.607396 
L 53.457154 50.492108 
L 54.56333 46.26239 
L 54.56333 45.131965 
L 54.56333 44.481717 
L 55.932195 37.144922 
L 56.98143 38.679193 
L 57.858324 45.10463 
L 57.858324 44.586524 
L 57.858324 43.515726 
L 59.048773 52.361717 
L 59.048773 51.295121 
L 59.048773 49.809858 
L 60.014494 54.169242 
L 60.014494 52.895557 
L 60.014494 51.93708 
L 61.230757 53.28522 
L 61.230757 53.219507 
L 61.230757 52.392554 
L 62.176739 52.704776 
L 62.176739 52.673234 
L 62.176739 51.996948 
L 64.849935 55.284047 
L 65.490712 56.961851 
L 65.490712 56.229326 
L 65.490712 54.761129 
L 66.583982 58.971355 
L 66.583982 58.724927 
L 66.583982 58.244892 
L 67.660549 62.784679 
L 67.660549 61.622249 
L 67.660549 61.206745 
L 68.753059 63.456326 
L 68.753059 63.387671 
L 68.753059 62.916419 
L 69.919973 62.883366 
L 69.919973 62.589398 
L 69.919973 61.177539 
L 71.124847 68.914623 
L 71.124847 67.692619 
L 71.124847 66.700061 
L 73.331126 72.850497 
L 73.331126 72.12229 
L 73.331126 71.740709 
L 75.338491 72.918643 
L 75.338491 71.553804 
L 75.338491 71.49206 
L 76.445426 76.484628 
L 76.445426 76.135251 
L 76.445426 75.298654 
L 77.654096 83.328954 
L 77.654096 82.759817 
L 77.654096 79.322782 
L 79.765473 95.265595 
L 81.178373 95.265595 
L 81.989214 95.265595 
L 81.989214 92.749626 
L 81.989214 91.645066 
L 83.039968 95.265595 
L 83.039968 95.265595 
L 83.039968 92.749626 
L 84.086166 95.265595 
L 84.086166 95.265595 
L 84.086166 92.749626 
L 85.217397 95.265595 
L 85.217397 95.265595 
L 85.217397 92.749626 
L 87.548187 95.265595 
L 88.516945 95.265595 
L 88.516945 95.265595 
L 88.516945 82.899916 
L 90.834069 95.265595 
L 90.834069 95.265595 
L 90.834069 88.355083 
L 91.857491 95.265595 
L 92.940132 92.749626 
L 96.137186 95.265595 
L 98.362446 95.265595 
L 99.591615 95.265595 
L 100.566447 91.645066 
L 101.766007 95.265595 
L 103.817406 95.265595 
L 105.149069 95.265595 
L 107.107843 95.265595 
L 111.528753 88.355083 
L 112.703258 95.265595 
L 115.961809 95.265595 
L 118.97817 95.265595 
L 120.444974 95.265595 
L 121.528374 95.265595 
L 123.515999 95.265595 
L 126.766198 95.265595 
L 127.852635 95.265595 
L 131.319211 95.265595 
L 134.441103 95.265595 
L 135.636867 95.265595 
L 136.806058 92.749626 
L 139.277303 95.265595 
L 142.200281 95.265595 
L 143.186501 95.265595 
L 144.229662 95.265595 
L 146.691038 95.265595 
L 149.738527 92.749626 
L 150.973769 95.265595 
L 153.069962 95.265595 
L 154.341647 94.267597 
L 157.341306 95.265595 
L 164.964584 95.265595 
L 168.494934 95.265595 
L 173.854233 94.267597 
L 177.071786 91.645066 
L 180.339448 95.265595 
L 187.980947 95.265595 
" clip-path="url(#pc8755b4238)" style="fill: none; stroke: #000000; stroke-width: 3; stroke-linecap: round"/>
   </g>
   <g id="line2d_2">
    <path d="M 47.2035 88.565769 
L 48.386357 89.217841 
L 49.569973 77.493688 
L 50.206955 71.247813 
L 51.307816 66.271467 
L 52.343386 59.121353 
L 53.457154 51.111029 
L 54.56333 44.950746 
L 54.56333 44.095628 
L 54.56333 43.869056 
L 55.932195 36.153703 
L 56.98143 37.977365 
L 57.858324 43.827503 
L 57.858324 43.621596 
L 57.858324 43.282442 
L 59.048773 51.714859 
L 59.048773 51.583224 
L 59.048773 51.366585 
L 60.014494 50.92936 
L 60.014494 50.887774 
L 60.014494 50.818741 
L 61.230757 53.219507 
L 61.230757 52.208556 
L 61.230757 51.93708 
L 62.176739 52.407999 
L 62.176739 51.952022 
L 62.176739 50.901622 
L 64.849935 57.376417 
L 65.490712 56.769742 
L 65.490712 56.434682 
L 65.490712 55.379546 
L 66.583982 60.83181 
L 66.583982 59.607396 
L 66.583982 59.071172 
L 67.660549 64.906439 
L 67.660549 64.418238 
L 67.660549 63.387671 
L 68.753059 67.368995 
L 68.753059 67.323376 
L 68.753059 64.71662 
L 69.919973 69.921568 
L 69.919973 69.703388 
L 69.919973 67.692619 
L 71.124847 77.211092 
L 71.124847 75.461965 
L 71.124847 74.357406 
L 73.331126 82.213225 
L 73.331126 79.764408 
L 73.331126 79.541828 
L 75.338491 83.922578 
L 75.338491 81.559092 
L 75.338491 79.764408 
L 76.445426 91.645066 
L 76.445426 86.408252 
L 76.445426 79.652669 
L 77.654096 92.749626 
L 77.654096 88.355083 
L 77.654096 87.543107 
L 79.765473 95.265595 
L 81.178373 95.265595 
L 81.989214 95.265595 
L 81.989214 95.265595 
L 81.989214 94.592309 
L 83.039968 95.265595 
L 83.039968 95.265595 
L 83.039968 92.749626 
L 84.086166 93.040155 
L 84.086166 92.749626 
L 84.086166 91.382208 
L 85.217397 95.265595 
L 85.217397 91.645066 
L 85.217397 91.645066 
L 87.548187 95.265595 
L 88.516945 95.265595 
L 88.516945 95.265595 
L 88.516945 95.265595 
L 90.834069 95.265595 
L 90.834069 95.265595 
L 90.834069 95.265595 
L 91.857491 95.265595 
L 92.940132 95.265595 
L 96.137186 95.265595 
L 98.362446 95.265595 
L 99.591615 94.267597 
L 100.566447 86.408252 
L 101.766007 95.265595 
L 103.817406 95.265595 
L 105.149069 93.95035 
L 107.107843 95.265595 
L 111.528753 95.265595 
L 112.703258 94.267597 
L 115.961809 95.265595 
L 118.97817 95.265595 
L 120.444974 95.265595 
L 121.528374 95.265595 
L 123.515999 95.265595 
L 126.766198 95.265595 
L 127.852635 95.265595 
L 131.319211 95.265595 
L 134.441103 95.265595 
L 135.636867 95.265595 
L 136.806058 95.265595 
L 139.277303 95.265595 
L 142.200281 95.265595 
L 143.186501 94.267597 
L 144.229662 95.265595 
L 146.691038 89.90226 
L 149.738527 95.265595 
L 150.973769 95.265595 
L 153.069962 95.265595 
L 154.341647 95.265595 
L 157.341306 95.265595 
L 164.964584 95.265595 
L 168.494934 95.265595 
L 173.854233 95.265595 
L 177.071786 88.997042 
L 180.339448 95.265595 
L 187.980947 95.265595 
" clip-path="url(#pc8755b4238)" style="fill: none; stroke: #000000; stroke-width: 3; stroke-linecap: round"/>
   </g>
   <g id="line2d_3">
    <path d="M 47.2035 74.433437 
L 48.386357 88.779721 
L 49.569973 76.573372 
L 50.206955 71.615825 
L 51.307816 64.868265 
L 52.343386 57.069746 
L 53.457154 49.874012 
L 54.56333 43.728284 
L 54.56333 43.442905 
L 54.56333 43.171219 
L 55.932195 35.471356 
L 56.98143 40.098253 
L 57.858324 45.334093 
L 57.858324 44.995828 
L 57.858324 43.703591 
L 59.048773 52.594693 
L 59.048773 51.139191 
L 59.048773 50.887774 
L 60.014494 52.454436 
L 60.014494 52.057077 
L 60.014494 51.510632 
L 61.230757 54.345936 
L 61.230757 53.822499 
L 61.230757 53.551245 
L 62.176739 54.70626 
L 62.176739 53.703169 
L 62.176739 52.579038 
L 64.849935 56.496889 
L 65.490712 58.530904 
L 65.490712 57.964687 
L 65.490712 57.644813 
L 66.583982 61.834789 
L 66.583982 61.56212 
L 66.583982 60.111184 
L 67.660549 66.187323 
L 67.660549 65.412547 
L 67.660549 64.455185 
L 68.753059 68.661412 
L 68.753059 66.831279 
L 68.753059 66.103688 
L 69.919973 73.40533 
L 69.919973 72.918643 
L 69.919973 67.414765 
L 71.124847 84.075061 
L 71.124847 74.206589 
L 71.124847 72.448537 
L 73.331126 81.559092 
L 73.331126 80.337088 
L 73.331126 77.398844 
L 75.338491 85.528997 
L 75.338491 79.322782 
L 75.338491 78.377952 
L 76.445426 85.700423 
L 76.445426 81.559092 
L 76.445426 80.220635 
L 77.654096 95.265595 
L 77.654096 91.645066 
L 77.654096 87.543107 
L 79.765473 95.265595 
L 81.178373 95.265595 
L 81.989214 95.265595 
L 81.989214 95.265595 
L 81.989214 95.265595 
L 83.039968 95.265595 
L 83.039968 95.265595 
L 83.039968 95.265595 
L 84.086166 95.265595 
L 84.086166 95.265595 
L 84.086166 92.749626 
L 85.217397 95.265595 
L 85.217397 95.265595 
L 85.217397 88.565769 
L 87.548187 95.265595 
L 88.516945 95.265595 
L 88.516945 95.265595 
L 88.516945 95.265595 
L 90.834069 95.265595 
L 90.834069 95.265595 
L 90.834069 95.265595 
L 91.857491 95.265595 
L 92.940132 95.265595 
L 96.137186 95.265595 
L 98.362446 95.265595 
L 99.591615 95.265595 
L 100.566447 95.265595 
L 101.766007 95.265595 
L 103.817406 95.265595 
L 105.149069 95.265595 
L 107.107843 95.265595 
L 111.528753 95.265595 
L 112.703258 95.265595 
L 115.961809 95.265595 
L 118.97817 91.382208 
L 120.444974 95.265595 
L 121.528374 93.95035 
L 123.515999 95.265595 
L 126.766198 92.749626 
L 127.852635 95.265595 
L 131.319211 91.645066 
L 134.441103 95.265595 
L 135.636867 94.267597 
L 136.806058 95.265595 
L 139.277303 95.265595 
L 142.200281 95.265595 
L 143.186501 91.382208 
L 144.229662 94.267597 
L 146.691038 95.265595 
L 149.738527 95.265595 
L 150.973769 95.265595 
L 153.069962 95.265595 
L 154.341647 95.265595 
L 157.341306 95.265595 
L 164.964584 95.265595 
L 168.494934 95.265595 
L 173.854233 95.265595 
L 177.071786 91.645066 
L 180.339448 95.265595 
L 187.980947 95.265595 
" clip-path="url(#pc8755b4238)" style="fill: none; stroke: #000000; stroke-width: 3; stroke-linecap: round"/>
   </g>
   <g id="patch_3">
    <path d="M 47.2035 99.2355 
L 47.2035 19.0715 
" style="fill: none; stroke: #262626; stroke-linejoin: miter; stroke-linecap: square"/>
   </g>
   <g id="patch_4">
    <path d="M 47.2035 99.2355 
L 200.26125 99.2355 
" style="fill: none; stroke: #262626; stroke-linejoin: miter; stroke-linecap: square"/>
   </g>
   <g id="text_9">
    <text style="fill: #262626; font: 9.6px 'Arial', 'DejaVu Sans', 'Liberation Sans', 'Bitstream Vera Sans', sans-serif; text-anchor: middle" x="123.732375" y="14.0715" transform="rotate(-0 123.732375 14.0715)">Axenic</text>
   </g>
  </g>
 </g>
 <defs>
  <clipPath id="pc8755b4238">
   <rect x="47.2035" y="19.0715" width="153.05775" height="80.164"/>
  </clipPath>
 </defs>
</svg>
