<?xml version="1.0" encoding="utf-8" standalone="no"?>
<!DOCTYPE svg PUBLIC "-//W3C//DTD SVG 1.1//EN"
  "http://www.w3.org/Graphics/SVG/1.1/DTD/svg11.dtd">
<svg xmlns:xlink="http://www.w3.org/1999/xlink" width="201.6pt" height="576pt" viewBox="0 0 201.6 576" xmlns="http://www.w3.org/2000/svg" version="1.1">
 <metadata>
  <rdf:RDF xmlns:dc="http://purl.org/dc/elements/1.1/" xmlns:cc="http://creativecommons.org/ns#" xmlns:rdf="http://www.w3.org/1999/02/22-rdf-syntax-ns#">
   <cc:Work>
    <dc:type rdf:resource="http://purl.org/dc/dcmitype/StillImage"/>
    <dc:date>2024-12-17T13:28:14.471268</dc:date>
    <dc:format>image/svg+xml</dc:format>
    <dc:creator>
     <cc:Agent>
      <dc:title>Matplotlib v3.8.0, https://matplotlib.org/</dc:title>
     </cc:Agent>
    </dc:creator>
   </cc:Work>
  </rdf:RDF>
 </metadata>
 <defs>
  <style type="text/css">*{stroke-linejoin: round; stroke-linecap: butt}</style>
 </defs>
 <g id="figure_1">
  <g id="patch_1">
   <path d="M 0 576 
L 201.6 576 
L 201.6 0 
L 0 0 
z
" style="fill: #ffffff"/>
  </g>
  <g id="axes_1">
   <g id="patch_2">
    <path d="M 45.318 130.6455 
L 183.97575 130.6455 
L 183.97575 22.568 
L 45.318 22.568 
z
" style="fill: #ffffff"/>
   </g>
   <g id="matplotlib.axis_1">
    <g id="xtick_1"/>
    <g id="xtick_2"/>
    <g id="xtick_3"/>
   </g>
   <g id="matplotlib.axis_2">
    <g id="ytick_1">
     <g id="text_1">
      <!-- $\mathdefault{10^{-1}}$ -->
      <g style="fill: #262626" transform="translate(19.094 111.908919) scale(0.088 -0.088)">
       <defs>
        <path id="ArialMT-31" d="M 2384 0 
L 1822 0 
L 1822 3584 
Q 1619 3391 1289 3197 
Q 959 3003 697 2906 
L 697 3450 
Q 1169 3672 1522 3987 
Q 1875 4303 2022 4600 
L 2384 4600 
L 2384 0 
z
" transform="scale(0.015625)"/>
        <path id="ArialMT-30" d="M 266 2259 
Q 266 3072 433 3567 
Q 600 4063 929 4331 
Q 1259 4600 1759 4600 
Q 2128 4600 2406 4451 
Q 2684 4303 2865 4023 
Q 3047 3744 3150 3342 
Q 3253 2941 3253 2259 
Q 3253 1453 3087 958 
Q 2922 463 2592 192 
Q 2263 -78 1759 -78 
Q 1097 -78 719 397 
Q 266 969 266 2259 
z
M 844 2259 
Q 844 1131 1108 757 
Q 1372 384 1759 384 
Q 2147 384 2411 759 
Q 2675 1134 2675 2259 
Q 2675 3391 2411 3762 
Q 2147 4134 1753 4134 
Q 1366 4134 1134 3806 
Q 844 3388 844 2259 
z
" transform="scale(0.015625)"/>
        <path id="ArialMT-2212" d="M 3381 1997 
L 356 1997 
L 356 2522 
L 3381 2522 
L 3381 1997 
z
" transform="scale(0.015625)"/>
       </defs>
       <use xlink:href="#ArialMT-31" transform="translate(0 0.99375)"/>
       <use xlink:href="#ArialMT-30" transform="translate(55.615234 0.99375)"/>
       <use xlink:href="#ArialMT-2212" transform="translate(112.972813 70.6875) scale(0.7)"/>
       <use xlink:href="#ArialMT-31" transform="translate(153.851719 70.6875) scale(0.7)"/>
      </g>
     </g>
    </g>
    <g id="ytick_2">
     <g id="text_2">
      <!-- $\mathdefault{10^{0}}$ -->
      <g style="fill: #262626" transform="translate(22.702 69.069959) scale(0.088 -0.088)">
       <use xlink:href="#ArialMT-31" transform="translate(0 0.99375)"/>
       <use xlink:href="#ArialMT-30" transform="translate(55.615234 0.99375)"/>
       <use xlink:href="#ArialMT-30" transform="translate(112.972813 70.6875) scale(0.7)"/>
      </g>
     </g>
    </g>
    <g id="ytick_3"/>
    <g id="ytick_4"/>
    <g id="ytick_5"/>
    <g id="ytick_6"/>
    <g id="ytick_7"/>
    <g id="ytick_8"/>
    <g id="ytick_9"/>
    <g id="ytick_10"/>
    <g id="ytick_11"/>
    <g id="ytick_12"/>
    <g id="ytick_13"/>
    <g id="ytick_14"/>
    <g id="ytick_15"/>
    <g id="ytick_16"/>
    <g id="ytick_17"/>
    <g id="ytick_18"/>
    <g id="ytick_19"/>
    <g id="ytick_20"/>
    <g id="ytick_21"/>
    <g id="ytick_22"/>
    <g id="ytick_23"/>
    <g id="ytick_24"/>
    <g id="ytick_25"/>
    <g id="text_3">
     <!-- FL -->
     <g style="fill: #262626" transform="translate(12.186 82.20775) rotate(-90) scale(0.096 -0.096)">
      <defs>
       <path id="ArialMT-46" d="M 525 0 
L 525 4581 
L 3616 4581 
L 3616 4041 
L 1131 4041 
L 1131 2622 
L 3281 2622 
L 3281 2081 
L 1131 2081 
L 1131 0 
L 525 0 
z
" transform="scale(0.015625)"/>
       <path id="ArialMT-4c" d="M 469 0 
L 469 4581 
L 1075 4581 
L 1075 541 
L 3331 541 
L 3331 0 
L 469 0 
z
" transform="scale(0.015625)"/>
      </defs>
      <use xlink:href="#ArialMT-46"/>
      <use xlink:href="#ArialMT-4c" x="61.083984"/>
     </g>
    </g>
   </g>
   <g id="line2d_1">
    <path d="M 45.318 102.525251 
L 46.389571 117.749688 
L 47.46183 120.773308 
L 48.038883 125.293255 
L 49.036174 120.057654 
L 49.974314 124.385527 
L 50.983297 125.293255 
L 51.985402 118.703986 
L 51.985402 117.442165 
L 51.985402 117.139643 
L 53.225481 107.695985 
L 54.176002 99.385713 
L 54.970395 96.901399 
L 54.970395 92.113754 
L 54.970395 91.650542 
L 56.048844 87.930987 
L 56.048844 86.605819 
L 56.048844 82.68832 
L 56.923709 78.340018 
L 56.923709 76.361182 
L 56.923709 76.09492 
L 58.025543 65.897082 
L 58.025543 65.53765 
L 58.025543 64.929418 
L 58.882525 58.700557 
L 58.882525 58.417296 
L 58.882525 58.025337 
L 61.304221 52.716933 
L 61.884712 55.027383 
L 61.884712 53.455656 
L 61.884712 53.387274 
L 62.875125 56.546754 
L 62.875125 56.546754 
L 62.875125 55.589568 
L 63.850406 57.67827 
L 63.850406 57.36169 
L 63.850406 56.124031 
L 64.840131 59.107162 
L 64.840131 58.739519 
L 64.840131 58.506957 
L 65.897259 51.304613 
L 65.897259 50.155182 
L 65.897259 49.9271 
L 66.988776 56.826179 
L 66.988776 55.732809 
L 66.988776 54.805077 
L 68.987483 61.937559 
L 68.987483 61.906705 
L 68.987483 60.872427 
L 70.805991 58.975025 
L 70.805991 57.616969 
L 70.805991 57.062283 
L 71.808783 58.726523 
L 71.808783 57.507135 
L 71.808783 56.674303 
L 72.903739 60.640589 
L 72.903739 60.411605 
L 72.903739 58.558387 
L 74.816473 57.604733 
L 76.096444 59.699976 
L 76.831 61.600951 
L 76.831 60.72719 
L 76.831 60.171358 
L 77.782896 62.790556 
L 77.782896 61.61612 
L 77.782896 61.062945 
L 78.730666 59.631652 
L 78.730666 59.173584 
L 78.730666 59.120427 
L 79.755468 60.241698 
L 79.755468 59.522852 
L 79.755468 59.33397 
L 81.866972 60.93084 
L 82.744588 38.387019 
L 82.744588 38.0291 
L 82.744588 37.560952 
L 84.843712 62.40661 
L 84.843712 61.315066 
L 84.843712 61.30014 
L 85.770848 62.936603 
L 86.751632 64.009606 
L 89.647901 71.778897 
L 91.663803 79.257069 
L 92.777329 81.458184 
L 93.660447 85.423276 
L 94.747149 83.556055 
L 96.605548 75.286595 
L 97.811926 73.855928 
L 99.586415 66.897682 
L 103.591395 64.481521 
L 104.655401 64.270302 
L 107.607381 77.009258 
L 110.339956 76.870932 
L 111.66876 77.430515 
L 112.650231 79.374945 
L 114.450856 77.644775 
L 117.39527 81.108789 
L 118.379492 75.930421 
L 121.519925 79.33557 
L 124.348103 69.886949 
L 125.431367 66.677268 
L 126.490558 75.767364 
L 128.729303 82.407841 
L 131.377281 82.500865 
L 132.270715 82.361503 
L 133.215734 90.044432 
L 135.445538 84.570187 
L 138.206312 88.891858 
L 139.325341 90.326327 
L 141.224319 91.348019 
L 142.376362 89.357832 
L 145.093806 88.891858 
L 151.99987 98.048271 
L 155.198077 98.816717 
L 160.053161 99.853781 
L 162.968 96.206742 
L 165.928233 106.642606 
L 172.850804 107.877496 
" clip-path="url(#p907ce03c48)" style="fill: none; stroke: #882255; stroke-width: 2; stroke-linecap: round"/>
   </g>
   <g id="line2d_2">
    <path d="M 45.318 107.877496 
L 46.389571 114.617856 
L 47.46183 120.773308 
L 48.038883 125.293255 
L 49.036174 125.293255 
L 49.974314 113.598164 
L 50.983297 125.293255 
L 51.985402 125.293255 
L 51.985402 125.293255 
L 51.985402 121.901212 
L 53.225481 117.139643 
L 54.176002 105.972093 
L 54.970395 105.972093 
L 54.970395 105.166568 
L 54.970395 103.222138 
L 56.048844 93.918268 
L 56.048844 93.076282 
L 56.048844 92.830941 
L 56.923709 86.54777 
L 56.923709 84.8326 
L 56.923709 83.26229 
L 58.025543 76.32769 
L 58.025543 74.63373 
L 58.025543 74.330715 
L 58.882525 67.223019 
L 58.882525 67.182039 
L 58.882525 66.637472 
L 61.304221 50.678825 
L 61.884712 46.57964 
L 61.884712 45.895785 
L 61.884712 45.572666 
L 62.875125 41.030624 
L 62.875125 40.860762 
L 62.875125 40.697366 
L 63.850406 46.838421 
L 63.850406 45.248766 
L 63.850406 44.721158 
L 64.840131 47.345886 
L 64.840131 47.184501 
L 64.840131 47.073054 
L 65.897259 48.758285 
L 65.897259 48.501559 
L 65.897259 48.122994 
L 66.988776 55.317166 
L 66.988776 54.194352 
L 66.988776 53.406786 
L 68.987483 59.441668 
L 68.987483 58.909307 
L 68.987483 58.277266 
L 70.805991 58.988197 
L 70.805991 58.635799 
L 70.805991 58.468478 
L 71.808783 59.80982 
L 71.808783 59.441668 
L 71.808783 59.200219 
L 72.903739 62.822912 
L 72.903739 62.030428 
L 72.903739 62.030428 
L 74.816473 52.632473 
L 76.096444 60.017542 
L 76.831 63.331763 
L 76.831 61.048221 
L 76.831 60.583078 
L 77.782896 64.148189 
L 77.782896 63.906341 
L 77.782896 63.315129 
L 78.730666 61.983935 
L 78.730666 61.540398 
L 78.730666 61.464984 
L 79.755468 46.914008 
L 79.755468 43.35858 
L 79.755468 43.228219 
L 81.866972 56.282853 
L 82.744588 57.776773 
L 82.744588 57.385852 
L 82.744588 56.4086 
L 84.843712 60.654995 
L 84.843712 60.383179 
L 84.843712 59.878803 
L 85.770848 60.683839 
L 86.751632 57.086059 
L 89.647901 65.351229 
L 91.663803 73.109342 
L 92.777329 74.664305 
L 93.660447 73.7391 
L 94.747149 70.342206 
L 96.605548 65.075053 
L 97.811926 61.434903 
L 99.586415 63.786586 
L 103.591395 70.883652 
L 104.655401 71.778897 
L 107.607381 78.117648 
L 110.339956 81.679935 
L 111.66876 81.282666 
L 112.650231 85.260313 
L 114.450856 81.414149 
L 117.39527 85.206308 
L 118.379492 82.223178 
L 121.519925 79.733122 
L 124.348103 73.109342 
L 125.431367 73.392956 
L 126.490558 79.935129 
L 128.729303 81.724605 
L 131.377281 81.152106 
L 132.270715 78.716644 
L 133.215734 88.43727 
L 135.445538 87.07685 
L 138.206312 92.270757 
L 139.325341 91.726947 
L 141.224319 88.43727 
L 142.376362 91.498666 
L 145.093806 88.826233 
L 151.99987 97.31031 
L 155.198077 96.206742 
L 160.053161 99.385713 
L 162.968 107.695985 
L 165.928233 103.508371 
L 172.850804 114.617856 
" clip-path="url(#p907ce03c48)" style="fill: none; stroke: #882255; stroke-width: 2; stroke-linecap: round"/>
   </g>
   <g id="line2d_3">
    <path d="M 45.318 105.166568 
L 46.389571 115.976469 
L 47.46183 117.442165 
L 48.038883 120.41204 
L 49.036174 125.293255 
L 49.974314 119.033282 
L 50.983297 125.293255 
L 51.985402 119.033282 
L 51.985402 113.598164 
L 51.985402 107.516228 
L 53.225481 99.156023 
L 54.176002 98.264608 
L 54.970395 94.004601 
L 54.970395 91.348019 
L 54.970395 90.184845 
L 56.048844 86.033321 
L 56.048844 83.854533 
L 56.048844 81.724605 
L 56.923709 74.330715 
L 56.923709 72.913353 
L 56.923709 72.746991 
L 58.025543 68.234624 
L 58.025543 66.577937 
L 58.025543 65.973644 
L 58.882525 56.979306 
L 58.882525 56.535202 
L 58.882525 56.067636 
L 61.304221 56.15795 
L 61.884712 56.744246 
L 61.884712 55.944165 
L 61.884712 55.578595 
L 62.875125 58.739519 
L 62.875125 58.584155 
L 62.875125 57.764432 
L 63.850406 61.210837 
L 63.850406 60.828736 
L 63.850406 60.583078 
L 64.840131 58.468478 
L 64.840131 58.302648 
L 64.840131 57.702847 
L 65.897259 62.742127 
L 65.897259 62.742127 
L 65.897259 61.510196 
L 66.988776 65.650407 
L 66.988776 65.221836 
L 66.988776 64.838972 
L 68.987483 64.446151 
L 68.987483 62.645646 
L 68.987483 62.280369 
L 70.805991 64.287812 
L 70.805991 64.165585 
L 70.805991 63.265317 
L 71.808783 64.078768 
L 71.808783 62.061487 
L 71.808783 61.891297 
L 72.903739 67.679854 
L 72.903739 67.243543 
L 72.903739 67.223019 
L 74.816473 60.368982 
L 76.096444 63.786586 
L 76.831 62.565626 
L 76.831 62.565626 
L 76.831 61.480042 
L 77.782896 64.641525 
L 77.782896 64.182997 
L 77.782896 63.63374 
L 78.730666 63.498922 
L 78.730666 62.581602 
L 78.730666 62.359169 
L 79.755468 64.516959 
L 79.755468 62.613597 
L 79.755468 61.983935 
L 81.866972 65.481527 
L 82.744588 63.906341 
L 82.744588 63.752512 
L 82.744588 63.650661 
L 84.843712 67.429282 
L 84.843712 67.30525 
L 84.843712 66.897682 
L 85.770848 67.912549 
L 86.751632 66.93804 
L 89.647901 75.12906 
L 91.663803 75.702539 
L 92.777329 76.733627 
L 93.660447 73.7391 
L 94.747149 72.391563 
L 96.605548 65.612745 
L 97.811926 65.406959 
L 99.586415 68.584429 
L 103.591395 72.941226 
L 104.655401 68.918454 
L 107.607381 80.723407 
L 110.339956 81.239045 
L 111.66876 82.78276 
L 112.650231 82.131529 
L 114.450856 82.085873 
L 117.39527 82.454295 
L 118.379492 77.537337 
L 121.519925 70.390782 
L 124.348103 68.584429 
L 125.431367 67.764134 
L 126.490558 75.191914 
L 128.729303 81.370218 
L 131.377281 77.897905 
L 132.270715 79.374945 
L 133.215734 84.8326 
L 135.445538 89.223502 
L 138.206312 88.566023 
L 139.325341 86.260211 
L 141.224319 84.72719 
L 142.376362 84.93861 
L 145.093806 84.570187 
L 151.99987 91.050337 
L 155.198077 94.800174 
L 160.053161 95.443364 
L 162.968 99.270513 
L 165.928233 103.653155 
L 172.850804 112.166325 
" clip-path="url(#p907ce03c48)" style="fill: none; stroke: #882255; stroke-width: 2; stroke-linecap: round"/>
   </g>
   <g id="line2d_4">
    <path d="M 45.318 104.444965 
L 46.389571 119.256095 
L 47.46183 100.33393 
L 48.038883 93.103743 
L 49.036174 85.939594 
L 49.974314 75.799861 
L 50.983297 64.917333 
L 51.985402 56.605911 
L 53.225481 45.714148 
L 54.176002 49.287827 
L 54.970395 56.445596 
L 56.048844 66.147071 
L 56.923709 66.859647 
L 58.025543 68.430579 
L 58.882525 67.754751 
L 61.304221 72.839231 
L 61.884712 73.291619 
L 62.875125 77.521472 
L 63.850406 82.772243 
L 64.840131 85.164413 
L 65.897259 87.017315 
L 66.988776 94.710078 
L 68.987483 100.565048 
L 70.805991 101.19106 
L 71.808783 105.466793 
L 72.903739 113.819982 
L 74.816473 125.293255 
L 76.096444 125.293255 
L 76.831 124.189686 
L 77.782896 124.484226 
L 78.730666 123.147928 
L 79.755468 122.558692 
L 81.866972 125.293255 
L 82.744588 122.514129 
L 84.843712 123.995885 
L 85.770848 125.293255 
L 86.751632 124.092533 
L 89.647901 125.293255 
L 91.663803 125.293255 
L 92.777329 124.833855 
L 93.660447 119.033282 
L 94.747149 125.293255 
L 96.605548 125.293255 
L 97.811926 124.683209 
L 99.586415 125.293255 
L 103.591395 121.644591 
L 104.655401 124.833855 
L 107.607381 125.293255 
L 110.339956 123.379621 
L 111.66876 125.293255 
L 112.650231 124.683209 
L 114.450856 125.293255 
L 117.39527 124.092533 
L 118.379492 125.293255 
L 121.519925 123.520035 
L 124.348103 125.293255 
L 125.431367 124.833855 
L 126.490558 124.092533 
L 128.729303 125.293255 
L 131.377281 125.293255 
L 132.270715 122.964629 
L 133.215734 124.833855 
L 135.445538 122.558692 
L 138.206312 124.092533 
L 139.325341 125.293255 
L 141.224319 125.293255 
L 142.376362 124.833855 
L 145.093806 125.293255 
L 151.99987 125.293255 
L 155.198077 125.293255 
L 160.053161 124.833855 
L 162.968 119.144355 
L 165.928233 125.293255 
L 172.850804 125.293255 
" clip-path="url(#p907ce03c48)" style="fill: none; stroke: #000000; stroke-linecap: round"/>
   </g>
   <g id="patch_3">
    <path d="M 45.318 130.6455 
L 45.318 22.568 
" style="fill: none; stroke: #262626; stroke-linejoin: miter; stroke-linecap: square"/>
   </g>
   <g id="patch_4">
    <path d="M 45.318 130.6455 
L 183.97575 130.6455 
" style="fill: none; stroke: #262626; stroke-linejoin: miter; stroke-linecap: square"/>
   </g>
   <g id="text_4">
    <!-- A. macleodii 1A3 -->
    <g style="fill: #262626" transform="translate(78.629625 17.568) scale(0.096 -0.096)">
     <defs>
      <path id="ArialMT-41" d="M -9 0 
L 1750 4581 
L 2403 4581 
L 4278 0 
L 3588 0 
L 3053 1388 
L 1138 1388 
L 634 0 
L -9 0 
z
M 1313 1881 
L 2866 1881 
L 2388 3150 
Q 2169 3728 2063 4100 
Q 1975 3659 1816 3225 
L 1313 1881 
z
" transform="scale(0.015625)"/>
      <path id="ArialMT-2e" d="M 581 0 
L 581 641 
L 1222 641 
L 1222 0 
L 581 0 
z
" transform="scale(0.015625)"/>
      <path id="ArialMT-20" transform="scale(0.015625)"/>
      <path id="ArialMT-6d" d="M 422 0 
L 422 3319 
L 925 3319 
L 925 2853 
Q 1081 3097 1340 3245 
Q 1600 3394 1931 3394 
Q 2300 3394 2536 3241 
Q 2772 3088 2869 2813 
Q 3263 3394 3894 3394 
Q 4388 3394 4653 3120 
Q 4919 2847 4919 2278 
L 4919 0 
L 4359 0 
L 4359 2091 
Q 4359 2428 4304 2576 
Q 4250 2725 4106 2815 
Q 3963 2906 3769 2906 
Q 3419 2906 3187 2673 
Q 2956 2441 2956 1928 
L 2956 0 
L 2394 0 
L 2394 2156 
Q 2394 2531 2256 2718 
Q 2119 2906 1806 2906 
Q 1569 2906 1367 2781 
Q 1166 2656 1075 2415 
Q 984 2175 984 1722 
L 984 0 
L 422 0 
z
" transform="scale(0.015625)"/>
      <path id="ArialMT-61" d="M 2588 409 
Q 2275 144 1986 34 
Q 1697 -75 1366 -75 
Q 819 -75 525 192 
Q 231 459 231 875 
Q 231 1119 342 1320 
Q 453 1522 633 1644 
Q 813 1766 1038 1828 
Q 1203 1872 1538 1913 
Q 2219 1994 2541 2106 
Q 2544 2222 2544 2253 
Q 2544 2597 2384 2738 
Q 2169 2928 1744 2928 
Q 1347 2928 1158 2789 
Q 969 2650 878 2297 
L 328 2372 
Q 403 2725 575 2942 
Q 747 3159 1072 3276 
Q 1397 3394 1825 3394 
Q 2250 3394 2515 3294 
Q 2781 3194 2906 3042 
Q 3031 2891 3081 2659 
Q 3109 2516 3109 2141 
L 3109 1391 
Q 3109 606 3145 398 
Q 3181 191 3288 0 
L 2700 0 
Q 2613 175 2588 409 
z
M 2541 1666 
Q 2234 1541 1622 1453 
Q 1275 1403 1131 1340 
Q 988 1278 909 1158 
Q 831 1038 831 891 
Q 831 666 1001 516 
Q 1172 366 1500 366 
Q 1825 366 2078 508 
Q 2331 650 2450 897 
Q 2541 1088 2541 1459 
L 2541 1666 
z
" transform="scale(0.015625)"/>
      <path id="ArialMT-63" d="M 2588 1216 
L 3141 1144 
Q 3050 572 2676 248 
Q 2303 -75 1759 -75 
Q 1078 -75 664 370 
Q 250 816 250 1647 
Q 250 2184 428 2587 
Q 606 2991 970 3192 
Q 1334 3394 1763 3394 
Q 2303 3394 2647 3120 
Q 2991 2847 3088 2344 
L 2541 2259 
Q 2463 2594 2264 2762 
Q 2066 2931 1784 2931 
Q 1359 2931 1093 2626 
Q 828 2322 828 1663 
Q 828 994 1084 691 
Q 1341 388 1753 388 
Q 2084 388 2306 591 
Q 2528 794 2588 1216 
z
" transform="scale(0.015625)"/>
      <path id="ArialMT-6c" d="M 409 0 
L 409 4581 
L 972 4581 
L 972 0 
L 409 0 
z
" transform="scale(0.015625)"/>
      <path id="ArialMT-65" d="M 2694 1069 
L 3275 997 
Q 3138 488 2766 206 
Q 2394 -75 1816 -75 
Q 1088 -75 661 373 
Q 234 822 234 1631 
Q 234 2469 665 2931 
Q 1097 3394 1784 3394 
Q 2450 3394 2872 2941 
Q 3294 2488 3294 1666 
Q 3294 1616 3291 1516 
L 816 1516 
Q 847 969 1125 678 
Q 1403 388 1819 388 
Q 2128 388 2347 550 
Q 2566 713 2694 1069 
z
M 847 1978 
L 2700 1978 
Q 2663 2397 2488 2606 
Q 2219 2931 1791 2931 
Q 1403 2931 1139 2672 
Q 875 2413 847 1978 
z
" transform="scale(0.015625)"/>
      <path id="ArialMT-6f" d="M 213 1659 
Q 213 2581 725 3025 
Q 1153 3394 1769 3394 
Q 2453 3394 2887 2945 
Q 3322 2497 3322 1706 
Q 3322 1066 3130 698 
Q 2938 331 2570 128 
Q 2203 -75 1769 -75 
Q 1072 -75 642 372 
Q 213 819 213 1659 
z
M 791 1659 
Q 791 1022 1069 705 
Q 1347 388 1769 388 
Q 2188 388 2466 706 
Q 2744 1025 2744 1678 
Q 2744 2294 2464 2611 
Q 2184 2928 1769 2928 
Q 1347 2928 1069 2612 
Q 791 2297 791 1659 
z
" transform="scale(0.015625)"/>
      <path id="ArialMT-64" d="M 2575 0 
L 2575 419 
Q 2259 -75 1647 -75 
Q 1250 -75 917 144 
Q 584 363 401 755 
Q 219 1147 219 1656 
Q 219 2153 384 2558 
Q 550 2963 881 3178 
Q 1213 3394 1622 3394 
Q 1922 3394 2156 3267 
Q 2391 3141 2538 2938 
L 2538 4581 
L 3097 4581 
L 3097 0 
L 2575 0 
z
M 797 1656 
Q 797 1019 1065 703 
Q 1334 388 1700 388 
Q 2069 388 2326 689 
Q 2584 991 2584 1609 
Q 2584 2291 2321 2609 
Q 2059 2928 1675 2928 
Q 1300 2928 1048 2622 
Q 797 2316 797 1656 
z
" transform="scale(0.015625)"/>
      <path id="ArialMT-69" d="M 425 3934 
L 425 4581 
L 988 4581 
L 988 3934 
L 425 3934 
z
M 425 0 
L 425 3319 
L 988 3319 
L 988 0 
L 425 0 
z
" transform="scale(0.015625)"/>
      <path id="ArialMT-33" d="M 269 1209 
L 831 1284 
Q 928 806 1161 595 
Q 1394 384 1728 384 
Q 2125 384 2398 659 
Q 2672 934 2672 1341 
Q 2672 1728 2419 1979 
Q 2166 2231 1775 2231 
Q 1616 2231 1378 2169 
L 1441 2663 
Q 1497 2656 1531 2656 
Q 1891 2656 2178 2843 
Q 2466 3031 2466 3422 
Q 2466 3731 2256 3934 
Q 2047 4138 1716 4138 
Q 1388 4138 1169 3931 
Q 950 3725 888 3313 
L 325 3413 
Q 428 3978 793 4289 
Q 1159 4600 1703 4600 
Q 2078 4600 2393 4439 
Q 2709 4278 2876 4000 
Q 3044 3722 3044 3409 
Q 3044 3113 2884 2869 
Q 2725 2625 2413 2481 
Q 2819 2388 3044 2092 
Q 3269 1797 3269 1353 
Q 3269 753 2831 336 
Q 2394 -81 1725 -81 
Q 1122 -81 723 278 
Q 325 638 269 1209 
z
" transform="scale(0.015625)"/>
     </defs>
     <use xlink:href="#ArialMT-41"/>
     <use xlink:href="#ArialMT-2e" x="66.699219"/>
     <use xlink:href="#ArialMT-20" x="94.482422"/>
     <use xlink:href="#ArialMT-6d" x="122.265625"/>
     <use xlink:href="#ArialMT-61" x="205.566406"/>
     <use xlink:href="#ArialMT-63" x="261.181641"/>
     <use xlink:href="#ArialMT-6c" x="311.181641"/>
     <use xlink:href="#ArialMT-65" x="333.398438"/>
     <use xlink:href="#ArialMT-6f" x="389.013672"/>
     <use xlink:href="#ArialMT-64" x="444.628906"/>
     <use xlink:href="#ArialMT-69" x="500.244141"/>
     <use xlink:href="#ArialMT-69" x="522.460938"/>
     <use xlink:href="#ArialMT-20" x="544.677734"/>
     <use xlink:href="#ArialMT-31" x="572.460938"/>
     <use xlink:href="#ArialMT-41" x="628.076172"/>
     <use xlink:href="#ArialMT-33" x="694.775391"/>
    </g>
   </g>
  </g>
  <g id="axes_2">
   <g id="patch_5">
    <path d="M 45.318 265.341 
L 183.97575 265.341 
L 183.97575 157.2635 
L 45.318 157.2635 
z
" style="fill: #ffffff"/>
   </g>
   <g id="matplotlib.axis_3">
    <g id="xtick_4"/>
    <g id="xtick_5"/>
    <g id="xtick_6"/>
   </g>
   <g id="matplotlib.axis_4">
    <g id="ytick_26">
     <g id="text_5">
      <!-- $\mathdefault{10^{-1}}$ -->
      <g style="fill: #262626" transform="translate(19.094 246.604419) scale(0.088 -0.088)">
       <use xlink:href="#ArialMT-31" transform="translate(0 0.99375)"/>
       <use xlink:href="#ArialMT-30" transform="translate(55.615234 0.99375)"/>
       <use xlink:href="#ArialMT-2212" transform="translate(112.972813 70.6875) scale(0.7)"/>
       <use xlink:href="#ArialMT-31" transform="translate(153.851719 70.6875) scale(0.7)"/>
      </g>
     </g>
    </g>
    <g id="ytick_27">
     <g id="text_6">
      <!-- $\mathdefault{10^{0}}$ -->
      <g style="fill: #262626" transform="translate(22.702 203.765459) scale(0.088 -0.088)">
       <use xlink:href="#ArialMT-31" transform="translate(0 0.99375)"/>
       <use xlink:href="#ArialMT-30" transform="translate(55.615234 0.99375)"/>
       <use xlink:href="#ArialMT-30" transform="translate(112.972813 70.6875) scale(0.7)"/>
      </g>
     </g>
    </g>
    <g id="ytick_28"/>
    <g id="ytick_29"/>
    <g id="ytick_30"/>
    <g id="ytick_31"/>
    <g id="ytick_32"/>
    <g id="ytick_33"/>
    <g id="ytick_34"/>
    <g id="ytick_35"/>
    <g id="ytick_36"/>
    <g id="ytick_37"/>
    <g id="ytick_38"/>
    <g id="ytick_39"/>
    <g id="ytick_40"/>
    <g id="ytick_41"/>
    <g id="ytick_42"/>
    <g id="ytick_43"/>
    <g id="ytick_44"/>
    <g id="ytick_45"/>
    <g id="ytick_46"/>
    <g id="ytick_47"/>
    <g id="ytick_48"/>
    <g id="ytick_49"/>
    <g id="ytick_50"/>
    <g id="text_7">
     <!-- FL -->
     <g style="fill: #262626" transform="translate(12.186 216.90325) rotate(-90) scale(0.096 -0.096)">
      <use xlink:href="#ArialMT-46"/>
      <use xlink:href="#ArialMT-4c" x="61.083984"/>
     </g>
    </g>
   </g>
   <g id="line2d_5">
    <path d="M 45.318 246.185215 
L 46.389571 259.988755 
L 47.46183 231.800231 
L 48.038883 234.549281 
L 49.036174 219.109998 
L 49.974314 213.796553 
L 50.983297 208.260723 
L 51.985402 211.566432 
L 51.985402 210.757404 
L 51.985402 209.82456 
L 53.225481 217.149795 
L 54.176002 224.053332 
L 54.970395 229.952815 
L 54.970395 228.700101 
L 54.970395 225.894083 
L 56.048844 230.045607 
L 56.048844 229.677185 
L 56.048844 224.531278 
L 56.923709 230.805089 
L 56.923709 230.421473 
L 56.923709 227.526441 
L 58.025543 231.296007 
L 58.025543 230.999905 
L 58.025543 230.516638 
L 58.882525 228.527834 
L 58.882525 228.442295 
L 58.882525 225.819812 
L 61.304221 231.596899 
L 61.884712 238.494575 
L 61.884712 237.358056 
L 61.884712 233.512217 
L 62.875125 234.313775 
L 62.875125 232.109458 
L 62.875125 229.137879 
L 63.850406 232.960108 
L 63.850406 232.529922 
L 63.850406 230.421473 
L 64.840131 235.151429 
L 64.840131 234.787807 
L 64.840131 234.787807 
L 65.897259 232.960108 
L 65.897259 231.902737 
L 65.897259 230.516638 
L 66.988776 234.313775 
L 66.988776 233.966013 
L 66.988776 232.529922 
L 68.987483 229.952815 
L 68.987483 229.768608 
L 68.987483 228.613768 
L 70.805991 228.442295 
L 70.805991 225.092973 
L 70.805991 223.068726 
L 71.808783 228.96153 
L 71.808783 228.442295 
L 71.808783 227.36466 
L 72.903739 232.213686 
L 72.903739 230.902242 
L 72.903739 228.272387 
L 74.816473 238.789895 
L 76.096444 236.549027 
L 76.831 238.060204 
L 76.831 235.647584 
L 76.831 234.081213 
L 77.782896 233.400477 
L 77.782896 232.636539 
L 77.782896 231.098083 
L 78.730666 237.084452 
L 78.730666 234.908226 
L 78.730666 231.49606 
L 79.755468 233.069227 
L 79.755468 230.805089 
L 79.755468 229.137879 
L 81.866972 246.185215 
L 82.744588 240.83297 
L 82.744588 238.348655 
L 82.744588 232.636539 
L 84.843712 231.698287 
L 84.843712 229.137879 
L 84.843712 227.937158 
L 85.770848 228.104018 
L 86.751632 230.708441 
L 89.647901 232.743771 
L 91.663803 227.689641 
L 92.777329 235.773718 
L 93.660447 237.496381 
L 94.747149 231.698287 
L 96.605548 235.02943 
L 97.811926 229.586208 
L 99.586415 236.681446 
L 103.591395 243.508104 
L 104.655401 236.814813 
L 107.607381 237.776157 
L 110.339956 247.804038 
L 111.66876 244.901622 
L 112.650231 238.641649 
L 114.450856 237.084452 
L 117.39527 239.089977 
L 118.379492 242.756296 
L 121.519925 243.895716 
L 124.348103 238.641649 
L 125.431367 246.408029 
L 126.490558 237.220751 
L 128.729303 231.800231 
L 131.377281 242.756296 
L 132.270715 237.917638 
L 133.215734 249.053146 
L 135.445538 235.02943 
L 138.206312 243.128402 
L 139.325341 239.089977 
L 141.224319 242.941419 
L 142.376362 244.49271 
L 145.093806 241.682648 
L 151.99987 240.503674 
L 155.198077 234.908226 
L 160.053161 243.895716 
L 162.968 243.128402 
L 165.928233 244.092593 
L 172.850804 242.941419 
" clip-path="url(#pd052df8820)" style="fill: none; stroke: #cc6677; stroke-width: 2; stroke-linecap: round"/>
   </g>
   <g id="line2d_6">
    <path d="M 45.318 240.83297 
L 46.389571 258.643249 
L 47.46183 242.033691 
L 48.038883 233.624633 
L 49.036174 220.955711 
L 49.974314 214.26858 
L 50.983297 207.946108 
L 51.985402 210.013762 
L 51.985402 207.86122 
L 51.985402 207.005997 
L 53.225481 218.153117 
L 54.176002 225.52566 
L 54.970395 225.745837 
L 54.970395 223.391173 
L 54.970395 220.504665 
L 56.048844 226.346042 
L 56.048844 225.598764 
L 56.048844 222.56416 
L 56.923709 229.495674 
L 56.923709 228.700101 
L 56.923709 228.188012 
L 58.025543 230.326792 
L 58.025543 229.860484 
L 58.025543 225.819812 
L 58.882525 229.137879 
L 58.882525 228.96153 
L 58.882525 228.613768 
L 61.304221 229.677185 
L 61.884712 240.667593 
L 61.884712 235.02943 
L 61.884712 227.124596 
L 62.875125 237.635743 
L 62.875125 232.318502 
L 62.875125 229.049496 
L 63.850406 239.862068 
L 63.850406 234.668162 
L 63.850406 232.318502 
L 64.840131 234.081213 
L 64.840131 233.624633 
L 64.840131 230.045607 
L 65.897259 233.289404 
L 65.897259 229.677185 
L 65.897259 228.96153 
L 66.988776 231.800231 
L 66.988776 231.196782 
L 66.988776 229.405578 
L 68.987483 233.400477 
L 68.987483 230.708441 
L 68.987483 227.854286 
L 70.805991 231.296007 
L 70.805991 229.677185 
L 70.805991 228.188012 
L 71.808783 236.949144 
L 71.808783 233.289404 
L 71.808783 228.104018 
L 72.903739 235.274233 
L 72.903739 235.151429 
L 72.903739 232.743771 
L 74.816473 239.39498 
L 76.096444 248.04724 
L 76.831 240.667593 
L 76.831 238.939331 
L 76.831 237.496381 
L 77.782896 240.341186 
L 77.782896 238.789895 
L 77.782896 236.157334 
L 78.730666 245.747437 
L 78.730666 242.033691 
L 78.730666 239.089977 
L 79.755468 235.02943 
L 79.755468 233.966013 
L 79.755468 232.529922 
L 81.866972 240.83297 
L 82.744588 237.917638 
L 82.744588 236.286984 
L 82.744588 234.908226 
L 84.843712 238.939331 
L 84.843712 236.949144 
L 84.843712 234.549281 
L 85.770848 234.787807 
L 86.751632 231.49606 
L 89.647901 235.151429 
L 91.663803 239.241853 
L 92.777329 237.776157 
L 93.660447 230.421473 
L 94.747149 237.358056 
L 96.605548 234.313775 
L 97.811926 234.787807 
L 99.586415 230.612292 
L 103.591395 236.949144 
L 104.655401 237.496381 
L 107.607381 248.04724 
L 110.339956 242.941419 
L 111.66876 246.861825 
L 112.650231 249.844956 
L 114.450856 243.700901 
L 117.39527 243.895716 
L 118.379492 242.033691 
L 121.519925 242.033691 
L 124.348103 244.696043 
L 125.431367 239.39498 
L 126.490558 242.391485 
L 128.729303 240.180106 
L 131.377281 248.04724 
L 132.270715 249.053146 
L 133.215734 248.04724 
L 135.445538 232.00581 
L 138.206312 244.901622 
L 139.325341 240.341186 
L 141.224319 238.203871 
L 142.376362 244.49271 
L 145.093806 236.417544 
L 151.99987 241.338106 
L 155.198077 246.861825 
L 160.053161 242.756296 
L 162.968 233.851523 
L 165.928233 237.084452 
L 172.850804 240.667593 
" clip-path="url(#pd052df8820)" style="fill: none; stroke: #cc6677; stroke-width: 2; stroke-linecap: round"/>
   </g>
   <g id="line2d_7">
    <path d="M 45.318 239.862068 
L 46.389571 255.468808 
L 47.46183 242.941419 
L 48.038883 234.081213 
L 49.036174 222.440128 
L 49.974314 213.757753 
L 50.983297 204.725014 
L 51.985402 212.813148 
L 51.985402 210.204908 
L 51.985402 208.906378 
L 53.225481 220.84192 
L 54.176002 224.053332 
L 54.970395 226.809254 
L 54.970395 226.194166 
L 54.970395 226.11869 
L 56.048844 228.527834 
L 56.048844 224.880345 
L 56.048844 223.653215 
L 56.923709 227.607862 
L 56.923709 225.236087 
L 56.923709 224.324939 
L 58.025543 229.405578 
L 58.025543 228.272387 
L 58.025543 226.043519 
L 58.882525 231.196782 
L 58.882525 230.999905 
L 58.882525 225.092973 
L 61.304221 228.020401 
L 61.884712 234.081213 
L 61.884712 233.624633 
L 61.884712 228.020401 
L 62.875125 233.624633 
L 62.875125 233.512217 
L 62.875125 232.423911 
L 63.850406 235.773718 
L 63.850406 234.197131 
L 63.850406 234.197131 
L 64.840131 230.805089 
L 64.840131 229.495674 
L 64.840131 228.613768 
L 65.897259 235.274233 
L 65.897259 232.318502 
L 65.897259 229.860484 
L 66.988776 236.157334 
L 66.988776 232.636539 
L 66.988776 232.636539 
L 68.987483 235.151429 
L 68.987483 228.272387 
L 68.987483 228.104018 
L 70.805991 233.851523 
L 70.805991 230.805089 
L 70.805991 227.204273 
L 71.808783 229.315916 
L 71.808783 228.96153 
L 71.808783 227.854286 
L 72.903739 233.400477 
L 72.903739 230.902242 
L 72.903739 230.232591 
L 74.816473 228.786836 
L 76.096444 256.213096 
L 76.831 235.647584 
L 76.831 234.081213 
L 76.831 233.400477 
L 77.782896 242.572996 
L 77.782896 241.682648 
L 77.782896 238.939331 
L 78.730666 242.572996 
L 78.730666 237.635743 
L 78.730666 236.286984 
L 79.755468 239.705065 
L 79.755468 234.197131 
L 79.755468 233.178989 
L 81.866972 238.939331 
L 82.744588 236.549027 
L 82.744588 234.908226 
L 82.744588 234.081213 
L 84.843712 236.157334 
L 84.843712 234.549281 
L 84.843712 232.960108 
L 85.770848 230.421473 
L 86.751632 231.395765 
L 89.647901 233.178989 
L 91.663803 236.549027 
L 92.777329 233.624633 
L 93.660447 231.596899 
L 94.747149 232.109458 
L 96.605548 236.157334 
L 97.811926 232.851625 
L 99.586415 242.391485 
L 103.591395 236.157334 
L 104.655401 233.289404 
L 107.607381 245.109498 
L 110.339956 240.503674 
L 111.66876 242.211728 
L 112.650231 240.83297 
L 114.450856 246.633544 
L 117.39527 250.392193 
L 118.379492 239.241853 
L 121.519925 249.053146 
L 124.348103 240.503674 
L 125.431367 244.49271 
L 126.490558 237.358056 
L 128.729303 238.939331 
L 131.377281 237.635743 
L 132.270715 238.789895 
L 133.215734 248.293664 
L 135.445538 240.83297 
L 138.206312 242.941419 
L 139.325341 239.549377 
L 141.224319 240.503674 
L 142.376362 240.020407 
L 145.093806 240.180106 
L 151.99987 238.939331 
L 155.198077 243.508104 
L 160.053161 232.960108 
L 162.968 238.348655 
L 165.928233 245.319723 
L 172.850804 241.338106 
" clip-path="url(#pd052df8820)" style="fill: none; stroke: #cc6677; stroke-width: 2; stroke-linecap: round"/>
   </g>
   <g id="line2d_8">
    <path d="M 45.318 239.140465 
L 46.389571 253.951595 
L 47.46183 235.02943 
L 48.038883 227.799243 
L 49.036174 220.635094 
L 49.974314 210.495361 
L 50.983297 199.612833 
L 51.985402 191.301411 
L 53.225481 180.409648 
L 54.176002 183.983327 
L 54.970395 191.141096 
L 56.048844 200.842571 
L 56.923709 201.555147 
L 58.025543 203.126079 
L 58.882525 202.450251 
L 61.304221 207.534731 
L 61.884712 207.987119 
L 62.875125 212.216972 
L 63.850406 217.467743 
L 64.840131 219.859913 
L 65.897259 221.712815 
L 66.988776 229.405578 
L 68.987483 235.260548 
L 70.805991 235.88656 
L 71.808783 240.162293 
L 72.903739 248.515482 
L 74.816473 259.988755 
L 76.096444 259.988755 
L 76.831 258.885186 
L 77.782896 259.179726 
L 78.730666 257.843428 
L 79.755468 257.254192 
L 81.866972 259.988755 
L 82.744588 257.209629 
L 84.843712 258.691385 
L 85.770848 259.988755 
L 86.751632 258.788033 
L 89.647901 259.988755 
L 91.663803 259.988755 
L 92.777329 259.529355 
L 93.660447 253.728782 
L 94.747149 259.988755 
L 96.605548 259.988755 
L 97.811926 259.378709 
L 99.586415 259.988755 
L 103.591395 256.340091 
L 104.655401 259.529355 
L 107.607381 259.988755 
L 110.339956 258.075121 
L 111.66876 259.988755 
L 112.650231 259.378709 
L 114.450856 259.988755 
L 117.39527 258.788033 
L 118.379492 259.988755 
L 121.519925 258.215535 
L 124.348103 259.988755 
L 125.431367 259.529355 
L 126.490558 258.788033 
L 128.729303 259.988755 
L 131.377281 259.988755 
L 132.270715 257.660129 
L 133.215734 259.529355 
L 135.445538 257.254192 
L 138.206312 258.788033 
L 139.325341 259.988755 
L 141.224319 259.988755 
L 142.376362 259.529355 
L 145.093806 259.988755 
L 151.99987 259.988755 
L 155.198077 259.988755 
L 160.053161 259.529355 
L 162.968 253.839855 
L 165.928233 259.988755 
L 172.850804 259.988755 
" clip-path="url(#pd052df8820)" style="fill: none; stroke: #000000; stroke-linecap: round"/>
   </g>
   <g id="patch_6">
    <path d="M 45.318 265.341 
L 45.318 157.2635 
" style="fill: none; stroke: #262626; stroke-linejoin: miter; stroke-linecap: square"/>
   </g>
   <g id="patch_7">
    <path d="M 45.318 265.341 
L 183.97575 265.341 
" style="fill: none; stroke: #262626; stroke-linejoin: miter; stroke-linecap: square"/>
   </g>
   <g id="text_8">
    <!-- Ruegeria pomeroyi -->
    <g style="fill: #262626" transform="translate(74.095875 152.2635) scale(0.096 -0.096)">
     <defs>
      <path id="ArialMT-52" d="M 503 0 
L 503 4581 
L 2534 4581 
Q 3147 4581 3465 4457 
Q 3784 4334 3975 4021 
Q 4166 3709 4166 3331 
Q 4166 2844 3850 2509 
Q 3534 2175 2875 2084 
Q 3116 1969 3241 1856 
Q 3506 1613 3744 1247 
L 4541 0 
L 3778 0 
L 3172 953 
Q 2906 1366 2734 1584 
Q 2563 1803 2427 1890 
Q 2291 1978 2150 2013 
Q 2047 2034 1813 2034 
L 1109 2034 
L 1109 0 
L 503 0 
z
M 1109 2559 
L 2413 2559 
Q 2828 2559 3062 2645 
Q 3297 2731 3419 2920 
Q 3541 3109 3541 3331 
Q 3541 3656 3305 3865 
Q 3069 4075 2559 4075 
L 1109 4075 
L 1109 2559 
z
" transform="scale(0.015625)"/>
      <path id="ArialMT-75" d="M 2597 0 
L 2597 488 
Q 2209 -75 1544 -75 
Q 1250 -75 995 37 
Q 741 150 617 320 
Q 494 491 444 738 
Q 409 903 409 1263 
L 409 3319 
L 972 3319 
L 972 1478 
Q 972 1038 1006 884 
Q 1059 663 1231 536 
Q 1403 409 1656 409 
Q 1909 409 2131 539 
Q 2353 669 2445 892 
Q 2538 1116 2538 1541 
L 2538 3319 
L 3100 3319 
L 3100 0 
L 2597 0 
z
" transform="scale(0.015625)"/>
      <path id="ArialMT-67" d="M 319 -275 
L 866 -356 
Q 900 -609 1056 -725 
Q 1266 -881 1628 -881 
Q 2019 -881 2231 -725 
Q 2444 -569 2519 -288 
Q 2563 -116 2559 434 
Q 2191 0 1641 0 
Q 956 0 581 494 
Q 206 988 206 1678 
Q 206 2153 378 2554 
Q 550 2956 876 3175 
Q 1203 3394 1644 3394 
Q 2231 3394 2613 2919 
L 2613 3319 
L 3131 3319 
L 3131 450 
Q 3131 -325 2973 -648 
Q 2816 -972 2473 -1159 
Q 2131 -1347 1631 -1347 
Q 1038 -1347 672 -1080 
Q 306 -813 319 -275 
z
M 784 1719 
Q 784 1066 1043 766 
Q 1303 466 1694 466 
Q 2081 466 2343 764 
Q 2606 1063 2606 1700 
Q 2606 2309 2336 2618 
Q 2066 2928 1684 2928 
Q 1309 2928 1046 2623 
Q 784 2319 784 1719 
z
" transform="scale(0.015625)"/>
      <path id="ArialMT-72" d="M 416 0 
L 416 3319 
L 922 3319 
L 922 2816 
Q 1116 3169 1280 3281 
Q 1444 3394 1641 3394 
Q 1925 3394 2219 3213 
L 2025 2691 
Q 1819 2813 1613 2813 
Q 1428 2813 1281 2702 
Q 1134 2591 1072 2394 
Q 978 2094 978 1738 
L 978 0 
L 416 0 
z
" transform="scale(0.015625)"/>
      <path id="ArialMT-70" d="M 422 -1272 
L 422 3319 
L 934 3319 
L 934 2888 
Q 1116 3141 1344 3267 
Q 1572 3394 1897 3394 
Q 2322 3394 2647 3175 
Q 2972 2956 3137 2557 
Q 3303 2159 3303 1684 
Q 3303 1175 3120 767 
Q 2938 359 2589 142 
Q 2241 -75 1856 -75 
Q 1575 -75 1351 44 
Q 1128 163 984 344 
L 984 -1272 
L 422 -1272 
z
M 931 1641 
Q 931 1000 1190 694 
Q 1450 388 1819 388 
Q 2194 388 2461 705 
Q 2728 1022 2728 1688 
Q 2728 2322 2467 2637 
Q 2206 2953 1844 2953 
Q 1484 2953 1207 2617 
Q 931 2281 931 1641 
z
" transform="scale(0.015625)"/>
      <path id="ArialMT-79" d="M 397 -1278 
L 334 -750 
Q 519 -800 656 -800 
Q 844 -800 956 -737 
Q 1069 -675 1141 -563 
Q 1194 -478 1313 -144 
Q 1328 -97 1363 -6 
L 103 3319 
L 709 3319 
L 1400 1397 
Q 1534 1031 1641 628 
Q 1738 1016 1872 1384 
L 2581 3319 
L 3144 3319 
L 1881 -56 
Q 1678 -603 1566 -809 
Q 1416 -1088 1222 -1217 
Q 1028 -1347 759 -1347 
Q 597 -1347 397 -1278 
z
" transform="scale(0.015625)"/>
     </defs>
     <use xlink:href="#ArialMT-52"/>
     <use xlink:href="#ArialMT-75" x="72.216797"/>
     <use xlink:href="#ArialMT-65" x="127.832031"/>
     <use xlink:href="#ArialMT-67" x="183.447266"/>
     <use xlink:href="#ArialMT-65" x="239.0625"/>
     <use xlink:href="#ArialMT-72" x="294.677734"/>
     <use xlink:href="#ArialMT-69" x="327.978516"/>
     <use xlink:href="#ArialMT-61" x="350.195312"/>
     <use xlink:href="#ArialMT-20" x="405.810547"/>
     <use xlink:href="#ArialMT-70" x="433.59375"/>
     <use xlink:href="#ArialMT-6f" x="489.208984"/>
     <use xlink:href="#ArialMT-6d" x="544.824219"/>
     <use xlink:href="#ArialMT-65" x="628.125"/>
     <use xlink:href="#ArialMT-72" x="683.740234"/>
     <use xlink:href="#ArialMT-6f" x="717.041016"/>
     <use xlink:href="#ArialMT-79" x="772.65625"/>
     <use xlink:href="#ArialMT-69" x="822.65625"/>
    </g>
   </g>
  </g>
  <g id="axes_3">
   <g id="patch_8">
    <path d="M 45.318 400.0365 
L 183.97575 400.0365 
L 183.97575 291.959 
L 45.318 291.959 
z
" style="fill: #ffffff"/>
   </g>
   <g id="matplotlib.axis_5">
    <g id="xtick_7"/>
    <g id="xtick_8"/>
    <g id="xtick_9"/>
   </g>
   <g id="matplotlib.axis_6">
    <g id="ytick_51">
     <g id="text_9">
      <!-- $\mathdefault{10^{-1}}$ -->
      <g style="fill: #262626" transform="translate(19.094 381.299919) scale(0.088 -0.088)">
       <use xlink:href="#ArialMT-31" transform="translate(0 0.99375)"/>
       <use xlink:href="#ArialMT-30" transform="translate(55.615234 0.99375)"/>
       <use xlink:href="#ArialMT-2212" transform="translate(112.972813 70.6875) scale(0.7)"/>
       <use xlink:href="#ArialMT-31" transform="translate(153.851719 70.6875) scale(0.7)"/>
      </g>
     </g>
    </g>
    <g id="ytick_52">
     <g id="text_10">
      <!-- $\mathdefault{10^{0}}$ -->
      <g style="fill: #262626" transform="translate(22.702 338.460959) scale(0.088 -0.088)">
       <use xlink:href="#ArialMT-31" transform="translate(0 0.99375)"/>
       <use xlink:href="#ArialMT-30" transform="translate(55.615234 0.99375)"/>
       <use xlink:href="#ArialMT-30" transform="translate(112.972813 70.6875) scale(0.7)"/>
      </g>
     </g>
    </g>
    <g id="ytick_53"/>
    <g id="ytick_54"/>
    <g id="ytick_55"/>
    <g id="ytick_56"/>
    <g id="ytick_57"/>
    <g id="ytick_58"/>
    <g id="ytick_59"/>
    <g id="ytick_60"/>
    <g id="ytick_61"/>
    <g id="ytick_62"/>
    <g id="ytick_63"/>
    <g id="ytick_64"/>
    <g id="ytick_65"/>
    <g id="ytick_66"/>
    <g id="ytick_67"/>
    <g id="ytick_68"/>
    <g id="ytick_69"/>
    <g id="ytick_70"/>
    <g id="ytick_71"/>
    <g id="ytick_72"/>
    <g id="ytick_73"/>
    <g id="ytick_74"/>
    <g id="ytick_75"/>
    <g id="text_11">
     <!-- FL -->
     <g style="fill: #262626" transform="translate(12.186 351.59875) rotate(-90) scale(0.096 -0.096)">
      <use xlink:href="#ArialMT-46"/>
      <use xlink:href="#ArialMT-4c" x="61.083984"/>
     </g>
    </g>
   </g>
   <g id="line2d_9">
    <path d="M 45.318 381.788443 
L 46.389571 377.823902 
L 47.46183 369.009275 
L 48.038883 361.194668 
L 49.036174 356.113464 
L 49.974314 346.574624 
L 50.983297 340.500775 
L 51.985402 336.573039 
L 51.985402 334.705168 
L 51.985402 334.520961 
L 53.225481 351.476873 
L 54.176002 353.245533 
L 54.970395 354.651313 
L 54.970395 354.276529 
L 54.970395 352.99647 
L 56.048844 357.82827 
L 56.048844 357.135628 
L 56.048844 356.05505 
L 56.923709 359.859892 
L 56.923709 356.890018 
L 56.923709 354.759796 
L 58.025543 365.022292 
L 58.025543 363.137795 
L 58.025543 358.481134 
L 58.882525 365.212138 
L 58.882525 363.833379 
L 58.882525 363.052647 
L 61.304221 367.655608 
L 61.884712 366.292399 
L 61.884712 365.212138 
L 61.884712 361.899773 
L 62.875125 372.899371 
L 62.875125 368.892631 
L 62.875125 367.547125 
L 63.850406 372.331243 
L 63.850406 371.113044 
L 63.850406 369.363662 
L 64.840131 376.552842 
L 64.840131 376.033606 
L 64.840131 374.557568 
L 65.897259 374.715907 
L 65.897259 372.331243 
L 65.897259 368.661513 
L 66.988776 382.74274 
L 66.988776 379.597122 
L 66.988776 378.591216 
L 68.987483 390.164308 
L 68.987483 386.833165 
L 68.987483 384.008856 
L 70.805991 394.684255 
L 70.805991 394.684255 
L 70.805991 394.684255 
L 71.808783 391.683905 
L 71.808783 388.424282 
L 71.808783 388.094986 
L 72.903739 394.684255 
L 72.903739 394.684255 
L 72.903739 393.776527 
L 74.816473 394.684255 
L 76.096444 394.684255 
L 76.831 394.684255 
L 76.831 394.684255 
L 76.831 384.008856 
L 77.782896 394.684255 
L 77.782896 394.684255 
L 77.782896 394.684255 
L 78.730666 394.684255 
L 78.730666 394.684255 
L 78.730666 394.684255 
L 79.755468 394.684255 
L 79.755468 394.684255 
L 79.755468 388.424282 
L 81.866972 394.684255 
L 82.744588 394.684255 
L 82.744588 394.684255 
L 82.744588 394.684255 
L 84.843712 394.684255 
L 84.843712 393.338749 
L 84.843712 393.338749 
L 85.770848 394.684255 
L 86.751632 389.80304 
L 89.647901 391.292212 
L 91.663803 394.684255 
L 92.777329 394.684255 
L 93.660447 394.684255 
L 94.747149 391.292212 
L 96.605548 391.292212 
L 97.811926 394.684255 
L 99.586415 394.684255 
L 103.591395 389.448654 
L 104.655401 394.684255 
L 107.607381 389.80304 
L 110.339956 394.684255 
L 111.66876 393.338749 
L 112.650231 394.684255 
L 114.450856 381.103529 
L 117.39527 394.684255 
L 118.379492 393.776527 
L 121.519925 391.292212 
L 124.348103 389.448654 
L 125.431367 394.684255 
L 126.490558 383.492025 
L 128.729303 394.684255 
L 131.377281 391.292212 
L 132.270715 381.329044 
L 133.215734 381.788443 
L 135.445538 394.684255 
L 138.206312 394.684255 
L 139.325341 394.684255 
L 141.224319 394.684255 
L 142.376362 391.292212 
L 145.093806 394.684255 
L 151.99987 394.684255 
L 155.198077 387.45338 
L 160.053161 391.683905 
L 162.968 391.683905 
L 165.928233 394.684255 
L 172.850804 384.008856 
" clip-path="url(#p53cfa08815)" style="fill: none; stroke: #44aa99; stroke-width: 2; stroke-linecap: round"/>
   </g>
   <g id="line2d_10">
    <path d="M 45.318 380.880715 
L 46.389571 388.094986 
L 47.46183 371.916251 
L 48.038883 365.307792 
L 49.036174 368.433232 
L 49.974314 356.113464 
L 50.983297 350.849184 
L 51.985402 346.680033 
L 51.985402 346.400258 
L 51.985402 345.321421 
L 53.225481 362.883512 
L 54.176002 361.426746 
L 54.970395 366.804958 
L 54.970395 365.403941 
L 54.970395 364.834364 
L 56.048844 378.788093 
L 56.048844 365.307792 
L 56.048844 365.022292 
L 56.923709 374.400565 
L 56.923709 372.471657 
L 56.923709 371.113044 
L 58.025543 373.190075 
L 58.025543 372.053556 
L 58.025543 371.916251 
L 58.882525 375.695329 
L 58.882525 374.557568 
L 58.882525 370.469218 
L 61.304221 380.660538 
L 61.884712 378.788093 
L 61.884712 375.363093 
L 61.884712 369.969733 
L 62.875125 393.338749 
L 62.875125 385.651516 
L 62.875125 380.880715 
L 63.850406 385.367469 
L 63.850406 381.557325 
L 63.850406 371.113044 
L 64.840131 377.636919 
L 64.840131 375.863699 
L 64.840131 374.400565 
L 65.897259 392.911035 
L 65.897259 379.18821 
L 65.897259 374.244877 
L 66.988776 386.530643 
L 66.988776 384.008856 
L 66.988776 378.788093 
L 68.987483 394.684255 
L 68.987483 391.683905 
L 68.987483 386.833165 
L 70.805991 391.292212 
L 70.805991 388.094986 
L 70.805991 385.367469 
L 71.808783 394.684255 
L 71.808783 391.292212 
L 71.808783 384.008856 
L 72.903739 394.684255 
L 72.903739 394.684255 
L 72.903739 394.684255 
L 74.816473 394.684255 
L 76.096444 394.684255 
L 76.831 394.684255 
L 76.831 394.684255 
L 76.831 379.391543 
L 77.782896 394.684255 
L 77.782896 389.448654 
L 77.782896 387.771417 
L 78.730666 391.683905 
L 78.730666 389.448654 
L 78.730666 385.087693 
L 79.755468 394.684255 
L 79.755468 391.683905 
L 79.755468 389.80304 
L 81.866972 394.684255 
L 82.744588 394.684255 
L 82.744588 394.684255 
L 82.744588 394.684255 
L 84.843712 394.684255 
L 84.843712 394.684255 
L 84.843712 380.660538 
L 85.770848 391.683905 
L 86.751632 394.684255 
L 89.647901 394.684255 
L 91.663803 394.684255 
L 92.777329 389.80304 
L 93.660447 389.448654 
L 94.747149 394.684255 
L 96.605548 394.684255 
L 97.811926 394.684255 
L 99.586415 394.684255 
L 103.591395 394.684255 
L 104.655401 391.683905 
L 107.607381 389.80304 
L 110.339956 394.684255 
L 111.66876 388.094986 
L 112.650231 389.448654 
L 114.450856 383.748646 
L 117.39527 380.880715 
L 118.379492 394.684255 
L 121.519925 393.338749 
L 124.348103 387.771417 
L 125.431367 386.232961 
L 126.490558 394.684255 
L 128.729303 382.499538 
L 131.377281 394.684255 
L 132.270715 394.684255 
L 133.215734 385.087693 
L 135.445538 392.911035 
L 138.206312 394.684255 
L 139.325341 382.74274 
L 141.224319 394.684255 
L 142.376362 389.448654 
L 145.093806 392.911035 
L 151.99987 394.684255 
L 155.198077 391.292212 
L 160.053161 382.74274 
L 162.968 394.684255 
L 165.928233 385.939967 
L 172.850804 394.684255 
" clip-path="url(#p53cfa08815)" style="fill: none; stroke: #44aa99; stroke-width: 2; stroke-linecap: round"/>
   </g>
   <g id="line2d_11">
    <path d="M 45.318 388.424282 
L 46.389571 390.164308 
L 47.46183 376.378148 
L 48.038883 372.331243 
L 49.036174 370.217799 
L 49.974314 358.952165 
L 50.983297 361.979794 
L 51.985402 372.613138 
L 51.985402 368.661513 
L 51.985402 367.984904 
L 53.225481 394.684255 
L 54.176002 377.636919 
L 54.970395 386.833165 
L 54.970395 384.272757 
L 54.970395 380.660538 
L 56.048844 387.771417 
L 56.048844 385.087693 
L 56.048844 378.788093 
L 56.923709 388.424282 
L 56.923709 381.557325 
L 56.923709 380.660538 
L 58.025543 394.684255 
L 58.025543 380.880715 
L 58.025543 380.660538 
L 58.882525 386.530643 
L 58.882525 382.259474 
L 58.882525 381.788443 
L 61.304221 378.591216 
L 61.884712 389.80304 
L 61.884712 382.74274 
L 61.884712 378.396401 
L 62.875125 392.084022 
L 62.875125 388.094986 
L 62.875125 382.022468 
L 63.850406 393.776527 
L 63.850406 391.683905 
L 63.850406 388.094986 
L 64.840131 394.684255 
L 64.840131 391.292212 
L 64.840131 386.530643 
L 65.897259 393.338749 
L 65.897259 391.292212 
L 65.897259 386.232961 
L 66.988776 394.684255 
L 66.988776 388.424282 
L 66.988776 385.367469 
L 68.987483 394.684255 
L 68.987483 393.776527 
L 68.987483 393.338749 
L 70.805991 394.684255 
L 70.805991 393.338749 
L 70.805991 387.771417 
L 71.808783 394.684255 
L 71.808783 393.776527 
L 71.808783 384.008856 
L 72.903739 394.684255 
L 72.903739 393.338749 
L 72.903739 386.530643 
L 74.816473 394.684255 
L 76.096444 394.684255 
L 76.831 394.684255 
L 76.831 393.338749 
L 76.831 391.683905 
L 77.782896 394.684255 
L 77.782896 394.684255 
L 77.782896 382.499538 
L 78.730666 394.684255 
L 78.730666 394.684255 
L 78.730666 394.684255 
L 79.755468 394.684255 
L 79.755468 394.684255 
L 79.755468 385.087693 
L 81.866972 394.684255 
L 82.744588 394.684255 
L 82.744588 394.684255 
L 82.744588 388.424282 
L 84.843712 394.684255 
L 84.843712 394.684255 
L 84.843712 389.80304 
L 85.770848 387.771417 
L 86.751632 394.684255 
L 89.647901 394.684255 
L 91.663803 391.683905 
L 92.777329 394.684255 
L 93.660447 389.80304 
L 94.747149 388.094986 
L 96.605548 377.636919 
L 97.811926 390.908596 
L 99.586415 386.833165 
L 103.591395 393.338749 
L 104.655401 394.684255 
L 107.607381 391.292212 
L 110.339956 394.684255 
L 111.66876 394.684255 
L 112.650231 394.684255 
L 114.450856 383.748646 
L 117.39527 391.683905 
L 118.379492 386.530643 
L 121.519925 389.80304 
L 124.348103 391.292212 
L 125.431367 389.448654 
L 126.490558 394.684255 
L 128.729303 391.292212 
L 131.377281 388.424282 
L 132.270715 381.103529 
L 133.215734 394.684255 
L 135.445538 392.911035 
L 138.206312 391.683905 
L 139.325341 394.684255 
L 141.224319 386.833165 
L 142.376362 392.911035 
L 145.093806 388.094986 
L 151.99987 394.684255 
L 155.198077 394.684255 
L 160.053161 394.684255 
L 162.968 394.684255 
L 165.928233 392.492934 
L 172.850804 388.094986 
" clip-path="url(#p53cfa08815)" style="fill: none; stroke: #44aa99; stroke-width: 2; stroke-linecap: round"/>
   </g>
   <g id="line2d_12">
    <path d="M 45.318 373.835965 
L 46.389571 388.647095 
L 47.46183 369.72493 
L 48.038883 362.494743 
L 49.036174 355.330594 
L 49.974314 345.190861 
L 50.983297 334.308333 
L 51.985402 325.996911 
L 53.225481 315.105148 
L 54.176002 318.678827 
L 54.970395 325.836596 
L 56.048844 335.538071 
L 56.923709 336.250647 
L 58.025543 337.821579 
L 58.882525 337.145751 
L 61.304221 342.230231 
L 61.884712 342.682619 
L 62.875125 346.912472 
L 63.850406 352.163243 
L 64.840131 354.555413 
L 65.897259 356.408315 
L 66.988776 364.101078 
L 68.987483 369.956048 
L 70.805991 370.58206 
L 71.808783 374.857793 
L 72.903739 383.210982 
L 74.816473 394.684255 
L 76.096444 394.684255 
L 76.831 393.580686 
L 77.782896 393.875226 
L 78.730666 392.538928 
L 79.755468 391.949692 
L 81.866972 394.684255 
L 82.744588 391.905129 
L 84.843712 393.386885 
L 85.770848 394.684255 
L 86.751632 393.483533 
L 89.647901 394.684255 
L 91.663803 394.684255 
L 92.777329 394.224855 
L 93.660447 388.424282 
L 94.747149 394.684255 
L 96.605548 394.684255 
L 97.811926 394.074209 
L 99.586415 394.684255 
L 103.591395 391.035591 
L 104.655401 394.224855 
L 107.607381 394.684255 
L 110.339956 392.770621 
L 111.66876 394.684255 
L 112.650231 394.074209 
L 114.450856 394.684255 
L 117.39527 393.483533 
L 118.379492 394.684255 
L 121.519925 392.911035 
L 124.348103 394.684255 
L 125.431367 394.224855 
L 126.490558 393.483533 
L 128.729303 394.684255 
L 131.377281 394.684255 
L 132.270715 392.355629 
L 133.215734 394.224855 
L 135.445538 391.949692 
L 138.206312 393.483533 
L 139.325341 394.684255 
L 141.224319 394.684255 
L 142.376362 394.224855 
L 145.093806 394.684255 
L 151.99987 394.684255 
L 155.198077 394.684255 
L 160.053161 394.224855 
L 162.968 388.535355 
L 165.928233 394.684255 
L 172.850804 394.684255 
" clip-path="url(#p53cfa08815)" style="fill: none; stroke: #000000; stroke-linecap: round"/>
   </g>
   <g id="patch_9">
    <path d="M 45.318 400.0365 
L 45.318 291.959 
" style="fill: none; stroke: #262626; stroke-linejoin: miter; stroke-linecap: square"/>
   </g>
   <g id="patch_10">
    <path d="M 45.318 400.0365 
L 183.97575 400.0365 
" style="fill: none; stroke: #262626; stroke-linejoin: miter; stroke-linecap: square"/>
   </g>
   <g id="text_12">
    <!-- Roseovarius 5C3 -->
    <g style="fill: #262626" transform="translate(77.830875 286.959) scale(0.096 -0.096)">
     <defs>
      <path id="ArialMT-73" d="M 197 991 
L 753 1078 
Q 800 744 1014 566 
Q 1228 388 1613 388 
Q 2000 388 2187 545 
Q 2375 703 2375 916 
Q 2375 1106 2209 1216 
Q 2094 1291 1634 1406 
Q 1016 1563 777 1677 
Q 538 1791 414 1992 
Q 291 2194 291 2438 
Q 291 2659 392 2848 
Q 494 3038 669 3163 
Q 800 3259 1026 3326 
Q 1253 3394 1513 3394 
Q 1903 3394 2198 3281 
Q 2494 3169 2634 2976 
Q 2775 2784 2828 2463 
L 2278 2388 
Q 2241 2644 2061 2787 
Q 1881 2931 1553 2931 
Q 1166 2931 1000 2803 
Q 834 2675 834 2503 
Q 834 2394 903 2306 
Q 972 2216 1119 2156 
Q 1203 2125 1616 2013 
Q 2213 1853 2448 1751 
Q 2684 1650 2818 1456 
Q 2953 1263 2953 975 
Q 2953 694 2789 445 
Q 2625 197 2315 61 
Q 2006 -75 1616 -75 
Q 969 -75 630 194 
Q 291 463 197 991 
z
" transform="scale(0.015625)"/>
      <path id="ArialMT-76" d="M 1344 0 
L 81 3319 
L 675 3319 
L 1388 1331 
Q 1503 1009 1600 663 
Q 1675 925 1809 1294 
L 2547 3319 
L 3125 3319 
L 1869 0 
L 1344 0 
z
" transform="scale(0.015625)"/>
      <path id="ArialMT-35" d="M 266 1200 
L 856 1250 
Q 922 819 1161 601 
Q 1400 384 1738 384 
Q 2144 384 2425 690 
Q 2706 997 2706 1503 
Q 2706 1984 2436 2262 
Q 2166 2541 1728 2541 
Q 1456 2541 1237 2417 
Q 1019 2294 894 2097 
L 366 2166 
L 809 4519 
L 3088 4519 
L 3088 3981 
L 1259 3981 
L 1013 2750 
Q 1425 3038 1878 3038 
Q 2478 3038 2890 2622 
Q 3303 2206 3303 1553 
Q 3303 931 2941 478 
Q 2500 -78 1738 -78 
Q 1113 -78 717 272 
Q 322 622 266 1200 
z
" transform="scale(0.015625)"/>
      <path id="ArialMT-43" d="M 3763 1606 
L 4369 1453 
Q 4178 706 3683 314 
Q 3188 -78 2472 -78 
Q 1731 -78 1267 223 
Q 803 525 561 1097 
Q 319 1669 319 2325 
Q 319 3041 592 3573 
Q 866 4106 1370 4382 
Q 1875 4659 2481 4659 
Q 3169 4659 3637 4309 
Q 4106 3959 4291 3325 
L 3694 3184 
Q 3534 3684 3231 3912 
Q 2928 4141 2469 4141 
Q 1941 4141 1586 3887 
Q 1231 3634 1087 3207 
Q 944 2781 944 2328 
Q 944 1744 1114 1308 
Q 1284 872 1643 656 
Q 2003 441 2422 441 
Q 2931 441 3284 734 
Q 3638 1028 3763 1606 
z
" transform="scale(0.015625)"/>
     </defs>
     <use xlink:href="#ArialMT-52"/>
     <use xlink:href="#ArialMT-6f" x="72.216797"/>
     <use xlink:href="#ArialMT-73" x="127.832031"/>
     <use xlink:href="#ArialMT-65" x="177.832031"/>
     <use xlink:href="#ArialMT-6f" x="233.447266"/>
     <use xlink:href="#ArialMT-76" x="289.0625"/>
     <use xlink:href="#ArialMT-61" x="339.0625"/>
     <use xlink:href="#ArialMT-72" x="394.677734"/>
     <use xlink:href="#ArialMT-69" x="427.978516"/>
     <use xlink:href="#ArialMT-75" x="450.195312"/>
     <use xlink:href="#ArialMT-73" x="505.810547"/>
     <use xlink:href="#ArialMT-20" x="555.810547"/>
     <use xlink:href="#ArialMT-35" x="583.59375"/>
     <use xlink:href="#ArialMT-43" x="639.208984"/>
     <use xlink:href="#ArialMT-33" x="711.425781"/>
    </g>
   </g>
  </g>
  <g id="axes_4">
   <g id="patch_11">
    <path d="M 45.318 534.732 
L 183.97575 534.732 
L 183.97575 426.6545 
L 45.318 426.6545 
z
" style="fill: #ffffff"/>
   </g>
   <g id="matplotlib.axis_7">
    <g id="xtick_10">
     <g id="text_13">
      <!-- 0 -->
      <g style="fill: #262626" transform="translate(42.871187 549.830875) scale(0.088 -0.088)">
       <use xlink:href="#ArialMT-30"/>
      </g>
     </g>
    </g>
    <g id="xtick_11">
     <g id="text_14">
      <!-- 60 -->
      <g style="fill: #262626" transform="translate(99.849125 549.830875) scale(0.088 -0.088)">
       <defs>
        <path id="ArialMT-36" d="M 3184 3459 
L 2625 3416 
Q 2550 3747 2413 3897 
Q 2184 4138 1850 4138 
Q 1581 4138 1378 3988 
Q 1113 3794 959 3422 
Q 806 3050 800 2363 
Q 1003 2672 1297 2822 
Q 1591 2972 1913 2972 
Q 2475 2972 2870 2558 
Q 3266 2144 3266 1488 
Q 3266 1056 3080 686 
Q 2894 316 2569 119 
Q 2244 -78 1831 -78 
Q 1128 -78 684 439 
Q 241 956 241 2144 
Q 241 3472 731 4075 
Q 1159 4600 1884 4600 
Q 2425 4600 2770 4297 
Q 3116 3994 3184 3459 
z
M 888 1484 
Q 888 1194 1011 928 
Q 1134 663 1356 523 
Q 1578 384 1822 384 
Q 2178 384 2434 671 
Q 2691 959 2691 1453 
Q 2691 1928 2437 2201 
Q 2184 2475 1800 2475 
Q 1419 2475 1153 2201 
Q 888 1928 888 1484 
z
" transform="scale(0.015625)"/>
       </defs>
       <use xlink:href="#ArialMT-36"/>
       <use xlink:href="#ArialMT-30" x="55.615234"/>
      </g>
     </g>
    </g>
    <g id="xtick_12">
     <g id="text_15">
      <!-- 120 -->
      <g style="fill: #262626" transform="translate(156.827063 549.830875) scale(0.088 -0.088)">
       <defs>
        <path id="ArialMT-32" d="M 3222 541 
L 3222 0 
L 194 0 
Q 188 203 259 391 
Q 375 700 629 1000 
Q 884 1300 1366 1694 
Q 2113 2306 2375 2664 
Q 2638 3022 2638 3341 
Q 2638 3675 2398 3904 
Q 2159 4134 1775 4134 
Q 1369 4134 1125 3890 
Q 881 3647 878 3216 
L 300 3275 
Q 359 3922 746 4261 
Q 1134 4600 1788 4600 
Q 2447 4600 2831 4234 
Q 3216 3869 3216 3328 
Q 3216 3053 3103 2787 
Q 2991 2522 2730 2228 
Q 2469 1934 1863 1422 
Q 1356 997 1212 845 
Q 1069 694 975 541 
L 3222 541 
z
" transform="scale(0.015625)"/>
       </defs>
       <use xlink:href="#ArialMT-31"/>
       <use xlink:href="#ArialMT-32" x="55.615234"/>
       <use xlink:href="#ArialMT-30" x="111.230469"/>
      </g>
     </g>
    </g>
    <g id="text_16">
     <!-- day -->
     <g style="fill: #262626" transform="translate(106.908375 563.451375) scale(0.096 -0.096)">
      <use xlink:href="#ArialMT-64"/>
      <use xlink:href="#ArialMT-61" x="55.615234"/>
      <use xlink:href="#ArialMT-79" x="111.230469"/>
     </g>
    </g>
   </g>
   <g id="matplotlib.axis_8">
    <g id="ytick_76">
     <g id="text_17">
      <!-- $\mathdefault{10^{-1}}$ -->
      <g style="fill: #262626" transform="translate(19.094 515.995419) scale(0.088 -0.088)">
       <use xlink:href="#ArialMT-31" transform="translate(0 0.99375)"/>
       <use xlink:href="#ArialMT-30" transform="translate(55.615234 0.99375)"/>
       <use xlink:href="#ArialMT-2212" transform="translate(112.972813 70.6875) scale(0.7)"/>
       <use xlink:href="#ArialMT-31" transform="translate(153.851719 70.6875) scale(0.7)"/>
      </g>
     </g>
    </g>
    <g id="ytick_77">
     <g id="text_18">
      <!-- $\mathdefault{10^{0}}$ -->
      <g style="fill: #262626" transform="translate(22.702 473.156459) scale(0.088 -0.088)">
       <use xlink:href="#ArialMT-31" transform="translate(0 0.99375)"/>
       <use xlink:href="#ArialMT-30" transform="translate(55.615234 0.99375)"/>
       <use xlink:href="#ArialMT-30" transform="translate(112.972813 70.6875) scale(0.7)"/>
      </g>
     </g>
    </g>
    <g id="ytick_78"/>
    <g id="ytick_79"/>
    <g id="ytick_80"/>
    <g id="ytick_81"/>
    <g id="ytick_82"/>
    <g id="ytick_83"/>
    <g id="ytick_84"/>
    <g id="ytick_85"/>
    <g id="ytick_86"/>
    <g id="ytick_87"/>
    <g id="ytick_88"/>
    <g id="ytick_89"/>
    <g id="ytick_90"/>
    <g id="ytick_91"/>
    <g id="ytick_92"/>
    <g id="ytick_93"/>
    <g id="ytick_94"/>
    <g id="ytick_95"/>
    <g id="ytick_96"/>
    <g id="ytick_97"/>
    <g id="ytick_98"/>
    <g id="ytick_99"/>
    <g id="ytick_100"/>
    <g id="text_19">
     <!-- FL -->
     <g style="fill: #262626" transform="translate(12.186 486.29425) rotate(-90) scale(0.096 -0.096)">
      <use xlink:href="#ArialMT-46"/>
      <use xlink:href="#ArialMT-4c" x="61.083984"/>
     </g>
    </g>
   </g>
   <g id="line2d_13">
    <path d="M 45.318 511.073648 
L 46.389571 519.783193 
L 47.46183 511.248342 
L 48.038883 514.292622 
L 49.036174 515.576215 
L 49.974314 514.710723 
L 50.983297 512.708284 
L 51.985402 528.472027 
L 51.985402 515.138437 
L 51.985402 514.292622 
L 53.225481 516.252825 
L 54.176002 506.887381 
L 54.970395 521.528665 
L 54.970395 515.799029 
L 54.970395 514.500498 
L 56.048844 520.062969 
L 56.048844 511.424691 
L 56.048844 510.559199 
L 56.923709 516.483943 
L 56.923709 515.356038 
L 56.923709 512.708284 
L 58.025543 520.062969 
L 58.025543 518.968257 
L 58.025543 517.43824 
L 58.882525 528.034249 
L 58.882525 524.49854 
L 58.882525 516.483943 
L 61.304221 515.356038 
L 61.884712 516.483943 
L 61.884712 513.483593 
L 61.884712 512.519402 
L 62.875125 520.347016 
L 62.875125 518.704356 
L 62.875125 517.195038 
L 63.850406 521.528665 
L 63.850406 517.684664 
L 63.850406 513.286716 
L 64.840131 522.466917 
L 64.840131 511.602728 
L 64.840131 511.424691 
L 65.897259 521.226143 
L 65.897259 516.024544 
L 65.897259 505.940027 
L 66.988776 519.783193 
L 66.988776 517.43824 
L 66.988776 515.576215 
L 68.987483 522.790486 
L 68.987483 513.483593 
L 68.987483 510.729106 
L 70.805991 519.783193 
L 70.805991 515.138437 
L 70.805991 514.923351 
L 71.808783 529.379755 
L 71.808783 520.062969 
L 71.808783 518.704356 
L 72.903739 520.062969 
L 72.903739 520.062969 
L 72.903739 517.43824 
L 74.816473 519.507563 
L 76.096444 529.379755 
L 76.831 520.347016 
L 76.831 518.704356 
L 76.831 518.704356 
L 77.782896 519.507563 
L 77.782896 518.444146 
L 77.782896 512.899104 
L 78.730666 529.379755 
L 78.730666 521.226143 
L 78.730666 518.704356 
L 79.755468 523.119782 
L 79.755468 515.138437 
L 79.755468 512.147296 
L 81.866972 529.379755 
L 82.744588 529.379755 
L 82.744588 524.859808 
L 82.744588 515.799029 
L 84.843712 524.49854 
L 84.843712 522.790486 
L 84.843712 512.519402 
L 85.770848 521.226143 
L 86.751632 519.783193 
L 89.647901 529.379755 
L 91.663803 520.062969 
L 92.777329 517.684664 
L 93.660447 524.144154 
L 94.747149 519.783193 
L 96.605548 529.379755 
L 97.811926 508.940377 
L 99.586415 508.632853 
L 103.591395 513.286716 
L 104.655401 525.987712 
L 107.607381 524.49854 
L 110.339956 513.091901 
L 111.66876 513.286716 
L 112.650231 525.987712 
L 114.450856 510.559199 
L 117.39527 516.483943 
L 118.379492 517.195038 
L 121.519925 517.43824 
L 124.348103 509.096065 
L 125.431367 518.187525 
L 126.490558 516.024544 
L 128.729303 529.379755 
L 131.377281 519.783193 
L 132.270715 529.379755 
L 133.215734 520.062969 
L 135.445538 522.466917 
L 138.206312 516.252825 
L 139.325341 529.379755 
L 141.224319 514.087043 
L 142.376362 516.024544 
L 145.093806 520.928461 
L 151.99987 514.292622 
L 155.198077 519.783193 
L 160.053161 509.894674 
L 162.968 518.704356 
L 165.928233 519.235956 
L 172.850804 514.292622 
" clip-path="url(#p11f5a695d1)" style="fill: none; stroke: #332288; stroke-width: 2; stroke-linecap: round"/>
   </g>
   <g id="line2d_14">
    <path d="M 45.318 503.704775 
L 46.389571 523.119782 
L 47.46183 510.90058 
L 48.038883 513.483593 
L 49.036174 520.347016 
L 49.974314 512.519402 
L 50.983297 517.684664 
L 51.985402 520.062969 
L 51.985402 517.684664 
L 51.985402 510.90058 
L 53.225481 516.483943 
L 54.176002 509.253068 
L 54.970395 512.332419 
L 54.970395 510.729106 
L 54.970395 509.571106 
L 56.048844 516.252825 
L 56.048844 512.147296 
L 56.048844 511.782485 
L 56.923709 517.684664 
L 56.923709 514.292622 
L 56.923709 513.483593 
L 58.025543 518.704356 
L 58.025543 516.483943 
L 58.025543 515.576215 
L 58.882525 515.356038 
L 58.882525 511.602728 
L 58.882525 510.729106 
L 61.304221 510.729106 
L 61.884712 518.444146 
L 61.884712 513.88371 
L 61.884712 511.602728 
L 62.875125 522.14888 
L 62.875125 514.292622 
L 62.875125 513.286716 
L 63.850406 513.483593 
L 63.850406 508.480977 
L 63.850406 507.167157 
L 64.840131 526.379405 
L 64.840131 518.968257 
L 64.840131 514.292622 
L 65.897259 529.379755 
L 65.897259 526.379405 
L 65.897259 524.49854 
L 66.988776 520.062969 
L 66.988776 513.483593 
L 66.988776 507.594871 
L 68.987483 520.062969 
L 68.987483 516.483943 
L 68.987483 513.483593 
L 70.805991 522.790486 
L 70.805991 521.226143 
L 70.805991 512.519402 
L 71.808783 529.379755 
L 71.808783 526.379405 
L 71.808783 521.528665 
L 72.903739 526.379405 
L 72.903739 520.062969 
L 72.903739 514.500498 
L 74.816473 523.796392 
L 76.096444 529.379755 
L 76.831 516.252825 
L 76.831 515.356038 
L 76.831 515.356038 
L 77.782896 524.49854 
L 77.782896 521.226143 
L 77.782896 514.710723 
L 78.730666 528.472027 
L 78.730666 518.444146 
L 78.730666 515.138437 
L 79.755468 529.379755 
L 79.755468 525.987712 
L 79.755468 511.602728 
L 81.866972 529.379755 
L 82.744588 529.379755 
L 82.744588 523.119782 
L 82.744588 512.708284 
L 84.843712 529.379755 
L 84.843712 522.790486 
L 84.843712 518.704356 
L 85.770848 517.684664 
L 86.751632 526.379405 
L 89.647901 517.43824 
L 91.663803 523.119782 
L 92.777329 515.356038 
L 93.660447 519.783193 
L 94.747149 521.226143 
L 96.605548 513.286716 
L 97.811926 518.187525 
L 99.586415 515.356038 
L 103.591395 514.087043 
L 104.655401 513.091901 
L 107.607381 526.379405 
L 110.339956 516.252825 
L 111.66876 515.138437 
L 112.650231 525.22823 
L 114.450856 514.923351 
L 117.39527 522.466917 
L 118.379492 522.790486 
L 121.519925 514.923351 
L 124.348103 517.195038 
L 125.431367 510.729106 
L 126.490558 506.611751 
L 128.729303 517.195038 
L 131.377281 517.43824 
L 132.270715 511.963996 
L 133.215734 515.138437 
L 135.445538 519.507563 
L 138.206312 516.483943 
L 139.325341 518.444146 
L 141.224319 516.483943 
L 142.376362 512.899104 
L 145.093806 513.091901 
L 151.99987 507.026743 
L 155.198077 511.424691 
L 160.053161 514.292622 
L 162.968 524.49854 
L 165.928233 513.286716 
L 172.850804 517.43824 
" clip-path="url(#p11f5a695d1)" style="fill: none; stroke: #332288; stroke-width: 2; stroke-linecap: round"/>
   </g>
   <g id="line2d_15">
    <path d="M 45.318 501.500458 
L 46.389571 521.528665 
L 47.46183 518.704356 
L 48.038883 513.286716 
L 49.036174 513.483593 
L 49.974314 510.22397 
L 50.983297 513.091901 
L 51.985402 515.356038 
L 51.985402 510.90058 
L 51.985402 509.096065 
L 53.225481 515.356038 
L 54.176002 505.291713 
L 54.970395 517.684664 
L 54.970395 516.717968 
L 54.970395 513.682576 
L 56.048844 518.704356 
L 56.048844 516.252825 
L 56.048844 514.292622 
L 56.923709 520.347016 
L 56.923709 515.356038 
L 56.923709 513.286716 
L 58.025543 526.379405 
L 58.025543 522.790486 
L 58.025543 514.500498 
L 58.882525 518.704356 
L 58.882525 514.292622 
L 58.882525 512.708284 
L 61.304221 513.483593 
L 61.884712 529.379755 
L 61.884712 521.226143 
L 61.884712 517.684664 
L 62.875125 521.226143 
L 62.875125 518.704356 
L 62.875125 517.43824 
L 63.850406 524.49854 
L 63.850406 519.783193 
L 63.850406 513.091901 
L 64.840131 522.790486 
L 64.840131 516.483943 
L 64.840131 513.483593 
L 65.897259 522.466917 
L 65.897259 521.226143 
L 65.897259 518.704356 
L 66.988776 524.49854 
L 66.988776 521.528665 
L 66.988776 512.332419 
L 68.987483 516.483943 
L 68.987483 513.091901 
L 68.987483 512.708284 
L 70.805991 529.379755 
L 70.805991 516.252825 
L 70.805991 513.483593 
L 71.808783 526.379405 
L 71.808783 518.704356 
L 71.808783 510.058593 
L 72.903739 529.379755 
L 72.903739 529.379755 
L 72.903739 526.379405 
L 74.816473 527.606535 
L 76.096444 529.379755 
L 76.831 522.790486 
L 76.831 521.226143 
L 76.831 516.024544 
L 77.782896 520.928461 
L 77.782896 518.444146 
L 77.782896 515.138437 
L 78.730666 522.466917 
L 78.730666 517.43824 
L 78.730666 515.138437 
L 79.755468 524.859808 
L 79.755468 518.968257 
L 79.755468 510.058593 
L 81.866972 529.379755 
L 82.744588 520.347016 
L 82.744588 519.783193 
L 82.744588 517.43824 
L 84.843712 517.43824 
L 84.843712 513.483593 
L 84.843712 512.519402 
L 85.770848 520.062969 
L 86.751632 518.444146 
L 89.647901 518.704356 
L 91.663803 526.779522 
L 92.777329 521.528665 
L 93.660447 521.226143 
L 94.747149 529.379755 
L 96.605548 510.559199 
L 97.811926 518.444146 
L 99.586415 513.682576 
L 103.591395 510.729106 
L 104.655401 519.783193 
L 107.607381 517.43824 
L 110.339956 517.195038 
L 111.66876 522.790486 
L 112.650231 520.928461 
L 114.450856 517.43824 
L 117.39527 513.682576 
L 118.379492 507.167157 
L 121.519925 509.894674 
L 124.348103 515.138437 
L 125.431367 514.710723 
L 126.490558 516.954974 
L 128.729303 514.923351 
L 131.377281 521.528665 
L 132.270715 520.928461 
L 133.215734 519.783193 
L 135.445538 512.899104 
L 138.206312 522.790486 
L 139.325341 519.783193 
L 141.224319 528.034249 
L 142.376362 512.147296 
L 145.093806 513.091901 
L 151.99987 524.144154 
L 155.198077 525.987712 
L 160.053161 517.195038 
L 162.968 524.49854 
L 165.928233 514.500498 
L 172.850804 507.739655 
" clip-path="url(#p11f5a695d1)" style="fill: none; stroke: #332288; stroke-width: 2; stroke-linecap: round"/>
   </g>
   <g id="line2d_16">
    <path d="M 45.318 508.531465 
L 46.389571 523.342595 
L 47.46183 504.42043 
L 48.038883 497.190243 
L 49.036174 490.026094 
L 49.974314 479.886361 
L 50.983297 469.003833 
L 51.985402 460.692411 
L 53.225481 449.800648 
L 54.176002 453.374327 
L 54.970395 460.532096 
L 56.048844 470.233571 
L 56.923709 470.946147 
L 58.025543 472.517079 
L 58.882525 471.841251 
L 61.304221 476.925731 
L 61.884712 477.378119 
L 62.875125 481.607972 
L 63.850406 486.858743 
L 64.840131 489.250913 
L 65.897259 491.103815 
L 66.988776 498.796578 
L 68.987483 504.651548 
L 70.805991 505.27756 
L 71.808783 509.553293 
L 72.903739 517.906482 
L 74.816473 529.379755 
L 76.096444 529.379755 
L 76.831 528.276186 
L 77.782896 528.570726 
L 78.730666 527.234428 
L 79.755468 526.645192 
L 81.866972 529.379755 
L 82.744588 526.600629 
L 84.843712 528.082385 
L 85.770848 529.379755 
L 86.751632 528.179033 
L 89.647901 529.379755 
L 91.663803 529.379755 
L 92.777329 528.920355 
L 93.660447 523.119782 
L 94.747149 529.379755 
L 96.605548 529.379755 
L 97.811926 528.769709 
L 99.586415 529.379755 
L 103.591395 525.731091 
L 104.655401 528.920355 
L 107.607381 529.379755 
L 110.339956 527.466121 
L 111.66876 529.379755 
L 112.650231 528.769709 
L 114.450856 529.379755 
L 117.39527 528.179033 
L 118.379492 529.379755 
L 121.519925 527.606535 
L 124.348103 529.379755 
L 125.431367 528.920355 
L 126.490558 528.179033 
L 128.729303 529.379755 
L 131.377281 529.379755 
L 132.270715 527.051129 
L 133.215734 528.920355 
L 135.445538 526.645192 
L 138.206312 528.179033 
L 139.325341 529.379755 
L 141.224319 529.379755 
L 142.376362 528.920355 
L 145.093806 529.379755 
L 151.99987 529.379755 
L 155.198077 529.379755 
L 160.053161 528.920355 
L 162.968 523.230855 
L 165.928233 529.379755 
L 172.850804 529.379755 
" clip-path="url(#p11f5a695d1)" style="fill: none; stroke: #000000; stroke-linecap: round"/>
   </g>
   <g id="patch_12">
    <path d="M 45.318 534.732 
L 45.318 426.6545 
" style="fill: none; stroke: #262626; stroke-linejoin: miter; stroke-linecap: square"/>
   </g>
   <g id="patch_13">
    <path d="M 45.318 534.732 
L 183.97575 534.732 
" style="fill: none; stroke: #262626; stroke-linejoin: miter; stroke-linecap: square"/>
   </g>
   <g id="text_20">
    <!-- Marinobacter adhaerens HP15 -->
    <g style="fill: #262626" transform="translate(49.279875 421.6545) scale(0.096 -0.096)">
     <defs>
      <path id="ArialMT-4d" d="M 475 0 
L 475 4581 
L 1388 4581 
L 2472 1338 
Q 2622 884 2691 659 
Q 2769 909 2934 1394 
L 4031 4581 
L 4847 4581 
L 4847 0 
L 4263 0 
L 4263 3834 
L 2931 0 
L 2384 0 
L 1059 3900 
L 1059 0 
L 475 0 
z
" transform="scale(0.015625)"/>
      <path id="ArialMT-6e" d="M 422 0 
L 422 3319 
L 928 3319 
L 928 2847 
Q 1294 3394 1984 3394 
Q 2284 3394 2536 3286 
Q 2788 3178 2913 3003 
Q 3038 2828 3088 2588 
Q 3119 2431 3119 2041 
L 3119 0 
L 2556 0 
L 2556 2019 
Q 2556 2363 2490 2533 
Q 2425 2703 2258 2804 
Q 2091 2906 1866 2906 
Q 1506 2906 1245 2678 
Q 984 2450 984 1813 
L 984 0 
L 422 0 
z
" transform="scale(0.015625)"/>
      <path id="ArialMT-62" d="M 941 0 
L 419 0 
L 419 4581 
L 981 4581 
L 981 2947 
Q 1338 3394 1891 3394 
Q 2197 3394 2470 3270 
Q 2744 3147 2920 2923 
Q 3097 2700 3197 2384 
Q 3297 2069 3297 1709 
Q 3297 856 2875 390 
Q 2453 -75 1863 -75 
Q 1275 -75 941 416 
L 941 0 
z
M 934 1684 
Q 934 1088 1097 822 
Q 1363 388 1816 388 
Q 2184 388 2453 708 
Q 2722 1028 2722 1663 
Q 2722 2313 2464 2622 
Q 2206 2931 1841 2931 
Q 1472 2931 1203 2611 
Q 934 2291 934 1684 
z
" transform="scale(0.015625)"/>
      <path id="ArialMT-74" d="M 1650 503 
L 1731 6 
Q 1494 -44 1306 -44 
Q 1000 -44 831 53 
Q 663 150 594 308 
Q 525 466 525 972 
L 525 2881 
L 113 2881 
L 113 3319 
L 525 3319 
L 525 4141 
L 1084 4478 
L 1084 3319 
L 1650 3319 
L 1650 2881 
L 1084 2881 
L 1084 941 
Q 1084 700 1114 631 
Q 1144 563 1211 522 
Q 1278 481 1403 481 
Q 1497 481 1650 503 
z
" transform="scale(0.015625)"/>
      <path id="ArialMT-68" d="M 422 0 
L 422 4581 
L 984 4581 
L 984 2938 
Q 1378 3394 1978 3394 
Q 2347 3394 2619 3248 
Q 2891 3103 3008 2847 
Q 3125 2591 3125 2103 
L 3125 0 
L 2563 0 
L 2563 2103 
Q 2563 2525 2380 2717 
Q 2197 2909 1863 2909 
Q 1613 2909 1392 2779 
Q 1172 2650 1078 2428 
Q 984 2206 984 1816 
L 984 0 
L 422 0 
z
" transform="scale(0.015625)"/>
      <path id="ArialMT-48" d="M 513 0 
L 513 4581 
L 1119 4581 
L 1119 2700 
L 3500 2700 
L 3500 4581 
L 4106 4581 
L 4106 0 
L 3500 0 
L 3500 2159 
L 1119 2159 
L 1119 0 
L 513 0 
z
" transform="scale(0.015625)"/>
      <path id="ArialMT-50" d="M 494 0 
L 494 4581 
L 2222 4581 
Q 2678 4581 2919 4538 
Q 3256 4481 3484 4323 
Q 3713 4166 3852 3881 
Q 3991 3597 3991 3256 
Q 3991 2672 3619 2267 
Q 3247 1863 2275 1863 
L 1100 1863 
L 1100 0 
L 494 0 
z
M 1100 2403 
L 2284 2403 
Q 2872 2403 3119 2622 
Q 3366 2841 3366 3238 
Q 3366 3525 3220 3729 
Q 3075 3934 2838 4000 
Q 2684 4041 2272 4041 
L 1100 4041 
L 1100 2403 
z
" transform="scale(0.015625)"/>
     </defs>
     <use xlink:href="#ArialMT-4d"/>
     <use xlink:href="#ArialMT-61" x="83.300781"/>
     <use xlink:href="#ArialMT-72" x="138.916016"/>
     <use xlink:href="#ArialMT-69" x="172.216797"/>
     <use xlink:href="#ArialMT-6e" x="194.433594"/>
     <use xlink:href="#ArialMT-6f" x="250.048828"/>
     <use xlink:href="#ArialMT-62" x="305.664062"/>
     <use xlink:href="#ArialMT-61" x="361.279297"/>
     <use xlink:href="#ArialMT-63" x="416.894531"/>
     <use xlink:href="#ArialMT-74" x="466.894531"/>
     <use xlink:href="#ArialMT-65" x="494.677734"/>
     <use xlink:href="#ArialMT-72" x="550.292969"/>
     <use xlink:href="#ArialMT-20" x="583.59375"/>
     <use xlink:href="#ArialMT-61" x="611.376953"/>
     <use xlink:href="#ArialMT-64" x="666.992188"/>
     <use xlink:href="#ArialMT-68" x="722.607422"/>
     <use xlink:href="#ArialMT-61" x="778.222656"/>
     <use xlink:href="#ArialMT-65" x="833.837891"/>
     <use xlink:href="#ArialMT-72" x="889.453125"/>
     <use xlink:href="#ArialMT-65" x="922.753906"/>
     <use xlink:href="#ArialMT-6e" x="978.369141"/>
     <use xlink:href="#ArialMT-73" x="1033.984375"/>
     <use xlink:href="#ArialMT-20" x="1083.984375"/>
     <use xlink:href="#ArialMT-48" x="1111.767578"/>
     <use xlink:href="#ArialMT-50" x="1183.984375"/>
     <use xlink:href="#ArialMT-31" x="1250.683594"/>
     <use xlink:href="#ArialMT-35" x="1306.298828"/>
    </g>
   </g>
  </g>
 </g>
 <defs>
  <clipPath id="p907ce03c48">
   <rect x="45.318" y="22.568" width="138.65775" height="108.0775"/>
  </clipPath>
  <clipPath id="pd052df8820">
   <rect x="45.318" y="157.2635" width="138.65775" height="108.0775"/>
  </clipPath>
  <clipPath id="p53cfa08815">
   <rect x="45.318" y="291.959" width="138.65775" height="108.0775"/>
  </clipPath>
  <clipPath id="p11f5a695d1">
   <rect x="45.318" y="426.6545" width="138.65775" height="108.0775"/>
  </clipPath>
 </defs>
</svg>
