<?xml version="1.0" encoding="utf-8" standalone="no"?>
<!DOCTYPE svg PUBLIC "-//W3C//DTD SVG 1.1//EN"
  "http://www.w3.org/Graphics/SVG/1.1/DTD/svg11.dtd">
<svg xmlns:xlink="http://www.w3.org/1999/xlink" width="216pt" height="576pt" viewBox="0 0 216 576" xmlns="http://www.w3.org/2000/svg" version="1.1">
 <metadata>
  <rdf:RDF xmlns:dc="http://purl.org/dc/elements/1.1/" xmlns:cc="http://creativecommons.org/ns#" xmlns:rdf="http://www.w3.org/1999/02/22-rdf-syntax-ns#">
   <cc:Work>
    <dc:type rdf:resource="http://purl.org/dc/dcmitype/StillImage"/>
    <dc:date>2024-12-17T13:28:20.146185</dc:date>
    <dc:format>image/svg+xml</dc:format>
    <dc:creator>
     <cc:Agent>
      <dc:title>Matplotlib v3.8.0, https://matplotlib.org/</dc:title>
     </cc:Agent>
    </dc:creator>
   </cc:Work>
  </rdf:RDF>
 </metadata>
 <defs>
  <style type="text/css">*{stroke-linejoin: round; stroke-linecap: butt}</style>
 </defs>
 <g id="figure_1">
  <g id="patch_1">
   <path d="M 0 576 
L 216 576 
L 216 0 
L 0 0 
z
" style="fill: #ffffff"/>
  </g>
  <g id="axes_1">
   <g id="patch_2">
    <path d="M 38.0055 130.613859 
L 198.37575 130.613859 
L 198.37575 22.568 
L 38.0055 22.568 
z
" style="fill: #ffffff"/>
   </g>
   <g id="matplotlib.axis_1">
    <g id="xtick_1"/>
    <g id="xtick_2"/>
    <g id="xtick_3"/>
   </g>
   <g id="matplotlib.axis_2">
    <g id="ytick_1">
     <g id="text_1">
      <!-- $\mathdefault{10^{-1}}$ -->
      <g style="fill: #262626" transform="translate(11.7815 111.883836) scale(0.088 -0.088)">
       <defs>
        <path id="ArialMT-31" d="M 2384 0 
L 1822 0 
L 1822 3584 
Q 1619 3391 1289 3197 
Q 959 3003 697 2906 
L 697 3450 
Q 1169 3672 1522 3987 
Q 1875 4303 2022 4600 
L 2384 4600 
L 2384 0 
z
" transform="scale(0.015625)"/>
        <path id="ArialMT-30" d="M 266 2259 
Q 266 3072 433 3567 
Q 600 4063 929 4331 
Q 1259 4600 1759 4600 
Q 2128 4600 2406 4451 
Q 2684 4303 2865 4023 
Q 3047 3744 3150 3342 
Q 3253 2941 3253 2259 
Q 3253 1453 3087 958 
Q 2922 463 2592 192 
Q 2263 -78 1759 -78 
Q 1097 -78 719 397 
Q 266 969 266 2259 
z
M 844 2259 
Q 844 1131 1108 757 
Q 1372 384 1759 384 
Q 2147 384 2411 759 
Q 2675 1134 2675 2259 
Q 2675 3391 2411 3762 
Q 2147 4134 1753 4134 
Q 1366 4134 1134 3806 
Q 844 3388 844 2259 
z
" transform="scale(0.015625)"/>
        <path id="ArialMT-2212" d="M 3381 1997 
L 356 1997 
L 356 2522 
L 3381 2522 
L 3381 1997 
z
" transform="scale(0.015625)"/>
       </defs>
       <use xlink:href="#ArialMT-31" transform="translate(0 0.99375)"/>
       <use xlink:href="#ArialMT-30" transform="translate(55.615234 0.99375)"/>
       <use xlink:href="#ArialMT-2212" transform="translate(112.972813 70.6875) scale(0.7)"/>
       <use xlink:href="#ArialMT-31" transform="translate(153.851719 70.6875) scale(0.7)"/>
      </g>
     </g>
    </g>
    <g id="ytick_2">
     <g id="text_2">
      <!-- $\mathdefault{10^{0}}$ -->
      <g style="fill: #262626" transform="translate(15.3895 69.057418) scale(0.088 -0.088)">
       <use xlink:href="#ArialMT-31" transform="translate(0 0.99375)"/>
       <use xlink:href="#ArialMT-30" transform="translate(55.615234 0.99375)"/>
       <use xlink:href="#ArialMT-30" transform="translate(112.972813 70.6875) scale(0.7)"/>
      </g>
     </g>
    </g>
    <g id="ytick_3">
     <g id="text_3">
      <!-- $\mathdefault{10^{1}}$ -->
      <g style="fill: #262626" transform="translate(15.3895 26.231) scale(0.088 -0.088)">
       <use xlink:href="#ArialMT-31" transform="translate(0 0.99375)"/>
       <use xlink:href="#ArialMT-30" transform="translate(55.615234 0.99375)"/>
       <use xlink:href="#ArialMT-31" transform="translate(112.972813 70.6875) scale(0.7)"/>
      </g>
     </g>
    </g>
    <g id="ytick_4"/>
    <g id="ytick_5"/>
    <g id="ytick_6"/>
    <g id="ytick_7"/>
    <g id="ytick_8"/>
    <g id="ytick_9"/>
    <g id="ytick_10"/>
    <g id="ytick_11"/>
    <g id="ytick_12"/>
    <g id="ytick_13"/>
    <g id="ytick_14"/>
    <g id="ytick_15"/>
    <g id="ytick_16"/>
    <g id="ytick_17"/>
    <g id="ytick_18"/>
    <g id="ytick_19"/>
    <g id="ytick_20"/>
    <g id="ytick_21"/>
    <g id="ytick_22"/>
    <g id="ytick_23"/>
    <g id="ytick_24"/>
    <g id="ytick_25"/>
    <g id="ytick_26"/>
    <g id="text_4">
     <!-- Fluorescence -->
     <g style="fill: #262626" transform="translate(4.8735 105.40293) rotate(-90) scale(0.096 -0.096)">
      <defs>
       <path id="ArialMT-46" d="M 525 0 
L 525 4581 
L 3616 4581 
L 3616 4041 
L 1131 4041 
L 1131 2622 
L 3281 2622 
L 3281 2081 
L 1131 2081 
L 1131 0 
L 525 0 
z
" transform="scale(0.015625)"/>
       <path id="ArialMT-6c" d="M 409 0 
L 409 4581 
L 972 4581 
L 972 0 
L 409 0 
z
" transform="scale(0.015625)"/>
       <path id="ArialMT-75" d="M 2597 0 
L 2597 488 
Q 2209 -75 1544 -75 
Q 1250 -75 995 37 
Q 741 150 617 320 
Q 494 491 444 738 
Q 409 903 409 1263 
L 409 3319 
L 972 3319 
L 972 1478 
Q 972 1038 1006 884 
Q 1059 663 1231 536 
Q 1403 409 1656 409 
Q 1909 409 2131 539 
Q 2353 669 2445 892 
Q 2538 1116 2538 1541 
L 2538 3319 
L 3100 3319 
L 3100 0 
L 2597 0 
z
" transform="scale(0.015625)"/>
       <path id="ArialMT-6f" d="M 213 1659 
Q 213 2581 725 3025 
Q 1153 3394 1769 3394 
Q 2453 3394 2887 2945 
Q 3322 2497 3322 1706 
Q 3322 1066 3130 698 
Q 2938 331 2570 128 
Q 2203 -75 1769 -75 
Q 1072 -75 642 372 
Q 213 819 213 1659 
z
M 791 1659 
Q 791 1022 1069 705 
Q 1347 388 1769 388 
Q 2188 388 2466 706 
Q 2744 1025 2744 1678 
Q 2744 2294 2464 2611 
Q 2184 2928 1769 2928 
Q 1347 2928 1069 2612 
Q 791 2297 791 1659 
z
" transform="scale(0.015625)"/>
       <path id="ArialMT-72" d="M 416 0 
L 416 3319 
L 922 3319 
L 922 2816 
Q 1116 3169 1280 3281 
Q 1444 3394 1641 3394 
Q 1925 3394 2219 3213 
L 2025 2691 
Q 1819 2813 1613 2813 
Q 1428 2813 1281 2702 
Q 1134 2591 1072 2394 
Q 978 2094 978 1738 
L 978 0 
L 416 0 
z
" transform="scale(0.015625)"/>
       <path id="ArialMT-65" d="M 2694 1069 
L 3275 997 
Q 3138 488 2766 206 
Q 2394 -75 1816 -75 
Q 1088 -75 661 373 
Q 234 822 234 1631 
Q 234 2469 665 2931 
Q 1097 3394 1784 3394 
Q 2450 3394 2872 2941 
Q 3294 2488 3294 1666 
Q 3294 1616 3291 1516 
L 816 1516 
Q 847 969 1125 678 
Q 1403 388 1819 388 
Q 2128 388 2347 550 
Q 2566 713 2694 1069 
z
M 847 1978 
L 2700 1978 
Q 2663 2397 2488 2606 
Q 2219 2931 1791 2931 
Q 1403 2931 1139 2672 
Q 875 2413 847 1978 
z
" transform="scale(0.015625)"/>
       <path id="ArialMT-73" d="M 197 991 
L 753 1078 
Q 800 744 1014 566 
Q 1228 388 1613 388 
Q 2000 388 2187 545 
Q 2375 703 2375 916 
Q 2375 1106 2209 1216 
Q 2094 1291 1634 1406 
Q 1016 1563 777 1677 
Q 538 1791 414 1992 
Q 291 2194 291 2438 
Q 291 2659 392 2848 
Q 494 3038 669 3163 
Q 800 3259 1026 3326 
Q 1253 3394 1513 3394 
Q 1903 3394 2198 3281 
Q 2494 3169 2634 2976 
Q 2775 2784 2828 2463 
L 2278 2388 
Q 2241 2644 2061 2787 
Q 1881 2931 1553 2931 
Q 1166 2931 1000 2803 
Q 834 2675 834 2503 
Q 834 2394 903 2306 
Q 972 2216 1119 2156 
Q 1203 2125 1616 2013 
Q 2213 1853 2448 1751 
Q 2684 1650 2818 1456 
Q 2953 1263 2953 975 
Q 2953 694 2789 445 
Q 2625 197 2315 61 
Q 2006 -75 1616 -75 
Q 969 -75 630 194 
Q 291 463 197 991 
z
" transform="scale(0.015625)"/>
       <path id="ArialMT-63" d="M 2588 1216 
L 3141 1144 
Q 3050 572 2676 248 
Q 2303 -75 1759 -75 
Q 1078 -75 664 370 
Q 250 816 250 1647 
Q 250 2184 428 2587 
Q 606 2991 970 3192 
Q 1334 3394 1763 3394 
Q 2303 3394 2647 3120 
Q 2991 2847 3088 2344 
L 2541 2259 
Q 2463 2594 2264 2762 
Q 2066 2931 1784 2931 
Q 1359 2931 1093 2626 
Q 828 2322 828 1663 
Q 828 994 1084 691 
Q 1341 388 1753 388 
Q 2084 388 2306 591 
Q 2528 794 2588 1216 
z
" transform="scale(0.015625)"/>
       <path id="ArialMT-6e" d="M 422 0 
L 422 3319 
L 928 3319 
L 928 2847 
Q 1294 3394 1984 3394 
Q 2284 3394 2536 3286 
Q 2788 3178 2913 3003 
Q 3038 2828 3088 2588 
Q 3119 2431 3119 2041 
L 3119 0 
L 2556 0 
L 2556 2019 
Q 2556 2363 2490 2533 
Q 2425 2703 2258 2804 
Q 2091 2906 1866 2906 
Q 1506 2906 1245 2678 
Q 984 2450 984 1813 
L 984 0 
L 422 0 
z
" transform="scale(0.015625)"/>
      </defs>
      <use xlink:href="#ArialMT-46"/>
      <use xlink:href="#ArialMT-6c" x="61.083984"/>
      <use xlink:href="#ArialMT-75" x="83.300781"/>
      <use xlink:href="#ArialMT-6f" x="138.916016"/>
      <use xlink:href="#ArialMT-72" x="194.53125"/>
      <use xlink:href="#ArialMT-65" x="227.832031"/>
      <use xlink:href="#ArialMT-73" x="283.447266"/>
      <use xlink:href="#ArialMT-63" x="333.447266"/>
      <use xlink:href="#ArialMT-65" x="383.447266"/>
      <use xlink:href="#ArialMT-6e" x="439.0625"/>
      <use xlink:href="#ArialMT-63" x="494.677734"/>
      <use xlink:href="#ArialMT-65" x="544.677734"/>
     </g>
    </g>
   </g>
   <g id="line2d_1">
    <path d="M 38.0055 102.501843 
L 39.244869 117.721823 
L 40.485034 120.744558 
L 41.152448 125.263181 
L 42.305905 120.029113 
L 43.390949 124.355719 
L 44.557929 125.263181 
L 45.716954 118.675841 
L 45.716954 117.41439 
L 45.716954 117.111956 
L 47.151218 107.671063 
L 48.250582 99.363224 
L 49.169369 96.879637 
L 49.169369 92.093394 
L 49.169369 91.630317 
L 50.416694 87.911852 
L 50.416694 86.587072 
L 50.416694 82.670719 
L 51.428554 78.32369 
L 51.428554 76.345433 
L 51.428554 76.07925 
L 52.702924 65.884397 
L 52.702924 65.525071 
L 52.702924 64.917016 
L 53.694102 58.689978 
L 53.694102 58.406801 
L 53.694102 58.014956 
L 56.495013 52.708107 
L 57.166404 55.017881 
L 57.166404 53.446613 
L 57.166404 53.378251 
L 58.311906 56.536806 
L 58.311906 56.536806 
L 58.311906 55.5799 
L 59.439907 57.667991 
L 59.439907 57.351504 
L 59.439907 56.114207 
L 60.584613 59.096465 
L 60.584613 58.72893 
L 60.584613 58.496436 
L 61.807277 51.2962 
L 61.807277 50.147106 
L 61.807277 49.919091 
L 63.069715 56.81615 
L 63.069715 55.7231 
L 63.069715 54.795639 
L 65.381402 61.926033 
L 65.381402 61.895188 
L 65.381402 60.861213 
L 67.48467 58.964367 
L 67.48467 57.606708 
L 67.48467 57.052185 
L 68.644491 58.715937 
L 68.644491 57.496906 
L 68.644491 56.664318 
L 69.910907 60.629443 
L 69.910907 60.400526 
L 69.910907 58.547851 
L 72.123157 57.594476 
L 73.603559 59.689106 
L 74.453139 61.589523 
L 74.453139 60.716018 
L 74.453139 60.16035 
L 75.554094 62.778781 
L 75.554094 61.604688 
L 75.554094 61.051676 
L 76.650276 59.620801 
L 76.650276 59.162867 
L 76.650276 59.109726 
L 77.835552 60.230668 
L 77.835552 59.512033 
L 77.835552 59.323207 
L 80.277698 60.919609 
L 81.29274 38.382387 
L 81.29274 38.024574 
L 81.29274 37.556563 
L 83.720567 62.394947 
L 83.720567 61.303722 
L 83.720567 61.288801 
L 84.792884 62.924785 
L 85.927249 63.997473 
L 89.277046 71.76449 
L 91.60862 79.240472 
L 92.896514 81.440943 
L 93.917919 85.404874 
L 95.174789 83.5382 
L 97.324196 75.271161 
L 98.719481 73.840913 
L 100.771838 66.884704 
L 105.403961 64.469251 
L 106.63458 64.258093 
L 110.048812 76.99332 
L 113.209283 76.855035 
L 114.746165 77.414453 
L 115.881325 79.358314 
L 117.963911 77.628651 
L 121.369392 81.091651 
L 122.507735 75.914799 
L 126.13993 79.318951 
L 129.410974 69.873096 
L 130.663867 66.664355 
L 131.888917 75.751789 
L 134.478229 82.390323 
L 137.540855 82.483319 
L 138.574193 82.343998 
L 139.667193 90.024677 
L 142.246162 84.552036 
L 145.439249 88.872441 
L 146.733507 90.30649 
L 148.929847 91.327883 
L 150.262289 89.338279 
L 153.405259 88.872441 
L 161.392748 98.026174 
L 165.091764 98.794395 
L 170.707109 99.831155 
L 174.078384 96.185183 
L 177.502162 106.617993 
L 185.508742 107.852521 
" clip-path="url(#pec0d8307bd)" style="fill: none; stroke: #882255; stroke-width: 3; stroke-linecap: round"/>
   </g>
   <g id="line2d_2">
    <path d="M 38.0055 107.852521 
L 39.244869 114.590908 
L 40.485034 120.744558 
L 41.152448 125.263181 
L 42.305905 125.263181 
L 43.390949 113.571514 
L 44.557929 125.263181 
L 45.716954 125.263181 
L 45.716954 125.263181 
L 45.716954 121.872132 
L 47.151218 117.111956 
L 48.250582 105.947676 
L 49.169369 105.947676 
L 49.169369 105.142387 
L 49.169369 103.198526 
L 50.416694 93.89738 
L 50.416694 93.05564 
L 50.416694 92.810371 
L 51.428554 86.52904 
L 51.428554 84.814371 
L 51.428554 83.244521 
L 52.702924 76.311951 
L 52.702924 74.618488 
L 52.702924 74.315561 
L 53.694102 67.209946 
L 53.694102 67.168978 
L 53.694102 66.62457 
L 56.495013 50.670595 
L 57.166404 46.57261 
L 57.166404 45.888956 
L 57.166404 45.565931 
L 58.311906 41.025219 
L 58.311906 40.855407 
L 58.311906 40.692059 
L 59.439907 46.831316 
L 59.439907 45.242126 
L 59.439907 44.714672 
L 60.584613 47.338632 
L 60.584613 47.177295 
L 60.584613 47.06588 
L 61.807277 48.750617 
L 61.807277 48.493967 
L 61.807277 48.115513 
L 63.069715 55.307578 
L 63.069715 54.185093 
L 63.069715 53.397758 
L 65.381402 59.430873 
L 65.381402 58.898668 
L 65.381402 58.266812 
L 67.48467 58.977535 
L 67.48467 58.62524 
L 67.48467 58.457968 
L 68.644491 59.798917 
L 68.644491 59.430873 
L 68.644491 59.189494 
L 69.910907 62.811127 
L 69.910907 62.018875 
L 69.910907 62.018875 
L 72.123157 52.623671 
L 73.603559 60.006578 
L 74.453139 63.319829 
L 74.453139 61.036955 
L 74.453139 60.571949 
L 75.554094 64.136016 
L 75.554094 63.894239 
L 75.554094 63.3032 
L 76.650276 61.972396 
L 76.650276 61.528989 
L 76.650276 61.453596 
L 77.835552 46.906881 
L 77.835552 43.352494 
L 77.835552 43.222171 
L 80.277698 56.272983 
L 81.29274 57.766465 
L 81.29274 57.375658 
L 81.29274 56.398692 
L 83.720567 60.643844 
L 83.720567 60.372108 
L 83.720567 59.86788 
L 84.792884 60.67268 
L 85.927249 57.075954 
L 89.277046 65.338704 
L 91.60862 73.094545 
L 92.896514 74.649053 
L 93.917919 73.724119 
L 95.174789 70.32822 
L 97.324196 65.062608 
L 98.719481 61.423525 
L 100.771838 63.774519 
L 105.403961 70.869507 
L 106.63458 71.76449 
L 110.048812 78.101385 
L 113.209283 81.66263 
L 114.746165 81.265477 
L 115.881325 85.24196 
L 117.963911 81.396921 
L 121.369392 85.18797 
L 122.507735 82.205713 
L 126.13993 79.716386 
L 129.410974 73.094545 
L 130.663867 73.378076 
L 131.888917 79.918335 
L 134.478229 81.707286 
L 137.540855 81.134955 
L 138.574193 78.700206 
L 139.667193 88.417986 
L 142.246162 87.057965 
L 145.439249 92.25035 
L 146.733507 91.7067 
L 148.929847 88.417986 
L 150.262289 91.478485 
L 153.405259 88.806835 
L 161.392748 97.288429 
L 165.091764 96.185183 
L 170.707109 99.363224 
L 174.078384 107.671063 
L 177.502162 103.484675 
L 185.508742 114.590908 
" clip-path="url(#pec0d8307bd)" style="fill: none; stroke: #882255; stroke-width: 3; stroke-linecap: round"/>
   </g>
   <g id="line2d_3">
    <path d="M 38.0055 105.142387 
L 39.244869 115.949123 
L 40.485034 117.41439 
L 41.152448 120.383395 
L 42.305905 125.263181 
L 43.390949 119.005041 
L 44.557929 125.263181 
L 45.716954 119.005041 
L 45.716954 113.571514 
L 45.716954 107.491359 
L 47.151218 99.133601 
L 48.250582 98.242447 
L 49.169369 93.983687 
L 49.169369 91.327883 
L 49.169369 90.16505 
L 50.416694 86.014741 
L 50.416694 83.836591 
L 50.416694 81.707286 
L 51.428554 74.315561 
L 51.428554 72.898614 
L 51.428554 72.732301 
L 52.702924 68.221254 
L 52.702924 66.565053 
L 52.702924 65.960937 
L 53.694102 56.969231 
L 53.694102 56.525258 
L 53.694102 56.057829 
L 56.495013 56.148117 
L 57.166404 56.734241 
L 57.166404 55.934394 
L 57.166404 55.568931 
L 58.311906 58.72893 
L 58.311906 58.573611 
L 58.311906 57.754127 
L 59.439907 61.199524 
L 59.439907 60.817535 
L 59.439907 60.571949 
L 60.584613 58.457968 
L 60.584613 58.292186 
L 60.584613 57.692561 
L 61.807277 62.730366 
L 61.807277 62.730366 
L 61.807277 61.498795 
L 63.069715 65.637794 
L 63.069715 65.209349 
L 63.069715 64.826597 
L 65.381402 64.433891 
L 65.381402 62.633913 
L 65.381402 62.268743 
L 67.48467 64.275598 
L 67.48467 64.153407 
L 67.48467 63.253403 
L 68.644491 64.066616 
L 68.644491 62.049925 
L 68.644491 61.879785 
L 69.910907 67.666648 
L 69.910907 67.230464 
L 69.910907 67.209946 
L 72.123157 60.357916 
L 73.603559 63.774519 
L 74.453139 62.553916 
L 74.453139 62.553916 
L 74.453139 61.46865 
L 75.554094 64.629207 
L 75.554094 64.170813 
L 75.554094 63.621717 
L 76.650276 63.486939 
L 76.650276 62.569888 
L 76.650276 62.34752 
L 77.835552 64.504678 
L 77.835552 62.601873 
L 77.835552 61.972396 
L 80.277698 65.468964 
L 81.29274 63.894239 
L 81.29274 63.740455 
L 81.29274 63.638634 
L 83.720567 67.416148 
L 83.720567 67.292153 
L 83.720567 66.884704 
L 84.792884 67.899274 
L 85.927249 66.92505 
L 89.277046 75.113672 
L 91.60862 75.686983 
L 92.896514 76.71777 
L 93.917919 73.724119 
L 95.174789 72.376977 
L 97.324196 65.600143 
L 98.719481 65.394418 
L 100.771838 68.570957 
L 105.403961 72.926478 
L 106.63458 68.904885 
L 110.048812 80.706382 
L 113.209283 81.221868 
L 114.746165 82.765132 
L 115.881325 82.114091 
L 117.963911 82.068448 
L 121.369392 82.436763 
L 122.507735 77.521244 
L 126.13993 70.376782 
L 129.410974 68.570957 
L 130.663867 67.750903 
L 131.888917 75.176508 
L 134.478229 81.353003 
L 137.540855 77.881706 
L 138.574193 79.358314 
L 139.667193 84.814371 
L 142.246162 89.203988 
L 145.439249 88.546701 
L 146.733507 86.241564 
L 148.929847 84.708993 
L 150.262289 84.92035 
L 153.405259 84.552036 
L 161.392748 91.030288 
L 165.091764 94.779027 
L 170.707109 95.422029 
L 174.078384 99.248058 
L 177.502162 103.629417 
L 185.508742 112.140095 
" clip-path="url(#pec0d8307bd)" style="fill: none; stroke: #882255; stroke-width: 3; stroke-linecap: round"/>
   </g>
   <g id="line2d_4">
    <path d="M 38.0055 104.420995 
L 39.244869 119.227789 
L 40.485034 100.311163 
L 41.152448 93.083093 
L 42.305905 85.921042 
L 43.390949 75.784277 
L 44.557929 64.904935 
L 45.716954 56.595946 
L 47.151218 45.707372 
L 48.250582 49.280005 
L 49.169369 56.435678 
L 50.416694 66.134313 
L 51.428554 66.84668 
L 52.702924 68.417152 
L 53.694102 67.741522 
L 56.495013 72.824514 
L 57.166404 73.276769 
L 58.311906 77.505384 
L 59.439907 82.754618 
L 60.584613 85.146087 
L 61.807277 86.998447 
L 63.069715 94.688958 
L 65.381402 100.542213 
L 67.48467 101.168042 
L 68.644491 105.442524 
L 69.910907 113.793267 
L 72.123157 125.263181 
L 73.603559 125.263181 
L 74.453139 124.159935 
L 75.554094 124.454389 
L 76.650276 123.118482 
L 77.835552 122.529418 
L 80.277698 125.263181 
L 81.29274 122.484869 
L 83.720567 123.966191 
L 84.792884 125.263181 
L 85.927249 124.062811 
L 89.277046 125.263181 
L 91.60862 125.263181 
L 92.896514 124.803916 
L 93.917919 119.005041 
L 95.174789 125.263181 
L 97.324196 125.263181 
L 98.719481 124.653314 
L 100.771838 125.263181 
L 105.403961 121.615586 
L 106.63458 124.803916 
L 110.048812 125.263181 
L 113.209283 123.350108 
L 114.746165 125.263181 
L 115.881325 124.653314 
L 117.963911 125.263181 
L 121.369392 124.062811 
L 122.507735 125.263181 
L 126.13993 123.49048 
L 129.410974 125.263181 
L 130.663867 124.803916 
L 131.888917 124.062811 
L 134.478229 125.263181 
L 137.540855 125.263181 
L 138.574193 122.935237 
L 139.667193 124.803916 
L 142.246162 122.529418 
L 145.439249 124.062811 
L 146.733507 125.263181 
L 148.929847 125.263181 
L 150.262289 124.803916 
L 153.405259 125.263181 
L 161.392748 125.263181 
L 165.091764 125.263181 
L 170.707109 124.803916 
L 174.078384 119.116081 
L 177.502162 125.263181 
L 185.508742 125.263181 
" clip-path="url(#pec0d8307bd)" style="fill: none; stroke: #000000; stroke-linecap: round"/>
   </g>
   <g id="patch_3">
    <path d="M 38.0055 130.613859 
L 38.0055 22.568 
" style="fill: none; stroke: #262626; stroke-linejoin: miter; stroke-linecap: square"/>
   </g>
   <g id="patch_4">
    <path d="M 38.0055 130.613859 
L 198.37575 130.613859 
" style="fill: none; stroke: #262626; stroke-linejoin: miter; stroke-linecap: square"/>
   </g>
   <g id="text_5">
    <!-- A. macleodii 1A3 -->
    <g style="fill: #262626" transform="translate(82.173375 17.568) scale(0.096 -0.096)">
     <defs>
      <path id="ArialMT-41" d="M -9 0 
L 1750 4581 
L 2403 4581 
L 4278 0 
L 3588 0 
L 3053 1388 
L 1138 1388 
L 634 0 
L -9 0 
z
M 1313 1881 
L 2866 1881 
L 2388 3150 
Q 2169 3728 2063 4100 
Q 1975 3659 1816 3225 
L 1313 1881 
z
" transform="scale(0.015625)"/>
      <path id="ArialMT-2e" d="M 581 0 
L 581 641 
L 1222 641 
L 1222 0 
L 581 0 
z
" transform="scale(0.015625)"/>
      <path id="ArialMT-20" transform="scale(0.015625)"/>
      <path id="ArialMT-6d" d="M 422 0 
L 422 3319 
L 925 3319 
L 925 2853 
Q 1081 3097 1340 3245 
Q 1600 3394 1931 3394 
Q 2300 3394 2536 3241 
Q 2772 3088 2869 2813 
Q 3263 3394 3894 3394 
Q 4388 3394 4653 3120 
Q 4919 2847 4919 2278 
L 4919 0 
L 4359 0 
L 4359 2091 
Q 4359 2428 4304 2576 
Q 4250 2725 4106 2815 
Q 3963 2906 3769 2906 
Q 3419 2906 3187 2673 
Q 2956 2441 2956 1928 
L 2956 0 
L 2394 0 
L 2394 2156 
Q 2394 2531 2256 2718 
Q 2119 2906 1806 2906 
Q 1569 2906 1367 2781 
Q 1166 2656 1075 2415 
Q 984 2175 984 1722 
L 984 0 
L 422 0 
z
" transform="scale(0.015625)"/>
      <path id="ArialMT-61" d="M 2588 409 
Q 2275 144 1986 34 
Q 1697 -75 1366 -75 
Q 819 -75 525 192 
Q 231 459 231 875 
Q 231 1119 342 1320 
Q 453 1522 633 1644 
Q 813 1766 1038 1828 
Q 1203 1872 1538 1913 
Q 2219 1994 2541 2106 
Q 2544 2222 2544 2253 
Q 2544 2597 2384 2738 
Q 2169 2928 1744 2928 
Q 1347 2928 1158 2789 
Q 969 2650 878 2297 
L 328 2372 
Q 403 2725 575 2942 
Q 747 3159 1072 3276 
Q 1397 3394 1825 3394 
Q 2250 3394 2515 3294 
Q 2781 3194 2906 3042 
Q 3031 2891 3081 2659 
Q 3109 2516 3109 2141 
L 3109 1391 
Q 3109 606 3145 398 
Q 3181 191 3288 0 
L 2700 0 
Q 2613 175 2588 409 
z
M 2541 1666 
Q 2234 1541 1622 1453 
Q 1275 1403 1131 1340 
Q 988 1278 909 1158 
Q 831 1038 831 891 
Q 831 666 1001 516 
Q 1172 366 1500 366 
Q 1825 366 2078 508 
Q 2331 650 2450 897 
Q 2541 1088 2541 1459 
L 2541 1666 
z
" transform="scale(0.015625)"/>
      <path id="ArialMT-64" d="M 2575 0 
L 2575 419 
Q 2259 -75 1647 -75 
Q 1250 -75 917 144 
Q 584 363 401 755 
Q 219 1147 219 1656 
Q 219 2153 384 2558 
Q 550 2963 881 3178 
Q 1213 3394 1622 3394 
Q 1922 3394 2156 3267 
Q 2391 3141 2538 2938 
L 2538 4581 
L 3097 4581 
L 3097 0 
L 2575 0 
z
M 797 1656 
Q 797 1019 1065 703 
Q 1334 388 1700 388 
Q 2069 388 2326 689 
Q 2584 991 2584 1609 
Q 2584 2291 2321 2609 
Q 2059 2928 1675 2928 
Q 1300 2928 1048 2622 
Q 797 2316 797 1656 
z
" transform="scale(0.015625)"/>
      <path id="ArialMT-69" d="M 425 3934 
L 425 4581 
L 988 4581 
L 988 3934 
L 425 3934 
z
M 425 0 
L 425 3319 
L 988 3319 
L 988 0 
L 425 0 
z
" transform="scale(0.015625)"/>
      <path id="ArialMT-33" d="M 269 1209 
L 831 1284 
Q 928 806 1161 595 
Q 1394 384 1728 384 
Q 2125 384 2398 659 
Q 2672 934 2672 1341 
Q 2672 1728 2419 1979 
Q 2166 2231 1775 2231 
Q 1616 2231 1378 2169 
L 1441 2663 
Q 1497 2656 1531 2656 
Q 1891 2656 2178 2843 
Q 2466 3031 2466 3422 
Q 2466 3731 2256 3934 
Q 2047 4138 1716 4138 
Q 1388 4138 1169 3931 
Q 950 3725 888 3313 
L 325 3413 
Q 428 3978 793 4289 
Q 1159 4600 1703 4600 
Q 2078 4600 2393 4439 
Q 2709 4278 2876 4000 
Q 3044 3722 3044 3409 
Q 3044 3113 2884 2869 
Q 2725 2625 2413 2481 
Q 2819 2388 3044 2092 
Q 3269 1797 3269 1353 
Q 3269 753 2831 336 
Q 2394 -81 1725 -81 
Q 1122 -81 723 278 
Q 325 638 269 1209 
z
" transform="scale(0.015625)"/>
     </defs>
     <use xlink:href="#ArialMT-41"/>
     <use xlink:href="#ArialMT-2e" x="66.699219"/>
     <use xlink:href="#ArialMT-20" x="94.482422"/>
     <use xlink:href="#ArialMT-6d" x="122.265625"/>
     <use xlink:href="#ArialMT-61" x="205.566406"/>
     <use xlink:href="#ArialMT-63" x="261.181641"/>
     <use xlink:href="#ArialMT-6c" x="311.181641"/>
     <use xlink:href="#ArialMT-65" x="333.398438"/>
     <use xlink:href="#ArialMT-6f" x="389.013672"/>
     <use xlink:href="#ArialMT-64" x="444.628906"/>
     <use xlink:href="#ArialMT-69" x="500.244141"/>
     <use xlink:href="#ArialMT-69" x="522.460938"/>
     <use xlink:href="#ArialMT-20" x="544.677734"/>
     <use xlink:href="#ArialMT-31" x="572.460938"/>
     <use xlink:href="#ArialMT-41" x="628.076172"/>
     <use xlink:href="#ArialMT-33" x="694.775391"/>
    </g>
   </g>
  </g>
  <g id="axes_2">
   <g id="patch_5">
    <path d="M 38.0055 265.319906 
L 198.37575 265.319906 
L 198.37575 157.274047 
L 38.0055 157.274047 
z
" style="fill: #ffffff"/>
   </g>
   <g id="matplotlib.axis_3">
    <g id="xtick_4"/>
    <g id="xtick_5"/>
    <g id="xtick_6"/>
   </g>
   <g id="matplotlib.axis_4">
    <g id="ytick_27">
     <g id="text_6">
      <!-- $\mathdefault{10^{-1}}$ -->
      <g style="fill: #262626" transform="translate(11.7815 246.589883) scale(0.088 -0.088)">
       <use xlink:href="#ArialMT-31" transform="translate(0 0.99375)"/>
       <use xlink:href="#ArialMT-30" transform="translate(55.615234 0.99375)"/>
       <use xlink:href="#ArialMT-2212" transform="translate(112.972813 70.6875) scale(0.7)"/>
       <use xlink:href="#ArialMT-31" transform="translate(153.851719 70.6875) scale(0.7)"/>
      </g>
     </g>
    </g>
    <g id="ytick_28">
     <g id="text_7">
      <!-- $\mathdefault{10^{0}}$ -->
      <g style="fill: #262626" transform="translate(15.3895 203.763465) scale(0.088 -0.088)">
       <use xlink:href="#ArialMT-31" transform="translate(0 0.99375)"/>
       <use xlink:href="#ArialMT-30" transform="translate(55.615234 0.99375)"/>
       <use xlink:href="#ArialMT-30" transform="translate(112.972813 70.6875) scale(0.7)"/>
      </g>
     </g>
    </g>
    <g id="ytick_29">
     <g id="text_8">
      <!-- $\mathdefault{10^{1}}$ -->
      <g style="fill: #262626" transform="translate(15.3895 160.937047) scale(0.088 -0.088)">
       <use xlink:href="#ArialMT-31" transform="translate(0 0.99375)"/>
       <use xlink:href="#ArialMT-30" transform="translate(55.615234 0.99375)"/>
       <use xlink:href="#ArialMT-31" transform="translate(112.972813 70.6875) scale(0.7)"/>
      </g>
     </g>
    </g>
    <g id="ytick_30"/>
    <g id="ytick_31"/>
    <g id="ytick_32"/>
    <g id="ytick_33"/>
    <g id="ytick_34"/>
    <g id="ytick_35"/>
    <g id="ytick_36"/>
    <g id="ytick_37"/>
    <g id="ytick_38"/>
    <g id="ytick_39"/>
    <g id="ytick_40"/>
    <g id="ytick_41"/>
    <g id="ytick_42"/>
    <g id="ytick_43"/>
    <g id="ytick_44"/>
    <g id="ytick_45"/>
    <g id="ytick_46"/>
    <g id="ytick_47"/>
    <g id="ytick_48"/>
    <g id="ytick_49"/>
    <g id="ytick_50"/>
    <g id="ytick_51"/>
    <g id="ytick_52"/>
    <g id="text_9">
     <!-- Fluorescence -->
     <g style="fill: #262626" transform="translate(4.8735 240.108977) rotate(-90) scale(0.096 -0.096)">
      <use xlink:href="#ArialMT-46"/>
      <use xlink:href="#ArialMT-6c" x="61.083984"/>
      <use xlink:href="#ArialMT-75" x="83.300781"/>
      <use xlink:href="#ArialMT-6f" x="138.916016"/>
      <use xlink:href="#ArialMT-72" x="194.53125"/>
      <use xlink:href="#ArialMT-65" x="227.832031"/>
      <use xlink:href="#ArialMT-73" x="283.447266"/>
      <use xlink:href="#ArialMT-63" x="333.447266"/>
      <use xlink:href="#ArialMT-65" x="383.447266"/>
      <use xlink:href="#ArialMT-6e" x="439.0625"/>
      <use xlink:href="#ArialMT-63" x="494.677734"/>
      <use xlink:href="#ArialMT-65" x="544.677734"/>
     </g>
    </g>
   </g>
   <g id="line2d_5">
    <path d="M 38.0055 240.006726 
L 39.244869 254.046219 
L 40.485034 240.819051 
L 41.152448 237.763133 
L 42.305905 226.566461 
L 43.390949 222.431594 
L 44.557929 213.635877 
L 45.716954 208.54696 
L 45.716954 205.675685 
L 45.716954 205.22928 
L 47.151218 206.340015 
L 48.250582 215.327886 
L 49.169369 216.413333 
L 49.169369 215.971524 
L 49.169369 213.406253 
L 50.416694 217.613703 
L 50.416694 215.118197 
L 50.416694 215.076541 
L 51.428554 216.191117 
L 51.428554 215.71139 
L 51.428554 214.222654 
L 52.702924 208.170032 
L 52.702924 207.246176 
L 52.702924 206.948148 
L 53.694102 206.081688 
L 53.694102 206.004884 
L 53.694102 205.278355 
L 56.495013 207.110117 
L 57.166404 214.342264 
L 57.166404 213.217042 
L 57.166404 211.186015 
L 58.311906 209.294019 
L 58.311906 208.459296 
L 58.311906 206.86769 
L 59.439907 209.882555 
L 59.439907 208.112716 
L 59.439907 208.055575 
L 60.584613 206.184588 
L 60.584613 205.953857 
L 60.584613 205.451143 
L 61.807277 205.451143 
L 61.807277 205.131518 
L 61.807277 204.865291 
L 63.069715 208.812457 
L 63.069715 207.028956 
L 63.069715 206.549292 
L 65.381402 208.871975 
L 65.381402 208.34305 
L 65.381402 207.273508 
L 67.48467 200.898513 
L 67.48467 199.860232 
L 67.48467 198.583136 
L 68.644491 201.290918 
L 68.644491 200.821016 
L 68.644491 199.823547 
L 69.910907 202.205321 
L 69.910907 201.813743 
L 69.910907 200.879109 
L 72.123157 211.561081 
L 73.603559 201.67153 
L 74.453139 200.47622 
L 74.453139 199.860232 
L 74.453139 198.583136 
L 75.554094 202.712029 
L 75.554094 201.054483 
L 75.554094 200.137701 
L 76.650276 201.370402 
L 76.650276 200.956849 
L 76.650276 200.917938 
L 77.835552 202.33071 
L 77.835552 202.080772 
L 77.835552 202.018808 
L 80.277698 210.588129 
L 81.29274 208.901806 
L 81.29274 208.459296 
L 81.29274 207.137249 
L 83.720567 210.008866 
L 83.720567 208.285198 
L 83.720567 207.246176 
L 84.792884 209.694682 
L 85.927249 208.871975 
L 89.277046 209.508687 
L 91.60862 221.468309 
L 92.896514 223.910035 
L 93.917919 229.485074 
L 95.174789 231.484875 
L 97.324196 232.840043 
L 98.719481 239.535833 
L 100.771838 240.327412 
L 105.403961 237.62276 
L 106.63458 235.888239 
L 110.048812 241.495463 
L 113.209283 245.732079 
L 114.746165 238.047097 
L 115.881325 244.47772 
L 117.963911 243.880901 
L 121.369392 237.07163 
L 122.507735 234.301765 
L 126.13993 241.843123 
L 129.410974 234.185155 
L 130.663867 239.2284 
L 131.888917 240.166378 
L 134.478229 233.500442 
L 137.540855 238.335464 
L 138.574193 231.384609 
L 139.667193 232.518434 
L 142.246162 235.385525 
L 145.439249 235.385525 
L 146.733507 238.776574 
L 148.929847 239.076569 
L 150.262289 236.802071 
L 153.405259 232.412455 
L 161.392748 239.2284 
L 165.091764 238.776574 
L 170.707109 251.818003 
L 174.078384 256.578179 
L 177.502162 259.969228 
L 185.508742 259.969228 
" clip-path="url(#p20134b97ff)" style="fill: none; stroke: #882255; stroke-width: 3; stroke-linecap: round"/>
   </g>
   <g id="line2d_6">
    <path d="M 38.0055 232.732221 
L 39.244869 258.624116 
L 40.485034 241.495463 
L 41.152448 259.061766 
L 42.305905 250.655169 
L 43.390949 259.969228 
L 44.557929 247.311148 
L 45.716954 259.969228 
L 45.716954 251.818003 
L 45.716954 249.296955 
L 47.151218 256.578179 
L 48.250582 242.926883 
L 49.169369 255.089442 
L 49.169369 245.094327 
L 49.169369 244.276645 
L 50.416694 244.07772 
L 50.416694 239.691477 
L 50.416694 234.656048 
L 51.428554 239.848434 
L 51.428554 237.62276 
L 51.428554 235.888239 
L 52.702924 228.432003 
L 52.702924 227.67957 
L 52.702924 226.03393 
L 53.694102 222.369905 
L 53.694102 220.110921 
L 53.694102 218.492572 
L 56.495013 203.588482 
L 57.166404 200.100465 
L 57.166404 199.713925 
L 57.166404 199.604944 
L 58.311906 191.675278 
L 58.311906 191.358737 
L 58.311906 190.264014 
L 59.439907 183.509946 
L 59.439907 183.418699 
L 59.439907 183.350555 
L 60.584613 177.476391 
L 60.584613 176.799979 
L 60.584613 176.746914 
L 61.807277 172.683712 
L 61.807277 172.47618 
L 61.807277 171.867129 
L 63.069715 169.60187 
L 63.069715 169.159689 
L 63.069715 168.907681 
L 65.381402 166.682269 
L 65.381402 166.639137 
L 65.381402 166.333924 
L 67.48467 174.820698 
L 67.48467 174.777749 
L 67.48467 174.536228 
L 68.644491 181.271897 
L 68.644491 180.568953 
L 68.644491 180.087163 
L 69.910907 185.435728 
L 69.910907 185.233925 
L 69.910907 184.304176 
L 72.123157 230.034846 
L 73.603559 190.674024 
L 74.453139 191.08182 
L 74.453139 190.089474 
L 74.453139 188.809876 
L 75.554094 191.382001 
L 75.554094 190.808965 
L 75.554094 190.528934 
L 76.650276 190.910817 
L 76.650276 190.876804 
L 76.650276 189.628356 
L 77.835552 191.889339 
L 77.835552 191.663458 
L 77.835552 190.83155 
L 80.277698 194.726552 
L 81.29274 193.829044 
L 81.29274 193.762784 
L 81.29274 193.38306 
L 83.720567 195.69891 
L 83.720567 194.726552 
L 83.720567 194.015839 
L 84.792884 194.504964 
L 85.927249 193.125626 
L 89.277046 196.009769 
L 91.60862 200.212397 
L 92.896514 201.752661 
L 93.917919 206.523003 
L 95.174789 212.442729 
L 97.324196 227.67957 
L 98.719481 228.603427 
L 100.771838 233.72589 
L 105.403961 227.597815 
L 106.63458 227.844167 
L 110.048812 240.653723 
L 113.209283 234.069271 
L 114.746165 238.190721 
L 115.881325 238.776574 
L 117.963911 234.069271 
L 121.369392 228.432003 
L 122.507735 229.216164 
L 126.13993 214.787534 
L 129.410974 207.716369 
L 130.663867 203.655912 
L 131.888917 203.610932 
L 134.478229 222.743147 
L 137.540855 219.948007 
L 138.574193 223.578488 
L 139.667193 225.884538 
L 142.246162 227.035375 
L 145.439249 231.28488 
L 146.733507 232.948494 
L 148.929847 232.840043 
L 150.262289 236.668742 
L 153.405259 238.776574 
L 161.392748 245.517056 
L 165.091764 245.949617 
L 170.707109 249.036821 
L 174.078384 238.925966 
L 177.502162 254.046219 
L 185.508742 251.818003 
" clip-path="url(#p20134b97ff)" style="fill: none; stroke: #882255; stroke-width: 3; stroke-linecap: round"/>
   </g>
   <g id="line2d_7">
    <path d="M 38.0055 235.261941 
L 39.244869 253.381888 
L 40.485034 248.277561 
L 41.152448 249.296955 
L 42.305905 249.296955 
L 43.390949 243.302638 
L 44.557929 241.32404 
L 45.716954 238.335464 
L 45.716954 238.190721 
L 45.716954 236.016069 
L 47.151218 223.252748 
L 48.250582 216.235348 
L 49.169369 214.302308 
L 49.169369 213.79055 
L 49.169369 213.292496 
L 50.416694 207.383239 
L 50.416694 205.500808 
L 50.416694 205.401611 
L 51.428554 197.404206 
L 51.428554 196.49368 
L 51.428554 195.787198 
L 52.702924 189.660159 
L 52.702924 189.085577 
L 52.702924 188.240925 
L 53.694102 182.983871 
L 53.694102 182.530029 
L 53.694102 182.235878 
L 56.495013 171.206446 
L 57.166404 170.341743 
L 57.166404 170.028955 
L 57.166404 169.177317 
L 58.311906 169.674185 
L 58.311906 169.547818 
L 58.311906 169.033258 
L 59.439907 179.390153 
L 59.439907 179.11128 
L 59.439907 178.618437 
L 60.584613 183.555738 
L 60.584613 182.537262 
L 60.584613 181.9393 
L 61.807277 187.603173 
L 61.807277 186.487896 
L 61.807277 186.221426 
L 63.069715 191.28912 
L 63.069715 190.373939 
L 63.069715 190.264014 
L 65.381402 194.518736 
L 65.381402 192.534324 
L 65.381402 192.398608 
L 67.48467 193.74956 
L 67.48467 193.010933 
L 67.48467 192.846505 
L 68.644491 193.344217 
L 68.644491 193.176829 
L 68.644491 192.349501 
L 69.910907 195.950156 
L 69.910907 195.436534 
L 69.910907 193.922207 
L 72.123157 185.351377 
L 73.603559 194.698708 
L 74.453139 195.206377 
L 74.453139 193.975653 
L 74.453139 193.617836 
L 75.554094 194.880439 
L 75.554094 194.684802 
L 75.554094 194.245213 
L 76.650276 195.935283 
L 76.650276 194.422545 
L 76.650276 194.313217 
L 77.835552 195.049781 
L 77.835552 194.643147 
L 77.835552 194.58775 
L 80.277698 195.364304 
L 81.29274 197.728809 
L 81.29274 196.129572 
L 81.29274 195.364304 
L 83.720567 200.609549 
L 83.720567 200.0077 
L 83.720567 199.568759 
L 84.792884 201.370402 
L 85.927249 202.142942 
L 89.277046 214.143339 
L 91.60862 220.496698 
L 92.896514 229.039027 
L 93.917919 224.179594 
L 95.174789 220.441094 
L 97.324196 230.601365 
L 98.719481 226.489445 
L 100.771838 231.384609 
L 105.403961 234.069271 
L 106.63458 230.988864 
L 110.048812 234.656048 
L 113.209283 233.954105 
L 114.746165 233.167311 
L 115.881325 247.548084 
L 117.963911 240.819051 
L 121.369392 234.185155 
L 122.507735 230.89123 
L 126.13993 222.493488 
L 129.410974 222.680417 
L 130.663867 218.89692 
L 131.888917 217.999194 
L 134.478229 222.55559 
L 137.540855 219.102439 
L 138.574193 219.310255 
L 139.667193 223.124033 
L 142.246162 223.38236 
L 145.439249 225.226734 
L 146.733507 231.687043 
L 148.929847 227.67957 
L 150.262289 227.274341 
L 153.405259 238.047097 
L 161.392748 244.07772 
L 165.091764 245.732079 
L 170.707109 241.32404 
L 174.078384 246.846141 
L 177.502162 240.489852 
L 185.508742 252.120437 
" clip-path="url(#p20134b97ff)" style="fill: none; stroke: #882255; stroke-width: 3; stroke-linecap: round"/>
   </g>
   <g id="line2d_8">
    <path d="M 38.0055 239.127042 
L 39.244869 253.933836 
L 40.485034 235.01721 
L 41.152448 227.789139 
L 42.305905 220.627089 
L 43.390949 210.490324 
L 44.557929 199.610982 
L 45.716954 191.301993 
L 47.151218 180.413418 
L 48.250582 183.986052 
L 49.169369 191.141725 
L 50.416694 200.84036 
L 51.428554 201.552727 
L 52.702924 203.123199 
L 53.694102 202.447569 
L 56.495013 207.53056 
L 57.166404 207.982816 
L 58.311906 212.211431 
L 59.439907 217.460665 
L 60.584613 219.852134 
L 61.807277 221.704494 
L 63.069715 229.395005 
L 65.381402 235.24826 
L 67.48467 235.874089 
L 68.644491 240.148571 
L 69.910907 248.499314 
L 72.123157 259.969228 
L 73.603559 259.969228 
L 74.453139 258.865982 
L 75.554094 259.160436 
L 76.650276 257.824529 
L 77.835552 257.235465 
L 80.277698 259.969228 
L 81.29274 257.190916 
L 83.720567 258.672238 
L 84.792884 259.969228 
L 85.927249 258.768858 
L 89.277046 259.969228 
L 91.60862 259.969228 
L 92.896514 259.509963 
L 93.917919 253.711087 
L 95.174789 259.969228 
L 97.324196 259.969228 
L 98.719481 259.359361 
L 100.771838 259.969228 
L 105.403961 256.321633 
L 106.63458 259.509963 
L 110.048812 259.969228 
L 113.209283 258.056155 
L 114.746165 259.969228 
L 115.881325 259.359361 
L 117.963911 259.969228 
L 121.369392 258.768858 
L 122.507735 259.969228 
L 126.13993 258.196527 
L 129.410974 259.969228 
L 130.663867 259.509963 
L 131.888917 258.768858 
L 134.478229 259.969228 
L 137.540855 259.969228 
L 138.574193 257.641284 
L 139.667193 259.509963 
L 142.246162 257.235465 
L 145.439249 258.768858 
L 146.733507 259.969228 
L 148.929847 259.969228 
L 150.262289 259.509963 
L 153.405259 259.969228 
L 161.392748 259.969228 
L 165.091764 259.969228 
L 170.707109 259.509963 
L 174.078384 253.822128 
L 177.502162 259.969228 
L 185.508742 259.969228 
" clip-path="url(#p20134b97ff)" style="fill: none; stroke: #000000; stroke-linecap: round"/>
   </g>
   <g id="patch_6">
    <path d="M 38.0055 265.319906 
L 38.0055 157.274047 
" style="fill: none; stroke: #262626; stroke-linejoin: miter; stroke-linecap: square"/>
   </g>
   <g id="patch_7">
    <path d="M 38.0055 265.319906 
L 198.37575 265.319906 
" style="fill: none; stroke: #262626; stroke-linejoin: miter; stroke-linecap: square"/>
   </g>
   <g id="text_10">
    <!-- Pseudoalteromonas haloplanktis -->
    <g style="fill: #262626" transform="translate(48.817875 152.274047) scale(0.096 -0.096)">
     <defs>
      <path id="ArialMT-50" d="M 494 0 
L 494 4581 
L 2222 4581 
Q 2678 4581 2919 4538 
Q 3256 4481 3484 4323 
Q 3713 4166 3852 3881 
Q 3991 3597 3991 3256 
Q 3991 2672 3619 2267 
Q 3247 1863 2275 1863 
L 1100 1863 
L 1100 0 
L 494 0 
z
M 1100 2403 
L 2284 2403 
Q 2872 2403 3119 2622 
Q 3366 2841 3366 3238 
Q 3366 3525 3220 3729 
Q 3075 3934 2838 4000 
Q 2684 4041 2272 4041 
L 1100 4041 
L 1100 2403 
z
" transform="scale(0.015625)"/>
      <path id="ArialMT-74" d="M 1650 503 
L 1731 6 
Q 1494 -44 1306 -44 
Q 1000 -44 831 53 
Q 663 150 594 308 
Q 525 466 525 972 
L 525 2881 
L 113 2881 
L 113 3319 
L 525 3319 
L 525 4141 
L 1084 4478 
L 1084 3319 
L 1650 3319 
L 1650 2881 
L 1084 2881 
L 1084 941 
Q 1084 700 1114 631 
Q 1144 563 1211 522 
Q 1278 481 1403 481 
Q 1497 481 1650 503 
z
" transform="scale(0.015625)"/>
      <path id="ArialMT-68" d="M 422 0 
L 422 4581 
L 984 4581 
L 984 2938 
Q 1378 3394 1978 3394 
Q 2347 3394 2619 3248 
Q 2891 3103 3008 2847 
Q 3125 2591 3125 2103 
L 3125 0 
L 2563 0 
L 2563 2103 
Q 2563 2525 2380 2717 
Q 2197 2909 1863 2909 
Q 1613 2909 1392 2779 
Q 1172 2650 1078 2428 
Q 984 2206 984 1816 
L 984 0 
L 422 0 
z
" transform="scale(0.015625)"/>
      <path id="ArialMT-70" d="M 422 -1272 
L 422 3319 
L 934 3319 
L 934 2888 
Q 1116 3141 1344 3267 
Q 1572 3394 1897 3394 
Q 2322 3394 2647 3175 
Q 2972 2956 3137 2557 
Q 3303 2159 3303 1684 
Q 3303 1175 3120 767 
Q 2938 359 2589 142 
Q 2241 -75 1856 -75 
Q 1575 -75 1351 44 
Q 1128 163 984 344 
L 984 -1272 
L 422 -1272 
z
M 931 1641 
Q 931 1000 1190 694 
Q 1450 388 1819 388 
Q 2194 388 2461 705 
Q 2728 1022 2728 1688 
Q 2728 2322 2467 2637 
Q 2206 2953 1844 2953 
Q 1484 2953 1207 2617 
Q 931 2281 931 1641 
z
" transform="scale(0.015625)"/>
      <path id="ArialMT-6b" d="M 425 0 
L 425 4581 
L 988 4581 
L 988 1969 
L 2319 3319 
L 3047 3319 
L 1778 2088 
L 3175 0 
L 2481 0 
L 1384 1697 
L 988 1316 
L 988 0 
L 425 0 
z
" transform="scale(0.015625)"/>
     </defs>
     <use xlink:href="#ArialMT-50"/>
     <use xlink:href="#ArialMT-73" x="66.699219"/>
     <use xlink:href="#ArialMT-65" x="116.699219"/>
     <use xlink:href="#ArialMT-75" x="172.314453"/>
     <use xlink:href="#ArialMT-64" x="227.929688"/>
     <use xlink:href="#ArialMT-6f" x="283.544922"/>
     <use xlink:href="#ArialMT-61" x="339.160156"/>
     <use xlink:href="#ArialMT-6c" x="394.775391"/>
     <use xlink:href="#ArialMT-74" x="416.992188"/>
     <use xlink:href="#ArialMT-65" x="444.775391"/>
     <use xlink:href="#ArialMT-72" x="500.390625"/>
     <use xlink:href="#ArialMT-6f" x="533.691406"/>
     <use xlink:href="#ArialMT-6d" x="589.306641"/>
     <use xlink:href="#ArialMT-6f" x="672.607422"/>
     <use xlink:href="#ArialMT-6e" x="728.222656"/>
     <use xlink:href="#ArialMT-61" x="783.837891"/>
     <use xlink:href="#ArialMT-73" x="839.453125"/>
     <use xlink:href="#ArialMT-20" x="889.453125"/>
     <use xlink:href="#ArialMT-68" x="917.236328"/>
     <use xlink:href="#ArialMT-61" x="972.851562"/>
     <use xlink:href="#ArialMT-6c" x="1028.466797"/>
     <use xlink:href="#ArialMT-6f" x="1050.683594"/>
     <use xlink:href="#ArialMT-70" x="1106.298828"/>
     <use xlink:href="#ArialMT-6c" x="1161.914062"/>
     <use xlink:href="#ArialMT-61" x="1184.130859"/>
     <use xlink:href="#ArialMT-6e" x="1239.746094"/>
     <use xlink:href="#ArialMT-6b" x="1295.361328"/>
     <use xlink:href="#ArialMT-74" x="1345.361328"/>
     <use xlink:href="#ArialMT-69" x="1373.144531"/>
     <use xlink:href="#ArialMT-73" x="1395.361328"/>
    </g>
   </g>
  </g>
  <g id="axes_3">
   <g id="patch_8">
    <path d="M 38.0055 400.025953 
L 198.37575 400.025953 
L 198.37575 291.980094 
L 38.0055 291.980094 
z
" style="fill: #ffffff"/>
   </g>
   <g id="matplotlib.axis_5">
    <g id="xtick_7"/>
    <g id="xtick_8"/>
    <g id="xtick_9"/>
   </g>
   <g id="matplotlib.axis_6">
    <g id="ytick_53">
     <g id="text_11">
      <!-- $\mathdefault{10^{-1}}$ -->
      <g style="fill: #262626" transform="translate(11.7815 381.295929) scale(0.088 -0.088)">
       <use xlink:href="#ArialMT-31" transform="translate(0 0.99375)"/>
       <use xlink:href="#ArialMT-30" transform="translate(55.615234 0.99375)"/>
       <use xlink:href="#ArialMT-2212" transform="translate(112.972813 70.6875) scale(0.7)"/>
       <use xlink:href="#ArialMT-31" transform="translate(153.851719 70.6875) scale(0.7)"/>
      </g>
     </g>
    </g>
    <g id="ytick_54">
     <g id="text_12">
      <!-- $\mathdefault{10^{0}}$ -->
      <g style="fill: #262626" transform="translate(15.3895 338.469512) scale(0.088 -0.088)">
       <use xlink:href="#ArialMT-31" transform="translate(0 0.99375)"/>
       <use xlink:href="#ArialMT-30" transform="translate(55.615234 0.99375)"/>
       <use xlink:href="#ArialMT-30" transform="translate(112.972813 70.6875) scale(0.7)"/>
      </g>
     </g>
    </g>
    <g id="ytick_55">
     <g id="text_13">
      <!-- $\mathdefault{10^{1}}$ -->
      <g style="fill: #262626" transform="translate(15.3895 295.643094) scale(0.088 -0.088)">
       <use xlink:href="#ArialMT-31" transform="translate(0 0.99375)"/>
       <use xlink:href="#ArialMT-30" transform="translate(55.615234 0.99375)"/>
       <use xlink:href="#ArialMT-31" transform="translate(112.972813 70.6875) scale(0.7)"/>
      </g>
     </g>
    </g>
    <g id="ytick_56"/>
    <g id="ytick_57"/>
    <g id="ytick_58"/>
    <g id="ytick_59"/>
    <g id="ytick_60"/>
    <g id="ytick_61"/>
    <g id="ytick_62"/>
    <g id="ytick_63"/>
    <g id="ytick_64"/>
    <g id="ytick_65"/>
    <g id="ytick_66"/>
    <g id="ytick_67"/>
    <g id="ytick_68"/>
    <g id="ytick_69"/>
    <g id="ytick_70"/>
    <g id="ytick_71"/>
    <g id="ytick_72"/>
    <g id="ytick_73"/>
    <g id="ytick_74"/>
    <g id="ytick_75"/>
    <g id="ytick_76"/>
    <g id="ytick_77"/>
    <g id="ytick_78"/>
    <g id="text_14">
     <!-- Fluorescence -->
     <g style="fill: #262626" transform="translate(4.8735 374.815023) rotate(-90) scale(0.096 -0.096)">
      <use xlink:href="#ArialMT-46"/>
      <use xlink:href="#ArialMT-6c" x="61.083984"/>
      <use xlink:href="#ArialMT-75" x="83.300781"/>
      <use xlink:href="#ArialMT-6f" x="138.916016"/>
      <use xlink:href="#ArialMT-72" x="194.53125"/>
      <use xlink:href="#ArialMT-65" x="227.832031"/>
      <use xlink:href="#ArialMT-73" x="283.447266"/>
      <use xlink:href="#ArialMT-63" x="333.447266"/>
      <use xlink:href="#ArialMT-65" x="383.447266"/>
      <use xlink:href="#ArialMT-6e" x="439.0625"/>
      <use xlink:href="#ArialMT-63" x="494.677734"/>
      <use xlink:href="#ArialMT-65" x="544.677734"/>
     </g>
    </g>
   </g>
   <g id="line2d_9">
    <path d="M 38.0055 381.783238 
L 39.244869 385.361216 
L 40.485034 375.525098 
L 41.152448 371.110965 
L 42.305905 369.362095 
L 43.390949 360.368722 
L 44.557929 353.912104 
L 45.716954 351.988877 
L 45.716954 351.435011 
L 45.716954 350.460541 
L 47.151218 350.118475 
L 48.250582 342.310708 
L 49.169369 346.440146 
L 49.169369 344.153147 
L 49.169369 343.020149 
L 50.416694 353.148688 
L 50.416694 351.526185 
L 50.416694 351.209015 
L 51.428554 353.756893 
L 51.428554 353.198619 
L 51.428554 351.802417 
L 52.702924 349.699555 
L 52.702924 347.735784 
L 52.702924 346.061609 
L 53.694102 350.288722 
L 53.694102 347.885477 
L 53.694102 345.458337 
L 56.495013 348.849386 
L 57.166404 353.55194 
L 57.166404 353.298885 
L 57.166404 351.942086 
L 58.311906 354.121086 
L 58.311906 352.129959 
L 58.311906 351.942086 
L 59.439907 352.177226 
L 59.439907 351.571939 
L 59.439907 351.526185 
L 60.584613 355.483282 
L 60.584613 353.96413 
L 60.584613 353.705443 
L 61.807277 354.546231 
L 61.807277 351.848857 
L 61.807277 348.928701 
L 63.069715 353.654134 
L 63.069715 351.663788 
L 63.069715 350.941395 
L 65.381402 353.705443 
L 65.381402 352.999694 
L 65.381402 351.802417 
L 67.48467 355.147141 
L 67.48467 354.016301 
L 67.48467 351.344283 
L 68.644491 354.981322 
L 68.644491 353.298885 
L 68.644491 350.374433 
L 69.910907 351.709883 
L 69.910907 349.330428 
L 69.910907 349.249386 
L 72.123157 350.677571 
L 73.603559 355.768116 
L 74.453139 353.756893 
L 74.453139 352.415376 
L 74.453139 352.082813 
L 75.554094 352.608116 
L 75.554094 351.253995 
L 75.554094 350.374433 
L 76.650276 354.332444 
L 76.650276 353.248685 
L 76.650276 352.753994 
L 77.835552 354.385661 
L 77.835552 349.411826 
L 77.835552 348.889001 
L 80.277698 350.203404 
L 81.29274 347.847941 
L 81.29274 347.2938 
L 81.29274 347.2938 
L 83.720567 352.851885 
L 83.720567 350.547049 
L 83.720567 349.741025 
L 84.792884 349.168695 
L 85.927249 351.571939 
L 89.277046 352.224612 
L 91.60862 352.27212 
L 92.896514 356.470058 
L 93.917919 353.808486 
L 95.174789 353.248685 
L 97.324196 350.547049 
L 98.719481 352.035786 
L 100.771838 355.483282 
L 105.403961 359.29745 
L 106.63458 362.550214 
L 110.048812 354.226465 
L 113.209283 361.118794 
L 114.746165 359.29745 
L 115.881325 362.222465 
L 117.963911 362.141422 
L 121.369392 358.750373 
L 122.507735 361.272508 
L 126.13993 368.660152 
L 129.410974 363.745074 
L 130.663867 361.980388 
L 131.888917 371.110965 
L 134.478229 371.508118 
L 137.540855 360.665131 
L 138.574193 364.927822 
L 139.667193 364.927822 
L 142.246162 361.505487 
L 145.439249 356.174356 
L 146.733507 355.539901 
L 148.929847 355.999165 
L 150.262289 356.529767 
L 153.405259 357.638662 
L 161.392748 361.662444 
L 165.091764 357.702249 
L 170.707109 354.385661 
L 174.078384 356.831221 
L 177.502162 363.13805 
L 185.508742 382.983608 
" clip-path="url(#p038b395861)" style="fill: none; stroke: #cc6677; stroke-width: 3; stroke-linecap: round"/>
   </g>
   <g id="line2d_10">
    <path d="M 38.0055 373.934447 
L 39.244869 392.484595 
L 40.485034 374.872425 
L 41.152448 381.783238 
L 42.305905 365.500153 
L 43.390949 360.442382 
L 44.557929 353.049227 
L 45.716954 352.367501 
L 45.716954 350.118475 
L 45.716954 349.330428 
L 47.151218 354.332444 
L 48.250582 353.501053 
L 49.169369 354.654053 
L 49.169369 352.129959 
L 49.169369 350.417437 
L 50.416694 359.228179 
L 50.416694 358.885641 
L 50.416694 356.649763 
L 51.428554 358.750373 
L 51.428554 358.218929 
L 51.428554 357.323946 
L 52.702924 359.506825 
L 52.702924 358.953646 
L 52.702924 358.416445 
L 53.694102 358.153553 
L 53.694102 356.953184 
L 53.694102 355.941133 
L 56.495013 357.638662 
L 57.166404 361.662444 
L 57.166404 360.96634 
L 57.166404 360.442382 
L 58.311906 364.834123 
L 58.311906 361.505487 
L 58.311906 361.427503 
L 59.439907 361.349844 
L 59.439907 361.118794 
L 59.439907 359.506825 
L 60.584613 363.223564 
L 60.584613 360.22227 
L 60.584613 360.004732 
L 61.807277 363.309473 
L 61.807277 363.223564 
L 61.807277 361.662444 
L 63.069715 366.80414 
L 63.069715 363.13805 
L 63.069715 358.953646 
L 65.381402 362.060731 
L 65.381402 358.023488 
L 65.381402 355.825609 
L 67.48467 360.665131 
L 67.48467 358.482753 
L 67.48467 354.7082 
L 68.644491 356.115776 
L 68.644491 355.768116 
L 68.644491 355.258514 
L 69.910907 359.29745 
L 69.910907 355.710799 
L 69.910907 355.091704 
L 72.123157 360.076962 
L 73.603559 364.463976 
L 74.453139 362.883842 
L 74.453139 362.303862 
L 74.453139 360.516336 
L 75.554094 360.368722 
L 75.554094 360.076962 
L 75.554094 358.885641 
L 76.650276 358.616082 
L 76.650276 357.894326 
L 76.650276 356.892102 
L 77.835552 357.014466 
L 77.835552 356.057379 
L 77.835552 355.768116 
L 80.277698 365.116649 
L 81.29274 359.159165 
L 81.29274 357.766054 
L 81.29274 353.55194 
L 83.720567 364.372579 
L 83.720567 359.090406 
L 83.720567 356.351213 
L 84.792884 358.616082 
L 85.927249 361.820737 
L 89.277046 364.372579 
L 91.60862 367.54609 
L 92.896514 366.393089 
L 93.917919 367.331067 
L 95.174789 365.211786 
L 97.324196 363.395781 
L 98.719481 368.545694 
L 100.771838 373.782616 
L 105.403961 367.763628 
L 106.63458 370.215982 
L 110.048812 367.873358 
L 113.209283 369.362095 
L 114.746165 373.041511 
L 115.881325 378.783767 
L 117.963911 368.891202 
L 121.369392 369.243249 
L 122.507735 367.763628 
L 126.13993 379.38704 
L 129.410974 369.602089 
L 130.663867 372.61062 
L 131.888917 373.334419 
L 134.478229 376.725468 
L 137.540855 376.20151 
L 138.574193 372.753144 
L 139.667193 372.328807 
L 142.246162 371.242409 
L 145.439249 371.242409 
L 146.733507 368.545694 
L 148.929847 367.013123 
L 150.262289 371.374789 
L 153.405259 368.660152 
L 161.392748 372.189486 
L 165.091764 384.805973 
L 170.707109 371.913936 
L 174.078384 376.20151 
L 177.502162 372.328807 
L 185.508742 380.438126 
" clip-path="url(#p038b395861)" style="fill: none; stroke: #cc6677; stroke-width: 3; stroke-linecap: round"/>
   </g>
   <g id="line2d_11">
    <path d="M 38.0055 380.655664 
L 39.244869 394.675275 
L 40.485034 377.819858 
L 41.152448 370.467327 
L 42.305905 369.723257 
L 43.390949 362.222465 
L 44.557929 355.999165 
L 45.716954 359.228179 
L 45.716954 355.710799 
L 45.716954 352.367501 
L 47.151218 359.0219 
L 48.250582 352.753994 
L 49.169369 353.148688 
L 49.169369 350.765097 
L 49.169369 350.331528 
L 50.416694 357.386464 
L 50.416694 352.753994 
L 50.416694 352.511496 
L 51.428554 356.892102 
L 51.428554 356.470058 
L 51.428554 355.147141 
L 52.702924 359.718584 
L 52.702924 356.953184 
L 52.702924 355.091704 
L 53.694102 359.932781 
L 53.694102 356.589668 
L 53.694102 354.762504 
L 56.495013 359.159165 
L 57.166404 366.597479 
L 57.166404 361.118794 
L 57.166404 356.831221 
L 58.311906 363.569607 
L 58.311906 362.71628 
L 58.311906 359.29745 
L 59.439907 363.395781 
L 59.439907 361.741422 
L 59.439907 360.739977 
L 60.584613 362.467734 
L 60.584613 360.890579 
L 60.584613 359.29745 
L 61.807277 364.834123 
L 61.807277 362.303862 
L 61.807277 360.739977 
L 63.069715 362.799872 
L 63.069715 362.385617 
L 63.069715 358.616082 
L 65.381402 362.303862 
L 65.381402 359.29745 
L 65.381402 357.638662 
L 67.48467 360.004732 
L 67.48467 357.638662 
L 67.48467 357.512136 
L 68.644491 358.482753 
L 68.644491 356.529767 
L 68.644491 355.370559 
L 69.910907 354.871591 
L 69.910907 353.808486 
L 69.910907 353.450305 
L 72.123157 358.482753 
L 73.603559 361.980388 
L 74.453139 360.442382 
L 74.453139 360.368722 
L 74.453139 355.483282 
L 75.554094 356.174356 
L 75.554094 355.768116 
L 75.554094 352.656615 
L 76.650276 357.958795 
L 76.650276 357.075952 
L 76.650276 353.148688 
L 77.835552 356.057379 
L 77.835552 353.55194 
L 77.835552 352.999694 
L 80.277698 355.314452 
L 81.29274 354.871591 
L 81.29274 353.298885 
L 81.29274 352.559744 
L 83.720567 356.292073 
L 83.720567 352.177226 
L 83.720567 351.988877 
L 84.792884 355.825609 
L 85.927249 354.385661 
L 89.277046 357.894326 
L 91.60862 361.505487 
L 92.896514 361.349844 
L 93.917919 364.281628 
L 95.174789 360.516336 
L 97.324196 361.5838 
L 98.719481 364.555824 
L 100.771838 365.116649 
L 105.403961 369.125158 
L 106.63458 367.013123 
L 110.048812 366.597479 
L 113.209283 373.482621 
L 114.746165 370.34123 
L 115.881325 371.374789 
L 117.963911 374.397524 
L 121.369392 370.980443 
L 122.507735 372.189486 
L 126.13993 368.660152 
L 129.410974 370.980443 
L 130.663867 368.891202 
L 131.888917 378.783767 
L 134.478229 367.438268 
L 137.540855 377.632929 
L 138.574193 372.896768 
L 139.667193 369.362095 
L 142.246162 374.24188 
L 145.439249 369.84522 
L 146.733507 367.438268 
L 148.929847 373.041511 
L 150.262289 365.793061 
L 153.405259 371.374789 
L 161.392748 372.051201 
L 165.091764 375.691909 
L 170.707109 378.392189 
L 174.078384 381.552188 
L 177.502162 385.933547 
L 185.508742 384.003002 
" clip-path="url(#p038b395861)" style="fill: none; stroke: #cc6677; stroke-width: 3; stroke-linecap: round"/>
   </g>
   <g id="line2d_12">
    <path d="M 38.0055 373.833089 
L 39.244869 388.639883 
L 40.485034 369.723257 
L 41.152448 362.495186 
L 42.305905 355.333135 
L 43.390949 345.196371 
L 44.557929 334.317029 
L 45.716954 326.008039 
L 47.151218 315.119465 
L 48.250582 318.692099 
L 49.169369 325.847772 
L 50.416694 335.546407 
L 51.428554 336.258774 
L 52.702924 337.829246 
L 53.694102 337.153616 
L 56.495013 342.236607 
L 57.166404 342.688863 
L 58.311906 346.917478 
L 59.439907 352.166712 
L 60.584613 354.558181 
L 61.807277 356.410541 
L 63.069715 364.101051 
L 65.381402 369.954307 
L 67.48467 370.580136 
L 68.644491 374.854618 
L 69.910907 383.205361 
L 72.123157 394.675275 
L 73.603559 394.675275 
L 74.453139 393.572029 
L 75.554094 393.866483 
L 76.650276 392.530576 
L 77.835552 391.941512 
L 80.277698 394.675275 
L 81.29274 391.896963 
L 83.720567 393.378285 
L 84.792884 394.675275 
L 85.927249 393.474905 
L 89.277046 394.675275 
L 91.60862 394.675275 
L 92.896514 394.21601 
L 93.917919 388.417134 
L 95.174789 394.675275 
L 97.324196 394.675275 
L 98.719481 394.065408 
L 100.771838 394.675275 
L 105.403961 391.02768 
L 106.63458 394.21601 
L 110.048812 394.675275 
L 113.209283 392.762202 
L 114.746165 394.675275 
L 115.881325 394.065408 
L 117.963911 394.675275 
L 121.369392 393.474905 
L 122.507735 394.675275 
L 126.13993 392.902574 
L 129.410974 394.675275 
L 130.663867 394.21601 
L 131.888917 393.474905 
L 134.478229 394.675275 
L 137.540855 394.675275 
L 138.574193 392.347331 
L 139.667193 394.21601 
L 142.246162 391.941512 
L 145.439249 393.474905 
L 146.733507 394.675275 
L 148.929847 394.675275 
L 150.262289 394.21601 
L 153.405259 394.675275 
L 161.392748 394.675275 
L 165.091764 394.675275 
L 170.707109 394.21601 
L 174.078384 388.528175 
L 177.502162 394.675275 
L 185.508742 394.675275 
" clip-path="url(#p038b395861)" style="fill: none; stroke: #000000; stroke-linecap: round"/>
   </g>
   <g id="patch_9">
    <path d="M 38.0055 400.025953 
L 38.0055 291.980094 
" style="fill: none; stroke: #262626; stroke-linejoin: miter; stroke-linecap: square"/>
   </g>
   <g id="patch_10">
    <path d="M 38.0055 400.025953 
L 198.37575 400.025953 
" style="fill: none; stroke: #262626; stroke-linejoin: miter; stroke-linecap: square"/>
   </g>
   <g id="text_15">
    <!-- Sulfitobacter pseudonitzschiae -->
    <g style="fill: #262626" transform="translate(53.087625 286.980094) scale(0.096 -0.096)">
     <defs>
      <path id="ArialMT-53" d="M 288 1472 
L 859 1522 
Q 900 1178 1048 958 
Q 1197 738 1509 602 
Q 1822 466 2213 466 
Q 2559 466 2825 569 
Q 3091 672 3220 851 
Q 3350 1031 3350 1244 
Q 3350 1459 3225 1620 
Q 3100 1781 2813 1891 
Q 2628 1963 1997 2114 
Q 1366 2266 1113 2400 
Q 784 2572 623 2826 
Q 463 3081 463 3397 
Q 463 3744 659 4045 
Q 856 4347 1234 4503 
Q 1613 4659 2075 4659 
Q 2584 4659 2973 4495 
Q 3363 4331 3572 4012 
Q 3781 3694 3797 3291 
L 3216 3247 
Q 3169 3681 2898 3903 
Q 2628 4125 2100 4125 
Q 1550 4125 1298 3923 
Q 1047 3722 1047 3438 
Q 1047 3191 1225 3031 
Q 1400 2872 2139 2705 
Q 2878 2538 3153 2413 
Q 3553 2228 3743 1945 
Q 3934 1663 3934 1294 
Q 3934 928 3725 604 
Q 3516 281 3123 101 
Q 2731 -78 2241 -78 
Q 1619 -78 1198 103 
Q 778 284 539 648 
Q 300 1013 288 1472 
z
" transform="scale(0.015625)"/>
      <path id="ArialMT-66" d="M 556 0 
L 556 2881 
L 59 2881 
L 59 3319 
L 556 3319 
L 556 3672 
Q 556 4006 616 4169 
Q 697 4388 901 4523 
Q 1106 4659 1475 4659 
Q 1713 4659 2000 4603 
L 1916 4113 
Q 1741 4144 1584 4144 
Q 1328 4144 1222 4034 
Q 1116 3925 1116 3625 
L 1116 3319 
L 1763 3319 
L 1763 2881 
L 1116 2881 
L 1116 0 
L 556 0 
z
" transform="scale(0.015625)"/>
      <path id="ArialMT-62" d="M 941 0 
L 419 0 
L 419 4581 
L 981 4581 
L 981 2947 
Q 1338 3394 1891 3394 
Q 2197 3394 2470 3270 
Q 2744 3147 2920 2923 
Q 3097 2700 3197 2384 
Q 3297 2069 3297 1709 
Q 3297 856 2875 390 
Q 2453 -75 1863 -75 
Q 1275 -75 941 416 
L 941 0 
z
M 934 1684 
Q 934 1088 1097 822 
Q 1363 388 1816 388 
Q 2184 388 2453 708 
Q 2722 1028 2722 1663 
Q 2722 2313 2464 2622 
Q 2206 2931 1841 2931 
Q 1472 2931 1203 2611 
Q 934 2291 934 1684 
z
" transform="scale(0.015625)"/>
      <path id="ArialMT-7a" d="M 125 0 
L 125 456 
L 2238 2881 
Q 1878 2863 1603 2863 
L 250 2863 
L 250 3319 
L 2963 3319 
L 2963 2947 
L 1166 841 
L 819 456 
Q 1197 484 1528 484 
L 3063 484 
L 3063 0 
L 125 0 
z
" transform="scale(0.015625)"/>
     </defs>
     <use xlink:href="#ArialMT-53"/>
     <use xlink:href="#ArialMT-75" x="66.699219"/>
     <use xlink:href="#ArialMT-6c" x="122.314453"/>
     <use xlink:href="#ArialMT-66" x="144.53125"/>
     <use xlink:href="#ArialMT-69" x="172.314453"/>
     <use xlink:href="#ArialMT-74" x="194.53125"/>
     <use xlink:href="#ArialMT-6f" x="222.314453"/>
     <use xlink:href="#ArialMT-62" x="277.929688"/>
     <use xlink:href="#ArialMT-61" x="333.544922"/>
     <use xlink:href="#ArialMT-63" x="389.160156"/>
     <use xlink:href="#ArialMT-74" x="439.160156"/>
     <use xlink:href="#ArialMT-65" x="466.943359"/>
     <use xlink:href="#ArialMT-72" x="522.558594"/>
     <use xlink:href="#ArialMT-20" x="555.859375"/>
     <use xlink:href="#ArialMT-70" x="583.642578"/>
     <use xlink:href="#ArialMT-73" x="639.257812"/>
     <use xlink:href="#ArialMT-65" x="689.257812"/>
     <use xlink:href="#ArialMT-75" x="744.873047"/>
     <use xlink:href="#ArialMT-64" x="800.488281"/>
     <use xlink:href="#ArialMT-6f" x="856.103516"/>
     <use xlink:href="#ArialMT-6e" x="911.71875"/>
     <use xlink:href="#ArialMT-69" x="967.333984"/>
     <use xlink:href="#ArialMT-74" x="989.550781"/>
     <use xlink:href="#ArialMT-7a" x="1017.333984"/>
     <use xlink:href="#ArialMT-73" x="1067.333984"/>
     <use xlink:href="#ArialMT-63" x="1117.333984"/>
     <use xlink:href="#ArialMT-68" x="1167.333984"/>
     <use xlink:href="#ArialMT-69" x="1222.949219"/>
     <use xlink:href="#ArialMT-61" x="1245.166016"/>
     <use xlink:href="#ArialMT-65" x="1300.78125"/>
    </g>
   </g>
  </g>
  <g id="axes_4">
   <g id="patch_11">
    <path d="M 38.0055 534.732 
L 198.37575 534.732 
L 198.37575 426.686141 
L 38.0055 426.686141 
z
" style="fill: #ffffff"/>
   </g>
   <g id="matplotlib.axis_7">
    <g id="xtick_10">
     <g id="text_16">
      <!-- 0 -->
      <g style="fill: #262626" transform="translate(35.558687 549.830875) scale(0.088 -0.088)">
       <use xlink:href="#ArialMT-30"/>
      </g>
     </g>
    </g>
    <g id="xtick_11">
     <g id="text_17">
      <!-- 60 -->
      <g style="fill: #262626" transform="translate(101.841982 549.830875) scale(0.088 -0.088)">
       <defs>
        <path id="ArialMT-36" d="M 3184 3459 
L 2625 3416 
Q 2550 3747 2413 3897 
Q 2184 4138 1850 4138 
Q 1581 4138 1378 3988 
Q 1113 3794 959 3422 
Q 806 3050 800 2363 
Q 1003 2672 1297 2822 
Q 1591 2972 1913 2972 
Q 2475 2972 2870 2558 
Q 3266 2144 3266 1488 
Q 3266 1056 3080 686 
Q 2894 316 2569 119 
Q 2244 -78 1831 -78 
Q 1128 -78 684 439 
Q 241 956 241 2144 
Q 241 3472 731 4075 
Q 1159 4600 1884 4600 
Q 2425 4600 2770 4297 
Q 3116 3994 3184 3459 
z
M 888 1484 
Q 888 1194 1011 928 
Q 1134 663 1356 523 
Q 1578 384 1822 384 
Q 2178 384 2434 671 
Q 2691 959 2691 1453 
Q 2691 1928 2437 2201 
Q 2184 2475 1800 2475 
Q 1419 2475 1153 2201 
Q 888 1928 888 1484 
z
" transform="scale(0.015625)"/>
       </defs>
       <use xlink:href="#ArialMT-36"/>
       <use xlink:href="#ArialMT-30" x="55.615234"/>
      </g>
     </g>
    </g>
    <g id="xtick_12">
     <g id="text_18">
      <!-- 120 -->
      <g style="fill: #262626" transform="translate(168.125277 549.830875) scale(0.088 -0.088)">
       <defs>
        <path id="ArialMT-32" d="M 3222 541 
L 3222 0 
L 194 0 
Q 188 203 259 391 
Q 375 700 629 1000 
Q 884 1300 1366 1694 
Q 2113 2306 2375 2664 
Q 2638 3022 2638 3341 
Q 2638 3675 2398 3904 
Q 2159 4134 1775 4134 
Q 1369 4134 1125 3890 
Q 881 3647 878 3216 
L 300 3275 
Q 359 3922 746 4261 
Q 1134 4600 1788 4600 
Q 2447 4600 2831 4234 
Q 3216 3869 3216 3328 
Q 3216 3053 3103 2787 
Q 2991 2522 2730 2228 
Q 2469 1934 1863 1422 
Q 1356 997 1212 845 
Q 1069 694 975 541 
L 3222 541 
z
" transform="scale(0.015625)"/>
       </defs>
       <use xlink:href="#ArialMT-31"/>
       <use xlink:href="#ArialMT-32" x="55.615234"/>
       <use xlink:href="#ArialMT-30" x="111.230469"/>
      </g>
     </g>
    </g>
    <g id="text_19">
     <!-- day -->
     <g style="fill: #262626" transform="translate(110.452125 563.451375) scale(0.096 -0.096)">
      <defs>
       <path id="ArialMT-79" d="M 397 -1278 
L 334 -750 
Q 519 -800 656 -800 
Q 844 -800 956 -737 
Q 1069 -675 1141 -563 
Q 1194 -478 1313 -144 
Q 1328 -97 1363 -6 
L 103 3319 
L 709 3319 
L 1400 1397 
Q 1534 1031 1641 628 
Q 1738 1016 1872 1384 
L 2581 3319 
L 3144 3319 
L 1881 -56 
Q 1678 -603 1566 -809 
Q 1416 -1088 1222 -1217 
Q 1028 -1347 759 -1347 
Q 597 -1347 397 -1278 
z
" transform="scale(0.015625)"/>
      </defs>
      <use xlink:href="#ArialMT-64"/>
      <use xlink:href="#ArialMT-61" x="55.615234"/>
      <use xlink:href="#ArialMT-79" x="111.230469"/>
     </g>
    </g>
   </g>
   <g id="matplotlib.axis_8">
    <g id="ytick_79">
     <g id="text_20">
      <!-- $\mathdefault{10^{-1}}$ -->
      <g style="fill: #262626" transform="translate(11.7815 516.001976) scale(0.088 -0.088)">
       <use xlink:href="#ArialMT-31" transform="translate(0 0.99375)"/>
       <use xlink:href="#ArialMT-30" transform="translate(55.615234 0.99375)"/>
       <use xlink:href="#ArialMT-2212" transform="translate(112.972813 70.6875) scale(0.7)"/>
       <use xlink:href="#ArialMT-31" transform="translate(153.851719 70.6875) scale(0.7)"/>
      </g>
     </g>
    </g>
    <g id="ytick_80">
     <g id="text_21">
      <!-- $\mathdefault{10^{0}}$ -->
      <g style="fill: #262626" transform="translate(15.3895 473.175558) scale(0.088 -0.088)">
       <use xlink:href="#ArialMT-31" transform="translate(0 0.99375)"/>
       <use xlink:href="#ArialMT-30" transform="translate(55.615234 0.99375)"/>
       <use xlink:href="#ArialMT-30" transform="translate(112.972813 70.6875) scale(0.7)"/>
      </g>
     </g>
    </g>
    <g id="ytick_81">
     <g id="text_22">
      <!-- $\mathdefault{10^{1}}$ -->
      <g style="fill: #262626" transform="translate(15.3895 430.349141) scale(0.088 -0.088)">
       <use xlink:href="#ArialMT-31" transform="translate(0 0.99375)"/>
       <use xlink:href="#ArialMT-30" transform="translate(55.615234 0.99375)"/>
       <use xlink:href="#ArialMT-31" transform="translate(112.972813 70.6875) scale(0.7)"/>
      </g>
     </g>
    </g>
    <g id="ytick_82"/>
    <g id="ytick_83"/>
    <g id="ytick_84"/>
    <g id="ytick_85"/>
    <g id="ytick_86"/>
    <g id="ytick_87"/>
    <g id="ytick_88"/>
    <g id="ytick_89"/>
    <g id="ytick_90"/>
    <g id="ytick_91"/>
    <g id="ytick_92"/>
    <g id="ytick_93"/>
    <g id="ytick_94"/>
    <g id="ytick_95"/>
    <g id="ytick_96"/>
    <g id="ytick_97"/>
    <g id="ytick_98"/>
    <g id="ytick_99"/>
    <g id="ytick_100"/>
    <g id="ytick_101"/>
    <g id="ytick_102"/>
    <g id="ytick_103"/>
    <g id="ytick_104"/>
    <g id="text_23">
     <!-- Fluorescence -->
     <g style="fill: #262626" transform="translate(4.8735 509.52107) rotate(-90) scale(0.096 -0.096)">
      <use xlink:href="#ArialMT-46"/>
      <use xlink:href="#ArialMT-6c" x="61.083984"/>
      <use xlink:href="#ArialMT-75" x="83.300781"/>
      <use xlink:href="#ArialMT-6f" x="138.916016"/>
      <use xlink:href="#ArialMT-72" x="194.53125"/>
      <use xlink:href="#ArialMT-65" x="227.832031"/>
      <use xlink:href="#ArialMT-73" x="283.447266"/>
      <use xlink:href="#ArialMT-63" x="333.447266"/>
      <use xlink:href="#ArialMT-65" x="383.447266"/>
      <use xlink:href="#ArialMT-6e" x="439.0625"/>
      <use xlink:href="#ArialMT-63" x="494.677734"/>
      <use xlink:href="#ArialMT-65" x="544.677734"/>
     </g>
    </g>
   </g>
   <g id="line2d_13">
    <path d="M 38.0055 515.581823 
L 39.244869 529.381321 
L 40.485034 501.20105 
L 41.152448 503.949296 
L 42.305905 488.514533 
L 43.390949 483.202643 
L 44.557929 477.668434 
L 45.716954 480.973175 
L 45.716954 480.164384 
L 45.716954 479.231813 
L 47.151218 486.554904 
L 48.250582 493.45642 
L 49.169369 499.354175 
L 49.169369 498.101828 
L 49.169369 495.296631 
L 50.416694 499.44694 
L 50.416694 499.078625 
L 50.416694 493.934226 
L 51.428554 500.2062 
L 51.428554 499.822696 
L 51.428554 496.928512 
L 52.702924 500.696974 
L 52.702924 500.400958 
L 52.702924 499.917833 
L 53.694102 497.929611 
L 53.694102 497.844097 
L 53.694102 495.222383 
L 56.495013 500.997778 
L 57.166404 507.893435 
L 57.166404 506.757248 
L 57.166404 502.912535 
L 58.311906 503.713859 
L 58.311906 501.510187 
L 58.311906 498.539478 
L 59.439907 502.360588 
L 59.439907 501.930527 
L 59.439907 499.822696 
L 60.584613 504.551267 
L 60.584613 504.187752 
L 60.584613 504.187752 
L 61.807277 502.360588 
L 61.807277 501.303526 
L 61.807277 499.917833 
L 63.069715 503.713859 
L 63.069715 503.366199 
L 63.069715 501.930527 
L 65.381402 499.354175 
L 65.381402 499.170023 
L 65.381402 498.01552 
L 67.48467 497.844097 
L 67.48467 494.495756 
L 67.48467 492.472101 
L 68.644491 498.36318 
L 68.644491 497.844097 
L 68.644491 496.766778 
L 69.910907 501.614385 
L 69.910907 500.303324 
L 69.910907 497.67424 
L 72.123157 508.188668 
L 73.603559 505.948456 
L 74.453139 507.459191 
L 74.453139 505.047277 
L 74.453139 503.481365 
L 75.554094 502.800828 
L 75.554094 502.037114 
L 75.554094 500.499108 
L 76.650276 506.483724 
L 76.650276 504.308136 
L 76.650276 500.896968 
L 77.835552 502.469675 
L 77.835552 500.2062 
L 77.835552 498.539478 
L 80.277698 515.581823 
L 81.29274 510.231145 
L 81.29274 507.747557 
L 81.29274 502.037114 
L 83.720567 501.099136 
L 83.720567 498.539478 
L 83.720567 497.339108 
L 84.792884 497.505919 
L 85.927249 500.10958 
L 89.277046 502.144314 
L 91.60862 497.091664 
L 92.896514 505.173374 
L 93.917919 506.895533 
L 95.174789 501.099136 
L 97.324196 504.429304 
L 98.719481 498.987675 
L 100.771838 506.080836 
L 105.403961 512.905496 
L 106.63458 506.214165 
L 110.048812 507.175227 
L 113.209283 517.200172 
L 114.746165 514.298606 
L 115.881325 508.040465 
L 117.963911 506.483724 
L 121.369392 508.488662 
L 122.507735 512.153907 
L 126.13993 513.292995 
L 129.410974 508.040465 
L 130.663867 515.804572 
L 131.888917 506.619983 
L 134.478229 501.20105 
L 137.540855 512.153907 
L 138.574193 507.316667 
L 139.667193 518.448914 
L 142.246162 504.429304 
L 145.439249 512.525905 
L 146.733507 508.488662 
L 148.929847 512.338976 
L 150.262289 513.889814 
L 153.405259 511.080574 
L 161.392748 509.901945 
L 165.091764 504.308136 
L 170.707109 513.292995 
L 174.078384 512.525905 
L 177.502162 513.489814 
L 185.508742 512.338976 
" clip-path="url(#pe72329d432)" style="fill: none; stroke: #cc6677; stroke-width: 3; stroke-linecap: round"/>
   </g>
   <g id="line2d_14">
    <path d="M 38.0055 510.231145 
L 39.244869 528.036209 
L 40.485034 511.431515 
L 41.152448 503.024918 
L 42.305905 490.359705 
L 43.390949 483.674532 
L 44.557929 477.353911 
L 45.716954 479.42096 
L 45.716954 477.269047 
L 45.716954 476.414075 
L 47.151218 487.557932 
L 48.250582 494.928317 
L 49.169369 495.148429 
L 49.169369 492.794454 
L 49.169369 489.908791 
L 50.416694 495.748458 
L 50.416694 495.001398 
L 50.416694 491.967683 
L 51.428554 498.897168 
L 51.428554 498.101828 
L 51.428554 497.589889 
L 52.702924 499.728043 
L 52.702924 499.261871 
L 52.702924 495.222383 
L 53.694102 498.539478 
L 53.694102 498.36318 
L 53.694102 498.01552 
L 56.495013 499.078625 
L 57.166404 510.065817 
L 57.166404 504.429304 
L 57.166404 496.526784 
L 58.311906 507.034854 
L 58.311906 501.71917 
L 58.311906 498.45112 
L 59.439907 509.260527 
L 59.439907 504.068142 
L 59.439907 501.71917 
L 60.584613 503.481365 
L 60.584613 503.024918 
L 60.584613 499.44694 
L 61.807277 502.689787 
L 61.807277 499.078625 
L 61.807277 498.36318 
L 63.069715 501.20105 
L 63.069715 500.597778 
L 63.069715 498.807098 
L 65.381402 502.800828 
L 65.381402 500.10958 
L 65.381402 497.256261 
L 67.48467 500.696974 
L 67.48467 499.078625 
L 67.48467 497.589889 
L 68.644491 506.348456 
L 68.644491 502.689787 
L 68.644491 497.505919 
L 69.910907 504.674035 
L 69.910907 504.551267 
L 69.910907 502.144314 
L 72.123157 508.793575 
L 73.603559 517.443303 
L 74.453139 510.065817 
L 74.453139 508.33806 
L 74.453139 506.895533 
L 75.554094 509.739505 
L 75.554094 508.188668 
L 75.554094 505.556878 
L 76.650276 515.144173 
L 76.650276 511.431515 
L 76.650276 508.488662 
L 77.835552 504.429304 
L 77.835552 503.366199 
L 77.835552 501.930527 
L 80.277698 510.231145 
L 81.29274 507.316667 
L 81.29274 505.68649 
L 81.29274 504.308136 
L 83.720567 508.33806 
L 83.720567 506.348456 
L 83.720567 503.949296 
L 84.792884 504.187752 
L 85.927249 500.896968 
L 89.277046 504.551267 
L 91.60862 508.640494 
L 92.896514 507.175227 
L 93.917919 499.822696 
L 95.174789 506.757248 
L 97.324196 503.713859 
L 98.719481 504.187752 
L 100.771838 500.013459 
L 105.403961 506.348456 
L 106.63458 506.895533 
L 110.048812 517.443303 
L 113.209283 512.338976 
L 114.746165 516.258235 
L 115.881325 519.240493 
L 117.963911 513.098236 
L 121.369392 513.292995 
L 122.507735 511.431515 
L 126.13993 511.431515 
L 129.410974 514.093087 
L 130.663867 508.793575 
L 131.888917 511.789204 
L 134.478229 509.578472 
L 137.540855 517.443303 
L 138.574193 518.448914 
L 139.667193 517.443303 
L 142.246162 501.406569 
L 145.439249 514.298606 
L 146.733507 509.739505 
L 148.929847 507.602815 
L 150.262289 513.889814 
L 153.405259 505.817012 
L 161.392748 510.736134 
L 165.091764 516.258235 
L 170.707109 512.153907 
L 174.078384 503.251741 
L 177.502162 506.483724 
L 185.508742 510.065817 
" clip-path="url(#pe72329d432)" style="fill: none; stroke: #cc6677; stroke-width: 3; stroke-linecap: round"/>
   </g>
   <g id="line2d_15">
    <path d="M 38.0055 509.260527 
L 39.244869 524.862698 
L 40.485034 512.338976 
L 41.152448 503.481365 
L 42.305905 491.843688 
L 43.390949 483.163854 
L 44.557929 474.13376 
L 45.716954 482.219526 
L 45.716954 479.61205 
L 45.716954 478.313899 
L 47.151218 490.245948 
L 48.250582 493.45642 
L 49.169369 496.211534 
L 49.169369 495.596626 
L 49.169369 495.521173 
L 50.416694 497.929611 
L 50.416694 494.28319 
L 50.416694 493.05642 
L 51.428554 497.009909 
L 51.428554 494.638828 
L 51.428554 493.727947 
L 52.702924 498.807098 
L 52.702924 497.67424 
L 52.702924 495.446024 
L 53.694102 500.597778 
L 53.694102 500.400958 
L 53.694102 494.495756 
L 56.495013 497.422327 
L 57.166404 503.481365 
L 57.166404 503.024918 
L 57.166404 497.422327 
L 58.311906 503.024918 
L 58.311906 502.912535 
L 58.311906 501.824548 
L 59.439907 505.173374 
L 59.439907 503.597249 
L 59.439907 503.597249 
L 60.584613 500.2062 
L 60.584613 498.897168 
L 60.584613 498.01552 
L 61.807277 504.674035 
L 61.807277 501.71917 
L 61.807277 499.261871 
L 63.069715 505.556878 
L 63.069715 502.037114 
L 63.069715 502.037114 
L 65.381402 504.551267 
L 65.381402 497.67424 
L 65.381402 497.505919 
L 67.48467 503.251741 
L 67.48467 500.2062 
L 67.48467 496.606438 
L 68.644491 498.717463 
L 68.644491 498.36318 
L 68.644491 497.256261 
L 69.910907 502.800828 
L 69.910907 500.303324 
L 69.910907 499.633869 
L 72.123157 498.188538 
L 73.603559 525.606768 
L 74.453139 505.047277 
L 74.453139 503.481365 
L 74.453139 502.800828 
L 75.554094 511.970662 
L 75.554094 511.080574 
L 75.554094 508.33806 
L 76.650276 511.970662 
L 76.650276 507.034854 
L 76.650276 505.68649 
L 77.835552 509.103571 
L 77.835552 503.597249 
L 77.835552 502.579405 
L 80.277698 508.33806 
L 81.29274 505.948456 
L 81.29274 504.308136 
L 81.29274 503.481365 
L 83.720567 505.556878 
L 83.720567 503.949296 
L 83.720567 502.360588 
L 84.792884 499.822696 
L 85.927249 500.796702 
L 89.277046 502.579405 
L 91.60862 505.948456 
L 92.896514 503.024918 
L 93.917919 500.997778 
L 95.174789 501.510187 
L 97.324196 505.556878 
L 98.719481 502.252137 
L 100.771838 511.789204 
L 105.403961 505.556878 
L 106.63458 502.689787 
L 110.048812 514.506421 
L 113.209283 509.901945 
L 114.746165 511.609499 
L 115.881325 510.231145 
L 117.963911 516.03002 
L 121.369392 519.78757 
L 122.507735 508.640494 
L 126.13993 518.448914 
L 129.410974 509.901945 
L 130.663867 513.889814 
L 131.888917 506.757248 
L 134.478229 508.33806 
L 137.540855 507.034854 
L 138.574193 508.188668 
L 139.667193 517.689655 
L 142.246162 510.231145 
L 145.439249 512.338976 
L 146.733507 508.947927 
L 148.929847 509.901945 
L 150.262289 509.41882 
L 153.405259 509.578472 
L 161.392748 508.33806 
L 165.091764 512.905496 
L 170.707109 502.360588 
L 174.078384 507.747557 
L 177.502162 514.716585 
L 185.508742 510.736134 
" clip-path="url(#pe72329d432)" style="fill: none; stroke: #cc6677; stroke-width: 3; stroke-linecap: round"/>
   </g>
   <g id="line2d_16">
    <path d="M 38.0055 508.539135 
L 39.244869 523.34593 
L 40.485034 504.429304 
L 41.152448 497.201233 
L 42.305905 490.039182 
L 43.390949 479.902418 
L 44.557929 469.023076 
L 45.716954 460.714086 
L 47.151218 449.825512 
L 48.250582 453.398146 
L 49.169369 460.553819 
L 50.416694 470.252454 
L 51.428554 470.964821 
L 52.702924 472.535293 
L 53.694102 471.859663 
L 56.495013 476.942654 
L 57.166404 477.39491 
L 58.311906 481.623525 
L 59.439907 486.872759 
L 60.584613 489.264228 
L 61.807277 491.116587 
L 63.069715 498.807098 
L 65.381402 504.660354 
L 67.48467 505.286183 
L 68.644491 509.560665 
L 69.910907 517.911407 
L 72.123157 529.381321 
L 73.603559 529.381321 
L 74.453139 528.278076 
L 75.554094 528.57253 
L 76.650276 527.236623 
L 77.835552 526.647559 
L 80.277698 529.381321 
L 81.29274 526.60301 
L 83.720567 528.084332 
L 84.792884 529.381321 
L 85.927249 528.180952 
L 89.277046 529.381321 
L 91.60862 529.381321 
L 92.896514 528.922057 
L 93.917919 523.123181 
L 95.174789 529.381321 
L 97.324196 529.381321 
L 98.719481 528.771454 
L 100.771838 529.381321 
L 105.403961 525.733727 
L 106.63458 528.922057 
L 110.048812 529.381321 
L 113.209283 527.468248 
L 114.746165 529.381321 
L 115.881325 528.771454 
L 117.963911 529.381321 
L 121.369392 528.180952 
L 122.507735 529.381321 
L 126.13993 527.608621 
L 129.410974 529.381321 
L 130.663867 528.922057 
L 131.888917 528.180952 
L 134.478229 529.381321 
L 137.540855 529.381321 
L 138.574193 527.053377 
L 139.667193 528.922057 
L 142.246162 526.647559 
L 145.439249 528.180952 
L 146.733507 529.381321 
L 148.929847 529.381321 
L 150.262289 528.922057 
L 153.405259 529.381321 
L 161.392748 529.381321 
L 165.091764 529.381321 
L 170.707109 528.922057 
L 174.078384 523.234222 
L 177.502162 529.381321 
L 185.508742 529.381321 
" clip-path="url(#pe72329d432)" style="fill: none; stroke: #000000; stroke-linecap: round"/>
   </g>
   <g id="patch_12">
    <path d="M 38.0055 534.732 
L 38.0055 426.686141 
" style="fill: none; stroke: #262626; stroke-linejoin: miter; stroke-linecap: square"/>
   </g>
   <g id="patch_13">
    <path d="M 38.0055 534.732 
L 198.37575 534.732 
" style="fill: none; stroke: #262626; stroke-linejoin: miter; stroke-linecap: square"/>
   </g>
   <g id="text_24">
    <!-- Ruegeria pomeroyi -->
    <g style="fill: #262626" transform="translate(77.639625 421.686141) scale(0.096 -0.096)">
     <defs>
      <path id="ArialMT-52" d="M 503 0 
L 503 4581 
L 2534 4581 
Q 3147 4581 3465 4457 
Q 3784 4334 3975 4021 
Q 4166 3709 4166 3331 
Q 4166 2844 3850 2509 
Q 3534 2175 2875 2084 
Q 3116 1969 3241 1856 
Q 3506 1613 3744 1247 
L 4541 0 
L 3778 0 
L 3172 953 
Q 2906 1366 2734 1584 
Q 2563 1803 2427 1890 
Q 2291 1978 2150 2013 
Q 2047 2034 1813 2034 
L 1109 2034 
L 1109 0 
L 503 0 
z
M 1109 2559 
L 2413 2559 
Q 2828 2559 3062 2645 
Q 3297 2731 3419 2920 
Q 3541 3109 3541 3331 
Q 3541 3656 3305 3865 
Q 3069 4075 2559 4075 
L 1109 4075 
L 1109 2559 
z
" transform="scale(0.015625)"/>
      <path id="ArialMT-67" d="M 319 -275 
L 866 -356 
Q 900 -609 1056 -725 
Q 1266 -881 1628 -881 
Q 2019 -881 2231 -725 
Q 2444 -569 2519 -288 
Q 2563 -116 2559 434 
Q 2191 0 1641 0 
Q 956 0 581 494 
Q 206 988 206 1678 
Q 206 2153 378 2554 
Q 550 2956 876 3175 
Q 1203 3394 1644 3394 
Q 2231 3394 2613 2919 
L 2613 3319 
L 3131 3319 
L 3131 450 
Q 3131 -325 2973 -648 
Q 2816 -972 2473 -1159 
Q 2131 -1347 1631 -1347 
Q 1038 -1347 672 -1080 
Q 306 -813 319 -275 
z
M 784 1719 
Q 784 1066 1043 766 
Q 1303 466 1694 466 
Q 2081 466 2343 764 
Q 2606 1063 2606 1700 
Q 2606 2309 2336 2618 
Q 2066 2928 1684 2928 
Q 1309 2928 1046 2623 
Q 784 2319 784 1719 
z
" transform="scale(0.015625)"/>
     </defs>
     <use xlink:href="#ArialMT-52"/>
     <use xlink:href="#ArialMT-75" x="72.216797"/>
     <use xlink:href="#ArialMT-65" x="127.832031"/>
     <use xlink:href="#ArialMT-67" x="183.447266"/>
     <use xlink:href="#ArialMT-65" x="239.0625"/>
     <use xlink:href="#ArialMT-72" x="294.677734"/>
     <use xlink:href="#ArialMT-69" x="327.978516"/>
     <use xlink:href="#ArialMT-61" x="350.195312"/>
     <use xlink:href="#ArialMT-20" x="405.810547"/>
     <use xlink:href="#ArialMT-70" x="433.59375"/>
     <use xlink:href="#ArialMT-6f" x="489.208984"/>
     <use xlink:href="#ArialMT-6d" x="544.824219"/>
     <use xlink:href="#ArialMT-65" x="628.125"/>
     <use xlink:href="#ArialMT-72" x="683.740234"/>
     <use xlink:href="#ArialMT-6f" x="717.041016"/>
     <use xlink:href="#ArialMT-79" x="772.65625"/>
     <use xlink:href="#ArialMT-69" x="822.65625"/>
    </g>
   </g>
  </g>
 </g>
 <defs>
  <clipPath id="pec0d8307bd">
   <rect x="38.0055" y="22.568" width="160.37025" height="108.045859"/>
  </clipPath>
  <clipPath id="p20134b97ff">
   <rect x="38.0055" y="157.274047" width="160.37025" height="108.045859"/>
  </clipPath>
  <clipPath id="p038b395861">
   <rect x="38.0055" y="291.980094" width="160.37025" height="108.045859"/>
  </clipPath>
  <clipPath id="pe72329d432">
   <rect x="38.0055" y="426.686141" width="160.37025" height="108.045859"/>
  </clipPath>
 </defs>
</svg>
