<?xml version="1.0" encoding="utf-8" standalone="no"?>
<!DOCTYPE svg PUBLIC "-//W3C//DTD SVG 1.1//EN"
  "http://www.w3.org/Graphics/SVG/1.1/DTD/svg11.dtd">
<svg xmlns:xlink="http://www.w3.org/1999/xlink" width="397.305pt" height="216pt" viewBox="0 0 397.305 216" xmlns="http://www.w3.org/2000/svg" version="1.1">
 <metadata>
  <rdf:RDF xmlns:dc="http://purl.org/dc/elements/1.1/" xmlns:cc="http://creativecommons.org/ns#" xmlns:rdf="http://www.w3.org/1999/02/22-rdf-syntax-ns#">
   <cc:Work>
    <dc:type rdf:resource="http://purl.org/dc/dcmitype/StillImage"/>
    <dc:date>2024-12-17T13:29:40.085181</dc:date>
    <dc:format>image/svg+xml</dc:format>
    <dc:creator>
     <cc:Agent>
      <dc:title>Matplotlib v3.8.0, https://matplotlib.org/</dc:title>
     </cc:Agent>
    </dc:creator>
   </cc:Work>
  </rdf:RDF>
 </metadata>
 <defs>
  <style type="text/css">*{stroke-linejoin: round; stroke-linecap: butt}</style>
 </defs>
 <g id="figure_1">
  <g id="patch_1">
   <path d="M 0 216 
L 397.305 216 
L 397.305 0 
L 0 0 
z
" style="fill: #ffffff"/>
  </g>
  <g id="axes_1">
   <g id="patch_2">
    <path d="M 84.432329 174.732 
L 233.62695 174.732 
L 233.62695 19.668 
L 84.432329 19.668 
z
" style="fill: #ffffff"/>
   </g>
   <g id="matplotlib.axis_1">
    <g id="xtick_1">
     <g id="text_1">
      <!-- 0 -->
      <g style="fill: #262626" transform="translate(89.090022 189.830875) scale(0.088 -0.088)">
       <defs>
        <path id="ArialMT-30" d="M 266 2259 
Q 266 3072 433 3567 
Q 600 4063 929 4331 
Q 1259 4600 1759 4600 
Q 2128 4600 2406 4451 
Q 2684 4303 2865 4023 
Q 3047 3744 3150 3342 
Q 3253 2941 3253 2259 
Q 3253 1453 3087 958 
Q 2922 463 2592 192 
Q 2263 -78 1759 -78 
Q 1097 -78 719 397 
Q 266 969 266 2259 
z
M 844 2259 
Q 844 1131 1108 757 
Q 1372 384 1759 384 
Q 2147 384 2411 759 
Q 2675 1134 2675 2259 
Q 2675 3391 2411 3762 
Q 2147 4134 1753 4134 
Q 1366 4134 1134 3806 
Q 844 3388 844 2259 
z
" transform="scale(0.015625)"/>
       </defs>
       <use xlink:href="#ArialMT-30"/>
      </g>
     </g>
    </g>
    <g id="xtick_2">
     <g id="text_2">
      <!-- 1 -->
      <g style="fill: #262626" transform="translate(124.612551 189.830875) scale(0.088 -0.088)">
       <defs>
        <path id="ArialMT-31" d="M 2384 0 
L 1822 0 
L 1822 3584 
Q 1619 3391 1289 3197 
Q 959 3003 697 2906 
L 697 3450 
Q 1169 3672 1522 3987 
Q 1875 4303 2022 4600 
L 2384 4600 
L 2384 0 
z
" transform="scale(0.015625)"/>
       </defs>
       <use xlink:href="#ArialMT-31"/>
      </g>
     </g>
    </g>
    <g id="xtick_3">
     <g id="text_3">
      <!-- 2 -->
      <g style="fill: #262626" transform="translate(160.13508 189.830875) scale(0.088 -0.088)">
       <defs>
        <path id="ArialMT-32" d="M 3222 541 
L 3222 0 
L 194 0 
Q 188 203 259 391 
Q 375 700 629 1000 
Q 884 1300 1366 1694 
Q 2113 2306 2375 2664 
Q 2638 3022 2638 3341 
Q 2638 3675 2398 3904 
Q 2159 4134 1775 4134 
Q 1369 4134 1125 3890 
Q 881 3647 878 3216 
L 300 3275 
Q 359 3922 746 4261 
Q 1134 4600 1788 4600 
Q 2447 4600 2831 4234 
Q 3216 3869 3216 3328 
Q 3216 3053 3103 2787 
Q 2991 2522 2730 2228 
Q 2469 1934 1863 1422 
Q 1356 997 1212 845 
Q 1069 694 975 541 
L 3222 541 
z
" transform="scale(0.015625)"/>
       </defs>
       <use xlink:href="#ArialMT-32"/>
      </g>
     </g>
    </g>
    <g id="xtick_4">
     <g id="text_4">
      <!-- 3 -->
      <g style="fill: #262626" transform="translate(195.657609 189.830875) scale(0.088 -0.088)">
       <defs>
        <path id="ArialMT-33" d="M 269 1209 
L 831 1284 
Q 928 806 1161 595 
Q 1394 384 1728 384 
Q 2125 384 2398 659 
Q 2672 934 2672 1341 
Q 2672 1728 2419 1979 
Q 2166 2231 1775 2231 
Q 1616 2231 1378 2169 
L 1441 2663 
Q 1497 2656 1531 2656 
Q 1891 2656 2178 2843 
Q 2466 3031 2466 3422 
Q 2466 3731 2256 3934 
Q 2047 4138 1716 4138 
Q 1388 4138 1169 3931 
Q 950 3725 888 3313 
L 325 3413 
Q 428 3978 793 4289 
Q 1159 4600 1703 4600 
Q 2078 4600 2393 4439 
Q 2709 4278 2876 4000 
Q 3044 3722 3044 3409 
Q 3044 3113 2884 2869 
Q 2725 2625 2413 2481 
Q 2819 2388 3044 2092 
Q 3269 1797 3269 1353 
Q 3269 753 2831 336 
Q 2394 -81 1725 -81 
Q 1122 -81 723 278 
Q 325 638 269 1209 
z
" transform="scale(0.015625)"/>
       </defs>
       <use xlink:href="#ArialMT-33"/>
      </g>
     </g>
    </g>
    <g id="xtick_5">
     <g id="text_5">
      <!-- 4 -->
      <g style="fill: #262626" transform="translate(231.180138 189.830875) scale(0.088 -0.088)">
       <defs>
        <path id="ArialMT-34" d="M 2069 0 
L 2069 1097 
L 81 1097 
L 81 1613 
L 2172 4581 
L 2631 4581 
L 2631 1613 
L 3250 1613 
L 3250 1097 
L 2631 1097 
L 2631 0 
L 2069 0 
z
M 2069 1613 
L 2069 3678 
L 634 1613 
L 2069 1613 
z
" transform="scale(0.015625)"/>
       </defs>
       <use xlink:href="#ArialMT-34"/>
      </g>
     </g>
    </g>
    <g id="text_6">
     <!-- Fluorescence -->
     <g style="fill: #262626" transform="translate(130.217639 203.451375) scale(0.096 -0.096)">
      <defs>
       <path id="ArialMT-46" d="M 525 0 
L 525 4581 
L 3616 4581 
L 3616 4041 
L 1131 4041 
L 1131 2622 
L 3281 2622 
L 3281 2081 
L 1131 2081 
L 1131 0 
L 525 0 
z
" transform="scale(0.015625)"/>
       <path id="ArialMT-6c" d="M 409 0 
L 409 4581 
L 972 4581 
L 972 0 
L 409 0 
z
" transform="scale(0.015625)"/>
       <path id="ArialMT-75" d="M 2597 0 
L 2597 488 
Q 2209 -75 1544 -75 
Q 1250 -75 995 37 
Q 741 150 617 320 
Q 494 491 444 738 
Q 409 903 409 1263 
L 409 3319 
L 972 3319 
L 972 1478 
Q 972 1038 1006 884 
Q 1059 663 1231 536 
Q 1403 409 1656 409 
Q 1909 409 2131 539 
Q 2353 669 2445 892 
Q 2538 1116 2538 1541 
L 2538 3319 
L 3100 3319 
L 3100 0 
L 2597 0 
z
" transform="scale(0.015625)"/>
       <path id="ArialMT-6f" d="M 213 1659 
Q 213 2581 725 3025 
Q 1153 3394 1769 3394 
Q 2453 3394 2887 2945 
Q 3322 2497 3322 1706 
Q 3322 1066 3130 698 
Q 2938 331 2570 128 
Q 2203 -75 1769 -75 
Q 1072 -75 642 372 
Q 213 819 213 1659 
z
M 791 1659 
Q 791 1022 1069 705 
Q 1347 388 1769 388 
Q 2188 388 2466 706 
Q 2744 1025 2744 1678 
Q 2744 2294 2464 2611 
Q 2184 2928 1769 2928 
Q 1347 2928 1069 2612 
Q 791 2297 791 1659 
z
" transform="scale(0.015625)"/>
       <path id="ArialMT-72" d="M 416 0 
L 416 3319 
L 922 3319 
L 922 2816 
Q 1116 3169 1280 3281 
Q 1444 3394 1641 3394 
Q 1925 3394 2219 3213 
L 2025 2691 
Q 1819 2813 1613 2813 
Q 1428 2813 1281 2702 
Q 1134 2591 1072 2394 
Q 978 2094 978 1738 
L 978 0 
L 416 0 
z
" transform="scale(0.015625)"/>
       <path id="ArialMT-65" d="M 2694 1069 
L 3275 997 
Q 3138 488 2766 206 
Q 2394 -75 1816 -75 
Q 1088 -75 661 373 
Q 234 822 234 1631 
Q 234 2469 665 2931 
Q 1097 3394 1784 3394 
Q 2450 3394 2872 2941 
Q 3294 2488 3294 1666 
Q 3294 1616 3291 1516 
L 816 1516 
Q 847 969 1125 678 
Q 1403 388 1819 388 
Q 2128 388 2347 550 
Q 2566 713 2694 1069 
z
M 847 1978 
L 2700 1978 
Q 2663 2397 2488 2606 
Q 2219 2931 1791 2931 
Q 1403 2931 1139 2672 
Q 875 2413 847 1978 
z
" transform="scale(0.015625)"/>
       <path id="ArialMT-73" d="M 197 991 
L 753 1078 
Q 800 744 1014 566 
Q 1228 388 1613 388 
Q 2000 388 2187 545 
Q 2375 703 2375 916 
Q 2375 1106 2209 1216 
Q 2094 1291 1634 1406 
Q 1016 1563 777 1677 
Q 538 1791 414 1992 
Q 291 2194 291 2438 
Q 291 2659 392 2848 
Q 494 3038 669 3163 
Q 800 3259 1026 3326 
Q 1253 3394 1513 3394 
Q 1903 3394 2198 3281 
Q 2494 3169 2634 2976 
Q 2775 2784 2828 2463 
L 2278 2388 
Q 2241 2644 2061 2787 
Q 1881 2931 1553 2931 
Q 1166 2931 1000 2803 
Q 834 2675 834 2503 
Q 834 2394 903 2306 
Q 972 2216 1119 2156 
Q 1203 2125 1616 2013 
Q 2213 1853 2448 1751 
Q 2684 1650 2818 1456 
Q 2953 1263 2953 975 
Q 2953 694 2789 445 
Q 2625 197 2315 61 
Q 2006 -75 1616 -75 
Q 969 -75 630 194 
Q 291 463 197 991 
z
" transform="scale(0.015625)"/>
       <path id="ArialMT-63" d="M 2588 1216 
L 3141 1144 
Q 3050 572 2676 248 
Q 2303 -75 1759 -75 
Q 1078 -75 664 370 
Q 250 816 250 1647 
Q 250 2184 428 2587 
Q 606 2991 970 3192 
Q 1334 3394 1763 3394 
Q 2303 3394 2647 3120 
Q 2991 2847 3088 2344 
L 2541 2259 
Q 2463 2594 2264 2762 
Q 2066 2931 1784 2931 
Q 1359 2931 1093 2626 
Q 828 2322 828 1663 
Q 828 994 1084 691 
Q 1341 388 1753 388 
Q 2084 388 2306 591 
Q 2528 794 2588 1216 
z
" transform="scale(0.015625)"/>
       <path id="ArialMT-6e" d="M 422 0 
L 422 3319 
L 928 3319 
L 928 2847 
Q 1294 3394 1984 3394 
Q 2284 3394 2536 3286 
Q 2788 3178 2913 3003 
Q 3038 2828 3088 2588 
Q 3119 2431 3119 2041 
L 3119 0 
L 2556 0 
L 2556 2019 
Q 2556 2363 2490 2533 
Q 2425 2703 2258 2804 
Q 2091 2906 1866 2906 
Q 1506 2906 1245 2678 
Q 984 2450 984 1813 
L 984 0 
L 422 0 
z
" transform="scale(0.015625)"/>
      </defs>
      <use xlink:href="#ArialMT-46"/>
      <use xlink:href="#ArialMT-6c" x="61.083984"/>
      <use xlink:href="#ArialMT-75" x="83.300781"/>
      <use xlink:href="#ArialMT-6f" x="138.916016"/>
      <use xlink:href="#ArialMT-72" x="194.53125"/>
      <use xlink:href="#ArialMT-65" x="227.832031"/>
      <use xlink:href="#ArialMT-73" x="283.447266"/>
      <use xlink:href="#ArialMT-63" x="333.447266"/>
      <use xlink:href="#ArialMT-65" x="383.447266"/>
      <use xlink:href="#ArialMT-6e" x="439.0625"/>
      <use xlink:href="#ArialMT-63" x="494.677734"/>
      <use xlink:href="#ArialMT-65" x="544.677734"/>
     </g>
    </g>
   </g>
   <g id="matplotlib.axis_2">
    <g id="ytick_1">
     <g id="text_7">
      <!-- 0.0 -->
      <g style="fill: #262626" transform="translate(63.400329 172.308028) scale(0.088 -0.088)">
       <defs>
        <path id="ArialMT-2e" d="M 581 0 
L 581 641 
L 1222 641 
L 1222 0 
L 581 0 
z
" transform="scale(0.015625)"/>
       </defs>
       <use xlink:href="#ArialMT-30"/>
       <use xlink:href="#ArialMT-2e" x="55.615234"/>
       <use xlink:href="#ArialMT-30" x="83.398438"/>
      </g>
     </g>
    </g>
    <g id="ytick_2">
     <g id="text_8">
      <!-- 0.2 -->
      <g style="fill: #262626" transform="translate(63.400329 153.512392) scale(0.088 -0.088)">
       <use xlink:href="#ArialMT-30"/>
       <use xlink:href="#ArialMT-2e" x="55.615234"/>
       <use xlink:href="#ArialMT-32" x="83.398438"/>
      </g>
     </g>
    </g>
    <g id="ytick_3">
     <g id="text_9">
      <!-- 0.4 -->
      <g style="fill: #262626" transform="translate(63.400329 134.716756) scale(0.088 -0.088)">
       <use xlink:href="#ArialMT-30"/>
       <use xlink:href="#ArialMT-2e" x="55.615234"/>
       <use xlink:href="#ArialMT-34" x="83.398438"/>
      </g>
     </g>
    </g>
    <g id="ytick_4">
     <g id="text_10">
      <!-- 0.6 -->
      <g style="fill: #262626" transform="translate(63.400329 115.921119) scale(0.088 -0.088)">
       <defs>
        <path id="ArialMT-36" d="M 3184 3459 
L 2625 3416 
Q 2550 3747 2413 3897 
Q 2184 4138 1850 4138 
Q 1581 4138 1378 3988 
Q 1113 3794 959 3422 
Q 806 3050 800 2363 
Q 1003 2672 1297 2822 
Q 1591 2972 1913 2972 
Q 2475 2972 2870 2558 
Q 3266 2144 3266 1488 
Q 3266 1056 3080 686 
Q 2894 316 2569 119 
Q 2244 -78 1831 -78 
Q 1128 -78 684 439 
Q 241 956 241 2144 
Q 241 3472 731 4075 
Q 1159 4600 1884 4600 
Q 2425 4600 2770 4297 
Q 3116 3994 3184 3459 
z
M 888 1484 
Q 888 1194 1011 928 
Q 1134 663 1356 523 
Q 1578 384 1822 384 
Q 2178 384 2434 671 
Q 2691 959 2691 1453 
Q 2691 1928 2437 2201 
Q 2184 2475 1800 2475 
Q 1419 2475 1153 2201 
Q 888 1928 888 1484 
z
" transform="scale(0.015625)"/>
       </defs>
       <use xlink:href="#ArialMT-30"/>
       <use xlink:href="#ArialMT-2e" x="55.615234"/>
       <use xlink:href="#ArialMT-36" x="83.398438"/>
      </g>
     </g>
    </g>
    <g id="ytick_5">
     <g id="text_11">
      <!-- 0.8 -->
      <g style="fill: #262626" transform="translate(63.400329 97.125483) scale(0.088 -0.088)">
       <defs>
        <path id="ArialMT-38" d="M 1131 2484 
Q 781 2613 612 2850 
Q 444 3088 444 3419 
Q 444 3919 803 4259 
Q 1163 4600 1759 4600 
Q 2359 4600 2725 4251 
Q 3091 3903 3091 3403 
Q 3091 3084 2923 2848 
Q 2756 2613 2416 2484 
Q 2838 2347 3058 2040 
Q 3278 1734 3278 1309 
Q 3278 722 2862 322 
Q 2447 -78 1769 -78 
Q 1091 -78 675 323 
Q 259 725 259 1325 
Q 259 1772 486 2073 
Q 713 2375 1131 2484 
z
M 1019 3438 
Q 1019 3113 1228 2906 
Q 1438 2700 1772 2700 
Q 2097 2700 2305 2904 
Q 2513 3109 2513 3406 
Q 2513 3716 2298 3927 
Q 2084 4138 1766 4138 
Q 1444 4138 1231 3931 
Q 1019 3725 1019 3438 
z
M 838 1322 
Q 838 1081 952 856 
Q 1066 631 1291 507 
Q 1516 384 1775 384 
Q 2178 384 2440 643 
Q 2703 903 2703 1303 
Q 2703 1709 2433 1975 
Q 2163 2241 1756 2241 
Q 1359 2241 1098 1978 
Q 838 1716 838 1322 
z
" transform="scale(0.015625)"/>
       </defs>
       <use xlink:href="#ArialMT-30"/>
       <use xlink:href="#ArialMT-2e" x="55.615234"/>
       <use xlink:href="#ArialMT-38" x="83.398438"/>
      </g>
     </g>
    </g>
    <g id="ytick_6">
     <g id="text_12">
      <!-- 1.0 -->
      <g style="fill: #262626" transform="translate(63.400329 78.329847) scale(0.088 -0.088)">
       <use xlink:href="#ArialMT-31"/>
       <use xlink:href="#ArialMT-2e" x="55.615234"/>
       <use xlink:href="#ArialMT-30" x="83.398438"/>
      </g>
     </g>
    </g>
    <g id="ytick_7">
     <g id="text_13">
      <!-- 1.2 -->
      <g style="fill: #262626" transform="translate(63.400329 59.53421) scale(0.088 -0.088)">
       <use xlink:href="#ArialMT-31"/>
       <use xlink:href="#ArialMT-2e" x="55.615234"/>
       <use xlink:href="#ArialMT-32" x="83.398438"/>
      </g>
     </g>
    </g>
    <g id="ytick_8">
     <g id="text_14">
      <!-- 1.4 -->
      <g style="fill: #262626" transform="translate(63.400329 40.738574) scale(0.088 -0.088)">
       <use xlink:href="#ArialMT-31"/>
       <use xlink:href="#ArialMT-2e" x="55.615234"/>
       <use xlink:href="#ArialMT-34" x="83.398438"/>
      </g>
     </g>
    </g>
    <g id="ytick_9">
     <g id="text_15">
      <!-- 1.6 -->
      <g style="fill: #262626" transform="translate(63.400329 21.942937) scale(0.088 -0.088)">
       <use xlink:href="#ArialMT-31"/>
       <use xlink:href="#ArialMT-2e" x="55.615234"/>
       <use xlink:href="#ArialMT-36" x="83.398438"/>
      </g>
     </g>
    </g>
    <g id="text_16">
     <!-- $\mathregular{10^8}$ cell/ml -->
     <g style="fill: #262626" transform="translate(56.492329 119.712) rotate(-90) scale(0.096 -0.096)">
      <defs>
       <path id="ArialMT-20" transform="scale(0.015625)"/>
       <path id="ArialMT-2f" d="M 0 -78 
L 1328 4659 
L 1778 4659 
L 453 -78 
L 0 -78 
z
" transform="scale(0.015625)"/>
       <path id="ArialMT-6d" d="M 422 0 
L 422 3319 
L 925 3319 
L 925 2853 
Q 1081 3097 1340 3245 
Q 1600 3394 1931 3394 
Q 2300 3394 2536 3241 
Q 2772 3088 2869 2813 
Q 3263 3394 3894 3394 
Q 4388 3394 4653 3120 
Q 4919 2847 4919 2278 
L 4919 0 
L 4359 0 
L 4359 2091 
Q 4359 2428 4304 2576 
Q 4250 2725 4106 2815 
Q 3963 2906 3769 2906 
Q 3419 2906 3187 2673 
Q 2956 2441 2956 1928 
L 2956 0 
L 2394 0 
L 2394 2156 
Q 2394 2531 2256 2718 
Q 2119 2906 1806 2906 
Q 1569 2906 1367 2781 
Q 1166 2656 1075 2415 
Q 984 2175 984 1722 
L 984 0 
L 422 0 
z
" transform="scale(0.015625)"/>
      </defs>
      <use xlink:href="#ArialMT-31" transform="translate(0 0.99375)"/>
      <use xlink:href="#ArialMT-30" transform="translate(55.615234 0.99375)"/>
      <use xlink:href="#ArialMT-38" transform="translate(112.972813 70.6875) scale(0.7)"/>
      <use xlink:href="#ArialMT-20" transform="translate(156.881602 0.99375)"/>
      <use xlink:href="#ArialMT-63" transform="translate(184.664805 0.99375)"/>
      <use xlink:href="#ArialMT-65" transform="translate(234.664805 0.99375)"/>
      <use xlink:href="#ArialMT-6c" transform="translate(290.280039 0.99375)"/>
      <use xlink:href="#ArialMT-6c" transform="translate(312.496836 0.99375)"/>
      <use xlink:href="#ArialMT-2f" transform="translate(334.713633 0.99375)"/>
      <use xlink:href="#ArialMT-6d" transform="translate(362.496836 0.99375)"/>
      <use xlink:href="#ArialMT-6c" transform="translate(445.797617 0.99375)"/>
     </g>
    </g>
    <g id="text_17">
     <!-- 1e8 -->
     <g style="fill: #262626" transform="translate(84.432329 16.668) scale(0.088 -0.088)">
      <use xlink:href="#ArialMT-31"/>
      <use xlink:href="#ArialMT-65" x="55.615234"/>
      <use xlink:href="#ArialMT-38" x="111.230469"/>
     </g>
    </g>
   </g>
   <g id="PathCollection_1">
    <path d="M 105.781369 163.767051 
L 108.519982 158.289825 
L 103.042756 158.289825 
z
" clip-path="url(#p92ed698ae4)" style="fill: #88ccee; fill-opacity: 0.8; stroke: #ffffff; stroke-opacity: 0.8; stroke-width: 0.5"/>
    <path d="M 106.349729 163.767051 
L 109.088342 158.289825 
L 103.611116 158.289825 
z
" clip-path="url(#p92ed698ae4)" style="fill: #88ccee; fill-opacity: 0.8; stroke: #ffffff; stroke-opacity: 0.8; stroke-width: 0.5"/>
    <path d="M 105.852414 163.767051 
L 108.591027 158.289825 
L 103.113801 158.289825 
z
" clip-path="url(#p92ed698ae4)" style="fill: #88ccee; fill-opacity: 0.8; stroke: #ffffff; stroke-opacity: 0.8; stroke-width: 0.5"/>
    <path d="M 102.264638 168.130596 
L 105.003251 162.65337 
L 99.526026 162.65337 
z
" clip-path="url(#p92ed698ae4)" style="fill: #88ccee; fill-opacity: 0.8; stroke: #ffffff; stroke-opacity: 0.8; stroke-width: 0.5"/>
    <path d="M 102.300161 168.130596 
L 105.038774 162.65337 
L 99.561548 162.65337 
z
" clip-path="url(#p92ed698ae4)" style="fill: #88ccee; fill-opacity: 0.8; stroke: #ffffff; stroke-opacity: 0.8; stroke-width: 0.5"/>
    <path d="M 104.53808 168.130596 
L 107.276693 162.65337 
L 101.799467 162.65337 
z
" clip-path="url(#p92ed698ae4)" style="fill: #88ccee; fill-opacity: 0.8; stroke: #ffffff; stroke-opacity: 0.8; stroke-width: 0.5"/>
    <path d="M 102.690909 168.621759 
L 105.429522 163.144533 
L 99.952296 163.144533 
z
" clip-path="url(#p92ed698ae4)" style="fill: #88ccee; fill-opacity: 0.8; stroke: #ffffff; stroke-opacity: 0.8; stroke-width: 0.5"/>
    <path d="M 101.30553 168.621759 
L 104.044143 163.144533 
L 98.566917 163.144533 
z
" clip-path="url(#p92ed698ae4)" style="fill: #88ccee; fill-opacity: 0.8; stroke: #ffffff; stroke-opacity: 0.8; stroke-width: 0.5"/>
    <path d="M 103.294792 168.621759 
L 106.033405 163.144533 
L 100.556179 163.144533 
z
" clip-path="url(#p92ed698ae4)" style="fill: #88ccee; fill-opacity: 0.8; stroke: #ffffff; stroke-opacity: 0.8; stroke-width: 0.5"/>
    <path d="M 143.008979 132.922373 
C 143.735268 132.922373 144.431907 132.633815 144.945471 132.120252 
C 145.459034 131.606688 145.747592 130.910048 145.747592 130.18376 
C 145.747592 129.457471 145.459034 128.760832 144.945471 128.247268 
C 144.431907 127.733705 143.735268 127.445147 143.008979 127.445147 
C 142.28269 127.445147 141.586051 127.733705 141.072487 128.247268 
C 140.558924 128.760832 140.270366 129.457471 140.270366 130.18376 
C 140.270366 130.910048 140.558924 131.606688 141.072487 132.120252 
C 141.586051 132.633815 142.28269 132.922373 143.008979 132.922373 
z
" clip-path="url(#p92ed698ae4)" style="fill: #882255; fill-opacity: 0.8; stroke: #ffffff; stroke-opacity: 0.8; stroke-width: 0.5"/>
    <path d="M 142.369573 132.922373 
C 143.095862 132.922373 143.792502 132.633815 144.306065 132.120252 
C 144.819629 131.606688 145.108186 130.910048 145.108186 130.18376 
C 145.108186 129.457471 144.819629 128.760832 144.306065 128.247268 
C 143.792502 127.733705 143.095862 127.445147 142.369573 127.445147 
C 141.643285 127.445147 140.946645 127.733705 140.433082 128.247268 
C 139.919518 128.760832 139.630961 129.457471 139.630961 130.18376 
C 139.630961 130.910048 139.919518 131.606688 140.433082 132.120252 
C 140.946645 132.633815 141.643285 132.922373 142.369573 132.922373 
z
" clip-path="url(#p92ed698ae4)" style="fill: #882255; fill-opacity: 0.8; stroke: #ffffff; stroke-opacity: 0.8; stroke-width: 0.5"/>
    <path d="M 141.374943 132.922373 
C 142.101231 132.922373 142.797871 132.633815 143.311434 132.120252 
C 143.824998 131.606688 144.113555 130.910048 144.113555 130.18376 
C 144.113555 129.457471 143.824998 128.760832 143.311434 128.247268 
C 142.797871 127.733705 142.101231 127.445147 141.374943 127.445147 
C 140.648654 127.445147 139.952015 127.733705 139.438451 128.247268 
C 138.924887 128.760832 138.63633 129.457471 138.63633 130.18376 
C 138.63633 130.910048 138.924887 131.606688 139.438451 132.120252 
C 139.952015 132.633815 140.648654 132.922373 141.374943 132.922373 
z
" clip-path="url(#p92ed698ae4)" style="fill: #882255; fill-opacity: 0.8; stroke: #ffffff; stroke-opacity: 0.8; stroke-width: 0.5"/>
    <path d="M 185.316311 107.635405 
C 186.042599 107.635405 186.739239 107.346848 187.252802 106.833284 
C 187.766366 106.319721 188.054924 105.623081 188.054924 104.896793 
C 188.054924 104.170504 187.766366 103.473864 187.252802 102.960301 
C 186.739239 102.446737 186.042599 102.15818 185.316311 102.15818 
C 184.590022 102.15818 183.893383 102.446737 183.379819 102.960301 
C 182.866256 103.473864 182.577698 104.170504 182.577698 104.896793 
C 182.577698 105.623081 182.866256 106.319721 183.379819 106.833284 
C 183.893383 107.346848 184.590022 107.635405 185.316311 107.635405 
z
" clip-path="url(#p92ed698ae4)" style="fill: #882255; fill-opacity: 0.8; stroke: #ffffff; stroke-opacity: 0.8; stroke-width: 0.5"/>
    <path d="M 186.701689 107.635405 
C 187.427978 107.635405 188.124618 107.346848 188.638181 106.833284 
C 189.151745 106.319721 189.440302 105.623081 189.440302 104.896793 
C 189.440302 104.170504 189.151745 103.473864 188.638181 102.960301 
C 188.124618 102.446737 187.427978 102.15818 186.701689 102.15818 
C 185.975401 102.15818 185.278761 102.446737 184.765198 102.960301 
C 184.251634 103.473864 183.963077 104.170504 183.963077 104.896793 
C 183.963077 105.623081 184.251634 106.319721 184.765198 106.833284 
C 185.278761 107.346848 185.975401 107.635405 186.701689 107.635405 
z
" clip-path="url(#p92ed698ae4)" style="fill: #882255; fill-opacity: 0.8; stroke: #ffffff; stroke-opacity: 0.8; stroke-width: 0.5"/>
    <path d="M 186.133329 107.635405 
C 186.859618 107.635405 187.556257 107.346848 188.069821 106.833284 
C 188.583384 106.319721 188.871942 105.623081 188.871942 104.896793 
C 188.871942 104.170504 188.583384 103.473864 188.069821 102.960301 
C 187.556257 102.446737 186.859618 102.15818 186.133329 102.15818 
C 185.40704 102.15818 184.710401 102.446737 184.196837 102.960301 
C 183.683274 103.473864 183.394716 104.170504 183.394716 104.896793 
C 183.394716 105.623081 183.683274 106.319721 184.196837 106.833284 
C 184.710401 107.346848 185.40704 107.635405 186.133329 107.635405 
z
" clip-path="url(#p92ed698ae4)" style="fill: #882255; fill-opacity: 0.8; stroke: #ffffff; stroke-opacity: 0.8; stroke-width: 0.5"/>
    <path d="M 143.115547 145.501894 
C 143.841835 145.501894 144.538475 145.213336 145.052038 144.699772 
C 145.565602 144.186209 145.854159 143.489569 145.854159 142.763281 
C 145.854159 142.036992 145.565602 141.340353 145.052038 140.826789 
C 144.538475 140.313226 143.841835 140.024668 143.115547 140.024668 
C 142.389258 140.024668 141.692619 140.313226 141.179055 140.826789 
C 140.665491 141.340353 140.376934 142.036992 140.376934 142.763281 
C 140.376934 143.489569 140.665491 144.186209 141.179055 144.699772 
C 141.692619 145.213336 142.389258 145.501894 143.115547 145.501894 
z
" clip-path="url(#p92ed698ae4)" style="fill: #882255; fill-opacity: 0.8; stroke: #ffffff; stroke-opacity: 0.8; stroke-width: 0.5"/>
    <path d="M 145.282421 145.501894 
C 146.008709 145.501894 146.705349 145.213336 147.218913 144.699772 
C 147.732476 144.186209 148.021034 143.489569 148.021034 142.763281 
C 148.021034 142.036992 147.732476 141.340353 147.218913 140.826789 
C 146.705349 140.313226 146.008709 140.024668 145.282421 140.024668 
C 144.556132 140.024668 143.859493 140.313226 143.345929 140.826789 
C 142.832366 141.340353 142.543808 142.036992 142.543808 142.763281 
C 142.543808 143.489569 142.832366 144.186209 143.345929 144.699772 
C 143.859493 145.213336 144.556132 145.501894 145.282421 145.501894 
z
" clip-path="url(#p92ed698ae4)" style="fill: #882255; fill-opacity: 0.8; stroke: #ffffff; stroke-opacity: 0.8; stroke-width: 0.5"/>
    <path d="M 143.577339 145.501894 
C 144.303628 145.501894 145.000268 145.213336 145.513831 144.699772 
C 146.027395 144.186209 146.315952 143.489569 146.315952 142.763281 
C 146.315952 142.036992 146.027395 141.340353 145.513831 140.826789 
C 145.000268 140.313226 144.303628 140.024668 143.577339 140.024668 
C 142.851051 140.024668 142.154411 140.313226 141.640848 140.826789 
C 141.127284 141.340353 140.838727 142.036992 140.838727 142.763281 
C 140.838727 143.489569 141.127284 144.186209 141.640848 144.699772 
C 142.154411 145.213336 142.851051 145.501894 143.577339 145.501894 
z
" clip-path="url(#p92ed698ae4)" style="fill: #882255; fill-opacity: 0.8; stroke: #ffffff; stroke-opacity: 0.8; stroke-width: 0.5"/>
    <path d="M 116.098974 159.887627 
L 117.468281 158.51832 
L 118.837587 159.887627 
L 120.206894 158.51832 
L 118.837587 157.149014 
L 120.206894 155.779707 
L 118.837587 154.410401 
L 117.468281 155.779707 
L 116.098974 154.410401 
L 114.729668 155.779707 
L 116.098974 157.149014 
L 114.729668 158.51832 
z
" clip-path="url(#p92ed698ae4)" style="fill: #882255; fill-opacity: 0.8; stroke: #ffffff; stroke-opacity: 0.8; stroke-width: 0.5"/>
    <path d="M 115.779272 159.887627 
L 117.148578 158.51832 
L 118.517884 159.887627 
L 119.887191 158.51832 
L 118.517884 157.149014 
L 119.887191 155.779707 
L 118.517884 154.410401 
L 117.148578 155.779707 
L 115.779272 154.410401 
L 114.409965 155.779707 
L 115.779272 157.149014 
L 114.409965 158.51832 
z
" clip-path="url(#p92ed698ae4)" style="fill: #882255; fill-opacity: 0.8; stroke: #ffffff; stroke-opacity: 0.8; stroke-width: 0.5"/>
    <path d="M 116.809425 159.887627 
L 118.178731 158.51832 
L 119.548038 159.887627 
L 120.917344 158.51832 
L 119.548038 157.149014 
L 120.917344 155.779707 
L 119.548038 154.410401 
L 118.178731 155.779707 
L 116.809425 154.410401 
L 115.440119 155.779707 
L 116.809425 157.149014 
L 115.440119 158.51832 
z
" clip-path="url(#p92ed698ae4)" style="fill: #882255; fill-opacity: 0.8; stroke: #ffffff; stroke-opacity: 0.8; stroke-width: 0.5"/>
    <path d="M 214.496379 121.940158 
L 215.865686 120.570852 
L 217.234992 121.940158 
L 218.604298 120.570852 
L 217.234992 119.201545 
L 218.604298 117.832239 
L 217.234992 116.462932 
L 215.865686 117.832239 
L 214.496379 116.462932 
L 213.127073 117.832239 
L 214.496379 119.201545 
L 213.127073 120.570852 
z
" clip-path="url(#p92ed698ae4)" style="fill: #882255; fill-opacity: 0.8; stroke: #ffffff; stroke-opacity: 0.8; stroke-width: 0.5"/>
    <path d="M 214.851604 121.940158 
L 216.220911 120.570852 
L 217.590217 121.940158 
L 218.959524 120.570852 
L 217.590217 119.201545 
L 218.959524 117.832239 
L 217.590217 116.462932 
L 216.220911 117.832239 
L 214.851604 116.462932 
L 213.482298 117.832239 
L 214.851604 119.201545 
L 213.482298 120.570852 
z
" clip-path="url(#p92ed698ae4)" style="fill: #882255; fill-opacity: 0.8; stroke: #ffffff; stroke-opacity: 0.8; stroke-width: 0.5"/>
    <path d="M 210.056063 121.940158 
L 211.425369 120.570852 
L 212.794676 121.940158 
L 214.163982 120.570852 
L 212.794676 119.201545 
L 214.163982 117.832239 
L 212.794676 116.462932 
L 211.425369 117.832239 
L 210.056063 116.462932 
L 208.686757 117.832239 
L 210.056063 119.201545 
L 208.686757 120.570852 
z
" clip-path="url(#p92ed698ae4)" style="fill: #882255; fill-opacity: 0.8; stroke: #ffffff; stroke-opacity: 0.8; stroke-width: 0.5"/>
    <path d="M 176.629363 33.870014 
L 177.99867 32.500708 
L 179.367976 33.870014 
L 180.737283 32.500708 
L 179.367976 31.131402 
L 180.737283 29.762095 
L 179.367976 28.392789 
L 177.99867 29.762095 
L 176.629363 28.392789 
L 175.260057 29.762095 
L 176.629363 31.131402 
L 175.260057 32.500708 
z
" clip-path="url(#p92ed698ae4)" style="fill: #882255; fill-opacity: 0.8; stroke: #ffffff; stroke-opacity: 0.8; stroke-width: 0.5"/>
    <path d="M 181.49595 33.870014 
L 182.865256 32.500708 
L 184.234563 33.870014 
L 185.603869 32.500708 
L 184.234563 31.131402 
L 185.603869 29.762095 
L 184.234563 28.392789 
L 182.865256 29.762095 
L 181.49595 28.392789 
L 180.126644 29.762095 
L 181.49595 31.131402 
L 180.126644 32.500708 
z
" clip-path="url(#p92ed698ae4)" style="fill: #882255; fill-opacity: 0.8; stroke: #ffffff; stroke-opacity: 0.8; stroke-width: 0.5"/>
    <path d="M 184.479842 33.870014 
L 185.849149 32.500708 
L 187.218455 33.870014 
L 188.587762 32.500708 
L 187.218455 31.131402 
L 188.587762 29.762095 
L 187.218455 28.392789 
L 185.849149 29.762095 
L 184.479842 28.392789 
L 183.110536 29.762095 
L 184.479842 31.131402 
L 183.110536 32.500708 
z
" clip-path="url(#p92ed698ae4)" style="fill: #882255; fill-opacity: 0.8; stroke: #ffffff; stroke-opacity: 0.8; stroke-width: 0.5"/>
    <path d="M 96.023388 170.155689 
L 97.84913 170.155689 
L 97.84913 168.329947 
L 99.674872 168.329947 
L 99.674872 166.504205 
L 97.84913 166.504205 
L 97.84913 164.678464 
L 96.023388 164.678464 
L 96.023388 166.504205 
L 94.197646 166.504205 
L 94.197646 168.329947 
L 96.023388 168.329947 
z
" clip-path="url(#p92ed698ae4)" style="fill: #cc6677; fill-opacity: 0.8; stroke: #ffffff; stroke-opacity: 0.8; stroke-width: 0.5"/>
    <path d="M 96.129956 170.155689 
L 97.955698 170.155689 
L 97.955698 168.329947 
L 99.781439 168.329947 
L 99.781439 166.504205 
L 97.955698 166.504205 
L 97.955698 164.678464 
L 96.129956 164.678464 
L 96.129956 166.504205 
L 94.304214 166.504205 
L 94.304214 168.329947 
L 96.129956 168.329947 
z
" clip-path="url(#p92ed698ae4)" style="fill: #cc6677; fill-opacity: 0.8; stroke: #ffffff; stroke-opacity: 0.8; stroke-width: 0.5"/>
    <path d="M 96.129956 170.155689 
L 97.955698 170.155689 
L 97.955698 168.329947 
L 99.781439 168.329947 
L 99.781439 166.504205 
L 97.955698 166.504205 
L 97.955698 164.678464 
L 96.129956 164.678464 
L 96.129956 166.504205 
L 94.304214 166.504205 
L 94.304214 168.329947 
L 96.129956 168.329947 
z
" clip-path="url(#p92ed698ae4)" style="fill: #cc6677; fill-opacity: 0.8; stroke: #ffffff; stroke-opacity: 0.8; stroke-width: 0.5"/>
    <path d="M 97.72847 169.969669 
L 99.554211 169.969669 
L 99.554211 168.143927 
L 101.379953 168.143927 
L 101.379953 166.318186 
L 99.554211 166.318186 
L 99.554211 164.492444 
L 97.72847 164.492444 
L 97.72847 166.318186 
L 95.902728 166.318186 
L 95.902728 168.143927 
L 97.72847 168.143927 
z
" clip-path="url(#p92ed698ae4)" style="fill: #cc6677; fill-opacity: 0.8; stroke: #ffffff; stroke-opacity: 0.8; stroke-width: 0.5"/>
    <path d="M 96.343091 169.969669 
L 98.168833 169.969669 
L 98.168833 168.143927 
L 99.994575 168.143927 
L 99.994575 166.318186 
L 98.168833 166.318186 
L 98.168833 164.492444 
L 96.343091 164.492444 
L 96.343091 166.318186 
L 94.517349 166.318186 
L 94.517349 168.143927 
L 96.343091 168.143927 
z
" clip-path="url(#p92ed698ae4)" style="fill: #cc6677; fill-opacity: 0.8; stroke: #ffffff; stroke-opacity: 0.8; stroke-width: 0.5"/>
    <path d="M 96.485181 169.969669 
L 98.310923 169.969669 
L 98.310923 168.143927 
L 100.136665 168.143927 
L 100.136665 166.318186 
L 98.310923 166.318186 
L 98.310923 164.492444 
L 96.485181 164.492444 
L 96.485181 166.318186 
L 94.659439 166.318186 
L 94.659439 168.143927 
L 96.485181 168.143927 
z
" clip-path="url(#p92ed698ae4)" style="fill: #cc6677; fill-opacity: 0.8; stroke: #ffffff; stroke-opacity: 0.8; stroke-width: 0.5"/>
    <path d="M 97.941605 169.773087 
L 99.767347 169.773087 
L 99.767347 167.947345 
L 101.593088 167.947345 
L 101.593088 166.121603 
L 99.767347 166.121603 
L 99.767347 164.295861 
L 97.941605 164.295861 
L 97.941605 166.121603 
L 96.115863 166.121603 
L 96.115863 167.947345 
L 97.941605 167.947345 
z
" clip-path="url(#p92ed698ae4)" style="fill: #cc6677; fill-opacity: 0.8; stroke: #ffffff; stroke-opacity: 0.8; stroke-width: 0.5"/>
    <path d="M 98.29683 169.773087 
L 100.122572 169.773087 
L 100.122572 167.947345 
L 101.948314 167.947345 
L 101.948314 166.121603 
L 100.122572 166.121603 
L 100.122572 164.295861 
L 98.29683 164.295861 
L 98.29683 166.121603 
L 96.471088 166.121603 
L 96.471088 167.947345 
L 98.29683 167.947345 
z
" clip-path="url(#p92ed698ae4)" style="fill: #cc6677; fill-opacity: 0.8; stroke: #ffffff; stroke-opacity: 0.8; stroke-width: 0.5"/>
    <path d="M 97.444289 169.773087 
L 99.270031 169.773087 
L 99.270031 167.947345 
L 101.095773 167.947345 
L 101.095773 166.121603 
L 99.270031 166.121603 
L 99.270031 164.295861 
L 97.444289 164.295861 
L 97.444289 166.121603 
L 95.618547 166.121603 
L 95.618547 167.947345 
L 97.444289 167.947345 
z
" clip-path="url(#p92ed698ae4)" style="fill: #cc6677; fill-opacity: 0.8; stroke: #ffffff; stroke-opacity: 0.8; stroke-width: 0.5"/>
    <path d="M 101.287255 165.026391 
L 101.287255 168.899374 
L 105.160238 168.899374 
L 105.160238 165.026391 
z
" clip-path="url(#p92ed698ae4)" style="fill: #cc6677; fill-opacity: 0.8; stroke: #ffffff; stroke-opacity: 0.8; stroke-width: 0.5"/>
    <path d="M 102.281886 165.026391 
L 102.281886 168.899374 
L 106.154869 168.899374 
L 106.154869 165.026391 
z
" clip-path="url(#p92ed698ae4)" style="fill: #cc6677; fill-opacity: 0.8; stroke: #ffffff; stroke-opacity: 0.8; stroke-width: 0.5"/>
    <path d="M 102.459498 165.026391 
L 102.459498 168.899374 
L 106.332482 168.899374 
L 106.332482 165.026391 
z
" clip-path="url(#p92ed698ae4)" style="fill: #cc6677; fill-opacity: 0.8; stroke: #ffffff; stroke-opacity: 0.8; stroke-width: 0.5"/>
    <path d="M 98.765156 166.661253 
L 98.765156 170.534237 
L 102.638139 170.534237 
L 102.638139 166.661253 
z
" clip-path="url(#p92ed698ae4)" style="fill: #cc6677; fill-opacity: 0.8; stroke: #ffffff; stroke-opacity: 0.8; stroke-width: 0.5"/>
    <path d="M 97.308732 166.661253 
L 97.308732 170.534237 
L 101.181715 170.534237 
L 101.181715 166.661253 
z
" clip-path="url(#p92ed698ae4)" style="fill: #cc6677; fill-opacity: 0.8; stroke: #ffffff; stroke-opacity: 0.8; stroke-width: 0.5"/>
    <path d="M 98.658588 166.661253 
L 98.658588 170.534237 
L 102.531571 170.534237 
L 102.531571 166.661253 
z
" clip-path="url(#p92ed698ae4)" style="fill: #cc6677; fill-opacity: 0.8; stroke: #ffffff; stroke-opacity: 0.8; stroke-width: 0.5"/>
    <path d="M 99.120381 164.683692 
L 99.120381 168.556675 
L 102.993364 168.556675 
L 102.993364 164.683692 
z
" clip-path="url(#p92ed698ae4)" style="fill: #cc6677; fill-opacity: 0.8; stroke: #ffffff; stroke-opacity: 0.8; stroke-width: 0.5"/>
    <path d="M 97.628435 164.683692 
L 97.628435 168.556675 
L 101.501418 168.556675 
L 101.501418 164.683692 
z
" clip-path="url(#p92ed698ae4)" style="fill: #cc6677; fill-opacity: 0.8; stroke: #ffffff; stroke-opacity: 0.8; stroke-width: 0.5"/>
    <path d="M 98.338885 164.683692 
L 98.338885 168.556675 
L 102.211869 168.556675 
L 102.211869 164.683692 
z
" clip-path="url(#p92ed698ae4)" style="fill: #cc6677; fill-opacity: 0.8; stroke: #ffffff; stroke-opacity: 0.8; stroke-width: 0.5"/>
    <path d="M 93.703709 166.98288 
L 90.965096 169.721493 
L 93.703709 172.460106 
L 96.442322 169.721493 
z
" clip-path="url(#p92ed698ae4)" style="fill: #44aa99; fill-opacity: 0.8; stroke: #ffffff; stroke-opacity: 0.8; stroke-width: 0.5"/>
    <path d="M 95.231178 166.98288 
L 92.492565 169.721493 
L 95.231178 172.460106 
L 97.969791 169.721493 
z
" clip-path="url(#p92ed698ae4)" style="fill: #44aa99; fill-opacity: 0.8; stroke: #ffffff; stroke-opacity: 0.8; stroke-width: 0.5"/>
    <path d="M 93.064303 166.98288 
L 90.325691 169.721493 
L 93.064303 172.460106 
L 95.802916 169.721493 
z
" clip-path="url(#p92ed698ae4)" style="fill: #44aa99; fill-opacity: 0.8; stroke: #ffffff; stroke-opacity: 0.8; stroke-width: 0.5"/>
    <path d="M 93.597141 166.959408 
L 90.858529 169.69802 
L 93.597141 172.436633 
L 96.335754 169.69802 
z
" clip-path="url(#p92ed698ae4)" style="fill: #44aa99; fill-opacity: 0.8; stroke: #ffffff; stroke-opacity: 0.8; stroke-width: 0.5"/>
    <path d="M 93.881322 166.959408 
L 91.142709 169.69802 
L 93.881322 172.436633 
L 96.619934 169.69802 
z
" clip-path="url(#p92ed698ae4)" style="fill: #44aa99; fill-opacity: 0.8; stroke: #ffffff; stroke-opacity: 0.8; stroke-width: 0.5"/>
    <path d="M 95.12461 166.959408 
L 92.385997 169.69802 
L 95.12461 172.436633 
L 97.863223 169.69802 
z
" clip-path="url(#p92ed698ae4)" style="fill: #44aa99; fill-opacity: 0.8; stroke: #ffffff; stroke-opacity: 0.8; stroke-width: 0.5"/>
    <path d="M 99.280746 165.153782 
L 96.542133 167.892395 
L 99.280746 170.631008 
L 102.019359 167.892395 
z
" clip-path="url(#p92ed698ae4)" style="fill: #44aa99; fill-opacity: 0.8; stroke: #ffffff; stroke-opacity: 0.8; stroke-width: 0.5"/>
    <path d="M 97.895367 165.153782 
L 95.156755 167.892395 
L 97.895367 170.631008 
L 100.63398 167.892395 
z
" clip-path="url(#p92ed698ae4)" style="fill: #44aa99; fill-opacity: 0.8; stroke: #ffffff; stroke-opacity: 0.8; stroke-width: 0.5"/>
    <path d="M 97.753277 165.153782 
L 95.014664 167.892395 
L 97.753277 170.631008 
L 100.49189 167.892395 
z
" clip-path="url(#p92ed698ae4)" style="fill: #44aa99; fill-opacity: 0.8; stroke: #ffffff; stroke-opacity: 0.8; stroke-width: 0.5"/>
    <path d="M 95.728493 165.447776 
L 94.760247 167.218143 
L 92.98988 168.186389 
L 94.760247 169.154635 
L 95.728493 170.925002 
L 96.696739 169.154635 
L 98.467106 168.186389 
L 96.696739 167.218143 
z
" clip-path="url(#p92ed698ae4)" style="fill: #44aa99; fill-opacity: 0.8; stroke: #ffffff; stroke-opacity: 0.8; stroke-width: 0.5"/>
    <path d="M 95.302223 165.447776 
L 94.333977 167.218143 
L 92.56361 168.186389 
L 94.333977 169.154635 
L 95.302223 170.925002 
L 96.270469 169.154635 
L 98.040836 168.186389 
L 96.270469 167.218143 
z
" clip-path="url(#p92ed698ae4)" style="fill: #44aa99; fill-opacity: 0.8; stroke: #ffffff; stroke-opacity: 0.8; stroke-width: 0.5"/>
    <path d="M 95.40879 165.447776 
L 94.440545 167.218143 
L 92.670178 168.186389 
L 94.440545 169.154635 
L 95.40879 170.925002 
L 96.377036 169.154635 
L 98.147403 168.186389 
L 96.377036 167.218143 
z
" clip-path="url(#p92ed698ae4)" style="fill: #44aa99; fill-opacity: 0.8; stroke: #ffffff; stroke-opacity: 0.8; stroke-width: 0.5"/>
    <path d="M 95.764016 166.447706 
L 94.79577 168.218073 
L 93.025403 169.186319 
L 94.79577 170.154565 
L 95.764016 171.924932 
L 96.732262 170.154565 
L 98.502628 169.186319 
L 96.732262 168.218073 
z
" clip-path="url(#p92ed698ae4)" style="fill: #44aa99; fill-opacity: 0.8; stroke: #ffffff; stroke-opacity: 0.8; stroke-width: 0.5"/>
    <path d="M 95.089088 166.447706 
L 94.120842 168.218073 
L 92.350475 169.186319 
L 94.120842 170.154565 
L 95.089088 171.924932 
L 96.057333 170.154565 
L 97.8277 169.186319 
L 96.057333 168.218073 
z
" clip-path="url(#p92ed698ae4)" style="fill: #44aa99; fill-opacity: 0.8; stroke: #ffffff; stroke-opacity: 0.8; stroke-width: 0.5"/>
    <path d="M 95.444313 166.447706 
L 94.476067 168.218073 
L 92.7057 169.186319 
L 94.476067 170.154565 
L 95.444313 171.924932 
L 96.412559 170.154565 
L 98.182926 169.186319 
L 96.412559 168.218073 
z
" clip-path="url(#p92ed698ae4)" style="fill: #44aa99; fill-opacity: 0.8; stroke: #ffffff; stroke-opacity: 0.8; stroke-width: 0.5"/>
    <path d="M 92.886691 167.214085 
L 91.918445 168.984452 
L 90.148078 169.952697 
L 91.918445 170.920943 
L 92.886691 172.69131 
L 93.854937 170.920943 
L 95.625304 169.952697 
L 93.854937 168.984452 
z
" clip-path="url(#p92ed698ae4)" style="fill: #44aa99; fill-opacity: 0.8; stroke: #ffffff; stroke-opacity: 0.8; stroke-width: 0.5"/>
    <path d="M 93.241916 167.214085 
L 92.27367 168.984452 
L 90.503303 169.952697 
L 92.27367 170.920943 
L 93.241916 172.69131 
L 94.210162 170.920943 
L 95.980529 169.952697 
L 94.210162 168.984452 
z
" clip-path="url(#p92ed698ae4)" style="fill: #44aa99; fill-opacity: 0.8; stroke: #ffffff; stroke-opacity: 0.8; stroke-width: 0.5"/>
    <path d="M 93.739232 167.214085 
L 92.770986 168.984452 
L 91.000619 169.952697 
L 92.770986 170.920943 
L 93.739232 172.69131 
L 94.707477 170.920943 
L 96.477844 169.952697 
L 94.707477 168.984452 
z
" clip-path="url(#p92ed698ae4)" style="fill: #44aa99; fill-opacity: 0.8; stroke: #ffffff; stroke-opacity: 0.8; stroke-width: 0.5"/>
    <path d="M 93.241916 172.554208 
L 95.980529 167.076982 
L 90.503303 167.076982 
z
" clip-path="url(#p92ed698ae4)" style="fill: #88ccee; fill-opacity: 0.8; stroke: #ffffff; stroke-opacity: 0.8; stroke-width: 0.5"/>
    <path d="M 129.830121 158.408871 
C 130.556409 158.408871 131.253049 158.120314 131.766612 157.60675 
C 132.280176 157.093186 132.568734 156.396547 132.568734 155.670258 
C 132.568734 154.94397 132.280176 154.24733 131.766612 153.733767 
C 131.253049 153.220203 130.556409 152.931646 129.830121 152.931646 
C 129.103832 152.931646 128.407193 153.220203 127.893629 153.733767 
C 127.380066 154.24733 127.091508 154.94397 127.091508 155.670258 
C 127.091508 156.396547 127.380066 157.093186 127.893629 157.60675 
C 128.407193 158.120314 129.103832 158.408871 129.830121 158.408871 
z
" clip-path="url(#p92ed698ae4)" style="fill: #882255; fill-opacity: 0.8; stroke: #ffffff; stroke-opacity: 0.8; stroke-width: 0.5"/>
    <path d="M 147.09407 150.809601 
C 147.820358 150.809601 148.516998 150.521043 149.030561 150.00748 
C 149.544125 149.493916 149.832683 148.797277 149.832683 148.070988 
C 149.832683 147.344699 149.544125 146.64806 149.030561 146.134496 
C 148.516998 145.620933 147.820358 145.332375 147.09407 145.332375 
C 146.367781 145.332375 145.671142 145.620933 145.157578 146.134496 
C 144.644015 146.64806 144.355457 147.344699 144.355457 148.070988 
C 144.355457 148.797277 144.644015 149.493916 145.157578 150.00748 
C 145.671142 150.521043 146.367781 150.809601 147.09407 150.809601 
z
" clip-path="url(#p92ed698ae4)" style="fill: #882255; fill-opacity: 0.8; stroke: #ffffff; stroke-opacity: 0.8; stroke-width: 0.5"/>
    <path d="M 124.253084 164.982358 
C 124.979372 164.982358 125.676012 164.693801 126.189575 164.180237 
C 126.703139 163.666674 126.991697 162.970034 126.991697 162.243745 
C 126.991697 161.517457 126.703139 160.820817 126.189575 160.307254 
C 125.676012 159.79369 124.979372 159.505133 124.253084 159.505133 
C 123.526795 159.505133 122.830156 159.79369 122.316592 160.307254 
C 121.803029 160.820817 121.514471 161.517457 121.514471 162.243745 
C 121.514471 162.970034 121.803029 163.666674 122.316592 164.180237 
C 122.830156 164.693801 123.526795 164.982358 124.253084 164.982358 
z
" clip-path="url(#p92ed698ae4)" style="fill: #882255; fill-opacity: 0.8; stroke: #ffffff; stroke-opacity: 0.8; stroke-width: 0.5"/>
    <path d="M 112.333586 167.174144 
L 113.702893 165.804837 
L 115.072199 167.174144 
L 116.441506 165.804837 
L 115.072199 164.435531 
L 116.441506 163.066225 
L 115.072199 161.696918 
L 113.702893 163.066225 
L 112.333586 161.696918 
L 110.96428 163.066225 
L 112.333586 164.435531 
L 110.96428 165.804837 
z
" clip-path="url(#p92ed698ae4)" style="fill: #882255; fill-opacity: 0.8; stroke: #ffffff; stroke-opacity: 0.8; stroke-width: 0.5"/>
    <path d="M 141.852808 141.178707 
L 143.222114 139.8094 
L 144.591421 141.178707 
L 145.960727 139.8094 
L 144.591421 138.440094 
L 145.960727 137.070788 
L 144.591421 135.701481 
L 143.222114 137.070788 
L 141.852808 135.701481 
L 140.483501 137.070788 
L 141.852808 138.440094 
L 140.483501 139.8094 
z
" clip-path="url(#p92ed698ae4)" style="fill: #882255; fill-opacity: 0.8; stroke: #ffffff; stroke-opacity: 0.8; stroke-width: 0.5"/>
    <path d="M 121.995714 164.626512 
L 123.365021 163.257206 
L 124.734327 164.626512 
L 126.103633 163.257206 
L 124.734327 161.8879 
L 126.103633 160.518593 
L 124.734327 159.149287 
L 123.365021 160.518593 
L 121.995714 159.149287 
L 120.626408 160.518593 
L 121.995714 161.8879 
L 120.626408 163.257206 
z
" clip-path="url(#p92ed698ae4)" style="fill: #882255; fill-opacity: 0.8; stroke: #ffffff; stroke-opacity: 0.8; stroke-width: 0.5"/>
    <path d="M 97.479812 170.736964 
L 99.305554 170.736964 
L 99.305554 168.911222 
L 101.131296 168.911222 
L 101.131296 167.08548 
L 99.305554 167.08548 
L 99.305554 165.259738 
L 97.479812 165.259738 
L 97.479812 167.08548 
L 95.65407 167.08548 
L 95.65407 168.911222 
L 97.479812 168.911222 
z
" clip-path="url(#p92ed698ae4)" style="fill: #cc6677; fill-opacity: 0.8; stroke: #ffffff; stroke-opacity: 0.8; stroke-width: 0.5"/>
    <path d="M 97.195632 170.647223 
L 99.021374 170.647223 
L 99.021374 168.821482 
L 100.847115 168.821482 
L 100.847115 166.99574 
L 99.021374 166.99574 
L 99.021374 165.169998 
L 97.195632 165.169998 
L 97.195632 166.99574 
L 95.36989 166.99574 
L 95.36989 168.821482 
L 97.195632 168.821482 
z
" clip-path="url(#p92ed698ae4)" style="fill: #cc6677; fill-opacity: 0.8; stroke: #ffffff; stroke-opacity: 0.8; stroke-width: 0.5"/>
    <path d="M 97.231154 171.275407 
L 99.056896 171.275407 
L 99.056896 169.449665 
L 100.882638 169.449665 
L 100.882638 167.623923 
L 99.056896 167.623923 
L 99.056896 165.798181 
L 97.231154 165.798181 
L 97.231154 167.623923 
L 95.405412 167.623923 
L 95.405412 169.449665 
L 97.231154 169.449665 
z
" clip-path="url(#p92ed698ae4)" style="fill: #cc6677; fill-opacity: 0.8; stroke: #ffffff; stroke-opacity: 0.8; stroke-width: 0.5"/>
    <path d="M 104.02249 160.20131 
L 104.02249 164.074294 
L 107.895473 164.074294 
L 107.895473 160.20131 
z
" clip-path="url(#p92ed698ae4)" style="fill: #cc6677; fill-opacity: 0.8; stroke: #ffffff; stroke-opacity: 0.8; stroke-width: 0.5"/>
    <path d="M 97.912615 165.120208 
L 97.912615 168.993191 
L 101.785598 168.993191 
L 101.785598 165.120208 
z
" clip-path="url(#p92ed698ae4)" style="fill: #cc6677; fill-opacity: 0.8; stroke: #ffffff; stroke-opacity: 0.8; stroke-width: 0.5"/>
    <path d="M 101.997706 163.570316 
L 101.997706 167.443299 
L 105.870689 167.443299 
L 105.870689 163.570316 
z
" clip-path="url(#p92ed698ae4)" style="fill: #cc6677; fill-opacity: 0.8; stroke: #ffffff; stroke-opacity: 0.8; stroke-width: 0.5"/>
    <path d="M 93.064303 167.202245 
L 90.325691 169.940858 
L 93.064303 172.67947 
L 95.802916 169.940858 
z
" clip-path="url(#p92ed698ae4)" style="fill: #44aa99; fill-opacity: 0.8; stroke: #ffffff; stroke-opacity: 0.8; stroke-width: 0.5"/>
    <path d="M 94.272069 167.083837 
L 91.533457 169.82245 
L 94.272069 172.561063 
L 97.010682 169.82245 
z
" clip-path="url(#p92ed698ae4)" style="fill: #44aa99; fill-opacity: 0.8; stroke: #ffffff; stroke-opacity: 0.8; stroke-width: 0.5"/>
    <path d="M 129.297283 154.557432 
C 130.023571 154.557432 130.720211 154.268875 131.233775 153.755311 
C 131.747338 153.241747 132.035896 152.545108 132.035896 151.818819 
C 132.035896 151.092531 131.747338 150.395891 131.233775 149.882328 
C 130.720211 149.368764 130.023571 149.080206 129.297283 149.080206 
C 128.570994 149.080206 127.874355 149.368764 127.360791 149.882328 
C 126.847228 150.395891 126.55867 151.092531 126.55867 151.818819 
C 126.55867 152.545108 126.847228 153.241747 127.360791 153.755311 
C 127.874355 154.268875 128.570994 154.557432 129.297283 154.557432 
z
" clip-path="url(#p92ed698ae4)" style="fill: #882255; fill-opacity: 0.8; stroke: #ffffff; stroke-opacity: 0.8; stroke-width: 0.5"/>
    <path d="M 95.353818 171.557338 
L 96.723124 170.188032 
L 98.09243 171.557338 
L 99.461737 170.188032 
L 98.09243 168.818725 
L 99.461737 167.449419 
L 98.09243 166.080112 
L 96.723124 167.449419 
L 95.353818 166.080112 
L 93.984511 167.449419 
L 95.353818 168.818725 
L 93.984511 170.188032 
z
" clip-path="url(#p92ed698ae4)" style="fill: #882255; fill-opacity: 0.8; stroke: #ffffff; stroke-opacity: 0.8; stroke-width: 0.5"/>
    <path d="M 95.561595 171.364157 
L 97.387337 171.364157 
L 97.387337 169.538415 
L 99.213079 169.538415 
L 99.213079 167.712673 
L 97.387337 167.712673 
L 97.387337 165.886932 
L 95.561595 165.886932 
L 95.561595 167.712673 
L 93.735853 167.712673 
L 93.735853 169.538415 
L 95.561595 169.538415 
z
" clip-path="url(#p92ed698ae4)" style="fill: #cc6677; fill-opacity: 0.8; stroke: #ffffff; stroke-opacity: 0.8; stroke-width: 0.5"/>
    <path d="M 97.592912 165.133887 
L 97.592912 169.00687 
L 101.465895 169.00687 
L 101.465895 165.133887 
z
" clip-path="url(#p92ed698ae4)" style="fill: #cc6677; fill-opacity: 0.8; stroke: #ffffff; stroke-opacity: 0.8; stroke-width: 0.5"/>
    <path d="M 116.75783 159.43798 
C 117.484119 159.43798 118.180758 159.149422 118.694322 158.635859 
C 119.207885 158.122295 119.496443 157.425655 119.496443 156.699367 
C 119.496443 155.973078 119.207885 155.276439 118.694322 154.762875 
C 118.180758 154.249312 117.484119 153.960754 116.75783 153.960754 
C 116.031542 153.960754 115.334902 154.249312 114.821339 154.762875 
C 114.307775 155.276439 114.019217 155.973078 114.019217 156.699367 
C 114.019217 157.425655 114.307775 158.122295 114.821339 158.635859 
C 115.334902 159.149422 116.031542 159.43798 116.75783 159.43798 
z
" clip-path="url(#p92ed698ae4)" style="fill: #882255; fill-opacity: 0.8; stroke: #ffffff; stroke-opacity: 0.8; stroke-width: 0.5"/>
    <path d="M 98.160097 172.548149 
L 99.529404 171.178842 
L 100.89871 172.548149 
L 102.268017 171.178842 
L 100.89871 169.809536 
L 102.268017 168.440229 
L 100.89871 167.070923 
L 99.529404 168.440229 
L 98.160097 167.070923 
L 96.790791 168.440229 
L 98.160097 169.809536 
L 96.790791 171.178842 
z
" clip-path="url(#p92ed698ae4)" style="fill: #882255; fill-opacity: 0.8; stroke: #ffffff; stroke-opacity: 0.8; stroke-width: 0.5"/>
    <path d="M 95.383983 172.017205 
L 97.209725 172.017205 
L 97.209725 170.191463 
L 99.035466 170.191463 
L 99.035466 168.365722 
L 97.209725 168.365722 
L 97.209725 166.53998 
L 95.383983 166.53998 
L 95.383983 168.365722 
L 93.558241 168.365722 
L 93.558241 170.191463 
L 95.383983 170.191463 
z
" clip-path="url(#p92ed698ae4)" style="fill: #cc6677; fill-opacity: 0.8; stroke: #ffffff; stroke-opacity: 0.8; stroke-width: 0.5"/>
    <path d="M 94.8932 166.881626 
L 94.8932 170.754609 
L 98.766183 170.754609 
L 98.766183 166.881626 
z
" clip-path="url(#p92ed698ae4)" style="fill: #cc6677; fill-opacity: 0.8; stroke: #ffffff; stroke-opacity: 0.8; stroke-width: 0.5"/>
    <path d="M 120.949489 162.952897 
C 121.675777 162.952897 122.372417 162.66434 122.88598 162.150776 
C 123.399544 161.637213 123.688101 160.940573 123.688101 160.214284 
C 123.688101 159.487996 123.399544 158.791356 122.88598 158.277793 
C 122.372417 157.764229 121.675777 157.475672 120.949489 157.475672 
C 120.2232 157.475672 119.526561 157.764229 119.012997 158.277793 
C 118.499433 158.791356 118.210876 159.487996 118.210876 160.214284 
C 118.210876 160.940573 118.499433 161.637213 119.012997 162.150776 
C 119.526561 162.66434 120.2232 162.952897 120.949489 162.952897 
z
" clip-path="url(#p92ed698ae4)" style="fill: #882255; fill-opacity: 0.8; stroke: #ffffff; stroke-opacity: 0.8; stroke-width: 0.5"/>
    <path d="M 96.591749 170.995413 
L 98.417491 170.995413 
L 98.417491 169.169671 
L 100.243232 169.169671 
L 100.243232 167.343929 
L 98.417491 167.343929 
L 98.417491 165.518187 
L 96.591749 165.518187 
L 96.591749 167.343929 
L 94.766007 167.343929 
L 94.766007 169.169671 
L 96.591749 169.169671 
z
" clip-path="url(#p92ed698ae4)" style="fill: #cc6677; fill-opacity: 0.8; stroke: #ffffff; stroke-opacity: 0.8; stroke-width: 0.5"/>
    <path d="M 95.887831 167.02074 
L 95.887831 170.893724 
L 99.760814 170.893724 
L 99.760814 167.02074 
z
" clip-path="url(#p92ed698ae4)" style="fill: #cc6677; fill-opacity: 0.8; stroke: #ffffff; stroke-opacity: 0.8; stroke-width: 0.5"/>
    <path d="M 93.455051 167.20457 
L 90.716439 169.943183 
L 93.455051 172.681796 
L 96.193664 169.943183 
z
" clip-path="url(#p92ed698ae4)" style="fill: #44aa99; fill-opacity: 0.8; stroke: #ffffff; stroke-opacity: 0.8; stroke-width: 0.5"/>
    <path d="M 92.744601 172.727266 
L 95.483214 167.250041 
L 90.005988 167.250041 
z
" clip-path="url(#p92ed698ae4)" style="fill: #88ccee; fill-opacity: 0.8; stroke: #ffffff; stroke-opacity: 0.8; stroke-width: 0.5"/>
    <path d="M 124.714877 161.628158 
C 125.441165 161.628158 126.137805 161.3396 126.651368 160.826037 
C 127.164932 160.312473 127.453489 159.615834 127.453489 158.889545 
C 127.453489 158.163256 127.164932 157.466617 126.651368 156.953053 
C 126.137805 156.43949 125.441165 156.150932 124.714877 156.150932 
C 123.988588 156.150932 123.291949 156.43949 122.778385 156.953053 
C 122.264821 157.466617 121.976264 158.163256 121.976264 158.889545 
C 121.976264 159.615834 122.264821 160.312473 122.778385 160.826037 
C 123.291949 161.3396 123.988588 161.628158 124.714877 161.628158 
z
" clip-path="url(#p92ed698ae4)" style="fill: #882255; fill-opacity: 0.8; stroke: #ffffff; stroke-opacity: 0.8; stroke-width: 0.5"/>
    <path d="M 94.129979 167.277729 
L 91.391367 172.754955 
L 96.868592 172.754955 
z
" clip-path="url(#p92ed698ae4)" style="fill: #332288; fill-opacity: 0.8; stroke: #ffffff; stroke-opacity: 0.8; stroke-width: 0.5"/>
    <path d="M 90.452884 168.08901 
L 91.020069 170.025501 
L 90.452884 171.961993 
L 92.389375 171.394808 
L 94.325867 171.961993 
L 93.758682 170.025501 
L 94.325867 168.08901 
L 92.389375 168.656195 
z
" clip-path="url(#p92ed698ae4)" style="fill: #332288; fill-opacity: 0.8; stroke: #ffffff; stroke-opacity: 0.8; stroke-width: 0.5"/>
    <path d="M 94.501277 170.940398 
L 95.870583 169.571092 
L 97.23989 170.940398 
L 98.609196 169.571092 
L 97.23989 168.201786 
L 98.609196 166.832479 
L 97.23989 165.463173 
L 95.870583 166.832479 
L 94.501277 165.463173 
L 93.13197 166.832479 
L 94.501277 168.201786 
L 93.13197 169.571092 
z
" clip-path="url(#p92ed698ae4)" style="fill: #882255; fill-opacity: 0.8; stroke: #ffffff; stroke-opacity: 0.8; stroke-width: 0.5"/>
    <path d="M 93.572334 171.997476 
L 95.398076 171.997476 
L 95.398076 170.171734 
L 97.223817 170.171734 
L 97.223817 168.345993 
L 95.398076 168.345993 
L 95.398076 166.520251 
L 93.572334 166.520251 
L 93.572334 168.345993 
L 91.746592 168.345993 
L 91.746592 170.171734 
L 93.572334 170.171734 
z
" clip-path="url(#p92ed698ae4)" style="fill: #cc6677; fill-opacity: 0.8; stroke: #ffffff; stroke-opacity: 0.8; stroke-width: 0.5"/>
    <path d="M 97.84157 166.585778 
L 97.84157 170.458761 
L 101.714553 170.458761 
L 101.714553 166.585778 
z
" clip-path="url(#p92ed698ae4)" style="fill: #cc6677; fill-opacity: 0.8; stroke: #ffffff; stroke-opacity: 0.8; stroke-width: 0.5"/>
    <path d="M 92.389375 167.274065 
L 89.650763 170.012678 
L 92.389375 172.751291 
L 95.127988 170.012678 
z
" clip-path="url(#p92ed698ae4)" style="fill: #44aa99; fill-opacity: 0.8; stroke: #ffffff; stroke-opacity: 0.8; stroke-width: 0.5"/>
    <path d="M 92.389375 167.275583 
L 91.42113 169.04595 
L 89.650763 170.014196 
L 91.42113 170.982442 
L 92.389375 172.752809 
L 93.357621 170.982442 
L 95.127988 170.014196 
L 93.357621 169.04595 
z
" clip-path="url(#p92ed698ae4)" style="fill: #44aa99; fill-opacity: 0.8; stroke: #ffffff; stroke-opacity: 0.8; stroke-width: 0.5"/>
    <path d="M 92.069673 172.765056 
L 94.808285 167.287831 
L 89.33106 167.287831 
z
" clip-path="url(#p92ed698ae4)" style="fill: #88ccee; fill-opacity: 0.8; stroke: #ffffff; stroke-opacity: 0.8; stroke-width: 0.5"/>
    <path d="M 114.662001 167.110192 
C 115.38829 167.110192 116.084929 166.821635 116.598493 166.308071 
C 117.112056 165.794507 117.400614 165.097868 117.400614 164.371579 
C 117.400614 163.645291 117.112056 162.948651 116.598493 162.435088 
C 116.084929 161.921524 115.38829 161.632967 114.662001 161.632967 
C 113.935712 161.632967 113.239073 161.921524 112.725509 162.435088 
C 112.211946 162.948651 111.923388 163.645291 111.923388 164.371579 
C 111.923388 165.097868 112.211946 165.794507 112.725509 166.308071 
C 113.239073 166.821635 113.935712 167.110192 114.662001 167.110192 
z
" clip-path="url(#p92ed698ae4)" style="fill: #882255; fill-opacity: 0.8; stroke: #ffffff; stroke-opacity: 0.8; stroke-width: 0.5"/>
    <path d="M 95.40879 167.282806 
L 92.670178 172.760032 
L 98.147403 172.760032 
z
" clip-path="url(#p92ed698ae4)" style="fill: #332288; fill-opacity: 0.8; stroke: #ffffff; stroke-opacity: 0.8; stroke-width: 0.5"/>
    <path d="M 92.157965 168.082258 
L 92.72515 170.018749 
L 92.157965 171.955241 
L 94.094457 171.388056 
L 96.030948 171.955241 
L 95.463763 170.018749 
L 96.030948 168.082258 
L 94.094457 168.649443 
z
" clip-path="url(#p92ed698ae4)" style="fill: #332288; fill-opacity: 0.8; stroke: #ffffff; stroke-opacity: 0.8; stroke-width: 0.5"/>
    <path d="M 119.509137 166.607091 
L 120.878444 165.237784 
L 122.24775 166.607091 
L 123.617056 165.237784 
L 122.24775 163.868478 
L 123.617056 162.499172 
L 122.24775 161.129865 
L 120.878444 162.499172 
L 119.509137 161.129865 
L 118.139831 162.499172 
L 119.509137 163.868478 
L 118.139831 165.237784 
z
" clip-path="url(#p92ed698ae4)" style="fill: #882255; fill-opacity: 0.8; stroke: #ffffff; stroke-opacity: 0.8; stroke-width: 0.5"/>
    <path d="M 94.92219 172.307911 
L 96.747932 172.307911 
L 96.747932 170.482169 
L 98.573674 170.482169 
L 98.573674 168.656427 
L 96.747932 168.656427 
L 96.747932 166.830685 
L 94.92219 166.830685 
L 94.92219 168.656427 
L 93.096448 168.656427 
L 93.096448 170.482169 
L 94.92219 170.482169 
z
" clip-path="url(#p92ed698ae4)" style="fill: #cc6677; fill-opacity: 0.8; stroke: #ffffff; stroke-opacity: 0.8; stroke-width: 0.5"/>
    <path d="M 94.253794 167.51975 
L 94.253794 171.392733 
L 98.126778 171.392733 
L 98.126778 167.51975 
z
" clip-path="url(#p92ed698ae4)" style="fill: #cc6677; fill-opacity: 0.8; stroke: #ffffff; stroke-opacity: 0.8; stroke-width: 0.5"/>
    <path d="M 93.099826 167.278881 
L 90.361213 170.017493 
L 93.099826 172.756106 
L 95.838439 170.017493 
z
" clip-path="url(#p92ed698ae4)" style="fill: #44aa99; fill-opacity: 0.8; stroke: #ffffff; stroke-opacity: 0.8; stroke-width: 0.5"/>
    <path d="M 93.064303 172.765789 
L 95.802916 167.288564 
L 90.325691 167.288564 
z
" clip-path="url(#p92ed698ae4)" style="fill: #88ccee; fill-opacity: 0.8; stroke: #ffffff; stroke-opacity: 0.8; stroke-width: 0.5"/>
    <path d="M 122.832183 163.534729 
C 123.558471 163.534729 124.255111 163.246172 124.768674 162.732608 
C 125.282238 162.219045 125.570795 161.522405 125.570795 160.796116 
C 125.570795 160.069828 125.282238 159.373188 124.768674 158.859625 
C 124.255111 158.346061 123.558471 158.057504 122.832183 158.057504 
C 122.105894 158.057504 121.409255 158.346061 120.895691 158.859625 
C 120.382127 159.373188 120.09357 160.069828 120.09357 160.796116 
C 120.09357 161.522405 120.382127 162.219045 120.895691 162.732608 
C 121.409255 163.246172 122.105894 163.534729 122.832183 163.534729 
z
" clip-path="url(#p92ed698ae4)" style="fill: #882255; fill-opacity: 0.8; stroke: #ffffff; stroke-opacity: 0.8; stroke-width: 0.5"/>
    <path d="M 94.662817 167.286051 
L 91.924204 172.763277 
L 97.40143 172.763277 
z
" clip-path="url(#p92ed698ae4)" style="fill: #332288; fill-opacity: 0.8; stroke: #ffffff; stroke-opacity: 0.8; stroke-width: 0.5"/>
    <path d="M 90.133181 168.078437 
L 90.700366 170.014929 
L 90.133181 171.95142 
L 92.069673 171.384235 
L 94.006164 171.95142 
L 93.438979 170.014929 
L 94.006164 168.078437 
L 92.069673 168.645622 
z
" clip-path="url(#p92ed698ae4)" style="fill: #332288; fill-opacity: 0.8; stroke: #ffffff; stroke-opacity: 0.8; stroke-width: 0.5"/>
    <path d="M 103.097729 169.767333 
L 104.467035 168.398027 
L 105.836342 169.767333 
L 107.205648 168.398027 
L 105.836342 167.02872 
L 107.205648 165.659414 
L 105.836342 164.290107 
L 104.467035 165.659414 
L 103.097729 164.290107 
L 101.728422 165.659414 
L 103.097729 167.02872 
L 101.728422 168.398027 
z
" clip-path="url(#p92ed698ae4)" style="fill: #882255; fill-opacity: 0.8; stroke: #ffffff; stroke-opacity: 0.8; stroke-width: 0.5"/>
    <path d="M 93.892036 172.446666 
L 95.717778 172.446666 
L 95.717778 170.620925 
L 97.54352 170.620925 
L 97.54352 168.795183 
L 95.717778 168.795183 
L 95.717778 166.969441 
L 93.892036 166.969441 
L 93.892036 168.795183 
L 92.066295 168.795183 
L 92.066295 170.620925 
L 93.892036 170.620925 
z
" clip-path="url(#p92ed698ae4)" style="fill: #cc6677; fill-opacity: 0.8; stroke: #ffffff; stroke-opacity: 0.8; stroke-width: 0.5"/>
    <path d="M 95.283948 167.346082 
L 95.283948 171.219066 
L 99.156931 171.219066 
L 99.156931 167.346082 
z
" clip-path="url(#p92ed698ae4)" style="fill: #cc6677; fill-opacity: 0.8; stroke: #ffffff; stroke-opacity: 0.8; stroke-width: 0.5"/>
    <path d="M 93.774754 167.254594 
L 91.036141 169.993207 
L 93.774754 172.73182 
L 96.513367 169.993207 
z
" clip-path="url(#p92ed698ae4)" style="fill: #44aa99; fill-opacity: 0.8; stroke: #ffffff; stroke-opacity: 0.8; stroke-width: 0.5"/>
    <path d="M 92.709078 172.769881 
L 95.447691 167.292656 
L 89.970465 167.292656 
z
" clip-path="url(#p92ed698ae4)" style="fill: #88ccee; fill-opacity: 0.8; stroke: #ffffff; stroke-opacity: 0.8; stroke-width: 0.5"/>
    <path d="M 95.160133 168.578727 
C 95.886421 168.578727 96.583061 168.29017 97.096624 167.776606 
C 97.610188 167.263042 97.898745 166.566403 97.898745 165.840114 
C 97.898745 165.113826 97.610188 164.417186 97.096624 163.903623 
C 96.583061 163.390059 95.886421 163.101502 95.160133 163.101502 
C 94.433844 163.101502 93.737205 163.390059 93.223641 163.903623 
C 92.710077 164.417186 92.42152 165.113826 92.42152 165.840114 
C 92.42152 166.566403 92.710077 167.263042 93.223641 167.776606 
C 93.737205 168.29017 94.433844 168.578727 95.160133 168.578727 
z
" clip-path="url(#p92ed698ae4)" style="fill: #882255; fill-opacity: 0.8; stroke: #ffffff; stroke-opacity: 0.8; stroke-width: 0.5"/>
    <path d="M 94.733862 167.284325 
L 91.99525 172.761551 
L 97.472475 172.761551 
z
" clip-path="url(#p92ed698ae4)" style="fill: #332288; fill-opacity: 0.8; stroke: #ffffff; stroke-opacity: 0.8; stroke-width: 0.5"/>
    <path d="M 89.28064 167.942111 
L 89.847826 169.878603 
L 89.28064 171.815094 
L 91.217132 171.247909 
L 93.153624 171.815094 
L 92.586438 169.878603 
L 93.153624 167.942111 
L 91.217132 168.509296 
z
" clip-path="url(#p92ed698ae4)" style="fill: #332288; fill-opacity: 0.8; stroke: #ffffff; stroke-opacity: 0.8; stroke-width: 0.5"/>
    <path d="M 91.020069 172.644316 
L 92.389375 171.27501 
L 93.758682 172.644316 
L 95.127988 171.27501 
L 93.758682 169.905704 
L 95.127988 168.536397 
L 93.758682 167.167091 
L 92.389375 168.536397 
L 91.020069 167.167091 
L 89.650763 168.536397 
L 91.020069 169.905704 
L 89.650763 171.27501 
z
" clip-path="url(#p92ed698ae4)" style="fill: #882255; fill-opacity: 0.8; stroke: #ffffff; stroke-opacity: 0.8; stroke-width: 0.5"/>
    <path d="M 94.176217 172.674888 
L 96.001959 172.674888 
L 96.001959 170.849146 
L 97.8277 170.849146 
L 97.8277 169.023404 
L 96.001959 169.023404 
L 96.001959 167.197662 
L 94.176217 167.197662 
L 94.176217 169.023404 
L 92.350475 169.023404 
L 92.350475 170.849146 
L 94.176217 170.849146 
z
" clip-path="url(#p92ed698ae4)" style="fill: #cc6677; fill-opacity: 0.8; stroke: #ffffff; stroke-opacity: 0.8; stroke-width: 0.5"/>
    <path d="M 92.264533 166.987305 
L 92.264533 170.860288 
L 96.137516 170.860288 
L 96.137516 166.987305 
z
" clip-path="url(#p92ed698ae4)" style="fill: #cc6677; fill-opacity: 0.8; stroke: #ffffff; stroke-opacity: 0.8; stroke-width: 0.5"/>
    <path d="M 92.566988 167.279803 
L 89.828375 170.018416 
L 92.566988 172.757028 
L 95.305601 170.018416 
z
" clip-path="url(#p92ed698ae4)" style="fill: #44aa99; fill-opacity: 0.8; stroke: #ffffff; stroke-opacity: 0.8; stroke-width: 0.5"/>
    <path d="M 94.058934 167.293685 
L 93.090688 169.064052 
L 91.320321 170.032298 
L 93.090688 171.000544 
L 94.058934 172.770911 
L 95.02718 171.000544 
L 96.797547 170.032298 
L 95.02718 169.064052 
z
" clip-path="url(#p92ed698ae4)" style="fill: #44aa99; fill-opacity: 0.8; stroke: #ffffff; stroke-opacity: 0.8; stroke-width: 0.5"/>
    <path d="M 92.211763 172.770972 
L 94.950376 167.293747 
L 89.47315 167.293747 
z
" clip-path="url(#p92ed698ae4)" style="fill: #88ccee; fill-opacity: 0.8; stroke: #ffffff; stroke-opacity: 0.8; stroke-width: 0.5"/>
    <path d="M 94.058934 172.445133 
C 94.785223 172.445133 95.481862 172.156575 95.995426 171.643012 
C 96.50899 171.129448 96.797547 170.432808 96.797547 169.70652 
C 96.797547 168.980231 96.50899 168.283592 95.995426 167.770028 
C 95.481862 167.256465 94.785223 166.967907 94.058934 166.967907 
C 93.332646 166.967907 92.636006 167.256465 92.122443 167.770028 
C 91.608879 168.283592 91.320321 168.980231 91.320321 169.70652 
C 91.320321 170.432808 91.608879 171.129448 92.122443 171.643012 
C 92.636006 172.156575 93.332646 172.445133 94.058934 172.445133 
z
" clip-path="url(#p92ed698ae4)" style="fill: #882255; fill-opacity: 0.8; stroke: #ffffff; stroke-opacity: 0.8; stroke-width: 0.5"/>
    <path d="M 94.236547 167.289478 
L 91.497934 172.766703 
L 96.97516 172.766703 
z
" clip-path="url(#p92ed698ae4)" style="fill: #332288; fill-opacity: 0.8; stroke: #ffffff; stroke-opacity: 0.8; stroke-width: 0.5"/>
    <path d="M 91.269902 168.075326 
L 91.837087 170.011817 
L 91.269902 171.948309 
L 93.206394 171.381124 
L 95.142885 171.948309 
L 94.5757 170.011817 
L 95.142885 168.075326 
L 93.206394 168.642511 
z
" clip-path="url(#p92ed698ae4)" style="fill: #332288; fill-opacity: 0.8; stroke: #ffffff; stroke-opacity: 0.8; stroke-width: 0.5"/>
    <path d="M 92.369925 172.702281 
L 93.739232 171.332975 
L 95.108538 172.702281 
L 96.477844 171.332975 
L 95.108538 169.963668 
L 96.477844 168.594362 
L 95.108538 167.225055 
L 93.739232 168.594362 
L 92.369925 167.225055 
L 91.000619 168.594362 
L 92.369925 169.963668 
L 91.000619 171.332975 
z
" clip-path="url(#p92ed698ae4)" style="fill: #882255; fill-opacity: 0.8; stroke: #ffffff; stroke-opacity: 0.8; stroke-width: 0.5"/>
    <path d="M 94.63801 171.942193 
L 96.463751 171.942193 
L 96.463751 170.116451 
L 98.289493 170.116451 
L 98.289493 168.290709 
L 96.463751 168.290709 
L 96.463751 166.464967 
L 94.63801 166.464967 
L 94.63801 168.290709 
L 92.812268 168.290709 
L 92.812268 170.116451 
L 94.63801 170.116451 
z
" clip-path="url(#p92ed698ae4)" style="fill: #cc6677; fill-opacity: 0.8; stroke: #ffffff; stroke-opacity: 0.8; stroke-width: 0.5"/>
    <path d="M 92.655281 167.834878 
L 92.655281 171.707861 
L 96.528264 171.707861 
L 96.528264 167.834878 
z
" clip-path="url(#p92ed698ae4)" style="fill: #cc6677; fill-opacity: 0.8; stroke: #ffffff; stroke-opacity: 0.8; stroke-width: 0.5"/>
    <path d="M 93.703709 167.287633 
L 90.965096 170.026245 
L 93.703709 172.764858 
L 96.442322 170.026245 
z
" clip-path="url(#p92ed698ae4)" style="fill: #44aa99; fill-opacity: 0.8; stroke: #ffffff; stroke-opacity: 0.8; stroke-width: 0.5"/>
    <path d="M 91.359222 172.770337 
L 94.097835 167.293111 
L 88.620609 167.293111 
z
" clip-path="url(#p92ed698ae4)" style="fill: #88ccee; fill-opacity: 0.8; stroke: #ffffff; stroke-opacity: 0.8; stroke-width: 0.5"/>
    <path d="M 94.41416 171.421534 
C 95.140448 171.421534 95.837088 171.132977 96.350651 170.619413 
C 96.864215 170.105849 97.152772 169.40921 97.152772 168.682921 
C 97.152772 167.956633 96.864215 167.259993 96.350651 166.74643 
C 95.837088 166.232866 95.140448 165.944309 94.41416 165.944309 
C 93.687871 165.944309 92.991231 166.232866 92.477668 166.74643 
C 91.964104 167.259993 91.675547 167.956633 91.675547 168.682921 
C 91.675547 169.40921 91.964104 170.105849 92.477668 170.619413 
C 92.991231 171.132977 93.687871 171.421534 94.41416 171.421534 
z
" clip-path="url(#p92ed698ae4)" style="fill: #882255; fill-opacity: 0.8; stroke: #ffffff; stroke-opacity: 0.8; stroke-width: 0.5"/>
    <path d="M 96.083718 167.287492 
L 93.345106 172.764718 
L 98.822331 172.764718 
z
" clip-path="url(#p92ed698ae4)" style="fill: #332288; fill-opacity: 0.8; stroke: #ffffff; stroke-opacity: 0.8; stroke-width: 0.5"/>
    <path d="M 90.097658 168.092499 
L 90.664844 170.02899 
L 90.097658 171.965482 
L 92.03415 171.398297 
L 93.970642 171.965482 
L 93.403457 170.02899 
L 93.970642 168.092499 
L 92.03415 168.659684 
z
" clip-path="url(#p92ed698ae4)" style="fill: #332288; fill-opacity: 0.8; stroke: #ffffff; stroke-opacity: 0.8; stroke-width: 0.5"/>
    <path d="M 92.334403 172.711528 
L 93.703709 171.342222 
L 95.073015 172.711528 
L 96.442322 171.342222 
L 95.073015 169.972916 
L 96.442322 168.603609 
L 95.073015 167.234303 
L 93.703709 168.603609 
L 92.334403 167.234303 
L 90.965096 168.603609 
L 92.334403 169.972916 
L 90.965096 171.342222 
z
" clip-path="url(#p92ed698ae4)" style="fill: #882255; fill-opacity: 0.8; stroke: #ffffff; stroke-opacity: 0.8; stroke-width: 0.5"/>
    <path d="M 94.495919 172.014866 
L 96.321661 172.014866 
L 96.321661 170.189125 
L 98.147403 170.189125 
L 98.147403 168.363383 
L 96.321661 168.363383 
L 96.321661 166.537641 
L 94.495919 166.537641 
L 94.495919 168.363383 
L 92.670178 168.363383 
L 92.670178 170.189125 
L 94.495919 170.189125 
z
" clip-path="url(#p92ed698ae4)" style="fill: #cc6677; fill-opacity: 0.8; stroke: #ffffff; stroke-opacity: 0.8; stroke-width: 0.5"/>
    <path d="M 92.122443 167.974021 
L 92.122443 171.847005 
L 95.995426 171.847005 
L 95.995426 167.974021 
z
" clip-path="url(#p92ed698ae4)" style="fill: #cc6677; fill-opacity: 0.8; stroke: #ffffff; stroke-opacity: 0.8; stroke-width: 0.5"/>
    <path d="M 92.886691 167.282863 
L 90.148078 170.021475 
L 92.886691 172.760088 
L 95.625304 170.021475 
z
" clip-path="url(#p92ed698ae4)" style="fill: #44aa99; fill-opacity: 0.8; stroke: #ffffff; stroke-opacity: 0.8; stroke-width: 0.5"/>
   </g>
   <g id="PolyCollection_1">
    <path d="M 92.069673 169.66285 
L 92.069673 169.66285 
L 92.211763 169.564119 
L 92.389375 169.440705 
L 92.389375 169.440705 
L 92.389375 169.440705 
L 92.211763 169.564119 
L 92.069673 169.66285 
z
" clip-path="url(#p92ed698ae4)" style="fill-opacity: 0.2; stroke: #000000; stroke-opacity: 0.2; stroke-width: 0.8"/>
    <path d="M 92.709078 169.218561 
L 92.709078 169.218561 
L 92.709078 169.218561 
L 92.709078 169.218561 
z
" clip-path="url(#p92ed698ae4)" style="fill-opacity: 0.2; stroke: #000000; stroke-opacity: 0.2; stroke-width: 0.8"/>
    <path d="M 92.886691 169.095147 
L 92.886691 169.095147 
L 92.886691 169.095147 
L 92.886691 169.095147 
z
" clip-path="url(#p92ed698ae4)" style="fill-opacity: 0.2; stroke: #000000; stroke-opacity: 0.2; stroke-width: 0.8"/>
    <path d="M 93.064303 168.971734 
L 93.064303 168.971734 
L 93.099826 168.947051 
L 93.099826 168.947051 
L 93.099826 168.947051 
L 93.064303 168.971734 
z
" clip-path="url(#p92ed698ae4)" style="fill-opacity: 0.2; stroke: #000000; stroke-opacity: 0.2; stroke-width: 0.8"/>
    <path d="M 93.241916 168.84832 
L 93.241916 168.84832 
L 93.241916 168.84832 
L 93.241916 168.84832 
z
" clip-path="url(#p92ed698ae4)" style="fill-opacity: 0.2; stroke: #000000; stroke-opacity: 0.2; stroke-width: 0.8"/>
    <path d="M 93.703709 168.527445 
L 93.703709 168.527445 
L 93.739232 168.502762 
L 93.774754 168.478079 
L 93.774754 168.478079 
L 93.774754 168.478079 
L 93.739232 168.502762 
L 93.703709 168.527445 
z
" clip-path="url(#p92ed698ae4)" style="fill-opacity: 0.2; stroke: #000000; stroke-opacity: 0.2; stroke-width: 0.8"/>
    <path d="M 94.058934 168.280617 
L 94.058934 168.280617 
L 94.094457 168.255935 
L 94.094457 168.255935 
L 94.094457 168.255935 
L 94.058934 168.280617 
z
" clip-path="url(#p92ed698ae4)" style="fill-opacity: 0.2; stroke: #000000; stroke-opacity: 0.2; stroke-width: 0.8"/>
    <path d="M 94.41416 168.03379 
L 94.41416 168.03379 
L 94.41416 168.03379 
L 94.41416 168.03379 
z
" clip-path="url(#p92ed698ae4)" style="fill-opacity: 0.2; stroke: #000000; stroke-opacity: 0.2; stroke-width: 0.8"/>
    <path d="M 95.089088 167.564818 
L 95.089088 167.564818 
L 95.089088 167.564818 
L 95.089088 167.564818 
z
" clip-path="url(#p92ed698ae4)" style="fill-opacity: 0.2; stroke: #000000; stroke-opacity: 0.2; stroke-width: 0.8"/>
    <path d="M 95.302223 167.416722 
L 95.302223 167.416722 
L 95.40879 167.342674 
L 95.40879 167.342674 
L 95.40879 167.342674 
L 95.302223 167.416722 
z
" clip-path="url(#p92ed698ae4)" style="fill-opacity: 0.2; stroke: #000000; stroke-opacity: 0.2; stroke-width: 0.8"/>
    <path d="M 97.042827 166.207268 
L 97.042827 166.207268 
L 97.042827 166.207268 
L 97.042827 166.207268 
z
" clip-path="url(#p92ed698ae4)" style="fill-opacity: 0.2; stroke: #000000; stroke-opacity: 0.2; stroke-width: 0.8"/>
    <path d="M 97.255962 166.059172 
L 97.255962 166.059172 
L 97.255962 166.059172 
L 97.255962 166.059172 
z
" clip-path="url(#p92ed698ae4)" style="fill-opacity: 0.2; stroke: #000000; stroke-opacity: 0.2; stroke-width: 0.8"/>
    <path d="M 99.529404 164.479477 
L 99.529404 164.479477 
L 99.529404 164.479477 
L 99.529404 164.479477 
z
" clip-path="url(#p92ed698ae4)" style="fill-opacity: 0.2; stroke: #000000; stroke-opacity: 0.2; stroke-width: 0.8"/>
   </g>
   <g id="line2d_1"/>
   <g id="line2d_2"/>
   <g id="line2d_3"/>
   <g id="line2d_4"/>
   <g id="line2d_5"/>
   <g id="line2d_6"/>
   <g id="line2d_7"/>
   <g id="line2d_8"/>
   <g id="line2d_9"/>
   <g id="line2d_10">
    <path d="M 91.217132 170.255235 
L 216.220911 83.39672 
L 216.220911 83.39672 
" clip-path="url(#p92ed698ae4)" style="fill: none; stroke-dasharray: 6,6; stroke-dashoffset: 0; stroke: #000000; stroke-width: 1.2"/>
   </g>
   <g id="patch_3">
    <path d="M 84.432329 174.732 
L 84.432329 19.668 
" style="fill: none; stroke: #262626; stroke-linejoin: miter; stroke-linecap: square"/>
   </g>
   <g id="patch_4">
    <path d="M 84.432329 174.732 
L 233.62695 174.732 
" style="fill: none; stroke: #262626; stroke-linejoin: miter; stroke-linecap: square"/>
   </g>
  </g>
  <g id="legend_1">
   <g id="text_18">
    <!-- full name_x -->
    <g style="fill: #262626" transform="translate(288.928813 54.368063) scale(0.096 -0.096)">
     <defs>
      <path id="ArialMT-66" d="M 556 0 
L 556 2881 
L 59 2881 
L 59 3319 
L 556 3319 
L 556 3672 
Q 556 4006 616 4169 
Q 697 4388 901 4523 
Q 1106 4659 1475 4659 
Q 1713 4659 2000 4603 
L 1916 4113 
Q 1741 4144 1584 4144 
Q 1328 4144 1222 4034 
Q 1116 3925 1116 3625 
L 1116 3319 
L 1763 3319 
L 1763 2881 
L 1116 2881 
L 1116 0 
L 556 0 
z
" transform="scale(0.015625)"/>
      <path id="ArialMT-61" d="M 2588 409 
Q 2275 144 1986 34 
Q 1697 -75 1366 -75 
Q 819 -75 525 192 
Q 231 459 231 875 
Q 231 1119 342 1320 
Q 453 1522 633 1644 
Q 813 1766 1038 1828 
Q 1203 1872 1538 1913 
Q 2219 1994 2541 2106 
Q 2544 2222 2544 2253 
Q 2544 2597 2384 2738 
Q 2169 2928 1744 2928 
Q 1347 2928 1158 2789 
Q 969 2650 878 2297 
L 328 2372 
Q 403 2725 575 2942 
Q 747 3159 1072 3276 
Q 1397 3394 1825 3394 
Q 2250 3394 2515 3294 
Q 2781 3194 2906 3042 
Q 3031 2891 3081 2659 
Q 3109 2516 3109 2141 
L 3109 1391 
Q 3109 606 3145 398 
Q 3181 191 3288 0 
L 2700 0 
Q 2613 175 2588 409 
z
M 2541 1666 
Q 2234 1541 1622 1453 
Q 1275 1403 1131 1340 
Q 988 1278 909 1158 
Q 831 1038 831 891 
Q 831 666 1001 516 
Q 1172 366 1500 366 
Q 1825 366 2078 508 
Q 2331 650 2450 897 
Q 2541 1088 2541 1459 
L 2541 1666 
z
" transform="scale(0.015625)"/>
      <path id="ArialMT-5f" d="M -97 -1272 
L -97 -866 
L 3631 -866 
L 3631 -1272 
L -97 -1272 
z
" transform="scale(0.015625)"/>
      <path id="ArialMT-78" d="M 47 0 
L 1259 1725 
L 138 3319 
L 841 3319 
L 1350 2541 
Q 1494 2319 1581 2169 
Q 1719 2375 1834 2534 
L 2394 3319 
L 3066 3319 
L 1919 1756 
L 3153 0 
L 2463 0 
L 1781 1031 
L 1600 1309 
L 728 0 
L 47 0 
z
" transform="scale(0.015625)"/>
     </defs>
     <use xlink:href="#ArialMT-66"/>
     <use xlink:href="#ArialMT-75" x="27.783203"/>
     <use xlink:href="#ArialMT-6c" x="83.398438"/>
     <use xlink:href="#ArialMT-6c" x="105.615234"/>
     <use xlink:href="#ArialMT-20" x="127.832031"/>
     <use xlink:href="#ArialMT-6e" x="155.615234"/>
     <use xlink:href="#ArialMT-61" x="211.230469"/>
     <use xlink:href="#ArialMT-6d" x="266.845703"/>
     <use xlink:href="#ArialMT-65" x="350.146484"/>
     <use xlink:href="#ArialMT-5f" x="405.761719"/>
     <use xlink:href="#ArialMT-78" x="461.376953"/>
    </g>
   </g>
   <g id="line2d_11">
    <defs>
     <path id="mb3b4183497" d="M 0 2.738613 
C 0.726289 2.738613 1.422928 2.450055 1.936492 1.936492 
C 2.450055 1.422928 2.738613 0.726289 2.738613 0 
C 2.738613 -0.726289 2.450055 -1.422928 1.936492 -1.936492 
C 1.422928 -2.450055 0.726289 -2.738613 0 -2.738613 
C -0.726289 -2.738613 -1.422928 -2.450055 -1.936492 -1.936492 
C -2.450055 -1.422928 -2.738613 -0.726289 -2.738613 0 
C -2.738613 0.726289 -2.450055 1.422928 -1.936492 1.936492 
C -1.422928 2.450055 -0.726289 2.738613 0 2.738613 
z
" style="stroke: #1a1a1a; stroke-opacity: 0.8; stroke-width: 0.5"/>
    </defs>
    <g>
     <use xlink:href="#mb3b4183497" x="246.361625" y="63.894938" style="fill: #882255; fill-opacity: 0.8; stroke: #1a1a1a; stroke-opacity: 0.8; stroke-width: 0.5"/>
    </g>
   </g>
   <g id="text_19">
    <!-- A. macleodii 1A3 -->
    <g style="fill: #262626" transform="translate(262.201625 66.974938) scale(0.088 -0.088)">
     <defs>
      <path id="ArialMT-41" d="M -9 0 
L 1750 4581 
L 2403 4581 
L 4278 0 
L 3588 0 
L 3053 1388 
L 1138 1388 
L 634 0 
L -9 0 
z
M 1313 1881 
L 2866 1881 
L 2388 3150 
Q 2169 3728 2063 4100 
Q 1975 3659 1816 3225 
L 1313 1881 
z
" transform="scale(0.015625)"/>
      <path id="ArialMT-64" d="M 2575 0 
L 2575 419 
Q 2259 -75 1647 -75 
Q 1250 -75 917 144 
Q 584 363 401 755 
Q 219 1147 219 1656 
Q 219 2153 384 2558 
Q 550 2963 881 3178 
Q 1213 3394 1622 3394 
Q 1922 3394 2156 3267 
Q 2391 3141 2538 2938 
L 2538 4581 
L 3097 4581 
L 3097 0 
L 2575 0 
z
M 797 1656 
Q 797 1019 1065 703 
Q 1334 388 1700 388 
Q 2069 388 2326 689 
Q 2584 991 2584 1609 
Q 2584 2291 2321 2609 
Q 2059 2928 1675 2928 
Q 1300 2928 1048 2622 
Q 797 2316 797 1656 
z
" transform="scale(0.015625)"/>
      <path id="ArialMT-69" d="M 425 3934 
L 425 4581 
L 988 4581 
L 988 3934 
L 425 3934 
z
M 425 0 
L 425 3319 
L 988 3319 
L 988 0 
L 425 0 
z
" transform="scale(0.015625)"/>
     </defs>
     <use xlink:href="#ArialMT-41"/>
     <use xlink:href="#ArialMT-2e" x="66.699219"/>
     <use xlink:href="#ArialMT-20" x="94.482422"/>
     <use xlink:href="#ArialMT-6d" x="122.265625"/>
     <use xlink:href="#ArialMT-61" x="205.566406"/>
     <use xlink:href="#ArialMT-63" x="261.181641"/>
     <use xlink:href="#ArialMT-6c" x="311.181641"/>
     <use xlink:href="#ArialMT-65" x="333.398438"/>
     <use xlink:href="#ArialMT-6f" x="389.013672"/>
     <use xlink:href="#ArialMT-64" x="444.628906"/>
     <use xlink:href="#ArialMT-69" x="500.244141"/>
     <use xlink:href="#ArialMT-69" x="522.460938"/>
     <use xlink:href="#ArialMT-20" x="544.677734"/>
     <use xlink:href="#ArialMT-31" x="572.460938"/>
     <use xlink:href="#ArialMT-41" x="628.076172"/>
     <use xlink:href="#ArialMT-33" x="694.775391"/>
    </g>
   </g>
   <g id="line2d_12">
    <defs>
     <path id="mf683736ae4" d="M -1.369306 2.738613 
L 0 1.369306 
L 1.369306 2.738613 
L 2.738613 1.369306 
L 1.369306 0 
L 2.738613 -1.369306 
L 1.369306 -2.738613 
L 0 -1.369306 
L -1.369306 -2.738613 
L -2.738613 -1.369306 
L -1.369306 0 
L -2.738613 1.369306 
z
" style="stroke: #1a1a1a; stroke-opacity: 0.8; stroke-width: 0.5; stroke-linejoin: miter"/>
    </defs>
    <g>
     <use xlink:href="#mf683736ae4" x="246.361625" y="76.342813" style="fill: #882255; fill-opacity: 0.8; stroke: #1a1a1a; stroke-opacity: 0.8; stroke-width: 0.5; stroke-linejoin: miter"/>
    </g>
   </g>
   <g id="text_20">
    <!-- Pseudoalteromonas haloplanktis -->
    <g style="fill: #262626" transform="translate(262.201625 79.422813) scale(0.088 -0.088)">
     <defs>
      <path id="ArialMT-50" d="M 494 0 
L 494 4581 
L 2222 4581 
Q 2678 4581 2919 4538 
Q 3256 4481 3484 4323 
Q 3713 4166 3852 3881 
Q 3991 3597 3991 3256 
Q 3991 2672 3619 2267 
Q 3247 1863 2275 1863 
L 1100 1863 
L 1100 0 
L 494 0 
z
M 1100 2403 
L 2284 2403 
Q 2872 2403 3119 2622 
Q 3366 2841 3366 3238 
Q 3366 3525 3220 3729 
Q 3075 3934 2838 4000 
Q 2684 4041 2272 4041 
L 1100 4041 
L 1100 2403 
z
" transform="scale(0.015625)"/>
      <path id="ArialMT-74" d="M 1650 503 
L 1731 6 
Q 1494 -44 1306 -44 
Q 1000 -44 831 53 
Q 663 150 594 308 
Q 525 466 525 972 
L 525 2881 
L 113 2881 
L 113 3319 
L 525 3319 
L 525 4141 
L 1084 4478 
L 1084 3319 
L 1650 3319 
L 1650 2881 
L 1084 2881 
L 1084 941 
Q 1084 700 1114 631 
Q 1144 563 1211 522 
Q 1278 481 1403 481 
Q 1497 481 1650 503 
z
" transform="scale(0.015625)"/>
      <path id="ArialMT-68" d="M 422 0 
L 422 4581 
L 984 4581 
L 984 2938 
Q 1378 3394 1978 3394 
Q 2347 3394 2619 3248 
Q 2891 3103 3008 2847 
Q 3125 2591 3125 2103 
L 3125 0 
L 2563 0 
L 2563 2103 
Q 2563 2525 2380 2717 
Q 2197 2909 1863 2909 
Q 1613 2909 1392 2779 
Q 1172 2650 1078 2428 
Q 984 2206 984 1816 
L 984 0 
L 422 0 
z
" transform="scale(0.015625)"/>
      <path id="ArialMT-70" d="M 422 -1272 
L 422 3319 
L 934 3319 
L 934 2888 
Q 1116 3141 1344 3267 
Q 1572 3394 1897 3394 
Q 2322 3394 2647 3175 
Q 2972 2956 3137 2557 
Q 3303 2159 3303 1684 
Q 3303 1175 3120 767 
Q 2938 359 2589 142 
Q 2241 -75 1856 -75 
Q 1575 -75 1351 44 
Q 1128 163 984 344 
L 984 -1272 
L 422 -1272 
z
M 931 1641 
Q 931 1000 1190 694 
Q 1450 388 1819 388 
Q 2194 388 2461 705 
Q 2728 1022 2728 1688 
Q 2728 2322 2467 2637 
Q 2206 2953 1844 2953 
Q 1484 2953 1207 2617 
Q 931 2281 931 1641 
z
" transform="scale(0.015625)"/>
      <path id="ArialMT-6b" d="M 425 0 
L 425 4581 
L 988 4581 
L 988 1969 
L 2319 3319 
L 3047 3319 
L 1778 2088 
L 3175 0 
L 2481 0 
L 1384 1697 
L 988 1316 
L 988 0 
L 425 0 
z
" transform="scale(0.015625)"/>
     </defs>
     <use xlink:href="#ArialMT-50"/>
     <use xlink:href="#ArialMT-73" x="66.699219"/>
     <use xlink:href="#ArialMT-65" x="116.699219"/>
     <use xlink:href="#ArialMT-75" x="172.314453"/>
     <use xlink:href="#ArialMT-64" x="227.929688"/>
     <use xlink:href="#ArialMT-6f" x="283.544922"/>
     <use xlink:href="#ArialMT-61" x="339.160156"/>
     <use xlink:href="#ArialMT-6c" x="394.775391"/>
     <use xlink:href="#ArialMT-74" x="416.992188"/>
     <use xlink:href="#ArialMT-65" x="444.775391"/>
     <use xlink:href="#ArialMT-72" x="500.390625"/>
     <use xlink:href="#ArialMT-6f" x="533.691406"/>
     <use xlink:href="#ArialMT-6d" x="589.306641"/>
     <use xlink:href="#ArialMT-6f" x="672.607422"/>
     <use xlink:href="#ArialMT-6e" x="728.222656"/>
     <use xlink:href="#ArialMT-61" x="783.837891"/>
     <use xlink:href="#ArialMT-73" x="839.453125"/>
     <use xlink:href="#ArialMT-20" x="889.453125"/>
     <use xlink:href="#ArialMT-68" x="917.236328"/>
     <use xlink:href="#ArialMT-61" x="972.851562"/>
     <use xlink:href="#ArialMT-6c" x="1028.466797"/>
     <use xlink:href="#ArialMT-6f" x="1050.683594"/>
     <use xlink:href="#ArialMT-70" x="1106.298828"/>
     <use xlink:href="#ArialMT-6c" x="1161.914062"/>
     <use xlink:href="#ArialMT-61" x="1184.130859"/>
     <use xlink:href="#ArialMT-6e" x="1239.746094"/>
     <use xlink:href="#ArialMT-6b" x="1295.361328"/>
     <use xlink:href="#ArialMT-74" x="1345.361328"/>
     <use xlink:href="#ArialMT-69" x="1373.144531"/>
     <use xlink:href="#ArialMT-73" x="1395.361328"/>
    </g>
   </g>
   <g id="line2d_13">
    <defs>
     <path id="m79d909325d" d="M -1.936492 -1.936492 
L -1.936492 1.936492 
L 1.936492 1.936492 
L 1.936492 -1.936492 
z
" style="stroke: #1a1a1a; stroke-opacity: 0.8; stroke-width: 0.5; stroke-linejoin: miter"/>
    </defs>
    <g>
     <use xlink:href="#m79d909325d" x="246.361625" y="88.897938" style="fill: #cc6677; fill-opacity: 0.8; stroke: #1a1a1a; stroke-opacity: 0.8; stroke-width: 0.5; stroke-linejoin: miter"/>
    </g>
   </g>
   <g id="text_21">
    <!-- Sulfitobacter pseudonitzschiae -->
    <g style="fill: #262626" transform="translate(262.201625 91.977938) scale(0.088 -0.088)">
     <defs>
      <path id="ArialMT-53" d="M 288 1472 
L 859 1522 
Q 900 1178 1048 958 
Q 1197 738 1509 602 
Q 1822 466 2213 466 
Q 2559 466 2825 569 
Q 3091 672 3220 851 
Q 3350 1031 3350 1244 
Q 3350 1459 3225 1620 
Q 3100 1781 2813 1891 
Q 2628 1963 1997 2114 
Q 1366 2266 1113 2400 
Q 784 2572 623 2826 
Q 463 3081 463 3397 
Q 463 3744 659 4045 
Q 856 4347 1234 4503 
Q 1613 4659 2075 4659 
Q 2584 4659 2973 4495 
Q 3363 4331 3572 4012 
Q 3781 3694 3797 3291 
L 3216 3247 
Q 3169 3681 2898 3903 
Q 2628 4125 2100 4125 
Q 1550 4125 1298 3923 
Q 1047 3722 1047 3438 
Q 1047 3191 1225 3031 
Q 1400 2872 2139 2705 
Q 2878 2538 3153 2413 
Q 3553 2228 3743 1945 
Q 3934 1663 3934 1294 
Q 3934 928 3725 604 
Q 3516 281 3123 101 
Q 2731 -78 2241 -78 
Q 1619 -78 1198 103 
Q 778 284 539 648 
Q 300 1013 288 1472 
z
" transform="scale(0.015625)"/>
      <path id="ArialMT-62" d="M 941 0 
L 419 0 
L 419 4581 
L 981 4581 
L 981 2947 
Q 1338 3394 1891 3394 
Q 2197 3394 2470 3270 
Q 2744 3147 2920 2923 
Q 3097 2700 3197 2384 
Q 3297 2069 3297 1709 
Q 3297 856 2875 390 
Q 2453 -75 1863 -75 
Q 1275 -75 941 416 
L 941 0 
z
M 934 1684 
Q 934 1088 1097 822 
Q 1363 388 1816 388 
Q 2184 388 2453 708 
Q 2722 1028 2722 1663 
Q 2722 2313 2464 2622 
Q 2206 2931 1841 2931 
Q 1472 2931 1203 2611 
Q 934 2291 934 1684 
z
" transform="scale(0.015625)"/>
      <path id="ArialMT-7a" d="M 125 0 
L 125 456 
L 2238 2881 
Q 1878 2863 1603 2863 
L 250 2863 
L 250 3319 
L 2963 3319 
L 2963 2947 
L 1166 841 
L 819 456 
Q 1197 484 1528 484 
L 3063 484 
L 3063 0 
L 125 0 
z
" transform="scale(0.015625)"/>
     </defs>
     <use xlink:href="#ArialMT-53"/>
     <use xlink:href="#ArialMT-75" x="66.699219"/>
     <use xlink:href="#ArialMT-6c" x="122.314453"/>
     <use xlink:href="#ArialMT-66" x="144.53125"/>
     <use xlink:href="#ArialMT-69" x="172.314453"/>
     <use xlink:href="#ArialMT-74" x="194.53125"/>
     <use xlink:href="#ArialMT-6f" x="222.314453"/>
     <use xlink:href="#ArialMT-62" x="277.929688"/>
     <use xlink:href="#ArialMT-61" x="333.544922"/>
     <use xlink:href="#ArialMT-63" x="389.160156"/>
     <use xlink:href="#ArialMT-74" x="439.160156"/>
     <use xlink:href="#ArialMT-65" x="466.943359"/>
     <use xlink:href="#ArialMT-72" x="522.558594"/>
     <use xlink:href="#ArialMT-20" x="555.859375"/>
     <use xlink:href="#ArialMT-70" x="583.642578"/>
     <use xlink:href="#ArialMT-73" x="639.257812"/>
     <use xlink:href="#ArialMT-65" x="689.257812"/>
     <use xlink:href="#ArialMT-75" x="744.873047"/>
     <use xlink:href="#ArialMT-64" x="800.488281"/>
     <use xlink:href="#ArialMT-6f" x="856.103516"/>
     <use xlink:href="#ArialMT-6e" x="911.71875"/>
     <use xlink:href="#ArialMT-69" x="967.333984"/>
     <use xlink:href="#ArialMT-74" x="989.550781"/>
     <use xlink:href="#ArialMT-7a" x="1017.333984"/>
     <use xlink:href="#ArialMT-73" x="1067.333984"/>
     <use xlink:href="#ArialMT-63" x="1117.333984"/>
     <use xlink:href="#ArialMT-68" x="1167.333984"/>
     <use xlink:href="#ArialMT-69" x="1222.949219"/>
     <use xlink:href="#ArialMT-61" x="1245.166016"/>
     <use xlink:href="#ArialMT-65" x="1300.78125"/>
    </g>
   </g>
   <g id="line2d_14">
    <defs>
     <path id="m8cb5e86cfb" d="M -0.912871 2.738613 
L 0.912871 2.738613 
L 0.912871 0.912871 
L 2.738613 0.912871 
L 2.738613 -0.912871 
L 0.912871 -0.912871 
L 0.912871 -2.738613 
L -0.912871 -2.738613 
L -0.912871 -0.912871 
L -2.738613 -0.912871 
L -2.738613 0.912871 
L -0.912871 0.912871 
z
" style="stroke: #1a1a1a; stroke-opacity: 0.8; stroke-width: 0.5; stroke-linejoin: miter"/>
    </defs>
    <g>
     <use xlink:href="#m8cb5e86cfb" x="246.361625" y="101.345813" style="fill: #cc6677; fill-opacity: 0.8; stroke: #1a1a1a; stroke-opacity: 0.8; stroke-width: 0.5; stroke-linejoin: miter"/>
    </g>
   </g>
   <g id="text_22">
    <!-- Ruegeria pomeroyi -->
    <g style="fill: #262626" transform="translate(262.201625 104.425813) scale(0.088 -0.088)">
     <defs>
      <path id="ArialMT-52" d="M 503 0 
L 503 4581 
L 2534 4581 
Q 3147 4581 3465 4457 
Q 3784 4334 3975 4021 
Q 4166 3709 4166 3331 
Q 4166 2844 3850 2509 
Q 3534 2175 2875 2084 
Q 3116 1969 3241 1856 
Q 3506 1613 3744 1247 
L 4541 0 
L 3778 0 
L 3172 953 
Q 2906 1366 2734 1584 
Q 2563 1803 2427 1890 
Q 2291 1978 2150 2013 
Q 2047 2034 1813 2034 
L 1109 2034 
L 1109 0 
L 503 0 
z
M 1109 2559 
L 2413 2559 
Q 2828 2559 3062 2645 
Q 3297 2731 3419 2920 
Q 3541 3109 3541 3331 
Q 3541 3656 3305 3865 
Q 3069 4075 2559 4075 
L 1109 4075 
L 1109 2559 
z
" transform="scale(0.015625)"/>
      <path id="ArialMT-67" d="M 319 -275 
L 866 -356 
Q 900 -609 1056 -725 
Q 1266 -881 1628 -881 
Q 2019 -881 2231 -725 
Q 2444 -569 2519 -288 
Q 2563 -116 2559 434 
Q 2191 0 1641 0 
Q 956 0 581 494 
Q 206 988 206 1678 
Q 206 2153 378 2554 
Q 550 2956 876 3175 
Q 1203 3394 1644 3394 
Q 2231 3394 2613 2919 
L 2613 3319 
L 3131 3319 
L 3131 450 
Q 3131 -325 2973 -648 
Q 2816 -972 2473 -1159 
Q 2131 -1347 1631 -1347 
Q 1038 -1347 672 -1080 
Q 306 -813 319 -275 
z
M 784 1719 
Q 784 1066 1043 766 
Q 1303 466 1694 466 
Q 2081 466 2343 764 
Q 2606 1063 2606 1700 
Q 2606 2309 2336 2618 
Q 2066 2928 1684 2928 
Q 1309 2928 1046 2623 
Q 784 2319 784 1719 
z
" transform="scale(0.015625)"/>
      <path id="ArialMT-79" d="M 397 -1278 
L 334 -750 
Q 519 -800 656 -800 
Q 844 -800 956 -737 
Q 1069 -675 1141 -563 
Q 1194 -478 1313 -144 
Q 1328 -97 1363 -6 
L 103 3319 
L 709 3319 
L 1400 1397 
Q 1534 1031 1641 628 
Q 1738 1016 1872 1384 
L 2581 3319 
L 3144 3319 
L 1881 -56 
Q 1678 -603 1566 -809 
Q 1416 -1088 1222 -1217 
Q 1028 -1347 759 -1347 
Q 597 -1347 397 -1278 
z
" transform="scale(0.015625)"/>
     </defs>
     <use xlink:href="#ArialMT-52"/>
     <use xlink:href="#ArialMT-75" x="72.216797"/>
     <use xlink:href="#ArialMT-65" x="127.832031"/>
     <use xlink:href="#ArialMT-67" x="183.447266"/>
     <use xlink:href="#ArialMT-65" x="239.0625"/>
     <use xlink:href="#ArialMT-72" x="294.677734"/>
     <use xlink:href="#ArialMT-69" x="327.978516"/>
     <use xlink:href="#ArialMT-61" x="350.195312"/>
     <use xlink:href="#ArialMT-20" x="405.810547"/>
     <use xlink:href="#ArialMT-70" x="433.59375"/>
     <use xlink:href="#ArialMT-6f" x="489.208984"/>
     <use xlink:href="#ArialMT-6d" x="544.824219"/>
     <use xlink:href="#ArialMT-65" x="628.125"/>
     <use xlink:href="#ArialMT-72" x="683.740234"/>
     <use xlink:href="#ArialMT-6f" x="717.041016"/>
     <use xlink:href="#ArialMT-79" x="772.65625"/>
     <use xlink:href="#ArialMT-69" x="822.65625"/>
    </g>
   </g>
   <g id="line2d_15">
    <defs>
     <path id="m25d9f4858e" d="M 0 -2.738613 
L -2.738613 -0 
L -0 2.738613 
L 2.738613 0 
z
" style="stroke: #1a1a1a; stroke-opacity: 0.8; stroke-width: 0.5; stroke-linejoin: miter"/>
    </defs>
    <g>
     <use xlink:href="#m25d9f4858e" x="246.361625" y="113.896813" style="fill: #44aa99; fill-opacity: 0.8; stroke: #1a1a1a; stroke-opacity: 0.8; stroke-width: 0.5; stroke-linejoin: miter"/>
    </g>
   </g>
   <g id="text_23">
    <!-- Marinovum 5F3 -->
    <g style="fill: #262626" transform="translate(262.201625 116.976813) scale(0.088 -0.088)">
     <defs>
      <path id="ArialMT-4d" d="M 475 0 
L 475 4581 
L 1388 4581 
L 2472 1338 
Q 2622 884 2691 659 
Q 2769 909 2934 1394 
L 4031 4581 
L 4847 4581 
L 4847 0 
L 4263 0 
L 4263 3834 
L 2931 0 
L 2384 0 
L 1059 3900 
L 1059 0 
L 475 0 
z
" transform="scale(0.015625)"/>
      <path id="ArialMT-76" d="M 1344 0 
L 81 3319 
L 675 3319 
L 1388 1331 
Q 1503 1009 1600 663 
Q 1675 925 1809 1294 
L 2547 3319 
L 3125 3319 
L 1869 0 
L 1344 0 
z
" transform="scale(0.015625)"/>
      <path id="ArialMT-35" d="M 266 1200 
L 856 1250 
Q 922 819 1161 601 
Q 1400 384 1738 384 
Q 2144 384 2425 690 
Q 2706 997 2706 1503 
Q 2706 1984 2436 2262 
Q 2166 2541 1728 2541 
Q 1456 2541 1237 2417 
Q 1019 2294 894 2097 
L 366 2166 
L 809 4519 
L 3088 4519 
L 3088 3981 
L 1259 3981 
L 1013 2750 
Q 1425 3038 1878 3038 
Q 2478 3038 2890 2622 
Q 3303 2206 3303 1553 
Q 3303 931 2941 478 
Q 2500 -78 1738 -78 
Q 1113 -78 717 272 
Q 322 622 266 1200 
z
" transform="scale(0.015625)"/>
     </defs>
     <use xlink:href="#ArialMT-4d"/>
     <use xlink:href="#ArialMT-61" x="83.300781"/>
     <use xlink:href="#ArialMT-72" x="138.916016"/>
     <use xlink:href="#ArialMT-69" x="172.216797"/>
     <use xlink:href="#ArialMT-6e" x="194.433594"/>
     <use xlink:href="#ArialMT-6f" x="250.048828"/>
     <use xlink:href="#ArialMT-76" x="305.664062"/>
     <use xlink:href="#ArialMT-75" x="355.664062"/>
     <use xlink:href="#ArialMT-6d" x="411.279297"/>
     <use xlink:href="#ArialMT-20" x="494.580078"/>
     <use xlink:href="#ArialMT-35" x="522.363281"/>
     <use xlink:href="#ArialMT-46" x="577.978516"/>
     <use xlink:href="#ArialMT-33" x="639.0625"/>
    </g>
   </g>
   <g id="line2d_16">
    <defs>
     <path id="md10190d3de" d="M 0 -2.738613 
L -0.968246 -0.968246 
L -2.738613 -0 
L -0.968246 0.968246 
L -0 2.738613 
L 0.968246 0.968246 
L 2.738613 0 
L 0.968246 -0.968246 
z
" style="stroke: #1a1a1a; stroke-opacity: 0.8; stroke-width: 0.5; stroke-linejoin: bevel"/>
    </defs>
    <g>
     <use xlink:href="#md10190d3de" x="246.361625" y="126.344688" style="fill: #44aa99; fill-opacity: 0.8; stroke: #1a1a1a; stroke-opacity: 0.8; stroke-width: 0.5; stroke-linejoin: bevel"/>
    </g>
   </g>
   <g id="text_24">
    <!-- Roseovarius 5C3 -->
    <g style="fill: #262626" transform="translate(262.201625 129.424688) scale(0.088 -0.088)">
     <defs>
      <path id="ArialMT-43" d="M 3763 1606 
L 4369 1453 
Q 4178 706 3683 314 
Q 3188 -78 2472 -78 
Q 1731 -78 1267 223 
Q 803 525 561 1097 
Q 319 1669 319 2325 
Q 319 3041 592 3573 
Q 866 4106 1370 4382 
Q 1875 4659 2481 4659 
Q 3169 4659 3637 4309 
Q 4106 3959 4291 3325 
L 3694 3184 
Q 3534 3684 3231 3912 
Q 2928 4141 2469 4141 
Q 1941 4141 1586 3887 
Q 1231 3634 1087 3207 
Q 944 2781 944 2328 
Q 944 1744 1114 1308 
Q 1284 872 1643 656 
Q 2003 441 2422 441 
Q 2931 441 3284 734 
Q 3638 1028 3763 1606 
z
" transform="scale(0.015625)"/>
     </defs>
     <use xlink:href="#ArialMT-52"/>
     <use xlink:href="#ArialMT-6f" x="72.216797"/>
     <use xlink:href="#ArialMT-73" x="127.832031"/>
     <use xlink:href="#ArialMT-65" x="177.832031"/>
     <use xlink:href="#ArialMT-6f" x="233.447266"/>
     <use xlink:href="#ArialMT-76" x="289.0625"/>
     <use xlink:href="#ArialMT-61" x="339.0625"/>
     <use xlink:href="#ArialMT-72" x="394.677734"/>
     <use xlink:href="#ArialMT-69" x="427.978516"/>
     <use xlink:href="#ArialMT-75" x="450.195312"/>
     <use xlink:href="#ArialMT-73" x="505.810547"/>
     <use xlink:href="#ArialMT-20" x="555.810547"/>
     <use xlink:href="#ArialMT-35" x="583.59375"/>
     <use xlink:href="#ArialMT-43" x="639.208984"/>
     <use xlink:href="#ArialMT-33" x="711.425781"/>
    </g>
   </g>
   <g id="line2d_17">
    <defs>
     <path id="m46a2243abe" d="M 0 -2.738613 
L -2.738613 2.738613 
L 2.738613 2.738613 
z
" style="stroke: #1a1a1a; stroke-opacity: 0.8; stroke-width: 0.5; stroke-linejoin: miter"/>
    </defs>
    <g>
     <use xlink:href="#m46a2243abe" x="246.361625" y="138.792563" style="fill: #332288; fill-opacity: 0.8; stroke: #1a1a1a; stroke-opacity: 0.8; stroke-width: 0.5; stroke-linejoin: miter"/>
    </g>
   </g>
   <g id="text_25">
    <!-- Marinobacter adhaerens HP15 -->
    <g style="fill: #262626" transform="translate(262.201625 141.872563) scale(0.088 -0.088)">
     <defs>
      <path id="ArialMT-48" d="M 513 0 
L 513 4581 
L 1119 4581 
L 1119 2700 
L 3500 2700 
L 3500 4581 
L 4106 4581 
L 4106 0 
L 3500 0 
L 3500 2159 
L 1119 2159 
L 1119 0 
L 513 0 
z
" transform="scale(0.015625)"/>
     </defs>
     <use xlink:href="#ArialMT-4d"/>
     <use xlink:href="#ArialMT-61" x="83.300781"/>
     <use xlink:href="#ArialMT-72" x="138.916016"/>
     <use xlink:href="#ArialMT-69" x="172.216797"/>
     <use xlink:href="#ArialMT-6e" x="194.433594"/>
     <use xlink:href="#ArialMT-6f" x="250.048828"/>
     <use xlink:href="#ArialMT-62" x="305.664062"/>
     <use xlink:href="#ArialMT-61" x="361.279297"/>
     <use xlink:href="#ArialMT-63" x="416.894531"/>
     <use xlink:href="#ArialMT-74" x="466.894531"/>
     <use xlink:href="#ArialMT-65" x="494.677734"/>
     <use xlink:href="#ArialMT-72" x="550.292969"/>
     <use xlink:href="#ArialMT-20" x="583.59375"/>
     <use xlink:href="#ArialMT-61" x="611.376953"/>
     <use xlink:href="#ArialMT-64" x="666.992188"/>
     <use xlink:href="#ArialMT-68" x="722.607422"/>
     <use xlink:href="#ArialMT-61" x="778.222656"/>
     <use xlink:href="#ArialMT-65" x="833.837891"/>
     <use xlink:href="#ArialMT-72" x="889.453125"/>
     <use xlink:href="#ArialMT-65" x="922.753906"/>
     <use xlink:href="#ArialMT-6e" x="978.369141"/>
     <use xlink:href="#ArialMT-73" x="1033.984375"/>
     <use xlink:href="#ArialMT-20" x="1083.984375"/>
     <use xlink:href="#ArialMT-48" x="1111.767578"/>
     <use xlink:href="#ArialMT-50" x="1183.984375"/>
     <use xlink:href="#ArialMT-31" x="1250.683594"/>
     <use xlink:href="#ArialMT-35" x="1306.298828"/>
    </g>
   </g>
   <g id="line2d_18">
    <defs>
     <path id="mbb9527b1cd" d="M -1.936492 -1.936492 
L -1.369306 -0 
L -1.936492 1.936492 
L -0 1.369306 
L 1.936492 1.936492 
L 1.369306 0 
L 1.936492 -1.936492 
L 0 -1.369306 
z
" style="stroke: #1a1a1a; stroke-opacity: 0.8; stroke-width: 0.5; stroke-linejoin: bevel"/>
    </defs>
    <g>
     <use xlink:href="#mbb9527b1cd" x="246.361625" y="151.240438" style="fill: #332288; fill-opacity: 0.8; stroke: #1a1a1a; stroke-opacity: 0.8; stroke-width: 0.5; stroke-linejoin: bevel"/>
    </g>
   </g>
   <g id="text_26">
    <!-- Phaeobacter gallaeciensis -->
    <g style="fill: #262626" transform="translate(262.201625 154.320438) scale(0.088 -0.088)">
     <use xlink:href="#ArialMT-50"/>
     <use xlink:href="#ArialMT-68" x="66.699219"/>
     <use xlink:href="#ArialMT-61" x="122.314453"/>
     <use xlink:href="#ArialMT-65" x="177.929688"/>
     <use xlink:href="#ArialMT-6f" x="233.544922"/>
     <use xlink:href="#ArialMT-62" x="289.160156"/>
     <use xlink:href="#ArialMT-61" x="344.775391"/>
     <use xlink:href="#ArialMT-63" x="400.390625"/>
     <use xlink:href="#ArialMT-74" x="450.390625"/>
     <use xlink:href="#ArialMT-65" x="478.173828"/>
     <use xlink:href="#ArialMT-72" x="533.789062"/>
     <use xlink:href="#ArialMT-20" x="567.089844"/>
     <use xlink:href="#ArialMT-67" x="594.873047"/>
     <use xlink:href="#ArialMT-61" x="650.488281"/>
     <use xlink:href="#ArialMT-6c" x="706.103516"/>
     <use xlink:href="#ArialMT-6c" x="728.320312"/>
     <use xlink:href="#ArialMT-61" x="750.537109"/>
     <use xlink:href="#ArialMT-65" x="806.152344"/>
     <use xlink:href="#ArialMT-63" x="861.767578"/>
     <use xlink:href="#ArialMT-69" x="911.767578"/>
     <use xlink:href="#ArialMT-65" x="933.984375"/>
     <use xlink:href="#ArialMT-6e" x="989.599609"/>
     <use xlink:href="#ArialMT-73" x="1045.214844"/>
     <use xlink:href="#ArialMT-69" x="1095.214844"/>
     <use xlink:href="#ArialMT-73" x="1117.431641"/>
    </g>
   </g>
   <g id="line2d_19">
    <defs>
     <path id="m42d600121b" d="M -0 2.738613 
L 2.738613 -2.738613 
L -2.738613 -2.738613 
z
" style="stroke: #1a1a1a; stroke-opacity: 0.8; stroke-width: 0.5; stroke-linejoin: miter"/>
    </defs>
    <g>
     <use xlink:href="#m42d600121b" x="246.361625" y="163.791438" style="fill: #88ccee; fill-opacity: 0.8; stroke: #1a1a1a; stroke-opacity: 0.8; stroke-width: 0.5; stroke-linejoin: miter"/>
    </g>
   </g>
   <g id="text_27">
    <!-- Axenic -->
    <g style="fill: #262626" transform="translate(262.201625 166.871438) scale(0.088 -0.088)">
     <use xlink:href="#ArialMT-41"/>
     <use xlink:href="#ArialMT-78" x="66.699219"/>
     <use xlink:href="#ArialMT-65" x="116.699219"/>
     <use xlink:href="#ArialMT-6e" x="172.314453"/>
     <use xlink:href="#ArialMT-69" x="227.929688"/>
     <use xlink:href="#ArialMT-63" x="250.146484"/>
    </g>
   </g>
  </g>
 </g>
 <defs>
  <clipPath id="p92ed698ae4">
   <rect x="84.432329" y="19.668" width="149.194621" height="155.064"/>
  </clipPath>
 </defs>
</svg>
