<?xml version="1.0" encoding="utf-8" standalone="no"?>
<!DOCTYPE svg PUBLIC "-//W3C//DTD SVG 1.1//EN"
  "http://www.w3.org/Graphics/SVG/1.1/DTD/svg11.dtd">
<svg xmlns:xlink="http://www.w3.org/1999/xlink" width="225.350813pt" height="209.39025pt" viewBox="0 0 225.350813 209.39025" xmlns="http://www.w3.org/2000/svg" version="1.1">
 <metadata>
  <rdf:RDF xmlns:dc="http://purl.org/dc/elements/1.1/" xmlns:cc="http://creativecommons.org/ns#" xmlns:rdf="http://www.w3.org/1999/02/22-rdf-syntax-ns#">
   <cc:Work>
    <dc:type rdf:resource="http://purl.org/dc/dcmitype/StillImage"/>
    <dc:date>2024-11-20T11:11:26.760289</dc:date>
    <dc:format>image/svg+xml</dc:format>
    <dc:creator>
     <cc:Agent>
      <dc:title>Matplotlib v3.8.0, https://matplotlib.org/</dc:title>
     </cc:Agent>
    </dc:creator>
   </cc:Work>
  </rdf:RDF>
 </metadata>
 <defs>
  <style type="text/css">*{stroke-linejoin: round; stroke-linecap: butt}</style>
 </defs>
 <g id="figure_1">
  <g id="patch_1">
   <path d="M 0 209.39025 
L 225.350813 209.39025 
L 225.350813 0 
L 0 0 
L 0 209.39025 
z
" style="fill: none"/>
  </g>
  <g id="axes_1">
   <g id="patch_2">
    <path d="M 45.04 171.562875 
L 215.704 171.562875 
L 215.704 16.498875 
L 45.04 16.498875 
L 45.04 171.562875 
z
" style="fill: none"/>
   </g>
   <g id="matplotlib.axis_1">
    <g id="xtick_1">
     <g id="text_1">
      <text style="fill: #262626; font: 8.8px 'Arial', 'DejaVu Sans', 'Liberation Sans', 'Bitstream Vera Sans', sans-serif; text-anchor: middle" x="53.166857" y="186.66175" transform="rotate(-0 53.166857 186.66175)">0</text>
     </g>
    </g>
    <g id="xtick_2">
     <g id="text_2">
      <text style="fill: #262626; font: 8.8px 'Arial', 'DejaVu Sans', 'Liberation Sans', 'Bitstream Vera Sans', sans-serif; text-anchor: middle" x="93.801143" y="186.66175" transform="rotate(-0 93.801143 186.66175)">1</text>
     </g>
    </g>
    <g id="xtick_3">
     <g id="text_3">
      <text style="fill: #262626; font: 8.8px 'Arial', 'DejaVu Sans', 'Liberation Sans', 'Bitstream Vera Sans', sans-serif; text-anchor: middle" x="134.435429" y="186.66175" transform="rotate(-0 134.435429 186.66175)">2</text>
     </g>
    </g>
    <g id="xtick_4">
     <g id="text_4">
      <text style="fill: #262626; font: 8.8px 'Arial', 'DejaVu Sans', 'Liberation Sans', 'Bitstream Vera Sans', sans-serif; text-anchor: middle" x="175.069714" y="186.66175" transform="rotate(-0 175.069714 186.66175)">3</text>
     </g>
    </g>
    <g id="xtick_5">
     <g id="text_5">
      <text style="fill: #262626; font: 8.8px 'Arial', 'DejaVu Sans', 'Liberation Sans', 'Bitstream Vera Sans', sans-serif; text-anchor: middle" x="215.704" y="186.66175" transform="rotate(-0 215.704 186.66175)">4</text>
     </g>
    </g>
    <g id="text_6">
     <text style="fill: #262626; font: 9.6px 'Arial', 'DejaVu Sans', 'Liberation Sans', 'Bitstream Vera Sans', sans-serif; text-anchor: middle" x="130.372" y="200.28225" transform="rotate(-0 130.372 200.28225)">Fluorescence</text>
    </g>
   </g>
   <g id="matplotlib.axis_2">
    <g id="ytick_1">
     <g id="text_7">
      <text style="fill: #262626; font: 8.8px 'Arial', 'DejaVu Sans', 'Liberation Sans', 'Bitstream Vera Sans', sans-serif; text-anchor: end" x="36.24" y="169.138903" transform="rotate(-0 36.24 169.138903)">0.0</text>
     </g>
    </g>
    <g id="ytick_2">
     <g id="text_8">
      <text style="fill: #262626; font: 8.8px 'Arial', 'DejaVu Sans', 'Liberation Sans', 'Bitstream Vera Sans', sans-serif; text-anchor: end" x="36.24" y="150.343267" transform="rotate(-0 36.24 150.343267)">0.2</text>
     </g>
    </g>
    <g id="ytick_3">
     <g id="text_9">
      <text style="fill: #262626; font: 8.8px 'Arial', 'DejaVu Sans', 'Liberation Sans', 'Bitstream Vera Sans', sans-serif; text-anchor: end" x="36.24" y="131.547631" transform="rotate(-0 36.24 131.547631)">0.4</text>
     </g>
    </g>
    <g id="ytick_4">
     <g id="text_10">
      <text style="fill: #262626; font: 8.8px 'Arial', 'DejaVu Sans', 'Liberation Sans', 'Bitstream Vera Sans', sans-serif; text-anchor: end" x="36.24" y="112.751994" transform="rotate(-0 36.24 112.751994)">0.6</text>
     </g>
    </g>
    <g id="ytick_5">
     <g id="text_11">
      <text style="fill: #262626; font: 8.8px 'Arial', 'DejaVu Sans', 'Liberation Sans', 'Bitstream Vera Sans', sans-serif; text-anchor: end" x="36.24" y="93.956358" transform="rotate(-0 36.24 93.956358)">0.8</text>
     </g>
    </g>
    <g id="ytick_6">
     <g id="text_12">
      <text style="fill: #262626; font: 8.8px 'Arial', 'DejaVu Sans', 'Liberation Sans', 'Bitstream Vera Sans', sans-serif; text-anchor: end" x="36.24" y="75.160722" transform="rotate(-0 36.24 75.160722)">1.0</text>
     </g>
    </g>
    <g id="ytick_7">
     <g id="text_13">
      <text style="fill: #262626; font: 8.8px 'Arial', 'DejaVu Sans', 'Liberation Sans', 'Bitstream Vera Sans', sans-serif; text-anchor: end" x="36.24" y="56.365085" transform="rotate(-0 36.24 56.365085)">1.2</text>
     </g>
    </g>
    <g id="ytick_8">
     <g id="text_14">
      <text style="fill: #262626; font: 8.8px 'Arial', 'DejaVu Sans', 'Liberation Sans', 'Bitstream Vera Sans', sans-serif; text-anchor: end" x="36.24" y="37.569449" transform="rotate(-0 36.24 37.569449)">1.4</text>
     </g>
    </g>
    <g id="ytick_9">
     <g id="text_15">
      <text style="fill: #262626; font: 8.8px 'Arial', 'DejaVu Sans', 'Liberation Sans', 'Bitstream Vera Sans', sans-serif; text-anchor: end" x="36.24" y="18.773812" transform="rotate(-0 36.24 18.773812)">1.6</text>
     </g>
    </g>
    <g id="text_16">
     <!-- $\mathregular{10^8}$ cell/ml -->
     <g style="fill: #262626" transform="translate(17.1 116.542875) rotate(-90)">
      <text>
       <tspan style="font: 9.6px 'Arial'" x="0 5.335587 15.051249 17.7167 22.513575 27.849161 29.980585 32.112009 34.77746 42.769129" y="-0.4859624999999994">10 cell/ml</tspan>
       <tspan style="font: 6.72px 'Arial'" x="10.838438" y="-7.1765625">8</tspan>
      </text>
     </g>
    </g>
    <g id="text_17">
     <text style="fill: #262626; font: 8.8px 'Arial', 'DejaVu Sans', 'Liberation Sans', 'Bitstream Vera Sans', sans-serif; text-anchor: start" x="45.04" y="13.498875" transform="rotate(-0 45.04 13.498875)">1e8</text>
    </g>
   </g>
   <g id="PathCollection_1">
    <path d="M 69.461206 160.597926 
L 72.199819 155.1207 
L 66.722593 155.1207 
z
" clip-path="url(#p0e489146e5)" style="fill: #88ccee; fill-opacity: 0.8; stroke: #ffffff; stroke-opacity: 0.8; stroke-width: 0.5"/>
    <path d="M 70.111354 160.597926 
L 72.849967 155.1207 
L 67.372741 155.1207 
z
" clip-path="url(#p0e489146e5)" style="fill: #88ccee; fill-opacity: 0.8; stroke: #ffffff; stroke-opacity: 0.8; stroke-width: 0.5"/>
    <path d="M 69.542474 160.597926 
L 72.281087 155.1207 
L 66.803861 155.1207 
z
" clip-path="url(#p0e489146e5)" style="fill: #88ccee; fill-opacity: 0.8; stroke: #ffffff; stroke-opacity: 0.8; stroke-width: 0.5"/>
    <path d="M 65.438411 164.961471 
L 68.177024 159.484245 
L 62.699799 159.484245 
z
" clip-path="url(#p0e489146e5)" style="fill: #88ccee; fill-opacity: 0.8; stroke: #ffffff; stroke-opacity: 0.8; stroke-width: 0.5"/>
    <path d="M 65.479046 164.961471 
L 68.217659 159.484245 
L 62.740433 159.484245 
z
" clip-path="url(#p0e489146e5)" style="fill: #88ccee; fill-opacity: 0.8; stroke: #ffffff; stroke-opacity: 0.8; stroke-width: 0.5"/>
    <path d="M 68.039006 164.961471 
L 70.777619 159.484245 
L 65.300393 159.484245 
z
" clip-path="url(#p0e489146e5)" style="fill: #88ccee; fill-opacity: 0.8; stroke: #ffffff; stroke-opacity: 0.8; stroke-width: 0.5"/>
    <path d="M 65.926023 165.452634 
L 68.664636 159.975408 
L 63.18741 159.975408 
z
" clip-path="url(#p0e489146e5)" style="fill: #88ccee; fill-opacity: 0.8; stroke: #ffffff; stroke-opacity: 0.8; stroke-width: 0.5"/>
    <path d="M 64.341286 165.452634 
L 67.079899 159.975408 
L 61.602673 159.975408 
z
" clip-path="url(#p0e489146e5)" style="fill: #88ccee; fill-opacity: 0.8; stroke: #ffffff; stroke-opacity: 0.8; stroke-width: 0.5"/>
    <path d="M 66.616806 165.452634 
L 69.355419 159.975408 
L 63.878193 159.975408 
z
" clip-path="url(#p0e489146e5)" style="fill: #88ccee; fill-opacity: 0.8; stroke: #ffffff; stroke-opacity: 0.8; stroke-width: 0.5"/>
    <path d="M 112.045937 129.753248 
C 112.772226 129.753248 113.468865 129.46469 113.982429 128.951127 
C 114.495992 128.437563 114.78455 127.740923 114.78455 127.014635 
C 114.78455 126.288346 114.495992 125.591707 113.982429 125.078143 
C 113.468865 124.56458 112.772226 124.276022 112.045937 124.276022 
C 111.319649 124.276022 110.623009 124.56458 110.109445 125.078143 
C 109.595882 125.591707 109.307324 126.288346 109.307324 127.014635 
C 109.307324 127.740923 109.595882 128.437563 110.109445 128.951127 
C 110.623009 129.46469 111.319649 129.753248 112.045937 129.753248 
z
" clip-path="url(#p0e489146e5)" style="fill: #882255; fill-opacity: 0.8; stroke: #ffffff; stroke-opacity: 0.8; stroke-width: 0.5"/>
    <path d="M 111.31452 129.753248 
C 112.040809 129.753248 112.737448 129.46469 113.251012 128.951127 
C 113.764575 128.437563 114.053133 127.740923 114.053133 127.014635 
C 114.053133 126.288346 113.764575 125.591707 113.251012 125.078143 
C 112.737448 124.56458 112.040809 124.276022 111.31452 124.276022 
C 110.588231 124.276022 109.891592 124.56458 109.378028 125.078143 
C 108.864465 125.591707 108.575907 126.288346 108.575907 127.014635 
C 108.575907 127.740923 108.864465 128.437563 109.378028 128.951127 
C 109.891592 129.46469 110.588231 129.753248 111.31452 129.753248 
z
" clip-path="url(#p0e489146e5)" style="fill: #882255; fill-opacity: 0.8; stroke: #ffffff; stroke-opacity: 0.8; stroke-width: 0.5"/>
    <path d="M 110.17676 129.753248 
C 110.903049 129.753248 111.599688 129.46469 112.113252 128.951127 
C 112.626815 128.437563 112.915373 127.740923 112.915373 127.014635 
C 112.915373 126.288346 112.626815 125.591707 112.113252 125.078143 
C 111.599688 124.56458 110.903049 124.276022 110.17676 124.276022 
C 109.450471 124.276022 108.753832 124.56458 108.240268 125.078143 
C 107.726705 125.591707 107.438147 126.288346 107.438147 127.014635 
C 107.438147 127.740923 107.726705 128.437563 108.240268 128.951127 
C 108.753832 129.46469 109.450471 129.753248 110.17676 129.753248 
z
" clip-path="url(#p0e489146e5)" style="fill: #882255; fill-opacity: 0.8; stroke: #ffffff; stroke-opacity: 0.8; stroke-width: 0.5"/>
    <path d="M 160.441371 104.46628 
C 161.16766 104.46628 161.8643 104.177723 162.377863 103.664159 
C 162.891427 103.150596 163.179984 102.453956 163.179984 101.727668 
C 163.179984 101.001379 162.891427 100.304739 162.377863 99.791176 
C 161.8643 99.277612 161.16766 98.989055 160.441371 98.989055 
C 159.715083 98.989055 159.018443 99.277612 158.50488 99.791176 
C 157.991316 100.304739 157.702759 101.001379 157.702759 101.727668 
C 157.702759 102.453956 157.991316 103.150596 158.50488 103.664159 
C 159.018443 104.177723 159.715083 104.46628 160.441371 104.46628 
z
" clip-path="url(#p0e489146e5)" style="fill: #882255; fill-opacity: 0.8; stroke: #ffffff; stroke-opacity: 0.8; stroke-width: 0.5"/>
    <path d="M 162.026109 104.46628 
C 162.752397 104.46628 163.449037 104.177723 163.9626 103.664159 
C 164.476164 103.150596 164.764721 102.453956 164.764721 101.727668 
C 164.764721 101.001379 164.476164 100.304739 163.9626 99.791176 
C 163.449037 99.277612 162.752397 98.989055 162.026109 98.989055 
C 161.29982 98.989055 160.60318 99.277612 160.089617 99.791176 
C 159.576053 100.304739 159.287496 101.001379 159.287496 101.727668 
C 159.287496 102.453956 159.576053 103.150596 160.089617 103.664159 
C 160.60318 104.177723 161.29982 104.46628 162.026109 104.46628 
z
" clip-path="url(#p0e489146e5)" style="fill: #882255; fill-opacity: 0.8; stroke: #ffffff; stroke-opacity: 0.8; stroke-width: 0.5"/>
    <path d="M 161.37596 104.46628 
C 162.102249 104.46628 162.798888 104.177723 163.312452 103.664159 
C 163.826015 103.150596 164.114573 102.453956 164.114573 101.727668 
C 164.114573 101.001379 163.826015 100.304739 163.312452 99.791176 
C 162.798888 99.277612 162.102249 98.989055 161.37596 98.989055 
C 160.649671 98.989055 159.953032 99.277612 159.439468 99.791176 
C 158.925905 100.304739 158.637347 101.001379 158.637347 101.727668 
C 158.637347 102.453956 158.925905 103.150596 159.439468 103.664159 
C 159.953032 104.177723 160.649671 104.46628 161.37596 104.46628 
z
" clip-path="url(#p0e489146e5)" style="fill: #882255; fill-opacity: 0.8; stroke: #ffffff; stroke-opacity: 0.8; stroke-width: 0.5"/>
    <path d="M 112.16784 142.332769 
C 112.894129 142.332769 113.590768 142.044211 114.104332 141.530647 
C 114.617895 141.017084 114.906453 140.320444 114.906453 139.594156 
C 114.906453 138.867867 114.617895 138.171228 114.104332 137.657664 
C 113.590768 137.144101 112.894129 136.855543 112.16784 136.855543 
C 111.441551 136.855543 110.744912 137.144101 110.231348 137.657664 
C 109.717785 138.171228 109.429227 138.867867 109.429227 139.594156 
C 109.429227 140.320444 109.717785 141.017084 110.231348 141.530647 
C 110.744912 142.044211 111.441551 142.332769 112.16784 142.332769 
z
" clip-path="url(#p0e489146e5)" style="fill: #882255; fill-opacity: 0.8; stroke: #ffffff; stroke-opacity: 0.8; stroke-width: 0.5"/>
    <path d="M 114.646531 142.332769 
C 115.37282 142.332769 116.06946 142.044211 116.583023 141.530647 
C 117.096587 141.017084 117.385144 140.320444 117.385144 139.594156 
C 117.385144 138.867867 117.096587 138.171228 116.583023 137.657664 
C 116.06946 137.144101 115.37282 136.855543 114.646531 136.855543 
C 113.920243 136.855543 113.223603 137.144101 112.71004 137.657664 
C 112.196476 138.171228 111.907919 138.867867 111.907919 139.594156 
C 111.907919 140.320444 112.196476 141.017084 112.71004 141.530647 
C 113.223603 142.044211 113.920243 142.332769 114.646531 142.332769 
z
" clip-path="url(#p0e489146e5)" style="fill: #882255; fill-opacity: 0.8; stroke: #ffffff; stroke-opacity: 0.8; stroke-width: 0.5"/>
    <path d="M 112.696086 142.332769 
C 113.422374 142.332769 114.119014 142.044211 114.632577 141.530647 
C 115.146141 141.017084 115.434699 140.320444 115.434699 139.594156 
C 115.434699 138.867867 115.146141 138.171228 114.632577 137.657664 
C 114.119014 137.144101 113.422374 136.855543 112.696086 136.855543 
C 111.969797 136.855543 111.273158 137.144101 110.759594 137.657664 
C 110.24603 138.171228 109.957473 138.867867 109.957473 139.594156 
C 109.957473 140.320444 110.24603 141.017084 110.759594 141.530647 
C 111.273158 142.044211 111.969797 142.332769 112.696086 142.332769 
z
" clip-path="url(#p0e489146e5)" style="fill: #882255; fill-opacity: 0.8; stroke: #ffffff; stroke-opacity: 0.8; stroke-width: 0.5"/>
    <path d="M 81.460579 156.718502 
L 82.829886 155.349195 
L 84.199192 156.718502 
L 85.568499 155.349195 
L 84.199192 153.979889 
L 85.568499 152.610582 
L 84.199192 151.241276 
L 82.829886 152.610582 
L 81.460579 151.241276 
L 80.091273 152.610582 
L 81.460579 153.979889 
L 80.091273 155.349195 
z
" clip-path="url(#p0e489146e5)" style="fill: #882255; fill-opacity: 0.8; stroke: #ffffff; stroke-opacity: 0.8; stroke-width: 0.5"/>
    <path d="M 81.094871 156.718502 
L 82.464177 155.349195 
L 83.833484 156.718502 
L 85.20279 155.349195 
L 83.833484 153.979889 
L 85.20279 152.610582 
L 83.833484 151.241276 
L 82.464177 152.610582 
L 81.094871 151.241276 
L 79.725564 152.610582 
L 81.094871 153.979889 
L 79.725564 155.349195 
z
" clip-path="url(#p0e489146e5)" style="fill: #882255; fill-opacity: 0.8; stroke: #ffffff; stroke-opacity: 0.8; stroke-width: 0.5"/>
    <path d="M 82.273265 156.718502 
L 83.642571 155.349195 
L 85.011878 156.718502 
L 86.381184 155.349195 
L 85.011878 153.979889 
L 86.381184 152.610582 
L 85.011878 151.241276 
L 83.642571 152.610582 
L 82.273265 151.241276 
L 80.903959 152.610582 
L 82.273265 153.979889 
L 80.903959 155.349195 
z
" clip-path="url(#p0e489146e5)" style="fill: #882255; fill-opacity: 0.8; stroke: #ffffff; stroke-opacity: 0.8; stroke-width: 0.5"/>
    <path d="M 194.017551 118.771033 
L 195.386857 117.401727 
L 196.756164 118.771033 
L 198.12547 117.401727 
L 196.756164 116.03242 
L 198.12547 114.663114 
L 196.756164 113.293807 
L 195.386857 114.663114 
L 194.017551 113.293807 
L 192.648244 114.663114 
L 194.017551 116.03242 
L 192.648244 117.401727 
z
" clip-path="url(#p0e489146e5)" style="fill: #882255; fill-opacity: 0.8; stroke: #ffffff; stroke-opacity: 0.8; stroke-width: 0.5"/>
    <path d="M 194.423894 118.771033 
L 195.7932 117.401727 
L 197.162506 118.771033 
L 198.531813 117.401727 
L 197.162506 116.03242 
L 198.531813 114.663114 
L 197.162506 113.293807 
L 195.7932 114.663114 
L 194.423894 113.293807 
L 193.054587 114.663114 
L 194.423894 116.03242 
L 193.054587 117.401727 
z
" clip-path="url(#p0e489146e5)" style="fill: #882255; fill-opacity: 0.8; stroke: #ffffff; stroke-opacity: 0.8; stroke-width: 0.5"/>
    <path d="M 188.938265 118.771033 
L 190.307571 117.401727 
L 191.676878 118.771033 
L 193.046184 117.401727 
L 191.676878 116.03242 
L 193.046184 114.663114 
L 191.676878 113.293807 
L 190.307571 114.663114 
L 188.938265 113.293807 
L 187.568959 114.663114 
L 188.938265 116.03242 
L 187.568959 117.401727 
z
" clip-path="url(#p0e489146e5)" style="fill: #882255; fill-opacity: 0.8; stroke: #ffffff; stroke-opacity: 0.8; stroke-width: 0.5"/>
    <path d="M 150.701402 30.700889 
L 152.070709 29.331583 
L 153.440015 30.700889 
L 154.809321 29.331583 
L 153.440015 27.962277 
L 154.809321 26.59297 
L 153.440015 25.223664 
L 152.070709 26.59297 
L 150.701402 25.223664 
L 149.332096 26.59297 
L 150.701402 27.962277 
L 149.332096 29.331583 
z
" clip-path="url(#p0e489146e5)" style="fill: #882255; fill-opacity: 0.8; stroke: #ffffff; stroke-opacity: 0.8; stroke-width: 0.5"/>
    <path d="M 156.268299 30.700889 
L 157.637606 29.331583 
L 159.006912 30.700889 
L 160.376219 29.331583 
L 159.006912 27.962277 
L 160.376219 26.59297 
L 159.006912 25.223664 
L 157.637606 26.59297 
L 156.268299 25.223664 
L 154.898993 26.59297 
L 156.268299 27.962277 
L 154.898993 29.331583 
z
" clip-path="url(#p0e489146e5)" style="fill: #882255; fill-opacity: 0.8; stroke: #ffffff; stroke-opacity: 0.8; stroke-width: 0.5"/>
    <path d="M 159.681579 30.700889 
L 161.050886 29.331583 
L 162.420192 30.700889 
L 163.789499 29.331583 
L 162.420192 27.962277 
L 163.789499 26.59297 
L 162.420192 25.223664 
L 161.050886 26.59297 
L 159.681579 25.223664 
L 158.312273 26.59297 
L 159.681579 27.962277 
L 158.312273 29.331583 
z
" clip-path="url(#p0e489146e5)" style="fill: #882255; fill-opacity: 0.8; stroke: #ffffff; stroke-opacity: 0.8; stroke-width: 0.5"/>
    <path d="M 58.430398 166.986564 
L 60.25614 166.986564 
L 60.25614 165.160822 
L 62.081881 165.160822 
L 62.081881 163.33508 
L 60.25614 163.33508 
L 60.25614 161.509339 
L 58.430398 161.509339 
L 58.430398 163.33508 
L 56.604656 163.33508 
L 56.604656 165.160822 
L 58.430398 165.160822 
z
" clip-path="url(#p0e489146e5)" style="fill: #cc6677; fill-opacity: 0.8; stroke: #ffffff; stroke-opacity: 0.8; stroke-width: 0.5"/>
    <path d="M 58.5523 166.986564 
L 60.378042 166.986564 
L 60.378042 165.160822 
L 62.203784 165.160822 
L 62.203784 163.33508 
L 60.378042 163.33508 
L 60.378042 161.509339 
L 58.5523 161.509339 
L 58.5523 163.33508 
L 56.726559 163.33508 
L 56.726559 165.160822 
L 58.5523 165.160822 
z
" clip-path="url(#p0e489146e5)" style="fill: #cc6677; fill-opacity: 0.8; stroke: #ffffff; stroke-opacity: 0.8; stroke-width: 0.5"/>
    <path d="M 58.5523 166.986564 
L 60.378042 166.986564 
L 60.378042 165.160822 
L 62.203784 165.160822 
L 62.203784 163.33508 
L 60.378042 163.33508 
L 60.378042 161.509339 
L 58.5523 161.509339 
L 58.5523 163.33508 
L 56.726559 163.33508 
L 56.726559 165.160822 
L 58.5523 165.160822 
z
" clip-path="url(#p0e489146e5)" style="fill: #cc6677; fill-opacity: 0.8; stroke: #ffffff; stroke-opacity: 0.8; stroke-width: 0.5"/>
    <path d="M 60.380843 166.800544 
L 62.206585 166.800544 
L 62.206585 164.974802 
L 64.032327 164.974802 
L 64.032327 163.149061 
L 62.206585 163.149061 
L 62.206585 161.323319 
L 60.380843 161.323319 
L 60.380843 163.149061 
L 58.555101 163.149061 
L 58.555101 164.974802 
L 60.380843 164.974802 
z
" clip-path="url(#p0e489146e5)" style="fill: #cc6677; fill-opacity: 0.8; stroke: #ffffff; stroke-opacity: 0.8; stroke-width: 0.5"/>
    <path d="M 58.796106 166.800544 
L 60.621848 166.800544 
L 60.621848 164.974802 
L 62.44759 164.974802 
L 62.44759 163.149061 
L 60.621848 163.149061 
L 60.621848 161.323319 
L 58.796106 161.323319 
L 58.796106 163.149061 
L 56.970364 163.149061 
L 56.970364 164.974802 
L 58.796106 164.974802 
z
" clip-path="url(#p0e489146e5)" style="fill: #cc6677; fill-opacity: 0.8; stroke: #ffffff; stroke-opacity: 0.8; stroke-width: 0.5"/>
    <path d="M 58.958643 166.800544 
L 60.784385 166.800544 
L 60.784385 164.974802 
L 62.610127 164.974802 
L 62.610127 163.149061 
L 60.784385 163.149061 
L 60.784385 161.323319 
L 58.958643 161.323319 
L 58.958643 163.149061 
L 57.132901 163.149061 
L 57.132901 164.974802 
L 58.958643 164.974802 
z
" clip-path="url(#p0e489146e5)" style="fill: #cc6677; fill-opacity: 0.8; stroke: #ffffff; stroke-opacity: 0.8; stroke-width: 0.5"/>
    <path d="M 60.624649 166.603962 
L 62.450391 166.603962 
L 62.450391 164.77822 
L 64.276133 164.77822 
L 64.276133 162.952478 
L 62.450391 162.952478 
L 62.450391 161.126736 
L 60.624649 161.126736 
L 60.624649 162.952478 
L 58.798907 162.952478 
L 58.798907 164.77822 
L 60.624649 164.77822 
z
" clip-path="url(#p0e489146e5)" style="fill: #cc6677; fill-opacity: 0.8; stroke: #ffffff; stroke-opacity: 0.8; stroke-width: 0.5"/>
    <path d="M 61.030992 166.603962 
L 62.856734 166.603962 
L 62.856734 164.77822 
L 64.682476 164.77822 
L 64.682476 162.952478 
L 62.856734 162.952478 
L 62.856734 161.126736 
L 61.030992 161.126736 
L 61.030992 162.952478 
L 59.20525 162.952478 
L 59.20525 164.77822 
L 61.030992 164.77822 
z
" clip-path="url(#p0e489146e5)" style="fill: #cc6677; fill-opacity: 0.8; stroke: #ffffff; stroke-opacity: 0.8; stroke-width: 0.5"/>
    <path d="M 60.055769 166.603962 
L 61.881511 166.603962 
L 61.881511 164.77822 
L 63.707253 164.77822 
L 63.707253 162.952478 
L 61.881511 162.952478 
L 61.881511 161.126736 
L 60.055769 161.126736 
L 60.055769 162.952478 
L 58.230027 162.952478 
L 58.230027 164.77822 
L 60.055769 164.77822 
z
" clip-path="url(#p0e489146e5)" style="fill: #cc6677; fill-opacity: 0.8; stroke: #ffffff; stroke-opacity: 0.8; stroke-width: 0.5"/>
    <path d="M 64.599045 161.857266 
L 64.599045 165.730249 
L 68.472029 165.730249 
L 68.472029 161.857266 
z
" clip-path="url(#p0e489146e5)" style="fill: #cc6677; fill-opacity: 0.8; stroke: #ffffff; stroke-opacity: 0.8; stroke-width: 0.5"/>
    <path d="M 65.736805 161.857266 
L 65.736805 165.730249 
L 69.609789 165.730249 
L 69.609789 161.857266 
z
" clip-path="url(#p0e489146e5)" style="fill: #cc6677; fill-opacity: 0.8; stroke: #ffffff; stroke-opacity: 0.8; stroke-width: 0.5"/>
    <path d="M 65.939977 161.857266 
L 65.939977 165.730249 
L 69.81296 165.730249 
L 69.81296 161.857266 
z
" clip-path="url(#p0e489146e5)" style="fill: #cc6677; fill-opacity: 0.8; stroke: #ffffff; stroke-opacity: 0.8; stroke-width: 0.5"/>
    <path d="M 61.714011 163.492128 
L 61.714011 167.365112 
L 65.586995 167.365112 
L 65.586995 163.492128 
z
" clip-path="url(#p0e489146e5)" style="fill: #cc6677; fill-opacity: 0.8; stroke: #ffffff; stroke-opacity: 0.8; stroke-width: 0.5"/>
    <path d="M 60.048005 163.492128 
L 60.048005 167.365112 
L 63.920989 167.365112 
L 63.920989 163.492128 
z
" clip-path="url(#p0e489146e5)" style="fill: #cc6677; fill-opacity: 0.8; stroke: #ffffff; stroke-opacity: 0.8; stroke-width: 0.5"/>
    <path d="M 61.592108 163.492128 
L 61.592108 167.365112 
L 65.465092 167.365112 
L 65.465092 163.492128 
z
" clip-path="url(#p0e489146e5)" style="fill: #cc6677; fill-opacity: 0.8; stroke: #ffffff; stroke-opacity: 0.8; stroke-width: 0.5"/>
    <path d="M 62.120354 161.514567 
L 62.120354 165.38755 
L 65.993337 165.38755 
L 65.993337 161.514567 
z
" clip-path="url(#p0e489146e5)" style="fill: #cc6677; fill-opacity: 0.8; stroke: #ffffff; stroke-opacity: 0.8; stroke-width: 0.5"/>
    <path d="M 60.413714 161.514567 
L 60.413714 165.38755 
L 64.286697 165.38755 
L 64.286697 161.514567 
z
" clip-path="url(#p0e489146e5)" style="fill: #cc6677; fill-opacity: 0.8; stroke: #ffffff; stroke-opacity: 0.8; stroke-width: 0.5"/>
    <path d="M 61.2264 161.514567 
L 61.2264 165.38755 
L 65.099383 165.38755 
L 65.099383 161.514567 
z
" clip-path="url(#p0e489146e5)" style="fill: #cc6677; fill-opacity: 0.8; stroke: #ffffff; stroke-opacity: 0.8; stroke-width: 0.5"/>
    <path d="M 55.645549 163.813755 
L 52.906936 166.552368 
L 55.645549 169.290981 
L 58.384161 166.552368 
z
" clip-path="url(#p0e489146e5)" style="fill: #44aa99; fill-opacity: 0.8; stroke: #ffffff; stroke-opacity: 0.8; stroke-width: 0.5"/>
    <path d="M 57.392823 163.813755 
L 54.65421 166.552368 
L 57.392823 169.290981 
L 60.131436 166.552368 
z
" clip-path="url(#p0e489146e5)" style="fill: #44aa99; fill-opacity: 0.8; stroke: #ffffff; stroke-opacity: 0.8; stroke-width: 0.5"/>
    <path d="M 54.914131 163.813755 
L 52.175519 166.552368 
L 54.914131 169.290981 
L 57.652744 166.552368 
z
" clip-path="url(#p0e489146e5)" style="fill: #44aa99; fill-opacity: 0.8; stroke: #ffffff; stroke-opacity: 0.8; stroke-width: 0.5"/>
    <path d="M 55.523646 163.790283 
L 52.785033 166.528895 
L 55.523646 169.267508 
L 58.262259 166.528895 
z
" clip-path="url(#p0e489146e5)" style="fill: #44aa99; fill-opacity: 0.8; stroke: #ffffff; stroke-opacity: 0.8; stroke-width: 0.5"/>
    <path d="M 55.84872 163.790283 
L 53.110107 166.528895 
L 55.84872 169.267508 
L 58.587333 166.528895 
z
" clip-path="url(#p0e489146e5)" style="fill: #44aa99; fill-opacity: 0.8; stroke: #ffffff; stroke-opacity: 0.8; stroke-width: 0.5"/>
    <path d="M 57.27092 163.790283 
L 54.532307 166.528895 
L 57.27092 169.267508 
L 60.009533 166.528895 
z
" clip-path="url(#p0e489146e5)" style="fill: #44aa99; fill-opacity: 0.8; stroke: #ffffff; stroke-opacity: 0.8; stroke-width: 0.5"/>
    <path d="M 62.025131 161.984657 
L 59.286519 164.72327 
L 62.025131 167.461883 
L 64.763744 164.72327 
z
" clip-path="url(#p0e489146e5)" style="fill: #44aa99; fill-opacity: 0.8; stroke: #ffffff; stroke-opacity: 0.8; stroke-width: 0.5"/>
    <path d="M 60.440394 161.984657 
L 57.701781 164.72327 
L 60.440394 167.461883 
L 63.179007 164.72327 
z
" clip-path="url(#p0e489146e5)" style="fill: #44aa99; fill-opacity: 0.8; stroke: #ffffff; stroke-opacity: 0.8; stroke-width: 0.5"/>
    <path d="M 60.277857 161.984657 
L 57.539244 164.72327 
L 60.277857 167.461883 
L 63.01647 164.72327 
z
" clip-path="url(#p0e489146e5)" style="fill: #44aa99; fill-opacity: 0.8; stroke: #ffffff; stroke-opacity: 0.8; stroke-width: 0.5"/>
    <path d="M 57.961703 162.278651 
L 56.993457 164.049018 
L 55.22309 165.017264 
L 56.993457 165.98551 
L 57.961703 167.755877 
L 58.929949 165.98551 
L 60.700316 165.017264 
L 58.929949 164.049018 
z
" clip-path="url(#p0e489146e5)" style="fill: #44aa99; fill-opacity: 0.8; stroke: #ffffff; stroke-opacity: 0.8; stroke-width: 0.5"/>
    <path d="M 57.474091 162.278651 
L 56.505846 164.049018 
L 54.735479 165.017264 
L 56.505846 165.98551 
L 57.474091 167.755877 
L 58.442337 165.98551 
L 60.212704 165.017264 
L 58.442337 164.049018 
z
" clip-path="url(#p0e489146e5)" style="fill: #44aa99; fill-opacity: 0.8; stroke: #ffffff; stroke-opacity: 0.8; stroke-width: 0.5"/>
    <path d="M 57.595994 162.278651 
L 56.627748 164.049018 
L 54.857381 165.017264 
L 56.627748 165.98551 
L 57.595994 167.755877 
L 58.56424 165.98551 
L 60.334607 165.017264 
L 58.56424 164.049018 
z
" clip-path="url(#p0e489146e5)" style="fill: #44aa99; fill-opacity: 0.8; stroke: #ffffff; stroke-opacity: 0.8; stroke-width: 0.5"/>
    <path d="M 58.002337 163.278581 
L 57.034091 165.048948 
L 55.263724 166.017194 
L 57.034091 166.98544 
L 58.002337 168.755807 
L 58.970583 166.98544 
L 60.74095 166.017194 
L 58.970583 165.048948 
z
" clip-path="url(#p0e489146e5)" style="fill: #44aa99; fill-opacity: 0.8; stroke: #ffffff; stroke-opacity: 0.8; stroke-width: 0.5"/>
    <path d="M 57.230286 163.278581 
L 56.26204 165.048948 
L 54.491673 166.017194 
L 56.26204 166.98544 
L 57.230286 168.755807 
L 58.198532 166.98544 
L 59.968899 166.017194 
L 58.198532 165.048948 
z
" clip-path="url(#p0e489146e5)" style="fill: #44aa99; fill-opacity: 0.8; stroke: #ffffff; stroke-opacity: 0.8; stroke-width: 0.5"/>
    <path d="M 57.636629 163.278581 
L 56.668383 165.048948 
L 54.898016 166.017194 
L 56.668383 166.98544 
L 57.636629 168.755807 
L 58.604874 166.98544 
L 60.375241 166.017194 
L 58.604874 165.048948 
z
" clip-path="url(#p0e489146e5)" style="fill: #44aa99; fill-opacity: 0.8; stroke: #ffffff; stroke-opacity: 0.8; stroke-width: 0.5"/>
    <path d="M 54.71096 164.04496 
L 53.742714 165.815327 
L 51.972347 166.783572 
L 53.742714 167.751818 
L 54.71096 169.522185 
L 55.679206 167.751818 
L 57.449573 166.783572 
L 55.679206 165.815327 
z
" clip-path="url(#p0e489146e5)" style="fill: #44aa99; fill-opacity: 0.8; stroke: #ffffff; stroke-opacity: 0.8; stroke-width: 0.5"/>
    <path d="M 55.117303 164.04496 
L 54.149057 165.815327 
L 52.37869 166.783572 
L 54.149057 167.751818 
L 55.117303 169.522185 
L 56.085549 167.751818 
L 57.855916 166.783572 
L 56.085549 165.815327 
z
" clip-path="url(#p0e489146e5)" style="fill: #44aa99; fill-opacity: 0.8; stroke: #ffffff; stroke-opacity: 0.8; stroke-width: 0.5"/>
    <path d="M 55.686183 164.04496 
L 54.717937 165.815327 
L 52.94757 166.783572 
L 54.717937 167.751818 
L 55.686183 169.522185 
L 56.654429 167.751818 
L 58.424796 166.783572 
L 56.654429 165.815327 
z
" clip-path="url(#p0e489146e5)" style="fill: #44aa99; fill-opacity: 0.8; stroke: #ffffff; stroke-opacity: 0.8; stroke-width: 0.5"/>
    <path d="M 55.117303 169.385083 
L 57.855916 163.907857 
L 52.37869 163.907857 
z
" clip-path="url(#p0e489146e5)" style="fill: #88ccee; fill-opacity: 0.8; stroke: #ffffff; stroke-opacity: 0.8; stroke-width: 0.5"/>
    <path d="M 96.970617 155.239746 
C 97.696906 155.239746 98.393545 154.951189 98.907109 154.437625 
C 99.420672 153.924061 99.70923 153.227422 99.70923 152.501133 
C 99.70923 151.774845 99.420672 151.078205 98.907109 150.564642 
C 98.393545 150.051078 97.696906 149.762521 96.970617 149.762521 
C 96.244329 149.762521 95.547689 150.051078 95.034125 150.564642 
C 94.520562 151.078205 94.232004 151.774845 94.232004 152.501133 
C 94.232004 153.227422 94.520562 153.924061 95.034125 154.437625 
C 95.547689 154.951189 96.244329 155.239746 96.970617 155.239746 
z
" clip-path="url(#p0e489146e5)" style="fill: #882255; fill-opacity: 0.8; stroke: #ffffff; stroke-opacity: 0.8; stroke-width: 0.5"/>
    <path d="M 116.71888 147.640476 
C 117.445169 147.640476 118.141808 147.351918 118.655372 146.838355 
C 119.168935 146.324791 119.457493 145.628152 119.457493 144.901863 
C 119.457493 144.175574 119.168935 143.478935 118.655372 142.965371 
C 118.141808 142.451808 117.445169 142.16325 116.71888 142.16325 
C 115.992591 142.16325 115.295952 142.451808 114.782388 142.965371 
C 114.268825 143.478935 113.980267 144.175574 113.980267 144.901863 
C 113.980267 145.628152 114.268825 146.324791 114.782388 146.838355 
C 115.295952 147.351918 115.992591 147.640476 116.71888 147.640476 
z
" clip-path="url(#p0e489146e5)" style="fill: #882255; fill-opacity: 0.8; stroke: #ffffff; stroke-opacity: 0.8; stroke-width: 0.5"/>
    <path d="M 90.591034 161.813233 
C 91.317323 161.813233 92.013962 161.524676 92.527526 161.011112 
C 93.04109 160.497549 93.329647 159.800909 93.329647 159.07462 
C 93.329647 158.348332 93.04109 157.651692 92.527526 157.138129 
C 92.013962 156.624565 91.317323 156.336008 90.591034 156.336008 
C 89.864746 156.336008 89.168106 156.624565 88.654543 157.138129 
C 88.140979 157.651692 87.852421 158.348332 87.852421 159.07462 
C 87.852421 159.800909 88.140979 160.497549 88.654543 161.011112 
C 89.168106 161.524676 89.864746 161.813233 90.591034 161.813233 
z
" clip-path="url(#p0e489146e5)" style="fill: #882255; fill-opacity: 0.8; stroke: #ffffff; stroke-opacity: 0.8; stroke-width: 0.5"/>
    <path d="M 77.153345 164.005019 
L 78.522651 162.635712 
L 79.891958 164.005019 
L 81.261264 162.635712 
L 79.891958 161.266406 
L 81.261264 159.8971 
L 79.891958 158.527793 
L 78.522651 159.8971 
L 77.153345 158.527793 
L 75.784039 159.8971 
L 77.153345 161.266406 
L 75.784039 162.635712 
z
" clip-path="url(#p0e489146e5)" style="fill: #882255; fill-opacity: 0.8; stroke: #ffffff; stroke-opacity: 0.8; stroke-width: 0.5"/>
    <path d="M 110.920436 138.009582 
L 112.289743 136.640275 
L 113.659049 138.009582 
L 115.028356 136.640275 
L 113.659049 135.270969 
L 115.028356 133.901663 
L 113.659049 132.532356 
L 112.289743 133.901663 
L 110.920436 132.532356 
L 109.55113 133.901663 
L 110.920436 135.270969 
L 109.55113 136.640275 
z
" clip-path="url(#p0e489146e5)" style="fill: #882255; fill-opacity: 0.8; stroke: #ffffff; stroke-opacity: 0.8; stroke-width: 0.5"/>
    <path d="M 88.205871 161.457387 
L 89.575177 160.088081 
L 90.944484 161.457387 
L 92.31379 160.088081 
L 90.944484 158.718775 
L 92.31379 157.349468 
L 90.944484 155.980162 
L 89.575177 157.349468 
L 88.205871 155.980162 
L 86.836564 157.349468 
L 88.205871 158.718775 
L 86.836564 160.088081 
z
" clip-path="url(#p0e489146e5)" style="fill: #882255; fill-opacity: 0.8; stroke: #ffffff; stroke-opacity: 0.8; stroke-width: 0.5"/>
    <path d="M 60.096403 167.567839 
L 61.922145 167.567839 
L 61.922145 165.742097 
L 63.747887 165.742097 
L 63.747887 163.916355 
L 61.922145 163.916355 
L 61.922145 162.090613 
L 60.096403 162.090613 
L 60.096403 163.916355 
L 58.270661 163.916355 
L 58.270661 165.742097 
L 60.096403 165.742097 
z
" clip-path="url(#p0e489146e5)" style="fill: #cc6677; fill-opacity: 0.8; stroke: #ffffff; stroke-opacity: 0.8; stroke-width: 0.5"/>
    <path d="M 59.771329 167.478098 
L 61.597071 167.478098 
L 61.597071 165.652357 
L 63.422813 165.652357 
L 63.422813 163.826615 
L 61.597071 163.826615 
L 61.597071 162.000873 
L 59.771329 162.000873 
L 59.771329 163.826615 
L 57.945587 163.826615 
L 57.945587 165.652357 
L 59.771329 165.652357 
z
" clip-path="url(#p0e489146e5)" style="fill: #cc6677; fill-opacity: 0.8; stroke: #ffffff; stroke-opacity: 0.8; stroke-width: 0.5"/>
    <path d="M 59.811963 168.106282 
L 61.637705 168.106282 
L 61.637705 166.28054 
L 63.463447 166.28054 
L 63.463447 164.454798 
L 61.637705 164.454798 
L 61.637705 162.629056 
L 59.811963 162.629056 
L 59.811963 164.454798 
L 57.986221 164.454798 
L 57.986221 166.28054 
L 59.811963 166.28054 
z
" clip-path="url(#p0e489146e5)" style="fill: #cc6677; fill-opacity: 0.8; stroke: #ffffff; stroke-opacity: 0.8; stroke-width: 0.5"/>
    <path d="M 67.727885 157.032185 
L 67.727885 160.905169 
L 71.600869 160.905169 
L 71.600869 157.032185 
z
" clip-path="url(#p0e489146e5)" style="fill: #cc6677; fill-opacity: 0.8; stroke: #ffffff; stroke-opacity: 0.8; stroke-width: 0.5"/>
    <path d="M 60.738788 161.951083 
L 60.738788 165.824066 
L 64.611772 165.824066 
L 64.611772 161.951083 
z
" clip-path="url(#p0e489146e5)" style="fill: #cc6677; fill-opacity: 0.8; stroke: #ffffff; stroke-opacity: 0.8; stroke-width: 0.5"/>
    <path d="M 65.411731 160.401191 
L 65.411731 164.274174 
L 69.284715 164.274174 
L 69.284715 160.401191 
z
" clip-path="url(#p0e489146e5)" style="fill: #cc6677; fill-opacity: 0.8; stroke: #ffffff; stroke-opacity: 0.8; stroke-width: 0.5"/>
    <path d="M 54.914131 164.03312 
L 52.175519 166.771733 
L 54.914131 169.510345 
L 57.652744 166.771733 
z
" clip-path="url(#p0e489146e5)" style="fill: #44aa99; fill-opacity: 0.8; stroke: #ffffff; stroke-opacity: 0.8; stroke-width: 0.5"/>
    <path d="M 56.295697 163.914712 
L 53.557084 166.653325 
L 56.295697 169.391938 
L 59.03431 166.653325 
z
" clip-path="url(#p0e489146e5)" style="fill: #44aa99; fill-opacity: 0.8; stroke: #ffffff; stroke-opacity: 0.8; stroke-width: 0.5"/>
    <path d="M 96.361103 151.388307 
C 97.087391 151.388307 97.784031 151.09975 98.297595 150.586186 
C 98.811158 150.072622 99.099716 149.375983 99.099716 148.649694 
C 99.099716 147.923406 98.811158 147.226766 98.297595 146.713203 
C 97.784031 146.199639 97.087391 145.911081 96.361103 145.911081 
C 95.634814 145.911081 94.938175 146.199639 94.424611 146.713203 
C 93.911048 147.226766 93.62249 147.923406 93.62249 148.649694 
C 93.62249 149.375983 93.911048 150.072622 94.424611 150.586186 
C 94.938175 151.09975 95.634814 151.388307 96.361103 151.388307 
z
" clip-path="url(#p0e489146e5)" style="fill: #882255; fill-opacity: 0.8; stroke: #ffffff; stroke-opacity: 0.8; stroke-width: 0.5"/>
    <path d="M 57.730156 168.388213 
L 59.099463 167.018907 
L 60.468769 168.388213 
L 61.838076 167.018907 
L 60.468769 165.6496 
L 61.838076 164.280294 
L 60.468769 162.910987 
L 59.099463 164.280294 
L 57.730156 162.910987 
L 56.36085 164.280294 
L 57.730156 165.6496 
L 56.36085 167.018907 
z
" clip-path="url(#p0e489146e5)" style="fill: #882255; fill-opacity: 0.8; stroke: #ffffff; stroke-opacity: 0.8; stroke-width: 0.5"/>
    <path d="M 57.902152 168.195032 
L 59.727894 168.195032 
L 59.727894 166.36929 
L 61.553636 166.36929 
L 61.553636 164.543548 
L 59.727894 164.543548 
L 59.727894 162.717807 
L 57.902152 162.717807 
L 57.902152 164.543548 
L 56.07641 164.543548 
L 56.07641 166.36929 
L 57.902152 166.36929 
z
" clip-path="url(#p0e489146e5)" style="fill: #cc6677; fill-opacity: 0.8; stroke: #ffffff; stroke-opacity: 0.8; stroke-width: 0.5"/>
    <path d="M 60.37308 161.964762 
L 60.37308 165.837745 
L 64.246063 165.837745 
L 64.246063 161.964762 
z
" clip-path="url(#p0e489146e5)" style="fill: #cc6677; fill-opacity: 0.8; stroke: #ffffff; stroke-opacity: 0.8; stroke-width: 0.5"/>
    <path d="M 82.0172 156.268855 
C 82.743489 156.268855 83.440128 155.980297 83.953692 155.466734 
C 84.467255 154.95317 84.755813 154.25653 84.755813 153.530242 
C 84.755813 152.803953 84.467255 152.107314 83.953692 151.59375 
C 83.440128 151.080187 82.743489 150.791629 82.0172 150.791629 
C 81.290911 150.791629 80.594272 151.080187 80.080708 151.59375 
C 79.567145 152.107314 79.278587 152.803953 79.278587 153.530242 
C 79.278587 154.25653 79.567145 154.95317 80.080708 155.466734 
C 80.594272 155.980297 81.290911 156.268855 82.0172 156.268855 
z
" clip-path="url(#p0e489146e5)" style="fill: #882255; fill-opacity: 0.8; stroke: #ffffff; stroke-opacity: 0.8; stroke-width: 0.5"/>
    <path d="M 60.940265 169.379024 
L 62.309571 168.009717 
L 63.678878 169.379024 
L 65.048184 168.009717 
L 63.678878 166.640411 
L 65.048184 165.271104 
L 63.678878 163.901798 
L 62.309571 165.271104 
L 60.940265 163.901798 
L 59.570959 165.271104 
L 60.940265 166.640411 
L 59.570959 168.009717 
z
" clip-path="url(#p0e489146e5)" style="fill: #882255; fill-opacity: 0.8; stroke: #ffffff; stroke-opacity: 0.8; stroke-width: 0.5"/>
    <path d="M 57.69898 168.84808 
L 59.524722 168.84808 
L 59.524722 167.022338 
L 61.350464 167.022338 
L 61.350464 165.196597 
L 59.524722 165.196597 
L 59.524722 163.370855 
L 57.69898 163.370855 
L 57.69898 165.196597 
L 55.873239 165.196597 
L 55.873239 167.022338 
L 57.69898 167.022338 
z
" clip-path="url(#p0e489146e5)" style="fill: #cc6677; fill-opacity: 0.8; stroke: #ffffff; stroke-opacity: 0.8; stroke-width: 0.5"/>
    <path d="M 57.284874 163.712501 
L 57.284874 167.585484 
L 61.157857 167.585484 
L 61.157857 163.712501 
z
" clip-path="url(#p0e489146e5)" style="fill: #cc6677; fill-opacity: 0.8; stroke: #ffffff; stroke-opacity: 0.8; stroke-width: 0.5"/>
    <path d="M 86.812046 159.783772 
C 87.538334 159.783772 88.234974 159.495215 88.748537 158.981651 
C 89.262101 158.468088 89.550659 157.771448 89.550659 157.045159 
C 89.550659 156.318871 89.262101 155.622231 88.748537 155.108668 
C 88.234974 154.595104 87.538334 154.306547 86.812046 154.306547 
C 86.085757 154.306547 85.389118 154.595104 84.875554 155.108668 
C 84.36199 155.622231 84.073433 156.318871 84.073433 157.045159 
C 84.073433 157.771448 84.36199 158.468088 84.875554 158.981651 
C 85.389118 159.495215 86.085757 159.783772 86.812046 159.783772 
z
" clip-path="url(#p0e489146e5)" style="fill: #882255; fill-opacity: 0.8; stroke: #ffffff; stroke-opacity: 0.8; stroke-width: 0.5"/>
    <path d="M 59.080546 167.826288 
L 60.906288 167.826288 
L 60.906288 166.000546 
L 62.73203 166.000546 
L 62.73203 164.174804 
L 60.906288 164.174804 
L 60.906288 162.349062 
L 59.080546 162.349062 
L 59.080546 164.174804 
L 57.254804 164.174804 
L 57.254804 166.000546 
L 59.080546 166.000546 
z
" clip-path="url(#p0e489146e5)" style="fill: #cc6677; fill-opacity: 0.8; stroke: #ffffff; stroke-opacity: 0.8; stroke-width: 0.5"/>
    <path d="M 58.422634 163.851615 
L 58.422634 167.724599 
L 62.295617 167.724599 
L 62.295617 163.851615 
z
" clip-path="url(#p0e489146e5)" style="fill: #cc6677; fill-opacity: 0.8; stroke: #ffffff; stroke-opacity: 0.8; stroke-width: 0.5"/>
    <path d="M 55.361109 164.035445 
L 52.622496 166.774058 
L 55.361109 169.512671 
L 58.099721 166.774058 
z
" clip-path="url(#p0e489146e5)" style="fill: #44aa99; fill-opacity: 0.8; stroke: #ffffff; stroke-opacity: 0.8; stroke-width: 0.5"/>
    <path d="M 54.548423 169.558141 
L 57.287036 164.080916 
L 51.80981 164.080916 
z
" clip-path="url(#p0e489146e5)" style="fill: #88ccee; fill-opacity: 0.8; stroke: #ffffff; stroke-opacity: 0.8; stroke-width: 0.5"/>
    <path d="M 91.11928 158.459033 
C 91.845569 158.459033 92.542208 158.170475 93.055772 157.656912 
C 93.569335 157.143348 93.857893 156.446709 93.857893 155.72042 
C 93.857893 154.994131 93.569335 154.297492 93.055772 153.783928 
C 92.542208 153.270365 91.845569 152.981807 91.11928 152.981807 
C 90.392991 152.981807 89.696352 153.270365 89.182788 153.783928 
C 88.669225 154.297492 88.380667 154.994131 88.380667 155.72042 
C 88.380667 156.446709 88.669225 157.143348 89.182788 157.656912 
C 89.696352 158.170475 90.392991 158.459033 91.11928 158.459033 
z
" clip-path="url(#p0e489146e5)" style="fill: #882255; fill-opacity: 0.8; stroke: #ffffff; stroke-opacity: 0.8; stroke-width: 0.5"/>
    <path d="M 56.13316 164.108604 
L 53.394547 169.58583 
L 58.871773 169.58583 
z
" clip-path="url(#p0e489146e5)" style="fill: #332288; fill-opacity: 0.8; stroke: #ffffff; stroke-opacity: 0.8; stroke-width: 0.5"/>
    <path d="M 52.205588 164.919885 
L 52.772774 166.856376 
L 52.205588 168.792868 
L 54.14208 168.225683 
L 56.078572 168.792868 
L 55.511386 166.856376 
L 56.078572 164.919885 
L 54.14208 165.48707 
z
" clip-path="url(#p0e489146e5)" style="fill: #332288; fill-opacity: 0.8; stroke: #ffffff; stroke-opacity: 0.8; stroke-width: 0.5"/>
    <path d="M 56.754934 167.771273 
L 58.12424 166.401967 
L 59.493546 167.771273 
L 60.862853 166.401967 
L 59.493546 165.032661 
L 60.862853 163.663354 
L 59.493546 162.294048 
L 58.12424 163.663354 
L 56.754934 162.294048 
L 55.385627 163.663354 
L 56.754934 165.032661 
L 55.385627 166.401967 
z
" clip-path="url(#p0e489146e5)" style="fill: #882255; fill-opacity: 0.8; stroke: #ffffff; stroke-opacity: 0.8; stroke-width: 0.5"/>
    <path d="M 55.626632 168.828351 
L 57.452374 168.828351 
L 57.452374 167.002609 
L 59.278116 167.002609 
L 59.278116 165.176868 
L 57.452374 165.176868 
L 57.452374 163.351126 
L 55.626632 163.351126 
L 55.626632 165.176868 
L 53.80089 165.176868 
L 53.80089 167.002609 
L 55.626632 167.002609 
z
" clip-path="url(#p0e489146e5)" style="fill: #cc6677; fill-opacity: 0.8; stroke: #ffffff; stroke-opacity: 0.8; stroke-width: 0.5"/>
    <path d="M 60.65752 163.416653 
L 60.65752 167.289636 
L 64.530503 167.289636 
L 64.530503 163.416653 
z
" clip-path="url(#p0e489146e5)" style="fill: #cc6677; fill-opacity: 0.8; stroke: #ffffff; stroke-opacity: 0.8; stroke-width: 0.5"/>
    <path d="M 54.14208 164.10494 
L 51.403467 166.843553 
L 54.14208 169.582166 
L 56.880693 166.843553 
z
" clip-path="url(#p0e489146e5)" style="fill: #44aa99; fill-opacity: 0.8; stroke: #ffffff; stroke-opacity: 0.8; stroke-width: 0.5"/>
    <path d="M 54.14208 164.106458 
L 53.173834 165.876825 
L 51.403467 166.845071 
L 53.173834 167.813317 
L 54.14208 169.583684 
L 55.110326 167.813317 
L 56.880693 166.845071 
L 55.110326 165.876825 
z
" clip-path="url(#p0e489146e5)" style="fill: #44aa99; fill-opacity: 0.8; stroke: #ffffff; stroke-opacity: 0.8; stroke-width: 0.5"/>
    <path d="M 53.776371 169.595931 
L 56.514984 164.118706 
L 51.037759 164.118706 
z
" clip-path="url(#p0e489146e5)" style="fill: #88ccee; fill-opacity: 0.8; stroke: #ffffff; stroke-opacity: 0.8; stroke-width: 0.5"/>
    <path d="M 79.619777 163.941067 
C 80.346066 163.941067 81.042705 163.65251 81.556269 163.138946 
C 82.069832 162.625382 82.35839 161.928743 82.35839 161.202454 
C 82.35839 160.476166 82.069832 159.779526 81.556269 159.265963 
C 81.042705 158.752399 80.346066 158.463842 79.619777 158.463842 
C 78.893489 158.463842 78.196849 158.752399 77.683285 159.265963 
C 77.169722 159.779526 76.881164 160.476166 76.881164 161.202454 
C 76.881164 161.928743 77.169722 162.625382 77.683285 163.138946 
C 78.196849 163.65251 78.893489 163.941067 79.619777 163.941067 
z
" clip-path="url(#p0e489146e5)" style="fill: #882255; fill-opacity: 0.8; stroke: #ffffff; stroke-opacity: 0.8; stroke-width: 0.5"/>
    <path d="M 57.595994 164.113681 
L 54.857381 169.590907 
L 60.334607 169.590907 
z
" clip-path="url(#p0e489146e5)" style="fill: #332288; fill-opacity: 0.8; stroke: #ffffff; stroke-opacity: 0.8; stroke-width: 0.5"/>
    <path d="M 54.156034 164.913133 
L 54.723219 166.849624 
L 54.156034 168.786116 
L 56.092526 168.218931 
L 58.029017 168.786116 
L 57.461832 166.849624 
L 58.029017 164.913133 
L 56.092526 165.480318 
z
" clip-path="url(#p0e489146e5)" style="fill: #332288; fill-opacity: 0.8; stroke: #ffffff; stroke-opacity: 0.8; stroke-width: 0.5"/>
    <path d="M 85.361471 163.437966 
L 86.730777 162.068659 
L 88.100084 163.437966 
L 89.46939 162.068659 
L 88.100084 160.699353 
L 89.46939 159.330047 
L 88.100084 157.96074 
L 86.730777 159.330047 
L 85.361471 157.96074 
L 83.992164 159.330047 
L 85.361471 160.699353 
L 83.992164 162.068659 
z
" clip-path="url(#p0e489146e5)" style="fill: #882255; fill-opacity: 0.8; stroke: #ffffff; stroke-opacity: 0.8; stroke-width: 0.5"/>
    <path d="M 57.170735 169.138786 
L 58.996477 169.138786 
L 58.996477 167.313044 
L 60.822219 167.313044 
L 60.822219 165.487302 
L 58.996477 165.487302 
L 58.996477 163.66156 
L 57.170735 163.66156 
L 57.170735 165.487302 
L 55.344993 165.487302 
L 55.344993 167.313044 
L 57.170735 167.313044 
z
" clip-path="url(#p0e489146e5)" style="fill: #cc6677; fill-opacity: 0.8; stroke: #ffffff; stroke-opacity: 0.8; stroke-width: 0.5"/>
    <path d="M 56.553457 164.350625 
L 56.553457 168.223608 
L 60.42644 168.223608 
L 60.42644 164.350625 
z
" clip-path="url(#p0e489146e5)" style="fill: #cc6677; fill-opacity: 0.8; stroke: #ffffff; stroke-opacity: 0.8; stroke-width: 0.5"/>
    <path d="M 54.954766 164.109756 
L 52.216153 166.848368 
L 54.954766 169.586981 
L 57.693379 166.848368 
z
" clip-path="url(#p0e489146e5)" style="fill: #44aa99; fill-opacity: 0.8; stroke: #ffffff; stroke-opacity: 0.8; stroke-width: 0.5"/>
    <path d="M 54.914131 169.596664 
L 57.652744 164.119439 
L 52.175519 164.119439 
z
" clip-path="url(#p0e489146e5)" style="fill: #88ccee; fill-opacity: 0.8; stroke: #ffffff; stroke-opacity: 0.8; stroke-width: 0.5"/>
    <path d="M 88.965663 160.365604 
C 89.691951 160.365604 90.388591 160.077047 90.902155 159.563483 
C 91.415718 159.04992 91.704276 158.35328 91.704276 157.626991 
C 91.704276 156.900703 91.415718 156.204063 90.902155 155.6905 
C 90.388591 155.176936 89.691951 154.888379 88.965663 154.888379 
C 88.239374 154.888379 87.542735 155.176936 87.029171 155.6905 
C 86.515608 156.204063 86.22705 156.900703 86.22705 157.626991 
C 86.22705 158.35328 86.515608 159.04992 87.029171 159.563483 
C 87.542735 160.077047 88.239374 160.365604 88.965663 160.365604 
z
" clip-path="url(#p0e489146e5)" style="fill: #882255; fill-opacity: 0.8; stroke: #ffffff; stroke-opacity: 0.8; stroke-width: 0.5"/>
    <path d="M 56.742674 164.116926 
L 54.004061 169.594152 
L 59.481287 169.594152 
z
" clip-path="url(#p0e489146e5)" style="fill: #332288; fill-opacity: 0.8; stroke: #ffffff; stroke-opacity: 0.8; stroke-width: 0.5"/>
    <path d="M 51.83988 164.909312 
L 52.407065 166.845804 
L 51.83988 168.782295 
L 53.776371 168.21511 
L 55.712863 168.782295 
L 55.145678 166.845804 
L 55.712863 164.909312 
L 53.776371 165.476497 
z
" clip-path="url(#p0e489146e5)" style="fill: #332288; fill-opacity: 0.8; stroke: #ffffff; stroke-opacity: 0.8; stroke-width: 0.5"/>
    <path d="M 66.588431 166.598208 
L 67.957737 165.228902 
L 69.327044 166.598208 
L 70.69635 165.228902 
L 69.327044 163.859595 
L 70.69635 162.490289 
L 69.327044 161.120982 
L 67.957737 162.490289 
L 66.588431 161.120982 
L 65.219124 162.490289 
L 66.588431 163.859595 
L 65.219124 165.228902 
z
" clip-path="url(#p0e489146e5)" style="fill: #882255; fill-opacity: 0.8; stroke: #ffffff; stroke-opacity: 0.8; stroke-width: 0.5"/>
    <path d="M 55.99234 169.277541 
L 57.818082 169.277541 
L 57.818082 167.4518 
L 59.643824 167.4518 
L 59.643824 165.626058 
L 57.818082 165.626058 
L 57.818082 163.800316 
L 55.99234 163.800316 
L 55.99234 165.626058 
L 54.166599 165.626058 
L 54.166599 167.4518 
L 55.99234 167.4518 
z
" clip-path="url(#p0e489146e5)" style="fill: #cc6677; fill-opacity: 0.8; stroke: #ffffff; stroke-opacity: 0.8; stroke-width: 0.5"/>
    <path d="M 57.731851 164.176957 
L 57.731851 168.049941 
L 61.604835 168.049941 
L 61.604835 164.176957 
z
" clip-path="url(#p0e489146e5)" style="fill: #cc6677; fill-opacity: 0.8; stroke: #ffffff; stroke-opacity: 0.8; stroke-width: 0.5"/>
    <path d="M 55.726817 164.085469 
L 52.988204 166.824082 
L 55.726817 169.562695 
L 58.46543 166.824082 
z
" clip-path="url(#p0e489146e5)" style="fill: #44aa99; fill-opacity: 0.8; stroke: #ffffff; stroke-opacity: 0.8; stroke-width: 0.5"/>
    <path d="M 54.507789 169.600756 
L 57.246401 164.123531 
L 51.769176 164.123531 
z
" clip-path="url(#p0e489146e5)" style="fill: #88ccee; fill-opacity: 0.8; stroke: #ffffff; stroke-opacity: 0.8; stroke-width: 0.5"/>
    <path d="M 57.311554 165.409602 
C 58.037843 165.409602 58.734482 165.121045 59.248046 164.607481 
C 59.76161 164.093917 60.050167 163.397278 60.050167 162.670989 
C 60.050167 161.944701 59.76161 161.248061 59.248046 160.734498 
C 58.734482 160.220934 58.037843 159.932377 57.311554 159.932377 
C 56.585266 159.932377 55.888626 160.220934 55.375063 160.734498 
C 54.861499 161.248061 54.572941 161.944701 54.572941 162.670989 
C 54.572941 163.397278 54.861499 164.093917 55.375063 164.607481 
C 55.888626 165.121045 56.585266 165.409602 57.311554 165.409602 
z
" clip-path="url(#p0e489146e5)" style="fill: #882255; fill-opacity: 0.8; stroke: #ffffff; stroke-opacity: 0.8; stroke-width: 0.5"/>
    <path d="M 56.823943 164.1152 
L 54.08533 169.592426 
L 59.562556 169.592426 
z
" clip-path="url(#p0e489146e5)" style="fill: #332288; fill-opacity: 0.8; stroke: #ffffff; stroke-opacity: 0.8; stroke-width: 0.5"/>
    <path d="M 50.864657 164.772986 
L 51.431842 166.709478 
L 50.864657 168.645969 
L 52.801149 168.078784 
L 54.73764 168.645969 
L 54.170455 166.709478 
L 54.73764 164.772986 
L 52.801149 165.340171 
z
" clip-path="url(#p0e489146e5)" style="fill: #332288; fill-opacity: 0.8; stroke: #ffffff; stroke-opacity: 0.8; stroke-width: 0.5"/>
    <path d="M 52.772774 169.475191 
L 54.14208 168.105885 
L 55.511386 169.475191 
L 56.880693 168.105885 
L 55.511386 166.736579 
L 56.880693 165.367272 
L 55.511386 163.997966 
L 54.14208 165.367272 
L 52.772774 163.997966 
L 51.403467 165.367272 
L 52.772774 166.736579 
L 51.403467 168.105885 
z
" clip-path="url(#p0e489146e5)" style="fill: #882255; fill-opacity: 0.8; stroke: #ffffff; stroke-opacity: 0.8; stroke-width: 0.5"/>
    <path d="M 56.317415 169.505763 
L 58.143157 169.505763 
L 58.143157 167.680021 
L 59.968899 167.680021 
L 59.968899 165.854279 
L 58.143157 165.854279 
L 58.143157 164.028537 
L 56.317415 164.028537 
L 56.317415 165.854279 
L 54.491673 165.854279 
L 54.491673 167.680021 
L 56.317415 167.680021 
z
" clip-path="url(#p0e489146e5)" style="fill: #cc6677; fill-opacity: 0.8; stroke: #ffffff; stroke-opacity: 0.8; stroke-width: 0.5"/>
    <path d="M 54.277937 163.81818 
L 54.277937 167.691163 
L 58.15092 167.691163 
L 58.15092 163.81818 
z
" clip-path="url(#p0e489146e5)" style="fill: #cc6677; fill-opacity: 0.8; stroke: #ffffff; stroke-opacity: 0.8; stroke-width: 0.5"/>
    <path d="M 54.345251 164.110678 
L 51.606639 166.849291 
L 54.345251 169.587903 
L 57.083864 166.849291 
z
" clip-path="url(#p0e489146e5)" style="fill: #44aa99; fill-opacity: 0.8; stroke: #ffffff; stroke-opacity: 0.8; stroke-width: 0.5"/>
    <path d="M 56.051891 164.12456 
L 55.083646 165.894927 
L 53.313279 166.863173 
L 55.083646 167.831419 
L 56.051891 169.601786 
L 57.020137 167.831419 
L 58.790504 166.863173 
L 57.020137 165.894927 
z
" clip-path="url(#p0e489146e5)" style="fill: #44aa99; fill-opacity: 0.8; stroke: #ffffff; stroke-opacity: 0.8; stroke-width: 0.5"/>
    <path d="M 53.938909 169.601847 
L 56.677521 164.124622 
L 51.200296 164.124622 
z
" clip-path="url(#p0e489146e5)" style="fill: #88ccee; fill-opacity: 0.8; stroke: #ffffff; stroke-opacity: 0.8; stroke-width: 0.5"/>
    <path d="M 56.051891 169.276008 
C 56.77818 169.276008 57.47482 168.98745 57.988383 168.473887 
C 58.501947 167.960323 58.790504 167.263683 58.790504 166.537395 
C 58.790504 165.811106 58.501947 165.114467 57.988383 164.600903 
C 57.47482 164.08734 56.77818 163.798782 56.051891 163.798782 
C 55.325603 163.798782 54.628963 164.08734 54.1154 164.600903 
C 53.601836 165.114467 53.313279 165.811106 53.313279 166.537395 
C 53.313279 167.263683 53.601836 167.960323 54.1154 168.473887 
C 54.628963 168.98745 55.325603 169.276008 56.051891 169.276008 
z
" clip-path="url(#p0e489146e5)" style="fill: #882255; fill-opacity: 0.8; stroke: #ffffff; stroke-opacity: 0.8; stroke-width: 0.5"/>
    <path d="M 56.255063 164.120353 
L 53.51645 169.597578 
L 58.993676 169.597578 
z
" clip-path="url(#p0e489146e5)" style="fill: #332288; fill-opacity: 0.8; stroke: #ffffff; stroke-opacity: 0.8; stroke-width: 0.5"/>
    <path d="M 53.140177 164.906201 
L 53.707362 166.842692 
L 53.140177 168.779184 
L 55.076669 168.211999 
L 57.01316 168.779184 
L 56.445975 166.842692 
L 57.01316 164.906201 
L 55.076669 165.473386 
z
" clip-path="url(#p0e489146e5)" style="fill: #332288; fill-opacity: 0.8; stroke: #ffffff; stroke-opacity: 0.8; stroke-width: 0.5"/>
    <path d="M 54.316876 169.533156 
L 55.686183 168.16385 
L 57.055489 169.533156 
L 58.424796 168.16385 
L 57.055489 166.794543 
L 58.424796 165.425237 
L 57.055489 164.05593 
L 55.686183 165.425237 
L 54.316876 164.05593 
L 52.94757 165.425237 
L 54.316876 166.794543 
L 52.94757 168.16385 
z
" clip-path="url(#p0e489146e5)" style="fill: #882255; fill-opacity: 0.8; stroke: #ffffff; stroke-opacity: 0.8; stroke-width: 0.5"/>
    <path d="M 56.84566 168.773068 
L 58.671402 168.773068 
L 58.671402 166.947326 
L 60.497144 166.947326 
L 60.497144 165.121584 
L 58.671402 165.121584 
L 58.671402 163.295842 
L 56.84566 163.295842 
L 56.84566 165.121584 
L 55.019919 165.121584 
L 55.019919 166.947326 
L 56.84566 166.947326 
z
" clip-path="url(#p0e489146e5)" style="fill: #cc6677; fill-opacity: 0.8; stroke: #ffffff; stroke-opacity: 0.8; stroke-width: 0.5"/>
    <path d="M 54.724914 164.665753 
L 54.724914 168.538736 
L 58.597897 168.538736 
L 58.597897 164.665753 
z
" clip-path="url(#p0e489146e5)" style="fill: #cc6677; fill-opacity: 0.8; stroke: #ffffff; stroke-opacity: 0.8; stroke-width: 0.5"/>
    <path d="M 55.645549 164.118508 
L 52.906936 166.85712 
L 55.645549 169.595733 
L 58.384161 166.85712 
z
" clip-path="url(#p0e489146e5)" style="fill: #44aa99; fill-opacity: 0.8; stroke: #ffffff; stroke-opacity: 0.8; stroke-width: 0.5"/>
    <path d="M 52.963686 169.601212 
L 55.702299 164.123986 
L 50.225073 164.123986 
z
" clip-path="url(#p0e489146e5)" style="fill: #88ccee; fill-opacity: 0.8; stroke: #ffffff; stroke-opacity: 0.8; stroke-width: 0.5"/>
    <path d="M 56.458234 168.252409 
C 57.184523 168.252409 57.881162 167.963852 58.394726 167.450288 
C 58.90829 166.936724 59.196847 166.240085 59.196847 165.513796 
C 59.196847 164.787508 58.90829 164.090868 58.394726 163.577305 
C 57.881162 163.063741 57.184523 162.775184 56.458234 162.775184 
C 55.731946 162.775184 55.035306 163.063741 54.521743 163.577305 
C 54.008179 164.090868 53.719621 164.787508 53.719621 165.513796 
C 53.719621 166.240085 54.008179 166.936724 54.521743 167.450288 
C 55.035306 167.963852 55.731946 168.252409 56.458234 168.252409 
z
" clip-path="url(#p0e489146e5)" style="fill: #882255; fill-opacity: 0.8; stroke: #ffffff; stroke-opacity: 0.8; stroke-width: 0.5"/>
    <path d="M 58.368046 164.118367 
L 55.629433 169.595593 
L 61.106659 169.595593 
z
" clip-path="url(#p0e489146e5)" style="fill: #332288; fill-opacity: 0.8; stroke: #ffffff; stroke-opacity: 0.8; stroke-width: 0.5"/>
    <path d="M 51.799245 164.923374 
L 52.366431 166.859865 
L 51.799245 168.796357 
L 53.735737 168.229172 
L 55.672229 168.796357 
L 55.105044 166.859865 
L 55.672229 164.923374 
L 53.735737 165.490559 
z
" clip-path="url(#p0e489146e5)" style="fill: #332288; fill-opacity: 0.8; stroke: #ffffff; stroke-opacity: 0.8; stroke-width: 0.5"/>
    <path d="M 54.276242 169.542403 
L 55.645549 168.173097 
L 57.014855 169.542403 
L 58.384161 168.173097 
L 57.014855 166.803791 
L 58.384161 165.434484 
L 57.014855 164.065178 
L 55.645549 165.434484 
L 54.276242 164.065178 
L 52.906936 165.434484 
L 54.276242 166.803791 
L 52.906936 168.173097 
z
" clip-path="url(#p0e489146e5)" style="fill: #882255; fill-opacity: 0.8; stroke: #ffffff; stroke-opacity: 0.8; stroke-width: 0.5"/>
    <path d="M 56.683123 168.845741 
L 58.508865 168.845741 
L 58.508865 167.02 
L 60.334607 167.02 
L 60.334607 165.194258 
L 58.508865 165.194258 
L 58.508865 163.368516 
L 56.683123 163.368516 
L 56.683123 165.194258 
L 54.857381 165.194258 
L 54.857381 167.02 
L 56.683123 167.02 
z
" clip-path="url(#p0e489146e5)" style="fill: #cc6677; fill-opacity: 0.8; stroke: #ffffff; stroke-opacity: 0.8; stroke-width: 0.5"/>
    <path d="M 54.1154 164.804896 
L 54.1154 168.67788 
L 57.988383 168.67788 
L 57.988383 164.804896 
z
" clip-path="url(#p0e489146e5)" style="fill: #cc6677; fill-opacity: 0.8; stroke: #ffffff; stroke-opacity: 0.8; stroke-width: 0.5"/>
    <path d="M 54.71096 164.113738 
L 51.972347 166.85235 
L 54.71096 169.590963 
L 57.449573 166.85235 
z
" clip-path="url(#p0e489146e5)" style="fill: #44aa99; fill-opacity: 0.8; stroke: #ffffff; stroke-opacity: 0.8; stroke-width: 0.5"/>
   </g>
   <g id="PolyCollection_1">
    <path d="M 53.776371 166.493725 
L 53.776371 166.493725 
L 53.938909 166.394994 
L 54.14208 166.27158 
L 54.14208 166.27158 
L 54.14208 166.27158 
L 53.938909 166.394994 
L 53.776371 166.493725 
z
" clip-path="url(#p0e489146e5)" style="fill-opacity: 0.2; stroke: #000000; stroke-opacity: 0.2; stroke-width: 0.8"/>
    <path d="M 54.507789 166.049436 
L 54.507789 166.049436 
L 54.507789 166.049436 
L 54.507789 166.049436 
z
" clip-path="url(#p0e489146e5)" style="fill-opacity: 0.2; stroke: #000000; stroke-opacity: 0.2; stroke-width: 0.8"/>
    <path d="M 54.71096 165.926022 
L 54.71096 165.926022 
L 54.71096 165.926022 
L 54.71096 165.926022 
z
" clip-path="url(#p0e489146e5)" style="fill-opacity: 0.2; stroke: #000000; stroke-opacity: 0.2; stroke-width: 0.8"/>
    <path d="M 54.914131 165.802609 
L 54.914131 165.802609 
L 54.954766 165.777926 
L 54.954766 165.777926 
L 54.954766 165.777926 
L 54.914131 165.802609 
z
" clip-path="url(#p0e489146e5)" style="fill-opacity: 0.2; stroke: #000000; stroke-opacity: 0.2; stroke-width: 0.8"/>
    <path d="M 55.117303 165.679195 
L 55.117303 165.679195 
L 55.117303 165.679195 
L 55.117303 165.679195 
z
" clip-path="url(#p0e489146e5)" style="fill-opacity: 0.2; stroke: #000000; stroke-opacity: 0.2; stroke-width: 0.8"/>
    <path d="M 55.645549 165.35832 
L 55.645549 165.35832 
L 55.686183 165.333637 
L 55.726817 165.308954 
L 55.726817 165.308954 
L 55.726817 165.308954 
L 55.686183 165.333637 
L 55.645549 165.35832 
z
" clip-path="url(#p0e489146e5)" style="fill-opacity: 0.2; stroke: #000000; stroke-opacity: 0.2; stroke-width: 0.8"/>
    <path d="M 56.051891 165.111492 
L 56.051891 165.111492 
L 56.092526 165.08681 
L 56.092526 165.08681 
L 56.092526 165.08681 
L 56.051891 165.111492 
z
" clip-path="url(#p0e489146e5)" style="fill-opacity: 0.2; stroke: #000000; stroke-opacity: 0.2; stroke-width: 0.8"/>
    <path d="M 56.458234 164.864665 
L 56.458234 164.864665 
L 56.458234 164.864665 
L 56.458234 164.864665 
z
" clip-path="url(#p0e489146e5)" style="fill-opacity: 0.2; stroke: #000000; stroke-opacity: 0.2; stroke-width: 0.8"/>
    <path d="M 57.230286 164.395693 
L 57.230286 164.395693 
L 57.230286 164.395693 
L 57.230286 164.395693 
z
" clip-path="url(#p0e489146e5)" style="fill-opacity: 0.2; stroke: #000000; stroke-opacity: 0.2; stroke-width: 0.8"/>
    <path d="M 57.474091 164.247597 
L 57.474091 164.247597 
L 57.595994 164.173549 
L 57.595994 164.173549 
L 57.595994 164.173549 
L 57.474091 164.247597 
z
" clip-path="url(#p0e489146e5)" style="fill-opacity: 0.2; stroke: #000000; stroke-opacity: 0.2; stroke-width: 0.8"/>
    <path d="M 59.465171 163.038143 
L 59.465171 163.038143 
L 59.465171 163.038143 
L 59.465171 163.038143 
z
" clip-path="url(#p0e489146e5)" style="fill-opacity: 0.2; stroke: #000000; stroke-opacity: 0.2; stroke-width: 0.8"/>
    <path d="M 59.708977 162.890047 
L 59.708977 162.890047 
L 59.708977 162.890047 
L 59.708977 162.890047 
z
" clip-path="url(#p0e489146e5)" style="fill-opacity: 0.2; stroke: #000000; stroke-opacity: 0.2; stroke-width: 0.8"/>
    <path d="M 62.309571 161.310352 
L 62.309571 161.310352 
L 62.309571 161.310352 
L 62.309571 161.310352 
z
" clip-path="url(#p0e489146e5)" style="fill-opacity: 0.2; stroke: #000000; stroke-opacity: 0.2; stroke-width: 0.8"/>
   </g>
   <g id="line2d_1">
    <path d="M 52.801149 167.08611 
L 195.7932 80.227595 
L 195.7932 80.227595 
" clip-path="url(#p0e489146e5)" style="fill: none; stroke-dasharray: 6,6; stroke-dashoffset: 0; stroke: #000000; stroke-width: 1.2"/>
   </g>
   <g id="patch_3">
    <path d="M 45.04 171.562875 
L 45.04 16.498875 
" style="fill: none; stroke: #262626; stroke-linejoin: miter; stroke-linecap: square"/>
   </g>
   <g id="patch_4">
    <path d="M 45.04 171.562875 
L 215.704 171.562875 
" style="fill: none; stroke: #262626; stroke-linejoin: miter; stroke-linecap: square"/>
   </g>
  </g>
 </g>
 <defs>
  <clipPath id="p0e489146e5">
   <rect x="45.04" y="16.498875" width="170.664" height="155.064"/>
  </clipPath>
 </defs>
</svg>
