<?xml version="1.0" encoding="utf-8" standalone="no"?>
<!DOCTYPE svg PUBLIC "-//W3C//DTD SVG 1.1//EN"
  "http://www.w3.org/Graphics/SVG/1.1/DTD/svg11.dtd">
<svg xmlns:xlink="http://www.w3.org/1999/xlink" width="216pt" height="576pt" viewBox="0 0 216 576" xmlns="http://www.w3.org/2000/svg" version="1.1">
 <metadata>
  <rdf:RDF xmlns:dc="http://purl.org/dc/elements/1.1/" xmlns:cc="http://creativecommons.org/ns#" xmlns:rdf="http://www.w3.org/1999/02/22-rdf-syntax-ns#">
   <cc:Work>
    <dc:type rdf:resource="http://purl.org/dc/dcmitype/StillImage"/>
    <dc:date>2024-12-17T13:28:23.610895</dc:date>
    <dc:format>image/svg+xml</dc:format>
    <dc:creator>
     <cc:Agent>
      <dc:title>Matplotlib v3.8.0, https://matplotlib.org/</dc:title>
     </cc:Agent>
    </dc:creator>
   </cc:Work>
  </rdf:RDF>
 </metadata>
 <defs>
  <style type="text/css">*{stroke-linejoin: round; stroke-linecap: butt}</style>
 </defs>
 <g id="figure_1">
  <g id="patch_1">
   <path d="M 0 576 
L 216 576 
L 216 0 
L 0 0 
z
" style="fill: #ffffff"/>
  </g>
  <g id="axes_1">
   <g id="patch_2">
    <path d="M 45.318 130.613859 
L 198.37575 130.613859 
L 198.37575 22.568 
L 45.318 22.568 
z
" style="fill: #ffffff"/>
   </g>
   <g id="matplotlib.axis_1">
    <g id="xtick_1"/>
    <g id="xtick_2"/>
    <g id="xtick_3"/>
   </g>
   <g id="matplotlib.axis_2">
    <g id="ytick_1">
     <g id="text_1">
      <!-- $\mathdefault{10^{-1}}$ -->
      <g style="fill: #262626" transform="translate(19.094 111.883836) scale(0.088 -0.088)">
       <defs>
        <path id="ArialMT-31" d="M 2384 0 
L 1822 0 
L 1822 3584 
Q 1619 3391 1289 3197 
Q 959 3003 697 2906 
L 697 3450 
Q 1169 3672 1522 3987 
Q 1875 4303 2022 4600 
L 2384 4600 
L 2384 0 
z
" transform="scale(0.015625)"/>
        <path id="ArialMT-30" d="M 266 2259 
Q 266 3072 433 3567 
Q 600 4063 929 4331 
Q 1259 4600 1759 4600 
Q 2128 4600 2406 4451 
Q 2684 4303 2865 4023 
Q 3047 3744 3150 3342 
Q 3253 2941 3253 2259 
Q 3253 1453 3087 958 
Q 2922 463 2592 192 
Q 2263 -78 1759 -78 
Q 1097 -78 719 397 
Q 266 969 266 2259 
z
M 844 2259 
Q 844 1131 1108 757 
Q 1372 384 1759 384 
Q 2147 384 2411 759 
Q 2675 1134 2675 2259 
Q 2675 3391 2411 3762 
Q 2147 4134 1753 4134 
Q 1366 4134 1134 3806 
Q 844 3388 844 2259 
z
" transform="scale(0.015625)"/>
        <path id="ArialMT-2212" d="M 3381 1997 
L 356 1997 
L 356 2522 
L 3381 2522 
L 3381 1997 
z
" transform="scale(0.015625)"/>
       </defs>
       <use xlink:href="#ArialMT-31" transform="translate(0 0.99375)"/>
       <use xlink:href="#ArialMT-30" transform="translate(55.615234 0.99375)"/>
       <use xlink:href="#ArialMT-2212" transform="translate(112.972813 70.6875) scale(0.7)"/>
       <use xlink:href="#ArialMT-31" transform="translate(153.851719 70.6875) scale(0.7)"/>
      </g>
     </g>
    </g>
    <g id="ytick_2">
     <g id="text_2">
      <!-- $\mathdefault{10^{0}}$ -->
      <g style="fill: #262626" transform="translate(22.702 69.057418) scale(0.088 -0.088)">
       <use xlink:href="#ArialMT-31" transform="translate(0 0.99375)"/>
       <use xlink:href="#ArialMT-30" transform="translate(55.615234 0.99375)"/>
       <use xlink:href="#ArialMT-30" transform="translate(112.972813 70.6875) scale(0.7)"/>
      </g>
     </g>
    </g>
    <g id="ytick_3">
     <g id="text_3">
      <!-- $\mathdefault{10^{1}}$ -->
      <g style="fill: #262626" transform="translate(22.702 26.231) scale(0.088 -0.088)">
       <use xlink:href="#ArialMT-31" transform="translate(0 0.99375)"/>
       <use xlink:href="#ArialMT-30" transform="translate(55.615234 0.99375)"/>
       <use xlink:href="#ArialMT-31" transform="translate(112.972813 70.6875) scale(0.7)"/>
      </g>
     </g>
    </g>
    <g id="ytick_4"/>
    <g id="ytick_5"/>
    <g id="ytick_6"/>
    <g id="ytick_7"/>
    <g id="ytick_8"/>
    <g id="ytick_9"/>
    <g id="ytick_10"/>
    <g id="ytick_11"/>
    <g id="ytick_12"/>
    <g id="ytick_13"/>
    <g id="ytick_14"/>
    <g id="ytick_15"/>
    <g id="ytick_16"/>
    <g id="ytick_17"/>
    <g id="ytick_18"/>
    <g id="ytick_19"/>
    <g id="ytick_20"/>
    <g id="ytick_21"/>
    <g id="ytick_22"/>
    <g id="ytick_23"/>
    <g id="ytick_24"/>
    <g id="ytick_25"/>
    <g id="ytick_26"/>
    <g id="text_4">
     <!-- Fluorescence -->
     <g style="fill: #262626" transform="translate(12.186 105.40293) rotate(-90) scale(0.096 -0.096)">
      <defs>
       <path id="ArialMT-46" d="M 525 0 
L 525 4581 
L 3616 4581 
L 3616 4041 
L 1131 4041 
L 1131 2622 
L 3281 2622 
L 3281 2081 
L 1131 2081 
L 1131 0 
L 525 0 
z
" transform="scale(0.015625)"/>
       <path id="ArialMT-6c" d="M 409 0 
L 409 4581 
L 972 4581 
L 972 0 
L 409 0 
z
" transform="scale(0.015625)"/>
       <path id="ArialMT-75" d="M 2597 0 
L 2597 488 
Q 2209 -75 1544 -75 
Q 1250 -75 995 37 
Q 741 150 617 320 
Q 494 491 444 738 
Q 409 903 409 1263 
L 409 3319 
L 972 3319 
L 972 1478 
Q 972 1038 1006 884 
Q 1059 663 1231 536 
Q 1403 409 1656 409 
Q 1909 409 2131 539 
Q 2353 669 2445 892 
Q 2538 1116 2538 1541 
L 2538 3319 
L 3100 3319 
L 3100 0 
L 2597 0 
z
" transform="scale(0.015625)"/>
       <path id="ArialMT-6f" d="M 213 1659 
Q 213 2581 725 3025 
Q 1153 3394 1769 3394 
Q 2453 3394 2887 2945 
Q 3322 2497 3322 1706 
Q 3322 1066 3130 698 
Q 2938 331 2570 128 
Q 2203 -75 1769 -75 
Q 1072 -75 642 372 
Q 213 819 213 1659 
z
M 791 1659 
Q 791 1022 1069 705 
Q 1347 388 1769 388 
Q 2188 388 2466 706 
Q 2744 1025 2744 1678 
Q 2744 2294 2464 2611 
Q 2184 2928 1769 2928 
Q 1347 2928 1069 2612 
Q 791 2297 791 1659 
z
" transform="scale(0.015625)"/>
       <path id="ArialMT-72" d="M 416 0 
L 416 3319 
L 922 3319 
L 922 2816 
Q 1116 3169 1280 3281 
Q 1444 3394 1641 3394 
Q 1925 3394 2219 3213 
L 2025 2691 
Q 1819 2813 1613 2813 
Q 1428 2813 1281 2702 
Q 1134 2591 1072 2394 
Q 978 2094 978 1738 
L 978 0 
L 416 0 
z
" transform="scale(0.015625)"/>
       <path id="ArialMT-65" d="M 2694 1069 
L 3275 997 
Q 3138 488 2766 206 
Q 2394 -75 1816 -75 
Q 1088 -75 661 373 
Q 234 822 234 1631 
Q 234 2469 665 2931 
Q 1097 3394 1784 3394 
Q 2450 3394 2872 2941 
Q 3294 2488 3294 1666 
Q 3294 1616 3291 1516 
L 816 1516 
Q 847 969 1125 678 
Q 1403 388 1819 388 
Q 2128 388 2347 550 
Q 2566 713 2694 1069 
z
M 847 1978 
L 2700 1978 
Q 2663 2397 2488 2606 
Q 2219 2931 1791 2931 
Q 1403 2931 1139 2672 
Q 875 2413 847 1978 
z
" transform="scale(0.015625)"/>
       <path id="ArialMT-73" d="M 197 991 
L 753 1078 
Q 800 744 1014 566 
Q 1228 388 1613 388 
Q 2000 388 2187 545 
Q 2375 703 2375 916 
Q 2375 1106 2209 1216 
Q 2094 1291 1634 1406 
Q 1016 1563 777 1677 
Q 538 1791 414 1992 
Q 291 2194 291 2438 
Q 291 2659 392 2848 
Q 494 3038 669 3163 
Q 800 3259 1026 3326 
Q 1253 3394 1513 3394 
Q 1903 3394 2198 3281 
Q 2494 3169 2634 2976 
Q 2775 2784 2828 2463 
L 2278 2388 
Q 2241 2644 2061 2787 
Q 1881 2931 1553 2931 
Q 1166 2931 1000 2803 
Q 834 2675 834 2503 
Q 834 2394 903 2306 
Q 972 2216 1119 2156 
Q 1203 2125 1616 2013 
Q 2213 1853 2448 1751 
Q 2684 1650 2818 1456 
Q 2953 1263 2953 975 
Q 2953 694 2789 445 
Q 2625 197 2315 61 
Q 2006 -75 1616 -75 
Q 969 -75 630 194 
Q 291 463 197 991 
z
" transform="scale(0.015625)"/>
       <path id="ArialMT-63" d="M 2588 1216 
L 3141 1144 
Q 3050 572 2676 248 
Q 2303 -75 1759 -75 
Q 1078 -75 664 370 
Q 250 816 250 1647 
Q 250 2184 428 2587 
Q 606 2991 970 3192 
Q 1334 3394 1763 3394 
Q 2303 3394 2647 3120 
Q 2991 2847 3088 2344 
L 2541 2259 
Q 2463 2594 2264 2762 
Q 2066 2931 1784 2931 
Q 1359 2931 1093 2626 
Q 828 2322 828 1663 
Q 828 994 1084 691 
Q 1341 388 1753 388 
Q 2084 388 2306 591 
Q 2528 794 2588 1216 
z
" transform="scale(0.015625)"/>
       <path id="ArialMT-6e" d="M 422 0 
L 422 3319 
L 928 3319 
L 928 2847 
Q 1294 3394 1984 3394 
Q 2284 3394 2536 3286 
Q 2788 3178 2913 3003 
Q 3038 2828 3088 2588 
Q 3119 2431 3119 2041 
L 3119 0 
L 2556 0 
L 2556 2019 
Q 2556 2363 2490 2533 
Q 2425 2703 2258 2804 
Q 2091 2906 1866 2906 
Q 1506 2906 1245 2678 
Q 984 2450 984 1813 
L 984 0 
L 422 0 
z
" transform="scale(0.015625)"/>
      </defs>
      <use xlink:href="#ArialMT-46"/>
      <use xlink:href="#ArialMT-6c" x="61.083984"/>
      <use xlink:href="#ArialMT-75" x="83.300781"/>
      <use xlink:href="#ArialMT-6f" x="138.916016"/>
      <use xlink:href="#ArialMT-72" x="194.53125"/>
      <use xlink:href="#ArialMT-65" x="227.832031"/>
      <use xlink:href="#ArialMT-73" x="283.447266"/>
      <use xlink:href="#ArialMT-63" x="333.447266"/>
      <use xlink:href="#ArialMT-65" x="383.447266"/>
      <use xlink:href="#ArialMT-6e" x="439.0625"/>
      <use xlink:href="#ArialMT-63" x="494.677734"/>
      <use xlink:href="#ArialMT-65" x="544.677734"/>
     </g>
    </g>
   </g>
   <g id="line2d_1">
    <path d="M 45.318 117.41439 
L 46.500857 110.598444 
L 47.684473 104.675435 
L 48.321455 96.380967 
L 49.422316 89.40579 
L 50.457886 88.74146 
L 51.571654 94.960485 
L 52.67783 105.30068 
L 52.67783 98.906777 
L 52.67783 98.461264 
L 54.046695 125.263181 
L 55.09593 105.621365 
L 55.972824 114.854732 
L 55.972824 109.371674 
L 55.972824 103.057086 
L 57.163273 109.974946 
L 57.163273 108.407765 
L 57.163273 104.370522 
L 58.128994 106.789416 
L 58.128994 105.30068 
L 58.128994 101.962695 
L 59.345257 105.142387 
L 59.345257 104.98543 
L 59.345257 102.916714 
L 60.291239 107.491359 
L 60.291239 105.947676 
L 60.291239 98.906777 
L 62.964435 104.98543 
L 63.605212 115.669429 
L 63.605212 114.330774 
L 63.605212 106.789416 
L 64.698482 112.605101 
L 64.698482 110.180465 
L 64.698482 108.407765 
L 65.775049 125.263181 
L 65.775049 117.41439 
L 65.775049 110.38828 
L 66.867559 123.918069 
L 66.867559 117.41439 
L 66.867559 107.491359 
L 68.034473 114.590908 
L 68.034473 109.174854 
L 68.034473 108.787355 
L 69.239347 117.111956 
L 69.239347 115.949123 
L 69.239347 107.671063 
L 71.445626 113.571514 
L 71.445626 112.371144 
L 71.445626 110.180465 
L 73.452991 118.675841 
L 73.452991 109.174854 
L 73.452991 108.220836 
L 74.559926 123.918069 
L 74.559926 118.675841 
L 74.559926 111.24357 
L 75.768596 121.872132 
L 75.768596 115.949123 
L 75.768596 111.026032 
L 77.879973 111.24357 
L 79.292873 125.263181 
L 80.103714 125.263181 
L 80.103714 125.263181 
L 80.103714 125.263181 
L 81.154468 125.263181 
L 81.154468 125.263181 
L 81.154468 111.686431 
L 82.200666 125.263181 
L 82.200666 125.263181 
L 82.200666 125.263181 
L 83.331897 125.263181 
L 83.331897 120.383395 
L 83.331897 114.590908 
L 85.662687 125.263181 
L 86.631445 125.263181 
L 86.631445 120.383395 
L 86.631445 118.675841 
L 88.948569 125.263181 
L 88.948569 125.263181 
L 88.948569 114.590908 
L 89.971991 114.590908 
L 91.054632 123.918069 
L 94.251686 125.263181 
L 96.476946 125.263181 
L 97.706115 125.263181 
L 98.680947 125.263181 
L 99.880507 125.263181 
L 101.931906 125.263181 
L 103.263569 119.681452 
L 105.222343 125.263181 
L 109.643253 125.263181 
L 110.817758 125.263181 
L 114.076309 125.263181 
L 117.09267 125.263181 
L 118.559474 125.263181 
L 119.642874 125.263181 
L 121.630499 125.263181 
L 124.880698 125.263181 
L 125.967135 125.263181 
L 129.433711 125.263181 
L 132.555603 125.263181 
L 133.751367 125.263181 
L 134.920558 125.263181 
L 137.391803 125.263181 
L 140.314781 124.355719 
L 141.301001 125.263181 
L 142.344162 125.263181 
L 144.805538 125.263181 
L 147.853027 125.263181 
L 149.088269 125.263181 
L 151.184462 125.263181 
L 152.456147 125.263181 
L 155.455806 125.263181 
L 163.079084 125.263181 
L 166.609434 125.263181 
L 171.968733 121.872132 
L 175.186286 125.263181 
L 178.453948 125.263181 
L 186.095447 125.263181 
" clip-path="url(#p791465db1a)" style="fill: none; stroke: #44aa99; stroke-width: 3; stroke-linecap: round"/>
   </g>
   <g id="line2d_2">
    <path d="M 45.318 114.854732 
L 46.500857 125.263181 
L 47.684473 100.803888 
L 48.321455 92.488298 
L 49.422316 92.093394 
L 50.457886 96.778828 
L 51.571654 104.370522 
L 52.67783 114.590908 
L 52.67783 112.371144 
L 52.67783 106.113004 
L 54.046695 121.872132 
L 55.09593 103.484675 
L 55.972824 112.371144 
L 55.972824 108.980095 
L 55.972824 106.962434 
L 57.163273 114.330774 
L 57.163273 103.775294 
L 57.163273 103.629417 
L 58.128994 106.962434 
L 58.128994 106.617993 
L 58.128994 101.56835 
L 59.345257 114.854732 
L 59.345257 114.854732 
L 59.345257 109.174854 
L 60.291239 110.180465 
L 60.291239 103.484675 
L 60.291239 101.310022 
L 62.964435 106.617993 
L 63.605212 114.590908 
L 63.605212 111.24357 
L 63.605212 111.24357 
L 64.698482 120.383395 
L 64.698482 115.669429 
L 64.698482 114.590908 
L 65.775049 120.383395 
L 65.775049 112.371144 
L 65.775049 110.180465 
L 66.867559 118.352367 
L 66.867559 115.949123 
L 66.867559 108.035767 
L 68.034473 125.263181 
L 68.034473 121.872132 
L 68.034473 120.383395 
L 69.239347 120.029113 
L 69.239347 115.949123 
L 69.239347 110.180465 
L 71.445626 117.41439 
L 71.445626 114.330774 
L 71.445626 106.789416 
L 73.452991 125.263181 
L 73.452991 125.263181 
L 73.452991 114.590908 
L 74.559926 125.263181 
L 74.559926 125.263181 
L 74.559926 121.872132 
L 75.768596 125.263181 
L 75.768596 118.675841 
L 75.768596 115.669429 
L 77.879973 110.180465 
L 79.292873 125.263181 
L 80.103714 125.263181 
L 80.103714 125.263181 
L 80.103714 122.26371 
L 81.154468 120.029113 
L 81.154468 118.352367 
L 81.154468 117.111956 
L 82.200666 125.263181 
L 82.200666 125.263181 
L 82.200666 125.263181 
L 83.331897 125.263181 
L 83.331897 125.263181 
L 83.331897 125.263181 
L 85.662687 125.263181 
L 86.631445 125.263181 
L 86.631445 125.263181 
L 86.631445 125.263181 
L 88.948569 125.263181 
L 88.948569 125.263181 
L 88.948569 120.383395 
L 89.971991 125.263181 
L 91.054632 125.263181 
L 94.251686 125.263181 
L 96.476946 125.263181 
L 97.706115 125.263181 
L 98.680947 125.263181 
L 99.880507 125.263181 
L 101.931906 125.263181 
L 103.263569 120.029113 
L 105.222343 125.263181 
L 109.643253 125.263181 
L 110.817758 125.263181 
L 114.076309 125.263181 
L 117.09267 125.263181 
L 118.559474 125.263181 
L 119.642874 125.263181 
L 121.630499 125.263181 
L 124.880698 125.263181 
L 125.967135 125.263181 
L 129.433711 120.383395 
L 132.555603 125.263181 
L 133.751367 123.49048 
L 134.920558 123.49048 
L 137.391803 121.872132 
L 140.314781 125.263181 
L 141.301001 125.263181 
L 142.344162 125.263181 
L 144.805538 121.488628 
L 147.853027 125.263181 
L 149.088269 125.263181 
L 151.184462 125.263181 
L 152.456147 125.263181 
L 155.455806 125.263181 
L 163.079084 125.263181 
L 166.609434 123.918069 
L 171.968733 125.263181 
L 175.186286 125.263181 
L 178.453948 119.681452 
L 186.095447 117.41439 
" clip-path="url(#p791465db1a)" style="fill: none; stroke: #44aa99; stroke-width: 3; stroke-linecap: round"/>
   </g>
   <g id="line2d_3">
    <path d="M 45.318 106.789416 
L 46.500857 114.854732 
L 47.684473 102.501843 
L 48.321455 90.30649 
L 49.422316 84.814371 
L 50.457886 72.054903 
L 51.571654 66.985733 
L 52.67783 62.990046 
L 52.67783 61.956929 
L 52.67783 61.757017 
L 54.046695 79.958989 
L 55.09593 86.587072 
L 55.972824 88.676313 
L 55.972824 85.790651 
L 55.972824 84.396392 
L 57.163273 89.271012 
L 57.163273 88.417986 
L 57.163273 86.127807 
L 58.128994 91.030288 
L 58.128994 89.271012 
L 58.128994 89.271012 
L 59.345257 94.33298 
L 59.345257 92.810371 
L 59.345257 92.171706 
L 60.291239 96.185183 
L 60.291239 95.051882 
L 60.291239 90.449014 
L 62.964435 93.725957 
L 63.605212 96.479637 
L 63.605212 95.991439 
L 63.605212 95.14373 
L 64.698482 99.479108 
L 64.698482 98.682687 
L 64.698482 98.351534 
L 65.775049 97.08291 
L 65.775049 94.960485 
L 65.775049 93.640834 
L 66.867559 97.812387 
L 66.867559 97.392046 
L 66.867559 93.725957 
L 68.034473 100.311163 
L 68.034473 99.019843 
L 68.034473 91.7067 
L 69.239347 99.479108 
L 69.239347 95.515728 
L 69.239347 93.387779 
L 71.445626 95.609902 
L 71.445626 94.960485 
L 71.445626 94.070397 
L 73.452991 100.929136 
L 73.452991 100.311163 
L 73.452991 93.811471 
L 74.559926 102.230316 
L 74.559926 98.906777 
L 74.559926 96.282818 
L 75.768596 100.679478 
L 75.768596 100.433126 
L 75.768596 96.778828 
L 77.879973 125.263181 
L 79.292873 125.263181 
L 80.103714 120.383395 
L 80.103714 118.675841 
L 80.103714 113.325163 
L 81.154468 114.330774 
L 81.154468 111.91188 
L 81.154468 111.686431 
L 82.200666 123.918069 
L 82.200666 122.26371 
L 82.200666 120.383395 
L 83.331897 125.263181 
L 83.331897 114.854732 
L 83.331897 109.371674 
L 85.662687 125.263181 
L 86.631445 124.355719 
L 86.631445 120.383395 
L 86.631445 111.24357 
L 88.948569 123.918069 
L 88.948569 121.872132 
L 88.948569 116.521453 
L 89.971991 112.371144 
L 91.054632 113.082031 
L 94.251686 118.675841 
L 96.476946 125.263181 
L 97.706115 125.263181 
L 98.680947 117.111956 
L 99.880507 121.872132 
L 101.931906 125.263181 
L 103.263569 120.029113 
L 105.222343 125.263181 
L 109.643253 125.263181 
L 110.817758 119.681452 
L 114.076309 125.263181 
L 117.09267 125.263181 
L 118.559474 120.383395 
L 119.642874 125.263181 
L 121.630499 123.918069 
L 124.880698 125.263181 
L 125.967135 122.26371 
L 129.433711 125.263181 
L 132.555603 125.263181 
L 133.751367 116.814361 
L 134.920558 125.263181 
L 137.391803 118.352367 
L 140.314781 125.263181 
L 141.301001 123.918069 
L 142.344162 125.263181 
L 144.805538 125.263181 
L 147.853027 125.263181 
L 149.088269 121.872132 
L 151.184462 117.111956 
L 152.456147 125.263181 
L 155.455806 125.263181 
L 163.079084 125.263181 
L 166.609434 125.263181 
L 171.968733 125.263181 
L 175.186286 125.263181 
L 178.453948 125.263181 
L 186.095447 125.263181 
" clip-path="url(#p791465db1a)" style="fill: none; stroke: #44aa99; stroke-width: 3; stroke-linecap: round"/>
   </g>
   <g id="line2d_4">
    <path d="M 45.318 104.420995 
L 46.500857 119.227789 
L 47.684473 100.311163 
L 48.321455 93.083093 
L 49.422316 85.921042 
L 50.457886 75.784277 
L 51.571654 64.904935 
L 52.67783 56.595946 
L 54.046695 45.707372 
L 55.09593 49.280005 
L 55.972824 56.435678 
L 57.163273 66.134313 
L 58.128994 66.84668 
L 59.345257 68.417152 
L 60.291239 67.741522 
L 62.964435 72.824514 
L 63.605212 73.276769 
L 64.698482 77.505384 
L 65.775049 82.754618 
L 66.867559 85.146087 
L 68.034473 86.998447 
L 69.239347 94.688958 
L 71.445626 100.542213 
L 73.452991 101.168042 
L 74.559926 105.442524 
L 75.768596 113.793267 
L 77.879973 125.263181 
L 79.292873 125.263181 
L 80.103714 124.159935 
L 81.154468 124.454389 
L 82.200666 123.118482 
L 83.331897 122.529418 
L 85.662687 125.263181 
L 86.631445 122.484869 
L 88.948569 123.966191 
L 89.971991 125.263181 
L 91.054632 124.062811 
L 94.251686 125.263181 
L 96.476946 125.263181 
L 97.706115 124.803916 
L 98.680947 119.005041 
L 99.880507 125.263181 
L 101.931906 125.263181 
L 103.263569 124.653314 
L 105.222343 125.263181 
L 109.643253 121.615586 
L 110.817758 124.803916 
L 114.076309 125.263181 
L 117.09267 123.350108 
L 118.559474 125.263181 
L 119.642874 124.653314 
L 121.630499 125.263181 
L 124.880698 124.062811 
L 125.967135 125.263181 
L 129.433711 123.49048 
L 132.555603 125.263181 
L 133.751367 124.803916 
L 134.920558 124.062811 
L 137.391803 125.263181 
L 140.314781 125.263181 
L 141.301001 122.935237 
L 142.344162 124.803916 
L 144.805538 122.529418 
L 147.853027 124.062811 
L 149.088269 125.263181 
L 151.184462 125.263181 
L 152.456147 124.803916 
L 155.455806 125.263181 
L 163.079084 125.263181 
L 166.609434 125.263181 
L 171.968733 124.803916 
L 175.186286 119.116081 
L 178.453948 125.263181 
L 186.095447 125.263181 
" clip-path="url(#p791465db1a)" style="fill: none; stroke: #000000; stroke-linecap: round"/>
   </g>
   <g id="patch_3">
    <path d="M 45.318 130.613859 
L 45.318 22.568 
" style="fill: none; stroke: #262626; stroke-linejoin: miter; stroke-linecap: square"/>
   </g>
   <g id="patch_4">
    <path d="M 45.318 130.613859 
L 198.37575 130.613859 
" style="fill: none; stroke: #262626; stroke-linejoin: miter; stroke-linecap: square"/>
   </g>
   <g id="text_5">
    <!-- Marinovum 5F3 -->
    <g style="fill: #262626" transform="translate(88.504875 17.568) scale(0.096 -0.096)">
     <defs>
      <path id="ArialMT-4d" d="M 475 0 
L 475 4581 
L 1388 4581 
L 2472 1338 
Q 2622 884 2691 659 
Q 2769 909 2934 1394 
L 4031 4581 
L 4847 4581 
L 4847 0 
L 4263 0 
L 4263 3834 
L 2931 0 
L 2384 0 
L 1059 3900 
L 1059 0 
L 475 0 
z
" transform="scale(0.015625)"/>
      <path id="ArialMT-61" d="M 2588 409 
Q 2275 144 1986 34 
Q 1697 -75 1366 -75 
Q 819 -75 525 192 
Q 231 459 231 875 
Q 231 1119 342 1320 
Q 453 1522 633 1644 
Q 813 1766 1038 1828 
Q 1203 1872 1538 1913 
Q 2219 1994 2541 2106 
Q 2544 2222 2544 2253 
Q 2544 2597 2384 2738 
Q 2169 2928 1744 2928 
Q 1347 2928 1158 2789 
Q 969 2650 878 2297 
L 328 2372 
Q 403 2725 575 2942 
Q 747 3159 1072 3276 
Q 1397 3394 1825 3394 
Q 2250 3394 2515 3294 
Q 2781 3194 2906 3042 
Q 3031 2891 3081 2659 
Q 3109 2516 3109 2141 
L 3109 1391 
Q 3109 606 3145 398 
Q 3181 191 3288 0 
L 2700 0 
Q 2613 175 2588 409 
z
M 2541 1666 
Q 2234 1541 1622 1453 
Q 1275 1403 1131 1340 
Q 988 1278 909 1158 
Q 831 1038 831 891 
Q 831 666 1001 516 
Q 1172 366 1500 366 
Q 1825 366 2078 508 
Q 2331 650 2450 897 
Q 2541 1088 2541 1459 
L 2541 1666 
z
" transform="scale(0.015625)"/>
      <path id="ArialMT-69" d="M 425 3934 
L 425 4581 
L 988 4581 
L 988 3934 
L 425 3934 
z
M 425 0 
L 425 3319 
L 988 3319 
L 988 0 
L 425 0 
z
" transform="scale(0.015625)"/>
      <path id="ArialMT-76" d="M 1344 0 
L 81 3319 
L 675 3319 
L 1388 1331 
Q 1503 1009 1600 663 
Q 1675 925 1809 1294 
L 2547 3319 
L 3125 3319 
L 1869 0 
L 1344 0 
z
" transform="scale(0.015625)"/>
      <path id="ArialMT-6d" d="M 422 0 
L 422 3319 
L 925 3319 
L 925 2853 
Q 1081 3097 1340 3245 
Q 1600 3394 1931 3394 
Q 2300 3394 2536 3241 
Q 2772 3088 2869 2813 
Q 3263 3394 3894 3394 
Q 4388 3394 4653 3120 
Q 4919 2847 4919 2278 
L 4919 0 
L 4359 0 
L 4359 2091 
Q 4359 2428 4304 2576 
Q 4250 2725 4106 2815 
Q 3963 2906 3769 2906 
Q 3419 2906 3187 2673 
Q 2956 2441 2956 1928 
L 2956 0 
L 2394 0 
L 2394 2156 
Q 2394 2531 2256 2718 
Q 2119 2906 1806 2906 
Q 1569 2906 1367 2781 
Q 1166 2656 1075 2415 
Q 984 2175 984 1722 
L 984 0 
L 422 0 
z
" transform="scale(0.015625)"/>
      <path id="ArialMT-20" transform="scale(0.015625)"/>
      <path id="ArialMT-35" d="M 266 1200 
L 856 1250 
Q 922 819 1161 601 
Q 1400 384 1738 384 
Q 2144 384 2425 690 
Q 2706 997 2706 1503 
Q 2706 1984 2436 2262 
Q 2166 2541 1728 2541 
Q 1456 2541 1237 2417 
Q 1019 2294 894 2097 
L 366 2166 
L 809 4519 
L 3088 4519 
L 3088 3981 
L 1259 3981 
L 1013 2750 
Q 1425 3038 1878 3038 
Q 2478 3038 2890 2622 
Q 3303 2206 3303 1553 
Q 3303 931 2941 478 
Q 2500 -78 1738 -78 
Q 1113 -78 717 272 
Q 322 622 266 1200 
z
" transform="scale(0.015625)"/>
      <path id="ArialMT-33" d="M 269 1209 
L 831 1284 
Q 928 806 1161 595 
Q 1394 384 1728 384 
Q 2125 384 2398 659 
Q 2672 934 2672 1341 
Q 2672 1728 2419 1979 
Q 2166 2231 1775 2231 
Q 1616 2231 1378 2169 
L 1441 2663 
Q 1497 2656 1531 2656 
Q 1891 2656 2178 2843 
Q 2466 3031 2466 3422 
Q 2466 3731 2256 3934 
Q 2047 4138 1716 4138 
Q 1388 4138 1169 3931 
Q 950 3725 888 3313 
L 325 3413 
Q 428 3978 793 4289 
Q 1159 4600 1703 4600 
Q 2078 4600 2393 4439 
Q 2709 4278 2876 4000 
Q 3044 3722 3044 3409 
Q 3044 3113 2884 2869 
Q 2725 2625 2413 2481 
Q 2819 2388 3044 2092 
Q 3269 1797 3269 1353 
Q 3269 753 2831 336 
Q 2394 -81 1725 -81 
Q 1122 -81 723 278 
Q 325 638 269 1209 
z
" transform="scale(0.015625)"/>
     </defs>
     <use xlink:href="#ArialMT-4d"/>
     <use xlink:href="#ArialMT-61" x="83.300781"/>
     <use xlink:href="#ArialMT-72" x="138.916016"/>
     <use xlink:href="#ArialMT-69" x="172.216797"/>
     <use xlink:href="#ArialMT-6e" x="194.433594"/>
     <use xlink:href="#ArialMT-6f" x="250.048828"/>
     <use xlink:href="#ArialMT-76" x="305.664062"/>
     <use xlink:href="#ArialMT-75" x="355.664062"/>
     <use xlink:href="#ArialMT-6d" x="411.279297"/>
     <use xlink:href="#ArialMT-20" x="494.580078"/>
     <use xlink:href="#ArialMT-35" x="522.363281"/>
     <use xlink:href="#ArialMT-46" x="577.978516"/>
     <use xlink:href="#ArialMT-33" x="639.0625"/>
    </g>
   </g>
  </g>
  <g id="axes_2">
   <g id="patch_5">
    <path d="M 45.318 265.319906 
L 198.37575 265.319906 
L 198.37575 157.274047 
L 45.318 157.274047 
z
" style="fill: #ffffff"/>
   </g>
   <g id="matplotlib.axis_3">
    <g id="xtick_4"/>
    <g id="xtick_5"/>
    <g id="xtick_6"/>
   </g>
   <g id="matplotlib.axis_4">
    <g id="ytick_27">
     <g id="text_6">
      <!-- $\mathdefault{10^{-1}}$ -->
      <g style="fill: #262626" transform="translate(19.094 246.589883) scale(0.088 -0.088)">
       <use xlink:href="#ArialMT-31" transform="translate(0 0.99375)"/>
       <use xlink:href="#ArialMT-30" transform="translate(55.615234 0.99375)"/>
       <use xlink:href="#ArialMT-2212" transform="translate(112.972813 70.6875) scale(0.7)"/>
       <use xlink:href="#ArialMT-31" transform="translate(153.851719 70.6875) scale(0.7)"/>
      </g>
     </g>
    </g>
    <g id="ytick_28">
     <g id="text_7">
      <!-- $\mathdefault{10^{0}}$ -->
      <g style="fill: #262626" transform="translate(22.702 203.763465) scale(0.088 -0.088)">
       <use xlink:href="#ArialMT-31" transform="translate(0 0.99375)"/>
       <use xlink:href="#ArialMT-30" transform="translate(55.615234 0.99375)"/>
       <use xlink:href="#ArialMT-30" transform="translate(112.972813 70.6875) scale(0.7)"/>
      </g>
     </g>
    </g>
    <g id="ytick_29">
     <g id="text_8">
      <!-- $\mathdefault{10^{1}}$ -->
      <g style="fill: #262626" transform="translate(22.702 160.937047) scale(0.088 -0.088)">
       <use xlink:href="#ArialMT-31" transform="translate(0 0.99375)"/>
       <use xlink:href="#ArialMT-30" transform="translate(55.615234 0.99375)"/>
       <use xlink:href="#ArialMT-31" transform="translate(112.972813 70.6875) scale(0.7)"/>
      </g>
     </g>
    </g>
    <g id="ytick_30"/>
    <g id="ytick_31"/>
    <g id="ytick_32"/>
    <g id="ytick_33"/>
    <g id="ytick_34"/>
    <g id="ytick_35"/>
    <g id="ytick_36"/>
    <g id="ytick_37"/>
    <g id="ytick_38"/>
    <g id="ytick_39"/>
    <g id="ytick_40"/>
    <g id="ytick_41"/>
    <g id="ytick_42"/>
    <g id="ytick_43"/>
    <g id="ytick_44"/>
    <g id="ytick_45"/>
    <g id="ytick_46"/>
    <g id="ytick_47"/>
    <g id="ytick_48"/>
    <g id="ytick_49"/>
    <g id="ytick_50"/>
    <g id="ytick_51"/>
    <g id="ytick_52"/>
    <g id="text_9">
     <!-- Fluorescence -->
     <g style="fill: #262626" transform="translate(12.186 240.108977) rotate(-90) scale(0.096 -0.096)">
      <use xlink:href="#ArialMT-46"/>
      <use xlink:href="#ArialMT-6c" x="61.083984"/>
      <use xlink:href="#ArialMT-75" x="83.300781"/>
      <use xlink:href="#ArialMT-6f" x="138.916016"/>
      <use xlink:href="#ArialMT-72" x="194.53125"/>
      <use xlink:href="#ArialMT-65" x="227.832031"/>
      <use xlink:href="#ArialMT-73" x="283.447266"/>
      <use xlink:href="#ArialMT-63" x="333.447266"/>
      <use xlink:href="#ArialMT-65" x="383.447266"/>
      <use xlink:href="#ArialMT-6e" x="439.0625"/>
      <use xlink:href="#ArialMT-63" x="494.677734"/>
      <use xlink:href="#ArialMT-65" x="544.677734"/>
     </g>
    </g>
   </g>
   <g id="line2d_5">
    <path d="M 45.318 247.077191 
L 46.500857 243.113812 
L 47.684473 234.301765 
L 48.321455 226.489445 
L 49.422316 221.409729 
L 50.457886 211.873682 
L 51.571654 205.801611 
L 52.67783 201.875025 
L 52.67783 200.0077 
L 52.67783 199.823547 
L 54.046695 216.774495 
L 55.09593 218.542638 
L 55.972824 219.948007 
L 55.972824 219.573332 
L 55.972824 218.293648 
L 57.163273 223.124033 
L 57.163273 222.431594 
L 57.163273 221.351332 
L 58.128994 225.155061 
L 58.128994 222.186055 
L 58.128994 220.056457 
L 59.345257 230.315949 
L 59.345257 228.432003 
L 59.345257 223.776706 
L 60.291239 230.505739 
L 60.291239 229.127384 
L 60.291239 228.346881 
L 62.964435 232.948494 
L 63.605212 231.585684 
L 63.605212 230.505739 
L 63.605212 227.194344 
L 64.698482 238.190721 
L 64.698482 234.185155 
L 64.698482 232.840043 
L 65.775049 237.62276 
L 65.775049 236.404918 
L 65.775049 234.656048 
L 66.867559 241.843123 
L 66.867559 241.32404 
L 66.867559 239.848434 
L 68.034473 240.006726 
L 68.034473 237.62276 
L 68.034473 233.954105 
L 69.239347 248.03121 
L 69.239347 244.886512 
L 69.239347 243.880901 
L 71.445626 255.450604 
L 71.445626 252.120437 
L 71.445626 249.296955 
L 73.452991 259.969228 
L 73.452991 259.969228 
L 73.452991 259.969228 
L 74.559926 256.969757 
L 74.559926 253.711087 
L 74.559926 253.381888 
L 75.768596 259.969228 
L 75.768596 259.969228 
L 75.768596 259.061766 
L 77.879973 259.969228 
L 79.292873 259.969228 
L 80.103714 259.969228 
L 80.103714 259.969228 
L 80.103714 249.296955 
L 81.154468 259.969228 
L 81.154468 259.969228 
L 81.154468 259.969228 
L 82.200666 259.969228 
L 82.200666 259.969228 
L 82.200666 259.969228 
L 83.331897 259.969228 
L 83.331897 259.969228 
L 83.331897 253.711087 
L 85.662687 259.969228 
L 86.631445 259.969228 
L 86.631445 259.969228 
L 86.631445 259.969228 
L 88.948569 259.969228 
L 88.948569 258.624116 
L 88.948569 258.624116 
L 89.971991 259.969228 
L 91.054632 255.089442 
L 94.251686 256.578179 
L 96.476946 259.969228 
L 97.706115 259.969228 
L 98.680947 259.969228 
L 99.880507 256.578179 
L 101.931906 256.578179 
L 103.263569 259.969228 
L 105.222343 259.969228 
L 109.643253 254.735159 
L 110.817758 259.969228 
L 114.076309 255.089442 
L 117.09267 259.969228 
L 118.559474 258.624116 
L 119.642874 259.969228 
L 121.630499 246.392478 
L 124.880698 259.969228 
L 125.967135 259.061766 
L 129.433711 256.578179 
L 132.555603 254.735159 
L 133.751367 259.969228 
L 134.920558 248.780275 
L 137.391803 259.969228 
L 140.314781 256.578179 
L 141.301001 246.617927 
L 142.344162 247.077191 
L 144.805538 259.969228 
L 147.853027 259.969228 
L 149.088269 259.969228 
L 151.184462 259.969228 
L 152.456147 256.578179 
L 155.455806 259.969228 
L 163.079084 259.969228 
L 166.609434 252.74047 
L 171.968733 256.969757 
L 175.186286 256.969757 
L 178.453948 259.969228 
L 186.095447 249.296955 
" clip-path="url(#p579efcc13a)" style="fill: none; stroke: #44aa99; stroke-width: 3; stroke-linecap: round"/>
   </g>
   <g id="line2d_6">
    <path d="M 45.318 246.16973 
L 46.500857 253.381888 
L 47.684473 237.20789 
L 48.321455 230.601365 
L 49.422316 233.72589 
L 50.457886 221.409729 
L 51.571654 216.14699 
L 52.67783 211.97906 
L 52.67783 211.699367 
L 52.67783 210.620846 
L 54.046695 228.177795 
L 55.09593 226.721456 
L 55.972824 232.098093 
L 55.972824 230.697486 
L 55.972824 230.128076 
L 57.163273 244.07772 
L 57.163273 230.601365 
L 57.163273 230.315949 
L 58.128994 239.691477 
L 58.128994 237.763133 
L 58.128994 236.404918 
L 59.345257 238.481341 
L 59.345257 237.345154 
L 59.345257 237.20789 
L 60.291239 240.985862 
L 60.291239 239.848434 
L 60.291239 235.761281 
L 62.964435 245.949617 
L 63.605212 244.07772 
L 63.605212 240.653723 
L 63.605212 235.261941 
L 64.698482 258.624116 
L 64.698482 250.939133 
L 64.698482 246.16973 
L 65.775049 250.655169 
L 65.775049 246.846141 
L 65.775049 236.404918 
L 66.867559 242.926883 
L 66.867559 241.154182 
L 66.867559 239.691477 
L 68.034473 258.196527 
L 68.034473 244.47772 
L 68.034473 239.535833 
L 69.239347 251.818003 
L 69.239347 249.296955 
L 69.239347 244.07772 
L 71.445626 259.969228 
L 71.445626 256.969757 
L 71.445626 252.120437 
L 73.452991 256.578179 
L 73.452991 253.381888 
L 73.452991 250.655169 
L 74.559926 259.969228 
L 74.559926 256.578179 
L 74.559926 249.296955 
L 75.768596 259.969228 
L 75.768596 259.969228 
L 75.768596 259.969228 
L 77.879973 259.969228 
L 79.292873 259.969228 
L 80.103714 259.969228 
L 80.103714 259.969228 
L 80.103714 244.680993 
L 81.154468 259.969228 
L 81.154468 254.735159 
L 81.154468 253.058414 
L 82.200666 256.969757 
L 82.200666 254.735159 
L 82.200666 250.375476 
L 83.331897 259.969228 
L 83.331897 256.969757 
L 83.331897 255.089442 
L 85.662687 259.969228 
L 86.631445 259.969228 
L 86.631445 259.969228 
L 86.631445 259.969228 
L 88.948569 259.969228 
L 88.948569 259.969228 
L 88.948569 245.949617 
L 89.971991 256.969757 
L 91.054632 259.969228 
L 94.251686 259.969228 
L 96.476946 259.969228 
L 97.706115 255.089442 
L 98.680947 254.735159 
L 99.880507 259.969228 
L 101.931906 259.969228 
L 103.263569 259.969228 
L 105.222343 259.969228 
L 109.643253 259.969228 
L 110.817758 256.969757 
L 114.076309 255.089442 
L 117.09267 259.969228 
L 118.559474 253.381888 
L 119.642874 254.735159 
L 121.630499 249.036821 
L 124.880698 246.16973 
L 125.967135 259.969228 
L 129.433711 258.624116 
L 132.555603 253.058414 
L 133.751367 251.520408 
L 134.920558 259.969228 
L 137.391803 247.788078 
L 140.314781 259.969228 
L 141.301001 259.969228 
L 142.344162 250.375476 
L 144.805538 258.196527 
L 147.853027 259.969228 
L 149.088269 248.03121 
L 151.184462 259.969228 
L 152.456147 254.735159 
L 155.455806 258.196527 
L 163.079084 259.969228 
L 166.609434 256.578179 
L 171.968733 248.03121 
L 175.186286 259.969228 
L 178.453948 251.2275 
L 186.095447 259.969228 
" clip-path="url(#p579efcc13a)" style="fill: none; stroke: #44aa99; stroke-width: 3; stroke-linecap: round"/>
   </g>
   <g id="line2d_7">
    <path d="M 45.318 253.711087 
L 46.500857 255.450604 
L 47.684473 241.668481 
L 48.321455 237.62276 
L 49.422316 235.509935 
L 50.457886 224.247599 
L 51.571654 227.274341 
L 52.67783 237.904573 
L 52.67783 233.954105 
L 52.67783 233.277693 
L 54.046695 259.969228 
L 55.09593 242.926883 
L 55.972824 252.120437 
L 55.972824 249.560779 
L 55.972824 245.949617 
L 57.163273 253.058414 
L 57.163273 250.375476 
L 57.163273 244.07772 
L 58.128994 253.711087 
L 58.128994 246.846141 
L 58.128994 245.949617 
L 59.345257 259.969228 
L 59.345257 246.16973 
L 59.345257 245.949617 
L 60.291239 251.818003 
L 60.291239 247.548084 
L 60.291239 247.077191 
L 62.964435 243.880901 
L 63.605212 255.089442 
L 63.605212 248.03121 
L 63.605212 243.686142 
L 64.698482 257.369757 
L 64.698482 253.381888 
L 64.698482 247.311148 
L 65.775049 259.061766 
L 65.775049 256.969757 
L 65.775049 253.381888 
L 66.867559 259.969228 
L 66.867559 256.578179 
L 66.867559 251.818003 
L 68.034473 258.624116 
L 68.034473 256.578179 
L 68.034473 251.520408 
L 69.239347 259.969228 
L 69.239347 253.711087 
L 69.239347 250.655169 
L 71.445626 259.969228 
L 71.445626 259.061766 
L 71.445626 258.624116 
L 73.452991 259.969228 
L 73.452991 258.624116 
L 73.452991 253.058414 
L 74.559926 259.969228 
L 74.559926 259.061766 
L 74.559926 249.296955 
L 75.768596 259.969228 
L 75.768596 258.624116 
L 75.768596 251.818003 
L 77.879973 259.969228 
L 79.292873 259.969228 
L 80.103714 259.969228 
L 80.103714 258.624116 
L 80.103714 256.969757 
L 81.154468 259.969228 
L 81.154468 259.969228 
L 81.154468 247.788078 
L 82.200666 259.969228 
L 82.200666 259.969228 
L 82.200666 259.969228 
L 83.331897 259.969228 
L 83.331897 259.969228 
L 83.331897 250.375476 
L 85.662687 259.969228 
L 86.631445 259.969228 
L 86.631445 259.969228 
L 86.631445 253.711087 
L 88.948569 259.969228 
L 88.948569 259.969228 
L 88.948569 255.089442 
L 89.971991 253.058414 
L 91.054632 259.969228 
L 94.251686 259.969228 
L 96.476946 256.969757 
L 97.706115 259.969228 
L 98.680947 255.089442 
L 99.880507 253.381888 
L 101.931906 242.926883 
L 103.263569 256.194675 
L 105.222343 252.120437 
L 109.643253 258.624116 
L 110.817758 259.969228 
L 114.076309 256.578179 
L 117.09267 259.969228 
L 118.559474 259.969228 
L 119.642874 259.969228 
L 121.630499 249.036821 
L 124.880698 256.969757 
L 125.967135 251.818003 
L 129.433711 255.089442 
L 132.555603 256.578179 
L 133.751367 254.735159 
L 134.920558 259.969228 
L 137.391803 256.578179 
L 140.314781 253.711087 
L 141.301001 246.392478 
L 142.344162 259.969228 
L 144.805538 258.196527 
L 147.853027 256.969757 
L 149.088269 259.969228 
L 151.184462 252.120437 
L 152.456147 258.196527 
L 155.455806 253.381888 
L 163.079084 259.969228 
L 166.609434 259.969228 
L 171.968733 259.969228 
L 175.186286 259.969228 
L 178.453948 257.778548 
L 186.095447 253.381888 
" clip-path="url(#p579efcc13a)" style="fill: none; stroke: #44aa99; stroke-width: 3; stroke-linecap: round"/>
   </g>
   <g id="line2d_8">
    <path d="M 45.318 239.127042 
L 46.500857 253.933836 
L 47.684473 235.01721 
L 48.321455 227.789139 
L 49.422316 220.627089 
L 50.457886 210.490324 
L 51.571654 199.610982 
L 52.67783 191.301993 
L 54.046695 180.413418 
L 55.09593 183.986052 
L 55.972824 191.141725 
L 57.163273 200.84036 
L 58.128994 201.552727 
L 59.345257 203.123199 
L 60.291239 202.447569 
L 62.964435 207.53056 
L 63.605212 207.982816 
L 64.698482 212.211431 
L 65.775049 217.460665 
L 66.867559 219.852134 
L 68.034473 221.704494 
L 69.239347 229.395005 
L 71.445626 235.24826 
L 73.452991 235.874089 
L 74.559926 240.148571 
L 75.768596 248.499314 
L 77.879973 259.969228 
L 79.292873 259.969228 
L 80.103714 258.865982 
L 81.154468 259.160436 
L 82.200666 257.824529 
L 83.331897 257.235465 
L 85.662687 259.969228 
L 86.631445 257.190916 
L 88.948569 258.672238 
L 89.971991 259.969228 
L 91.054632 258.768858 
L 94.251686 259.969228 
L 96.476946 259.969228 
L 97.706115 259.509963 
L 98.680947 253.711087 
L 99.880507 259.969228 
L 101.931906 259.969228 
L 103.263569 259.359361 
L 105.222343 259.969228 
L 109.643253 256.321633 
L 110.817758 259.509963 
L 114.076309 259.969228 
L 117.09267 258.056155 
L 118.559474 259.969228 
L 119.642874 259.359361 
L 121.630499 259.969228 
L 124.880698 258.768858 
L 125.967135 259.969228 
L 129.433711 258.196527 
L 132.555603 259.969228 
L 133.751367 259.509963 
L 134.920558 258.768858 
L 137.391803 259.969228 
L 140.314781 259.969228 
L 141.301001 257.641284 
L 142.344162 259.509963 
L 144.805538 257.235465 
L 147.853027 258.768858 
L 149.088269 259.969228 
L 151.184462 259.969228 
L 152.456147 259.509963 
L 155.455806 259.969228 
L 163.079084 259.969228 
L 166.609434 259.969228 
L 171.968733 259.509963 
L 175.186286 253.822128 
L 178.453948 259.969228 
L 186.095447 259.969228 
" clip-path="url(#p579efcc13a)" style="fill: none; stroke: #000000; stroke-linecap: round"/>
   </g>
   <g id="patch_6">
    <path d="M 45.318 265.319906 
L 45.318 157.274047 
" style="fill: none; stroke: #262626; stroke-linejoin: miter; stroke-linecap: square"/>
   </g>
   <g id="patch_7">
    <path d="M 45.318 265.319906 
L 198.37575 265.319906 
" style="fill: none; stroke: #262626; stroke-linejoin: miter; stroke-linecap: square"/>
   </g>
   <g id="text_10">
    <!-- Roseovarius 5C3 -->
    <g style="fill: #262626" transform="translate(85.030875 152.274047) scale(0.096 -0.096)">
     <defs>
      <path id="ArialMT-52" d="M 503 0 
L 503 4581 
L 2534 4581 
Q 3147 4581 3465 4457 
Q 3784 4334 3975 4021 
Q 4166 3709 4166 3331 
Q 4166 2844 3850 2509 
Q 3534 2175 2875 2084 
Q 3116 1969 3241 1856 
Q 3506 1613 3744 1247 
L 4541 0 
L 3778 0 
L 3172 953 
Q 2906 1366 2734 1584 
Q 2563 1803 2427 1890 
Q 2291 1978 2150 2013 
Q 2047 2034 1813 2034 
L 1109 2034 
L 1109 0 
L 503 0 
z
M 1109 2559 
L 2413 2559 
Q 2828 2559 3062 2645 
Q 3297 2731 3419 2920 
Q 3541 3109 3541 3331 
Q 3541 3656 3305 3865 
Q 3069 4075 2559 4075 
L 1109 4075 
L 1109 2559 
z
" transform="scale(0.015625)"/>
      <path id="ArialMT-43" d="M 3763 1606 
L 4369 1453 
Q 4178 706 3683 314 
Q 3188 -78 2472 -78 
Q 1731 -78 1267 223 
Q 803 525 561 1097 
Q 319 1669 319 2325 
Q 319 3041 592 3573 
Q 866 4106 1370 4382 
Q 1875 4659 2481 4659 
Q 3169 4659 3637 4309 
Q 4106 3959 4291 3325 
L 3694 3184 
Q 3534 3684 3231 3912 
Q 2928 4141 2469 4141 
Q 1941 4141 1586 3887 
Q 1231 3634 1087 3207 
Q 944 2781 944 2328 
Q 944 1744 1114 1308 
Q 1284 872 1643 656 
Q 2003 441 2422 441 
Q 2931 441 3284 734 
Q 3638 1028 3763 1606 
z
" transform="scale(0.015625)"/>
     </defs>
     <use xlink:href="#ArialMT-52"/>
     <use xlink:href="#ArialMT-6f" x="72.216797"/>
     <use xlink:href="#ArialMT-73" x="127.832031"/>
     <use xlink:href="#ArialMT-65" x="177.832031"/>
     <use xlink:href="#ArialMT-6f" x="233.447266"/>
     <use xlink:href="#ArialMT-76" x="289.0625"/>
     <use xlink:href="#ArialMT-61" x="339.0625"/>
     <use xlink:href="#ArialMT-72" x="394.677734"/>
     <use xlink:href="#ArialMT-69" x="427.978516"/>
     <use xlink:href="#ArialMT-75" x="450.195312"/>
     <use xlink:href="#ArialMT-73" x="505.810547"/>
     <use xlink:href="#ArialMT-20" x="555.810547"/>
     <use xlink:href="#ArialMT-35" x="583.59375"/>
     <use xlink:href="#ArialMT-43" x="639.208984"/>
     <use xlink:href="#ArialMT-33" x="711.425781"/>
    </g>
   </g>
  </g>
  <g id="axes_3">
   <g id="patch_8">
    <path d="M 45.318 400.025953 
L 198.37575 400.025953 
L 198.37575 291.980094 
L 45.318 291.980094 
z
" style="fill: #ffffff"/>
   </g>
   <g id="matplotlib.axis_5">
    <g id="xtick_7"/>
    <g id="xtick_8"/>
    <g id="xtick_9"/>
   </g>
   <g id="matplotlib.axis_6">
    <g id="ytick_53">
     <g id="text_11">
      <!-- $\mathdefault{10^{-1}}$ -->
      <g style="fill: #262626" transform="translate(19.094 381.295929) scale(0.088 -0.088)">
       <use xlink:href="#ArialMT-31" transform="translate(0 0.99375)"/>
       <use xlink:href="#ArialMT-30" transform="translate(55.615234 0.99375)"/>
       <use xlink:href="#ArialMT-2212" transform="translate(112.972813 70.6875) scale(0.7)"/>
       <use xlink:href="#ArialMT-31" transform="translate(153.851719 70.6875) scale(0.7)"/>
      </g>
     </g>
    </g>
    <g id="ytick_54">
     <g id="text_12">
      <!-- $\mathdefault{10^{0}}$ -->
      <g style="fill: #262626" transform="translate(22.702 338.469512) scale(0.088 -0.088)">
       <use xlink:href="#ArialMT-31" transform="translate(0 0.99375)"/>
       <use xlink:href="#ArialMT-30" transform="translate(55.615234 0.99375)"/>
       <use xlink:href="#ArialMT-30" transform="translate(112.972813 70.6875) scale(0.7)"/>
      </g>
     </g>
    </g>
    <g id="ytick_55">
     <g id="text_13">
      <!-- $\mathdefault{10^{1}}$ -->
      <g style="fill: #262626" transform="translate(22.702 295.643094) scale(0.088 -0.088)">
       <use xlink:href="#ArialMT-31" transform="translate(0 0.99375)"/>
       <use xlink:href="#ArialMT-30" transform="translate(55.615234 0.99375)"/>
       <use xlink:href="#ArialMT-31" transform="translate(112.972813 70.6875) scale(0.7)"/>
      </g>
     </g>
    </g>
    <g id="ytick_56"/>
    <g id="ytick_57"/>
    <g id="ytick_58"/>
    <g id="ytick_59"/>
    <g id="ytick_60"/>
    <g id="ytick_61"/>
    <g id="ytick_62"/>
    <g id="ytick_63"/>
    <g id="ytick_64"/>
    <g id="ytick_65"/>
    <g id="ytick_66"/>
    <g id="ytick_67"/>
    <g id="ytick_68"/>
    <g id="ytick_69"/>
    <g id="ytick_70"/>
    <g id="ytick_71"/>
    <g id="ytick_72"/>
    <g id="ytick_73"/>
    <g id="ytick_74"/>
    <g id="ytick_75"/>
    <g id="ytick_76"/>
    <g id="ytick_77"/>
    <g id="ytick_78"/>
    <g id="text_14">
     <!-- Fluorescence -->
     <g style="fill: #262626" transform="translate(12.186 374.815023) rotate(-90) scale(0.096 -0.096)">
      <use xlink:href="#ArialMT-46"/>
      <use xlink:href="#ArialMT-6c" x="61.083984"/>
      <use xlink:href="#ArialMT-75" x="83.300781"/>
      <use xlink:href="#ArialMT-6f" x="138.916016"/>
      <use xlink:href="#ArialMT-72" x="194.53125"/>
      <use xlink:href="#ArialMT-65" x="227.832031"/>
      <use xlink:href="#ArialMT-73" x="283.447266"/>
      <use xlink:href="#ArialMT-63" x="333.447266"/>
      <use xlink:href="#ArialMT-65" x="383.447266"/>
      <use xlink:href="#ArialMT-6e" x="439.0625"/>
      <use xlink:href="#ArialMT-63" x="494.677734"/>
      <use xlink:href="#ArialMT-65" x="544.677734"/>
     </g>
    </g>
   </g>
   <g id="line2d_9">
    <path d="M 45.318 376.374528 
L 46.500857 385.081523 
L 47.684473 376.54917 
L 48.321455 379.592559 
L 49.422316 380.875776 
L 50.457886 380.010538 
L 51.571654 378.008685 
L 52.67783 393.767813 
L 52.67783 380.438126 
L 52.67783 379.592559 
L 54.046695 381.552188 
L 55.09593 372.189486 
L 55.972824 386.826484 
L 55.972824 381.098525 
L 55.972824 379.800374 
L 57.163273 385.361216 
L 57.163273 376.725468 
L 57.163273 375.860229 
L 58.128994 381.783238 
L 58.128994 380.655664 
L 58.128994 378.008685 
L 59.345257 385.361216 
L 59.345257 384.266826 
L 59.345257 382.737256 
L 60.291239 393.330163 
L 60.291239 389.795489 
L 60.291239 381.783238 
L 62.964435 380.655664 
L 63.605212 381.783238 
L 63.605212 378.783767 
L 63.605212 377.819858 
L 64.698482 385.64518 
L 64.698482 384.003002 
L 64.698482 382.494125 
L 65.775049 386.826484 
L 65.775049 382.983608 
L 65.775049 378.586948 
L 66.867559 387.764461 
L 66.867559 376.903453 
L 66.867559 376.725468 
L 68.034473 386.52405 
L 68.034473 381.323973 
L 68.034473 371.242409 
L 69.239347 385.081523 
L 69.239347 382.737256 
L 69.239347 380.875776 
L 71.445626 388.087935 
L 71.445626 378.783767 
L 71.445626 376.030087 
L 73.452991 385.081523 
L 73.452991 380.438126 
L 73.452991 380.223103 
L 74.559926 394.675275 
L 74.559926 385.361216 
L 74.559926 384.003002 
L 75.768596 385.361216 
L 75.768596 385.361216 
L 75.768596 382.737256 
L 77.879973 384.805973 
L 79.292873 394.675275 
L 80.103714 385.64518 
L 80.103714 384.003002 
L 80.103714 384.003002 
L 81.154468 384.805973 
L 81.154468 383.742868 
L 81.154468 378.199449 
L 82.200666 394.675275 
L 82.200666 386.52405 
L 82.200666 384.003002 
L 83.331897 388.417134 
L 83.331897 380.438126 
L 83.331897 377.447861 
L 85.662687 394.675275 
L 86.631445 394.675275 
L 86.631445 390.156651 
L 86.631445 381.098525 
L 88.948569 389.795489 
L 88.948569 388.087935 
L 88.948569 377.819858 
L 89.971991 386.52405 
L 91.054632 385.081523 
L 94.251686 394.675275 
L 96.476946 385.361216 
L 97.706115 382.983608 
L 98.680947 389.441206 
L 99.880507 385.081523 
L 101.931906 394.675275 
L 103.263569 374.24188 
L 105.222343 373.934447 
L 109.643253 378.586948 
L 110.817758 391.284225 
L 114.076309 389.795489 
L 117.09267 378.392189 
L 118.559474 378.586948 
L 119.642874 391.284225 
L 121.630499 375.860229 
L 124.880698 381.783238 
L 125.967135 382.494125 
L 129.433711 382.737256 
L 132.555603 374.397524 
L 133.751367 383.486322 
L 134.920558 381.323973 
L 137.391803 394.675275 
L 140.314781 385.081523 
L 141.301001 394.675275 
L 142.344162 385.361216 
L 144.805538 387.764461 
L 147.853027 381.552188 
L 149.088269 394.675275 
L 151.184462 379.38704 
L 152.456147 381.323973 
L 155.455806 386.226455 
L 163.079084 379.592559 
L 166.609434 385.081523 
L 171.968733 375.195899 
L 175.186286 384.003002 
L 178.453948 384.534446 
L 186.095447 379.592559 
" clip-path="url(#pa5f2ae6a52)" style="fill: none; stroke: #332288; stroke-width: 3; stroke-linecap: round"/>
   </g>
   <g id="line2d_10">
    <path d="M 45.318 369.007812 
L 46.500857 388.417134 
L 47.684473 376.20151 
L 48.321455 378.783767 
L 49.422316 385.64518 
L 50.457886 377.819858 
L 51.571654 382.983608 
L 52.67783 385.361216 
L 52.67783 382.983608 
L 52.67783 376.20151 
L 54.046695 381.783238 
L 55.09593 374.554481 
L 55.972824 377.632929 
L 55.972824 376.030087 
L 55.972824 374.872425 
L 57.163273 381.552188 
L 57.163273 377.447861 
L 57.163273 377.083157 
L 58.128994 382.983608 
L 58.128994 379.592559 
L 58.128994 378.783767 
L 59.345257 384.003002 
L 59.345257 381.783238 
L 59.345257 380.875776 
L 60.291239 380.655664 
L 60.291239 376.903453 
L 60.291239 376.030087 
L 62.964435 376.030087 
L 63.605212 383.742868 
L 63.605212 379.183767 
L 63.605212 376.903453 
L 64.698482 387.446517 
L 64.698482 379.592559 
L 64.698482 378.586948 
L 65.775049 378.783767 
L 65.775049 373.782616 
L 65.775049 372.46918 
L 66.867559 391.675804 
L 66.867559 384.266826 
L 66.867559 379.592559 
L 68.034473 394.675275 
L 68.034473 391.675804 
L 68.034473 389.795489 
L 69.239347 385.361216 
L 69.239347 378.783767 
L 69.239347 372.896768 
L 71.445626 385.361216 
L 71.445626 381.783238 
L 71.445626 378.783767 
L 73.452991 388.087935 
L 73.452991 386.52405 
L 73.452991 377.819858 
L 74.559926 394.675275 
L 74.559926 391.675804 
L 74.559926 386.826484 
L 75.768596 391.675804 
L 75.768596 385.361216 
L 75.768596 379.800374 
L 77.879973 389.093546 
L 79.292873 394.675275 
L 80.103714 381.552188 
L 80.103714 380.655664 
L 80.103714 380.655664 
L 81.154468 389.795489 
L 81.154468 386.52405 
L 81.154468 380.010538 
L 82.200666 393.767813 
L 82.200666 383.742868 
L 82.200666 380.438126 
L 83.331897 394.675275 
L 83.331897 391.284225 
L 83.331897 376.903453 
L 85.662687 394.675275 
L 86.631445 394.675275 
L 86.631445 388.417134 
L 86.631445 378.008685 
L 88.948569 394.675275 
L 88.948569 388.087935 
L 88.948569 384.003002 
L 89.971991 382.983608 
L 91.054632 391.675804 
L 94.251686 382.737256 
L 96.476946 388.417134 
L 97.706115 380.655664 
L 98.680947 385.081523 
L 99.880507 386.52405 
L 101.931906 378.586948 
L 103.263569 383.486322 
L 105.222343 380.655664 
L 109.643253 379.38704 
L 110.817758 378.392189 
L 114.076309 391.675804 
L 117.09267 381.552188 
L 118.559474 380.438126 
L 119.642874 390.524966 
L 121.630499 380.223103 
L 124.880698 387.764461 
L 125.967135 388.087935 
L 129.433711 380.223103 
L 132.555603 382.494125 
L 133.751367 376.030087 
L 134.920558 371.913936 
L 137.391803 382.494125 
L 140.314781 382.737256 
L 141.301001 377.264615 
L 142.344162 380.438126 
L 144.805538 384.805973 
L 147.853027 381.783238 
L 149.088269 383.742868 
L 151.184462 381.783238 
L 152.456147 378.199449 
L 155.455806 378.392189 
L 163.079084 372.328807 
L 166.609434 376.725468 
L 171.968733 379.592559 
L 175.186286 389.795489 
L 178.453948 378.586948 
L 186.095447 382.737256 
" clip-path="url(#pa5f2ae6a52)" style="fill: none; stroke: #332288; stroke-width: 3; stroke-linecap: round"/>
   </g>
   <g id="line2d_11">
    <path d="M 45.318 366.80414 
L 46.500857 386.826484 
L 47.684473 384.003002 
L 48.321455 378.586948 
L 49.422316 378.783767 
L 50.457886 375.525098 
L 51.571654 378.392189 
L 52.67783 380.655664 
L 52.67783 376.20151 
L 52.67783 374.397524 
L 54.046695 380.655664 
L 55.09593 370.594285 
L 55.972824 382.983608 
L 55.972824 382.017194 
L 55.972824 378.982692 
L 57.163273 384.003002 
L 57.163273 381.552188 
L 57.163273 379.592559 
L 58.128994 385.64518 
L 58.128994 380.655664 
L 58.128994 378.586948 
L 59.345257 391.675804 
L 59.345257 388.087935 
L 59.345257 379.800374 
L 60.291239 384.003002 
L 60.291239 379.592559 
L 60.291239 378.008685 
L 62.964435 378.783767 
L 63.605212 394.675275 
L 63.605212 386.52405 
L 63.605212 382.983608 
L 64.698482 386.52405 
L 64.698482 384.003002 
L 64.698482 382.737256 
L 65.775049 389.795489 
L 65.775049 385.081523 
L 65.775049 378.392189 
L 66.867559 388.087935 
L 66.867559 381.783238 
L 66.867559 378.783767 
L 68.034473 387.764461 
L 68.034473 386.52405 
L 68.034473 384.003002 
L 69.239347 389.795489 
L 69.239347 386.826484 
L 69.239347 377.632929 
L 71.445626 381.783238 
L 71.445626 378.392189 
L 71.445626 378.008685 
L 73.452991 394.675275 
L 73.452991 381.552188 
L 73.452991 378.783767 
L 74.559926 391.675804 
L 74.559926 384.003002 
L 74.559926 375.35977 
L 75.768596 394.675275 
L 75.768596 394.675275 
L 75.768596 391.675804 
L 77.879973 392.902574 
L 79.292873 394.675275 
L 80.103714 388.087935 
L 80.103714 386.52405 
L 80.103714 381.323973 
L 81.154468 386.226455 
L 81.154468 383.742868 
L 81.154468 380.438126 
L 82.200666 387.764461 
L 82.200666 382.737256 
L 82.200666 380.438126 
L 83.331897 390.156651 
L 83.331897 384.266826 
L 83.331897 375.35977 
L 85.662687 394.675275 
L 86.631445 385.64518 
L 86.631445 385.081523 
L 86.631445 382.737256 
L 88.948569 382.737256 
L 88.948569 378.783767 
L 88.948569 377.819858 
L 89.971991 385.361216 
L 91.054632 383.742868 
L 94.251686 384.003002 
L 96.476946 392.075804 
L 97.706115 386.826484 
L 98.680947 386.52405 
L 99.880507 394.675275 
L 101.931906 375.860229 
L 103.263569 383.742868 
L 105.222343 378.982692 
L 109.643253 376.030087 
L 110.817758 385.081523 
L 114.076309 382.737256 
L 117.09267 382.494125 
L 118.559474 388.087935 
L 119.642874 386.226455 
L 121.630499 382.737256 
L 124.880698 378.982692 
L 125.967135 372.46918 
L 129.433711 375.195899 
L 132.555603 380.438126 
L 133.751367 380.010538 
L 134.920558 382.254131 
L 137.391803 380.223103 
L 140.314781 386.826484 
L 141.301001 386.226455 
L 142.344162 385.081523 
L 144.805538 378.199449 
L 147.853027 388.087935 
L 149.088269 385.081523 
L 151.184462 393.330163 
L 152.456147 377.447861 
L 155.455806 378.392189 
L 163.079084 389.441206 
L 166.609434 391.284225 
L 171.968733 382.494125 
L 175.186286 389.795489 
L 178.453948 379.800374 
L 186.095447 373.041511 
" clip-path="url(#pa5f2ae6a52)" style="fill: none; stroke: #332288; stroke-width: 3; stroke-linecap: round"/>
   </g>
   <g id="line2d_12">
    <path d="M 45.318 373.833089 
L 46.500857 388.639883 
L 47.684473 369.723257 
L 48.321455 362.495186 
L 49.422316 355.333135 
L 50.457886 345.196371 
L 51.571654 334.317029 
L 52.67783 326.008039 
L 54.046695 315.119465 
L 55.09593 318.692099 
L 55.972824 325.847772 
L 57.163273 335.546407 
L 58.128994 336.258774 
L 59.345257 337.829246 
L 60.291239 337.153616 
L 62.964435 342.236607 
L 63.605212 342.688863 
L 64.698482 346.917478 
L 65.775049 352.166712 
L 66.867559 354.558181 
L 68.034473 356.410541 
L 69.239347 364.101051 
L 71.445626 369.954307 
L 73.452991 370.580136 
L 74.559926 374.854618 
L 75.768596 383.205361 
L 77.879973 394.675275 
L 79.292873 394.675275 
L 80.103714 393.572029 
L 81.154468 393.866483 
L 82.200666 392.530576 
L 83.331897 391.941512 
L 85.662687 394.675275 
L 86.631445 391.896963 
L 88.948569 393.378285 
L 89.971991 394.675275 
L 91.054632 393.474905 
L 94.251686 394.675275 
L 96.476946 394.675275 
L 97.706115 394.21601 
L 98.680947 388.417134 
L 99.880507 394.675275 
L 101.931906 394.675275 
L 103.263569 394.065408 
L 105.222343 394.675275 
L 109.643253 391.02768 
L 110.817758 394.21601 
L 114.076309 394.675275 
L 117.09267 392.762202 
L 118.559474 394.675275 
L 119.642874 394.065408 
L 121.630499 394.675275 
L 124.880698 393.474905 
L 125.967135 394.675275 
L 129.433711 392.902574 
L 132.555603 394.675275 
L 133.751367 394.21601 
L 134.920558 393.474905 
L 137.391803 394.675275 
L 140.314781 394.675275 
L 141.301001 392.347331 
L 142.344162 394.21601 
L 144.805538 391.941512 
L 147.853027 393.474905 
L 149.088269 394.675275 
L 151.184462 394.675275 
L 152.456147 394.21601 
L 155.455806 394.675275 
L 163.079084 394.675275 
L 166.609434 394.675275 
L 171.968733 394.21601 
L 175.186286 388.528175 
L 178.453948 394.675275 
L 186.095447 394.675275 
" clip-path="url(#pa5f2ae6a52)" style="fill: none; stroke: #000000; stroke-linecap: round"/>
   </g>
   <g id="patch_9">
    <path d="M 45.318 400.025953 
L 45.318 291.980094 
" style="fill: none; stroke: #262626; stroke-linejoin: miter; stroke-linecap: square"/>
   </g>
   <g id="patch_10">
    <path d="M 45.318 400.025953 
L 198.37575 400.025953 
" style="fill: none; stroke: #262626; stroke-linejoin: miter; stroke-linecap: square"/>
   </g>
   <g id="text_15">
    <!-- Marinobacter adhaerens HP15 -->
    <g style="fill: #262626" transform="translate(56.479875 286.980094) scale(0.096 -0.096)">
     <defs>
      <path id="ArialMT-62" d="M 941 0 
L 419 0 
L 419 4581 
L 981 4581 
L 981 2947 
Q 1338 3394 1891 3394 
Q 2197 3394 2470 3270 
Q 2744 3147 2920 2923 
Q 3097 2700 3197 2384 
Q 3297 2069 3297 1709 
Q 3297 856 2875 390 
Q 2453 -75 1863 -75 
Q 1275 -75 941 416 
L 941 0 
z
M 934 1684 
Q 934 1088 1097 822 
Q 1363 388 1816 388 
Q 2184 388 2453 708 
Q 2722 1028 2722 1663 
Q 2722 2313 2464 2622 
Q 2206 2931 1841 2931 
Q 1472 2931 1203 2611 
Q 934 2291 934 1684 
z
" transform="scale(0.015625)"/>
      <path id="ArialMT-74" d="M 1650 503 
L 1731 6 
Q 1494 -44 1306 -44 
Q 1000 -44 831 53 
Q 663 150 594 308 
Q 525 466 525 972 
L 525 2881 
L 113 2881 
L 113 3319 
L 525 3319 
L 525 4141 
L 1084 4478 
L 1084 3319 
L 1650 3319 
L 1650 2881 
L 1084 2881 
L 1084 941 
Q 1084 700 1114 631 
Q 1144 563 1211 522 
Q 1278 481 1403 481 
Q 1497 481 1650 503 
z
" transform="scale(0.015625)"/>
      <path id="ArialMT-64" d="M 2575 0 
L 2575 419 
Q 2259 -75 1647 -75 
Q 1250 -75 917 144 
Q 584 363 401 755 
Q 219 1147 219 1656 
Q 219 2153 384 2558 
Q 550 2963 881 3178 
Q 1213 3394 1622 3394 
Q 1922 3394 2156 3267 
Q 2391 3141 2538 2938 
L 2538 4581 
L 3097 4581 
L 3097 0 
L 2575 0 
z
M 797 1656 
Q 797 1019 1065 703 
Q 1334 388 1700 388 
Q 2069 388 2326 689 
Q 2584 991 2584 1609 
Q 2584 2291 2321 2609 
Q 2059 2928 1675 2928 
Q 1300 2928 1048 2622 
Q 797 2316 797 1656 
z
" transform="scale(0.015625)"/>
      <path id="ArialMT-68" d="M 422 0 
L 422 4581 
L 984 4581 
L 984 2938 
Q 1378 3394 1978 3394 
Q 2347 3394 2619 3248 
Q 2891 3103 3008 2847 
Q 3125 2591 3125 2103 
L 3125 0 
L 2563 0 
L 2563 2103 
Q 2563 2525 2380 2717 
Q 2197 2909 1863 2909 
Q 1613 2909 1392 2779 
Q 1172 2650 1078 2428 
Q 984 2206 984 1816 
L 984 0 
L 422 0 
z
" transform="scale(0.015625)"/>
      <path id="ArialMT-48" d="M 513 0 
L 513 4581 
L 1119 4581 
L 1119 2700 
L 3500 2700 
L 3500 4581 
L 4106 4581 
L 4106 0 
L 3500 0 
L 3500 2159 
L 1119 2159 
L 1119 0 
L 513 0 
z
" transform="scale(0.015625)"/>
      <path id="ArialMT-50" d="M 494 0 
L 494 4581 
L 2222 4581 
Q 2678 4581 2919 4538 
Q 3256 4481 3484 4323 
Q 3713 4166 3852 3881 
Q 3991 3597 3991 3256 
Q 3991 2672 3619 2267 
Q 3247 1863 2275 1863 
L 1100 1863 
L 1100 0 
L 494 0 
z
M 1100 2403 
L 2284 2403 
Q 2872 2403 3119 2622 
Q 3366 2841 3366 3238 
Q 3366 3525 3220 3729 
Q 3075 3934 2838 4000 
Q 2684 4041 2272 4041 
L 1100 4041 
L 1100 2403 
z
" transform="scale(0.015625)"/>
     </defs>
     <use xlink:href="#ArialMT-4d"/>
     <use xlink:href="#ArialMT-61" x="83.300781"/>
     <use xlink:href="#ArialMT-72" x="138.916016"/>
     <use xlink:href="#ArialMT-69" x="172.216797"/>
     <use xlink:href="#ArialMT-6e" x="194.433594"/>
     <use xlink:href="#ArialMT-6f" x="250.048828"/>
     <use xlink:href="#ArialMT-62" x="305.664062"/>
     <use xlink:href="#ArialMT-61" x="361.279297"/>
     <use xlink:href="#ArialMT-63" x="416.894531"/>
     <use xlink:href="#ArialMT-74" x="466.894531"/>
     <use xlink:href="#ArialMT-65" x="494.677734"/>
     <use xlink:href="#ArialMT-72" x="550.292969"/>
     <use xlink:href="#ArialMT-20" x="583.59375"/>
     <use xlink:href="#ArialMT-61" x="611.376953"/>
     <use xlink:href="#ArialMT-64" x="666.992188"/>
     <use xlink:href="#ArialMT-68" x="722.607422"/>
     <use xlink:href="#ArialMT-61" x="778.222656"/>
     <use xlink:href="#ArialMT-65" x="833.837891"/>
     <use xlink:href="#ArialMT-72" x="889.453125"/>
     <use xlink:href="#ArialMT-65" x="922.753906"/>
     <use xlink:href="#ArialMT-6e" x="978.369141"/>
     <use xlink:href="#ArialMT-73" x="1033.984375"/>
     <use xlink:href="#ArialMT-20" x="1083.984375"/>
     <use xlink:href="#ArialMT-48" x="1111.767578"/>
     <use xlink:href="#ArialMT-50" x="1183.984375"/>
     <use xlink:href="#ArialMT-31" x="1250.683594"/>
     <use xlink:href="#ArialMT-35" x="1306.298828"/>
    </g>
   </g>
  </g>
  <g id="axes_4">
   <g id="patch_11">
    <path d="M 45.318 534.732 
L 198.37575 534.732 
L 198.37575 426.686141 
L 45.318 426.686141 
z
" style="fill: #ffffff"/>
   </g>
   <g id="matplotlib.axis_7">
    <g id="xtick_10">
     <g id="text_16">
      <!-- 0 -->
      <g style="fill: #262626" transform="translate(42.871188 549.830875) scale(0.088 -0.088)">
       <use xlink:href="#ArialMT-30"/>
      </g>
     </g>
    </g>
    <g id="xtick_11">
     <g id="text_17">
      <!-- 60 -->
      <g style="fill: #262626" transform="translate(106.020554 549.830875) scale(0.088 -0.088)">
       <defs>
        <path id="ArialMT-36" d="M 3184 3459 
L 2625 3416 
Q 2550 3747 2413 3897 
Q 2184 4138 1850 4138 
Q 1581 4138 1378 3988 
Q 1113 3794 959 3422 
Q 806 3050 800 2363 
Q 1003 2672 1297 2822 
Q 1591 2972 1913 2972 
Q 2475 2972 2870 2558 
Q 3266 2144 3266 1488 
Q 3266 1056 3080 686 
Q 2894 316 2569 119 
Q 2244 -78 1831 -78 
Q 1128 -78 684 439 
Q 241 956 241 2144 
Q 241 3472 731 4075 
Q 1159 4600 1884 4600 
Q 2425 4600 2770 4297 
Q 3116 3994 3184 3459 
z
M 888 1484 
Q 888 1194 1011 928 
Q 1134 663 1356 523 
Q 1578 384 1822 384 
Q 2178 384 2434 671 
Q 2691 959 2691 1453 
Q 2691 1928 2437 2201 
Q 2184 2475 1800 2475 
Q 1419 2475 1153 2201 
Q 888 1928 888 1484 
z
" transform="scale(0.015625)"/>
       </defs>
       <use xlink:href="#ArialMT-36"/>
       <use xlink:href="#ArialMT-30" x="55.615234"/>
      </g>
     </g>
    </g>
    <g id="xtick_12">
     <g id="text_18">
      <!-- 120 -->
      <g style="fill: #262626" transform="translate(169.16992 549.830875) scale(0.088 -0.088)">
       <defs>
        <path id="ArialMT-32" d="M 3222 541 
L 3222 0 
L 194 0 
Q 188 203 259 391 
Q 375 700 629 1000 
Q 884 1300 1366 1694 
Q 2113 2306 2375 2664 
Q 2638 3022 2638 3341 
Q 2638 3675 2398 3904 
Q 2159 4134 1775 4134 
Q 1369 4134 1125 3890 
Q 881 3647 878 3216 
L 300 3275 
Q 359 3922 746 4261 
Q 1134 4600 1788 4600 
Q 2447 4600 2831 4234 
Q 3216 3869 3216 3328 
Q 3216 3053 3103 2787 
Q 2991 2522 2730 2228 
Q 2469 1934 1863 1422 
Q 1356 997 1212 845 
Q 1069 694 975 541 
L 3222 541 
z
" transform="scale(0.015625)"/>
       </defs>
       <use xlink:href="#ArialMT-31"/>
       <use xlink:href="#ArialMT-32" x="55.615234"/>
       <use xlink:href="#ArialMT-30" x="111.230469"/>
      </g>
     </g>
    </g>
    <g id="text_19">
     <!-- day -->
     <g style="fill: #262626" transform="translate(114.108375 563.451375) scale(0.096 -0.096)">
      <defs>
       <path id="ArialMT-79" d="M 397 -1278 
L 334 -750 
Q 519 -800 656 -800 
Q 844 -800 956 -737 
Q 1069 -675 1141 -563 
Q 1194 -478 1313 -144 
Q 1328 -97 1363 -6 
L 103 3319 
L 709 3319 
L 1400 1397 
Q 1534 1031 1641 628 
Q 1738 1016 1872 1384 
L 2581 3319 
L 3144 3319 
L 1881 -56 
Q 1678 -603 1566 -809 
Q 1416 -1088 1222 -1217 
Q 1028 -1347 759 -1347 
Q 597 -1347 397 -1278 
z
" transform="scale(0.015625)"/>
      </defs>
      <use xlink:href="#ArialMT-64"/>
      <use xlink:href="#ArialMT-61" x="55.615234"/>
      <use xlink:href="#ArialMT-79" x="111.230469"/>
     </g>
    </g>
   </g>
   <g id="matplotlib.axis_8">
    <g id="ytick_79">
     <g id="text_20">
      <!-- $\mathdefault{10^{-1}}$ -->
      <g style="fill: #262626" transform="translate(19.094 516.001976) scale(0.088 -0.088)">
       <use xlink:href="#ArialMT-31" transform="translate(0 0.99375)"/>
       <use xlink:href="#ArialMT-30" transform="translate(55.615234 0.99375)"/>
       <use xlink:href="#ArialMT-2212" transform="translate(112.972813 70.6875) scale(0.7)"/>
       <use xlink:href="#ArialMT-31" transform="translate(153.851719 70.6875) scale(0.7)"/>
      </g>
     </g>
    </g>
    <g id="ytick_80">
     <g id="text_21">
      <!-- $\mathdefault{10^{0}}$ -->
      <g style="fill: #262626" transform="translate(22.702 473.175558) scale(0.088 -0.088)">
       <use xlink:href="#ArialMT-31" transform="translate(0 0.99375)"/>
       <use xlink:href="#ArialMT-30" transform="translate(55.615234 0.99375)"/>
       <use xlink:href="#ArialMT-30" transform="translate(112.972813 70.6875) scale(0.7)"/>
      </g>
     </g>
    </g>
    <g id="ytick_81">
     <g id="text_22">
      <!-- $\mathdefault{10^{1}}$ -->
      <g style="fill: #262626" transform="translate(22.702 430.349141) scale(0.088 -0.088)">
       <use xlink:href="#ArialMT-31" transform="translate(0 0.99375)"/>
       <use xlink:href="#ArialMT-30" transform="translate(55.615234 0.99375)"/>
       <use xlink:href="#ArialMT-31" transform="translate(112.972813 70.6875) scale(0.7)"/>
      </g>
     </g>
    </g>
    <g id="ytick_82"/>
    <g id="ytick_83"/>
    <g id="ytick_84"/>
    <g id="ytick_85"/>
    <g id="ytick_86"/>
    <g id="ytick_87"/>
    <g id="ytick_88"/>
    <g id="ytick_89"/>
    <g id="ytick_90"/>
    <g id="ytick_91"/>
    <g id="ytick_92"/>
    <g id="ytick_93"/>
    <g id="ytick_94"/>
    <g id="ytick_95"/>
    <g id="ytick_96"/>
    <g id="ytick_97"/>
    <g id="ytick_98"/>
    <g id="ytick_99"/>
    <g id="ytick_100"/>
    <g id="ytick_101"/>
    <g id="ytick_102"/>
    <g id="ytick_103"/>
    <g id="ytick_104"/>
    <g id="text_23">
     <!-- Fluorescence -->
     <g style="fill: #262626" transform="translate(12.186 509.52107) rotate(-90) scale(0.096 -0.096)">
      <use xlink:href="#ArialMT-46"/>
      <use xlink:href="#ArialMT-6c" x="61.083984"/>
      <use xlink:href="#ArialMT-75" x="83.300781"/>
      <use xlink:href="#ArialMT-6f" x="138.916016"/>
      <use xlink:href="#ArialMT-72" x="194.53125"/>
      <use xlink:href="#ArialMT-65" x="227.832031"/>
      <use xlink:href="#ArialMT-73" x="283.447266"/>
      <use xlink:href="#ArialMT-63" x="333.447266"/>
      <use xlink:href="#ArialMT-65" x="383.447266"/>
      <use xlink:href="#ArialMT-6e" x="439.0625"/>
      <use xlink:href="#ArialMT-63" x="494.677734"/>
      <use xlink:href="#ArialMT-65" x="544.677734"/>
     </g>
    </g>
   </g>
   <g id="line2d_13">
    <path d="M 45.318 508.040465 
L 46.500857 524.501536 
L 47.684473 518.972872 
L 48.321455 529.381321 
L 49.422316 526.381851 
L 50.457886 526.78185 
L 51.571654 529.381321 
L 52.67783 529.381321 
L 52.67783 526.381851 
L 52.67783 525.990272 
L 54.046695 529.381321 
L 55.09593 511.789204 
L 55.972824 529.381321 
L 55.972824 528.036209 
L 55.972824 523.123181 
L 57.163273 529.381321 
L 57.163273 524.862698 
L 57.163273 521.230097 
L 58.128994 529.381321 
L 58.128994 529.381321 
L 58.128994 529.381321 
L 59.345257 529.381321 
L 59.345257 529.381321 
L 59.345257 526.381851 
L 60.291239 529.381321 
L 60.291239 529.381321 
L 60.291239 529.381321 
L 62.964435 529.381321 
L 63.605212 529.381321 
L 63.605212 529.381321 
L 63.605212 529.381321 
L 64.698482 529.381321 
L 64.698482 529.381321 
L 64.698482 529.381321 
L 65.775049 529.381321 
L 65.775049 529.381321 
L 65.775049 529.381321 
L 66.867559 529.381321 
L 66.867559 529.381321 
L 66.867559 529.381321 
L 68.034473 529.381321 
L 68.034473 529.381321 
L 68.034473 526.381851 
L 69.239347 529.381321 
L 69.239347 529.381321 
L 69.239347 529.381321 
L 71.445626 529.381321 
L 71.445626 529.381321 
L 71.445626 524.862698 
L 73.452991 529.381321 
L 73.452991 529.381321 
L 73.452991 520.067263 
L 74.559926 529.381321 
L 74.559926 529.381321 
L 74.559926 529.381321 
L 75.768596 529.381321 
L 75.768596 529.381321 
L 75.768596 528.036209 
L 77.879973 529.381321 
L 79.292873 529.381321 
L 80.103714 529.381321 
L 80.103714 529.381321 
L 80.103714 528.036209 
L 81.154468 529.381321 
L 81.154468 529.381321 
L 81.154468 521.230097 
L 82.200666 529.381321 
L 82.200666 524.501536 
L 82.200666 521.230097 
L 83.331897 529.381321 
L 83.331897 529.381321 
L 83.331897 529.381321 
L 85.662687 529.381321 
L 86.631445 529.381321 
L 86.631445 529.381321 
L 86.631445 521.532531 
L 88.948569 529.381321 
L 88.948569 528.036209 
L 88.948569 528.036209 
L 89.971991 521.532531 
L 91.054632 529.381321 
L 94.251686 528.47386 
L 96.476946 529.381321 
L 97.706115 529.381321 
L 98.680947 529.381321 
L 99.880507 529.381321 
L 101.931906 529.381321 
L 103.263569 529.381321 
L 105.222343 529.381321 
L 109.643253 529.381321 
L 110.817758 529.381321 
L 114.076309 529.381321 
L 117.09267 529.381321 
L 118.559474 526.381851 
L 119.642874 529.381321 
L 121.630499 529.381321 
L 124.880698 529.381321 
L 125.967135 529.381321 
L 129.433711 525.990272 
L 132.555603 529.381321 
L 133.751367 529.381321 
L 134.920558 529.381321 
L 137.391803 529.381321 
L 140.314781 529.381321 
L 141.301001 529.381321 
L 142.344162 526.381851 
L 144.805538 523.799593 
L 147.853027 529.381321 
L 149.088269 529.381321 
L 151.184462 529.381321 
L 152.456147 529.381321 
L 155.455806 529.381321 
L 163.079084 524.501536 
L 166.609434 529.381321 
L 171.968733 529.381321 
L 175.186286 526.381851 
L 178.453948 527.190642 
L 186.095447 529.381321 
" clip-path="url(#p6aa61d3295)" style="fill: none; stroke: #332288; stroke-width: 3; stroke-linecap: round"/>
   </g>
   <g id="line2d_14">
    <path d="M 45.318 512.714732 
L 46.500857 529.381321 
L 47.684473 529.381321 
L 48.321455 529.381321 
L 49.422316 529.381321 
L 50.457886 529.381321 
L 51.571654 520.351227 
L 52.67783 529.381321 
L 52.67783 529.381321 
L 52.67783 524.501536 
L 54.046695 529.381321 
L 55.09593 518.972872 
L 55.972824 529.381321 
L 55.972824 522.470508 
L 55.972824 511.789204 
L 57.163273 529.381321 
L 57.163273 529.381321 
L 57.163273 518.972872 
L 58.128994 529.381321 
L 58.128994 526.381851 
L 58.128994 526.381851 
L 59.345257 529.381321 
L 59.345257 529.381321 
L 59.345257 517.443303 
L 60.291239 529.381321 
L 60.291239 528.036209 
L 60.291239 520.067263 
L 62.964435 529.381321 
L 63.605212 529.381321 
L 63.605212 529.381321 
L 63.605212 528.036209 
L 64.698482 529.381321 
L 64.698482 529.381321 
L 64.698482 529.381321 
L 65.775049 529.381321 
L 65.775049 529.381321 
L 65.775049 529.381321 
L 66.867559 529.381321 
L 66.867559 529.381321 
L 66.867559 524.501536 
L 68.034473 529.381321 
L 68.034473 528.47386 
L 68.034473 525.990272 
L 69.239347 529.381321 
L 69.239347 529.381321 
L 69.239347 529.381321 
L 71.445626 529.381321 
L 71.445626 529.381321 
L 71.445626 526.381851 
L 73.452991 529.381321 
L 73.452991 528.47386 
L 73.452991 522.470508 
L 74.559926 529.381321 
L 74.559926 529.381321 
L 74.559926 524.501536 
L 75.768596 529.381321 
L 75.768596 529.381321 
L 75.768596 529.381321 
L 77.879973 529.381321 
L 79.292873 529.381321 
L 80.103714 529.381321 
L 80.103714 529.381321 
L 80.103714 529.381321 
L 81.154468 529.381321 
L 81.154468 529.381321 
L 81.154468 529.381321 
L 82.200666 529.381321 
L 82.200666 529.381321 
L 82.200666 529.381321 
L 83.331897 529.381321 
L 83.331897 529.381321 
L 83.331897 529.381321 
L 85.662687 529.381321 
L 86.631445 529.381321 
L 86.631445 529.381321 
L 86.631445 528.47386 
L 88.948569 529.381321 
L 88.948569 524.501536 
L 88.948569 522.152564 
L 89.971991 529.381321 
L 91.054632 529.381321 
L 94.251686 529.381321 
L 96.476946 529.381321 
L 97.706115 529.381321 
L 98.680947 529.381321 
L 99.880507 529.381321 
L 101.931906 528.036209 
L 103.263569 529.381321 
L 105.222343 529.381321 
L 109.643253 529.381321 
L 110.817758 529.381321 
L 114.076309 526.381851 
L 117.09267 529.381321 
L 118.559474 525.990272 
L 119.642874 529.381321 
L 121.630499 529.381321 
L 124.880698 529.381321 
L 125.967135 529.381321 
L 129.433711 528.036209 
L 132.555603 529.381321 
L 133.751367 518.448914 
L 134.920558 529.381321 
L 137.391803 529.381321 
L 140.314781 529.381321 
L 141.301001 529.381321 
L 142.344162 529.381321 
L 144.805538 525.606768 
L 147.853027 529.381321 
L 149.088269 528.036209 
L 151.184462 529.381321 
L 152.456147 529.381321 
L 155.455806 529.381321 
L 163.079084 529.381321 
L 166.609434 529.381321 
L 171.968733 524.501536 
L 175.186286 529.381321 
L 178.453948 519.240493 
L 186.095447 526.381851 
" clip-path="url(#p6aa61d3295)" style="fill: none; stroke: #332288; stroke-width: 3; stroke-linecap: round"/>
   </g>
   <g id="line2d_15">
    <path d="M 45.318 515.581823 
L 46.500857 529.381321 
L 47.684473 529.381321 
L 48.321455 528.47386 
L 49.422316 529.381321 
L 50.457886 529.381321 
L 51.571654 526.381851 
L 52.67783 529.381321 
L 52.67783 529.381321 
L 52.67783 520.067263 
L 54.046695 528.036209 
L 55.09593 522.793982 
L 55.972824 528.47386 
L 55.972824 528.036209 
L 55.972824 524.862698 
L 57.163273 529.381321 
L 57.163273 529.381321 
L 57.163273 529.381321 
L 58.128994 528.47386 
L 58.128994 525.990272 
L 58.128994 524.501536 
L 59.345257 529.381321 
L 59.345257 529.381321 
L 59.345257 529.381321 
L 60.291239 529.381321 
L 60.291239 529.381321 
L 60.291239 529.381321 
L 62.964435 529.381321 
L 63.605212 529.381321 
L 63.605212 529.381321 
L 63.605212 524.501536 
L 64.698482 529.381321 
L 64.698482 529.381321 
L 64.698482 524.501536 
L 65.775049 529.381321 
L 65.775049 529.381321 
L 65.775049 529.381321 
L 66.867559 529.381321 
L 66.867559 522.793982 
L 66.867559 522.793982 
L 68.034473 529.381321 
L 68.034473 529.381321 
L 68.034473 525.990272 
L 69.239347 529.381321 
L 69.239347 529.381321 
L 69.239347 525.990272 
L 71.445626 529.381321 
L 71.445626 528.47386 
L 71.445626 526.381851 
L 73.452991 529.381321 
L 73.452991 529.381321 
L 73.452991 525.990272 
L 74.559926 529.381321 
L 74.559926 529.381321 
L 74.559926 525.990272 
L 75.768596 529.381321 
L 75.768596 529.381321 
L 75.768596 524.501536 
L 77.879973 529.381321 
L 79.292873 529.381321 
L 80.103714 529.381321 
L 80.103714 529.381321 
L 80.103714 528.036209 
L 81.154468 529.381321 
L 81.154468 529.381321 
L 81.154468 525.990272 
L 82.200666 529.381321 
L 82.200666 529.381321 
L 82.200666 529.381321 
L 83.331897 529.381321 
L 83.331897 529.381321 
L 83.331897 529.381321 
L 85.662687 529.381321 
L 86.631445 529.381321 
L 86.631445 529.381321 
L 86.631445 529.381321 
L 88.948569 529.381321 
L 88.948569 529.381321 
L 88.948569 529.381321 
L 89.971991 529.381321 
L 91.054632 528.47386 
L 94.251686 526.381851 
L 96.476946 529.381321 
L 97.706115 529.381321 
L 98.680947 529.381321 
L 99.880507 529.381321 
L 101.931906 529.381321 
L 103.263569 529.381321 
L 105.222343 529.381321 
L 109.643253 529.381321 
L 110.817758 529.381321 
L 114.076309 529.381321 
L 117.09267 528.036209 
L 118.559474 527.608621 
L 119.642874 527.608621 
L 121.630499 528.036209 
L 124.880698 529.381321 
L 125.967135 529.381321 
L 129.433711 529.381321 
L 132.555603 524.147253 
L 133.751367 529.381321 
L 134.920558 529.381321 
L 137.391803 529.381321 
L 140.314781 529.381321 
L 141.301001 529.381321 
L 142.344162 528.036209 
L 144.805538 529.381321 
L 147.853027 529.381321 
L 149.088269 529.381321 
L 151.184462 520.067263 
L 152.456147 528.036209 
L 155.455806 529.381321 
L 163.079084 529.381321 
L 166.609434 529.381321 
L 171.968733 529.381321 
L 175.186286 526.381851 
L 178.453948 521.839964 
L 186.095447 529.381321 
" clip-path="url(#p6aa61d3295)" style="fill: none; stroke: #332288; stroke-width: 3; stroke-linecap: round"/>
   </g>
   <g id="line2d_16">
    <path d="M 45.318 508.539135 
L 46.500857 523.34593 
L 47.684473 504.429304 
L 48.321455 497.201233 
L 49.422316 490.039182 
L 50.457886 479.902418 
L 51.571654 469.023076 
L 52.67783 460.714086 
L 54.046695 449.825512 
L 55.09593 453.398146 
L 55.972824 460.553819 
L 57.163273 470.252454 
L 58.128994 470.964821 
L 59.345257 472.535293 
L 60.291239 471.859663 
L 62.964435 476.942654 
L 63.605212 477.39491 
L 64.698482 481.623525 
L 65.775049 486.872759 
L 66.867559 489.264228 
L 68.034473 491.116587 
L 69.239347 498.807098 
L 71.445626 504.660354 
L 73.452991 505.286183 
L 74.559926 509.560665 
L 75.768596 517.911407 
L 77.879973 529.381321 
L 79.292873 529.381321 
L 80.103714 528.278076 
L 81.154468 528.57253 
L 82.200666 527.236623 
L 83.331897 526.647559 
L 85.662687 529.381321 
L 86.631445 526.60301 
L 88.948569 528.084332 
L 89.971991 529.381321 
L 91.054632 528.180952 
L 94.251686 529.381321 
L 96.476946 529.381321 
L 97.706115 528.922057 
L 98.680947 523.123181 
L 99.880507 529.381321 
L 101.931906 529.381321 
L 103.263569 528.771454 
L 105.222343 529.381321 
L 109.643253 525.733727 
L 110.817758 528.922057 
L 114.076309 529.381321 
L 117.09267 527.468248 
L 118.559474 529.381321 
L 119.642874 528.771454 
L 121.630499 529.381321 
L 124.880698 528.180952 
L 125.967135 529.381321 
L 129.433711 527.608621 
L 132.555603 529.381321 
L 133.751367 528.922057 
L 134.920558 528.180952 
L 137.391803 529.381321 
L 140.314781 529.381321 
L 141.301001 527.053377 
L 142.344162 528.922057 
L 144.805538 526.647559 
L 147.853027 528.180952 
L 149.088269 529.381321 
L 151.184462 529.381321 
L 152.456147 528.922057 
L 155.455806 529.381321 
L 163.079084 529.381321 
L 166.609434 529.381321 
L 171.968733 528.922057 
L 175.186286 523.234222 
L 178.453948 529.381321 
L 186.095447 529.381321 
" clip-path="url(#p6aa61d3295)" style="fill: none; stroke: #000000; stroke-linecap: round"/>
   </g>
   <g id="patch_12">
    <path d="M 45.318 534.732 
L 45.318 426.686141 
" style="fill: none; stroke: #262626; stroke-linejoin: miter; stroke-linecap: square"/>
   </g>
   <g id="patch_13">
    <path d="M 45.318 534.732 
L 198.37575 534.732 
" style="fill: none; stroke: #262626; stroke-linejoin: miter; stroke-linecap: square"/>
   </g>
   <g id="text_24">
    <!-- Phaeobacter gallaeciensis -->
    <g style="fill: #262626" transform="translate(65.813625 421.686141) scale(0.096 -0.096)">
     <defs>
      <path id="ArialMT-67" d="M 319 -275 
L 866 -356 
Q 900 -609 1056 -725 
Q 1266 -881 1628 -881 
Q 2019 -881 2231 -725 
Q 2444 -569 2519 -288 
Q 2563 -116 2559 434 
Q 2191 0 1641 0 
Q 956 0 581 494 
Q 206 988 206 1678 
Q 206 2153 378 2554 
Q 550 2956 876 3175 
Q 1203 3394 1644 3394 
Q 2231 3394 2613 2919 
L 2613 3319 
L 3131 3319 
L 3131 450 
Q 3131 -325 2973 -648 
Q 2816 -972 2473 -1159 
Q 2131 -1347 1631 -1347 
Q 1038 -1347 672 -1080 
Q 306 -813 319 -275 
z
M 784 1719 
Q 784 1066 1043 766 
Q 1303 466 1694 466 
Q 2081 466 2343 764 
Q 2606 1063 2606 1700 
Q 2606 2309 2336 2618 
Q 2066 2928 1684 2928 
Q 1309 2928 1046 2623 
Q 784 2319 784 1719 
z
" transform="scale(0.015625)"/>
     </defs>
     <use xlink:href="#ArialMT-50"/>
     <use xlink:href="#ArialMT-68" x="66.699219"/>
     <use xlink:href="#ArialMT-61" x="122.314453"/>
     <use xlink:href="#ArialMT-65" x="177.929688"/>
     <use xlink:href="#ArialMT-6f" x="233.544922"/>
     <use xlink:href="#ArialMT-62" x="289.160156"/>
     <use xlink:href="#ArialMT-61" x="344.775391"/>
     <use xlink:href="#ArialMT-63" x="400.390625"/>
     <use xlink:href="#ArialMT-74" x="450.390625"/>
     <use xlink:href="#ArialMT-65" x="478.173828"/>
     <use xlink:href="#ArialMT-72" x="533.789062"/>
     <use xlink:href="#ArialMT-20" x="567.089844"/>
     <use xlink:href="#ArialMT-67" x="594.873047"/>
     <use xlink:href="#ArialMT-61" x="650.488281"/>
     <use xlink:href="#ArialMT-6c" x="706.103516"/>
     <use xlink:href="#ArialMT-6c" x="728.320312"/>
     <use xlink:href="#ArialMT-61" x="750.537109"/>
     <use xlink:href="#ArialMT-65" x="806.152344"/>
     <use xlink:href="#ArialMT-63" x="861.767578"/>
     <use xlink:href="#ArialMT-69" x="911.767578"/>
     <use xlink:href="#ArialMT-65" x="933.984375"/>
     <use xlink:href="#ArialMT-6e" x="989.599609"/>
     <use xlink:href="#ArialMT-73" x="1045.214844"/>
     <use xlink:href="#ArialMT-69" x="1095.214844"/>
     <use xlink:href="#ArialMT-73" x="1117.431641"/>
    </g>
   </g>
  </g>
 </g>
 <defs>
  <clipPath id="p791465db1a">
   <rect x="45.318" y="22.568" width="153.05775" height="108.045859"/>
  </clipPath>
  <clipPath id="p579efcc13a">
   <rect x="45.318" y="157.274047" width="153.05775" height="108.045859"/>
  </clipPath>
  <clipPath id="pa5f2ae6a52">
   <rect x="45.318" y="291.980094" width="153.05775" height="108.045859"/>
  </clipPath>
  <clipPath id="p6aa61d3295">
   <rect x="45.318" y="426.686141" width="153.05775" height="108.045859"/>
  </clipPath>
 </defs>
</svg>
