<?xml version="1.0" encoding="utf-8" standalone="no"?>
<!DOCTYPE svg PUBLIC "-//W3C//DTD SVG 1.1//EN"
  "http://www.w3.org/Graphics/SVG/1.1/DTD/svg11.dtd">
<svg xmlns:xlink="http://www.w3.org/1999/xlink" width="315.46125pt" height="209.175375pt" viewBox="0 0 315.46125 209.175375" xmlns="http://www.w3.org/2000/svg" version="1.1">
 <metadata>
  <rdf:RDF xmlns:dc="http://purl.org/dc/elements/1.1/" xmlns:cc="http://creativecommons.org/ns#" xmlns:rdf="http://www.w3.org/1999/02/22-rdf-syntax-ns#">
   <cc:Work>
    <dc:type rdf:resource="http://purl.org/dc/dcmitype/StillImage"/>
    <dc:date>2024-11-25T11:07:29.286700</dc:date>
    <dc:format>image/svg+xml</dc:format>
    <dc:creator>
     <cc:Agent>
      <dc:title>Matplotlib v3.8.0, https://matplotlib.org/</dc:title>
     </cc:Agent>
    </dc:creator>
   </cc:Work>
  </rdf:RDF>
 </metadata>
 <defs>
  <style type="text/css">*{stroke-linejoin: round; stroke-linecap: butt}</style>
 </defs>
 <g id="figure_1">
  <g id="patch_1">
   <path d="M 0 209.175375 
L 315.46125 209.175375 
L 315.46125 0 
L 0 0 
L 0 209.175375 
z
" style="fill: none"/>
  </g>
  <g id="axes_1">
   <g id="patch_2">
    <path d="M 47.2035 171.2355 
L 308.26125 171.2355 
L 308.26125 19.0715 
L 47.2035 19.0715 
L 47.2035 171.2355 
z
" style="fill: none"/>
   </g>
   <g id="matplotlib.axis_1">
    <g id="xtick_1">
     <g id="text_1">
      <text style="fill: #262626; font: 8.8px 'Arial', 'DejaVu Sans', 'Liberation Sans', 'Bitstream Vera Sans', sans-serif; text-anchor: middle" x="47.2035" y="186.334375" transform="rotate(-0 47.2035 186.334375)">0</text>
     </g>
    </g>
    <g id="xtick_2">
     <g id="text_2">
      <text style="fill: #262626; font: 8.8px 'Arial', 'DejaVu Sans', 'Liberation Sans', 'Bitstream Vera Sans', sans-serif; text-anchor: middle" x="159.085393" y="186.334375" transform="rotate(-0 159.085393 186.334375)">60</text>
     </g>
    </g>
    <g id="xtick_3">
     <g id="text_3">
      <text style="fill: #262626; font: 8.8px 'Arial', 'DejaVu Sans', 'Liberation Sans', 'Bitstream Vera Sans', sans-serif; text-anchor: middle" x="270.967286" y="186.334375" transform="rotate(-0 270.967286 186.334375)">120</text>
     </g>
    </g>
    <g id="text_4">
     <text style="fill: #262626; font: 9.6px 'Arial', 'DejaVu Sans', 'Liberation Sans', 'Bitstream Vera Sans', sans-serif; text-anchor: middle" x="177.732375" y="199.954875" transform="rotate(-0 177.732375 199.954875)">day</text>
    </g>
   </g>
   <g id="matplotlib.axis_2">
    <g id="ytick_1">
     <g id="text_5">
      <!-- $\mathdefault{10^{-1}}$ -->
      <g style="fill: #262626" transform="translate(20.9795 143.36178)">
       <text>
        <tspan style="font: 8.8px 'Arial'" x="0 4.892395" y="-0.4372624999999992">10</tspan>
        <tspan style="font: 6.16px 'Arial'" x="9.938116 13.534183" y="-6.570312499999999">−1</tspan>
       </text>
      </g>
     </g>
    </g>
    <g id="ytick_2">
     <g id="text_6">
      <!-- $\mathdefault{10^{0}}$ -->
      <g style="fill: #262626" transform="translate(24.5875 83.04814)">
       <text>
        <tspan style="font: 8.8px 'Arial'" x="0 4.892395" y="-0.4372624999999992">10</tspan>
        <tspan style="font: 6.16px 'Arial'" x="9.938116" y="-6.570312499999999">0</tspan>
       </text>
      </g>
     </g>
    </g>
    <g id="ytick_3">
     <g id="text_7">
      <!-- $\mathdefault{10^{1}}$ -->
      <g style="fill: #262626" transform="translate(24.5875 22.7345)">
       <text>
        <tspan style="font: 8.8px 'Arial'" x="0 4.892395" y="-0.4372624999999992">10</tspan>
        <tspan style="font: 6.16px 'Arial'" x="9.938116" y="-6.570312499999999">1</tspan>
       </text>
      </g>
     </g>
    </g>
    <g id="ytick_4"/>
    <g id="ytick_5"/>
    <g id="ytick_6"/>
    <g id="ytick_7"/>
    <g id="ytick_8"/>
    <g id="ytick_9"/>
    <g id="ytick_10"/>
    <g id="ytick_11"/>
    <g id="ytick_12"/>
    <g id="ytick_13"/>
    <g id="ytick_14"/>
    <g id="ytick_15"/>
    <g id="ytick_16"/>
    <g id="ytick_17"/>
    <g id="ytick_18"/>
    <g id="ytick_19"/>
    <g id="ytick_20"/>
    <g id="ytick_21"/>
    <g id="ytick_22"/>
    <g id="ytick_23"/>
    <g id="ytick_24"/>
    <g id="ytick_25"/>
    <g id="ytick_26"/>
    <g id="text_8">
     <text style="fill: #262626; font: 9.6px 'Arial', 'DejaVu Sans', 'Liberation Sans', 'Bitstream Vera Sans', sans-serif; text-anchor: middle" x="14.0715" y="95.1535" transform="rotate(-90 14.0715 95.1535)">Fluorescence</text>
    </g>
   </g>
   <g id="line2d_1">
    <path d="M 47.2035 134.490104 
L 49.221 163.69999 
L 51.239795 127.551786 
L 52.32624 118.225564 
L 54.203888 110.403152 
L 55.970171 96.015066 
L 57.869833 78.712802 
L 59.756545 70.684127 
L 59.756545 68.5384 
L 59.756545 67.304126 
L 62.091302 53.377724 
L 63.880895 56.290014 
L 65.376538 68.486513 
L 65.376538 67.503068 
L 65.376538 65.470523 
L 67.406987 82.261617 
L 67.406987 80.237048 
L 67.406987 77.417784 
L 69.054137 85.692587 
L 69.054137 83.274931 
L 69.054137 81.455588 
L 71.128614 84.014572 
L 71.128614 83.889839 
L 71.128614 82.320151 
L 72.742096 82.912798 
L 72.742096 82.852926 
L 72.742096 81.569228 
L 77.301542 87.808663 
L 78.394462 90.993403 
L 78.394462 89.602954 
L 78.394462 86.816083 
L 80.259161 94.807761 
L 80.259161 94.34 
L 80.259161 93.428817 
L 82.09537 102.046054 
L 82.09537 99.839577 
L 82.09537 99.050885 
L 83.958774 103.320947 
L 83.958774 103.190629 
L 83.958774 102.296117 
L 85.94908 102.233377 
L 85.94908 101.67538 
L 85.94908 98.995448 
L 88.004133 113.681661 
L 88.004133 111.362104 
L 88.004133 109.478072 
L 91.767197 121.152574 
L 91.767197 119.770322 
L 91.767197 119.046021 
L 95.190991 121.281927 
L 95.190991 118.691246 
L 95.190991 118.574047 
L 97.078998 128.050732 
L 97.078998 127.387561 
L 97.078998 125.799566 
L 99.140525 141.04235 
L 99.140525 139.962037 
L 99.140525 133.437999 
L 102.741723 163.69999 
L 105.151587 163.69999 
L 106.534571 163.69999 
L 106.534571 158.924281 
L 106.534571 156.827652 
L 108.326754 163.69999 
L 108.326754 163.69999 
L 108.326754 158.924281 
L 110.111166 163.69999 
L 110.111166 163.69999 
L 110.111166 158.924281 
L 112.040611 163.69999 
L 112.040611 163.69999 
L 112.040611 158.924281 
L 116.016044 163.69999 
L 117.668374 163.69999 
L 117.668374 163.69999 
L 117.668374 140.227967 
L 121.620498 163.69999 
L 121.620498 163.69999 
L 121.620498 150.582742 
L 123.366063 163.69999 
L 125.212632 158.924281 
L 130.665579 163.69999 
L 134.461017 163.69999 
L 136.557508 163.69999 
L 138.220197 156.827652 
L 140.266185 163.69999 
L 143.765084 163.69999 
L 146.03639 163.69999 
L 149.377308 163.69999 
L 156.917681 150.582742 
L 158.920937 163.69999 
L 164.478773 163.69999 
L 169.623528 163.69999 
L 172.125331 163.69999 
L 173.973195 163.69999 
L 177.36332 163.69999 
L 182.906913 163.69999 
L 184.759956 163.69999 
L 190.672604 163.69999 
L 195.997353 163.69999 
L 198.036867 163.69999 
L 200.031058 158.924281 
L 204.246053 163.69999 
L 209.231531 163.69999 
L 210.913644 163.69999 
L 212.692877 163.69999 
L 216.891037 163.69999 
L 222.088884 158.924281 
L 224.195734 163.69999 
L 227.771034 163.69999 
L 229.94004 161.805631 
L 235.056306 163.69999 
L 248.058691 163.69999 
L 254.080113 163.69999 
L 263.221019 161.805631 
L 268.708929 156.827652 
L 274.282305 163.69999 
L 287.315768 163.69999 
" clip-path="url(#pe709c54eb5)" style="fill: none; stroke: #000000; stroke-width: 3; stroke-linecap: round"/>
   </g>
   <g id="line2d_2">
    <path d="M 47.2035 150.982656 
L 49.221 152.220393 
L 51.239795 129.966088 
L 52.32624 118.110426 
L 54.203888 108.664532 
L 55.970171 95.09248 
L 57.869833 79.887612 
L 59.756545 68.194417 
L 59.756545 66.571268 
L 59.756545 66.141198 
L 62.091302 51.496234 
L 63.880895 54.957834 
L 65.376538 66.062324 
L 65.376538 65.67148 
L 65.376538 65.027713 
L 67.406987 81.033777 
L 67.406987 80.783913 
L 67.406987 80.372698 
L 69.054137 79.542777 
L 69.054137 79.46384 
L 69.054137 79.332804 
L 71.128614 83.889839 
L 71.128614 81.970894 
L 71.128614 81.455588 
L 72.742096 82.349467 
L 72.742096 81.483952 
L 72.742096 79.490125 
L 77.301542 91.780314 
L 78.394462 90.628749 
L 78.394462 89.992751 
L 78.394462 87.989936 
L 80.259161 98.339199 
L 80.259161 96.015066 
L 80.259161 94.997229 
L 82.09537 106.073491 
L 82.09537 105.146808 
L 82.09537 103.190629 
L 83.958774 110.747814 
L 83.958774 110.661222 
L 83.958774 105.713184 
L 85.94908 115.593003 
L 85.94908 115.178862 
L 85.94908 111.362104 
L 88.004133 129.429676 
L 88.004133 126.109557 
L 88.004133 124.012928 
L 91.767197 138.92452 
L 91.767197 134.276275 
L 91.767197 133.853784 
L 95.190991 142.169142 
L 95.190991 137.682871 
L 95.190991 134.276275 
L 97.078998 156.827652 
L 97.078998 146.887346 
L 97.078998 134.064178 
L 99.140525 158.924281 
L 99.140525 150.582742 
L 99.140525 149.041481 
L 102.741723 163.69999 
L 105.151587 163.69999 
L 106.534571 163.69999 
L 106.534571 163.69999 
L 106.534571 162.421986 
L 108.326754 163.69999 
L 108.326754 163.69999 
L 108.326754 158.924281 
L 110.111166 159.475751 
L 110.111166 158.924281 
L 110.111166 156.328706 
L 112.040611 163.69999 
L 112.040611 156.827652 
L 112.040611 156.827652 
L 116.016044 163.69999 
L 117.668374 163.69999 
L 117.668374 163.69999 
L 117.668374 163.69999 
L 121.620498 163.69999 
L 121.620498 163.69999 
L 121.620498 163.69999 
L 123.366063 163.69999 
L 125.212632 163.69999 
L 130.665579 163.69999 
L 134.461017 163.69999 
L 136.557508 161.805631 
L 138.220197 146.887346 
L 140.266185 163.69999 
L 143.765084 163.69999 
L 146.03639 161.203447 
L 149.377308 163.69999 
L 156.917681 163.69999 
L 158.920937 161.805631 
L 164.478773 163.69999 
L 169.623528 163.69999 
L 172.125331 163.69999 
L 173.973195 163.69999 
L 177.36332 163.69999 
L 182.906913 163.69999 
L 184.759956 163.69999 
L 190.672604 163.69999 
L 195.997353 163.69999 
L 198.036867 163.69999 
L 200.031058 163.69999 
L 204.246053 163.69999 
L 209.231531 163.69999 
L 210.913644 161.805631 
L 212.692877 163.69999 
L 216.891037 153.519529 
L 222.088884 163.69999 
L 224.195734 163.69999 
L 227.771034 163.69999 
L 229.94004 163.69999 
L 235.056306 163.69999 
L 248.058691 163.69999 
L 254.080113 163.69999 
L 263.221019 163.69999 
L 268.708929 151.801282 
L 274.282305 163.69999 
L 287.315768 163.69999 
" clip-path="url(#pe709c54eb5)" style="fill: none; stroke: #000000; stroke-width: 3; stroke-linecap: round"/>
   </g>
   <g id="line2d_3">
    <path d="M 47.2035 124.157247 
L 49.221 151.388771 
L 51.239795 128.219182 
L 52.32624 118.808971 
L 54.203888 106.001032 
L 55.970171 91.198204 
L 57.869833 77.539559 
L 59.756545 65.873991 
L 59.756545 65.332296 
L 59.756545 64.816592 
L 62.091302 50.201031 
L 63.880895 58.983615 
L 65.376538 68.922072 
L 65.376538 68.27999 
L 65.376538 65.827119 
L 67.406987 82.703843 
L 67.406987 79.941069 
L 67.406987 79.46384 
L 69.054137 82.437613 
L 69.054137 81.683363 
L 69.054137 80.646123 
L 71.128614 86.02798 
L 71.128614 85.034414 
L 71.128614 84.51953 
L 72.742096 86.711933 
L 72.742096 84.807906 
L 72.742096 82.674128 
L 77.301542 90.11083 
L 78.394462 93.971715 
L 78.394462 92.896943 
L 78.394462 92.289773 
L 80.259161 100.243011 
L 80.259161 99.725443 
L 80.259161 96.971337 
L 82.09537 108.504813 
L 82.09537 107.034164 
L 82.09537 105.216939 
L 83.958774 113.201026 
L 83.958774 109.727144 
L 83.958774 108.346061 
L 85.94908 122.205737 
L 85.94908 121.281927 
L 85.94908 110.834692 
L 88.004133 142.45858 
L 88.004133 123.726653 
L 88.004133 120.389592 
L 91.767197 137.682871 
L 91.767197 135.363314 
L 91.767197 129.786061 
L 95.190991 145.218381 
L 95.190991 133.437999 
L 95.190991 131.644562 
L 97.078998 145.543775 
L 97.078998 137.682871 
L 97.078998 135.142267 
L 99.140525 163.69999 
L 99.140525 156.827652 
L 99.140525 149.041481 
L 102.741723 163.69999 
L 105.151587 163.69999 
L 106.534571 163.69999 
L 106.534571 163.69999 
L 106.534571 163.69999 
L 108.326754 163.69999 
L 108.326754 163.69999 
L 108.326754 163.69999 
L 110.111166 163.69999 
L 110.111166 163.69999 
L 110.111166 158.924281 
L 112.040611 163.69999 
L 112.040611 163.69999 
L 112.040611 150.982656 
L 116.016044 163.69999 
L 117.668374 163.69999 
L 117.668374 163.69999 
L 117.668374 163.69999 
L 121.620498 163.69999 
L 121.620498 163.69999 
L 121.620498 163.69999 
L 123.366063 163.69999 
L 125.212632 163.69999 
L 130.665579 163.69999 
L 134.461017 163.69999 
L 136.557508 163.69999 
L 138.220197 163.69999 
L 140.266185 163.69999 
L 143.765084 163.69999 
L 146.03639 163.69999 
L 149.377308 163.69999 
L 156.917681 163.69999 
L 158.920937 163.69999 
L 164.478773 163.69999 
L 169.623528 156.328706 
L 172.125331 163.69999 
L 173.973195 161.203447 
L 177.36332 163.69999 
L 182.906913 158.924281 
L 184.759956 163.69999 
L 190.672604 156.827652 
L 195.997353 163.69999 
L 198.036867 161.805631 
L 200.031058 163.69999 
L 204.246053 163.69999 
L 209.231531 163.69999 
L 210.913644 156.328706 
L 212.692877 161.805631 
L 216.891037 163.69999 
L 222.088884 163.69999 
L 224.195734 163.69999 
L 227.771034 163.69999 
L 229.94004 163.69999 
L 235.056306 163.69999 
L 248.058691 163.69999 
L 254.080113 163.69999 
L 263.221019 163.69999 
L 268.708929 156.827652 
L 274.282305 163.69999 
L 287.315768 163.69999 
" clip-path="url(#pe709c54eb5)" style="fill: none; stroke: #000000; stroke-width: 3; stroke-linecap: round"/>
   </g>
   <g id="patch_3">
    <path d="M 47.2035 171.2355 
L 47.2035 19.0715 
" style="fill: none; stroke: #262626; stroke-linejoin: miter; stroke-linecap: square"/>
   </g>
   <g id="patch_4">
    <path d="M 47.2035 171.2355 
L 308.26125 171.2355 
" style="fill: none; stroke: #262626; stroke-linejoin: miter; stroke-linecap: square"/>
   </g>
   <g id="text_9">
    <text style="fill: #262626; font: 9.6px 'Arial', 'DejaVu Sans', 'Liberation Sans', 'Bitstream Vera Sans', sans-serif; text-anchor: middle" x="177.732375" y="14.0715" transform="rotate(-0 177.732375 14.0715)">Axenic</text>
   </g>
  </g>
 </g>
 <defs>
  <clipPath id="pe709c54eb5">
   <rect x="47.2035" y="19.0715" width="261.05775" height="152.164"/>
  </clipPath>
 </defs>
</svg>
