<?xml version="1.0" encoding="utf-8" standalone="no"?>
<!DOCTYPE svg PUBLIC "-//W3C//DTD SVG 1.1//EN"
  "http://www.w3.org/Graphics/SVG/1.1/DTD/svg11.dtd">
<svg xmlns:xlink="http://www.w3.org/1999/xlink" width="570.739688pt" height="2176.519375pt" viewBox="0 0 570.739688 2176.519375" xmlns="http://www.w3.org/2000/svg" version="1.1">
 <metadata>
  <rdf:RDF xmlns:dc="http://purl.org/dc/elements/1.1/" xmlns:cc="http://creativecommons.org/ns#" xmlns:rdf="http://www.w3.org/1999/02/22-rdf-syntax-ns#">
   <cc:Work>
    <dc:type rdf:resource="http://purl.org/dc/dcmitype/StillImage"/>
    <dc:date>2024-11-20T11:10:55.027333</dc:date>
    <dc:format>image/svg+xml</dc:format>
    <dc:creator>
     <cc:Agent>
      <dc:title>Matplotlib v3.8.0, https://matplotlib.org/</dc:title>
     </cc:Agent>
    </dc:creator>
   </cc:Work>
  </rdf:RDF>
 </metadata>
 <defs>
  <style type="text/css">*{stroke-linejoin: round; stroke-linecap: butt}</style>
 </defs>
 <g id="figure_1">
  <g id="patch_1">
   <path d="M 0 2176.519375 
L 570.739688 2176.519375 
L 570.739688 0 
L 0 0 
L 0 2176.519375 
z
" style="fill: none"/>
  </g>
  <g id="axes_1">
   <g id="patch_2">
    <path d="M 159.2175 437.5 
L 526.8375 437.5 
L 526.8375 7.2 
L 159.2175 7.2 
L 159.2175 437.5 
z
" style="fill: none"/>
   </g>
   <g id="matplotlib.axis_1">
    <g id="xtick_1"/>
    <g id="xtick_2"/>
    <g id="xtick_3"/>
   </g>
   <g id="matplotlib.axis_2">
    <g id="ytick_1">
     <g id="text_1">
      <!-- $\mathdefault{10^{-1}}$ -->
      <g style="fill: #373737" transform="translate(56.0975 366.633257)">
       <text>
        <tspan style="font: 44px 'Arial'" x="0 24.470703" y="-0.19725000000000392">10</tspan>
        <tspan style="font: 30.8px 'Arial'" x="49.708038 67.694756" y="-30.8625">−1</tspan>
       </text>
      </g>
     </g>
    </g>
    <g id="ytick_2">
     <g id="text_2">
      <!-- $\mathdefault{10^{0}}$ -->
      <g style="fill: #373737" transform="translate(74.1375 196.074128)">
       <text>
        <tspan style="font: 44px 'Arial'" x="0 24.470703" y="-0.19725000000000392">10</tspan>
        <tspan style="font: 30.8px 'Arial'" x="49.708038" y="-30.8625">0</tspan>
       </text>
      </g>
     </g>
    </g>
    <g id="ytick_3"/>
    <g id="ytick_4"/>
    <g id="ytick_5"/>
    <g id="ytick_6"/>
    <g id="ytick_7"/>
    <g id="ytick_8"/>
    <g id="ytick_9"/>
    <g id="ytick_10"/>
    <g id="ytick_11"/>
    <g id="ytick_12"/>
    <g id="ytick_13"/>
    <g id="ytick_14"/>
    <g id="ytick_15"/>
    <g id="ytick_16"/>
    <g id="ytick_17"/>
    <g id="ytick_18"/>
    <g id="ytick_19"/>
    <g id="ytick_20"/>
    <g id="ytick_21"/>
    <g id="ytick_22"/>
    <g id="ytick_23"/>
    <g id="ytick_24"/>
    <g id="ytick_25"/>
    <g id="text_3">
     <text style="fill: #373737; font: 48px 'Arial', 'DejaVu Sans', 'Liberation Sans', 'Bitstream Vera Sans', sans-serif; text-anchor: middle" x="41.5575" y="222.35" transform="rotate(-90 41.5575 222.35)">FL</text>
    </g>
   </g>
   <g id="line2d_1">
    <path d="M 159.2175 325.541977 
L 162.058532 386.156586 
L 164.901387 398.194833 
L 166.431313 416.190558 
L 169.075405 395.345524 
L 171.562676 412.57653 
L 174.237768 416.190558 
L 176.894624 389.956029 
L 176.894624 384.932213 
L 176.894624 383.727749 
L 180.182416 346.128751 
L 182.70251 313.042216 
L 184.808666 303.15116 
L 184.808666 284.089619 
L 184.808666 282.245386 
L 187.667933 267.436344 
L 187.667933 262.160317 
L 187.667933 246.563176 
L 189.98744 229.250836 
L 189.98744 221.372294 
L 189.98744 220.312199 
L 192.908706 179.710503 
L 192.908706 178.279462 
L 192.908706 175.857844 
L 195.180802 151.058242 
L 195.180802 149.930467 
L 195.180802 148.36992 
L 201.601387 127.235031 
L 203.140431 136.433862 
L 203.140431 130.176182 
L 203.140431 129.903926 
L 205.766288 142.483087 
L 205.766288 142.483087 
L 205.766288 138.672144 
L 208.352028 146.988107 
L 208.352028 145.727674 
L 208.352028 140.800057 
L 210.976062 152.6771 
L 210.976062 151.213368 
L 210.976062 150.287445 
L 213.7788 121.612016 
L 213.7788 117.035669 
L 213.7788 116.127583 
L 216.672713 143.595592 
L 216.672713 139.242444 
L 216.672713 135.54877 
L 221.971839 163.946048 
L 221.971839 163.823208 
L 221.971839 159.70533 
L 226.793204 152.151012 
L 226.793204 146.744045 
L 226.793204 144.535616 
L 229.451885 151.161623 
L 229.451885 146.306748 
L 229.451885 142.990912 
L 232.354915 158.782291 
L 232.354915 157.870613 
L 232.354915 150.492208 
L 237.426102 146.695328 
L 240.819658 155.037334 
L 242.767168 162.605877 
L 242.767168 159.127084 
L 242.767168 156.914095 
L 245.290909 167.342174 
L 245.290909 162.666271 
L 245.290909 160.463861 
L 247.803708 154.765307 
L 247.803708 152.941552 
L 247.803708 152.729915 
L 250.520741 157.194144 
L 250.520741 154.332131 
L 250.520741 153.580115 
L 256.118923 159.937898 
L 258.445724 70.181876 
L 258.445724 68.756858 
L 258.445724 66.892974 
L 264.011082 165.813531 
L 264.011082 161.467654 
L 264.011082 161.40823 
L 266.469176 167.923648 
L 269.069504 172.195701 
L 276.748313 203.128375 
L 282.093026 232.901985 
L 285.045292 241.66551 
L 287.386681 257.452134 
L 290.26783 250.017979 
L 295.194959 217.093931 
L 298.393399 211.39787 
L 303.09806 183.694296 
L 313.71637 174.074588 
L 316.537343 173.233638 
L 324.363856 223.952546 
L 331.608668 223.401816 
L 335.131693 225.62974 
L 337.733845 233.371297 
L 342.507799 226.482796 
L 350.314254 240.274429 
L 352.923699 219.657262 
L 361.249854 233.214529 
L 368.748135 195.595768 
L 371.620167 182.816739 
L 374.428375 219.008065 
L 380.363906 245.446478 
L 387.384427 245.816844 
L 389.753169 245.261988 
L 392.258674 275.850815 
L 398.1705 254.055648 
L 405.490077 271.261956 
L 408.456931 276.973153 
L 413.491647 281.040922 
L 416.546029 273.117188 
L 423.750725 271.261956 
L 442.060608 307.717321 
L 450.539938 310.776813 
L 463.412109 314.905783 
L 471.140152 300.385451 
L 478.988548 341.934826 
L 497.342195 346.851419 
" clip-path="url(#p223c545073)" style="fill: none; stroke: #882255; stroke-width: 5; stroke-linecap: round"/>
   </g>
   <g id="line2d_2">
    <path d="M 159.2175 346.851419 
L 162.058532 373.687503 
L 164.901387 398.194833 
L 166.431313 416.190558 
L 169.075405 416.190558 
L 171.562676 369.627699 
L 174.237768 416.190558 
L 176.894624 416.190558 
L 176.894624 416.190558 
L 176.894624 402.685474 
L 180.182416 383.727749 
L 182.70251 339.265244 
L 184.808666 339.265244 
L 184.808666 336.058124 
L 184.808666 328.316567 
L 187.667933 291.274117 
L 187.667933 287.92183 
L 187.667933 286.945031 
L 189.98744 261.9292 
L 189.98744 255.100417 
L 189.98744 248.848382 
L 192.908706 221.23895 
L 192.908706 214.494615 
L 192.908706 213.28819 
L 195.180802 184.989593 
L 195.180802 184.826436 
L 195.180802 182.658295 
L 201.601387 119.120502 
L 203.140431 102.799996 
L 203.140431 100.077296 
L 203.140431 98.79083 
L 205.766288 80.707132 
L 205.766288 80.030844 
L 205.766288 79.3803 
L 208.352028 103.830309 
L 208.352028 97.501254 
L 208.352028 95.400631 
L 210.976062 105.85073 
L 210.976062 105.208193 
L 210.976062 104.764475 
L 213.7788 111.474057 
L 213.7788 110.451931 
L 213.7788 108.944711 
L 216.672713 137.587602 
L 216.672713 133.11723 
L 216.672713 129.981611 
L 221.971839 154.008903 
L 221.971839 151.889363 
L 221.971839 149.372953 
L 226.793204 152.203453 
L 226.793204 150.800417 
L 226.793204 150.134244 
L 229.451885 155.474666 
L 229.451885 154.008903 
L 229.451885 153.047598 
L 232.354915 167.470997 
L 232.354915 164.315797 
L 232.354915 164.315797 
L 237.426102 126.89876 
L 240.819658 156.301689 
L 242.767168 169.496937 
L 242.767168 160.405236 
L 242.767168 158.553318 
L 245.290909 172.747457 
L 245.290909 171.784565 
L 245.290909 169.430711 
L 247.803708 164.130692 
L 247.803708 162.364794 
L 247.803708 162.064538 
L 250.520741 104.131252 
L 250.520741 89.975663 
L 250.520741 89.456643 
L 256.118923 141.43239 
L 258.445724 147.380287 
L 258.445724 145.823873 
L 258.445724 141.933039 
L 264.011082 158.839645 
L 264.011082 157.757438 
L 264.011082 155.749316 
L 266.469176 158.954487 
L 269.069504 144.630278 
L 276.748313 177.537242 
L 282.093026 208.425411 
L 285.045292 214.616346 
L 287.386681 210.932733 
L 290.26783 197.408331 
L 295.194959 176.437674 
L 298.393399 161.944776 
L 303.09806 171.307772 
L 313.71637 199.564043 
L 316.537343 203.128375 
L 324.363856 228.365492 
L 331.608668 242.548392 
L 335.131693 240.966704 
L 337.733845 256.803317 
L 342.507799 241.49019 
L 350.314254 256.588301 
L 352.923699 244.711258 
L 361.249854 234.797343 
L 368.748135 208.425411 
L 371.620167 209.554593 
L 374.428375 235.601617 
L 380.363906 242.726238 
L 387.384427 240.446892 
L 389.753169 230.750339 
L 392.258674 269.452057 
L 398.1705 264.03568 
L 405.490077 284.714711 
L 408.456931 282.549587 
L 413.491647 269.452057 
L 416.546029 281.640706 
L 423.750725 271.000676 
L 442.060608 304.779201 
L 450.539938 300.385451 
L 463.412109 313.042216 
L 471.140152 346.128751 
L 478.988548 329.456172 
L 497.342195 373.687503 
" clip-path="url(#p223c545073)" style="fill: none; stroke: #882255; stroke-width: 5; stroke-linecap: round"/>
   </g>
   <g id="line2d_3">
    <path d="M 159.2175 336.058124 
L 162.058532 379.096686 
L 164.901387 384.932213 
L 166.431313 396.756479 
L 169.075405 416.190558 
L 171.562676 391.267088 
L 174.237768 416.190558 
L 176.894624 391.267088 
L 176.894624 369.627699 
L 176.894624 345.413065 
L 180.182416 312.127724 
L 182.70251 308.578643 
L 184.808666 291.617843 
L 184.808666 281.040922 
L 184.808666 276.409859 
L 187.667933 259.880971 
L 187.667933 251.206339 
L 187.667933 242.726238 
L 189.98744 213.28819 
L 189.98744 207.645102 
L 189.98744 206.982747 
L 192.908706 189.017197 
L 192.908706 182.421261 
L 192.908706 180.01533 
L 195.180802 144.205249 
L 195.180802 142.437094 
L 195.180802 140.575526 
L 201.601387 140.935103 
L 203.140431 143.269382 
L 203.140431 140.083939 
L 203.140431 138.628456 
L 205.766288 151.213368 
L 205.766288 150.594802 
L 205.766288 147.331151 
L 208.352028 161.052679 
L 208.352028 159.531382 
L 208.352028 158.553318 
L 210.976062 150.134244 
L 210.976062 149.474008 
L 210.976062 147.085958 
L 213.7788 167.14936 
L 213.7788 167.14936 
L 213.7788 162.244545 
L 216.672713 178.72839 
L 216.672713 177.022079 
L 216.672713 175.497742 
L 221.971839 173.933765 
L 221.971839 166.76523 
L 221.971839 165.310914 
L 226.793204 173.303354 
L 226.793204 172.816716 
L 226.793204 169.23239 
L 229.451885 172.471065 
L 229.451885 164.439458 
L 229.451885 163.761864 
L 232.354915 186.808438 
L 232.354915 185.071306 
L 232.354915 184.989593 
L 237.426102 157.700916 
L 240.819658 171.307772 
L 242.767168 166.446636 
L 242.767168 166.446636 
L 242.767168 162.124492 
L 245.290909 174.711626 
L 245.290909 172.88604 
L 245.290909 170.699228 
L 247.803708 170.162466 
L 247.803708 166.510246 
L 247.803708 165.62465 
L 250.520741 174.215679 
L 250.520741 166.637628 
L 250.520741 164.130692 
L 256.118923 178.056014 
L 258.445724 171.784565 
L 258.445724 171.172107 
L 258.445724 170.766598 
L 264.011082 185.810808 
L 264.011082 185.316987 
L 264.011082 183.694296 
L 266.469176 187.734888 
L 269.069504 183.854975 
L 276.748313 216.466722 
L 282.093026 218.749971 
L 285.045292 222.85515 
L 287.386681 210.932733 
L 290.26783 205.567645 
L 295.194959 178.578445 
L 298.393399 177.759128 
L 303.09806 190.409913 
L 313.71637 207.756073 
L 316.537343 191.739803 
L 324.363856 238.740068 
L 331.608668 240.793028 
L 335.131693 246.939182 
L 337.733845 244.346366 
L 342.507799 244.164592 
L 350.314254 245.63143 
L 352.923699 226.05504 
L 361.249854 197.601733 
L 368.748135 190.409913 
L 371.620167 187.14399 
L 374.428375 216.716969 
L 380.363906 241.315283 
L 387.384427 227.490606 
L 389.753169 233.371297 
L 392.258674 255.100417 
L 398.1705 272.582364 
L 405.490077 269.964675 
L 408.456931 260.78431 
L 413.491647 254.680739 
L 416.546029 255.522485 
L 423.750725 254.055648 
L 442.060608 279.855731 
L 450.539938 294.785337 
L 463.412109 297.346137 
L 471.140152 312.583559 
L 478.988548 330.032618 
L 497.342195 363.926972 
" clip-path="url(#p223c545073)" style="fill: none; stroke: #882255; stroke-width: 5; stroke-linecap: round"/>
   </g>
   <g id="line2d_4">
    <path d="M 159.2175 333.185131 
L 162.058532 392.154199 
L 164.901387 316.817447 
L 166.431313 288.031163 
L 169.075405 259.507807 
L 171.562676 219.13745 
L 174.237768 175.809729 
L 176.894624 142.718613 
L 180.182416 99.354124 
L 182.70251 113.582381 
L 184.808666 142.080336 
L 187.667933 180.705812 
L 189.98744 183.542863 
L 192.908706 189.797375 
L 195.180802 187.106631 
L 201.601387 207.349991 
L 203.140431 209.151131 
L 205.766288 225.991878 
L 208.352028 246.897309 
L 210.976062 256.421497 
L 213.7788 263.798647 
L 216.672713 294.42663 
L 221.971839 317.737619 
L 226.793204 320.230026 
L 229.451885 337.253441 
L 232.354915 370.510844 
L 237.426102 416.190558 
L 240.819658 416.190558 
L 242.767168 411.796808 
L 245.290909 412.96949 
L 247.803708 407.649151 
L 250.520741 405.303163 
L 256.118923 416.190558 
L 258.445724 405.125742 
L 264.011082 411.025208 
L 266.469176 416.190558 
L 269.069504 411.410003 
L 276.748313 416.190558 
L 282.093026 416.190558 
L 285.045292 414.361505 
L 287.386681 391.267088 
L 290.26783 416.190558 
L 295.194959 416.190558 
L 298.393399 413.761721 
L 303.09806 416.190558 
L 313.71637 401.663762 
L 316.537343 414.361505 
L 324.363856 416.190558 
L 331.608668 408.571614 
L 335.131693 416.190558 
L 337.733845 413.761721 
L 342.507799 416.190558 
L 350.314254 411.410003 
L 352.923699 416.190558 
L 361.249854 409.130658 
L 368.748135 416.190558 
L 371.620167 414.361505 
L 374.428375 411.410003 
L 380.363906 416.190558 
L 387.384427 416.190558 
L 389.753169 406.919362 
L 392.258674 414.361505 
L 398.1705 405.303163 
L 405.490077 411.410003 
L 408.456931 416.190558 
L 413.491647 416.190558 
L 416.546029 414.361505 
L 423.750725 416.190558 
L 442.060608 416.190558 
L 450.539938 416.190558 
L 463.412109 414.361505 
L 471.140152 391.709315 
L 478.988548 416.190558 
L 497.342195 416.190558 
" clip-path="url(#p223c545073)" style="fill: none; stroke: #000000; stroke-width: 2; stroke-linecap: round"/>
   </g>
   <g id="patch_3">
    <path d="M 159.2175 437.5 
L 159.2175 7.2 
" style="fill: none; stroke: #373737; stroke-width: 2.5; stroke-linejoin: miter; stroke-linecap: square"/>
   </g>
   <g id="patch_4">
    <path d="M 159.2175 437.5 
L 526.8375 437.5 
" style="fill: none; stroke: #373737; stroke-width: 2.5; stroke-linejoin: miter; stroke-linecap: square"/>
   </g>
  </g>
  <g id="axes_2">
   <g id="patch_5">
    <path d="M 159.2175 979.54 
L 526.8375 979.54 
L 526.8375 549.24 
L 159.2175 549.24 
L 159.2175 979.54 
z
" style="fill: none"/>
   </g>
   <g id="matplotlib.axis_3">
    <g id="xtick_4"/>
    <g id="xtick_5"/>
    <g id="xtick_6"/>
   </g>
   <g id="matplotlib.axis_4">
    <g id="ytick_26">
     <g id="text_4">
      <!-- $\mathdefault{10^{-1}}$ -->
      <g style="fill: #373737" transform="translate(56.0975 908.673257)">
       <text>
        <tspan style="font: 44px 'Arial'" x="0 24.470703" y="-0.19725000000000392">10</tspan>
        <tspan style="font: 30.8px 'Arial'" x="49.708038 67.694756" y="-30.8625">−1</tspan>
       </text>
      </g>
     </g>
    </g>
    <g id="ytick_27">
     <g id="text_5">
      <!-- $\mathdefault{10^{0}}$ -->
      <g style="fill: #373737" transform="translate(74.1375 738.114128)">
       <text>
        <tspan style="font: 44px 'Arial'" x="0 24.470703" y="-0.19725000000000392">10</tspan>
        <tspan style="font: 30.8px 'Arial'" x="49.708038" y="-30.8625">0</tspan>
       </text>
      </g>
     </g>
    </g>
    <g id="ytick_28"/>
    <g id="ytick_29"/>
    <g id="ytick_30"/>
    <g id="ytick_31"/>
    <g id="ytick_32"/>
    <g id="ytick_33"/>
    <g id="ytick_34"/>
    <g id="ytick_35"/>
    <g id="ytick_36"/>
    <g id="ytick_37"/>
    <g id="ytick_38"/>
    <g id="ytick_39"/>
    <g id="ytick_40"/>
    <g id="ytick_41"/>
    <g id="ytick_42"/>
    <g id="ytick_43"/>
    <g id="ytick_44"/>
    <g id="ytick_45"/>
    <g id="ytick_46"/>
    <g id="ytick_47"/>
    <g id="ytick_48"/>
    <g id="ytick_49"/>
    <g id="ytick_50"/>
    <g id="text_6">
     <text style="fill: #373737; font: 48px 'Arial', 'DejaVu Sans', 'Liberation Sans', 'Bitstream Vera Sans', sans-serif; text-anchor: middle" x="41.5575" y="764.39" transform="rotate(-90 41.5575 764.39)">FL</text>
    </g>
   </g>
   <g id="line2d_5">
    <path d="M 159.2175 903.273116 
L 162.058532 958.230558 
L 164.901387 846.000708 
L 166.431313 856.945783 
L 169.075405 795.475787 
L 171.562676 774.320825 
L 174.237768 752.280458 
L 176.894624 765.441816 
L 176.894624 762.220748 
L 176.894624 758.506722 
L 180.182416 787.67143 
L 182.70251 815.157188 
L 184.808666 838.645402 
L 184.808666 833.657843 
L 184.808666 822.485956 
L 187.667933 839.014843 
L 187.667933 837.548005 
L 187.667933 817.060083 
L 189.98744 842.038646 
L 189.98744 840.511316 
L 189.98744 828.985031 
L 192.908706 843.993189 
L 192.908706 842.814286 
L 192.908706 840.890206 
L 195.180802 832.971978 
L 195.180802 832.631412 
L 195.180802 822.190255 
L 201.601387 845.19116 
L 203.140431 872.653585 
L 203.140431 868.128643 
L 203.140431 852.816813 
L 205.766288 856.008139 
L 205.766288 847.231864 
L 205.766288 835.400815 
L 208.352028 850.618643 
L 208.352028 848.905899 
L 208.352028 840.511316 
L 210.976062 859.343173 
L 210.976062 857.895448 
L 210.976062 857.895448 
L 213.7788 850.618643 
L 213.7788 846.408824 
L 213.7788 840.890206 
L 216.672713 856.008139 
L 216.672713 854.623559 
L 216.672713 848.905899 
L 221.971839 838.645402 
L 221.971839 837.912001 
L 221.971839 833.314117 
L 226.793204 832.631412 
L 226.793204 819.296415 
L 226.793204 811.237073 
L 229.451885 834.698697 
L 229.451885 832.631412 
L 229.451885 828.340915 
L 232.354915 847.64684 
L 232.354915 842.425451 
L 232.354915 831.954943 
L 237.426102 873.82937 
L 240.819658 864.907575 
L 242.767168 870.924178 
L 242.767168 861.318567 
L 242.767168 855.082216 
L 245.290909 852.37193 
L 245.290909 849.330387 
L 245.290909 843.205173 
L 247.803708 867.039316 
L 247.803708 858.374886 
L 247.803708 844.78968 
L 250.520741 851.05309 
L 250.520741 842.038646 
L 250.520741 835.400815 
L 256.118923 903.273116 
L 258.445724 881.963674 
L 258.445724 872.072618 
L 258.445724 849.330387 
L 264.011082 845.594828 
L 264.011082 835.400815 
L 264.011082 830.62026 
L 266.469176 831.284595 
L 269.069504 841.653851 
L 276.748313 849.757321 
L 282.093026 829.634797 
L 285.045292 861.820758 
L 287.386681 868.679373 
L 290.26783 845.594828 
L 295.194959 858.857447 
L 298.393399 837.18579 
L 303.09806 865.434787 
L 313.71637 892.614458 
L 316.537343 865.965777 
L 324.363856 869.793272 
L 331.608668 909.7183 
L 335.131693 898.162615 
L 337.733845 873.239144 
L 342.507799 867.039316 
L 350.314254 875.024119 
L 352.923699 889.621207 
L 361.249854 894.157699 
L 368.748135 873.239144 
L 371.620167 904.160227 
L 374.428375 867.581977 
L 380.363906 846.000708 
L 387.384427 889.621207 
L 389.753169 870.356567 
L 392.258674 914.691502 
L 398.1705 858.857447 
L 405.490077 891.102714 
L 408.456931 875.024119 
L 413.491647 890.358257 
L 416.546029 896.534574 
L 423.750725 885.346585 
L 442.060608 880.652615 
L 450.539938 858.374886 
L 463.412109 894.157699 
L 471.140152 891.102714 
L 478.988548 894.941547 
L 497.342195 890.358257 
" clip-path="url(#p176942da50)" style="fill: none; stroke: #cc6677; stroke-width: 5; stroke-linecap: round"/>
   </g>
   <g id="line2d_6">
    <path d="M 159.2175 881.963674 
L 162.058532 952.873558 
L 164.901387 886.744229 
L 166.431313 853.264385 
L 169.075405 802.82431 
L 171.562676 776.200153 
L 174.237768 751.02785 
L 176.894624 759.260012 
L 176.894624 750.689874 
L 176.894624 747.284887 
L 180.182416 791.666058 
L 182.70251 821.019118 
L 184.808666 821.895731 
L 184.808666 812.520864 
L 184.808666 801.028516 
L 187.667933 824.285386 
L 187.667933 821.310171 
L 187.667933 809.228194 
L 189.98744 836.825337 
L 189.98744 833.657843 
L 189.98744 831.619011 
L 192.908706 840.134354 
L 192.908706 838.277793 
L 192.908706 822.190255 
L 195.180802 835.400815 
L 195.180802 834.698697 
L 195.180802 833.314117 
L 201.601387 837.548005 
L 203.140431 881.305244 
L 203.140431 858.857447 
L 203.140431 827.385122 
L 205.766288 869.234229 
L 205.766288 848.064153 
L 205.766288 835.048924 
L 208.352028 878.098124 
L 208.352028 857.419094 
L 208.352028 848.064153 
L 210.976062 855.082216 
L 210.976062 853.264385 
L 210.976062 839.014843 
L 213.7788 851.929702 
L 213.7788 837.548005 
L 213.7788 834.698697 
L 216.672713 846.000708 
L 216.672713 843.598133 
L 216.672713 836.46663 
L 221.971839 852.37193 
L 221.971839 841.653851 
L 221.971839 830.290314 
L 226.793204 843.993189 
L 226.793204 837.548005 
L 226.793204 831.619011 
L 229.451885 866.500602 
L 229.451885 851.929702 
L 229.451885 831.284595 
L 232.354915 859.832105 
L 232.354915 859.343173 
L 232.354915 849.757321 
L 237.426102 876.238456 
L 240.819658 910.686587 
L 242.767168 881.305244 
L 242.767168 874.424336 
L 242.767168 868.679373 
L 245.290909 880.005686 
L 245.290909 873.82937 
L 245.290909 863.348088 
L 247.803708 901.530144 
L 247.803708 886.744229 
L 247.803708 875.024119 
L 250.520741 858.857447 
L 250.520741 854.623559 
L 250.520741 848.905899 
L 256.118923 881.963674 
L 258.445724 870.356567 
L 258.445724 863.864278 
L 258.445724 858.374886 
L 264.011082 874.424336 
L 264.011082 866.500602 
L 264.011082 856.945783 
L 266.469176 857.895448 
L 269.069504 844.78968 
L 276.748313 859.343173 
L 282.093026 875.628799 
L 285.045292 869.793272 
L 287.386681 840.511316 
L 290.26783 868.128643 
L 295.194959 856.008139 
L 298.393399 857.895448 
L 303.09806 841.271045 
L 313.71637 866.500602 
L 316.537343 868.679373 
L 324.363856 910.686587 
L 331.608668 890.358257 
L 335.131693 905.966972 
L 337.733845 917.844016 
L 342.507799 893.38206 
L 350.314254 894.157699 
L 352.923699 886.744229 
L 361.249854 886.744229 
L 368.748135 897.344121 
L 371.620167 876.238456 
L 374.428375 888.168751 
L 380.363906 879.364358 
L 387.384427 910.686587 
L 389.753169 914.691502 
L 392.258674 910.686587 
L 398.1705 846.819201 
L 405.490077 898.162615 
L 408.456931 880.005686 
L 413.491647 871.496172 
L 416.546029 896.534574 
L 423.750725 864.38409 
L 442.060608 883.974826 
L 450.539938 905.966972 
L 463.412109 889.621207 
L 471.140152 854.167724 
L 478.988548 867.039316 
L 497.342195 881.305244 
" clip-path="url(#p176942da50)" style="fill: none; stroke: #cc6677; stroke-width: 5; stroke-linecap: round"/>
   </g>
   <g id="line2d_7">
    <path d="M 159.2175 878.098124 
L 162.058532 940.234833 
L 164.901387 890.358257 
L 166.431313 855.082216 
L 169.075405 808.734373 
L 171.562676 774.166345 
L 174.237768 738.203379 
L 176.894624 770.405492 
L 176.894624 760.021042 
L 176.894624 754.851068 
L 180.182416 802.371264 
L 182.70251 815.157188 
L 184.808666 826.129619 
L 184.808666 823.680706 
L 184.808666 823.380207 
L 187.667933 832.971978 
L 187.667933 818.449859 
L 187.667933 813.564161 
L 189.98744 829.309201 
L 189.98744 819.866209 
L 189.98744 816.238563 
L 192.908706 836.46663 
L 192.908706 831.954943 
L 192.908706 823.080922 
L 195.180802 843.598133 
L 195.180802 842.814286 
L 195.180802 819.296415 
L 201.601387 830.951683 
L 203.140431 855.082216 
L 203.140431 853.264385 
L 203.140431 830.951683 
L 205.766288 853.264385 
L 205.766288 852.816813 
L 205.766288 848.48383 
L 208.352028 861.820758 
L 208.352028 855.543731 
L 208.352028 855.543731 
L 210.976062 842.038646 
L 210.976062 836.825337 
L 210.976062 833.314117 
L 213.7788 859.832105 
L 213.7788 848.064153 
L 213.7788 838.277793 
L 216.672713 863.348088 
L 216.672713 849.330387 
L 216.672713 849.330387 
L 221.971839 859.343173 
L 221.971839 831.954943 
L 221.971839 831.284595 
L 226.793204 854.167724 
L 226.793204 842.038646 
L 226.793204 827.702351 
L 229.451885 836.109652 
L 229.451885 834.698697 
L 229.451885 830.290314 
L 232.354915 852.37193 
L 232.354915 842.425451 
L 232.354915 839.759301 
L 237.426102 834.003172 
L 240.819658 943.198143 
L 242.767168 861.318567 
L 242.767168 855.082216 
L 242.767168 852.37193 
L 245.290909 888.891419 
L 245.290909 885.346585 
L 245.290909 874.424336 
L 247.803708 888.891419 
L 247.803708 869.234229 
L 247.803708 863.864278 
L 250.520741 877.473033 
L 250.520741 855.543731 
L 250.520741 851.490099 
L 256.118923 874.424336 
L 258.445724 864.907575 
L 258.445724 858.374886 
L 258.445724 855.082216 
L 264.011082 863.348088 
L 264.011082 856.945783 
L 264.011082 850.618643 
L 266.469176 840.511316 
L 269.069504 844.390364 
L 276.748313 851.490099 
L 282.093026 864.907575 
L 285.045292 853.264385 
L 287.386681 845.19116 
L 290.26783 847.231864 
L 295.194959 863.348088 
L 298.393399 850.18673 
L 303.09806 888.168751 
L 313.71637 863.348088 
L 316.537343 851.929702 
L 324.363856 898.990253 
L 331.608668 880.652615 
L 335.131693 887.453065 
L 337.733845 881.963674 
L 342.507799 905.058091 
L 350.314254 920.022787 
L 352.923699 875.628799 
L 361.249854 914.691502 
L 368.748135 880.652615 
L 371.620167 896.534574 
L 374.428375 868.128643 
L 380.363906 874.424336 
L 387.384427 869.234229 
L 389.753169 873.82937 
L 392.258674 911.667699 
L 398.1705 881.963674 
L 405.490077 890.358257 
L 408.456931 876.853173 
L 413.491647 880.652615 
L 416.546029 878.728536 
L 423.750725 879.364358 
L 442.060608 874.424336 
L 450.539938 892.614458 
L 463.412109 850.618643 
L 471.140152 872.072618 
L 478.988548 899.827244 
L 497.342195 883.974826 
" clip-path="url(#p176942da50)" style="fill: none; stroke: #cc6677; stroke-width: 5; stroke-linecap: round"/>
   </g>
   <g id="line2d_8">
    <path d="M 159.2175 875.225131 
L 162.058532 934.194199 
L 164.901387 858.857447 
L 166.431313 830.071163 
L 169.075405 801.547807 
L 171.562676 761.17745 
L 174.237768 717.849729 
L 176.894624 684.758613 
L 180.182416 641.394124 
L 182.70251 655.622381 
L 184.808666 684.120336 
L 187.667933 722.745812 
L 189.98744 725.582863 
L 192.908706 731.837375 
L 195.180802 729.146631 
L 201.601387 749.389991 
L 203.140431 751.191131 
L 205.766288 768.031878 
L 208.352028 788.937309 
L 210.976062 798.461497 
L 213.7788 805.838647 
L 216.672713 836.46663 
L 221.971839 859.777619 
L 226.793204 862.270026 
L 229.451885 879.293441 
L 232.354915 912.550844 
L 237.426102 958.230558 
L 240.819658 958.230558 
L 242.767168 953.836808 
L 245.290909 955.00949 
L 247.803708 949.689151 
L 250.520741 947.343163 
L 256.118923 958.230558 
L 258.445724 947.165742 
L 264.011082 953.065208 
L 266.469176 958.230558 
L 269.069504 953.450003 
L 276.748313 958.230558 
L 282.093026 958.230558 
L 285.045292 956.401505 
L 287.386681 933.307088 
L 290.26783 958.230558 
L 295.194959 958.230558 
L 298.393399 955.801721 
L 303.09806 958.230558 
L 313.71637 943.703762 
L 316.537343 956.401505 
L 324.363856 958.230558 
L 331.608668 950.611614 
L 335.131693 958.230558 
L 337.733845 955.801721 
L 342.507799 958.230558 
L 350.314254 953.450003 
L 352.923699 958.230558 
L 361.249854 951.170658 
L 368.748135 958.230558 
L 371.620167 956.401505 
L 374.428375 953.450003 
L 380.363906 958.230558 
L 387.384427 958.230558 
L 389.753169 948.959362 
L 392.258674 956.401505 
L 398.1705 947.343163 
L 405.490077 953.450003 
L 408.456931 958.230558 
L 413.491647 958.230558 
L 416.546029 956.401505 
L 423.750725 958.230558 
L 442.060608 958.230558 
L 450.539938 958.230558 
L 463.412109 956.401505 
L 471.140152 933.749315 
L 478.988548 958.230558 
L 497.342195 958.230558 
" clip-path="url(#p176942da50)" style="fill: none; stroke: #000000; stroke-width: 2; stroke-linecap: round"/>
   </g>
   <g id="patch_6">
    <path d="M 159.2175 979.54 
L 159.2175 549.24 
" style="fill: none; stroke: #373737; stroke-width: 2.5; stroke-linejoin: miter; stroke-linecap: square"/>
   </g>
   <g id="patch_7">
    <path d="M 159.2175 979.54 
L 526.8375 979.54 
" style="fill: none; stroke: #373737; stroke-width: 2.5; stroke-linejoin: miter; stroke-linecap: square"/>
   </g>
  </g>
  <g id="axes_3">
   <g id="patch_8">
    <path d="M 159.2175 1521.58 
L 526.8375 1521.58 
L 526.8375 1091.28 
L 159.2175 1091.28 
L 159.2175 1521.58 
z
" style="fill: none"/>
   </g>
   <g id="matplotlib.axis_5">
    <g id="xtick_7"/>
    <g id="xtick_8"/>
    <g id="xtick_9"/>
   </g>
   <g id="matplotlib.axis_6">
    <g id="ytick_51">
     <g id="text_7">
      <!-- $\mathdefault{10^{-1}}$ -->
      <g style="fill: #373737" transform="translate(56.0975 1450.713257)">
       <text>
        <tspan style="font: 44px 'Arial'" x="0 24.470703" y="-0.19725000000000392">10</tspan>
        <tspan style="font: 30.8px 'Arial'" x="49.708038 67.694756" y="-30.8625">−1</tspan>
       </text>
      </g>
     </g>
    </g>
    <g id="ytick_52">
     <g id="text_8">
      <!-- $\mathdefault{10^{0}}$ -->
      <g style="fill: #373737" transform="translate(74.1375 1280.154128)">
       <text>
        <tspan style="font: 44px 'Arial'" x="0 24.470703" y="-0.19725000000000392">10</tspan>
        <tspan style="font: 30.8px 'Arial'" x="49.708038" y="-30.8625">0</tspan>
       </text>
      </g>
     </g>
    </g>
    <g id="ytick_53"/>
    <g id="ytick_54"/>
    <g id="ytick_55"/>
    <g id="ytick_56"/>
    <g id="ytick_57"/>
    <g id="ytick_58"/>
    <g id="ytick_59"/>
    <g id="ytick_60"/>
    <g id="ytick_61"/>
    <g id="ytick_62"/>
    <g id="ytick_63"/>
    <g id="ytick_64"/>
    <g id="ytick_65"/>
    <g id="ytick_66"/>
    <g id="ytick_67"/>
    <g id="ytick_68"/>
    <g id="ytick_69"/>
    <g id="ytick_70"/>
    <g id="ytick_71"/>
    <g id="ytick_72"/>
    <g id="ytick_73"/>
    <g id="ytick_74"/>
    <g id="ytick_75"/>
    <g id="text_9">
     <text style="fill: #373737; font: 48px 'Arial', 'DejaVu Sans', 'Liberation Sans', 'Bitstream Vera Sans', sans-serif; text-anchor: middle" x="41.5575" y="1306.43" transform="rotate(-90 41.5575 1306.43)">FL</text>
    </g>
   </g>
   <g id="line2d_9">
    <path d="M 159.2175 1448.927144 
L 162.058532 1433.142714 
L 164.901387 1398.048139 
L 166.431313 1366.935043 
L 169.075405 1346.704725 
L 171.562676 1308.726767 
L 174.237768 1284.544332 
L 176.894624 1268.906436 
L 176.894624 1261.469687 
L 176.894624 1260.736286 
L 180.182416 1328.244592 
L 182.70251 1335.286339 
L 184.808666 1340.883317 
L 184.808666 1339.39115 
L 184.808666 1334.294719 
L 187.667933 1353.532057 
L 187.667933 1350.774373 
L 187.667933 1346.472157 
L 189.98744 1361.620764 
L 189.98744 1349.796498 
L 189.98744 1341.31523 
L 192.908706 1382.174354 
L 192.908706 1374.671412 
L 192.908706 1356.131373 
L 195.180802 1382.930206 
L 195.180802 1377.440815 
L 195.180802 1374.332405 
L 201.601387 1392.658643 
L 203.140431 1387.23116 
L 203.140431 1382.930206 
L 203.140431 1369.742351 
L 205.766288 1413.536172 
L 205.766288 1397.583731 
L 205.766288 1392.22673 
L 208.352028 1411.274229 
L 208.352028 1406.42409 
L 208.352028 1399.459094 
L 210.976062 1428.082111 
L 210.976062 1426.014826 
L 210.976062 1420.138124 
L 213.7788 1420.768536 
L 213.7788 1411.274229 
L 213.7788 1396.663559 
L 216.672713 1452.726587 
L 216.672713 1440.202615 
L 216.672713 1436.197699 
L 221.971839 1482.274833 
L 221.971839 1469.012213 
L 221.971839 1457.767503 
L 226.793204 1500.270558 
L 226.793204 1500.270558 
L 226.793204 1500.270558 
L 229.451885 1488.32496 
L 229.451885 1475.347088 
L 229.451885 1474.036029 
L 232.354915 1500.270558 
L 232.354915 1500.270558 
L 232.354915 1496.65653 
L 237.426102 1500.270558 
L 240.819658 1500.270558 
L 242.767168 1500.270558 
L 242.767168 1500.270558 
L 242.767168 1457.767503 
L 245.290909 1500.270558 
L 245.290909 1500.270558 
L 245.290909 1500.270558 
L 247.803708 1500.270558 
L 247.803708 1500.270558 
L 247.803708 1500.270558 
L 250.520741 1500.270558 
L 250.520741 1500.270558 
L 250.520741 1475.347088 
L 256.118923 1500.270558 
L 258.445724 1500.270558 
L 258.445724 1500.270558 
L 258.445724 1500.270558 
L 264.011082 1500.270558 
L 264.011082 1494.913558 
L 264.011082 1494.913558 
L 266.469176 1500.270558 
L 269.069504 1480.836479 
L 276.748313 1486.765474 
L 282.093026 1500.270558 
L 285.045292 1500.270558 
L 287.386681 1500.270558 
L 290.26783 1486.765474 
L 295.194959 1486.765474 
L 298.393399 1500.270558 
L 303.09806 1500.270558 
L 313.71637 1479.425524 
L 316.537343 1500.270558 
L 324.363856 1480.836479 
L 331.608668 1500.270558 
L 335.131693 1494.913558 
L 337.733845 1500.270558 
L 342.507799 1446.200227 
L 350.314254 1500.270558 
L 352.923699 1496.65653 
L 361.249854 1486.765474 
L 368.748135 1479.425524 
L 371.620167 1500.270558 
L 374.428375 1455.709791 
L 380.363906 1500.270558 
L 387.384427 1486.765474 
L 389.753169 1447.098091 
L 392.258674 1448.927144 
L 398.1705 1500.270558 
L 405.490077 1500.270558 
L 408.456931 1500.270558 
L 413.491647 1500.270558 
L 416.546029 1486.765474 
L 423.750725 1500.270558 
L 442.060608 1500.270558 
L 450.539938 1471.481538 
L 463.412109 1488.32496 
L 471.140152 1488.32496 
L 478.988548 1500.270558 
L 497.342195 1457.767503 
" clip-path="url(#p0fd97f6b89)" style="fill: none; stroke: #44aa99; stroke-width: 5; stroke-linecap: round"/>
   </g>
   <g id="line2d_10">
    <path d="M 159.2175 1445.313116 
L 162.058532 1474.036029 
L 164.901387 1409.621977 
L 166.431313 1383.311045 
L 169.075405 1395.754677 
L 171.562676 1346.704725 
L 174.237768 1325.74551 
L 176.894624 1309.146445 
L 176.894624 1308.032546 
L 176.894624 1303.737262 
L 180.182416 1373.659011 
L 182.70251 1367.859041 
L 184.808666 1389.271864 
L 184.808666 1383.693851 
L 184.808666 1381.426137 
L 187.667933 1436.981547 
L 187.667933 1383.311045 
L 187.667933 1382.174354 
L 189.98744 1419.513033 
L 189.98744 1411.833272 
L 189.98744 1406.42409 
L 192.908706 1414.693585 
L 192.908706 1410.168643 
L 192.908706 1409.621977 
L 195.180802 1424.668009 
L 195.180802 1420.138124 
L 195.180802 1403.860758 
L 201.601387 1444.436503 
L 203.140431 1436.981547 
L 203.140431 1423.345244 
L 203.140431 1401.872105 
L 205.766288 1494.913558 
L 205.766288 1464.307592 
L 205.766288 1445.313116 
L 208.352028 1463.176686 
L 208.352028 1448.006972 
L 208.352028 1406.42409 
L 210.976062 1432.398257 
L 210.976062 1425.338357 
L 210.976062 1419.513033 
L 213.7788 1493.210658 
L 213.7788 1438.574574 
L 213.7788 1418.893173 
L 216.672713 1467.807749 
L 216.672713 1457.767503 
L 216.672713 1436.981547 
L 221.971839 1500.270558 
L 221.971839 1488.32496 
L 221.971839 1469.012213 
L 226.793204 1486.765474 
L 226.793204 1474.036029 
L 226.793204 1463.176686 
L 229.451885 1500.270558 
L 229.451885 1486.765474 
L 229.451885 1457.767503 
L 232.354915 1500.270558 
L 232.354915 1500.270558 
L 232.354915 1500.270558 
L 237.426102 1500.270558 
L 240.819658 1500.270558 
L 242.767168 1500.270558 
L 242.767168 1500.270558 
L 242.767168 1439.384121 
L 245.290909 1500.270558 
L 245.290909 1479.425524 
L 245.290909 1472.747772 
L 247.803708 1488.32496 
L 247.803708 1479.425524 
L 247.803708 1462.062787 
L 250.520741 1500.270558 
L 250.520741 1488.32496 
L 250.520741 1480.836479 
L 256.118923 1500.270558 
L 258.445724 1500.270558 
L 258.445724 1500.270558 
L 258.445724 1500.270558 
L 264.011082 1500.270558 
L 264.011082 1500.270558 
L 264.011082 1444.436503 
L 266.469176 1488.32496 
L 269.069504 1500.270558 
L 276.748313 1500.270558 
L 282.093026 1500.270558 
L 285.045292 1480.836479 
L 287.386681 1479.425524 
L 290.26783 1500.270558 
L 295.194959 1500.270558 
L 298.393399 1500.270558 
L 303.09806 1500.270558 
L 313.71637 1500.270558 
L 316.537343 1488.32496 
L 324.363856 1480.836479 
L 331.608668 1500.270558 
L 335.131693 1474.036029 
L 337.733845 1479.425524 
L 342.507799 1456.731502 
L 350.314254 1445.313116 
L 352.923699 1500.270558 
L 361.249854 1494.913558 
L 368.748135 1472.747772 
L 371.620167 1466.622558 
L 374.428375 1500.270558 
L 380.363906 1451.7583 
L 387.384427 1500.270558 
L 389.753169 1500.270558 
L 392.258674 1462.062787 
L 398.1705 1493.210658 
L 405.490077 1500.270558 
L 408.456931 1452.726587 
L 413.491647 1500.270558 
L 416.546029 1479.425524 
L 423.750725 1493.210658 
L 442.060608 1500.270558 
L 450.539938 1486.765474 
L 463.412109 1452.726587 
L 471.140152 1500.270558 
L 478.988548 1465.456032 
L 497.342195 1500.270558 
" clip-path="url(#p0fd97f6b89)" style="fill: none; stroke: #44aa99; stroke-width: 5; stroke-linecap: round"/>
   </g>
   <g id="line2d_11">
    <path d="M 159.2175 1475.347088 
L 162.058532 1482.274833 
L 164.901387 1427.386585 
L 166.431313 1411.274229 
L 169.075405 1402.859758 
L 171.562676 1358.006736 
L 174.237768 1370.060945 
L 176.894624 1412.396567 
L 176.894624 1396.663559 
L 176.894624 1393.969702 
L 180.182416 1500.270558 
L 182.70251 1432.398257 
L 184.808666 1469.012213 
L 184.808666 1458.8182 
L 184.808666 1444.436503 
L 187.667933 1472.747772 
L 187.667933 1462.062787 
L 187.667933 1436.981547 
L 189.98744 1475.347088 
L 189.98744 1448.006972 
L 189.98744 1444.436503 
L 192.908706 1500.270558 
L 192.908706 1445.313116 
L 192.908706 1444.436503 
L 195.180802 1467.807749 
L 195.180802 1450.802507 
L 195.180802 1448.927144 
L 201.601387 1436.197699 
L 203.140431 1480.836479 
L 203.140431 1452.726587 
L 203.140431 1435.42206 
L 205.766288 1489.917987 
L 205.766288 1474.036029 
L 205.766288 1449.858891 
L 208.352028 1496.65653 
L 208.352028 1488.32496 
L 208.352028 1474.036029 
L 210.976062 1500.270558 
L 210.976062 1486.765474 
L 210.976062 1467.807749 
L 213.7788 1494.913558 
L 213.7788 1486.765474 
L 213.7788 1466.622558 
L 216.672713 1500.270558 
L 216.672713 1475.347088 
L 216.672713 1463.176686 
L 221.971839 1500.270558 
L 221.971839 1496.65653 
L 221.971839 1494.913558 
L 226.793204 1500.270558 
L 226.793204 1494.913558 
L 226.793204 1472.747772 
L 229.451885 1500.270558 
L 229.451885 1496.65653 
L 229.451885 1457.767503 
L 232.354915 1500.270558 
L 232.354915 1494.913558 
L 232.354915 1467.807749 
L 237.426102 1500.270558 
L 240.819658 1500.270558 
L 242.767168 1500.270558 
L 242.767168 1494.913558 
L 242.767168 1488.32496 
L 245.290909 1500.270558 
L 245.290909 1500.270558 
L 245.290909 1451.7583 
L 247.803708 1500.270558 
L 247.803708 1500.270558 
L 247.803708 1500.270558 
L 250.520741 1500.270558 
L 250.520741 1500.270558 
L 250.520741 1462.062787 
L 256.118923 1500.270558 
L 258.445724 1500.270558 
L 258.445724 1500.270558 
L 258.445724 1475.347088 
L 264.011082 1500.270558 
L 264.011082 1500.270558 
L 264.011082 1480.836479 
L 266.469176 1472.747772 
L 269.069504 1500.270558 
L 276.748313 1500.270558 
L 282.093026 1488.32496 
L 285.045292 1500.270558 
L 287.386681 1480.836479 
L 290.26783 1474.036029 
L 295.194959 1432.398257 
L 298.393399 1485.238143 
L 303.09806 1469.012213 
L 313.71637 1494.913558 
L 316.537343 1500.270558 
L 324.363856 1486.765474 
L 331.608668 1500.270558 
L 335.131693 1500.270558 
L 337.733845 1500.270558 
L 342.507799 1456.731502 
L 350.314254 1488.32496 
L 352.923699 1467.807749 
L 361.249854 1480.836479 
L 368.748135 1486.765474 
L 371.620167 1479.425524 
L 374.428375 1500.270558 
L 380.363906 1486.765474 
L 387.384427 1475.347088 
L 389.753169 1446.200227 
L 392.258674 1500.270558 
L 398.1705 1493.210658 
L 405.490077 1488.32496 
L 408.456931 1500.270558 
L 413.491647 1469.012213 
L 416.546029 1493.210658 
L 423.750725 1474.036029 
L 442.060608 1500.270558 
L 450.539938 1500.270558 
L 463.412109 1500.270558 
L 471.140152 1500.270558 
L 478.988548 1491.546028 
L 497.342195 1474.036029 
" clip-path="url(#p0fd97f6b89)" style="fill: none; stroke: #44aa99; stroke-width: 5; stroke-linecap: round"/>
   </g>
   <g id="line2d_12">
    <path d="M 159.2175 1417.265131 
L 162.058532 1476.234199 
L 164.901387 1400.897447 
L 166.431313 1372.111163 
L 169.075405 1343.587807 
L 171.562676 1303.21745 
L 174.237768 1259.889729 
L 176.894624 1226.798613 
L 180.182416 1183.434124 
L 182.70251 1197.662381 
L 184.808666 1226.160336 
L 187.667933 1264.785812 
L 189.98744 1267.622863 
L 192.908706 1273.877375 
L 195.180802 1271.186631 
L 201.601387 1291.429991 
L 203.140431 1293.231131 
L 205.766288 1310.071878 
L 208.352028 1330.977309 
L 210.976062 1340.501497 
L 213.7788 1347.878647 
L 216.672713 1378.50663 
L 221.971839 1401.817619 
L 226.793204 1404.310026 
L 229.451885 1421.333441 
L 232.354915 1454.590844 
L 237.426102 1500.270558 
L 240.819658 1500.270558 
L 242.767168 1495.876808 
L 245.290909 1497.04949 
L 247.803708 1491.729151 
L 250.520741 1489.383163 
L 256.118923 1500.270558 
L 258.445724 1489.205742 
L 264.011082 1495.105208 
L 266.469176 1500.270558 
L 269.069504 1495.490003 
L 276.748313 1500.270558 
L 282.093026 1500.270558 
L 285.045292 1498.441505 
L 287.386681 1475.347088 
L 290.26783 1500.270558 
L 295.194959 1500.270558 
L 298.393399 1497.841721 
L 303.09806 1500.270558 
L 313.71637 1485.743762 
L 316.537343 1498.441505 
L 324.363856 1500.270558 
L 331.608668 1492.651614 
L 335.131693 1500.270558 
L 337.733845 1497.841721 
L 342.507799 1500.270558 
L 350.314254 1495.490003 
L 352.923699 1500.270558 
L 361.249854 1493.210658 
L 368.748135 1500.270558 
L 371.620167 1498.441505 
L 374.428375 1495.490003 
L 380.363906 1500.270558 
L 387.384427 1500.270558 
L 389.753169 1490.999362 
L 392.258674 1498.441505 
L 398.1705 1489.383163 
L 405.490077 1495.490003 
L 408.456931 1500.270558 
L 413.491647 1500.270558 
L 416.546029 1498.441505 
L 423.750725 1500.270558 
L 442.060608 1500.270558 
L 450.539938 1500.270558 
L 463.412109 1498.441505 
L 471.140152 1475.789315 
L 478.988548 1500.270558 
L 497.342195 1500.270558 
" clip-path="url(#p0fd97f6b89)" style="fill: none; stroke: #000000; stroke-width: 2; stroke-linecap: round"/>
   </g>
   <g id="patch_9">
    <path d="M 159.2175 1521.58 
L 159.2175 1091.28 
" style="fill: none; stroke: #373737; stroke-width: 2.5; stroke-linejoin: miter; stroke-linecap: square"/>
   </g>
   <g id="patch_10">
    <path d="M 159.2175 1521.58 
L 526.8375 1521.58 
" style="fill: none; stroke: #373737; stroke-width: 2.5; stroke-linejoin: miter; stroke-linecap: square"/>
   </g>
  </g>
  <g id="axes_4">
   <g id="patch_11">
    <path d="M 159.2175 2063.62 
L 526.8375 2063.62 
L 526.8375 1633.32 
L 159.2175 1633.32 
L 159.2175 2063.62 
z
" style="fill: none"/>
   </g>
   <g id="matplotlib.axis_7">
    <g id="xtick_10">
     <g id="text_10">
      <text style="fill: #373737; font: 44px 'Arial', 'DejaVu Sans', 'Liberation Sans', 'Bitstream Vera Sans', sans-serif; text-anchor: middle" x="159.2175" y="2111.114375" transform="rotate(-0 159.2175 2111.114375)">0</text>
     </g>
    </g>
    <g id="xtick_11">
     <g id="text_11">
      <text style="fill: #373737; font: 44px 'Arial', 'DejaVu Sans', 'Liberation Sans', 'Bitstream Vera Sans', sans-serif; text-anchor: middle" x="343.0275" y="2111.114375" transform="rotate(-0 343.0275 2111.114375)">70</text>
     </g>
    </g>
    <g id="xtick_12">
     <g id="text_12">
      <text style="fill: #373737; font: 44px 'Arial', 'DejaVu Sans', 'Liberation Sans', 'Bitstream Vera Sans', sans-serif; text-anchor: middle" x="526.8375" y="2111.114375" transform="rotate(-0 526.8375 2111.114375)">140</text>
     </g>
    </g>
    <g id="text_13">
     <text style="fill: #373737; font: 48px 'Arial', 'DejaVu Sans', 'Liberation Sans', 'Bitstream Vera Sans', sans-serif; text-anchor: middle" x="343.0275" y="2159.216875" transform="rotate(-0 343.0275 2159.216875)">day</text>
    </g>
   </g>
   <g id="matplotlib.axis_8">
    <g id="ytick_76">
     <g id="text_14">
      <!-- $\mathdefault{10^{-1}}$ -->
      <g style="fill: #373737" transform="translate(56.0975 1992.753257)">
       <text>
        <tspan style="font: 44px 'Arial'" x="0 24.470703" y="-0.19725000000000392">10</tspan>
        <tspan style="font: 30.8px 'Arial'" x="49.708038 67.694756" y="-30.8625">−1</tspan>
       </text>
      </g>
     </g>
    </g>
    <g id="ytick_77">
     <g id="text_15">
      <!-- $\mathdefault{10^{0}}$ -->
      <g style="fill: #373737" transform="translate(74.1375 1822.194128)">
       <text>
        <tspan style="font: 44px 'Arial'" x="0 24.470703" y="-0.19725000000000392">10</tspan>
        <tspan style="font: 30.8px 'Arial'" x="49.708038" y="-30.8625">0</tspan>
       </text>
      </g>
     </g>
    </g>
    <g id="ytick_78"/>
    <g id="ytick_79"/>
    <g id="ytick_80"/>
    <g id="ytick_81"/>
    <g id="ytick_82"/>
    <g id="ytick_83"/>
    <g id="ytick_84"/>
    <g id="ytick_85"/>
    <g id="ytick_86"/>
    <g id="ytick_87"/>
    <g id="ytick_88"/>
    <g id="ytick_89"/>
    <g id="ytick_90"/>
    <g id="ytick_91"/>
    <g id="ytick_92"/>
    <g id="ytick_93"/>
    <g id="ytick_94"/>
    <g id="ytick_95"/>
    <g id="ytick_96"/>
    <g id="ytick_97"/>
    <g id="ytick_98"/>
    <g id="ytick_99"/>
    <g id="ytick_100"/>
    <g id="text_16">
     <text style="fill: #373737; font: 48px 'Arial', 'DejaVu Sans', 'Liberation Sans', 'Bitstream Vera Sans', sans-serif; text-anchor: middle" x="41.5575" y="1848.47" transform="rotate(-90 41.5575 1848.47)">FL</text>
    </g>
   </g>
   <g id="line2d_13">
    <path d="M 159.2175 1969.426585 
L 162.058532 2004.102787 
L 164.901387 1970.122111 
L 166.431313 1982.242615 
L 169.075405 1987.353116 
L 171.562676 1983.907244 
L 174.237768 1975.93473 
L 176.894624 2038.69653 
L 176.894624 1985.610144 
L 176.894624 1982.242615 
L 180.182416 1990.046972 
L 182.70251 1952.759373 
L 184.808666 2011.052213 
L 184.808666 1988.240227 
L 184.808666 1983.070253 
L 187.667933 2005.216686 
L 187.667933 1970.824229 
L 187.667933 1967.378357 
L 189.98744 1990.967144 
L 189.98744 1986.476503 
L 189.98744 1975.93473 
L 192.908706 2005.216686 
L 192.908706 2000.8582 
L 192.908706 1994.766587 
L 195.180802 2036.953558 
L 195.180802 2022.876479 
L 195.180802 1990.967144 
L 201.601387 1986.476503 
L 203.140431 1990.967144 
L 203.140431 1979.021547 
L 203.140431 1975.182714 
L 205.766288 2006.347592 
L 205.766288 1999.807503 
L 205.766288 1993.7983 
L 208.352028 2011.052213 
L 208.352028 1995.747699 
L 208.352028 1978.237699 
L 210.976062 2014.787772 
L 210.976062 1971.533065 
L 210.976062 1970.824229 
L 213.7788 2009.847749 
L 213.7788 1989.138091 
L 213.7788 1948.987575 
L 216.672713 2004.102787 
L 216.672713 1994.766587 
L 216.672713 1987.353116 
L 221.971839 2016.076029 
L 221.971839 1979.021547 
L 221.971839 1968.054826 
L 226.793204 2004.102787 
L 226.793204 1985.610144 
L 226.793204 1984.7538 
L 229.451885 2042.310558 
L 229.451885 2005.216686 
L 229.451885 1999.807503 
L 232.354915 2005.216686 
L 232.354915 2005.216686 
L 232.354915 1994.766587 
L 237.426102 2003.005391 
L 240.819658 2042.310558 
L 242.767168 2006.347592 
L 242.767168 1999.807503 
L 242.767168 1999.807503 
L 245.290909 2003.005391 
L 245.290909 1998.771502 
L 245.290909 1976.694458 
L 247.803708 2042.310558 
L 247.803708 2009.847749 
L 247.803708 1999.807503 
L 250.520741 2017.387088 
L 250.520741 1985.610144 
L 250.520741 1973.701207 
L 256.118923 2042.310558 
L 258.445724 2042.310558 
L 258.445724 2024.314833 
L 258.445724 1988.240227 
L 264.011082 2022.876479 
L 264.011082 2016.076029 
L 264.011082 1975.182714 
L 266.469176 2009.847749 
L 269.069504 2004.102787 
L 276.748313 2042.310558 
L 282.093026 2005.216686 
L 285.045292 1995.747699 
L 287.386681 2021.465524 
L 290.26783 2004.102787 
L 295.194959 2042.310558 
L 298.393399 1960.933173 
L 303.09806 1959.708799 
L 313.71637 1978.237699 
L 316.537343 2028.805474 
L 324.363856 2022.876479 
L 331.608668 1977.46206 
L 335.131693 1978.237699 
L 337.733845 2028.805474 
L 342.507799 1967.378357 
L 350.314254 1990.967144 
L 352.923699 1993.7983 
L 361.249854 1994.766587 
L 368.748135 1961.553033 
L 371.620167 1997.749791 
L 374.428375 1989.138091 
L 380.363906 2042.310558 
L 387.384427 2004.102787 
L 389.753169 2042.310558 
L 392.258674 2005.216686 
L 398.1705 2014.787772 
L 405.490077 1990.046972 
L 408.456931 2042.310558 
L 413.491647 1981.424121 
L 416.546029 1989.138091 
L 423.750725 2008.662558 
L 442.060608 1982.242615 
L 450.539938 2004.102787 
L 463.412109 1964.732615 
L 471.140152 1999.807503 
L 478.988548 2001.924016 
L 497.342195 1982.242615 
" clip-path="url(#p7fe1e5fa57)" style="fill: none; stroke: #332288; stroke-width: 5; stroke-linecap: round"/>
   </g>
   <g id="line2d_14">
    <path d="M 159.2175 1940.088139 
L 162.058532 2017.387088 
L 164.901387 1968.73753 
L 166.431313 1979.021547 
L 169.075405 2006.347592 
L 171.562676 1975.182714 
L 174.237768 1995.747699 
L 176.894624 2005.216686 
L 176.894624 1995.747699 
L 176.894624 1968.73753 
L 180.182416 1990.967144 
L 182.70251 1962.178124 
L 184.808666 1974.438257 
L 184.808666 1968.054826 
L 184.808666 1963.444358 
L 187.667933 1990.046972 
L 187.667933 1973.701207 
L 187.667933 1972.248751 
L 189.98744 1995.747699 
L 189.98744 1982.242615 
L 189.98744 1979.021547 
L 192.908706 1999.807503 
L 192.908706 1990.967144 
L 192.908706 1987.353116 
L 195.180802 1986.476503 
L 195.180802 1971.533065 
L 195.180802 1968.054826 
L 201.601387 1968.054826 
L 203.140431 1998.771502 
L 203.140431 1980.614574 
L 203.140431 1971.533065 
L 205.766288 2013.521538 
L 205.766288 1982.242615 
L 205.766288 1978.237699 
L 208.352028 1979.021547 
L 208.352028 1959.104119 
L 208.352028 1953.873272 
L 210.976062 2030.36496 
L 210.976062 2000.8582 
L 210.976062 1982.242615 
L 213.7788 2042.310558 
L 213.7788 2030.36496 
L 213.7788 2022.876479 
L 216.672713 2005.216686 
L 216.672713 1979.021547 
L 216.672713 1955.576172 
L 221.971839 2005.216686 
L 221.971839 1990.967144 
L 221.971839 1979.021547 
L 226.793204 2016.076029 
L 226.793204 2009.847749 
L 226.793204 1975.182714 
L 229.451885 2042.310558 
L 229.451885 2030.36496 
L 229.451885 2011.052213 
L 232.354915 2030.36496 
L 232.354915 2005.216686 
L 232.354915 1983.070253 
L 237.426102 2020.080944 
L 240.819658 2042.310558 
L 242.767168 1990.046972 
L 242.767168 1986.476503 
L 242.767168 1986.476503 
L 245.290909 2022.876479 
L 245.290909 2009.847749 
L 245.290909 1983.907244 
L 247.803708 2038.69653 
L 247.803708 1998.771502 
L 247.803708 1985.610144 
L 250.520741 2042.310558 
L 250.520741 2028.805474 
L 250.520741 1971.533065 
L 256.118923 2042.310558 
L 258.445724 2042.310558 
L 258.445724 2017.387088 
L 258.445724 1975.93473 
L 264.011082 2042.310558 
L 264.011082 2016.076029 
L 264.011082 1999.807503 
L 266.469176 1995.747699 
L 269.069504 2030.36496 
L 276.748313 1994.766587 
L 282.093026 2017.387088 
L 285.045292 1986.476503 
L 287.386681 2004.102787 
L 290.26783 2009.847749 
L 295.194959 1978.237699 
L 298.393399 1997.749791 
L 303.09806 1986.476503 
L 313.71637 1981.424121 
L 316.537343 1977.46206 
L 324.363856 2030.36496 
L 331.608668 1990.046972 
L 335.131693 1985.610144 
L 337.733845 2025.781671 
L 342.507799 1984.7538 
L 350.314254 2014.787772 
L 352.923699 2016.076029 
L 361.249854 1984.7538 
L 368.748135 1993.7983 
L 371.620167 1968.054826 
L 374.428375 1951.661977 
L 380.363906 1993.7983 
L 387.384427 1994.766587 
L 389.753169 1972.971419 
L 392.258674 1985.610144 
L 398.1705 2003.005391 
L 405.490077 1990.967144 
L 408.456931 1998.771502 
L 413.491647 1990.967144 
L 416.546029 1976.694458 
L 423.750725 1977.46206 
L 442.060608 1953.314229 
L 450.539938 1970.824229 
L 463.412109 1982.242615 
L 471.140152 2022.876479 
L 478.988548 1978.237699 
L 497.342195 1994.766587 
" clip-path="url(#p7fe1e5fa57)" style="fill: none; stroke: #332288; stroke-width: 5; stroke-linecap: round"/>
   </g>
   <g id="line2d_15">
    <path d="M 159.2175 1931.311864 
L 162.058532 2011.052213 
L 164.901387 1999.807503 
L 166.431313 1978.237699 
L 169.075405 1979.021547 
L 171.562676 1966.043674 
L 174.237768 1977.46206 
L 176.894624 1986.476503 
L 176.894624 1968.73753 
L 176.894624 1961.553033 
L 180.182416 1986.476503 
L 182.70251 1946.406377 
L 184.808666 1995.747699 
L 184.808666 1991.898891 
L 184.808666 1979.813778 
L 187.667933 1999.807503 
L 187.667933 1990.046972 
L 187.667933 1982.242615 
L 189.98744 2006.347592 
L 189.98744 1986.476503 
L 189.98744 1978.237699 
L 192.908706 2030.36496 
L 192.908706 2016.076029 
L 192.908706 1983.070253 
L 195.180802 1999.807503 
L 195.180802 1982.242615 
L 195.180802 1975.93473 
L 201.601387 1979.021547 
L 203.140431 2042.310558 
L 203.140431 2009.847749 
L 203.140431 1995.747699 
L 205.766288 2009.847749 
L 205.766288 1999.807503 
L 205.766288 1994.766587 
L 208.352028 2022.876479 
L 208.352028 2004.102787 
L 208.352028 1977.46206 
L 210.976062 2016.076029 
L 210.976062 1990.967144 
L 210.976062 1979.021547 
L 213.7788 2014.787772 
L 213.7788 2009.847749 
L 213.7788 1999.807503 
L 216.672713 2022.876479 
L 216.672713 2011.052213 
L 216.672713 1974.438257 
L 221.971839 1990.967144 
L 221.971839 1977.46206 
L 221.971839 1975.93473 
L 226.793204 2042.310558 
L 226.793204 1990.046972 
L 226.793204 1979.021547 
L 229.451885 2030.36496 
L 229.451885 1999.807503 
L 229.451885 1965.385244 
L 232.354915 2042.310558 
L 232.354915 2042.310558 
L 232.354915 2030.36496 
L 237.426102 2035.250658 
L 240.819658 2042.310558 
L 242.767168 2016.076029 
L 242.767168 2009.847749 
L 242.767168 1989.138091 
L 245.290909 2008.662558 
L 245.290909 1998.771502 
L 245.290909 1985.610144 
L 247.803708 2014.787772 
L 247.803708 1994.766587 
L 247.803708 1985.610144 
L 250.520741 2024.314833 
L 250.520741 2000.8582 
L 250.520741 1965.385244 
L 256.118923 2042.310558 
L 258.445724 2006.347592 
L 258.445724 2004.102787 
L 258.445724 1994.766587 
L 264.011082 1994.766587 
L 264.011082 1979.021547 
L 264.011082 1975.182714 
L 266.469176 2005.216686 
L 269.069504 1998.771502 
L 276.748313 1999.807503 
L 282.093026 2031.957987 
L 285.045292 2011.052213 
L 287.386681 2009.847749 
L 290.26783 2042.310558 
L 295.194959 1967.378357 
L 298.393399 1998.771502 
L 303.09806 1979.813778 
L 313.71637 1968.054826 
L 316.537343 2004.102787 
L 324.363856 1994.766587 
L 331.608668 1993.7983 
L 335.131693 2016.076029 
L 337.733845 2008.662558 
L 342.507799 1994.766587 
L 350.314254 1979.813778 
L 352.923699 1953.873272 
L 361.249854 1964.732615 
L 368.748135 1985.610144 
L 371.620167 1983.907244 
L 374.428375 1992.842507 
L 380.363906 1984.7538 
L 387.384427 2011.052213 
L 389.753169 2008.662558 
L 392.258674 2004.102787 
L 398.1705 1976.694458 
L 405.490077 2016.076029 
L 408.456931 2004.102787 
L 413.491647 2036.953558 
L 416.546029 1973.701207 
L 423.750725 1977.46206 
L 442.060608 2021.465524 
L 450.539938 2028.805474 
L 463.412109 1993.7983 
L 471.140152 2022.876479 
L 478.988548 1983.070253 
L 497.342195 1956.152618 
" clip-path="url(#p7fe1e5fa57)" style="fill: none; stroke: #332288; stroke-width: 5; stroke-linecap: round"/>
   </g>
   <g id="line2d_16">
    <path d="M 159.2175 1959.305131 
L 162.058532 2018.274199 
L 164.901387 1942.937447 
L 166.431313 1914.151163 
L 169.075405 1885.627807 
L 171.562676 1845.25745 
L 174.237768 1801.929729 
L 176.894624 1768.838613 
L 180.182416 1725.474124 
L 182.70251 1739.702381 
L 184.808666 1768.200336 
L 187.667933 1806.825812 
L 189.98744 1809.662863 
L 192.908706 1815.917375 
L 195.180802 1813.226631 
L 201.601387 1833.469991 
L 203.140431 1835.271131 
L 205.766288 1852.111878 
L 208.352028 1873.017309 
L 210.976062 1882.541497 
L 213.7788 1889.918647 
L 216.672713 1920.54663 
L 221.971839 1943.857619 
L 226.793204 1946.350026 
L 229.451885 1963.373441 
L 232.354915 1996.630844 
L 237.426102 2042.310558 
L 240.819658 2042.310558 
L 242.767168 2037.916808 
L 245.290909 2039.08949 
L 247.803708 2033.769151 
L 250.520741 2031.423163 
L 256.118923 2042.310558 
L 258.445724 2031.245742 
L 264.011082 2037.145208 
L 266.469176 2042.310558 
L 269.069504 2037.530003 
L 276.748313 2042.310558 
L 282.093026 2042.310558 
L 285.045292 2040.481505 
L 287.386681 2017.387088 
L 290.26783 2042.310558 
L 295.194959 2042.310558 
L 298.393399 2039.881721 
L 303.09806 2042.310558 
L 313.71637 2027.783762 
L 316.537343 2040.481505 
L 324.363856 2042.310558 
L 331.608668 2034.691614 
L 335.131693 2042.310558 
L 337.733845 2039.881721 
L 342.507799 2042.310558 
L 350.314254 2037.530003 
L 352.923699 2042.310558 
L 361.249854 2035.250658 
L 368.748135 2042.310558 
L 371.620167 2040.481505 
L 374.428375 2037.530003 
L 380.363906 2042.310558 
L 387.384427 2042.310558 
L 389.753169 2033.039362 
L 392.258674 2040.481505 
L 398.1705 2031.423163 
L 405.490077 2037.530003 
L 408.456931 2042.310558 
L 413.491647 2042.310558 
L 416.546029 2040.481505 
L 423.750725 2042.310558 
L 442.060608 2042.310558 
L 450.539938 2042.310558 
L 463.412109 2040.481505 
L 471.140152 2017.829315 
L 478.988548 2042.310558 
L 497.342195 2042.310558 
" clip-path="url(#p7fe1e5fa57)" style="fill: none; stroke: #000000; stroke-width: 2; stroke-linecap: round"/>
   </g>
   <g id="patch_12">
    <path d="M 159.2175 2063.62 
L 159.2175 1633.32 
" style="fill: none; stroke: #373737; stroke-width: 2.5; stroke-linejoin: miter; stroke-linecap: square"/>
   </g>
   <g id="patch_13">
    <path d="M 159.2175 2063.62 
L 526.8375 2063.62 
" style="fill: none; stroke: #373737; stroke-width: 2.5; stroke-linejoin: miter; stroke-linecap: square"/>
   </g>
  </g>
 </g>
 <defs>
  <clipPath id="p223c545073">
   <rect x="159.2175" y="7.2" width="367.62" height="430.3"/>
  </clipPath>
  <clipPath id="p176942da50">
   <rect x="159.2175" y="549.24" width="367.62" height="430.3"/>
  </clipPath>
  <clipPath id="p0fd97f6b89">
   <rect x="159.2175" y="1091.28" width="367.62" height="430.3"/>
  </clipPath>
  <clipPath id="p7fe1e5fa57">
   <rect x="159.2175" y="1633.32" width="367.62" height="430.3"/>
  </clipPath>
 </defs>
</svg>
