<?xml version="1.0" encoding="utf-8" standalone="no"?>
<!DOCTYPE svg PUBLIC "-//W3C//DTD SVG 1.1//EN"
  "http://www.w3.org/Graphics/SVG/1.1/DTD/svg11.dtd">
<svg xmlns:xlink="http://www.w3.org/1999/xlink" width="198.7645pt" height="569.56625pt" viewBox="0 0 198.7645 569.56625" xmlns="http://www.w3.org/2000/svg" version="1.1">
 <metadata>
  <rdf:RDF xmlns:dc="http://purl.org/dc/elements/1.1/" xmlns:cc="http://creativecommons.org/ns#" xmlns:rdf="http://www.w3.org/1999/02/22-rdf-syntax-ns#">
   <cc:Work>
    <dc:type rdf:resource="http://purl.org/dc/dcmitype/StillImage"/>
    <dc:date>2025-08-07T13:39:06.773142</dc:date>
    <dc:format>image/svg+xml</dc:format>
    <dc:creator>
     <cc:Agent>
      <dc:title>Matplotlib v3.7.1, https://matplotlib.org/</dc:title>
     </cc:Agent>
    </dc:creator>
   </cc:Work>
  </rdf:RDF>
 </metadata>
 <defs>
  <style type="text/css">*{stroke-linejoin: round; stroke-linecap: butt}</style>
 </defs>
 <g id="figure_1">
  <g id="patch_1">
   <path d="M 0 569.56625 
L 198.7645 569.56625 
L 198.7645 0 
L 0 0 
L 0 569.56625 
z
" style="fill: none"/>
  </g>
  <g id="axes_1">
   <g id="patch_2">
    <path d="M 50.971 127.0095 
L 186.6475 127.0095 
L 186.6475 19.4945 
L 50.971 19.4945 
L 50.971 127.0095 
z
" style="fill: none"/>
   </g>
   <g id="matplotlib.axis_1">
    <g id="xtick_1"/>
    <g id="xtick_2"/>
    <g id="xtick_3"/>
   </g>
   <g id="matplotlib.axis_2">
    <g id="ytick_1">
     <g id="text_1">
      <!-- $\mathdefault{10^{-1}}$ -->
      <g style="fill: #373737" transform="translate(21.491 107.15475)">
       <text>
        <tspan style="font: 8.8px 'DejaVu Sans'" x="0 5.596832" y="-0.14687499999999964">10</tspan>
        <tspan style="font: 6.16px 'DejaVu Sans'" x="11.277883 16.437457" y="-3.515625">−1</tspan>
       </text>
      </g>
     </g>
    </g>
    <g id="ytick_2">
     <g id="text_2">
      <!-- $\mathdefault{10^{0}}$ -->
      <g style="fill: #373737" transform="translate(26.683 64.53875)">
       <text>
        <tspan style="font: 8.8px 'DejaVu Sans'" x="0 5.596832" y="-0.059375000000001066">10</tspan>
        <tspan style="font: 6.16px 'DejaVu Sans'" x="11.277883" y="-3.4281250000000014">0</tspan>
       </text>
      </g>
     </g>
    </g>
    <g id="ytick_3"/>
    <g id="ytick_4"/>
    <g id="ytick_5"/>
    <g id="ytick_6"/>
    <g id="ytick_7"/>
    <g id="ytick_8"/>
    <g id="ytick_9"/>
    <g id="ytick_10"/>
    <g id="ytick_11"/>
    <g id="ytick_12"/>
    <g id="ytick_13"/>
    <g id="ytick_14"/>
    <g id="ytick_15"/>
    <g id="ytick_16"/>
    <g id="ytick_17"/>
    <g id="ytick_18"/>
    <g id="ytick_19"/>
    <g id="ytick_20"/>
    <g id="ytick_21"/>
    <g id="ytick_22"/>
    <g id="ytick_23"/>
    <g id="ytick_24"/>
    <g id="ytick_25"/>
    <g id="text_3">
     <text style="fill: #373737; font: 9.6px 'Arial', 'DejaVu Sans', 'Liberation Sans', 'Bitstream Vera Sans', sans-serif; text-anchor: middle" x="14.4945" y="73.252" transform="rotate(-90 14.4945 73.252)">FL</text>
    </g>
   </g>
   <g id="line2d_1">
    <path d="M 50.971 99.035605 
L 52.019532 114.180806 
L 53.068736 117.188689 
L 53.633382 121.685111 
L 54.60923 116.476759 
L 55.5272 120.782108 
L 56.514489 121.685111 
L 57.495048 115.130137 
L 57.495048 113.874883 
L 57.495048 113.573935 
L 58.708464 104.179428 
L 59.638548 95.912408 
L 60.415861 93.441023 
L 60.415861 88.678296 
L 60.415861 88.217495 
L 61.471123 84.517299 
L 61.471123 83.199028 
L 61.471123 79.301918 
L 62.327177 74.976247 
L 62.327177 73.00771 
L 62.327177 72.742834 
L 63.405321 62.598071 
L 63.405321 62.240511 
L 63.405321 61.635444 
L 64.243877 55.439001 
L 64.243877 55.157215 
L 64.243877 54.767296 
L 66.613504 49.48652 
L 67.181515 51.784945 
L 67.181515 50.221398 
L 67.181515 50.153372 
L 68.150633 53.296408 
L 68.150633 53.296408 
L 68.150633 52.344204 
L 69.104945 54.422035 
L 69.104945 54.107103 
L 69.104945 52.875885 
L 70.07339 55.84349 
L 70.07339 55.477761 
L 70.07339 55.246409 
L 71.107788 48.081551 
L 71.107788 46.938102 
L 71.107788 46.711207 
L 72.175837 53.574379 
L 72.175837 52.486699 
L 72.175837 51.563796 
L 74.131571 58.659156 
L 74.131571 58.628463 
L 74.131571 57.599567 
L 75.910979 55.712041 
L 75.910979 54.361053 
L 75.910979 53.809254 
L 76.892211 55.464832 
L 76.892211 54.25179 
L 76.892211 53.423294 
L 77.963624 57.368937 
L 77.963624 57.141144 
L 77.963624 55.297572 
L 79.835233 54.348881 
L 81.087683 56.433219 
L 81.806446 58.3243 
L 81.806446 57.455087 
L 81.806446 56.902148 
L 82.737876 59.507714 
L 82.737876 58.33939 
L 82.737876 57.789095 
L 83.665268 56.365251 
L 83.665268 55.909566 
L 83.665268 55.856686 
L 84.668035 56.972121 
L 84.668035 56.257017 
L 84.668035 56.069118 
L 86.734141 57.657677 
L 87.592887 35.231187 
L 87.592887 34.875131 
L 87.592887 34.40942 
L 89.646878 59.125766 
L 89.646878 58.039903 
L 89.646878 58.025055 
L 90.55408 59.653001 
L 91.513776 60.720419 
L 94.347773 68.449274 
L 96.320332 75.888525 
L 97.409916 78.078184 
L 98.274046 82.022639 
L 99.337384 80.165137 
L 101.155826 71.938716 
L 102.336265 70.515495 
L 104.072602 63.593464 
L 107.991472 61.189878 
L 109.032601 60.979758 
L 111.92111 73.652413 
L 114.594933 73.514807 
L 115.895166 74.071478 
L 116.855535 76.005787 
L 118.617445 74.284623 
L 121.498552 77.730608 
L 122.461613 72.579191 
L 125.534524 75.966617 
L 128.301894 66.567173 
L 129.361867 63.374197 
L 130.398284 72.416982 
L 132.588895 79.022899 
L 135.179939 79.115439 
L 136.054164 78.976802 
L 136.978864 86.619744 
L 139.160725 81.173991 
L 141.862141 85.473169 
L 142.95711 86.900172 
L 144.815258 87.916547 
L 145.942531 85.936718 
L 148.601548 85.473169 
L 155.359126 94.581927 
L 158.488569 95.346373 
L 163.239266 96.37804 
L 166.091433 92.749982 
L 168.988019 103.131532 
L 175.761749 104.359995 
" clip-path="url(#p528c37fc02)" style="fill: none; stroke: #882255; stroke-width: 2; stroke-linecap: round"/>
   </g>
   <g id="line2d_2">
    <path d="M 50.971 104.359995 
L 52.019532 111.065274 
L 53.068736 117.188689 
L 53.633382 121.685111 
L 54.60923 121.685111 
L 55.5272 110.050889 
L 56.514489 121.685111 
L 57.495048 121.685111 
L 57.495048 121.685111 
L 57.495048 118.310723 
L 58.708464 113.573935 
L 59.638548 102.464509 
L 60.415861 102.464509 
L 60.415861 101.663176 
L 60.415861 99.728866 
L 61.471123 90.473419 
L 61.471123 89.635814 
L 61.471123 89.391751 
L 62.327177 83.141281 
L 62.327177 81.435038 
L 62.327177 79.872901 
L 63.405321 72.974392 
L 63.405321 71.289249 
L 63.405321 70.987811 
L 64.243877 63.917108 
L 64.243877 63.876341 
L 64.243877 63.334608 
L 66.613504 47.45902 
L 67.181515 43.381169 
L 67.181515 42.700874 
L 67.181515 42.379436 
L 68.150633 37.861033 
L 68.150633 37.692056 
L 68.150633 37.52951 
L 69.104945 43.638603 
L 69.104945 42.057222 
L 69.104945 41.532359 
L 70.07339 44.143427 
L 70.07339 43.982882 
L 70.07339 43.872015 
L 71.107788 45.548475 
L 71.107788 45.293086 
L 71.107788 44.916491 
L 72.175837 52.07322 
L 72.175837 50.95625 
L 72.175837 50.172782 
L 74.131571 56.176255 
L 74.131571 55.646666 
L 74.131571 55.017914 
L 75.910979 55.725144 
L 75.910979 55.374581 
L 75.910979 55.20813 
L 76.892211 56.542491 
L 76.892211 56.176255 
L 76.892211 55.936063 
L 77.963624 59.539901 
L 77.963624 58.751541 
L 77.963624 58.751541 
L 79.835233 49.4025 
L 81.087683 56.749132 
L 81.806446 60.046104 
L 81.806446 57.774446 
L 81.806446 57.311725 
L 82.737876 60.858281 
L 82.737876 60.617692 
L 82.737876 60.029557 
L 83.665268 58.705291 
L 83.665268 58.264063 
L 83.665268 58.189041 
L 84.668035 43.713797 
L 84.668035 40.176874 
L 84.668035 40.047191 
L 86.734141 53.033881 
L 87.592887 54.520025 
L 87.592887 54.131139 
L 87.592887 53.158973 
L 89.646878 57.383267 
L 89.646878 57.112866 
L 89.646878 56.611116 
L 90.55408 57.411961 
L 91.513776 53.832907 
L 94.347773 62.055059 
L 96.320332 69.772794 
L 97.409916 71.319665 
L 98.274046 70.399275 
L 99.337384 67.020061 
L 101.155826 61.78032 
L 102.336265 58.159117 
L 104.072602 60.49856 
L 107.991472 67.558688 
L 109.032601 68.449274 
L 111.92111 74.755034 
L 114.594933 78.298782 
L 115.895166 77.90358 
L 116.855535 81.860525 
L 118.617445 78.034379 
L 121.498552 81.806801 
L 122.461613 78.839196 
L 125.534524 76.3621 
L 128.301894 69.772794 
L 129.361867 70.054932 
L 130.398284 76.563056 
L 132.588895 78.343218 
L 135.179939 77.7737 
L 136.054164 75.350913 
L 136.978864 85.020947 
L 139.160725 83.667607 
L 141.862141 88.834482 
L 142.95711 88.293503 
L 144.815258 85.020947 
L 145.942531 88.066409 
L 148.601548 85.407885 
L 155.359126 93.847807 
L 158.488569 92.749982 
L 163.239266 95.912408 
L 166.091433 104.179428 
L 168.988019 100.013608 
L 175.761749 111.065274 
" clip-path="url(#p528c37fc02)" style="fill: none; stroke: #882255; stroke-width: 2; stroke-linecap: round"/>
   </g>
   <g id="line2d_3">
    <path d="M 50.971 101.663176 
L 52.019532 112.416815 
L 53.068736 113.874883 
L 53.633382 116.829301 
L 54.60923 121.685111 
L 55.5272 115.457718 
L 56.514489 121.685111 
L 57.495048 115.457718 
L 57.495048 110.050889 
L 57.495048 104.000607 
L 58.708464 95.683913 
L 59.638548 94.797137 
L 60.415861 90.559302 
L 60.415861 87.916547 
L 60.415861 86.759427 
L 61.471123 82.62951 
L 61.471123 80.462061 
L 61.471123 78.343218 
L 62.327177 70.987811 
L 62.327177 69.577826 
L 62.327177 69.41233 
L 63.405321 64.923447 
L 63.405321 63.275383 
L 63.405321 62.674236 
L 64.243877 53.726709 
L 64.243877 53.284916 
L 64.243877 52.819784 
L 66.613504 52.909628 
L 67.181515 53.492872 
L 67.181515 52.696956 
L 67.181515 52.333288 
L 68.150633 55.477761 
L 68.150633 55.323206 
L 68.150633 54.507748 
L 69.104945 57.936217 
L 69.104945 57.556105 
L 69.104945 57.311725 
L 70.07339 55.20813 
L 70.07339 55.043164 
L 70.07339 54.446484 
L 71.107788 59.459537 
L 71.107788 59.459537 
L 71.107788 58.234017 
L 72.175837 62.35268 
L 72.175837 61.92634 
L 72.175837 61.545468 
L 74.131571 61.154692 
L 74.131571 59.363558 
L 74.131571 59.000182 
L 75.910979 60.997177 
L 75.910979 60.875586 
L 75.910979 59.980004 
L 76.892211 60.789221 
L 76.892211 58.782439 
L 76.892211 58.613135 
L 77.963624 64.371565 
L 77.963624 63.937524 
L 77.963624 63.917108 
L 79.835233 57.098743 
L 81.087683 60.49856 
L 81.806446 59.283954 
L 81.806446 59.283954 
L 81.806446 58.204021 
L 82.737876 61.349049 
L 82.737876 60.892907 
L 82.737876 60.346509 
L 83.665268 60.212393 
L 83.665268 59.299848 
L 83.665268 59.078572 
L 84.668035 61.225132 
L 84.668035 59.331675 
L 84.668035 58.705291 
L 86.734141 62.18468 
L 87.592887 60.617692 
L 87.592887 60.464663 
L 87.592887 60.363342 
L 89.646878 64.122297 
L 89.646878 63.998911 
L 89.646878 63.593464 
L 90.55408 64.603049 
L 91.513776 63.633611 
L 94.347773 71.782001 
L 96.320332 72.352495 
L 97.409916 73.378217 
L 98.274046 70.399275 
L 99.337384 69.058751 
L 101.155826 62.315215 
L 102.336265 62.1105 
L 104.072602 65.271432 
L 107.991472 69.605553 
L 109.032601 65.603719 
L 111.92111 77.347232 
L 114.594933 77.860185 
L 115.895166 79.395867 
L 116.855535 78.748024 
L 118.617445 78.702606 
L 121.498552 79.069111 
L 122.461613 74.177743 
L 125.534524 67.068384 
L 128.301894 65.271432 
L 129.361867 64.455406 
L 130.398284 71.844528 
L 132.588895 77.990676 
L 135.179939 74.536435 
L 136.054164 76.005787 
L 136.978864 81.435038 
L 139.160725 85.803087 
L 141.862141 85.149029 
L 142.95711 82.855218 
L 144.815258 81.330177 
L 145.942531 81.540496 
L 148.601548 81.173991 
L 155.359126 87.620414 
L 158.488569 91.350734 
L 163.239266 91.990577 
L 166.091433 95.797808 
L 168.988019 100.157639 
L 175.761749 108.626502 
" clip-path="url(#p528c37fc02)" style="fill: none; stroke: #882255; stroke-width: 2; stroke-linecap: round"/>
   </g>
   <g id="line2d_4">
    <path d="M 50.971 100.945328 
L 52.019532 115.679373 
L 53.068736 96.85569 
L 53.633382 89.663132 
L 54.60923 82.536271 
L 55.5272 72.449311 
L 56.514489 61.623422 
L 57.495048 53.355257 
L 58.708464 42.520181 
L 59.638548 46.075261 
L 60.415861 53.195777 
L 61.471123 62.84676 
L 62.327177 63.555627 
L 63.405321 65.118383 
L 64.243877 64.446072 
L 66.613504 69.504089 
L 67.181515 69.954123 
L 68.150633 74.161962 
L 69.104945 79.385404 
L 70.07339 81.765123 
L 71.107788 83.608382 
L 72.175837 91.261107 
L 74.131571 97.085604 
L 75.910979 97.708358 
L 76.892211 101.961838 
L 77.963624 110.271552 
L 79.835233 121.685111 
L 81.087683 121.685111 
L 81.806446 120.587286 
L 82.737876 120.880293 
L 83.665268 119.55095 
L 84.668035 118.96478 
L 86.734141 121.685111 
L 87.592887 118.92045 
L 89.646878 120.394494 
L 90.55408 121.685111 
L 91.513776 120.490639 
L 94.347773 121.685111 
L 96.320332 121.685111 
L 97.409916 121.228103 
L 98.274046 115.457718 
L 99.337384 121.685111 
L 101.155826 121.685111 
L 102.336265 121.07824 
L 104.072602 121.685111 
L 107.991472 118.055438 
L 109.032601 121.228103 
L 111.92111 121.685111 
L 114.594933 119.781437 
L 115.895166 121.685111 
L 116.855535 121.07824 
L 118.617445 121.685111 
L 121.498552 120.490639 
L 122.461613 121.685111 
L 125.534524 119.92112 
L 128.301894 121.685111 
L 129.361867 121.228103 
L 130.398284 120.490639 
L 132.588895 121.685111 
L 135.179939 121.685111 
L 136.054164 119.368605 
L 136.978864 121.228103 
L 139.160725 118.96478 
L 141.862141 120.490639 
L 142.95711 121.685111 
L 144.815258 121.685111 
L 145.942531 121.228103 
L 148.601548 121.685111 
L 155.359126 121.685111 
L 158.488569 121.685111 
L 163.239266 121.228103 
L 166.091433 115.568214 
L 168.988019 121.685111 
L 175.761749 121.685111 
" clip-path="url(#p528c37fc02)" style="fill: none; stroke: #000000; stroke-linecap: round"/>
   </g>
   <g id="patch_3">
    <path d="M 50.971 127.0095 
L 50.971 19.4945 
" style="fill: none; stroke: #373737; stroke-linejoin: miter; stroke-linecap: square"/>
   </g>
   <g id="patch_4">
    <path d="M 50.971 127.0095 
L 186.6475 127.0095 
" style="fill: none; stroke: #373737; stroke-linejoin: miter; stroke-linecap: square"/>
   </g>
   <g id="text_4">
    <text style="fill: #373737; font: 9.6px 'Arial', 'DejaVu Sans', 'Liberation Sans', 'Bitstream Vera Sans', sans-serif; text-anchor: middle" x="118.80925" y="14.4945" transform="rotate(-0 118.80925 14.4945)">A. macleodii 1A3</text>
   </g>
  </g>
  <g id="axes_2">
   <g id="patch_5">
    <path d="M 50.971 261.5925 
L 186.6475 261.5925 
L 186.6475 154.0775 
L 50.971 154.0775 
L 50.971 261.5925 
z
" style="fill: none"/>
   </g>
   <g id="matplotlib.axis_3">
    <g id="xtick_4"/>
    <g id="xtick_5"/>
    <g id="xtick_6"/>
   </g>
   <g id="matplotlib.axis_4">
    <g id="ytick_26">
     <g id="text_5">
      <!-- $\mathdefault{10^{-1}}$ -->
      <g style="fill: #373737" transform="translate(21.491 241.73775)">
       <text>
        <tspan style="font: 8.8px 'DejaVu Sans'" x="0 5.596832" y="-0.14687499999999964">10</tspan>
        <tspan style="font: 6.16px 'DejaVu Sans'" x="11.277883 16.437457" y="-3.515625">−1</tspan>
       </text>
      </g>
     </g>
    </g>
    <g id="ytick_27">
     <g id="text_6">
      <!-- $\mathdefault{10^{0}}$ -->
      <g style="fill: #373737" transform="translate(26.683 199.12175)">
       <text>
        <tspan style="font: 8.8px 'DejaVu Sans'" x="0 5.596832" y="-0.059375000000001066">10</tspan>
        <tspan style="font: 6.16px 'DejaVu Sans'" x="11.277883" y="-3.4281250000000014">0</tspan>
       </text>
      </g>
     </g>
    </g>
    <g id="ytick_28"/>
    <g id="ytick_29"/>
    <g id="ytick_30"/>
    <g id="ytick_31"/>
    <g id="ytick_32"/>
    <g id="ytick_33"/>
    <g id="ytick_34"/>
    <g id="ytick_35"/>
    <g id="ytick_36"/>
    <g id="ytick_37"/>
    <g id="ytick_38"/>
    <g id="ytick_39"/>
    <g id="ytick_40"/>
    <g id="ytick_41"/>
    <g id="ytick_42"/>
    <g id="ytick_43"/>
    <g id="ytick_44"/>
    <g id="ytick_45"/>
    <g id="ytick_46"/>
    <g id="ytick_47"/>
    <g id="ytick_48"/>
    <g id="ytick_49"/>
    <g id="ytick_50"/>
    <g id="text_7">
     <text style="fill: #373737; font: 9.6px 'Arial', 'DejaVu Sans', 'Liberation Sans', 'Bitstream Vera Sans', sans-serif; text-anchor: middle" x="14.4945" y="207.835" transform="rotate(-90 14.4945 207.835)">FL</text>
    </g>
   </g>
   <g id="line2d_5">
    <path d="M 50.971 242.536413 
L 52.019532 256.268111 
L 53.068736 228.226297 
L 53.633382 230.96104 
L 54.60923 215.602112 
L 55.5272 210.316321 
L 56.514489 204.809303 
L 57.495048 208.097807 
L 57.495048 207.292989 
L 57.495048 206.365001 
L 58.708464 213.652111 
L 59.638548 220.519718 
L 60.415861 226.388496 
L 60.415861 225.142302 
L 60.415861 222.350888 
L 61.471123 226.480805 
L 61.471123 226.1143 
L 61.471123 220.995176 
L 62.327177 227.236334 
L 62.327177 226.854715 
L 62.327177 223.974751 
L 63.405321 227.724698 
L 63.405321 227.430136 
L 63.405321 226.949385 
L 64.243877 224.970932 
L 64.243877 224.885838 
L 64.243877 222.277004 
L 66.613504 228.024023 
L 67.181515 234.8858 
L 67.181515 233.755196 
L 67.181515 229.929373 
L 68.150633 230.72676 
L 68.150633 228.533915 
L 68.150633 225.577802 
L 69.104945 229.380137 
L 69.104945 228.95219 
L 69.104945 226.854715 
L 70.07339 231.560053 
L 70.07339 231.198324 
L 70.07339 231.198324 
L 71.107788 229.380137 
L 71.107788 228.328269 
L 71.107788 226.949385 
L 72.175837 230.72676 
L 72.175837 230.380808 
L 72.175837 228.95219 
L 74.131571 226.388496 
L 74.131571 226.205248 
L 74.131571 225.056419 
L 75.910979 224.885838 
L 75.910979 221.553948 
L 75.910979 219.540236 
L 76.892211 225.402371 
L 76.892211 224.885838 
L 76.892211 223.813811 
L 77.963624 228.637601 
L 77.963624 227.332982 
L 77.963624 224.716815 
L 79.835233 235.179582 
L 81.087683 232.950378 
L 81.806446 234.45369 
L 81.806446 232.053626 
L 81.806446 230.495408 
L 82.737876 229.818214 
L 82.737876 229.058253 
L 82.737876 227.527803 
L 83.665268 233.483016 
L 83.665268 231.318117 
L 83.665268 227.923709 
L 84.668035 229.488688 
L 84.668035 227.236334 
L 84.668035 225.577802 
L 86.734141 242.536413 
L 87.592887 237.212024 
L 87.592887 234.740639 
L 87.592887 229.058253 
L 89.646878 228.124884 
L 89.646878 225.577802 
L 89.646878 224.38333 
L 90.55408 224.549321 
L 91.513776 227.140189 
L 94.347773 229.164927 
L 96.320332 224.137102 
L 97.409916 232.179104 
L 98.274046 233.892801 
L 99.337384 228.124884 
L 101.155826 231.43869 
L 102.336265 226.023797 
L 104.072602 233.082107 
L 107.991472 239.873235 
L 109.032601 233.214781 
L 111.92111 234.171121 
L 114.594933 244.146811 
L 115.895166 241.259501 
L 116.855535 235.032108 
L 118.617445 233.483016 
L 121.498552 235.478103 
L 122.461613 239.12534 
L 125.534524 240.25883 
L 128.301894 235.032108 
L 129.361867 242.758068 
L 130.398284 233.618605 
L 132.588895 228.226297 
L 135.179939 239.12534 
L 136.054164 234.311866 
L 136.978864 245.389418 
L 139.160725 231.43869 
L 141.862141 239.49551 
L 142.95711 235.478103 
L 144.815258 239.3095 
L 145.942531 240.852717 
L 148.601548 238.05728 
L 155.359126 236.884442 
L 158.488569 231.318117 
L 163.239266 240.25883 
L 166.091433 239.49551 
L 168.988019 240.454683 
L 175.761749 239.3095 
" clip-path="url(#p7a28f79d17)" style="fill: none; stroke: #cc6677; stroke-width: 2; stroke-linecap: round"/>
   </g>
   <g id="line2d_6">
    <path d="M 50.971 237.212024 
L 52.019532 254.929608 
L 53.068736 238.406496 
L 53.633382 230.041204 
L 54.60923 217.438218 
L 55.5272 210.785891 
L 56.514489 204.496326 
L 57.495048 206.553218 
L 57.495048 204.411879 
L 57.495048 203.561107 
L 58.708464 214.650211 
L 59.638548 221.984383 
L 60.415861 222.203414 
L 60.415861 219.861005 
L 60.415861 216.98952 
L 61.471123 222.800495 
L 61.471123 222.057106 
L 61.471123 219.038296 
L 62.327177 225.933734 
L 62.327177 225.142302 
L 62.327177 224.632878 
L 63.405321 226.760527 
L 63.405321 226.296646 
L 63.405321 222.277004 
L 64.243877 225.577802 
L 64.243877 225.402371 
L 64.243877 225.056419 
L 66.613504 226.1143 
L 67.181515 237.047509 
L 67.181515 231.43869 
L 67.181515 223.574997 
L 68.150633 234.031438 
L 68.150633 228.741871 
L 68.150633 225.489878 
L 69.104945 236.246176 
L 69.104945 231.079302 
L 69.104945 228.741871 
L 70.07339 230.495408 
L 70.07339 230.041204 
L 70.07339 226.480805 
L 71.107788 229.707719 
L 71.107788 226.1143 
L 71.107788 225.402371 
L 72.175837 228.226297 
L 72.175837 227.625989 
L 72.175837 225.844107 
L 74.131571 229.818214 
L 74.131571 227.140189 
L 74.131571 224.300889 
L 75.910979 227.724698 
L 75.910979 226.1143 
L 75.910979 224.632878 
L 76.892211 233.348412 
L 76.892211 229.707719 
L 76.892211 224.549321 
L 77.963624 231.682218 
L 77.963624 231.560053 
L 77.963624 229.164927 
L 79.835233 235.781518 
L 81.087683 244.388747 
L 81.806446 237.047509 
L 81.806446 235.328241 
L 81.806446 233.892801 
L 82.737876 236.7228 
L 82.737876 235.179582 
L 82.737876 232.560724 
L 83.665268 242.100914 
L 83.665268 238.406496 
L 83.665268 235.478103 
L 84.668035 231.43869 
L 84.668035 230.380808 
L 84.668035 228.95219 
L 86.734141 237.212024 
L 87.592887 234.311866 
L 87.592887 232.689699 
L 87.592887 231.318117 
L 89.646878 235.328241 
L 89.646878 233.348412 
L 89.646878 230.96104 
L 90.55408 231.198324 
L 91.513776 227.923709 
L 94.347773 231.560053 
L 96.320332 235.629189 
L 97.409916 234.171121 
L 98.274046 226.854715 
L 99.337384 233.755196 
L 101.155826 230.72676 
L 102.336265 231.198324 
L 104.072602 227.044541 
L 107.991472 233.348412 
L 109.032601 233.892801 
L 111.92111 244.388747 
L 114.594933 239.3095 
L 115.895166 243.209502 
L 116.855535 246.177107 
L 118.617445 240.065029 
L 121.498552 240.25883 
L 122.461613 238.406496 
L 125.534524 238.406496 
L 128.301894 241.054992 
L 129.361867 235.781518 
L 130.398284 238.762428 
L 132.588895 236.562558 
L 135.179939 244.388747 
L 136.054164 245.389418 
L 136.978864 244.388747 
L 139.160725 228.430807 
L 141.862141 241.259501 
L 142.95711 236.7228 
L 144.815258 234.596608 
L 145.942531 240.852717 
L 148.601548 232.819579 
L 155.359126 237.714532 
L 158.488569 243.209502 
L 163.239266 239.12534 
L 166.091433 230.266913 
L 168.988019 233.483016 
L 175.761749 237.047509 
" clip-path="url(#p7a28f79d17)" style="fill: none; stroke: #cc6677; stroke-width: 2; stroke-linecap: round"/>
   </g>
   <g id="line2d_7">
    <path d="M 50.971 236.246176 
L 52.019532 251.771689 
L 53.068736 239.3095 
L 53.633382 230.495408 
L 54.60923 218.91491 
L 55.5272 210.277723 
L 56.514489 201.291996 
L 57.495048 209.338034 
L 57.495048 206.74337 
L 57.495048 205.451597 
L 58.708464 217.32502 
L 59.638548 220.519718 
L 60.415861 223.261296 
L 60.415861 222.649409 
L 60.415861 222.574326 
L 61.471123 224.970932 
L 61.471123 221.342427 
L 61.471123 220.121684 
L 62.327177 224.055748 
L 62.327177 221.696317 
L 62.327177 220.789911 
L 63.405321 225.844107 
L 63.405321 224.716815 
L 63.405321 222.499547 
L 64.243877 227.625989 
L 64.243877 227.430136 
L 64.243877 221.553948 
L 66.613504 224.46614 
L 67.181515 230.495408 
L 67.181515 230.041204 
L 67.181515 224.46614 
L 68.150633 230.041204 
L 68.150633 229.929373 
L 68.150633 228.846732 
L 69.104945 232.179104 
L 69.104945 230.610722 
L 69.104945 230.610722 
L 70.07339 227.236334 
L 70.07339 225.933734 
L 70.07339 225.056419 
L 71.107788 231.682218 
L 71.107788 228.741871 
L 71.107788 226.296646 
L 72.175837 232.560724 
L 72.175837 229.058253 
L 72.175837 229.058253 
L 74.131571 231.560053 
L 74.131571 224.716815 
L 74.131571 224.549321 
L 75.910979 230.266913 
L 75.910979 227.236334 
L 75.910979 223.65426 
L 76.892211 225.754913 
L 76.892211 225.402371 
L 76.892211 224.300889 
L 77.963624 229.818214 
L 77.963624 227.332982 
L 77.963624 226.666816 
L 79.835233 225.228586 
L 81.087683 252.512103 
L 81.806446 232.053626 
L 81.806446 230.495408 
L 81.806446 229.818214 
L 82.737876 238.942995 
L 82.737876 238.05728 
L 82.737876 235.328241 
L 83.665268 238.942995 
L 83.665268 234.031438 
L 83.665268 232.689699 
L 84.668035 236.08999 
L 84.668035 230.610722 
L 84.668035 229.59788 
L 86.734141 235.328241 
L 87.592887 232.950378 
L 87.592887 231.318117 
L 87.592887 230.495408 
L 89.646878 232.560724 
L 89.646878 230.96104 
L 89.646878 229.380137 
L 90.55408 226.854715 
L 91.513776 227.823936 
L 94.347773 229.59788 
L 96.320332 232.950378 
L 97.409916 230.041204 
L 98.274046 228.024023 
L 99.337384 228.533915 
L 101.155826 232.560724 
L 102.336265 229.272219 
L 104.072602 238.762428 
L 107.991472 232.560724 
L 109.032601 229.707719 
L 111.92111 241.466295 
L 114.594933 236.884442 
L 115.895166 238.583607 
L 116.855535 237.212024 
L 118.617445 242.982408 
L 121.498552 246.721496 
L 122.461613 235.629189 
L 125.534524 245.389418 
L 128.301894 236.884442 
L 129.361867 240.852717 
L 130.398284 233.755196 
L 132.588895 235.328241 
L 135.179939 234.031438 
L 136.054164 235.179582 
L 136.978864 244.633889 
L 139.160725 237.212024 
L 141.862141 239.3095 
L 142.95711 235.935112 
L 144.815258 236.884442 
L 145.942531 236.403691 
L 148.601548 236.562558 
L 155.359126 235.328241 
L 158.488569 239.873235 
L 163.239266 229.380137 
L 166.091433 234.740639 
L 168.988019 241.675426 
L 175.761749 237.714532 
" clip-path="url(#p7a28f79d17)" style="fill: none; stroke: #cc6677; stroke-width: 2; stroke-linecap: round"/>
   </g>
   <g id="line2d_8">
    <path d="M 50.971 235.528328 
L 52.019532 250.262373 
L 53.068736 231.43869 
L 53.633382 224.246132 
L 54.60923 217.119271 
L 55.5272 207.032311 
L 56.514489 196.206422 
L 57.495048 187.938257 
L 58.708464 177.103181 
L 59.638548 180.658261 
L 60.415861 187.778777 
L 61.471123 197.42976 
L 62.327177 198.138627 
L 63.405321 199.701383 
L 64.243877 199.029072 
L 66.613504 204.087089 
L 67.181515 204.537123 
L 68.150633 208.744962 
L 69.104945 213.968404 
L 70.07339 216.348123 
L 71.107788 218.191382 
L 72.175837 225.844107 
L 74.131571 231.668604 
L 75.910979 232.291358 
L 76.892211 236.544838 
L 77.963624 244.854552 
L 79.835233 256.268111 
L 81.087683 256.268111 
L 81.806446 255.170286 
L 82.737876 255.463293 
L 83.665268 254.13395 
L 84.668035 253.54778 
L 86.734141 256.268111 
L 87.592887 253.50345 
L 89.646878 254.977494 
L 90.55408 256.268111 
L 91.513776 255.073639 
L 94.347773 256.268111 
L 96.320332 256.268111 
L 97.409916 255.811103 
L 98.274046 250.040718 
L 99.337384 256.268111 
L 101.155826 256.268111 
L 102.336265 255.66124 
L 104.072602 256.268111 
L 107.991472 252.638438 
L 109.032601 255.811103 
L 111.92111 256.268111 
L 114.594933 254.364437 
L 115.895166 256.268111 
L 116.855535 255.66124 
L 118.617445 256.268111 
L 121.498552 255.073639 
L 122.461613 256.268111 
L 125.534524 254.50412 
L 128.301894 256.268111 
L 129.361867 255.811103 
L 130.398284 255.073639 
L 132.588895 256.268111 
L 135.179939 256.268111 
L 136.054164 253.951605 
L 136.978864 255.811103 
L 139.160725 253.54778 
L 141.862141 255.073639 
L 142.95711 256.268111 
L 144.815258 256.268111 
L 145.942531 255.811103 
L 148.601548 256.268111 
L 155.359126 256.268111 
L 158.488569 256.268111 
L 163.239266 255.811103 
L 166.091433 250.151214 
L 168.988019 256.268111 
L 175.761749 256.268111 
" clip-path="url(#p7a28f79d17)" style="fill: none; stroke: #000000; stroke-linecap: round"/>
   </g>
   <g id="patch_6">
    <path d="M 50.971 261.5925 
L 50.971 154.0775 
" style="fill: none; stroke: #373737; stroke-linejoin: miter; stroke-linecap: square"/>
   </g>
   <g id="patch_7">
    <path d="M 50.971 261.5925 
L 186.6475 261.5925 
" style="fill: none; stroke: #373737; stroke-linejoin: miter; stroke-linecap: square"/>
   </g>
   <g id="text_8">
    <text style="fill: #373737; font: 9.6px 'Arial', 'DejaVu Sans', 'Liberation Sans', 'Bitstream Vera Sans', sans-serif; text-anchor: middle" x="118.80925" y="149.0775" transform="rotate(-0 118.80925 149.0775)">Ruegeria pomeroyi</text>
   </g>
  </g>
  <g id="axes_3">
   <g id="patch_8">
    <path d="M 50.971 396.1755 
L 186.6475 396.1755 
L 186.6475 288.6605 
L 50.971 288.6605 
L 50.971 396.1755 
z
" style="fill: none"/>
   </g>
   <g id="matplotlib.axis_5">
    <g id="xtick_7"/>
    <g id="xtick_8"/>
    <g id="xtick_9"/>
   </g>
   <g id="matplotlib.axis_6">
    <g id="ytick_51">
     <g id="text_9">
      <!-- $\mathdefault{10^{-1}}$ -->
      <g style="fill: #373737" transform="translate(21.491 376.32075)">
       <text>
        <tspan style="font: 8.8px 'DejaVu Sans'" x="0 5.596832" y="-0.14687499999999964">10</tspan>
        <tspan style="font: 6.16px 'DejaVu Sans'" x="11.277883 16.437457" y="-3.515625">−1</tspan>
       </text>
      </g>
     </g>
    </g>
    <g id="ytick_52">
     <g id="text_10">
      <!-- $\mathdefault{10^{0}}$ -->
      <g style="fill: #373737" transform="translate(26.683 333.70475)">
       <text>
        <tspan style="font: 8.8px 'DejaVu Sans'" x="0 5.596832" y="-0.059375000000001066">10</tspan>
        <tspan style="font: 6.16px 'DejaVu Sans'" x="11.277883" y="-3.4281250000000014">0</tspan>
       </text>
      </g>
     </g>
    </g>
    <g id="ytick_53"/>
    <g id="ytick_54"/>
    <g id="ytick_55"/>
    <g id="ytick_56"/>
    <g id="ytick_57"/>
    <g id="ytick_58"/>
    <g id="ytick_59"/>
    <g id="ytick_60"/>
    <g id="ytick_61"/>
    <g id="ytick_62"/>
    <g id="ytick_63"/>
    <g id="ytick_64"/>
    <g id="ytick_65"/>
    <g id="ytick_66"/>
    <g id="ytick_67"/>
    <g id="ytick_68"/>
    <g id="ytick_69"/>
    <g id="ytick_70"/>
    <g id="ytick_71"/>
    <g id="ytick_72"/>
    <g id="ytick_73"/>
    <g id="ytick_74"/>
    <g id="ytick_75"/>
    <g id="text_11">
     <text style="fill: #373737; font: 9.6px 'Arial', 'DejaVu Sans', 'Liberation Sans', 'Bitstream Vera Sans', sans-serif; text-anchor: middle" x="14.4945" y="342.418" transform="rotate(-90 14.4945 342.418)">FL</text>
    </g>
   </g>
   <g id="line2d_9">
    <path d="M 50.971 378.022417 
L 52.019532 374.07851 
L 53.068736 365.30976 
L 53.633382 357.535824 
L 54.60923 352.481065 
L 55.5272 342.991872 
L 56.514489 336.949635 
L 57.495048 333.042341 
L 57.495048 331.184191 
L 57.495048 331.000943 
L 58.708464 347.868606 
L 59.638548 349.628061 
L 60.415861 351.026525 
L 60.415861 350.653692 
L 60.415861 349.380294 
L 61.471123 354.186947 
L 61.471123 353.49791 
L 61.471123 352.422956 
L 62.327177 356.207995 
L 62.327177 353.253578 
L 62.327177 351.134443 
L 63.405321 361.343527 
L 63.405321 359.468838 
L 63.405321 354.836413 
L 64.243877 361.532385 
L 64.243877 360.160802 
L 64.243877 359.384133 
L 66.613504 363.963137 
L 67.181515 362.607023 
L 67.181515 361.532385 
L 67.181515 358.23726 
L 68.150633 369.179608 
L 68.150633 365.193722 
L 68.150633 363.855219 
L 69.104945 368.614438 
L 69.104945 367.402579 
L 69.104945 365.662302 
L 70.07339 372.814065 
L 70.07339 372.297532 
L 70.07339 370.829176 
L 71.107788 370.986691 
L 71.107788 368.614438 
L 71.107788 364.963808 
L 72.175837 378.971747 
L 72.175837 375.842501 
L 72.175837 374.84183 
L 74.131571 386.354689 
L 74.131571 383.040883 
L 74.131571 380.231274 
L 75.910979 390.851111 
L 75.910979 390.851111 
L 75.910979 390.851111 
L 76.892211 387.866377 
L 76.892211 384.623718 
L 76.892211 384.296137 
L 77.963624 390.851111 
L 77.963624 390.851111 
L 77.963624 389.948108 
L 79.835233 390.851111 
L 81.087683 390.851111 
L 81.806446 390.851111 
L 81.806446 390.851111 
L 81.806446 380.231274 
L 82.737876 390.851111 
L 82.737876 390.851111 
L 82.737876 390.851111 
L 83.665268 390.851111 
L 83.665268 390.851111 
L 83.665268 390.851111 
L 84.668035 390.851111 
L 84.668035 390.851111 
L 84.668035 384.623718 
L 86.734141 390.851111 
L 87.592887 390.851111 
L 87.592887 390.851111 
L 87.592887 390.851111 
L 89.646878 390.851111 
L 89.646878 389.512608 
L 89.646878 389.512608 
L 90.55408 390.851111 
L 91.513776 385.995301 
L 94.347773 387.476723 
L 96.320332 390.851111 
L 97.409916 390.851111 
L 98.274046 390.851111 
L 99.337384 387.476723 
L 101.155826 387.476723 
L 102.336265 390.851111 
L 104.072602 390.851111 
L 107.991472 385.642759 
L 109.032601 390.851111 
L 111.92111 385.995301 
L 114.594933 390.851111 
L 115.895166 389.512608 
L 116.855535 390.851111 
L 118.617445 377.341068 
L 121.498552 390.851111 
L 122.461613 389.948108 
L 125.534524 387.476723 
L 128.301894 385.642759 
L 129.361867 390.851111 
L 130.398284 379.717132 
L 132.588895 390.851111 
L 135.179939 387.476723 
L 136.054164 377.565408 
L 136.978864 378.022417 
L 139.160725 390.851111 
L 141.862141 390.851111 
L 142.95711 390.851111 
L 144.815258 390.851111 
L 145.942531 387.476723 
L 148.601548 390.851111 
L 155.359126 390.851111 
L 158.488569 383.65787 
L 163.239266 387.866377 
L 166.091433 387.866377 
L 168.988019 390.851111 
L 175.761749 380.231274 
" clip-path="url(#p01e4e3b838)" style="fill: none; stroke: #44aa99; stroke-width: 2; stroke-linecap: round"/>
   </g>
   <g id="line2d_10">
    <path d="M 50.971 377.119413 
L 52.019532 384.296137 
L 53.068736 368.201605 
L 53.633382 361.627541 
L 54.60923 364.736714 
L 55.5272 352.481065 
L 56.514489 347.244184 
L 57.495048 343.096732 
L 57.495048 342.818413 
L 57.495048 341.745191 
L 58.708464 359.215878 
L 59.638548 357.766695 
L 60.415861 363.116915 
L 60.415861 361.723189 
L 60.415861 361.156577 
L 61.471123 375.037683 
L 61.471123 361.627541 
L 61.471123 361.343527 
L 62.327177 370.67299 
L 62.327177 368.754121 
L 62.327177 367.402579 
L 63.405321 369.4688 
L 63.405321 368.338196 
L 63.405321 368.201605 
L 64.243877 371.961015 
L 64.243877 370.829176 
L 64.243877 366.762104 
L 66.613504 376.900383 
L 67.181515 375.037683 
L 67.181515 371.630509 
L 67.181515 366.265218 
L 68.150633 389.512608 
L 68.150633 381.865384 
L 68.150633 377.119413 
L 69.104945 381.582815 
L 69.104945 377.792502 
L 69.104945 367.402579 
L 70.07339 373.8925 
L 70.07339 372.128509 
L 70.07339 370.67299 
L 71.107788 389.08712 
L 71.107788 375.435717 
L 71.107788 370.518112 
L 72.175837 382.739935 
L 72.175837 380.231274 
L 72.175837 375.037683 
L 74.131571 390.851111 
L 74.131571 387.866377 
L 74.131571 383.040883 
L 75.910979 387.476723 
L 75.910979 384.296137 
L 75.910979 381.582815 
L 76.892211 390.851111 
L 76.892211 387.476723 
L 76.892211 380.231274 
L 77.963624 390.851111 
L 77.963624 390.851111 
L 77.963624 390.851111 
L 79.835233 390.851111 
L 81.087683 390.851111 
L 81.806446 390.851111 
L 81.806446 390.851111 
L 81.806446 375.637992 
L 82.737876 390.851111 
L 82.737876 385.642759 
L 82.737876 383.974252 
L 83.665268 387.866377 
L 83.665268 385.642759 
L 83.665268 381.304496 
L 84.668035 390.851111 
L 84.668035 387.866377 
L 84.668035 385.995301 
L 86.734141 390.851111 
L 87.592887 390.851111 
L 87.592887 390.851111 
L 87.592887 390.851111 
L 89.646878 390.851111 
L 89.646878 390.851111 
L 89.646878 376.900383 
L 90.55408 387.866377 
L 91.513776 390.851111 
L 94.347773 390.851111 
L 96.320332 390.851111 
L 97.409916 385.995301 
L 98.274046 385.642759 
L 99.337384 390.851111 
L 101.155826 390.851111 
L 102.336265 390.851111 
L 104.072602 390.851111 
L 107.991472 390.851111 
L 109.032601 387.866377 
L 111.92111 385.995301 
L 114.594933 390.851111 
L 115.895166 384.296137 
L 116.855535 385.642759 
L 118.617445 379.972418 
L 121.498552 377.119413 
L 122.461613 390.851111 
L 125.534524 389.512608 
L 128.301894 383.974252 
L 129.361867 382.443803 
L 130.398284 390.851111 
L 132.588895 378.729811 
L 135.179939 390.851111 
L 136.054164 390.851111 
L 136.978864 381.304496 
L 139.160725 389.08712 
L 141.862141 390.851111 
L 142.95711 378.971747 
L 144.815258 390.851111 
L 145.942531 385.642759 
L 148.601548 389.08712 
L 155.359126 390.851111 
L 158.488569 387.476723 
L 163.239266 378.971747 
L 166.091433 390.851111 
L 168.988019 382.152334 
L 175.761749 390.851111 
" clip-path="url(#p01e4e3b838)" style="fill: none; stroke: #44aa99; stroke-width: 2; stroke-linecap: round"/>
   </g>
   <g id="line2d_11">
    <path d="M 50.971 384.623718 
L 52.019532 386.354689 
L 53.068736 372.64028 
L 53.633382 368.614438 
L 54.60923 366.511994 
L 55.5272 355.304992 
L 56.514489 358.316864 
L 57.495048 368.894866 
L 57.495048 364.963808 
L 57.495048 364.290719 
L 58.708464 390.851111 
L 59.638548 373.8925 
L 60.415861 383.040883 
L 60.415861 380.493801 
L 60.415861 376.900383 
L 61.471123 383.974252 
L 61.471123 381.304496 
L 61.471123 375.037683 
L 62.327177 384.623718 
L 62.327177 377.792502 
L 62.327177 376.900383 
L 63.405321 390.851111 
L 63.405321 377.119413 
L 63.405321 376.900383 
L 64.243877 382.739935 
L 64.243877 378.490996 
L 64.243877 378.022417 
L 66.613504 374.84183 
L 67.181515 385.995301 
L 67.181515 378.971747 
L 67.181515 374.648029 
L 68.150633 388.264412 
L 68.150633 384.296137 
L 68.150633 378.255223 
L 69.104945 389.948108 
L 69.104945 387.866377 
L 69.104945 384.296137 
L 70.07339 390.851111 
L 70.07339 387.476723 
L 70.07339 382.739935 
L 71.107788 389.512608 
L 71.107788 387.476723 
L 71.107788 382.443803 
L 72.175837 390.851111 
L 72.175837 384.623718 
L 72.175837 381.582815 
L 74.131571 390.851111 
L 74.131571 389.948108 
L 74.131571 389.512608 
L 75.910979 390.851111 
L 75.910979 389.512608 
L 75.910979 383.974252 
L 76.892211 390.851111 
L 76.892211 389.948108 
L 76.892211 380.231274 
L 77.963624 390.851111 
L 77.963624 389.512608 
L 77.963624 382.739935 
L 79.835233 390.851111 
L 81.087683 390.851111 
L 81.806446 390.851111 
L 81.806446 389.512608 
L 81.806446 387.866377 
L 82.737876 390.851111 
L 82.737876 390.851111 
L 82.737876 378.729811 
L 83.665268 390.851111 
L 83.665268 390.851111 
L 83.665268 390.851111 
L 84.668035 390.851111 
L 84.668035 390.851111 
L 84.668035 381.304496 
L 86.734141 390.851111 
L 87.592887 390.851111 
L 87.592887 390.851111 
L 87.592887 384.623718 
L 89.646878 390.851111 
L 89.646878 390.851111 
L 89.646878 385.995301 
L 90.55408 383.974252 
L 91.513776 390.851111 
L 94.347773 390.851111 
L 96.320332 387.866377 
L 97.409916 390.851111 
L 98.274046 385.995301 
L 99.337384 384.296137 
L 101.155826 373.8925 
L 102.336265 387.095103 
L 104.072602 383.040883 
L 107.991472 389.512608 
L 109.032601 390.851111 
L 111.92111 387.476723 
L 114.594933 390.851111 
L 115.895166 390.851111 
L 116.855535 390.851111 
L 118.617445 379.972418 
L 121.498552 387.866377 
L 122.461613 382.739935 
L 125.534524 385.995301 
L 128.301894 387.476723 
L 129.361867 385.642759 
L 130.398284 390.851111 
L 132.588895 387.476723 
L 135.179939 384.623718 
L 136.054164 377.341068 
L 136.978864 390.851111 
L 139.160725 389.08712 
L 141.862141 387.866377 
L 142.95711 390.851111 
L 144.815258 383.040883 
L 145.942531 389.08712 
L 148.601548 384.296137 
L 155.359126 390.851111 
L 158.488569 390.851111 
L 163.239266 390.851111 
L 166.091433 390.851111 
L 168.988019 388.671195 
L 175.761749 384.296137 
" clip-path="url(#p01e4e3b838)" style="fill: none; stroke: #44aa99; stroke-width: 2; stroke-linecap: round"/>
   </g>
   <g id="line2d_12">
    <path d="M 50.971 370.111328 
L 52.019532 384.845373 
L 53.068736 366.02169 
L 53.633382 358.829132 
L 54.60923 351.702271 
L 55.5272 341.615311 
L 56.514489 330.789422 
L 57.495048 322.521257 
L 58.708464 311.686181 
L 59.638548 315.241261 
L 60.415861 322.361777 
L 61.471123 332.01276 
L 62.327177 332.721627 
L 63.405321 334.284383 
L 64.243877 333.612072 
L 66.613504 338.670089 
L 67.181515 339.120123 
L 68.150633 343.327962 
L 69.104945 348.551404 
L 70.07339 350.931123 
L 71.107788 352.774382 
L 72.175837 360.427107 
L 74.131571 366.251604 
L 75.910979 366.874358 
L 76.892211 371.127838 
L 77.963624 379.437552 
L 79.835233 390.851111 
L 81.087683 390.851111 
L 81.806446 389.753286 
L 82.737876 390.046293 
L 83.665268 388.71695 
L 84.668035 388.13078 
L 86.734141 390.851111 
L 87.592887 388.08645 
L 89.646878 389.560494 
L 90.55408 390.851111 
L 91.513776 389.656639 
L 94.347773 390.851111 
L 96.320332 390.851111 
L 97.409916 390.394103 
L 98.274046 384.623718 
L 99.337384 390.851111 
L 101.155826 390.851111 
L 102.336265 390.24424 
L 104.072602 390.851111 
L 107.991472 387.221438 
L 109.032601 390.394103 
L 111.92111 390.851111 
L 114.594933 388.947437 
L 115.895166 390.851111 
L 116.855535 390.24424 
L 118.617445 390.851111 
L 121.498552 389.656639 
L 122.461613 390.851111 
L 125.534524 389.08712 
L 128.301894 390.851111 
L 129.361867 390.394103 
L 130.398284 389.656639 
L 132.588895 390.851111 
L 135.179939 390.851111 
L 136.054164 388.534605 
L 136.978864 390.394103 
L 139.160725 388.13078 
L 141.862141 389.656639 
L 142.95711 390.851111 
L 144.815258 390.851111 
L 145.942531 390.394103 
L 148.601548 390.851111 
L 155.359126 390.851111 
L 158.488569 390.851111 
L 163.239266 390.394103 
L 166.091433 384.734214 
L 168.988019 390.851111 
L 175.761749 390.851111 
" clip-path="url(#p01e4e3b838)" style="fill: none; stroke: #000000; stroke-linecap: round"/>
   </g>
   <g id="patch_9">
    <path d="M 50.971 396.1755 
L 50.971 288.6605 
" style="fill: none; stroke: #373737; stroke-linejoin: miter; stroke-linecap: square"/>
   </g>
   <g id="patch_10">
    <path d="M 50.971 396.1755 
L 186.6475 396.1755 
" style="fill: none; stroke: #373737; stroke-linejoin: miter; stroke-linecap: square"/>
   </g>
   <g id="text_12">
    <text style="fill: #373737; font: 9.6px 'Arial', 'DejaVu Sans', 'Liberation Sans', 'Bitstream Vera Sans', sans-serif; text-anchor: middle" x="118.80925" y="283.6605" transform="rotate(-0 118.80925 283.6605)">Roseovarius 5C3</text>
   </g>
  </g>
  <g id="axes_4">
   <g id="patch_11">
    <path d="M 50.971 530.7585 
L 186.6475 530.7585 
L 186.6475 423.2435 
L 50.971 423.2435 
L 50.971 530.7585 
z
" style="fill: none"/>
   </g>
   <g id="matplotlib.axis_7">
    <g id="xtick_10">
     <g id="text_13">
      <text style="fill: #373737; font: 8.8px 'Arial', 'DejaVu Sans', 'Liberation Sans', 'Bitstream Vera Sans', sans-serif; text-anchor: middle" x="50.971" y="546.245125" transform="rotate(-0 50.971 546.245125)">0</text>
     </g>
    </g>
    <g id="xtick_11">
     <g id="text_14">
      <text style="fill: #373737; font: 8.8px 'Arial', 'DejaVu Sans', 'Liberation Sans', 'Bitstream Vera Sans', sans-serif; text-anchor: middle" x="109.118071" y="546.245125" transform="rotate(-0 109.118071 546.245125)">60</text>
     </g>
    </g>
    <g id="xtick_12">
     <g id="text_15">
      <text style="fill: #373737; font: 8.8px 'Arial', 'DejaVu Sans', 'Liberation Sans', 'Bitstream Vera Sans', sans-serif; text-anchor: middle" x="167.265143" y="546.245125" transform="rotate(-0 167.265143 546.245125)">120</text>
     </g>
    </g>
    <g id="text_16">
     <text style="fill: #373737; font: 9.6px 'Arial', 'DejaVu Sans', 'Liberation Sans', 'Bitstream Vera Sans', sans-serif; text-anchor: middle" x="118.80925" y="560.36975" transform="rotate(-0 118.80925 560.36975)">day</text>
    </g>
   </g>
   <g id="matplotlib.axis_8">
    <g id="ytick_76">
     <g id="text_17">
      <!-- $\mathdefault{10^{-1}}$ -->
      <g style="fill: #373737" transform="translate(21.491 510.90375)">
       <text>
        <tspan style="font: 8.8px 'DejaVu Sans'" x="0 5.596832" y="-0.14687499999999964">10</tspan>
        <tspan style="font: 6.16px 'DejaVu Sans'" x="11.277883 16.437457" y="-3.515625">−1</tspan>
       </text>
      </g>
     </g>
    </g>
    <g id="ytick_77">
     <g id="text_18">
      <!-- $\mathdefault{10^{0}}$ -->
      <g style="fill: #373737" transform="translate(26.683 468.28775)">
       <text>
        <tspan style="font: 8.8px 'DejaVu Sans'" x="0 5.596832" y="-0.059375000000001066">10</tspan>
        <tspan style="font: 6.16px 'DejaVu Sans'" x="11.277883" y="-3.4281250000000014">0</tspan>
       </text>
      </g>
     </g>
    </g>
    <g id="ytick_78"/>
    <g id="ytick_79"/>
    <g id="ytick_80"/>
    <g id="ytick_81"/>
    <g id="ytick_82"/>
    <g id="ytick_83"/>
    <g id="ytick_84"/>
    <g id="ytick_85"/>
    <g id="ytick_86"/>
    <g id="ytick_87"/>
    <g id="ytick_88"/>
    <g id="ytick_89"/>
    <g id="ytick_90"/>
    <g id="ytick_91"/>
    <g id="ytick_92"/>
    <g id="ytick_93"/>
    <g id="ytick_94"/>
    <g id="ytick_95"/>
    <g id="ytick_96"/>
    <g id="ytick_97"/>
    <g id="ytick_98"/>
    <g id="ytick_99"/>
    <g id="ytick_100"/>
    <g id="text_19">
     <text style="fill: #373737; font: 9.6px 'Arial', 'DejaVu Sans', 'Liberation Sans', 'Bitstream Vera Sans', sans-serif; text-anchor: middle" x="14.4945" y="477.001" transform="rotate(-90 14.4945 477.001)">FL</text>
    </g>
   </g>
   <g id="line2d_13">
    <path d="M 50.971 507.22328 
L 52.019532 515.887496 
L 53.068736 507.397065 
L 53.633382 510.425501 
L 54.60923 511.702413 
L 55.5272 510.841426 
L 56.514489 508.849409 
L 57.495048 524.531108 
L 57.495048 511.266914 
L 57.495048 510.425501 
L 58.708464 512.375502 
L 59.638548 503.058801 
L 60.415861 517.623883 
L 60.415861 511.924068 
L 60.415861 510.632295 
L 61.471123 516.165815 
L 61.471123 507.572496 
L 61.471123 506.711509 
L 62.327177 512.605417 
L 62.327177 511.483383 
L 62.327177 508.849409 
L 63.405321 516.165815 
L 63.405321 515.076801 
L 63.405321 513.554747 
L 64.243877 524.095608 
L 64.243877 520.578301 
L 64.243877 512.605417 
L 66.613504 511.483383 
L 67.181515 512.605417 
L 67.181515 509.620683 
L 67.181515 508.66151 
L 68.150633 516.448384 
L 68.150633 514.814274 
L 68.150633 513.312811 
L 69.104945 517.623883 
L 69.104945 513.799889 
L 69.104945 509.42483 
L 70.07339 518.557252 
L 70.07339 507.749607 
L 70.07339 507.572496 
L 71.107788 517.322935 
L 71.107788 512.148408 
L 71.107788 502.116378 
L 72.175837 515.887496 
L 72.175837 513.554747 
L 72.175837 511.702413 
L 74.131571 518.879137 
L 74.131571 509.620683 
L 74.131571 506.880532 
L 75.910979 515.887496 
L 75.910979 511.266914 
L 75.910979 511.052947 
L 76.892211 525.434111 
L 76.892211 516.165815 
L 76.892211 514.814274 
L 77.963624 516.165815 
L 77.963624 516.165815 
L 77.963624 513.554747 
L 79.835233 515.6133 
L 81.087683 525.434111 
L 81.806446 516.448384 
L 81.806446 514.814274 
L 81.806446 514.814274 
L 82.737876 515.6133 
L 82.737876 514.555418 
L 82.737876 509.039235 
L 83.665268 525.434111 
L 83.665268 517.322935 
L 83.665268 514.814274 
L 84.668035 519.206718 
L 84.668035 511.266914 
L 84.668035 508.29134 
L 86.734141 525.434111 
L 87.592887 525.434111 
L 87.592887 520.937689 
L 87.592887 511.924068 
L 89.646878 520.578301 
L 89.646878 518.879137 
L 89.646878 508.66151 
L 90.55408 517.322935 
L 91.513776 515.887496 
L 94.347773 525.434111 
L 96.320332 516.165815 
L 97.409916 513.799889 
L 98.274046 520.225759 
L 99.337384 515.887496 
L 101.155826 525.434111 
L 102.336265 505.101112 
L 104.072602 504.795189 
L 107.991472 509.42483 
L 109.032601 522.059723 
L 111.92111 520.578301 
L 114.594933 509.231029 
L 115.895166 509.42483 
L 116.855535 522.059723 
L 118.617445 506.711509 
L 121.498552 512.605417 
L 122.461613 513.312811 
L 125.534524 513.554747 
L 128.301894 505.25599 
L 129.361867 514.300132 
L 130.398284 512.148408 
L 132.588895 525.434111 
L 135.179939 515.887496 
L 136.054164 525.434111 
L 136.978864 516.165815 
L 139.160725 518.557252 
L 141.862141 512.375502 
L 142.95711 525.434111 
L 144.815258 510.220992 
L 145.942531 512.148408 
L 148.601548 517.026803 
L 155.359126 510.425501 
L 158.488569 515.887496 
L 163.239266 506.050442 
L 166.091433 514.814274 
L 168.988019 515.343107 
L 175.761749 510.425501 
" clip-path="url(#p0c2310cc72)" style="fill: none; stroke: #332288; stroke-width: 2; stroke-linecap: round"/>
   </g>
   <g id="line2d_14">
    <path d="M 50.971 499.89276 
L 52.019532 519.206718 
L 53.068736 507.051113 
L 53.633382 509.620683 
L 54.60923 516.448384 
L 55.5272 508.66151 
L 56.514489 513.799889 
L 57.495048 516.165815 
L 57.495048 513.799889 
L 57.495048 507.051113 
L 58.708464 512.605417 
L 59.638548 505.412176 
L 60.415861 508.4755 
L 60.415861 506.880532 
L 60.415861 505.728558 
L 61.471123 512.375502 
L 61.471123 508.29134 
L 61.471123 507.928428 
L 62.327177 513.799889 
L 62.327177 510.425501 
L 62.327177 509.620683 
L 63.405321 514.814274 
L 63.405321 512.605417 
L 63.405321 511.702413 
L 64.243877 511.483383 
L 64.243877 507.749607 
L 64.243877 506.880532 
L 66.613504 506.880532 
L 67.181515 514.555418 
L 67.181515 510.018717 
L 67.181515 507.749607 
L 68.150633 518.24087 
L 68.150633 510.425501 
L 68.150633 509.42483 
L 69.104945 509.620683 
L 69.104945 504.644103 
L 69.104945 503.337121 
L 70.07339 522.449377 
L 70.07339 515.076801 
L 70.07339 510.425501 
L 71.107788 525.434111 
L 71.107788 522.449377 
L 71.107788 520.578301 
L 72.175837 516.165815 
L 72.175837 509.620683 
L 72.175837 503.762608 
L 74.131571 516.165815 
L 74.131571 512.605417 
L 74.131571 509.620683 
L 75.910979 518.879137 
L 75.910979 517.322935 
L 75.910979 508.66151 
L 76.892211 525.434111 
L 76.892211 522.449377 
L 76.892211 517.623883 
L 77.963624 522.449377 
L 77.963624 516.165815 
L 77.963624 510.632295 
L 79.835233 519.879807 
L 81.087683 525.434111 
L 81.806446 512.375502 
L 81.806446 511.483383 
L 81.806446 511.483383 
L 82.737876 520.578301 
L 82.737876 517.322935 
L 82.737876 510.841426 
L 83.665268 524.531108 
L 83.665268 514.555418 
L 83.665268 511.266914 
L 84.668035 525.434111 
L 84.668035 522.059723 
L 84.668035 507.749607 
L 86.734141 525.434111 
L 87.592887 525.434111 
L 87.592887 519.206718 
L 87.592887 508.849409 
L 89.646878 525.434111 
L 89.646878 518.879137 
L 89.646878 514.814274 
L 90.55408 513.799889 
L 91.513776 522.449377 
L 94.347773 513.554747 
L 96.320332 519.206718 
L 97.409916 511.483383 
L 98.274046 515.887496 
L 99.337384 517.322935 
L 101.155826 509.42483 
L 102.336265 514.300132 
L 104.072602 511.483383 
L 107.991472 510.220992 
L 109.032601 509.231029 
L 111.92111 522.449377 
L 114.594933 512.375502 
L 115.895166 511.266914 
L 116.855535 521.304194 
L 118.617445 511.052947 
L 121.498552 518.557252 
L 122.461613 518.879137 
L 125.534524 511.052947 
L 128.301894 513.312811 
L 129.361867 506.880532 
L 130.398284 502.784605 
L 132.588895 513.312811 
L 135.179939 513.554747 
L 136.054164 508.108995 
L 136.978864 511.266914 
L 139.160725 515.6133 
L 141.862141 512.605417 
L 142.95711 514.555418 
L 144.815258 512.605417 
L 145.942531 509.039235 
L 148.601548 509.231029 
L 155.359126 503.197438 
L 158.488569 507.572496 
L 163.239266 510.425501 
L 166.091433 520.578301 
L 168.988019 509.42483 
L 175.761749 513.554747 
" clip-path="url(#p0c2310cc72)" style="fill: none; stroke: #332288; stroke-width: 2; stroke-linecap: round"/>
   </g>
   <g id="line2d_15">
    <path d="M 50.971 497.699915 
L 52.019532 517.623883 
L 53.068736 514.814274 
L 53.633382 509.42483 
L 54.60923 509.620683 
L 55.5272 506.378024 
L 56.514489 509.231029 
L 57.495048 511.483383 
L 57.495048 507.051113 
L 57.495048 505.25599 
L 58.708464 511.483383 
L 59.638548 501.471438 
L 60.415861 513.799889 
L 60.415861 512.838223 
L 60.415861 509.81863 
L 61.471123 514.814274 
L 61.471123 512.375502 
L 61.471123 510.425501 
L 62.327177 516.448384 
L 62.327177 511.483383 
L 62.327177 509.42483 
L 63.405321 522.449377 
L 63.405321 518.879137 
L 63.405321 510.632295 
L 64.243877 514.814274 
L 64.243877 510.425501 
L 64.243877 508.849409 
L 66.613504 509.620683 
L 67.181515 525.434111 
L 67.181515 517.322935 
L 67.181515 513.799889 
L 68.150633 517.322935 
L 68.150633 514.814274 
L 68.150633 513.554747 
L 69.104945 520.578301 
L 69.104945 515.887496 
L 69.104945 509.231029 
L 70.07339 518.879137 
L 70.07339 512.605417 
L 70.07339 509.620683 
L 71.107788 518.557252 
L 71.107788 517.322935 
L 71.107788 514.814274 
L 72.175837 520.578301 
L 72.175837 517.623883 
L 72.175837 508.4755 
L 74.131571 512.605417 
L 74.131571 509.231029 
L 74.131571 508.849409 
L 75.910979 525.434111 
L 75.910979 512.375502 
L 75.910979 509.620683 
L 76.892211 522.449377 
L 76.892211 514.814274 
L 76.892211 506.213509 
L 77.963624 525.434111 
L 77.963624 525.434111 
L 77.963624 522.449377 
L 79.835233 523.67012 
L 81.087683 525.434111 
L 81.806446 518.879137 
L 81.806446 517.322935 
L 81.806446 512.148408 
L 82.737876 517.026803 
L 82.737876 514.555418 
L 82.737876 511.266914 
L 83.665268 518.557252 
L 83.665268 513.554747 
L 83.665268 511.266914 
L 84.668035 520.937689 
L 84.668035 515.076801 
L 84.668035 506.213509 
L 86.734141 525.434111 
L 87.592887 516.448384 
L 87.592887 515.887496 
L 87.592887 513.554747 
L 89.646878 513.554747 
L 89.646878 509.620683 
L 89.646878 508.66151 
L 90.55408 516.165815 
L 91.513776 514.555418 
L 94.347773 514.814274 
L 96.320332 522.847412 
L 97.409916 517.623883 
L 98.274046 517.322935 
L 99.337384 525.434111 
L 101.155826 506.711509 
L 102.336265 514.555418 
L 104.072602 509.81863 
L 107.991472 506.880532 
L 109.032601 515.887496 
L 111.92111 513.554747 
L 114.594933 513.312811 
L 115.895166 518.879137 
L 116.855535 517.026803 
L 118.617445 513.554747 
L 121.498552 509.81863 
L 122.461613 503.337121 
L 125.534524 506.050442 
L 128.301894 511.266914 
L 129.361867 510.841426 
L 130.398284 513.073996 
L 132.588895 511.052947 
L 135.179939 517.623883 
L 136.054164 517.026803 
L 136.978864 515.887496 
L 139.160725 509.039235 
L 141.862141 518.879137 
L 142.95711 515.887496 
L 144.815258 524.095608 
L 145.942531 508.29134 
L 148.601548 509.231029 
L 155.359126 520.225759 
L 158.488569 522.059723 
L 163.239266 513.312811 
L 166.091433 520.578301 
L 168.988019 510.632295 
L 175.761749 503.906639 
" clip-path="url(#p0c2310cc72)" style="fill: none; stroke: #332288; stroke-width: 2; stroke-linecap: round"/>
   </g>
   <g id="line2d_16">
    <path d="M 50.971 504.694328 
L 52.019532 519.428373 
L 53.068736 500.60469 
L 53.633382 493.412132 
L 54.60923 486.285271 
L 55.5272 476.198311 
L 56.514489 465.372422 
L 57.495048 457.104257 
L 58.708464 446.269181 
L 59.638548 449.824261 
L 60.415861 456.944777 
L 61.471123 466.59576 
L 62.327177 467.304627 
L 63.405321 468.867383 
L 64.243877 468.195072 
L 66.613504 473.253089 
L 67.181515 473.703123 
L 68.150633 477.910962 
L 69.104945 483.134404 
L 70.07339 485.514123 
L 71.107788 487.357382 
L 72.175837 495.010107 
L 74.131571 500.834604 
L 75.910979 501.457358 
L 76.892211 505.710838 
L 77.963624 514.020552 
L 79.835233 525.434111 
L 81.087683 525.434111 
L 81.806446 524.336286 
L 82.737876 524.629293 
L 83.665268 523.29995 
L 84.668035 522.71378 
L 86.734141 525.434111 
L 87.592887 522.66945 
L 89.646878 524.143494 
L 90.55408 525.434111 
L 91.513776 524.239639 
L 94.347773 525.434111 
L 96.320332 525.434111 
L 97.409916 524.977103 
L 98.274046 519.206718 
L 99.337384 525.434111 
L 101.155826 525.434111 
L 102.336265 524.82724 
L 104.072602 525.434111 
L 107.991472 521.804438 
L 109.032601 524.977103 
L 111.92111 525.434111 
L 114.594933 523.530437 
L 115.895166 525.434111 
L 116.855535 524.82724 
L 118.617445 525.434111 
L 121.498552 524.239639 
L 122.461613 525.434111 
L 125.534524 523.67012 
L 128.301894 525.434111 
L 129.361867 524.977103 
L 130.398284 524.239639 
L 132.588895 525.434111 
L 135.179939 525.434111 
L 136.054164 523.117605 
L 136.978864 524.977103 
L 139.160725 522.71378 
L 141.862141 524.239639 
L 142.95711 525.434111 
L 144.815258 525.434111 
L 145.942531 524.977103 
L 148.601548 525.434111 
L 155.359126 525.434111 
L 158.488569 525.434111 
L 163.239266 524.977103 
L 166.091433 519.317214 
L 168.988019 525.434111 
L 175.761749 525.434111 
" clip-path="url(#p0c2310cc72)" style="fill: none; stroke: #000000; stroke-linecap: round"/>
   </g>
   <g id="patch_12">
    <path d="M 50.971 530.7585 
L 50.971 423.2435 
" style="fill: none; stroke: #373737; stroke-linejoin: miter; stroke-linecap: square"/>
   </g>
   <g id="patch_13">
    <path d="M 50.971 530.7585 
L 186.6475 530.7585 
" style="fill: none; stroke: #373737; stroke-linejoin: miter; stroke-linecap: square"/>
   </g>
   <g id="text_20">
    <text style="fill: #373737; font: 9.6px 'Arial', 'DejaVu Sans', 'Liberation Sans', 'Bitstream Vera Sans', sans-serif; text-anchor: middle" x="118.80925" y="418.2435" transform="rotate(-0 118.80925 418.2435)">Marinobacter adhaerens HP15</text>
   </g>
  </g>
 </g>
 <defs>
  <clipPath id="p528c37fc02">
   <rect x="50.971" y="19.4945" width="135.6765" height="107.515"/>
  </clipPath>
  <clipPath id="p7a28f79d17">
   <rect x="50.971" y="154.0775" width="135.6765" height="107.515"/>
  </clipPath>
  <clipPath id="p01e4e3b838">
   <rect x="50.971" y="288.6605" width="135.6765" height="107.515"/>
  </clipPath>
  <clipPath id="p0c2310cc72">
   <rect x="50.971" y="423.2435" width="135.6765" height="107.515"/>
  </clipPath>
 </defs>
</svg>
