<?xml version="1.0" encoding="utf-8" standalone="no"?>
<!DOCTYPE svg PUBLIC "-//W3C//DTD SVG 1.1//EN"
  "http://www.w3.org/Graphics/SVG/1.1/DTD/svg11.dtd">
<svg xmlns:xlink="http://www.w3.org/1999/xlink" width="180.80425pt" height="172.958375pt" viewBox="0 0 180.80425 172.958375" xmlns="http://www.w3.org/2000/svg" version="1.1">
 <metadata>
  <rdf:RDF xmlns:dc="http://purl.org/dc/elements/1.1/" xmlns:cc="http://creativecommons.org/ns#" xmlns:rdf="http://www.w3.org/1999/02/22-rdf-syntax-ns#">
   <cc:Work>
    <dc:type rdf:resource="http://purl.org/dc/dcmitype/StillImage"/>
    <dc:date>2025-08-07T13:39:35.517972</dc:date>
    <dc:format>image/svg+xml</dc:format>
    <dc:creator>
     <cc:Agent>
      <dc:title>Matplotlib v3.7.1, https://matplotlib.org/</dc:title>
     </cc:Agent>
    </dc:creator>
   </cc:Work>
  </rdf:RDF>
 </metadata>
 <defs>
  <style type="text/css">*{stroke-linejoin: round; stroke-linecap: butt}</style>
 </defs>
 <g id="figure_1">
  <g id="patch_1">
   <path d="M 0 172.958375 
L 180.80425 172.958375 
L 180.80425 0 
L 0 0 
L 0 172.958375 
z
" style="fill: none"/>
  </g>
  <g id="axes_1">
   <g id="patch_2">
    <path d="M 44.69075 134.150625 
L 170.80475 134.150625 
L 170.80475 16.886625 
L 44.69075 16.886625 
L 44.69075 134.150625 
z
" style="fill: none"/>
   </g>
   <g id="matplotlib.axis_1">
    <g id="xtick_1">
     <g id="text_1">
      <text style="fill: #262626; font: 8.8px 'Arial', 'DejaVu Sans', 'Liberation Sans', 'Bitstream Vera Sans', sans-serif; text-anchor: middle" x="50.696179" y="149.63725" transform="rotate(-0 50.696179 149.63725)">0</text>
     </g>
    </g>
    <g id="xtick_2">
     <g id="text_2">
      <text style="fill: #262626; font: 8.8px 'Arial', 'DejaVu Sans', 'Liberation Sans', 'Bitstream Vera Sans', sans-serif; text-anchor: middle" x="80.723321" y="149.63725" transform="rotate(-0 80.723321 149.63725)">1</text>
     </g>
    </g>
    <g id="xtick_3">
     <g id="text_3">
      <text style="fill: #262626; font: 8.8px 'Arial', 'DejaVu Sans', 'Liberation Sans', 'Bitstream Vera Sans', sans-serif; text-anchor: middle" x="110.750464" y="149.63725" transform="rotate(-0 110.750464 149.63725)">2</text>
     </g>
    </g>
    <g id="xtick_4">
     <g id="text_4">
      <text style="fill: #262626; font: 8.8px 'Arial', 'DejaVu Sans', 'Liberation Sans', 'Bitstream Vera Sans', sans-serif; text-anchor: middle" x="140.777607" y="149.63725" transform="rotate(-0 140.777607 149.63725)">3</text>
     </g>
    </g>
    <g id="xtick_5">
     <g id="text_5">
      <text style="fill: #262626; font: 8.8px 'Arial', 'DejaVu Sans', 'Liberation Sans', 'Bitstream Vera Sans', sans-serif; text-anchor: middle" x="170.80475" y="149.63725" transform="rotate(-0 170.80475 149.63725)">4</text>
     </g>
    </g>
    <g id="text_6">
     <text style="fill: #262626; font: 9.6px 'Arial', 'DejaVu Sans', 'Liberation Sans', 'Bitstream Vera Sans', sans-serif; text-anchor: middle" x="107.74775" y="163.761875" transform="rotate(-0 107.74775 163.761875)">Fluorescence</text>
    </g>
   </g>
   <g id="matplotlib.axis_2">
    <g id="ytick_1">
     <g id="text_7">
      <text style="fill: #262626; font: 8.8px 'Arial', 'DejaVu Sans', 'Liberation Sans', 'Bitstream Vera Sans', sans-serif; text-anchor: end" x="35.89075" y="133.02542" transform="rotate(-0 35.89075 133.02542)">0.0</text>
     </g>
    </g>
    <g id="ytick_2">
     <g id="text_8">
      <text style="fill: #262626; font: 8.8px 'Arial', 'DejaVu Sans', 'Liberation Sans', 'Bitstream Vera Sans', sans-serif; text-anchor: end" x="35.89075" y="118.811602" transform="rotate(-0 35.89075 118.811602)">0.2</text>
     </g>
    </g>
    <g id="ytick_3">
     <g id="text_9">
      <text style="fill: #262626; font: 8.8px 'Arial', 'DejaVu Sans', 'Liberation Sans', 'Bitstream Vera Sans', sans-serif; text-anchor: end" x="35.89075" y="104.597784" transform="rotate(-0 35.89075 104.597784)">0.4</text>
     </g>
    </g>
    <g id="ytick_4">
     <g id="text_10">
      <text style="fill: #262626; font: 8.8px 'Arial', 'DejaVu Sans', 'Liberation Sans', 'Bitstream Vera Sans', sans-serif; text-anchor: end" x="35.89075" y="90.383966" transform="rotate(-0 35.89075 90.383966)">0.6</text>
     </g>
    </g>
    <g id="ytick_5">
     <g id="text_11">
      <text style="fill: #262626; font: 8.8px 'Arial', 'DejaVu Sans', 'Liberation Sans', 'Bitstream Vera Sans', sans-serif; text-anchor: end" x="35.89075" y="76.170148" transform="rotate(-0 35.89075 76.170148)">0.8</text>
     </g>
    </g>
    <g id="ytick_6">
     <g id="text_12">
      <text style="fill: #262626; font: 8.8px 'Arial', 'DejaVu Sans', 'Liberation Sans', 'Bitstream Vera Sans', sans-serif; text-anchor: end" x="35.89075" y="61.95633" transform="rotate(-0 35.89075 61.95633)">1.0</text>
     </g>
    </g>
    <g id="ytick_7">
     <g id="text_13">
      <text style="fill: #262626; font: 8.8px 'Arial', 'DejaVu Sans', 'Liberation Sans', 'Bitstream Vera Sans', sans-serif; text-anchor: end" x="35.89075" y="47.742511" transform="rotate(-0 35.89075 47.742511)">1.2</text>
     </g>
    </g>
    <g id="ytick_8">
     <g id="text_14">
      <text style="fill: #262626; font: 8.8px 'Arial', 'DejaVu Sans', 'Liberation Sans', 'Bitstream Vera Sans', sans-serif; text-anchor: end" x="35.89075" y="33.528693" transform="rotate(-0 35.89075 33.528693)">1.4</text>
     </g>
    </g>
    <g id="ytick_9">
     <g id="text_15">
      <text style="fill: #262626; font: 8.8px 'Arial', 'DejaVu Sans', 'Liberation Sans', 'Bitstream Vera Sans', sans-serif; text-anchor: end" x="35.89075" y="19.314875" transform="rotate(-0 35.89075 19.314875)">1.6</text>
     </g>
    </g>
    <g id="text_16">
     <!-- $\mathregular{10^8}$ cell/ml -->
     <g style="fill: #262626" transform="translate(14.8995 101.390625) rotate(-90)">
      <text>
       <tspan style="font: 9.6px 'DejaVu Sans'" x="0 6.103836 16.834732 19.884308 25.158997 31.061402 33.726853 36.392304 39.624573 48.970047" y="-0.33750000000000036">10 cell/ml</tspan>
       <tspan style="font: 6.72px 'DejaVu Sans'" x="12.299547" y="-4.0125">8</tspan>
      </text>
     </g>
    </g>
    <g id="text_17">
     <text style="fill: #262626; font: 8.8px 'Arial', 'DejaVu Sans', 'Liberation Sans', 'Bitstream Vera Sans', sans-serif; text-anchor: start" x="44.69075" y="13.886625" transform="rotate(-0 44.69075 13.886625)">1e8</text>
    </g>
   </g>
   <g id="PathCollection_1">
    <path d="M 62.737063 126.526197 
L 65.475676 121.048972 
L 59.99845 121.048972 
z
" clip-path="url(#p303e7454b3)" style="fill: #88ccee; fill-opacity: 0.8; stroke: #ffffff; stroke-opacity: 0.8; stroke-width: 0.5"/>
    <path d="M 63.217497 126.526197 
L 65.95611 121.048972 
L 60.478884 121.048972 
z
" clip-path="url(#p303e7454b3)" style="fill: #88ccee; fill-opacity: 0.8; stroke: #ffffff; stroke-opacity: 0.8; stroke-width: 0.5"/>
    <path d="M 62.797117 126.526197 
L 65.53573 121.048972 
L 60.058504 121.048972 
z
" clip-path="url(#p303e7454b3)" style="fill: #88ccee; fill-opacity: 0.8; stroke: #ffffff; stroke-opacity: 0.8; stroke-width: 0.5"/>
    <path d="M 59.764376 129.82604 
L 62.502989 124.348814 
L 57.025763 124.348814 
z
" clip-path="url(#p303e7454b3)" style="fill: #88ccee; fill-opacity: 0.8; stroke: #ffffff; stroke-opacity: 0.8; stroke-width: 0.5"/>
    <path d="M 59.794403 129.82604 
L 62.533016 124.348814 
L 57.05579 124.348814 
z
" clip-path="url(#p303e7454b3)" style="fill: #88ccee; fill-opacity: 0.8; stroke: #ffffff; stroke-opacity: 0.8; stroke-width: 0.5"/>
    <path d="M 61.686113 129.82604 
L 64.424726 124.348814 
L 58.9475 124.348814 
z
" clip-path="url(#p303e7454b3)" style="fill: #88ccee; fill-opacity: 0.8; stroke: #ffffff; stroke-opacity: 0.8; stroke-width: 0.5"/>
    <path d="M 60.124701 130.197472 
L 62.863314 124.720246 
L 57.386089 124.720246 
z
" clip-path="url(#p303e7454b3)" style="fill: #88ccee; fill-opacity: 0.8; stroke: #ffffff; stroke-opacity: 0.8; stroke-width: 0.5"/>
    <path d="M 58.953643 130.197472 
L 61.692256 124.720246 
L 56.21503 124.720246 
z
" clip-path="url(#p303e7454b3)" style="fill: #88ccee; fill-opacity: 0.8; stroke: #ffffff; stroke-opacity: 0.8; stroke-width: 0.5"/>
    <path d="M 60.635163 130.197472 
L 63.373776 124.720246 
L 57.89655 124.720246 
z
" clip-path="url(#p303e7454b3)" style="fill: #88ccee; fill-opacity: 0.8; stroke: #ffffff; stroke-opacity: 0.8; stroke-width: 0.5"/>
    <path d="M 94.205509 103.200536 
C 94.931797 103.200536 95.628437 102.911979 96.142 102.398415 
C 96.655564 101.884851 96.944121 101.188212 96.944121 100.461923 
C 96.944121 99.735635 96.655564 99.038995 96.142 98.525432 
C 95.628437 98.011868 94.931797 97.723311 94.205509 97.723311 
C 93.47922 97.723311 92.78258 98.011868 92.269017 98.525432 
C 91.755453 99.038995 91.466896 99.735635 91.466896 100.461923 
C 91.466896 101.188212 91.755453 101.884851 92.269017 102.398415 
C 92.78258 102.911979 93.47922 103.200536 94.205509 103.200536 
z
" clip-path="url(#p303e7454b3)" style="fill: #882255; fill-opacity: 0.8; stroke: #ffffff; stroke-opacity: 0.8; stroke-width: 0.5"/>
    <path d="M 93.66502 103.200536 
C 94.391309 103.200536 95.087948 102.911979 95.601512 102.398415 
C 96.115075 101.884851 96.403633 101.188212 96.403633 100.461923 
C 96.403633 99.735635 96.115075 99.038995 95.601512 98.525432 
C 95.087948 98.011868 94.391309 97.723311 93.66502 97.723311 
C 92.938731 97.723311 92.242092 98.011868 91.728528 98.525432 
C 91.214965 99.038995 90.926407 99.735635 90.926407 100.461923 
C 90.926407 101.188212 91.214965 101.884851 91.728528 102.398415 
C 92.242092 102.911979 92.938731 103.200536 93.66502 103.200536 
z
" clip-path="url(#p303e7454b3)" style="fill: #882255; fill-opacity: 0.8; stroke: #ffffff; stroke-opacity: 0.8; stroke-width: 0.5"/>
    <path d="M 92.82426 103.200536 
C 93.550549 103.200536 94.247188 102.911979 94.760752 102.398415 
C 95.274315 101.884851 95.562873 101.188212 95.562873 100.461923 
C 95.562873 99.735635 95.274315 99.038995 94.760752 98.525432 
C 94.247188 98.011868 93.550549 97.723311 92.82426 97.723311 
C 92.097971 97.723311 91.401332 98.011868 90.887768 98.525432 
C 90.374205 99.038995 90.085647 99.735635 90.085647 100.461923 
C 90.085647 101.188212 90.374205 101.884851 90.887768 102.398415 
C 91.401332 102.911979 92.097971 103.200536 92.82426 103.200536 
z
" clip-path="url(#p303e7454b3)" style="fill: #882255; fill-opacity: 0.8; stroke: #ffffff; stroke-opacity: 0.8; stroke-width: 0.5"/>
    <path d="M 129.967836 84.077781 
C 130.694124 84.077781 131.390764 83.789223 131.904327 83.27566 
C 132.417891 82.762096 132.706449 82.065457 132.706449 81.339168 
C 132.706449 80.612879 132.417891 79.91624 131.904327 79.402676 
C 131.390764 78.889113 130.694124 78.600555 129.967836 78.600555 
C 129.241547 78.600555 128.544908 78.889113 128.031344 79.402676 
C 127.51778 79.91624 127.229223 80.612879 127.229223 81.339168 
C 127.229223 82.065457 127.51778 82.762096 128.031344 83.27566 
C 128.544908 83.789223 129.241547 84.077781 129.967836 84.077781 
z
" clip-path="url(#p303e7454b3)" style="fill: #882255; fill-opacity: 0.8; stroke: #ffffff; stroke-opacity: 0.8; stroke-width: 0.5"/>
    <path d="M 131.138894 84.077781 
C 131.865183 84.077781 132.561822 83.789223 133.075386 83.27566 
C 133.58895 82.762096 133.877507 82.065457 133.877507 81.339168 
C 133.877507 80.612879 133.58895 79.91624 133.075386 79.402676 
C 132.561822 78.889113 131.865183 78.600555 131.138894 78.600555 
C 130.412606 78.600555 129.715966 78.889113 129.202403 79.402676 
C 128.688839 79.91624 128.400281 80.612879 128.400281 81.339168 
C 128.400281 82.065457 128.688839 82.762096 129.202403 83.27566 
C 129.715966 83.789223 130.412606 84.077781 131.138894 84.077781 
z
" clip-path="url(#p303e7454b3)" style="fill: #882255; fill-opacity: 0.8; stroke: #ffffff; stroke-opacity: 0.8; stroke-width: 0.5"/>
    <path d="M 130.65846 84.077781 
C 131.384749 84.077781 132.081388 83.789223 132.594952 83.27566 
C 133.108515 82.762096 133.397073 82.065457 133.397073 81.339168 
C 133.397073 80.612879 133.108515 79.91624 132.594952 79.402676 
C 132.081388 78.889113 131.384749 78.600555 130.65846 78.600555 
C 129.932171 78.600555 129.235532 78.889113 128.721968 79.402676 
C 128.208405 79.91624 127.919847 80.612879 127.919847 81.339168 
C 127.919847 82.065457 128.208405 82.762096 128.721968 83.27566 
C 129.235532 83.789223 129.932171 84.077781 130.65846 84.077781 
z
" clip-path="url(#p303e7454b3)" style="fill: #882255; fill-opacity: 0.8; stroke: #ffffff; stroke-opacity: 0.8; stroke-width: 0.5"/>
    <path d="M 94.29559 112.713543 
C 95.021879 112.713543 95.718518 112.424986 96.232082 111.911422 
C 96.745645 111.397859 97.034203 110.701219 97.034203 109.974931 
C 97.034203 109.248642 96.745645 108.552002 96.232082 108.038439 
C 95.718518 107.524875 95.021879 107.236318 94.29559 107.236318 
C 93.569301 107.236318 92.872662 107.524875 92.359098 108.038439 
C 91.845535 108.552002 91.556977 109.248642 91.556977 109.974931 
C 91.556977 110.701219 91.845535 111.397859 92.359098 111.911422 
C 92.872662 112.424986 93.569301 112.713543 94.29559 112.713543 
z
" clip-path="url(#p303e7454b3)" style="fill: #882255; fill-opacity: 0.8; stroke: #ffffff; stroke-opacity: 0.8; stroke-width: 0.5"/>
    <path d="M 96.127246 112.713543 
C 96.853534 112.713543 97.550174 112.424986 98.063737 111.911422 
C 98.577301 111.397859 98.865859 110.701219 98.865859 109.974931 
C 98.865859 109.248642 98.577301 108.552002 98.063737 108.038439 
C 97.550174 107.524875 96.853534 107.236318 96.127246 107.236318 
C 95.400957 107.236318 94.704318 107.524875 94.190754 108.038439 
C 93.67719 108.552002 93.388633 109.248642 93.388633 109.974931 
C 93.388633 110.701219 93.67719 111.397859 94.190754 111.911422 
C 94.704318 112.424986 95.400957 112.713543 96.127246 112.713543 
z
" clip-path="url(#p303e7454b3)" style="fill: #882255; fill-opacity: 0.8; stroke: #ffffff; stroke-opacity: 0.8; stroke-width: 0.5"/>
    <path d="M 94.685943 112.713543 
C 95.412231 112.713543 96.108871 112.424986 96.622435 111.911422 
C 97.135998 111.397859 97.424556 110.701219 97.424556 109.974931 
C 97.424556 109.248642 97.135998 108.552002 96.622435 108.038439 
C 96.108871 107.524875 95.412231 107.236318 94.685943 107.236318 
C 93.959654 107.236318 93.263015 107.524875 92.749451 108.038439 
C 92.235888 108.552002 91.94733 109.248642 91.94733 109.974931 
C 91.94733 110.701219 92.235888 111.397859 92.749451 111.911422 
C 93.263015 112.424986 93.959654 112.713543 94.685943 112.713543 
z
" clip-path="url(#p303e7454b3)" style="fill: #882255; fill-opacity: 0.8; stroke: #ffffff; stroke-opacity: 0.8; stroke-width: 0.5"/>
    <path d="M 71.246686 123.592462 
L 72.615993 122.223155 
L 73.985299 123.592462 
L 75.354606 122.223155 
L 73.985299 120.853849 
L 75.354606 119.484542 
L 73.985299 118.115236 
L 72.615993 119.484542 
L 71.246686 118.115236 
L 69.87738 119.484542 
L 71.246686 120.853849 
L 69.87738 122.223155 
z
" clip-path="url(#p303e7454b3)" style="fill: #882255; fill-opacity: 0.8; stroke: #ffffff; stroke-opacity: 0.8; stroke-width: 0.5"/>
    <path d="M 70.976442 123.592462 
L 72.345749 122.223155 
L 73.715055 123.592462 
L 75.084361 122.223155 
L 73.715055 120.853849 
L 75.084361 119.484542 
L 73.715055 118.115236 
L 72.345749 119.484542 
L 70.976442 118.115236 
L 69.607136 119.484542 
L 70.976442 120.853849 
L 69.607136 122.223155 
z
" clip-path="url(#p303e7454b3)" style="fill: #882255; fill-opacity: 0.8; stroke: #ffffff; stroke-opacity: 0.8; stroke-width: 0.5"/>
    <path d="M 71.847229 123.592462 
L 73.216536 122.223155 
L 74.585842 123.592462 
L 75.955149 122.223155 
L 74.585842 120.853849 
L 75.955149 119.484542 
L 74.585842 118.115236 
L 73.216536 119.484542 
L 71.847229 118.115236 
L 70.477923 119.484542 
L 71.847229 120.853849 
L 70.477923 122.223155 
z
" clip-path="url(#p303e7454b3)" style="fill: #882255; fill-opacity: 0.8; stroke: #ffffff; stroke-opacity: 0.8; stroke-width: 0.5"/>
    <path d="M 154.421872 94.895459 
L 155.791179 93.526153 
L 157.160485 94.895459 
L 158.529791 93.526153 
L 157.160485 92.156847 
L 158.529791 90.78754 
L 157.160485 89.418234 
L 155.791179 90.78754 
L 154.421872 89.418234 
L 153.052566 90.78754 
L 154.421872 92.156847 
L 153.052566 93.526153 
z
" clip-path="url(#p303e7454b3)" style="fill: #882255; fill-opacity: 0.8; stroke: #ffffff; stroke-opacity: 0.8; stroke-width: 0.5"/>
    <path d="M 154.722144 94.895459 
L 156.09145 93.526153 
L 157.460756 94.895459 
L 158.830063 93.526153 
L 157.460756 92.156847 
L 158.830063 90.78754 
L 157.460756 89.418234 
L 156.09145 90.78754 
L 154.722144 89.418234 
L 153.352837 90.78754 
L 154.722144 92.156847 
L 153.352837 93.526153 
z
" clip-path="url(#p303e7454b3)" style="fill: #882255; fill-opacity: 0.8; stroke: #ffffff; stroke-opacity: 0.8; stroke-width: 0.5"/>
    <path d="M 150.668479 94.895459 
L 152.037786 93.526153 
L 153.407092 94.895459 
L 154.776399 93.526153 
L 153.407092 92.156847 
L 154.776399 90.78754 
L 153.407092 89.418234 
L 152.037786 90.78754 
L 150.668479 89.418234 
L 149.299173 90.78754 
L 150.668479 92.156847 
L 149.299173 93.526153 
z
" clip-path="url(#p303e7454b3)" style="fill: #882255; fill-opacity: 0.8; stroke: #ffffff; stroke-opacity: 0.8; stroke-width: 0.5"/>
    <path d="M 122.412938 28.294202 
L 123.782244 26.924896 
L 125.151551 28.294202 
L 126.520857 26.924896 
L 125.151551 25.55559 
L 126.520857 24.186283 
L 125.151551 22.816977 
L 123.782244 24.186283 
L 122.412938 22.816977 
L 121.043631 24.186283 
L 122.412938 25.55559 
L 121.043631 26.924896 
z
" clip-path="url(#p303e7454b3)" style="fill: #882255; fill-opacity: 0.8; stroke: #ffffff; stroke-opacity: 0.8; stroke-width: 0.5"/>
    <path d="M 126.526656 28.294202 
L 127.895963 26.924896 
L 129.265269 28.294202 
L 130.634576 26.924896 
L 129.265269 25.55559 
L 130.634576 24.186283 
L 129.265269 22.816977 
L 127.895963 24.186283 
L 126.526656 22.816977 
L 125.15735 24.186283 
L 126.526656 25.55559 
L 125.15735 26.924896 
z
" clip-path="url(#p303e7454b3)" style="fill: #882255; fill-opacity: 0.8; stroke: #ffffff; stroke-opacity: 0.8; stroke-width: 0.5"/>
    <path d="M 129.048936 28.294202 
L 130.418243 26.924896 
L 131.787549 28.294202 
L 133.156856 26.924896 
L 131.787549 25.55559 
L 133.156856 24.186283 
L 131.787549 22.816977 
L 130.418243 24.186283 
L 129.048936 22.816977 
L 127.67963 24.186283 
L 129.048936 25.55559 
L 127.67963 26.924896 
z
" clip-path="url(#p303e7454b3)" style="fill: #882255; fill-opacity: 0.8; stroke: #ffffff; stroke-opacity: 0.8; stroke-width: 0.5"/>
    <path d="M 54.347433 131.357475 
L 56.173175 131.357475 
L 56.173175 129.531734 
L 57.998917 129.531734 
L 57.998917 127.705992 
L 56.173175 127.705992 
L 56.173175 125.88025 
L 54.347433 125.88025 
L 54.347433 127.705992 
L 52.521691 127.705992 
L 52.521691 129.531734 
L 54.347433 129.531734 
z
" clip-path="url(#p303e7454b3)" style="fill: #cc6677; fill-opacity: 0.8; stroke: #ffffff; stroke-opacity: 0.8; stroke-width: 0.5"/>
    <path d="M 54.437515 131.357475 
L 56.263257 131.357475 
L 56.263257 129.531734 
L 58.088999 129.531734 
L 58.088999 127.705992 
L 56.263257 127.705992 
L 56.263257 125.88025 
L 54.437515 125.88025 
L 54.437515 127.705992 
L 52.611773 127.705992 
L 52.611773 129.531734 
L 54.437515 129.531734 
z
" clip-path="url(#p303e7454b3)" style="fill: #cc6677; fill-opacity: 0.8; stroke: #ffffff; stroke-opacity: 0.8; stroke-width: 0.5"/>
    <path d="M 54.437515 131.357475 
L 56.263257 131.357475 
L 56.263257 129.531734 
L 58.088999 129.531734 
L 58.088999 127.705992 
L 56.263257 127.705992 
L 56.263257 125.88025 
L 54.437515 125.88025 
L 54.437515 127.705992 
L 52.611773 127.705992 
L 52.611773 129.531734 
L 54.437515 129.531734 
z
" clip-path="url(#p303e7454b3)" style="fill: #cc6677; fill-opacity: 0.8; stroke: #ffffff; stroke-opacity: 0.8; stroke-width: 0.5"/>
    <path d="M 55.788736 131.216802 
L 57.614478 131.216802 
L 57.614478 129.39106 
L 59.44022 129.39106 
L 59.44022 127.565318 
L 57.614478 127.565318 
L 57.614478 125.739576 
L 55.788736 125.739576 
L 55.788736 127.565318 
L 53.962994 127.565318 
L 53.962994 129.39106 
L 55.788736 129.39106 
z
" clip-path="url(#p303e7454b3)" style="fill: #cc6677; fill-opacity: 0.8; stroke: #ffffff; stroke-opacity: 0.8; stroke-width: 0.5"/>
    <path d="M 54.617678 131.216802 
L 56.44342 131.216802 
L 56.44342 129.39106 
L 58.269161 129.39106 
L 58.269161 127.565318 
L 56.44342 127.565318 
L 56.44342 125.739576 
L 54.617678 125.739576 
L 54.617678 127.565318 
L 52.791936 127.565318 
L 52.791936 129.39106 
L 54.617678 129.39106 
z
" clip-path="url(#p303e7454b3)" style="fill: #cc6677; fill-opacity: 0.8; stroke: #ffffff; stroke-opacity: 0.8; stroke-width: 0.5"/>
    <path d="M 54.737786 131.216802 
L 56.563528 131.216802 
L 56.563528 129.39106 
L 58.38927 129.39106 
L 58.38927 127.565318 
L 56.563528 127.565318 
L 56.563528 125.739576 
L 54.737786 125.739576 
L 54.737786 127.565318 
L 52.912044 127.565318 
L 52.912044 129.39106 
L 54.737786 129.39106 
z
" clip-path="url(#p303e7454b3)" style="fill: #cc6677; fill-opacity: 0.8; stroke: #ffffff; stroke-opacity: 0.8; stroke-width: 0.5"/>
    <path d="M 55.968899 131.06814 
L 57.794641 131.06814 
L 57.794641 129.242398 
L 59.620383 129.242398 
L 59.620383 127.416656 
L 57.794641 127.416656 
L 57.794641 125.590914 
L 55.968899 125.590914 
L 55.968899 127.416656 
L 54.143157 127.416656 
L 54.143157 129.242398 
L 55.968899 129.242398 
z
" clip-path="url(#p303e7454b3)" style="fill: #cc6677; fill-opacity: 0.8; stroke: #ffffff; stroke-opacity: 0.8; stroke-width: 0.5"/>
    <path d="M 56.26917 131.06814 
L 58.094912 131.06814 
L 58.094912 129.242398 
L 59.920654 129.242398 
L 59.920654 127.416656 
L 58.094912 127.416656 
L 58.094912 125.590914 
L 56.26917 125.590914 
L 56.26917 127.416656 
L 54.443429 127.416656 
L 54.443429 129.242398 
L 56.26917 129.242398 
z
" clip-path="url(#p303e7454b3)" style="fill: #cc6677; fill-opacity: 0.8; stroke: #ffffff; stroke-opacity: 0.8; stroke-width: 0.5"/>
    <path d="M 55.548519 131.06814 
L 57.374261 131.06814 
L 57.374261 129.242398 
L 59.200003 129.242398 
L 59.200003 127.416656 
L 57.374261 127.416656 
L 57.374261 125.590914 
L 55.548519 125.590914 
L 55.548519 127.416656 
L 53.722777 127.416656 
L 53.722777 129.242398 
L 55.548519 129.242398 
z
" clip-path="url(#p303e7454b3)" style="fill: #cc6677; fill-opacity: 0.8; stroke: #ffffff; stroke-opacity: 0.8; stroke-width: 0.5"/>
    <path d="M 58.638617 126.338896 
L 58.638617 130.21188 
L 62.5116 130.21188 
L 62.5116 126.338896 
z
" clip-path="url(#p303e7454b3)" style="fill: #cc6677; fill-opacity: 0.8; stroke: #ffffff; stroke-opacity: 0.8; stroke-width: 0.5"/>
    <path d="M 59.479377 126.338896 
L 59.479377 130.21188 
L 63.35236 130.21188 
L 63.35236 126.338896 
z
" clip-path="url(#p303e7454b3)" style="fill: #cc6677; fill-opacity: 0.8; stroke: #ffffff; stroke-opacity: 0.8; stroke-width: 0.5"/>
    <path d="M 59.629513 126.338896 
L 59.629513 130.21188 
L 63.502496 130.21188 
L 63.502496 126.338896 
z
" clip-path="url(#p303e7454b3)" style="fill: #cc6677; fill-opacity: 0.8; stroke: #ffffff; stroke-opacity: 0.8; stroke-width: 0.5"/>
    <path d="M 56.50669 127.575228 
L 56.50669 131.448211 
L 60.379673 131.448211 
L 60.379673 127.575228 
z
" clip-path="url(#p303e7454b3)" style="fill: #cc6677; fill-opacity: 0.8; stroke: #ffffff; stroke-opacity: 0.8; stroke-width: 0.5"/>
    <path d="M 55.275577 127.575228 
L 55.275577 131.448211 
L 59.14856 131.448211 
L 59.14856 127.575228 
z
" clip-path="url(#p303e7454b3)" style="fill: #cc6677; fill-opacity: 0.8; stroke: #ffffff; stroke-opacity: 0.8; stroke-width: 0.5"/>
    <path d="M 56.416608 127.575228 
L 56.416608 131.448211 
L 60.289592 131.448211 
L 60.289592 127.575228 
z
" clip-path="url(#p303e7454b3)" style="fill: #cc6677; fill-opacity: 0.8; stroke: #ffffff; stroke-opacity: 0.8; stroke-width: 0.5"/>
    <path d="M 56.806961 126.079737 
L 56.806961 129.95272 
L 60.679945 129.95272 
L 60.679945 126.079737 
z
" clip-path="url(#p303e7454b3)" style="fill: #cc6677; fill-opacity: 0.8; stroke: #ffffff; stroke-opacity: 0.8; stroke-width: 0.5"/>
    <path d="M 55.545821 126.079737 
L 55.545821 129.95272 
L 59.418805 129.95272 
L 59.418805 126.079737 
z
" clip-path="url(#p303e7454b3)" style="fill: #cc6677; fill-opacity: 0.8; stroke: #ffffff; stroke-opacity: 0.8; stroke-width: 0.5"/>
    <path d="M 56.146364 126.079737 
L 56.146364 129.95272 
L 60.019347 129.95272 
L 60.019347 126.079737 
z
" clip-path="url(#p303e7454b3)" style="fill: #cc6677; fill-opacity: 0.8; stroke: #ffffff; stroke-opacity: 0.8; stroke-width: 0.5"/>
    <path d="M 52.527834 127.622918 
L 49.789221 130.361531 
L 52.527834 133.100144 
L 55.266447 130.361531 
z
" clip-path="url(#p303e7454b3)" style="fill: #44aa99; fill-opacity: 0.8; stroke: #ffffff; stroke-opacity: 0.8; stroke-width: 0.5"/>
    <path d="M 53.819001 127.622918 
L 51.080389 130.361531 
L 53.819001 133.100144 
L 56.557614 130.361531 
z
" clip-path="url(#p303e7454b3)" style="fill: #44aa99; fill-opacity: 0.8; stroke: #ffffff; stroke-opacity: 0.8; stroke-width: 0.5"/>
    <path d="M 51.987346 127.622918 
L 49.248733 130.361531 
L 51.987346 133.100144 
L 54.725959 130.361531 
z
" clip-path="url(#p303e7454b3)" style="fill: #44aa99; fill-opacity: 0.8; stroke: #ffffff; stroke-opacity: 0.8; stroke-width: 0.5"/>
    <path d="M 52.437753 127.605167 
L 49.69914 130.34378 
L 52.437753 133.082393 
L 55.176366 130.34378 
z
" clip-path="url(#p303e7454b3)" style="fill: #44aa99; fill-opacity: 0.8; stroke: #ffffff; stroke-opacity: 0.8; stroke-width: 0.5"/>
    <path d="M 52.67797 127.605167 
L 49.939357 130.34378 
L 52.67797 133.082393 
L 55.416583 130.34378 
z
" clip-path="url(#p303e7454b3)" style="fill: #44aa99; fill-opacity: 0.8; stroke: #ffffff; stroke-opacity: 0.8; stroke-width: 0.5"/>
    <path d="M 53.72892 127.605167 
L 50.990307 130.34378 
L 53.72892 133.082393 
L 56.467533 130.34378 
z
" clip-path="url(#p303e7454b3)" style="fill: #44aa99; fill-opacity: 0.8; stroke: #ffffff; stroke-opacity: 0.8; stroke-width: 0.5"/>
    <path d="M 57.242096 126.2397 
L 54.503483 128.978313 
L 57.242096 131.716926 
L 59.980709 128.978313 
z
" clip-path="url(#p303e7454b3)" style="fill: #44aa99; fill-opacity: 0.8; stroke: #ffffff; stroke-opacity: 0.8; stroke-width: 0.5"/>
    <path d="M 56.071037 126.2397 
L 53.332424 128.978313 
L 56.071037 131.716926 
L 58.80965 128.978313 
z
" clip-path="url(#p303e7454b3)" style="fill: #44aa99; fill-opacity: 0.8; stroke: #ffffff; stroke-opacity: 0.8; stroke-width: 0.5"/>
    <path d="M 55.950929 126.2397 
L 53.212316 128.978313 
L 55.950929 131.716926 
L 58.689541 128.978313 
z
" clip-path="url(#p303e7454b3)" style="fill: #44aa99; fill-opacity: 0.8; stroke: #ffffff; stroke-opacity: 0.8; stroke-width: 0.5"/>
    <path d="M 54.239381 126.462027 
L 53.271136 128.232394 
L 51.500769 129.20064 
L 53.271136 130.168885 
L 54.239381 131.939252 
L 55.207627 130.168885 
L 56.977994 129.20064 
L 55.207627 128.232394 
z
" clip-path="url(#p303e7454b3)" style="fill: #44aa99; fill-opacity: 0.8; stroke: #ffffff; stroke-opacity: 0.8; stroke-width: 0.5"/>
    <path d="M 53.879056 126.462027 
L 52.91081 128.232394 
L 51.140443 129.20064 
L 52.91081 130.168885 
L 53.879056 131.939252 
L 54.847302 130.168885 
L 56.617669 129.20064 
L 54.847302 128.232394 
z
" clip-path="url(#p303e7454b3)" style="fill: #44aa99; fill-opacity: 0.8; stroke: #ffffff; stroke-opacity: 0.8; stroke-width: 0.5"/>
    <path d="M 53.969137 126.462027 
L 53.000891 128.232394 
L 51.230524 129.20064 
L 53.000891 130.168885 
L 53.969137 131.939252 
L 54.937383 130.168885 
L 56.70775 129.20064 
L 54.937383 128.232394 
z
" clip-path="url(#p303e7454b3)" style="fill: #44aa99; fill-opacity: 0.8; stroke: #ffffff; stroke-opacity: 0.8; stroke-width: 0.5"/>
    <path d="M 54.269409 127.218204 
L 53.301163 128.988571 
L 51.530796 129.956816 
L 53.301163 130.925062 
L 54.269409 132.695429 
L 55.237654 130.925062 
L 57.008021 129.956816 
L 55.237654 128.988571 
z
" clip-path="url(#p303e7454b3)" style="fill: #44aa99; fill-opacity: 0.8; stroke: #ffffff; stroke-opacity: 0.8; stroke-width: 0.5"/>
    <path d="M 53.698893 127.218204 
L 52.730647 128.988571 
L 50.96028 129.956816 
L 52.730647 130.925062 
L 53.698893 132.695429 
L 54.667139 130.925062 
L 56.437506 129.956816 
L 54.667139 128.988571 
z
" clip-path="url(#p303e7454b3)" style="fill: #44aa99; fill-opacity: 0.8; stroke: #ffffff; stroke-opacity: 0.8; stroke-width: 0.5"/>
    <path d="M 53.999164 127.218204 
L 53.030918 128.988571 
L 51.260551 129.956816 
L 53.030918 130.925062 
L 53.999164 132.695429 
L 54.96741 130.925062 
L 56.737777 129.956816 
L 54.96741 128.988571 
z
" clip-path="url(#p303e7454b3)" style="fill: #44aa99; fill-opacity: 0.8; stroke: #ffffff; stroke-opacity: 0.8; stroke-width: 0.5"/>
    <path d="M 51.83721 127.797762 
L 50.868964 129.568129 
L 49.098597 130.536375 
L 50.868964 131.50462 
L 51.83721 133.274987 
L 52.805456 131.50462 
L 54.575823 130.536375 
L 52.805456 129.568129 
z
" clip-path="url(#p303e7454b3)" style="fill: #44aa99; fill-opacity: 0.8; stroke: #ffffff; stroke-opacity: 0.8; stroke-width: 0.5"/>
    <path d="M 52.137481 127.797762 
L 51.169236 129.568129 
L 49.398869 130.536375 
L 51.169236 131.50462 
L 52.137481 133.274987 
L 53.105727 131.50462 
L 54.876094 130.536375 
L 53.105727 129.568129 
z
" clip-path="url(#p303e7454b3)" style="fill: #44aa99; fill-opacity: 0.8; stroke: #ffffff; stroke-opacity: 0.8; stroke-width: 0.5"/>
    <path d="M 52.557861 127.797762 
L 51.589616 129.568129 
L 49.819249 130.536375 
L 51.589616 131.50462 
L 52.557861 133.274987 
L 53.526107 131.50462 
L 55.296474 130.536375 
L 53.526107 129.568129 
z
" clip-path="url(#p303e7454b3)" style="fill: #44aa99; fill-opacity: 0.8; stroke: #ffffff; stroke-opacity: 0.8; stroke-width: 0.5"/>
    <path d="M 52.137481 133.171306 
L 54.876094 127.694081 
L 49.398869 127.694081 
z
" clip-path="url(#p303e7454b3)" style="fill: #88ccee; fill-opacity: 0.8; stroke: #ffffff; stroke-opacity: 0.8; stroke-width: 0.5"/>
    <path d="M 83.065439 122.474183 
C 83.791727 122.474183 84.488367 122.185625 85.00193 121.672062 
C 85.515494 121.158498 85.804051 120.461859 85.804051 119.73557 
C 85.804051 119.009281 85.515494 118.312642 85.00193 117.799078 
C 84.488367 117.285515 83.791727 116.996957 83.065439 116.996957 
C 82.33915 116.996957 81.64251 117.285515 81.128947 117.799078 
C 80.615383 118.312642 80.326826 119.009281 80.326826 119.73557 
C 80.326826 120.461859 80.615383 121.158498 81.128947 121.672062 
C 81.64251 122.185625 82.33915 122.474183 83.065439 122.474183 
z
" clip-path="url(#p303e7454b3)" style="fill: #882255; fill-opacity: 0.8; stroke: #ffffff; stroke-opacity: 0.8; stroke-width: 0.5"/>
    <path d="M 97.65863 116.727389 
C 98.384919 116.727389 99.081558 116.438832 99.595122 115.925268 
C 100.108685 115.411704 100.397243 114.715065 100.397243 113.988776 
C 100.397243 113.262488 100.108685 112.565848 99.595122 112.052285 
C 99.081558 111.538721 98.384919 111.250164 97.65863 111.250164 
C 96.932341 111.250164 96.235702 111.538721 95.722138 112.052285 
C 95.208575 112.565848 94.920017 113.262488 94.920017 113.988776 
C 94.920017 114.715065 95.208575 115.411704 95.722138 115.925268 
C 96.235702 116.438832 96.932341 116.727389 97.65863 116.727389 
z
" clip-path="url(#p303e7454b3)" style="fill: #882255; fill-opacity: 0.8; stroke: #ffffff; stroke-opacity: 0.8; stroke-width: 0.5"/>
    <path d="M 78.351177 127.445249 
C 79.077466 127.445249 79.774105 127.156691 80.287669 126.643128 
C 80.801232 126.129564 81.08979 125.432925 81.08979 124.706636 
C 81.08979 123.980348 80.801232 123.283708 80.287669 122.770145 
C 79.774105 122.256581 79.077466 121.968023 78.351177 121.968023 
C 77.624889 121.968023 76.928249 122.256581 76.414685 122.770145 
C 75.901122 123.283708 75.612564 123.980348 75.612564 124.706636 
C 75.612564 125.432925 75.901122 126.129564 76.414685 126.643128 
C 76.928249 127.156691 77.624889 127.445249 78.351177 127.445249 
z
" clip-path="url(#p303e7454b3)" style="fill: #882255; fill-opacity: 0.8; stroke: #ffffff; stroke-opacity: 0.8; stroke-width: 0.5"/>
    <path d="M 68.063809 129.102742 
L 69.433116 127.733436 
L 70.802422 129.102742 
L 72.171729 127.733436 
L 70.802422 126.36413 
L 72.171729 124.994823 
L 70.802422 123.625517 
L 69.433116 124.994823 
L 68.063809 123.625517 
L 66.694503 124.994823 
L 68.063809 126.36413 
L 66.694503 127.733436 
z
" clip-path="url(#p303e7454b3)" style="fill: #882255; fill-opacity: 0.8; stroke: #ffffff; stroke-opacity: 0.8; stroke-width: 0.5"/>
    <path d="M 93.016365 109.444221 
L 94.385671 108.074915 
L 95.754978 109.444221 
L 97.124284 108.074915 
L 95.754978 106.705608 
L 97.124284 105.336302 
L 95.754978 103.966996 
L 94.385671 105.336302 
L 93.016365 103.966996 
L 91.647059 105.336302 
L 93.016365 106.705608 
L 91.647059 108.074915 
z
" clip-path="url(#p303e7454b3)" style="fill: #882255; fill-opacity: 0.8; stroke: #ffffff; stroke-opacity: 0.8; stroke-width: 0.5"/>
    <path d="M 76.231192 127.176148 
L 77.600499 125.806841 
L 78.969805 127.176148 
L 80.339111 125.806841 
L 78.969805 124.437535 
L 80.339111 123.068229 
L 78.969805 121.698922 
L 77.600499 123.068229 
L 76.231192 121.698922 
L 74.861886 123.068229 
L 76.231192 124.437535 
L 74.861886 125.806841 
z
" clip-path="url(#p303e7454b3)" style="fill: #882255; fill-opacity: 0.8; stroke: #ffffff; stroke-opacity: 0.8; stroke-width: 0.5"/>
    <path d="M 55.578546 131.797053 
L 57.404288 131.797053 
L 57.404288 129.971311 
L 59.23003 129.971311 
L 59.23003 128.145569 
L 57.404288 128.145569 
L 57.404288 126.319827 
L 55.578546 126.319827 
L 55.578546 128.145569 
L 53.752804 128.145569 
L 53.752804 129.971311 
L 55.578546 129.971311 
z
" clip-path="url(#p303e7454b3)" style="fill: #cc6677; fill-opacity: 0.8; stroke: #ffffff; stroke-opacity: 0.8; stroke-width: 0.5"/>
    <path d="M 55.338329 131.729188 
L 57.164071 131.729188 
L 57.164071 129.903446 
L 58.989813 129.903446 
L 58.989813 128.077704 
L 57.164071 128.077704 
L 57.164071 126.251963 
L 55.338329 126.251963 
L 55.338329 128.077704 
L 53.512587 128.077704 
L 53.512587 129.903446 
L 55.338329 129.903446 
z
" clip-path="url(#p303e7454b3)" style="fill: #cc6677; fill-opacity: 0.8; stroke: #ffffff; stroke-opacity: 0.8; stroke-width: 0.5"/>
    <path d="M 55.368356 132.204239 
L 57.194098 132.204239 
L 57.194098 130.378497 
L 59.01984 130.378497 
L 59.01984 128.552755 
L 57.194098 128.552755 
L 57.194098 126.727013 
L 55.368356 126.727013 
L 55.368356 128.552755 
L 53.542614 128.552755 
L 53.542614 130.378497 
L 55.368356 130.378497 
z
" clip-path="url(#p303e7454b3)" style="fill: #cc6677; fill-opacity: 0.8; stroke: #ffffff; stroke-opacity: 0.8; stroke-width: 0.5"/>
    <path d="M 60.950707 122.690027 
L 60.950707 126.56301 
L 64.82369 126.56301 
L 64.82369 122.690027 
z
" clip-path="url(#p303e7454b3)" style="fill: #cc6677; fill-opacity: 0.8; stroke: #ffffff; stroke-opacity: 0.8; stroke-width: 0.5"/>
    <path d="M 55.786038 126.409843 
L 55.786038 130.282827 
L 59.659022 130.282827 
L 59.659022 126.409843 
z
" clip-path="url(#p303e7454b3)" style="fill: #cc6677; fill-opacity: 0.8; stroke: #ffffff; stroke-opacity: 0.8; stroke-width: 0.5"/>
    <path d="M 59.23916 125.237769 
L 59.23916 129.110752 
L 63.112143 129.110752 
L 63.112143 125.237769 
z
" clip-path="url(#p303e7454b3)" style="fill: #cc6677; fill-opacity: 0.8; stroke: #ffffff; stroke-opacity: 0.8; stroke-width: 0.5"/>
    <path d="M 51.987346 127.788808 
L 49.248733 130.527421 
L 51.987346 133.266034 
L 54.725959 130.527421 
z
" clip-path="url(#p303e7454b3)" style="fill: #44aa99; fill-opacity: 0.8; stroke: #ffffff; stroke-opacity: 0.8; stroke-width: 0.5"/>
    <path d="M 53.008269 127.699265 
L 50.269656 130.437878 
L 53.008269 133.17649 
L 55.746881 130.437878 
z
" clip-path="url(#p303e7454b3)" style="fill: #44aa99; fill-opacity: 0.8; stroke: #ffffff; stroke-opacity: 0.8; stroke-width: 0.5"/>
    <path d="M 82.615031 119.56161 
C 83.34132 119.56161 84.03796 119.273053 84.551523 118.759489 
C 85.065087 118.245926 85.353644 117.549286 85.353644 116.822998 
C 85.353644 116.096709 85.065087 115.400069 84.551523 114.886506 
C 84.03796 114.372942 83.34132 114.084385 82.615031 114.084385 
C 81.888743 114.084385 81.192103 114.372942 80.67854 114.886506 
C 80.164976 115.400069 79.876419 116.096709 79.876419 116.822998 
C 79.876419 117.549286 80.164976 118.245926 80.67854 118.759489 
C 81.192103 119.273053 81.888743 119.56161 82.615031 119.56161 
z
" clip-path="url(#p303e7454b3)" style="fill: #882255; fill-opacity: 0.8; stroke: #ffffff; stroke-opacity: 0.8; stroke-width: 0.5"/>
    <path d="M 53.710835 132.417444 
L 55.080141 131.048137 
L 56.449448 132.417444 
L 57.818754 131.048137 
L 56.449448 129.678831 
L 57.818754 128.309525 
L 56.449448 126.940218 
L 55.080141 128.309525 
L 53.710835 126.940218 
L 52.341529 128.309525 
L 53.710835 129.678831 
L 52.341529 131.048137 
z
" clip-path="url(#p303e7454b3)" style="fill: #882255; fill-opacity: 0.8; stroke: #ffffff; stroke-opacity: 0.8; stroke-width: 0.5"/>
    <path d="M 53.95708 132.271355 
L 55.782822 132.271355 
L 55.782822 130.445613 
L 57.608564 130.445613 
L 57.608564 128.619871 
L 55.782822 128.619871 
L 55.782822 126.794129 
L 53.95708 126.794129 
L 53.95708 128.619871 
L 52.131339 128.619871 
L 52.131339 130.445613 
L 53.95708 130.445613 
z
" clip-path="url(#p303e7454b3)" style="fill: #cc6677; fill-opacity: 0.8; stroke: #ffffff; stroke-opacity: 0.8; stroke-width: 0.5"/>
    <path d="M 55.515794 126.420188 
L 55.515794 130.293171 
L 59.388777 130.293171 
L 59.388777 126.420188 
z
" clip-path="url(#p303e7454b3)" style="fill: #cc6677; fill-opacity: 0.8; stroke: #ffffff; stroke-opacity: 0.8; stroke-width: 0.5"/>
    <path d="M 72.01545 123.252425 
C 72.741739 123.252425 73.438378 122.963868 73.951942 122.450304 
C 74.465505 121.936741 74.754063 121.240101 74.754063 120.513812 
C 74.754063 119.787524 74.465505 119.090884 73.951942 118.577321 
C 73.438378 118.063757 72.741739 117.7752 72.01545 117.7752 
C 71.289161 117.7752 70.592522 118.063757 70.078958 118.577321 
C 69.565395 119.090884 69.276837 119.787524 69.276837 120.513812 
C 69.276837 121.240101 69.565395 121.936741 70.078958 122.450304 
C 70.592522 122.963868 71.289161 123.252425 72.01545 123.252425 
z
" clip-path="url(#p303e7454b3)" style="fill: #882255; fill-opacity: 0.8; stroke: #ffffff; stroke-opacity: 0.8; stroke-width: 0.5"/>
    <path d="M 56.082979 133.166724 
L 57.452286 131.797418 
L 58.821592 133.166724 
L 60.190899 131.797418 
L 58.821592 130.428111 
L 60.190899 129.058805 
L 58.821592 127.689499 
L 57.452286 129.058805 
L 56.082979 127.689499 
L 54.713673 129.058805 
L 56.082979 130.428111 
L 54.713673 131.797418 
z
" clip-path="url(#p303e7454b3)" style="fill: #882255; fill-opacity: 0.8; stroke: #ffffff; stroke-opacity: 0.8; stroke-width: 0.5"/>
    <path d="M 53.806945 132.765209 
L 55.632687 132.765209 
L 55.632687 130.939467 
L 57.458429 130.939467 
L 57.458429 129.113725 
L 55.632687 129.113725 
L 55.632687 127.287984 
L 53.806945 127.287984 
L 53.806945 129.113725 
L 51.981203 129.113725 
L 51.981203 130.939467 
L 53.806945 130.939467 
z
" clip-path="url(#p303e7454b3)" style="fill: #cc6677; fill-opacity: 0.8; stroke: #ffffff; stroke-opacity: 0.8; stroke-width: 0.5"/>
    <path d="M 53.233731 127.74188 
L 53.233731 131.614863 
L 57.106715 131.614863 
L 57.106715 127.74188 
z
" clip-path="url(#p303e7454b3)" style="fill: #cc6677; fill-opacity: 0.8; stroke: #ffffff; stroke-opacity: 0.8; stroke-width: 0.5"/>
    <path d="M 75.558653 125.91051 
C 76.284941 125.91051 76.981581 125.621953 77.495145 125.108389 
C 78.008708 124.594826 78.297266 123.898186 78.297266 123.171898 
C 78.297266 122.445609 78.008708 121.748969 77.495145 121.235406 
C 76.981581 120.721842 76.284941 120.433285 75.558653 120.433285 
C 74.832364 120.433285 74.135725 120.721842 73.622161 121.235406 
C 73.108598 121.748969 72.82004 122.445609 72.82004 123.171898 
C 72.82004 123.898186 73.108598 124.594826 73.622161 125.108389 
C 74.135725 125.621953 74.832364 125.91051 75.558653 125.91051 
z
" clip-path="url(#p303e7454b3)" style="fill: #882255; fill-opacity: 0.8; stroke: #ffffff; stroke-opacity: 0.8; stroke-width: 0.5"/>
    <path d="M 54.827868 131.992499 
L 56.65361 131.992499 
L 56.65361 130.166757 
L 58.479351 130.166757 
L 58.479351 128.341016 
L 56.65361 128.341016 
L 56.65361 126.515274 
L 54.827868 126.515274 
L 54.827868 128.341016 
L 53.002126 128.341016 
L 53.002126 130.166757 
L 54.827868 130.166757 
z
" clip-path="url(#p303e7454b3)" style="fill: #cc6677; fill-opacity: 0.8; stroke: #ffffff; stroke-opacity: 0.8; stroke-width: 0.5"/>
    <path d="M 54.074491 127.847082 
L 54.074491 131.720066 
L 57.947475 131.720066 
L 57.947475 127.847082 
z
" clip-path="url(#p303e7454b3)" style="fill: #cc6677; fill-opacity: 0.8; stroke: #ffffff; stroke-opacity: 0.8; stroke-width: 0.5"/>
    <path d="M 52.317644 127.790567 
L 49.579031 130.529179 
L 52.317644 133.267792 
L 55.056257 130.529179 
z
" clip-path="url(#p303e7454b3)" style="fill: #44aa99; fill-opacity: 0.8; stroke: #ffffff; stroke-opacity: 0.8; stroke-width: 0.5"/>
    <path d="M 51.717101 133.302178 
L 54.455714 127.824953 
L 48.978489 127.824953 
z
" clip-path="url(#p303e7454b3)" style="fill: #88ccee; fill-opacity: 0.8; stroke: #ffffff; stroke-opacity: 0.8; stroke-width: 0.5"/>
    <path d="M 78.74153 124.908703 
C 79.467819 124.908703 80.164458 124.620145 80.678022 124.106582 
C 81.191585 123.593018 81.480143 122.896379 81.480143 122.17009 
C 81.480143 121.443802 81.191585 120.747162 80.678022 120.233598 
C 80.164458 119.720035 79.467819 119.431477 78.74153 119.431477 
C 78.015241 119.431477 77.318602 119.720035 76.805038 120.233598 
C 76.291475 120.747162 76.002917 121.443802 76.002917 122.17009 
C 76.002917 122.896379 76.291475 123.593018 76.805038 124.106582 
C 77.318602 124.620145 78.015241 124.908703 78.74153 124.908703 
z
" clip-path="url(#p303e7454b3)" style="fill: #882255; fill-opacity: 0.8; stroke: #ffffff; stroke-opacity: 0.8; stroke-width: 0.5"/>
    <path d="M 52.88816 127.845891 
L 50.149547 133.323117 
L 55.626773 133.323117 
z
" clip-path="url(#p303e7454b3)" style="fill: #332288; fill-opacity: 0.8; stroke: #ffffff; stroke-opacity: 0.8; stroke-width: 0.5"/>
    <path d="M 49.480338 128.654939 
L 50.047524 130.591431 
L 49.480338 132.527923 
L 51.41683 131.960737 
L 53.353322 132.527923 
L 52.786136 130.591431 
L 53.353322 128.654939 
L 51.41683 129.222125 
z
" clip-path="url(#p303e7454b3)" style="fill: #332288; fill-opacity: 0.8; stroke: #ffffff; stroke-opacity: 0.8; stroke-width: 0.5"/>
    <path d="M 52.990184 131.950896 
L 54.35949 130.581589 
L 55.728796 131.950896 
L 57.098103 130.581589 
L 55.728796 129.212283 
L 57.098103 127.842977 
L 55.728796 126.47367 
L 54.35949 127.842977 
L 52.990184 126.47367 
L 51.620877 127.842977 
L 52.990184 129.212283 
L 51.620877 130.581589 
z
" clip-path="url(#p303e7454b3)" style="fill: #882255; fill-opacity: 0.8; stroke: #ffffff; stroke-opacity: 0.8; stroke-width: 0.5"/>
    <path d="M 52.27556 132.75029 
L 54.101302 132.75029 
L 54.101302 130.924548 
L 55.927044 130.924548 
L 55.927044 129.098806 
L 54.101302 129.098806 
L 54.101302 127.273064 
L 52.27556 127.273064 
L 52.27556 129.098806 
L 50.449819 129.098806 
L 50.449819 130.924548 
L 52.27556 130.924548 
z
" clip-path="url(#p303e7454b3)" style="fill: #cc6677; fill-opacity: 0.8; stroke: #ffffff; stroke-opacity: 0.8; stroke-width: 0.5"/>
    <path d="M 55.725984 127.518151 
L 55.725984 131.391134 
L 59.598967 131.391134 
L 59.598967 127.518151 
z
" clip-path="url(#p303e7454b3)" style="fill: #cc6677; fill-opacity: 0.8; stroke: #ffffff; stroke-opacity: 0.8; stroke-width: 0.5"/>
    <path d="M 51.41683 127.843121 
L 48.678217 130.581734 
L 51.41683 133.320346 
L 54.155443 130.581734 
z
" clip-path="url(#p303e7454b3)" style="fill: #44aa99; fill-opacity: 0.8; stroke: #ffffff; stroke-opacity: 0.8; stroke-width: 0.5"/>
    <path d="M 51.41683 127.844269 
L 50.448584 129.614636 
L 48.678217 130.582881 
L 50.448584 131.551127 
L 51.41683 133.321494 
L 52.385076 131.551127 
L 54.155443 130.582881 
L 52.385076 129.614636 
z
" clip-path="url(#p303e7454b3)" style="fill: #44aa99; fill-opacity: 0.8; stroke: #ffffff; stroke-opacity: 0.8; stroke-width: 0.5"/>
    <path d="M 51.146586 133.330756 
L 53.885199 127.853531 
L 48.407973 127.853531 
z
" clip-path="url(#p303e7454b3)" style="fill: #88ccee; fill-opacity: 0.8; stroke: #ffffff; stroke-opacity: 0.8; stroke-width: 0.5"/>
    <path d="M 70.243849 129.05438 
C 70.970137 129.05438 71.666777 128.765823 72.18034 128.252259 
C 72.693904 127.738695 72.982461 127.042056 72.982461 126.315767 
C 72.982461 125.589479 72.693904 124.892839 72.18034 124.379276 
C 71.666777 123.865712 70.970137 123.577155 70.243849 123.577155 
C 69.51756 123.577155 68.82092 123.865712 68.307357 124.379276 
C 67.793793 124.892839 67.505236 125.589479 67.505236 126.315767 
C 67.505236 127.042056 67.793793 127.738695 68.307357 128.252259 
C 68.82092 128.765823 69.51756 129.05438 70.243849 129.05438 
z
" clip-path="url(#p303e7454b3)" style="fill: #882255; fill-opacity: 0.8; stroke: #ffffff; stroke-opacity: 0.8; stroke-width: 0.5"/>
    <path d="M 53.969137 127.849731 
L 51.230524 133.326957 
L 56.70775 133.326957 
z
" clip-path="url(#p303e7454b3)" style="fill: #332288; fill-opacity: 0.8; stroke: #ffffff; stroke-opacity: 0.8; stroke-width: 0.5"/>
    <path d="M 50.921641 128.649833 
L 51.488826 130.586325 
L 50.921641 132.522817 
L 52.858133 131.955631 
L 54.794625 132.522817 
L 54.227439 130.586325 
L 54.794625 128.649833 
L 52.858133 129.217019 
z
" clip-path="url(#p303e7454b3)" style="fill: #332288; fill-opacity: 0.8; stroke: #ffffff; stroke-opacity: 0.8; stroke-width: 0.5"/>
    <path d="M 74.129292 128.67392 
L 75.498599 127.304614 
L 76.867905 128.67392 
L 78.237211 127.304614 
L 76.867905 125.935307 
L 78.237211 124.566001 
L 76.867905 123.196694 
L 75.498599 124.566001 
L 74.129292 123.196694 
L 72.759986 124.566001 
L 74.129292 125.935307 
L 72.759986 127.304614 
z
" clip-path="url(#p303e7454b3)" style="fill: #882255; fill-opacity: 0.8; stroke: #ffffff; stroke-opacity: 0.8; stroke-width: 0.5"/>
    <path d="M 53.416592 132.985049 
L 55.242334 132.985049 
L 55.242334 131.159307 
L 57.068076 131.159307 
L 57.068076 129.333565 
L 55.242334 129.333565 
L 55.242334 127.507823 
L 53.416592 127.507823 
L 53.416592 129.333565 
L 51.59085 129.333565 
L 51.59085 131.159307 
L 53.416592 131.159307 
z
" clip-path="url(#p303e7454b3)" style="fill: #cc6677; fill-opacity: 0.8; stroke: #ffffff; stroke-opacity: 0.8; stroke-width: 0.5"/>
    <path d="M 52.693243 128.224448 
L 52.693243 132.097431 
L 56.566226 132.097431 
L 56.566226 128.224448 
z
" clip-path="url(#p303e7454b3)" style="fill: #cc6677; fill-opacity: 0.8; stroke: #ffffff; stroke-opacity: 0.8; stroke-width: 0.5"/>
    <path d="M 52.017373 127.846762 
L 49.27876 130.585375 
L 52.017373 133.323988 
L 54.755986 130.585375 
z
" clip-path="url(#p303e7454b3)" style="fill: #44aa99; fill-opacity: 0.8; stroke: #ffffff; stroke-opacity: 0.8; stroke-width: 0.5"/>
    <path d="M 51.987346 133.331311 
L 54.725959 127.854085 
L 49.248733 127.854085 
z
" clip-path="url(#p303e7454b3)" style="fill: #88ccee; fill-opacity: 0.8; stroke: #ffffff; stroke-opacity: 0.8; stroke-width: 0.5"/>
    <path d="M 77.150091 126.350509 
C 77.87638 126.350509 78.57302 126.061951 79.086583 125.548388 
C 79.600147 125.034824 79.888704 124.338185 79.888704 123.611896 
C 79.888704 122.885608 79.600147 122.188968 79.086583 121.675405 
C 78.57302 121.161841 77.87638 120.873283 77.150091 120.873283 
C 76.423803 120.873283 75.727163 121.161841 75.2136 121.675405 
C 74.700036 122.188968 74.411479 122.885608 74.411479 123.611896 
C 74.411479 124.338185 74.700036 125.034824 75.2136 125.548388 
C 75.727163 126.061951 76.423803 126.350509 77.150091 126.350509 
z
" clip-path="url(#p303e7454b3)" style="fill: #882255; fill-opacity: 0.8; stroke: #ffffff; stroke-opacity: 0.8; stroke-width: 0.5"/>
    <path d="M 53.338567 127.852185 
L 50.599954 133.329411 
L 56.07718 133.329411 
z
" clip-path="url(#p303e7454b3)" style="fill: #332288; fill-opacity: 0.8; stroke: #ffffff; stroke-opacity: 0.8; stroke-width: 0.5"/>
    <path d="M 49.210094 128.646944 
L 49.777279 130.583436 
L 49.210094 132.519927 
L 51.146586 131.952742 
L 53.083077 132.519927 
L 52.515892 130.583436 
L 53.083077 128.646944 
L 51.146586 129.214129 
z
" clip-path="url(#p303e7454b3)" style="fill: #332288; fill-opacity: 0.8; stroke: #ffffff; stroke-opacity: 0.8; stroke-width: 0.5"/>
    <path d="M 60.256752 131.063789 
L 61.626059 129.694483 
L 62.995365 131.063789 
L 64.364671 129.694483 
L 62.995365 128.325176 
L 64.364671 126.95587 
L 62.995365 125.586563 
L 61.626059 126.95587 
L 60.256752 125.586563 
L 58.887446 126.95587 
L 60.256752 128.325176 
L 58.887446 129.694483 
z
" clip-path="url(#p303e7454b3)" style="fill: #882255; fill-opacity: 0.8; stroke: #ffffff; stroke-opacity: 0.8; stroke-width: 0.5"/>
    <path d="M 52.545805 133.08998 
L 54.371547 133.08998 
L 54.371547 131.264239 
L 56.197289 131.264239 
L 56.197289 129.438497 
L 54.371547 129.438497 
L 54.371547 127.612755 
L 52.545805 127.612755 
L 52.545805 129.438497 
L 50.720063 129.438497 
L 50.720063 131.264239 
L 52.545805 131.264239 
z
" clip-path="url(#p303e7454b3)" style="fill: #cc6677; fill-opacity: 0.8; stroke: #ffffff; stroke-opacity: 0.8; stroke-width: 0.5"/>
    <path d="M 53.56403 128.093116 
L 53.56403 131.966099 
L 57.437013 131.966099 
L 57.437013 128.093116 
z
" clip-path="url(#p303e7454b3)" style="fill: #cc6677; fill-opacity: 0.8; stroke: #ffffff; stroke-opacity: 0.8; stroke-width: 0.5"/>
    <path d="M 52.587889 127.828396 
L 49.849276 130.567009 
L 52.587889 133.305622 
L 55.326501 130.567009 
z
" clip-path="url(#p303e7454b3)" style="fill: #44aa99; fill-opacity: 0.8; stroke: #ffffff; stroke-opacity: 0.8; stroke-width: 0.5"/>
    <path d="M 51.687074 133.334405 
L 54.425687 127.857179 
L 48.948461 127.857179 
z
" clip-path="url(#p303e7454b3)" style="fill: #88ccee; fill-opacity: 0.8; stroke: #ffffff; stroke-opacity: 0.8; stroke-width: 0.5"/>
    <path d="M 53.758947 130.16493 
C 54.485236 130.16493 55.181875 129.876372 55.695439 129.362809 
C 56.209002 128.849245 56.49756 128.152606 56.49756 127.426317 
C 56.49756 126.700028 56.209002 126.003389 55.695439 125.489825 
C 55.181875 124.976262 54.485236 124.687704 53.758947 124.687704 
C 53.032659 124.687704 52.336019 124.976262 51.822455 125.489825 
C 51.308892 126.003389 51.020334 126.700028 51.020334 127.426317 
C 51.020334 128.152606 51.308892 128.849245 51.822455 129.362809 
C 52.336019 129.876372 53.032659 130.16493 53.758947 130.16493 
z
" clip-path="url(#p303e7454b3)" style="fill: #882255; fill-opacity: 0.8; stroke: #ffffff; stroke-opacity: 0.8; stroke-width: 0.5"/>
    <path d="M 53.398621 127.85088 
L 50.660009 133.328105 
L 56.137234 133.328105 
z
" clip-path="url(#p303e7454b3)" style="fill: #332288; fill-opacity: 0.8; stroke: #ffffff; stroke-opacity: 0.8; stroke-width: 0.5"/>
    <path d="M 48.489443 128.54385 
L 49.056628 130.480342 
L 48.489443 132.416834 
L 50.425934 131.849648 
L 52.362426 132.416834 
L 51.795241 130.480342 
L 52.362426 128.54385 
L 50.425934 129.111036 
z
" clip-path="url(#p303e7454b3)" style="fill: #332288; fill-opacity: 0.8; stroke: #ffffff; stroke-opacity: 0.8; stroke-width: 0.5"/>
    <path d="M 50.047524 133.239449 
L 51.41683 131.870143 
L 52.786136 133.239449 
L 54.155443 131.870143 
L 52.786136 130.500836 
L 54.155443 129.13153 
L 52.786136 127.762224 
L 51.41683 129.13153 
L 50.047524 127.762224 
L 48.678217 129.13153 
L 50.047524 130.500836 
L 48.678217 131.870143 
z
" clip-path="url(#p303e7454b3)" style="fill: #882255; fill-opacity: 0.8; stroke: #ffffff; stroke-opacity: 0.8; stroke-width: 0.5"/>
    <path d="M 52.786022 133.262568 
L 54.611764 133.262568 
L 54.611764 131.436826 
L 56.437506 131.436826 
L 56.437506 129.611084 
L 54.611764 129.611084 
L 54.611764 127.785343 
L 52.786022 127.785343 
L 52.786022 129.611084 
L 50.96028 129.611084 
L 50.96028 131.436826 
L 52.786022 131.436826 
z
" clip-path="url(#p303e7454b3)" style="fill: #cc6677; fill-opacity: 0.8; stroke: #ffffff; stroke-opacity: 0.8; stroke-width: 0.5"/>
    <path d="M 51.011723 127.821798 
L 51.011723 131.694781 
L 54.884706 131.694781 
L 54.884706 127.821798 
z
" clip-path="url(#p303e7454b3)" style="fill: #cc6677; fill-opacity: 0.8; stroke: #ffffff; stroke-opacity: 0.8; stroke-width: 0.5"/>
    <path d="M 51.566966 127.84746 
L 48.828353 130.586072 
L 51.566966 133.324685 
L 54.305579 130.586072 
z
" clip-path="url(#p303e7454b3)" style="fill: #44aa99; fill-opacity: 0.8; stroke: #ffffff; stroke-opacity: 0.8; stroke-width: 0.5"/>
    <path d="M 52.828106 127.857958 
L 51.85986 129.628325 
L 50.089493 130.596571 
L 51.85986 131.564817 
L 52.828106 133.335183 
L 53.796352 131.564817 
L 55.566719 130.596571 
L 53.796352 129.628325 
z
" clip-path="url(#p303e7454b3)" style="fill: #44aa99; fill-opacity: 0.8; stroke: #ffffff; stroke-opacity: 0.8; stroke-width: 0.5"/>
    <path d="M 51.266694 133.33523 
L 54.005307 127.858005 
L 48.528081 127.858005 
z
" clip-path="url(#p303e7454b3)" style="fill: #88ccee; fill-opacity: 0.8; stroke: #ffffff; stroke-opacity: 0.8; stroke-width: 0.5"/>
    <path d="M 52.828106 133.088821 
C 53.554394 133.088821 54.251034 132.800263 54.764597 132.286699 
C 55.278161 131.773136 55.566719 131.076496 55.566719 130.350208 
C 55.566719 129.623919 55.278161 128.92728 54.764597 128.413716 
C 54.251034 127.900152 53.554394 127.611595 52.828106 127.611595 
C 52.101817 127.611595 51.405178 127.900152 50.891614 128.413716 
C 50.37805 128.92728 50.089493 129.623919 50.089493 130.350208 
C 50.089493 131.076496 50.37805 131.773136 50.891614 132.286699 
C 51.405178 132.800263 52.101817 133.088821 52.828106 133.088821 
z
" clip-path="url(#p303e7454b3)" style="fill: #882255; fill-opacity: 0.8; stroke: #ffffff; stroke-opacity: 0.8; stroke-width: 0.5"/>
    <path d="M 52.978241 127.854776 
L 50.239629 133.332002 
L 55.716854 133.332002 
z
" clip-path="url(#p303e7454b3)" style="fill: #332288; fill-opacity: 0.8; stroke: #ffffff; stroke-opacity: 0.8; stroke-width: 0.5"/>
    <path d="M 50.170963 128.644591 
L 50.738148 130.581083 
L 50.170963 132.517575 
L 52.107454 131.950389 
L 54.043946 132.517575 
L 53.476761 130.581083 
L 54.043946 128.644591 
L 52.107454 129.211776 
z
" clip-path="url(#p303e7454b3)" style="fill: #332288; fill-opacity: 0.8; stroke: #ffffff; stroke-opacity: 0.8; stroke-width: 0.5"/>
    <path d="M 51.188555 133.283284 
L 52.557861 131.913977 
L 53.927168 133.283284 
L 55.296474 131.913977 
L 53.927168 130.544671 
L 55.296474 129.175365 
L 53.927168 127.806058 
L 52.557861 129.175365 
L 51.188555 127.806058 
L 49.819249 129.175365 
L 51.188555 130.544671 
L 49.819249 131.913977 
z
" clip-path="url(#p303e7454b3)" style="fill: #882255; fill-opacity: 0.8; stroke: #ffffff; stroke-opacity: 0.8; stroke-width: 0.5"/>
    <path d="M 53.176375 132.708482 
L 55.002117 132.708482 
L 55.002117 130.88274 
L 56.827859 130.88274 
L 56.827859 129.056999 
L 55.002117 129.056999 
L 55.002117 127.231257 
L 53.176375 127.231257 
L 53.176375 129.056999 
L 51.350633 129.056999 
L 51.350633 130.88274 
L 53.176375 130.88274 
z
" clip-path="url(#p303e7454b3)" style="fill: #cc6677; fill-opacity: 0.8; stroke: #ffffff; stroke-opacity: 0.8; stroke-width: 0.5"/>
    <path d="M 51.342021 128.462757 
L 51.342021 132.335741 
L 55.215005 132.335741 
L 55.215005 128.462757 
z
" clip-path="url(#p303e7454b3)" style="fill: #cc6677; fill-opacity: 0.8; stroke: #ffffff; stroke-opacity: 0.8; stroke-width: 0.5"/>
    <path d="M 52.527834 127.853381 
L 49.789221 130.591994 
L 52.527834 133.330606 
L 55.266447 130.591994 
z
" clip-path="url(#p303e7454b3)" style="fill: #44aa99; fill-opacity: 0.8; stroke: #ffffff; stroke-opacity: 0.8; stroke-width: 0.5"/>
    <path d="M 50.546043 133.33475 
L 53.284656 127.857524 
L 47.80743 127.857524 
z
" clip-path="url(#p303e7454b3)" style="fill: #88ccee; fill-opacity: 0.8; stroke: #ffffff; stroke-opacity: 0.8; stroke-width: 0.5"/>
    <path d="M 53.128377 132.314745 
C 53.854666 132.314745 54.551305 132.026187 55.064869 131.512624 
C 55.578432 130.99906 55.86699 130.302421 55.86699 129.576132 
C 55.86699 128.849844 55.578432 128.153204 55.064869 127.63964 
C 54.551305 127.126077 53.854666 126.837519 53.128377 126.837519 
C 52.402089 126.837519 51.705449 127.126077 51.191885 127.63964 
C 50.678322 128.153204 50.389764 128.849844 50.389764 129.576132 
C 50.389764 130.302421 50.678322 130.99906 51.191885 131.512624 
C 51.705449 132.026187 52.402089 132.314745 53.128377 132.314745 
z
" clip-path="url(#p303e7454b3)" style="fill: #882255; fill-opacity: 0.8; stroke: #ffffff; stroke-opacity: 0.8; stroke-width: 0.5"/>
    <path d="M 54.539653 127.853275 
L 51.80104 133.3305 
L 57.278266 133.3305 
z
" clip-path="url(#p303e7454b3)" style="fill: #332288; fill-opacity: 0.8; stroke: #ffffff; stroke-opacity: 0.8; stroke-width: 0.5"/>
    <path d="M 49.180067 128.657578 
L 49.747252 130.594069 
L 49.180067 132.530561 
L 51.116559 131.963376 
L 53.05305 132.530561 
L 52.485865 130.594069 
L 53.05305 128.657578 
L 51.116559 129.224763 
z
" clip-path="url(#p303e7454b3)" style="fill: #332288; fill-opacity: 0.8; stroke: #ffffff; stroke-opacity: 0.8; stroke-width: 0.5"/>
    <path d="M 51.158528 133.290277 
L 52.527834 131.920971 
L 53.897141 133.290277 
L 55.266447 131.920971 
L 53.897141 130.551664 
L 55.266447 129.182358 
L 53.897141 127.813051 
L 52.527834 129.182358 
L 51.158528 127.813051 
L 49.789221 129.182358 
L 51.158528 130.551664 
L 49.789221 131.920971 
z
" clip-path="url(#p303e7454b3)" style="fill: #882255; fill-opacity: 0.8; stroke: #ffffff; stroke-opacity: 0.8; stroke-width: 0.5"/>
    <path d="M 53.056266 132.76344 
L 54.882008 132.76344 
L 54.882008 130.937699 
L 56.70775 130.937699 
L 56.70775 129.111957 
L 54.882008 129.111957 
L 54.882008 127.286215 
L 53.056266 127.286215 
L 53.056266 129.111957 
L 51.230524 129.111957 
L 51.230524 130.937699 
L 53.056266 130.937699 
z
" clip-path="url(#p303e7454b3)" style="fill: #cc6677; fill-opacity: 0.8; stroke: #ffffff; stroke-opacity: 0.8; stroke-width: 0.5"/>
    <path d="M 50.891614 128.567982 
L 50.891614 132.440965 
L 54.764597 132.440965 
L 54.764597 128.567982 
z
" clip-path="url(#p303e7454b3)" style="fill: #cc6677; fill-opacity: 0.8; stroke: #ffffff; stroke-opacity: 0.8; stroke-width: 0.5"/>
    <path d="M 51.83721 127.849774 
L 49.098597 130.588387 
L 51.83721 133.326999 
L 54.575823 130.588387 
z
" clip-path="url(#p303e7454b3)" style="fill: #44aa99; fill-opacity: 0.8; stroke: #ffffff; stroke-opacity: 0.8; stroke-width: 0.5"/>
   </g>
   <g id="PolyCollection_1">
    <path d="M 51.146586 130.317183 
L 51.146586 130.317183 
L 51.266694 130.24252 
L 51.41683 130.149191 
L 51.41683 130.149191 
L 51.41683 130.149191 
L 51.266694 130.24252 
L 51.146586 130.317183 
z
" clip-path="url(#p303e7454b3)" style="fill-opacity: 0.2; stroke: #000000; stroke-opacity: 0.2; stroke-width: 0.8"/>
    <path d="M 51.687074 129.981199 
L 51.687074 129.981199 
L 51.687074 129.981199 
L 51.687074 129.981199 
z
" clip-path="url(#p303e7454b3)" style="fill-opacity: 0.2; stroke: #000000; stroke-opacity: 0.2; stroke-width: 0.8"/>
    <path d="M 51.83721 129.88787 
L 51.83721 129.88787 
L 51.83721 129.88787 
L 51.83721 129.88787 
z
" clip-path="url(#p303e7454b3)" style="fill-opacity: 0.2; stroke: #000000; stroke-opacity: 0.2; stroke-width: 0.8"/>
    <path d="M 51.987346 129.794541 
L 51.987346 129.794541 
L 52.017373 129.775875 
L 52.017373 129.775875 
L 52.017373 129.775875 
L 51.987346 129.794541 
z
" clip-path="url(#p303e7454b3)" style="fill-opacity: 0.2; stroke: #000000; stroke-opacity: 0.2; stroke-width: 0.8"/>
    <path d="M 52.137481 129.701212 
L 52.137481 129.701212 
L 52.137481 129.701212 
L 52.137481 129.701212 
z
" clip-path="url(#p303e7454b3)" style="fill-opacity: 0.2; stroke: #000000; stroke-opacity: 0.2; stroke-width: 0.8"/>
    <path d="M 52.527834 129.458556 
L 52.527834 129.458556 
L 52.557861 129.43989 
L 52.587889 129.421224 
L 52.587889 129.421224 
L 52.587889 129.421224 
L 52.557861 129.43989 
L 52.527834 129.458556 
z
" clip-path="url(#p303e7454b3)" style="fill-opacity: 0.2; stroke: #000000; stroke-opacity: 0.2; stroke-width: 0.8"/>
    <path d="M 52.828106 129.271898 
L 52.828106 129.271898 
L 52.858133 129.253232 
L 52.858133 129.253232 
L 52.858133 129.253232 
L 52.828106 129.271898 
z
" clip-path="url(#p303e7454b3)" style="fill-opacity: 0.2; stroke: #000000; stroke-opacity: 0.2; stroke-width: 0.8"/>
    <path d="M 53.128377 129.08524 
L 53.128377 129.08524 
L 53.128377 129.08524 
L 53.128377 129.08524 
z
" clip-path="url(#p303e7454b3)" style="fill-opacity: 0.2; stroke: #000000; stroke-opacity: 0.2; stroke-width: 0.8"/>
    <path d="M 53.698893 128.730589 
L 53.698893 128.730589 
L 53.698893 128.730589 
L 53.698893 128.730589 
z
" clip-path="url(#p303e7454b3)" style="fill-opacity: 0.2; stroke: #000000; stroke-opacity: 0.2; stroke-width: 0.8"/>
    <path d="M 53.879056 128.618595 
L 53.879056 128.618595 
L 53.969137 128.562597 
L 53.969137 128.562597 
L 53.969137 128.562597 
L 53.879056 128.618595 
z
" clip-path="url(#p303e7454b3)" style="fill-opacity: 0.2; stroke: #000000; stroke-opacity: 0.2; stroke-width: 0.8"/>
    <path d="M 55.350386 127.70397 
L 55.350386 127.70397 
L 55.350386 127.70397 
L 55.350386 127.70397 
z
" clip-path="url(#p303e7454b3)" style="fill-opacity: 0.2; stroke: #000000; stroke-opacity: 0.2; stroke-width: 0.8"/>
    <path d="M 55.530549 127.591975 
L 55.530549 127.591975 
L 55.530549 127.591975 
L 55.530549 127.591975 
z
" clip-path="url(#p303e7454b3)" style="fill-opacity: 0.2; stroke: #000000; stroke-opacity: 0.2; stroke-width: 0.8"/>
    <path d="M 57.452286 126.397363 
L 57.452286 126.397363 
L 57.452286 126.397363 
L 57.452286 126.397363 
z
" clip-path="url(#p303e7454b3)" style="fill-opacity: 0.2; stroke: #000000; stroke-opacity: 0.2; stroke-width: 0.8"/>
   </g>
   <g id="line2d_1">
    <path d="M 50.425934 130.765163 
L 156.09145 65.080175 
L 156.09145 65.080175 
" clip-path="url(#p303e7454b3)" style="fill: none; stroke-dasharray: 6,6; stroke-dashoffset: 0; stroke: #000000; stroke-width: 1.2"/>
   </g>
   <g id="patch_3">
    <path d="M 44.69075 134.150625 
L 44.69075 16.886625 
" style="fill: none; stroke: #262626; stroke-linejoin: miter; stroke-linecap: square"/>
   </g>
   <g id="patch_4">
    <path d="M 44.69075 134.150625 
L 170.80475 134.150625 
" style="fill: none; stroke: #262626; stroke-linejoin: miter; stroke-linecap: square"/>
   </g>
  </g>
 </g>
 <defs>
  <clipPath id="p303e7454b3">
   <rect x="44.69075" y="16.886625" width="126.114" height="117.264"/>
  </clipPath>
 </defs>
</svg>
