<?xml version="1.0" encoding="utf-8" standalone="no"?>
<!DOCTYPE svg PUBLIC "-//W3C//DTD SVG 1.1//EN"
  "http://www.w3.org/Graphics/SVG/1.1/DTD/svg11.dtd">
<svg xmlns:xlink="http://www.w3.org/1999/xlink" width="315.46125pt" height="857.175375pt" viewBox="0 0 315.46125 857.175375" xmlns="http://www.w3.org/2000/svg" version="1.1">
 <metadata>
  <rdf:RDF xmlns:dc="http://purl.org/dc/elements/1.1/" xmlns:cc="http://creativecommons.org/ns#" xmlns:rdf="http://www.w3.org/1999/02/22-rdf-syntax-ns#">
   <cc:Work>
    <dc:type rdf:resource="http://purl.org/dc/dcmitype/StillImage"/>
    <dc:date>2024-11-25T11:07:36.397268</dc:date>
    <dc:format>image/svg+xml</dc:format>
    <dc:creator>
     <cc:Agent>
      <dc:title>Matplotlib v3.8.0, https://matplotlib.org/</dc:title>
     </cc:Agent>
    </dc:creator>
   </cc:Work>
  </rdf:RDF>
 </metadata>
 <defs>
  <style type="text/css">*{stroke-linejoin: round; stroke-linecap: butt}</style>
 </defs>
 <g id="figure_1">
  <g id="patch_1">
   <path d="M 0 857.175375 
L 315.46125 857.175375 
L 315.46125 0 
L 0 0 
L 0 857.175375 
z
" style="fill: none"/>
  </g>
  <g id="axes_1">
   <g id="patch_2">
    <path d="M 47.2035 199.117359 
L 308.26125 199.117359 
L 308.26125 19.0715 
L 47.2035 19.0715 
L 47.2035 199.117359 
z
" style="fill: none"/>
   </g>
   <g id="matplotlib.axis_1">
    <g id="xtick_1"/>
    <g id="xtick_2"/>
    <g id="xtick_3"/>
   </g>
   <g id="matplotlib.axis_2">
    <g id="ytick_1">
     <g id="text_1">
      <!-- $\mathdefault{10^{-1}}$ -->
      <g style="fill: #262626" transform="translate(20.9795 165.46499)">
       <text>
        <tspan style="font: 8.8px 'Arial'" x="0 4.892395" y="-0.4372624999999992">10</tspan>
        <tspan style="font: 6.16px 'Arial'" x="9.938116 13.534183" y="-6.570312499999999">−1</tspan>
       </text>
      </g>
     </g>
    </g>
    <g id="ytick_2">
     <g id="text_2">
      <!-- $\mathdefault{10^{0}}$ -->
      <g style="fill: #262626" transform="translate(24.5875 94.099745)">
       <text>
        <tspan style="font: 8.8px 'Arial'" x="0 4.892395" y="-0.4372624999999992">10</tspan>
        <tspan style="font: 6.16px 'Arial'" x="9.938116" y="-6.570312499999999">0</tspan>
       </text>
      </g>
     </g>
    </g>
    <g id="ytick_3">
     <g id="text_3">
      <!-- $\mathdefault{10^{1}}$ -->
      <g style="fill: #262626" transform="translate(24.5875 22.7345)">
       <text>
        <tspan style="font: 8.8px 'Arial'" x="0 4.892395" y="-0.4372624999999992">10</tspan>
        <tspan style="font: 6.16px 'Arial'" x="9.938116" y="-6.570312499999999">1</tspan>
       </text>
      </g>
     </g>
    </g>
    <g id="ytick_4"/>
    <g id="ytick_5"/>
    <g id="ytick_6"/>
    <g id="ytick_7"/>
    <g id="ytick_8"/>
    <g id="ytick_9"/>
    <g id="ytick_10"/>
    <g id="ytick_11"/>
    <g id="ytick_12"/>
    <g id="ytick_13"/>
    <g id="ytick_14"/>
    <g id="ytick_15"/>
    <g id="ytick_16"/>
    <g id="ytick_17"/>
    <g id="ytick_18"/>
    <g id="ytick_19"/>
    <g id="ytick_20"/>
    <g id="ytick_21"/>
    <g id="ytick_22"/>
    <g id="ytick_23"/>
    <g id="ytick_24"/>
    <g id="ytick_25"/>
    <g id="ytick_26"/>
    <g id="text_4">
     <text style="fill: #262626; font: 9.6px 'Arial', 'DejaVu Sans', 'Liberation Sans', 'Bitstream Vera Sans', sans-serif; text-anchor: middle" x="14.0715" y="109.09443" transform="rotate(-90 14.0715 109.09443)">Fluorescence</text>
    </g>
   </g>
   <g id="line2d_1">
    <path d="M 47.2035 177.121979 
L 49.221 165.763997 
L 51.239795 155.893991 
L 52.32624 142.072225 
L 54.203888 130.448904 
L 55.970171 129.341875 
L 57.869833 139.705157 
L 59.756545 156.935889 
L 59.756545 146.281195 
L 59.756545 145.538799 
L 62.091302 190.201076 
L 63.880895 157.470273 
L 65.376538 172.856606 
L 65.376538 163.719727 
L 65.376538 153.197202 
L 67.406987 164.725011 
L 67.406987 162.113485 
L 67.406987 155.385889 
L 69.054137 159.416695 
L 69.054137 156.935889 
L 69.054137 151.373527 
L 71.128614 156.672113 
L 71.128614 156.410562 
L 71.128614 152.963287 
L 72.742096 160.586401 
L 72.742096 158.014034 
L 72.742096 146.281195 
L 77.301542 156.410562 
L 78.394462 174.214204 
L 78.394462 171.983491 
L 78.394462 159.416695 
L 80.259161 169.107857 
L 80.259161 165.067484 
L 80.259161 162.113485 
L 82.09537 190.201076 
L 82.09537 177.121979 
L 82.09537 165.413784 
L 83.958774 187.959603 
L 83.958774 177.121979 
L 83.958774 160.586401 
L 85.94908 172.416974 
L 85.94908 163.39175 
L 85.94908 162.746028 
L 88.004133 176.618008 
L 88.004133 174.680281 
L 88.004133 160.885858 
L 91.767197 170.718273 
L 91.767197 168.717996 
L 91.767197 165.067484 
L 95.190991 179.22404 
L 95.190991 163.39175 
L 95.190991 161.80199 
L 97.078998 187.959603 
L 97.078998 179.22404 
L 97.078998 166.839025 
L 99.140525 184.550287 
L 99.140525 174.680281 
L 99.140525 166.476524 
L 102.741723 166.839025 
L 105.151587 190.201076 
L 106.534571 190.201076 
L 106.534571 190.201076 
L 106.534571 190.201076 
L 108.326754 190.201076 
L 108.326754 190.201076 
L 108.326754 167.577001 
L 110.111166 190.201076 
L 110.111166 190.201076 
L 110.111166 190.201076 
L 112.040611 190.201076 
L 112.040611 182.069481 
L 112.040611 172.416974 
L 116.016044 190.201076 
L 117.668374 190.201076 
L 117.668374 182.069481 
L 117.668374 179.22404 
L 121.620498 190.201076 
L 121.620498 190.201076 
L 121.620498 172.416974 
L 123.366063 172.416974 
L 125.212632 187.959603 
L 130.665579 190.201076 
L 134.461017 190.201076 
L 136.557508 190.201076 
L 138.220197 190.201076 
L 140.266185 190.201076 
L 143.765084 190.201076 
L 146.03639 180.899775 
L 149.377308 190.201076 
L 156.917681 190.201076 
L 158.920937 190.201076 
L 164.478773 190.201076 
L 169.623528 190.201076 
L 172.125331 190.201076 
L 173.973195 190.201076 
L 177.36332 190.201076 
L 182.906913 190.201076 
L 184.759956 190.201076 
L 190.672604 190.201076 
L 195.997353 190.201076 
L 198.036867 190.201076 
L 200.031058 190.201076 
L 204.246053 190.201076 
L 209.231531 188.688896 
L 210.913644 190.201076 
L 212.692877 190.201076 
L 216.891037 190.201076 
L 222.088884 190.201076 
L 224.195734 190.201076 
L 227.771034 190.201076 
L 229.94004 190.201076 
L 235.056306 190.201076 
L 248.058691 190.201076 
L 254.080113 190.201076 
L 263.221019 184.550287 
L 268.708929 190.201076 
L 274.282305 190.201076 
L 287.315768 190.201076 
" clip-path="url(#pd99b20560d)" style="fill: none; stroke: #44aa99; stroke-width: 3; stroke-linecap: round"/>
   </g>
   <g id="line2d_2">
    <path d="M 47.2035 172.856606 
L 49.221 190.201076 
L 51.239795 149.442509 
L 52.32624 135.585544 
L 54.203888 134.927483 
L 55.970171 142.735214 
L 57.869833 155.385889 
L 59.756545 172.416974 
L 59.756545 168.717996 
L 59.756545 158.289533 
L 62.091302 184.550287 
L 63.880895 153.909728 
L 65.376538 168.717996 
L 65.376538 163.067207 
L 65.376538 159.705009 
L 67.406987 171.983491 
L 67.406987 154.394012 
L 67.406987 154.150924 
L 69.054137 159.705009 
L 69.054137 159.131039 
L 69.054137 150.716395 
L 71.128614 172.856606 
L 71.128614 172.856606 
L 71.128614 163.39175 
L 72.742096 165.067484 
L 72.742096 153.909728 
L 72.742096 150.285923 
L 77.301542 159.131039 
L 78.394462 172.416974 
L 78.394462 166.839025 
L 78.394462 166.839025 
L 80.259161 182.069481 
L 80.259161 174.214204 
L 80.259161 172.416974 
L 82.09537 182.069481 
L 82.09537 168.717996 
L 82.09537 165.067484 
L 83.958774 178.685009 
L 83.958774 174.680281 
L 83.958774 161.493594 
L 85.94908 190.201076 
L 85.94908 184.550287 
L 85.94908 182.069481 
L 88.004133 181.47911 
L 88.004133 174.680281 
L 88.004133 165.067484 
L 91.767197 177.121979 
L 91.767197 171.983491 
L 91.767197 159.416695 
L 95.190991 190.201076 
L 95.190991 190.201076 
L 95.190991 172.416974 
L 97.078998 190.201076 
L 97.078998 190.201076 
L 97.078998 184.550287 
L 99.140525 190.201076 
L 99.140525 179.22404 
L 99.140525 174.214204 
L 102.741723 165.067484 
L 105.151587 190.201076 
L 106.534571 190.201076 
L 106.534571 190.201076 
L 106.534571 185.202806 
L 108.326754 181.47911 
L 108.326754 178.685009 
L 108.326754 176.618008 
L 110.111166 190.201076 
L 110.111166 190.201076 
L 110.111166 190.201076 
L 112.040611 190.201076 
L 112.040611 190.201076 
L 112.040611 190.201076 
L 116.016044 190.201076 
L 117.668374 190.201076 
L 117.668374 190.201076 
L 117.668374 190.201076 
L 121.620498 190.201076 
L 121.620498 190.201076 
L 121.620498 182.069481 
L 123.366063 190.201076 
L 125.212632 190.201076 
L 130.665579 190.201076 
L 134.461017 190.201076 
L 136.557508 190.201076 
L 138.220197 190.201076 
L 140.266185 190.201076 
L 143.765084 190.201076 
L 146.03639 181.47911 
L 149.377308 190.201076 
L 156.917681 190.201076 
L 158.920937 190.201076 
L 164.478773 190.201076 
L 169.623528 190.201076 
L 172.125331 190.201076 
L 173.973195 190.201076 
L 177.36332 190.201076 
L 182.906913 190.201076 
L 184.759956 190.201076 
L 190.672604 182.069481 
L 195.997353 190.201076 
L 198.036867 187.247077 
L 200.031058 187.247077 
L 204.246053 184.550287 
L 209.231531 190.201076 
L 210.913644 190.201076 
L 212.692877 190.201076 
L 216.891037 183.911222 
L 222.088884 190.201076 
L 224.195734 190.201076 
L 227.771034 190.201076 
L 229.94004 190.201076 
L 235.056306 190.201076 
L 248.058691 190.201076 
L 254.080113 187.959603 
L 263.221019 190.201076 
L 268.708929 190.201076 
L 274.282305 180.899775 
L 287.315768 177.121979 
" clip-path="url(#pd99b20560d)" style="fill: none; stroke: #44aa99; stroke-width: 3; stroke-linecap: round"/>
   </g>
   <g id="line2d_3">
    <path d="M 47.2035 159.416695 
L 49.221 172.856606 
L 51.239795 152.271953 
L 52.32624 131.949816 
L 54.203888 122.797839 
L 55.970171 101.535669 
L 57.869833 93.088486 
L 59.756545 86.430139 
L 59.756545 84.708569 
L 59.756545 84.375439 
L 62.091302 114.706908 
L 63.880895 125.751838 
L 65.376538 129.233316 
L 65.376538 124.424695 
L 65.376538 122.101326 
L 67.406987 130.224313 
L 67.406987 128.802843 
L 67.406987 124.986527 
L 69.054137 133.155942 
L 69.054137 130.224313 
L 69.054137 130.224313 
L 71.128614 138.659493 
L 71.128614 136.122242 
L 71.128614 135.057982 
L 72.742096 141.745975 
L 72.742096 139.85746 
L 72.742096 132.187315 
L 77.301542 137.647959 
L 78.394462 142.236648 
L 78.394462 141.423122 
L 78.394462 140.010514 
L 80.259161 147.234917 
L 80.259161 145.907774 
L 80.259161 145.355946 
L 82.09537 143.241931 
L 82.09537 139.705157 
L 82.09537 137.506112 
L 83.958774 144.45752 
L 83.958774 143.757071 
L 83.958774 137.647959 
L 85.94908 148.621441 
L 85.94908 146.469606 
L 85.94908 134.283104 
L 88.004133 147.234917 
L 88.004133 140.630406 
L 88.004133 137.084425 
L 91.767197 140.787335 
L 91.767197 139.705157 
L 91.767197 138.22193 
L 95.190991 149.651221 
L 95.190991 148.621441 
L 95.190991 137.790458 
L 97.078998 151.819484 
L 97.078998 146.281195 
L 97.078998 141.908671 
L 99.140525 149.235194 
L 99.140525 148.824678 
L 99.140525 142.735214 
L 102.741723 190.201076 
L 105.151587 190.201076 
L 106.534571 182.069481 
L 106.534571 179.22404 
L 106.534571 170.307757 
L 108.326754 171.983491 
L 108.326754 167.952685 
L 108.326754 167.577001 
L 110.111166 187.959603 
L 110.111166 185.202806 
L 110.111166 182.069481 
L 112.040611 190.201076 
L 112.040611 172.856606 
L 112.040611 163.719727 
L 116.016044 190.201076 
L 117.668374 188.688896 
L 117.668374 182.069481 
L 117.668374 166.839025 
L 121.620498 187.959603 
L 121.620498 184.550287 
L 121.620498 175.634003 
L 123.366063 168.717996 
L 125.212632 169.902607 
L 130.665579 179.22404 
L 134.461017 190.201076 
L 136.557508 190.201076 
L 138.220197 176.618008 
L 140.266185 184.550287 
L 143.765084 190.201076 
L 146.03639 181.47911 
L 149.377308 190.201076 
L 156.917681 190.201076 
L 158.920937 180.899775 
L 164.478773 190.201076 
L 169.623528 190.201076 
L 172.125331 182.069481 
L 173.973195 190.201076 
L 177.36332 187.959603 
L 182.906913 190.201076 
L 184.759956 185.202806 
L 190.672604 190.201076 
L 195.997353 190.201076 
L 198.036867 176.122101 
L 200.031058 190.201076 
L 204.246053 178.685009 
L 209.231531 190.201076 
L 210.913644 187.959603 
L 212.692877 190.201076 
L 216.891037 190.201076 
L 222.088884 190.201076 
L 224.195734 184.550287 
L 227.771034 176.618008 
L 229.94004 190.201076 
L 235.056306 190.201076 
L 248.058691 190.201076 
L 254.080113 190.201076 
L 263.221019 190.201076 
L 268.708929 190.201076 
L 274.282305 190.201076 
L 287.315768 190.201076 
" clip-path="url(#pd99b20560d)" style="fill: none; stroke: #44aa99; stroke-width: 3; stroke-linecap: round"/>
   </g>
   <g id="line2d_4">
    <path d="M 47.2035 155.469997 
L 49.221 180.143797 
L 51.239795 148.621441 
L 52.32624 136.576701 
L 54.203888 124.641976 
L 55.970171 107.750237 
L 57.869833 89.621079 
L 59.756545 75.775114 
L 62.091302 57.630572 
L 63.880895 63.58395 
L 65.376538 75.508047 
L 67.406987 91.669695 
L 69.054137 92.856772 
L 71.128614 95.47378 
L 72.742096 94.347921 
L 77.301542 102.818135 
L 78.394462 103.571767 
L 80.259161 110.618262 
L 82.09537 119.365499 
L 83.958774 123.350604 
L 85.94908 126.437347 
L 88.004133 139.252689 
L 91.767197 149.006458 
L 95.190991 150.04933 
L 97.078998 157.172256 
L 99.140525 171.087798 
L 102.741723 190.201076 
L 105.151587 190.201076 
L 106.534571 188.362646 
L 108.326754 188.853319 
L 110.111166 186.627185 
L 112.040611 185.645579 
L 116.016044 190.201076 
L 117.668374 185.571343 
L 121.620498 188.039793 
L 123.366063 190.201076 
L 125.212632 188.200799 
L 130.665579 190.201076 
L 134.461017 190.201076 
L 136.557508 189.435765 
L 138.220197 179.772613 
L 140.266185 190.201076 
L 143.765084 190.201076 
L 146.03639 189.184803 
L 149.377308 190.201076 
L 156.917681 184.122783 
L 158.920937 189.435765 
L 164.478773 190.201076 
L 169.623528 187.013162 
L 172.125331 190.201076 
L 173.973195 189.184803 
L 177.36332 190.201076 
L 182.906913 188.200799 
L 184.759956 190.201076 
L 190.672604 187.247077 
L 195.997353 190.201076 
L 198.036867 189.435765 
L 200.031058 188.200799 
L 204.246053 190.201076 
L 209.231531 190.201076 
L 210.913644 186.321828 
L 212.692877 189.435765 
L 216.891037 185.645579 
L 222.088884 188.200799 
L 224.195734 190.201076 
L 227.771034 190.201076 
L 229.94004 189.435765 
L 235.056306 190.201076 
L 248.058691 190.201076 
L 254.080113 190.201076 
L 263.221019 189.435765 
L 268.708929 179.957649 
L 274.282305 190.201076 
L 287.315768 190.201076 
" clip-path="url(#pd99b20560d)" style="fill: none; stroke: #000000; stroke-linecap: round"/>
   </g>
   <g id="patch_3">
    <path d="M 47.2035 199.117359 
L 47.2035 19.0715 
" style="fill: none; stroke: #262626; stroke-linejoin: miter; stroke-linecap: square"/>
   </g>
   <g id="patch_4">
    <path d="M 47.2035 199.117359 
L 308.26125 199.117359 
" style="fill: none; stroke: #262626; stroke-linejoin: miter; stroke-linecap: square"/>
   </g>
   <g id="text_5">
    <text style="fill: #262626; font: 9.6px 'Arial', 'DejaVu Sans', 'Liberation Sans', 'Bitstream Vera Sans', sans-serif; text-anchor: middle" x="177.732375" y="14.0715" transform="rotate(-0 177.732375 14.0715)">Marinovum 5F3</text>
   </g>
  </g>
  <g id="axes_2">
   <g id="patch_5">
    <path d="M 47.2035 405.823406 
L 308.26125 405.823406 
L 308.26125 225.777547 
L 47.2035 225.777547 
L 47.2035 405.823406 
z
" style="fill: none"/>
   </g>
   <g id="matplotlib.axis_3">
    <g id="xtick_4"/>
    <g id="xtick_5"/>
    <g id="xtick_6"/>
   </g>
   <g id="matplotlib.axis_4">
    <g id="ytick_27">
     <g id="text_6">
      <!-- $\mathdefault{10^{-1}}$ -->
      <g style="fill: #262626" transform="translate(20.9795 372.171037)">
       <text>
        <tspan style="font: 8.8px 'Arial'" x="0 4.892395" y="-0.4372624999999992">10</tspan>
        <tspan style="font: 6.16px 'Arial'" x="9.938116 13.534183" y="-6.570312499999999">−1</tspan>
       </text>
      </g>
     </g>
    </g>
    <g id="ytick_28">
     <g id="text_7">
      <!-- $\mathdefault{10^{0}}$ -->
      <g style="fill: #262626" transform="translate(24.5875 300.805792)">
       <text>
        <tspan style="font: 8.8px 'Arial'" x="0 4.892395" y="-0.4372624999999992">10</tspan>
        <tspan style="font: 6.16px 'Arial'" x="9.938116" y="-6.570312499999999">0</tspan>
       </text>
      </g>
     </g>
    </g>
    <g id="ytick_29">
     <g id="text_8">
      <!-- $\mathdefault{10^{1}}$ -->
      <g style="fill: #262626" transform="translate(24.5875 229.440547)">
       <text>
        <tspan style="font: 8.8px 'Arial'" x="0 4.892395" y="-0.4372624999999992">10</tspan>
        <tspan style="font: 6.16px 'Arial'" x="9.938116" y="-6.570312499999999">1</tspan>
       </text>
      </g>
     </g>
    </g>
    <g id="ytick_30"/>
    <g id="ytick_31"/>
    <g id="ytick_32"/>
    <g id="ytick_33"/>
    <g id="ytick_34"/>
    <g id="ytick_35"/>
    <g id="ytick_36"/>
    <g id="ytick_37"/>
    <g id="ytick_38"/>
    <g id="ytick_39"/>
    <g id="ytick_40"/>
    <g id="ytick_41"/>
    <g id="ytick_42"/>
    <g id="ytick_43"/>
    <g id="ytick_44"/>
    <g id="ytick_45"/>
    <g id="ytick_46"/>
    <g id="ytick_47"/>
    <g id="ytick_48"/>
    <g id="ytick_49"/>
    <g id="ytick_50"/>
    <g id="ytick_51"/>
    <g id="ytick_52"/>
    <g id="text_9">
     <text style="fill: #262626; font: 9.6px 'Arial', 'DejaVu Sans', 'Liberation Sans', 'Bitstream Vera Sans', sans-serif; text-anchor: middle" x="14.0715" y="315.800477" transform="rotate(-90 14.0715 315.800477)">Fluorescence</text>
    </g>
   </g>
   <g id="line2d_5">
    <path d="M 47.2035 375.424043 
L 49.221 368.819532 
L 51.239795 354.135281 
L 52.32624 341.116959 
L 54.203888 332.652202 
L 55.970171 316.761489 
L 57.869833 306.643089 
L 59.756545 300.09989 
L 59.756545 296.98821 
L 59.756545 296.681341 
L 62.091302 324.928125 
L 63.880895 327.874528 
L 65.376538 330.216412 
L 65.376538 329.592061 
L 65.376538 327.459615 
L 67.406987 335.50889 
L 67.406987 334.355021 
L 67.406987 332.554891 
L 69.054137 338.893362 
L 69.054137 333.94586 
L 69.054137 330.397133 
L 71.128614 347.493382 
L 71.128614 344.354006 
L 71.128614 336.596494 
L 72.742096 347.809646 
L 72.742096 345.512778 
L 72.742096 344.212159 
L 77.301542 351.880212 
L 78.394462 349.609248 
L 78.394462 347.809646 
L 78.394462 342.291591 
L 80.259161 360.615775 
L 80.259161 353.940964 
L 80.259161 351.699491 
L 82.09537 359.669334 
L 82.09537 357.639942 
L 82.09537 354.725652 
L 83.958774 366.702077 
L 83.958774 365.837085 
L 83.958774 363.37816 
L 85.94908 363.641936 
L 85.94908 359.669334 
L 85.94908 353.555946 
L 88.004133 377.013804 
L 88.004133 371.773531 
L 88.004133 370.097797 
L 91.767197 389.377363 
L 91.767197 383.828025 
L 91.767197 379.123021 
L 95.190991 396.907123 
L 95.190991 396.907123 
L 95.190991 396.907123 
L 97.078998 391.908853 
L 97.078998 386.47866 
L 97.078998 385.930087 
L 99.140525 396.907123 
L 99.140525 396.907123 
L 99.140525 395.394943 
L 102.741723 396.907123 
L 105.151587 396.907123 
L 106.534571 396.907123 
L 106.534571 396.907123 
L 106.534571 379.123021 
L 108.326754 396.907123 
L 108.326754 396.907123 
L 108.326754 396.907123 
L 110.111166 396.907123 
L 110.111166 396.907123 
L 110.111166 396.907123 
L 112.040611 396.907123 
L 112.040611 396.907123 
L 112.040611 386.47866 
L 116.016044 396.907123 
L 117.668374 396.907123 
L 117.668374 396.907123 
L 117.668374 396.907123 
L 121.620498 396.907123 
L 121.620498 394.66565 
L 121.620498 394.66565 
L 123.366063 396.907123 
L 125.212632 388.775527 
L 130.665579 391.256334 
L 134.461017 396.907123 
L 136.557508 396.907123 
L 138.220197 396.907123 
L 140.266185 391.256334 
L 143.765084 391.256334 
L 146.03639 396.907123 
L 149.377308 396.907123 
L 156.917681 388.185157 
L 158.920937 396.907123 
L 164.478773 388.775527 
L 169.623528 396.907123 
L 172.125331 394.66565 
L 173.973195 396.907123 
L 177.36332 374.283048 
L 182.906913 396.907123 
L 184.759956 395.394943 
L 190.672604 391.256334 
L 195.997353 388.185157 
L 198.036867 396.907123 
L 200.031058 378.262034 
L 204.246053 396.907123 
L 209.231531 391.256334 
L 210.913644 374.658732 
L 212.692877 375.424043 
L 216.891037 396.907123 
L 222.088884 396.907123 
L 224.195734 396.907123 
L 227.771034 396.907123 
L 229.94004 391.256334 
L 235.056306 396.907123 
L 248.058691 396.907123 
L 254.080113 384.861239 
L 263.221019 391.908853 
L 268.708929 391.908853 
L 274.282305 396.907123 
L 287.315768 379.123021 
" clip-path="url(#pd269ba6c69)" style="fill: none; stroke: #44aa99; stroke-width: 3; stroke-linecap: round"/>
   </g>
   <g id="line2d_6">
    <path d="M 47.2035 373.911864 
L 49.221 385.930087 
L 51.239795 358.978 
L 52.32624 347.968996 
L 54.203888 353.175653 
L 55.970171 332.652202 
L 57.869833 323.88246 
L 59.756545 316.93709 
L 59.756545 316.471013 
L 59.756545 314.673783 
L 62.091302 343.930398 
L 63.880895 341.503578 
L 65.376538 350.463118 
L 65.376538 348.129169 
L 65.376538 347.180314 
L 67.406987 370.425774 
L 67.406987 347.968996 
L 67.406987 347.493382 
L 69.054137 363.116609 
L 69.054137 359.903248 
L 69.054137 357.639942 
L 71.128614 361.100059 
L 71.128614 359.206735 
L 71.128614 358.978 
L 72.742096 365.273551 
L 72.742096 363.37816 
L 72.742096 356.567394 
L 77.301542 373.545072 
L 78.394462 370.425774 
L 78.394462 364.72008 
L 78.394462 355.735303 
L 80.259161 394.66565 
L 80.259161 381.859521 
L 80.259161 373.911864 
L 82.09537 381.386328 
L 82.09537 375.039026 
L 82.09537 357.639942 
L 83.958774 368.508037 
L 83.958774 365.554037 
L 83.958774 363.116609 
L 85.94908 393.953124 
L 85.94908 371.092327 
L 85.94908 362.857248 
L 88.004133 383.324054 
L 88.004133 379.123021 
L 88.004133 370.425774 
L 91.767197 396.907123 
L 91.767197 391.908853 
L 91.767197 383.828025 
L 95.190991 391.256334 
L 95.190991 385.930087 
L 95.190991 381.386328 
L 97.078998 396.907123 
L 97.078998 391.256334 
L 97.078998 379.123021 
L 99.140525 396.907123 
L 99.140525 396.907123 
L 99.140525 396.907123 
L 102.741723 396.907123 
L 105.151587 396.907123 
L 106.534571 396.907123 
L 106.534571 396.907123 
L 106.534571 371.431058 
L 108.326754 396.907123 
L 108.326754 388.185157 
L 108.326754 385.391056 
L 110.111166 391.908853 
L 110.111166 388.185157 
L 110.111166 380.920251 
L 112.040611 396.907123 
L 112.040611 391.908853 
L 112.040611 388.775527 
L 116.016044 396.907123 
L 117.668374 396.907123 
L 117.668374 396.907123 
L 117.668374 396.907123 
L 121.620498 396.907123 
L 121.620498 396.907123 
L 121.620498 373.545072 
L 123.366063 391.908853 
L 125.212632 396.907123 
L 130.665579 396.907123 
L 134.461017 396.907123 
L 136.557508 388.775527 
L 138.220197 388.185157 
L 140.266185 396.907123 
L 143.765084 396.907123 
L 146.03639 396.907123 
L 149.377308 396.907123 
L 156.917681 396.907123 
L 158.920937 391.908853 
L 164.478773 388.775527 
L 169.623528 396.907123 
L 172.125331 385.930087 
L 173.973195 388.185157 
L 177.36332 378.689538 
L 182.906913 373.911864 
L 184.759956 396.907123 
L 190.672604 394.66565 
L 195.997353 385.391056 
L 198.036867 382.828147 
L 200.031058 396.907123 
L 204.246053 376.608654 
L 209.231531 396.907123 
L 210.913644 396.907123 
L 212.692877 380.920251 
L 216.891037 393.953124 
L 222.088884 396.907123 
L 224.195734 377.013804 
L 227.771034 396.907123 
L 229.94004 388.185157 
L 235.056306 393.953124 
L 248.058691 396.907123 
L 254.080113 391.256334 
L 263.221019 377.013804 
L 268.708929 396.907123 
L 274.282305 382.34005 
L 287.315768 396.907123 
" clip-path="url(#pd269ba6c69)" style="fill: none; stroke: #44aa99; stroke-width: 3; stroke-linecap: round"/>
   </g>
   <g id="line2d_7">
    <path d="M 47.2035 386.47866 
L 49.221 389.377363 
L 51.239795 366.411056 
L 52.32624 359.669334 
L 54.203888 356.148556 
L 55.970171 337.381182 
L 57.869833 342.424897 
L 59.756545 360.138942 
L 59.756545 353.555946 
L 59.756545 352.428785 
L 62.091302 396.907123 
L 63.880895 368.508037 
L 65.376538 383.828025 
L 65.376538 379.562653 
L 65.376538 373.545072 
L 67.406987 385.391056 
L 67.406987 380.920251 
L 67.406987 370.425774 
L 69.054137 386.47866 
L 69.054137 375.039026 
L 69.054137 373.545072 
L 71.128614 396.907123 
L 71.128614 373.911864 
L 71.128614 373.545072 
L 72.742096 383.324054 
L 72.742096 376.208732 
L 72.742096 375.424043 
L 77.301542 370.097797 
L 78.394462 388.775527 
L 78.394462 377.013804 
L 78.394462 369.773254 
L 80.259161 392.575406 
L 80.259161 385.930087 
L 80.259161 375.813904 
L 82.09537 395.394943 
L 82.09537 391.908853 
L 82.09537 385.930087 
L 83.958774 396.907123 
L 83.958774 391.256334 
L 83.958774 383.324054 
L 85.94908 394.66565 
L 85.94908 391.256334 
L 85.94908 382.828147 
L 88.004133 396.907123 
L 88.004133 386.47866 
L 88.004133 381.386328 
L 91.767197 396.907123 
L 91.767197 395.394943 
L 91.767197 394.66565 
L 95.190991 396.907123 
L 95.190991 394.66565 
L 95.190991 385.391056 
L 97.078998 396.907123 
L 97.078998 395.394943 
L 97.078998 379.123021 
L 99.140525 396.907123 
L 99.140525 394.66565 
L 99.140525 383.324054 
L 102.741723 396.907123 
L 105.151587 396.907123 
L 106.534571 396.907123 
L 106.534571 394.66565 
L 106.534571 391.908853 
L 108.326754 396.907123 
L 108.326754 396.907123 
L 108.326754 376.608654 
L 110.111166 396.907123 
L 110.111166 396.907123 
L 110.111166 396.907123 
L 112.040611 396.907123 
L 112.040611 396.907123 
L 112.040611 380.920251 
L 116.016044 396.907123 
L 117.668374 396.907123 
L 117.668374 396.907123 
L 117.668374 386.47866 
L 121.620498 396.907123 
L 121.620498 396.907123 
L 121.620498 388.775527 
L 123.366063 385.391056 
L 125.212632 396.907123 
L 130.665579 396.907123 
L 134.461017 391.908853 
L 136.557508 396.907123 
L 138.220197 388.775527 
L 140.266185 385.930087 
L 143.765084 368.508037 
L 146.03639 390.617269 
L 149.377308 383.828025 
L 156.917681 394.66565 
L 158.920937 396.907123 
L 164.478773 391.256334 
L 169.623528 396.907123 
L 172.125331 396.907123 
L 173.973195 396.907123 
L 177.36332 378.689538 
L 182.906913 391.908853 
L 184.759956 383.324054 
L 190.672604 388.775527 
L 195.997353 391.256334 
L 198.036867 388.185157 
L 200.031058 396.907123 
L 204.246053 391.256334 
L 209.231531 386.47866 
L 210.913644 374.283048 
L 212.692877 396.907123 
L 216.891037 393.953124 
L 222.088884 391.908853 
L 224.195734 396.907123 
L 227.771034 383.828025 
L 229.94004 393.953124 
L 235.056306 385.930087 
L 248.058691 396.907123 
L 254.080113 396.907123 
L 263.221019 396.907123 
L 268.708929 396.907123 
L 274.282305 393.25661 
L 287.315768 385.930087 
" clip-path="url(#pd269ba6c69)" style="fill: none; stroke: #44aa99; stroke-width: 3; stroke-linecap: round"/>
   </g>
   <g id="line2d_8">
    <path d="M 47.2035 362.176044 
L 49.221 386.849844 
L 51.239795 355.327487 
L 52.32624 343.282748 
L 54.203888 331.348023 
L 55.970171 314.456284 
L 57.869833 296.327125 
L 59.756545 282.481161 
L 62.091302 264.336619 
L 63.880895 270.289997 
L 65.376538 282.214094 
L 67.406987 298.375741 
L 69.054137 299.562818 
L 71.128614 302.179827 
L 72.742096 301.053968 
L 77.301542 309.524182 
L 78.394462 310.277814 
L 80.259161 317.324309 
L 82.09537 326.071546 
L 83.958774 330.056651 
L 85.94908 333.143394 
L 88.004133 345.958736 
L 91.767197 355.712505 
L 95.190991 356.755377 
L 97.078998 363.878303 
L 99.140525 377.793845 
L 102.741723 396.907123 
L 105.151587 396.907123 
L 106.534571 395.068692 
L 108.326754 395.559366 
L 110.111166 393.333232 
L 112.040611 392.351625 
L 116.016044 396.907123 
L 117.668374 392.277389 
L 121.620498 394.74584 
L 123.366063 396.907123 
L 125.212632 394.906846 
L 130.665579 396.907123 
L 134.461017 396.907123 
L 136.557508 396.141811 
L 138.220197 386.47866 
L 140.266185 396.907123 
L 143.765084 396.907123 
L 146.03639 395.89085 
L 149.377308 396.907123 
L 156.917681 390.82883 
L 158.920937 396.141811 
L 164.478773 396.907123 
L 169.623528 393.719209 
L 172.125331 396.907123 
L 173.973195 395.89085 
L 177.36332 396.907123 
L 182.906913 394.906846 
L 184.759956 396.907123 
L 190.672604 393.953124 
L 195.997353 396.907123 
L 198.036867 396.141811 
L 200.031058 394.906846 
L 204.246053 396.907123 
L 209.231531 396.907123 
L 210.913644 393.027875 
L 212.692877 396.141811 
L 216.891037 392.351625 
L 222.088884 394.906846 
L 224.195734 396.907123 
L 227.771034 396.907123 
L 229.94004 396.141811 
L 235.056306 396.907123 
L 248.058691 396.907123 
L 254.080113 396.907123 
L 263.221019 396.141811 
L 268.708929 386.663696 
L 274.282305 396.907123 
L 287.315768 396.907123 
" clip-path="url(#pd269ba6c69)" style="fill: none; stroke: #000000; stroke-linecap: round"/>
   </g>
   <g id="patch_6">
    <path d="M 47.2035 405.823406 
L 47.2035 225.777547 
" style="fill: none; stroke: #262626; stroke-linejoin: miter; stroke-linecap: square"/>
   </g>
   <g id="patch_7">
    <path d="M 47.2035 405.823406 
L 308.26125 405.823406 
" style="fill: none; stroke: #262626; stroke-linejoin: miter; stroke-linecap: square"/>
   </g>
   <g id="text_10">
    <text style="fill: #262626; font: 9.6px 'Arial', 'DejaVu Sans', 'Liberation Sans', 'Bitstream Vera Sans', sans-serif; text-anchor: middle" x="177.732375" y="220.777547" transform="rotate(-0 177.732375 220.777547)">Roseovarius 5C3</text>
   </g>
  </g>
  <g id="axes_3">
   <g id="patch_8">
    <path d="M 47.2035 612.529453 
L 308.26125 612.529453 
L 308.26125 432.483594 
L 47.2035 432.483594 
L 47.2035 612.529453 
z
" style="fill: none"/>
   </g>
   <g id="matplotlib.axis_5">
    <g id="xtick_7"/>
    <g id="xtick_8"/>
    <g id="xtick_9"/>
   </g>
   <g id="matplotlib.axis_6">
    <g id="ytick_53">
     <g id="text_11">
      <!-- $\mathdefault{10^{-1}}$ -->
      <g style="fill: #262626" transform="translate(20.9795 578.877083)">
       <text>
        <tspan style="font: 8.8px 'Arial'" x="0 4.892395" y="-0.4372624999999992">10</tspan>
        <tspan style="font: 6.16px 'Arial'" x="9.938116 13.534183" y="-6.570312499999999">−1</tspan>
       </text>
      </g>
     </g>
    </g>
    <g id="ytick_54">
     <g id="text_12">
      <!-- $\mathdefault{10^{0}}$ -->
      <g style="fill: #262626" transform="translate(24.5875 507.511839)">
       <text>
        <tspan style="font: 8.8px 'Arial'" x="0 4.892395" y="-0.4372624999999992">10</tspan>
        <tspan style="font: 6.16px 'Arial'" x="9.938116" y="-6.570312499999999">0</tspan>
       </text>
      </g>
     </g>
    </g>
    <g id="ytick_55">
     <g id="text_13">
      <!-- $\mathdefault{10^{1}}$ -->
      <g style="fill: #262626" transform="translate(24.5875 436.146594)">
       <text>
        <tspan style="font: 8.8px 'Arial'" x="0 4.892395" y="-0.4372624999999992">10</tspan>
        <tspan style="font: 6.16px 'Arial'" x="9.938116" y="-6.570312499999999">1</tspan>
       </text>
      </g>
     </g>
    </g>
    <g id="ytick_56"/>
    <g id="ytick_57"/>
    <g id="ytick_58"/>
    <g id="ytick_59"/>
    <g id="ytick_60"/>
    <g id="ytick_61"/>
    <g id="ytick_62"/>
    <g id="ytick_63"/>
    <g id="ytick_64"/>
    <g id="ytick_65"/>
    <g id="ytick_66"/>
    <g id="ytick_67"/>
    <g id="ytick_68"/>
    <g id="ytick_69"/>
    <g id="ytick_70"/>
    <g id="ytick_71"/>
    <g id="ytick_72"/>
    <g id="ytick_73"/>
    <g id="ytick_74"/>
    <g id="ytick_75"/>
    <g id="ytick_76"/>
    <g id="ytick_77"/>
    <g id="ytick_78"/>
    <g id="text_14">
     <text style="fill: #262626; font: 9.6px 'Arial', 'DejaVu Sans', 'Liberation Sans', 'Bitstream Vera Sans', sans-serif; text-anchor: middle" x="14.0715" y="522.506523" transform="rotate(-90 14.0715 522.506523)">Fluorescence</text>
    </g>
   </g>
   <g id="line2d_9">
    <path d="M 47.2035 573.117103 
L 49.221 587.626298 
L 51.239795 573.408124 
L 52.32624 578.479578 
L 54.203888 580.617911 
L 55.970171 579.176091 
L 57.869833 575.840237 
L 59.756545 602.10099 
L 59.756545 579.888618 
L 59.756545 578.479578 
L 62.091302 581.745072 
L 63.880895 566.143218 
L 65.376538 590.534072 
L 65.376538 580.989095 
L 65.376538 578.825878 
L 67.406987 588.092375 
L 67.406987 573.701904 
L 67.406987 572.260084 
L 69.054137 582.13009 
L 69.054137 580.251119 
L 69.054137 575.840237 
L 71.128614 588.092375 
L 71.128614 586.2687 
L 71.128614 583.719851 
L 72.742096 601.371697 
L 72.742096 595.481574 
L 72.742096 582.13009 
L 77.301542 580.251119 
L 78.394462 582.13009 
L 78.394462 577.131821 
L 78.394462 575.525579 
L 80.259161 588.565568 
L 80.259161 585.829068 
L 80.259161 583.314701 
L 82.09537 590.534072 
L 82.09537 584.130367 
L 82.09537 576.803844 
L 83.958774 592.097103 
L 83.958774 573.998495 
L 83.958774 573.701904 
L 85.94908 590.030101 
L 85.94908 581.364779 
L 85.94908 564.565025 
L 88.004133 587.626298 
L 88.004133 583.719851 
L 88.004133 580.617911 
L 91.767197 592.636134 
L 91.767197 577.131821 
L 91.767197 572.543132 
L 95.190991 587.626298 
L 95.190991 579.888618 
L 95.190991 579.530307 
L 97.078998 603.61317 
L 97.078998 588.092375 
L 97.078998 585.829068 
L 99.140525 588.092375 
L 99.140525 588.092375 
L 99.140525 583.719851 
L 102.741723 587.167126 
L 105.151587 603.61317 
L 106.534571 588.565568 
L 106.534571 585.829068 
L 106.534571 585.829068 
L 108.326754 587.167126 
L 108.326754 585.395585 
L 108.326754 576.158122 
L 110.111166 603.61317 
L 110.111166 590.030101 
L 110.111166 585.829068 
L 112.040611 593.184707 
L 112.040611 579.888618 
L 112.040611 574.905688 
L 116.016044 603.61317 
L 117.668374 603.61317 
L 117.668374 596.083409 
L 117.668374 580.989095 
L 121.620498 595.481574 
L 121.620498 592.636134 
L 121.620498 575.525579 
L 123.366063 590.030101 
L 125.212632 587.626298 
L 130.665579 603.61317 
L 134.461017 588.092375 
L 136.557508 584.130367 
L 138.220197 594.891204 
L 140.266185 587.626298 
L 143.765084 603.61317 
L 146.03639 569.563294 
L 149.377308 569.050993 
L 156.917681 576.803844 
L 158.920937 597.962381 
L 164.478773 595.481574 
L 169.623528 576.479301 
L 172.125331 576.803844 
L 173.973195 597.962381 
L 177.36332 572.260084 
L 182.906913 582.13009 
L 184.759956 583.314701 
L 190.672604 583.719851 
L 195.997353 569.822656 
L 198.036867 584.968081 
L 200.031058 581.364779 
L 204.246053 603.61317 
L 209.231531 587.626298 
L 210.913644 603.61317 
L 212.692877 588.092375 
L 216.891037 592.097103 
L 222.088884 581.745072 
L 224.195734 603.61317 
L 227.771034 578.137105 
L 229.94004 581.364779 
L 235.056306 589.534194 
L 248.058691 578.479578 
L 254.080113 587.626298 
L 263.221019 571.153055 
L 268.708929 585.829068 
L 274.282305 586.714658 
L 287.315768 578.479578 
" clip-path="url(#p14d8bc1d51)" style="fill: none; stroke: #332288; stroke-width: 3; stroke-linecap: round"/>
   </g>
   <g id="line2d_10">
    <path d="M 47.2035 560.841328 
L 49.221 593.184707 
L 51.239795 572.828789 
L 52.32624 577.131821 
L 54.203888 588.565568 
L 55.970171 575.525579 
L 57.869833 584.130367 
L 59.756545 588.092375 
L 59.756545 584.130367 
L 59.756545 572.828789 
L 62.091302 582.13009 
L 63.880895 570.084206 
L 65.376538 575.214083 
L 65.376538 572.543132 
L 65.376538 570.614023 
L 67.406987 581.745072 
L 67.406987 574.905688 
L 67.406987 574.297952 
L 69.054137 584.130367 
L 69.054137 578.479578 
L 69.054137 577.131821 
L 71.128614 585.829068 
L 71.128614 582.13009 
L 71.128614 580.617911 
L 72.742096 580.251119 
L 72.742096 573.998495 
L 72.742096 572.543132 
L 77.301542 572.543132 
L 78.394462 585.395585 
L 78.394462 577.798374 
L 78.394462 573.998495 
L 80.259161 591.567286 
L 80.259161 578.479578 
L 80.259161 576.803844 
L 82.09537 577.131821 
L 82.09537 568.797983 
L 82.09537 566.609295 
L 83.958774 598.6149 
L 83.958774 586.2687 
L 83.958774 578.479578 
L 85.94908 603.61317 
L 85.94908 598.6149 
L 85.94908 595.481574 
L 88.004133 588.092375 
L 88.004133 577.131821 
L 88.004133 567.321822 
L 91.767197 588.092375 
L 91.767197 582.13009 
L 91.767197 577.131821 
L 95.190991 592.636134 
L 95.190991 590.030101 
L 95.190991 575.525579 
L 97.078998 603.61317 
L 97.078998 598.6149 
L 97.078998 590.534072 
L 99.140525 598.6149 
L 99.140525 588.092375 
L 99.140525 578.825878 
L 102.741723 594.311868 
L 105.151587 603.61317 
L 106.534571 581.745072 
L 106.534571 580.251119 
L 106.534571 580.251119 
L 108.326754 595.481574 
L 108.326754 590.030101 
L 108.326754 579.176091 
L 110.111166 602.10099 
L 110.111166 585.395585 
L 110.111166 579.888618 
L 112.040611 603.61317 
L 112.040611 597.962381 
L 112.040611 573.998495 
L 116.016044 603.61317 
L 117.668374 603.61317 
L 117.668374 593.184707 
L 117.668374 575.840237 
L 121.620498 603.61317 
L 121.620498 592.636134 
L 121.620498 585.829068 
L 123.366063 584.130367 
L 125.212632 598.6149 
L 130.665579 583.719851 
L 134.461017 593.184707 
L 136.557508 580.251119 
L 138.220197 587.626298 
L 140.266185 590.030101 
L 143.765084 576.803844 
L 146.03639 584.968081 
L 149.377308 580.251119 
L 156.917681 578.137105 
L 158.920937 576.479301 
L 164.478773 598.6149 
L 169.623528 581.745072 
L 172.125331 579.888618 
L 173.973195 596.697163 
L 177.36332 579.530307 
L 182.906913 592.097103 
L 184.759956 592.636134 
L 190.672604 579.530307 
L 195.997353 583.314701 
L 198.036867 572.543132 
L 200.031058 565.684047 
L 204.246053 583.314701 
L 209.231531 583.719851 
L 210.913644 574.60033 
L 212.692877 579.888618 
L 216.891037 587.167126 
L 222.088884 582.13009 
L 224.195734 585.395585 
L 227.771034 582.13009 
L 229.94004 576.158122 
L 235.056306 576.479301 
L 248.058691 566.375381 
L 254.080113 573.701904 
L 263.221019 578.479578 
L 268.708929 595.481574 
L 274.282305 576.803844 
L 287.315768 583.719851 
" clip-path="url(#p14d8bc1d51)" style="fill: none; stroke: #332288; stroke-width: 3; stroke-linecap: round"/>
   </g>
   <g id="line2d_11">
    <path d="M 47.2035 557.169165 
L 49.221 590.534072 
L 51.239795 585.829068 
L 52.32624 576.803844 
L 54.203888 577.131821 
L 55.970171 571.701627 
L 57.869833 576.479301 
L 59.756545 580.251119 
L 59.756545 572.828789 
L 59.756545 569.822656 
L 62.091302 580.251119 
L 63.880895 563.485002 
L 65.376538 584.130367 
L 65.376538 582.519951 
L 65.376538 577.463306 
L 67.406987 585.829068 
L 67.406987 581.745072 
L 67.406987 578.479578 
L 69.054137 588.565568 
L 69.054137 580.251119 
L 69.054137 576.803844 
L 71.128614 598.6149 
L 71.128614 592.636134 
L 71.128614 578.825878 
L 72.742096 585.829068 
L 72.742096 578.479578 
L 72.742096 575.840237 
L 77.301542 577.131821 
L 78.394462 603.61317 
L 78.394462 590.030101 
L 78.394462 584.130367 
L 80.259161 590.030101 
L 80.259161 585.829068 
L 80.259161 583.719851 
L 82.09537 595.481574 
L 82.09537 587.626298 
L 82.09537 576.479301 
L 83.958774 592.636134 
L 83.958774 582.13009 
L 83.958774 577.131821 
L 85.94908 592.097103 
L 85.94908 590.030101 
L 85.94908 585.829068 
L 88.004133 595.481574 
L 88.004133 590.534072 
L 88.004133 575.214083 
L 91.767197 582.13009 
L 91.767197 576.479301 
L 91.767197 575.840237 
L 95.190991 603.61317 
L 95.190991 581.745072 
L 95.190991 577.131821 
L 97.078998 598.6149 
L 97.078998 585.829068 
L 97.078998 571.426127 
L 99.140525 603.61317 
L 99.140525 603.61317 
L 99.140525 598.6149 
L 102.741723 600.65917 
L 105.151587 603.61317 
L 106.534571 592.636134 
L 106.534571 590.030101 
L 106.534571 581.364779 
L 108.326754 589.534194 
L 108.326754 585.395585 
L 108.326754 579.888618 
L 110.111166 592.097103 
L 110.111166 583.719851 
L 110.111166 579.888618 
L 112.040611 596.083409 
L 112.040611 586.2687 
L 112.040611 571.426127 
L 116.016044 603.61317 
L 117.668374 588.565568 
L 117.668374 587.626298 
L 117.668374 583.719851 
L 121.620498 583.719851 
L 121.620498 577.131821 
L 121.620498 575.525579 
L 123.366063 588.092375 
L 125.212632 585.395585 
L 130.665579 585.829068 
L 134.461017 599.281453 
L 136.557508 590.534072 
L 138.220197 590.030101 
L 140.266185 603.61317 
L 143.765084 572.260084 
L 146.03639 585.395585 
L 149.377308 577.463306 
L 156.917681 572.543132 
L 158.920937 587.626298 
L 164.478773 583.719851 
L 169.623528 583.314701 
L 172.125331 592.636134 
L 173.973195 589.534194 
L 177.36332 583.719851 
L 182.906913 577.463306 
L 184.759956 566.609295 
L 190.672604 571.153055 
L 195.997353 579.888618 
L 198.036867 579.176091 
L 200.031058 582.914779 
L 204.246053 579.530307 
L 209.231531 590.534072 
L 210.913644 589.534194 
L 212.692877 587.626298 
L 216.891037 576.158122 
L 222.088884 592.636134 
L 224.195734 587.626298 
L 227.771034 601.371697 
L 229.94004 574.905688 
L 235.056306 576.479301 
L 248.058691 594.891204 
L 254.080113 597.962381 
L 263.221019 583.314701 
L 268.708929 595.481574 
L 274.282305 578.825878 
L 287.315768 567.563018 
" clip-path="url(#p14d8bc1d51)" style="fill: none; stroke: #332288; stroke-width: 3; stroke-linecap: round"/>
   </g>
   <g id="line2d_12">
    <path d="M 47.2035 568.88209 
L 49.221 593.555891 
L 51.239795 562.033534 
L 52.32624 549.988795 
L 54.203888 538.05407 
L 55.970171 521.16233 
L 57.869833 503.033172 
L 59.756545 489.187208 
L 62.091302 471.042665 
L 63.880895 476.996044 
L 65.376538 488.92014 
L 67.406987 505.081788 
L 69.054137 506.268865 
L 71.128614 508.885874 
L 72.742096 507.760015 
L 77.301542 516.230229 
L 78.394462 516.983861 
L 80.259161 524.030356 
L 82.09537 532.777593 
L 83.958774 536.762698 
L 85.94908 539.84944 
L 88.004133 552.664782 
L 91.767197 562.418552 
L 95.190991 563.461423 
L 97.078998 570.58435 
L 99.140525 584.499892 
L 102.741723 603.61317 
L 105.151587 603.61317 
L 106.534571 601.774739 
L 108.326754 602.265412 
L 110.111166 600.039279 
L 112.040611 599.057672 
L 116.016044 603.61317 
L 117.668374 598.983436 
L 121.620498 601.451887 
L 123.366063 603.61317 
L 125.212632 601.612893 
L 130.665579 603.61317 
L 134.461017 603.61317 
L 136.557508 602.847858 
L 138.220197 593.184707 
L 140.266185 603.61317 
L 143.765084 603.61317 
L 146.03639 602.596897 
L 149.377308 603.61317 
L 156.917681 597.534877 
L 158.920937 602.847858 
L 164.478773 603.61317 
L 169.623528 600.425256 
L 172.125331 603.61317 
L 173.973195 602.596897 
L 177.36332 603.61317 
L 182.906913 601.612893 
L 184.759956 603.61317 
L 190.672604 600.65917 
L 195.997353 603.61317 
L 198.036867 602.847858 
L 200.031058 601.612893 
L 204.246053 603.61317 
L 209.231531 603.61317 
L 210.913644 599.733922 
L 212.692877 602.847858 
L 216.891037 599.057672 
L 222.088884 601.612893 
L 224.195734 603.61317 
L 227.771034 603.61317 
L 229.94004 602.847858 
L 235.056306 603.61317 
L 248.058691 603.61317 
L 254.080113 603.61317 
L 263.221019 602.847858 
L 268.708929 593.369743 
L 274.282305 603.61317 
L 287.315768 603.61317 
" clip-path="url(#p14d8bc1d51)" style="fill: none; stroke: #000000; stroke-linecap: round"/>
   </g>
   <g id="patch_9">
    <path d="M 47.2035 612.529453 
L 47.2035 432.483594 
" style="fill: none; stroke: #262626; stroke-linejoin: miter; stroke-linecap: square"/>
   </g>
   <g id="patch_10">
    <path d="M 47.2035 612.529453 
L 308.26125 612.529453 
" style="fill: none; stroke: #262626; stroke-linejoin: miter; stroke-linecap: square"/>
   </g>
   <g id="text_15">
    <text style="fill: #262626; font: 9.6px 'Arial', 'DejaVu Sans', 'Liberation Sans', 'Bitstream Vera Sans', sans-serif; text-anchor: middle" x="177.732375" y="427.483594" transform="rotate(-0 177.732375 427.483594)">Marinobacter adhaerens HP15</text>
   </g>
  </g>
  <g id="axes_4">
   <g id="patch_11">
    <path d="M 47.2035 819.2355 
L 308.26125 819.2355 
L 308.26125 639.189641 
L 47.2035 639.189641 
L 47.2035 819.2355 
z
" style="fill: none"/>
   </g>
   <g id="matplotlib.axis_7">
    <g id="xtick_10">
     <g id="text_16">
      <text style="fill: #262626; font: 8.8px 'Arial', 'DejaVu Sans', 'Liberation Sans', 'Bitstream Vera Sans', sans-serif; text-anchor: middle" x="47.2035" y="834.334375" transform="rotate(-0 47.2035 834.334375)">0</text>
     </g>
    </g>
    <g id="xtick_11">
     <g id="text_17">
      <text style="fill: #262626; font: 8.8px 'Arial', 'DejaVu Sans', 'Liberation Sans', 'Bitstream Vera Sans', sans-serif; text-anchor: middle" x="159.085393" y="834.334375" transform="rotate(-0 159.085393 834.334375)">60</text>
     </g>
    </g>
    <g id="xtick_12">
     <g id="text_18">
      <text style="fill: #262626; font: 8.8px 'Arial', 'DejaVu Sans', 'Liberation Sans', 'Bitstream Vera Sans', sans-serif; text-anchor: middle" x="270.967286" y="834.334375" transform="rotate(-0 270.967286 834.334375)">120</text>
     </g>
    </g>
    <g id="text_19">
     <text style="fill: #262626; font: 9.6px 'Arial', 'DejaVu Sans', 'Liberation Sans', 'Bitstream Vera Sans', sans-serif; text-anchor: middle" x="177.732375" y="847.954875" transform="rotate(-0 177.732375 847.954875)">day</text>
    </g>
   </g>
   <g id="matplotlib.axis_8">
    <g id="ytick_79">
     <g id="text_20">
      <!-- $\mathdefault{10^{-1}}$ -->
      <g style="fill: #262626" transform="translate(20.9795 785.58313)">
       <text>
        <tspan style="font: 8.8px 'Arial'" x="0 4.892395" y="-0.4372624999999992">10</tspan>
        <tspan style="font: 6.16px 'Arial'" x="9.938116 13.534183" y="-6.570312499999999">−1</tspan>
       </text>
      </g>
     </g>
    </g>
    <g id="ytick_80">
     <g id="text_21">
      <!-- $\mathdefault{10^{0}}$ -->
      <g style="fill: #262626" transform="translate(24.5875 714.217885)">
       <text>
        <tspan style="font: 8.8px 'Arial'" x="0 4.892395" y="-0.4372624999999992">10</tspan>
        <tspan style="font: 6.16px 'Arial'" x="9.938116" y="-6.570312499999999">0</tspan>
       </text>
      </g>
     </g>
    </g>
    <g id="ytick_81">
     <g id="text_22">
      <!-- $\mathdefault{10^{1}}$ -->
      <g style="fill: #262626" transform="translate(24.5875 642.852641)">
       <text>
        <tspan style="font: 8.8px 'Arial'" x="0 4.892395" y="-0.4372624999999992">10</tspan>
        <tspan style="font: 6.16px 'Arial'" x="9.938116" y="-6.570312499999999">1</tspan>
       </text>
      </g>
     </g>
    </g>
    <g id="ytick_82"/>
    <g id="ytick_83"/>
    <g id="ytick_84"/>
    <g id="ytick_85"/>
    <g id="ytick_86"/>
    <g id="ytick_87"/>
    <g id="ytick_88"/>
    <g id="ytick_89"/>
    <g id="ytick_90"/>
    <g id="ytick_91"/>
    <g id="ytick_92"/>
    <g id="ytick_93"/>
    <g id="ytick_94"/>
    <g id="ytick_95"/>
    <g id="ytick_96"/>
    <g id="ytick_97"/>
    <g id="ytick_98"/>
    <g id="ytick_99"/>
    <g id="ytick_100"/>
    <g id="ytick_101"/>
    <g id="ytick_102"/>
    <g id="ytick_103"/>
    <g id="ytick_104"/>
    <g id="text_23">
     <text style="fill: #262626; font: 9.6px 'Arial', 'DejaVu Sans', 'Liberation Sans', 'Bitstream Vera Sans', sans-serif; text-anchor: middle" x="14.0715" y="729.21257" transform="rotate(-90 14.0715 729.21257)">Fluorescence</text>
    </g>
   </g>
   <g id="line2d_13">
    <path d="M 47.2035 774.757162 
L 49.221 802.187621 
L 51.239795 792.974747 
L 52.32624 810.319216 
L 54.203888 805.320947 
L 55.970171 805.9875 
L 57.869833 810.319216 
L 59.756545 810.319216 
L 59.756545 805.320947 
L 59.756545 804.668427 
L 62.091302 810.319216 
L 63.880895 781.003999 
L 65.376538 810.319216 
L 65.376538 808.077744 
L 65.376538 799.890753 
L 67.406987 810.319216 
L 67.406987 802.789456 
L 67.406987 796.736148 
L 69.054137 810.319216 
L 69.054137 810.319216 
L 69.054137 810.319216 
L 71.128614 810.319216 
L 71.128614 810.319216 
L 71.128614 805.320947 
L 72.742096 810.319216 
L 72.742096 810.319216 
L 72.742096 810.319216 
L 77.301542 810.319216 
L 78.394462 810.319216 
L 78.394462 810.319216 
L 78.394462 810.319216 
L 80.259161 810.319216 
L 80.259161 810.319216 
L 80.259161 810.319216 
L 82.09537 810.319216 
L 82.09537 810.319216 
L 82.09537 810.319216 
L 83.958774 810.319216 
L 83.958774 810.319216 
L 83.958774 810.319216 
L 85.94908 810.319216 
L 85.94908 810.319216 
L 85.94908 805.320947 
L 88.004133 810.319216 
L 88.004133 810.319216 
L 88.004133 810.319216 
L 91.767197 810.319216 
L 91.767197 810.319216 
L 91.767197 802.789456 
L 95.190991 810.319216 
L 95.190991 810.319216 
L 95.190991 794.798422 
L 97.078998 810.319216 
L 97.078998 810.319216 
L 97.078998 810.319216 
L 99.140525 810.319216 
L 99.140525 810.319216 
L 99.140525 808.077744 
L 102.741723 810.319216 
L 105.151587 810.319216 
L 106.534571 810.319216 
L 106.534571 810.319216 
L 106.534571 808.077744 
L 108.326754 810.319216 
L 108.326754 810.319216 
L 108.326754 796.736148 
L 110.111166 810.319216 
L 110.111166 802.187621 
L 110.111166 796.736148 
L 112.040611 810.319216 
L 112.040611 810.319216 
L 112.040611 810.319216 
L 116.016044 810.319216 
L 117.668374 810.319216 
L 117.668374 810.319216 
L 117.668374 797.240119 
L 121.620498 810.319216 
L 121.620498 808.077744 
L 121.620498 808.077744 
L 123.366063 797.240119 
L 125.212632 810.319216 
L 130.665579 808.807037 
L 134.461017 810.319216 
L 136.557508 810.319216 
L 138.220197 810.319216 
L 140.266185 810.319216 
L 143.765084 810.319216 
L 146.03639 810.319216 
L 149.377308 810.319216 
L 156.917681 810.319216 
L 158.920937 810.319216 
L 164.478773 810.319216 
L 169.623528 810.319216 
L 172.125331 805.320947 
L 173.973195 810.319216 
L 177.36332 810.319216 
L 182.906913 810.319216 
L 184.759956 810.319216 
L 190.672604 804.668427 
L 195.997353 810.319216 
L 198.036867 810.319216 
L 200.031058 810.319216 
L 204.246053 810.319216 
L 209.231531 810.319216 
L 210.913644 810.319216 
L 212.692877 805.320947 
L 216.891037 801.017915 
L 222.088884 810.319216 
L 224.195734 810.319216 
L 227.771034 810.319216 
L 229.94004 810.319216 
L 235.056306 810.319216 
L 248.058691 802.187621 
L 254.080113 810.319216 
L 263.221019 810.319216 
L 268.708929 805.320947 
L 274.282305 806.668704 
L 287.315768 810.319216 
" clip-path="url(#pbde97c098a)" style="fill: none; stroke: #332288; stroke-width: 3; stroke-linecap: round"/>
   </g>
   <g id="line2d_14">
    <path d="M 47.2035 782.546284 
L 49.221 810.319216 
L 51.239795 810.319216 
L 52.32624 810.319216 
L 54.203888 810.319216 
L 55.970171 810.319216 
L 57.869833 795.271614 
L 59.756545 810.319216 
L 59.756545 810.319216 
L 59.756545 802.187621 
L 62.091302 810.319216 
L 63.880895 792.974747 
L 65.376538 810.319216 
L 65.376538 798.803149 
L 65.376538 781.003999 
L 67.406987 810.319216 
L 67.406987 810.319216 
L 67.406987 792.974747 
L 69.054137 810.319216 
L 69.054137 805.320947 
L 69.054137 805.320947 
L 71.128614 810.319216 
L 71.128614 810.319216 
L 71.128614 790.425897 
L 72.742096 810.319216 
L 72.742096 808.077744 
L 72.742096 794.798422 
L 77.301542 810.319216 
L 78.394462 810.319216 
L 78.394462 810.319216 
L 78.394462 808.077744 
L 80.259161 810.319216 
L 80.259161 810.319216 
L 80.259161 810.319216 
L 82.09537 810.319216 
L 82.09537 810.319216 
L 82.09537 810.319216 
L 83.958774 810.319216 
L 83.958774 810.319216 
L 83.958774 802.187621 
L 85.94908 810.319216 
L 85.94908 808.807037 
L 85.94908 804.668427 
L 88.004133 810.319216 
L 88.004133 810.319216 
L 88.004133 810.319216 
L 91.767197 810.319216 
L 91.767197 810.319216 
L 91.767197 805.320947 
L 95.190991 810.319216 
L 95.190991 808.807037 
L 95.190991 798.803149 
L 97.078998 810.319216 
L 97.078998 810.319216 
L 97.078998 802.187621 
L 99.140525 810.319216 
L 99.140525 810.319216 
L 99.140525 810.319216 
L 102.741723 810.319216 
L 105.151587 810.319216 
L 106.534571 810.319216 
L 106.534571 810.319216 
L 106.534571 810.319216 
L 108.326754 810.319216 
L 108.326754 810.319216 
L 108.326754 810.319216 
L 110.111166 810.319216 
L 110.111166 810.319216 
L 110.111166 810.319216 
L 112.040611 810.319216 
L 112.040611 810.319216 
L 112.040611 810.319216 
L 116.016044 810.319216 
L 117.668374 810.319216 
L 117.668374 810.319216 
L 117.668374 808.807037 
L 121.620498 810.319216 
L 121.620498 802.187621 
L 121.620498 798.273333 
L 123.366063 810.319216 
L 125.212632 810.319216 
L 130.665579 810.319216 
L 134.461017 810.319216 
L 136.557508 810.319216 
L 138.220197 810.319216 
L 140.266185 810.319216 
L 143.765084 808.077744 
L 146.03639 810.319216 
L 149.377308 810.319216 
L 156.917681 810.319216 
L 158.920937 810.319216 
L 164.478773 805.320947 
L 169.623528 810.319216 
L 172.125331 804.668427 
L 173.973195 810.319216 
L 177.36332 810.319216 
L 182.906913 810.319216 
L 184.759956 810.319216 
L 190.672604 808.077744 
L 195.997353 810.319216 
L 198.036867 792.101632 
L 200.031058 810.319216 
L 204.246053 810.319216 
L 209.231531 810.319216 
L 210.913644 810.319216 
L 212.692877 810.319216 
L 216.891037 804.029363 
L 222.088884 810.319216 
L 224.195734 808.077744 
L 227.771034 810.319216 
L 229.94004 810.319216 
L 235.056306 810.319216 
L 248.058691 810.319216 
L 254.080113 810.319216 
L 263.221019 802.187621 
L 268.708929 810.319216 
L 274.282305 793.420704 
L 287.315768 805.320947 
" clip-path="url(#pbde97c098a)" style="fill: none; stroke: #332288; stroke-width: 3; stroke-linecap: round"/>
   </g>
   <g id="line2d_15">
    <path d="M 47.2035 787.323958 
L 49.221 810.319216 
L 51.239795 810.319216 
L 52.32624 808.807037 
L 54.203888 810.319216 
L 55.970171 810.319216 
L 57.869833 805.320947 
L 59.756545 810.319216 
L 59.756545 810.319216 
L 59.756545 794.798422 
L 62.091302 808.077744 
L 63.880895 799.342181 
L 65.376538 808.807037 
L 65.376538 808.077744 
L 65.376538 802.789456 
L 67.406987 810.319216 
L 67.406987 810.319216 
L 67.406987 810.319216 
L 69.054137 808.807037 
L 69.054137 804.668427 
L 69.054137 802.187621 
L 71.128614 810.319216 
L 71.128614 810.319216 
L 71.128614 810.319216 
L 72.742096 810.319216 
L 72.742096 810.319216 
L 72.742096 810.319216 
L 77.301542 810.319216 
L 78.394462 810.319216 
L 78.394462 810.319216 
L 78.394462 802.187621 
L 80.259161 810.319216 
L 80.259161 810.319216 
L 80.259161 802.187621 
L 82.09537 810.319216 
L 82.09537 810.319216 
L 82.09537 810.319216 
L 83.958774 810.319216 
L 83.958774 799.342181 
L 83.958774 799.342181 
L 85.94908 810.319216 
L 85.94908 810.319216 
L 85.94908 804.668427 
L 88.004133 810.319216 
L 88.004133 810.319216 
L 88.004133 804.668427 
L 91.767197 810.319216 
L 91.767197 808.807037 
L 91.767197 805.320947 
L 95.190991 810.319216 
L 95.190991 810.319216 
L 95.190991 804.668427 
L 97.078998 810.319216 
L 97.078998 810.319216 
L 97.078998 804.668427 
L 99.140525 810.319216 
L 99.140525 810.319216 
L 99.140525 802.187621 
L 102.741723 810.319216 
L 105.151587 810.319216 
L 106.534571 810.319216 
L 106.534571 810.319216 
L 106.534571 808.077744 
L 108.326754 810.319216 
L 108.326754 810.319216 
L 108.326754 804.668427 
L 110.111166 810.319216 
L 110.111166 810.319216 
L 110.111166 810.319216 
L 112.040611 810.319216 
L 112.040611 810.319216 
L 112.040611 810.319216 
L 116.016044 810.319216 
L 117.668374 810.319216 
L 117.668374 810.319216 
L 117.668374 810.319216 
L 121.620498 810.319216 
L 121.620498 810.319216 
L 121.620498 810.319216 
L 123.366063 810.319216 
L 125.212632 808.807037 
L 130.665579 805.320947 
L 134.461017 810.319216 
L 136.557508 810.319216 
L 138.220197 810.319216 
L 140.266185 810.319216 
L 143.765084 810.319216 
L 146.03639 810.319216 
L 149.377308 810.319216 
L 156.917681 810.319216 
L 158.920937 810.319216 
L 164.478773 810.319216 
L 169.623528 808.077744 
L 172.125331 807.365217 
L 173.973195 807.365217 
L 177.36332 808.077744 
L 182.906913 810.319216 
L 184.759956 810.319216 
L 190.672604 810.319216 
L 195.997353 801.59725 
L 198.036867 810.319216 
L 200.031058 810.319216 
L 204.246053 810.319216 
L 209.231531 810.319216 
L 210.913644 810.319216 
L 212.692877 808.077744 
L 216.891037 810.319216 
L 222.088884 810.319216 
L 224.195734 810.319216 
L 227.771034 794.798422 
L 229.94004 808.077744 
L 235.056306 810.319216 
L 248.058691 810.319216 
L 254.080113 810.319216 
L 263.221019 810.319216 
L 268.708929 805.320947 
L 274.282305 797.752421 
L 287.315768 810.319216 
" clip-path="url(#pbde97c098a)" style="fill: none; stroke: #332288; stroke-width: 3; stroke-linecap: round"/>
   </g>
   <g id="line2d_16">
    <path d="M 47.2035 775.588137 
L 49.221 800.261938 
L 51.239795 768.739581 
L 52.32624 756.694842 
L 54.203888 744.760117 
L 55.970171 727.868377 
L 57.869833 709.739219 
L 59.756545 695.893255 
L 62.091302 677.748712 
L 63.880895 683.70209 
L 65.376538 695.626187 
L 67.406987 711.787835 
L 69.054137 712.974912 
L 71.128614 715.591921 
L 72.742096 714.466062 
L 77.301542 722.936276 
L 78.394462 723.689908 
L 80.259161 730.736403 
L 82.09537 739.48364 
L 83.958774 743.468745 
L 85.94908 746.555487 
L 88.004133 759.370829 
L 91.767197 769.124599 
L 95.190991 770.16747 
L 97.078998 777.290397 
L 99.140525 791.205939 
L 102.741723 810.319216 
L 105.151587 810.319216 
L 106.534571 808.480786 
L 108.326754 808.971459 
L 110.111166 806.745326 
L 112.040611 805.763719 
L 116.016044 810.319216 
L 117.668374 805.689483 
L 121.620498 808.157934 
L 123.366063 810.319216 
L 125.212632 808.31894 
L 130.665579 810.319216 
L 134.461017 810.319216 
L 136.557508 809.553905 
L 138.220197 799.890753 
L 140.266185 810.319216 
L 143.765084 810.319216 
L 146.03639 809.302944 
L 149.377308 810.319216 
L 156.917681 804.240924 
L 158.920937 809.553905 
L 164.478773 810.319216 
L 169.623528 807.131303 
L 172.125331 810.319216 
L 173.973195 809.302944 
L 177.36332 810.319216 
L 182.906913 808.31894 
L 184.759956 810.319216 
L 190.672604 807.365217 
L 195.997353 810.319216 
L 198.036867 809.553905 
L 200.031058 808.31894 
L 204.246053 810.319216 
L 209.231531 810.319216 
L 210.913644 806.439969 
L 212.692877 809.553905 
L 216.891037 805.763719 
L 222.088884 808.31894 
L 224.195734 810.319216 
L 227.771034 810.319216 
L 229.94004 809.553905 
L 235.056306 810.319216 
L 248.058691 810.319216 
L 254.080113 810.319216 
L 263.221019 809.553905 
L 268.708929 800.07579 
L 274.282305 810.319216 
L 287.315768 810.319216 
" clip-path="url(#pbde97c098a)" style="fill: none; stroke: #000000; stroke-linecap: round"/>
   </g>
   <g id="patch_12">
    <path d="M 47.2035 819.2355 
L 47.2035 639.189641 
" style="fill: none; stroke: #262626; stroke-linejoin: miter; stroke-linecap: square"/>
   </g>
   <g id="patch_13">
    <path d="M 47.2035 819.2355 
L 308.26125 819.2355 
" style="fill: none; stroke: #262626; stroke-linejoin: miter; stroke-linecap: square"/>
   </g>
   <g id="text_24">
    <text style="fill: #262626; font: 9.6px 'Arial', 'DejaVu Sans', 'Liberation Sans', 'Bitstream Vera Sans', sans-serif; text-anchor: middle" x="177.732375" y="634.189641" transform="rotate(-0 177.732375 634.189641)">Phaeobacter gallaeciensis</text>
   </g>
  </g>
 </g>
 <defs>
  <clipPath id="pd99b20560d">
   <rect x="47.2035" y="19.0715" width="261.05775" height="180.045859"/>
  </clipPath>
  <clipPath id="pd269ba6c69">
   <rect x="47.2035" y="225.777547" width="261.05775" height="180.045859"/>
  </clipPath>
  <clipPath id="p14d8bc1d51">
   <rect x="47.2035" y="432.483594" width="261.05775" height="180.045859"/>
  </clipPath>
  <clipPath id="pbde97c098a">
   <rect x="47.2035" y="639.189641" width="261.05775" height="180.045859"/>
  </clipPath>
 </defs>
</svg>
