<?xml version="1.0" encoding="utf-8" standalone="no"?>
<!DOCTYPE svg PUBLIC "-//W3C//DTD SVG 1.1//EN"
  "http://www.w3.org/Graphics/SVG/1.1/DTD/svg11.dtd">
<svg xmlns:xlink="http://www.w3.org/1999/xlink" width="207.46125pt" height="137.175375pt" viewBox="0 0 207.46125 137.175375" xmlns="http://www.w3.org/2000/svg" version="1.1">
 <metadata>
  <rdf:RDF xmlns:dc="http://purl.org/dc/elements/1.1/" xmlns:cc="http://creativecommons.org/ns#" xmlns:rdf="http://www.w3.org/1999/02/22-rdf-syntax-ns#">
   <cc:Work>
    <dc:type rdf:resource="http://purl.org/dc/dcmitype/StillImage"/>
    <dc:date>2024-12-17T13:33:49.079198</dc:date>
    <dc:format>image/svg+xml</dc:format>
    <dc:creator>
     <cc:Agent>
      <dc:title>Matplotlib v3.8.0, https://matplotlib.org/</dc:title>
     </cc:Agent>
    </dc:creator>
   </cc:Work>
  </rdf:RDF>
 </metadata>
 <defs>
  <style type="text/css">*{stroke-linejoin: round; stroke-linecap: butt}</style>
 </defs>
 <g id="figure_1">
  <g id="patch_1">
   <path d="M 0 137.175375 
L 207.46125 137.175375 
L 207.46125 0 
L 0 0 
L 0 137.175375 
z
" style="fill: none"/>
  </g>
  <g id="axes_1">
   <g id="patch_2">
    <path d="M 47.2035 99.2355 
L 200.26125 99.2355 
L 200.26125 19.0715 
L 47.2035 19.0715 
L 47.2035 99.2355 
z
" style="fill: none"/>
   </g>
   <g id="matplotlib.axis_1">
    <g id="xtick_1">
     <g id="text_1">
      <text style="fill: #262626; font: 8.8px 'Arial', 'DejaVu Sans', 'Liberation Sans', 'Bitstream Vera Sans', sans-serif; text-anchor: middle" x="47.2035" y="114.334375" transform="rotate(-0 47.2035 114.334375)">0</text>
     </g>
    </g>
    <g id="xtick_2">
     <g id="text_2">
      <text style="fill: #262626; font: 8.8px 'Arial', 'DejaVu Sans', 'Liberation Sans', 'Bitstream Vera Sans', sans-serif; text-anchor: middle" x="112.799679" y="114.334375" transform="rotate(-0 112.799679 114.334375)">60</text>
     </g>
    </g>
    <g id="xtick_3">
     <g id="text_3">
      <text style="fill: #262626; font: 8.8px 'Arial', 'DejaVu Sans', 'Liberation Sans', 'Bitstream Vera Sans', sans-serif; text-anchor: middle" x="178.395857" y="114.334375" transform="rotate(-0 178.395857 114.334375)">120</text>
     </g>
    </g>
    <g id="text_4">
     <text style="fill: #262626; font: 9.6px 'Arial', 'DejaVu Sans', 'Liberation Sans', 'Bitstream Vera Sans', sans-serif; text-anchor: middle" x="123.732375" y="127.954875" transform="rotate(-0 123.732375 127.954875)">day</text>
    </g>
   </g>
   <g id="matplotlib.axis_2">
    <g id="ytick_1">
     <g id="text_5">
      <!-- $\mathdefault{10^{-1}}$ -->
      <g style="fill: #262626" transform="translate(20.9795 86.284126)">
       <text>
        <tspan style="font: 8.8px 'Arial'" x="0 4.892395" y="-0.4372624999999992">10</tspan>
        <tspan style="font: 6.16px 'Arial'" x="9.938116 13.534183" y="-6.570312499999999">−1</tspan>
       </text>
      </g>
     </g>
    </g>
    <g id="ytick_2">
     <g id="text_6">
      <!-- $\mathdefault{10^{0}}$ -->
      <g style="fill: #262626" transform="translate(24.5875 54.509313)">
       <text>
        <tspan style="font: 8.8px 'Arial'" x="0 4.892395" y="-0.4372624999999992">10</tspan>
        <tspan style="font: 6.16px 'Arial'" x="9.938116" y="-6.570312499999999">0</tspan>
       </text>
      </g>
     </g>
    </g>
    <g id="ytick_3">
     <g id="text_7">
      <!-- $\mathdefault{10^{1}}$ -->
      <g style="fill: #262626" transform="translate(24.5875 22.7345)">
       <text>
        <tspan style="font: 8.8px 'Arial'" x="0 4.892395" y="-0.4372624999999992">10</tspan>
        <tspan style="font: 6.16px 'Arial'" x="9.938116" y="-6.570312499999999">1</tspan>
       </text>
      </g>
     </g>
    </g>
    <g id="ytick_4"/>
    <g id="ytick_5"/>
    <g id="ytick_6"/>
    <g id="ytick_7"/>
    <g id="ytick_8"/>
    <g id="ytick_9"/>
    <g id="ytick_10"/>
    <g id="ytick_11"/>
    <g id="ytick_12"/>
    <g id="ytick_13"/>
    <g id="ytick_14"/>
    <g id="ytick_15"/>
    <g id="ytick_16"/>
    <g id="ytick_17"/>
    <g id="ytick_18"/>
    <g id="ytick_19"/>
    <g id="ytick_20"/>
    <g id="ytick_21"/>
    <g id="ytick_22"/>
    <g id="ytick_23"/>
    <g id="ytick_24"/>
    <g id="ytick_25"/>
    <g id="ytick_26"/>
    <g id="text_8">
     <text style="fill: #262626; font: 9.6px 'Arial', 'DejaVu Sans', 'Liberation Sans', 'Bitstream Vera Sans', sans-serif; text-anchor: middle" x="14.0715" y="59.1535" transform="rotate(-90 14.0715 59.1535)">Fluorescence</text>
    </g>
   </g>
   <g id="line2d_1">
    <path d="M 47.2035 78.377952 
L 48.386357 89.670328 
L 49.569973 91.913029 
L 50.206955 95.265595 
L 51.307816 91.382208 
L 52.343386 94.592309 
L 53.457154 95.265595 
L 54.56333 90.378156 
L 54.56333 89.44223 
L 54.56333 89.217841 
L 55.932195 82.213225 
L 56.98143 76.049272 
L 57.858324 74.206589 
L 57.858324 70.655463 
L 57.858324 70.311886 
L 59.048773 67.552993 
L 59.048773 66.57008 
L 59.048773 63.664365 
L 60.014494 60.439112 
L 60.014494 58.971355 
L 60.014494 58.773862 
L 61.230757 51.20985 
L 61.230757 50.94325 
L 61.230757 50.492108 
L 62.176739 45.871993 
L 62.176739 45.661891 
L 62.176739 45.371164 
L 64.849935 41.433778 
L 65.490712 43.147501 
L 65.490712 41.981708 
L 65.490712 41.930988 
L 66.583982 44.274459 
L 66.583982 44.274459 
L 66.583982 43.564488 
L 67.660549 45.113735 
L 67.660549 44.878919 
L 67.660549 43.960914 
L 68.753059 46.173583 
L 68.753059 45.900893 
L 68.753059 45.728395 
L 69.919973 40.386222 
L 69.919973 39.533658 
L 69.919973 39.364483 
L 71.124847 44.481717 
L 71.124847 43.670734 
L 71.124847 42.98261 
L 73.331126 48.272965 
L 73.331126 48.25008 
L 73.331126 47.482927 
L 75.338491 46.075574 
L 75.338491 45.068267 
L 75.338491 44.656841 
L 76.445426 45.891253 
L 76.445426 44.9868 
L 76.445426 44.369066 
L 77.654096 47.310967 
L 77.654096 47.141124 
L 77.654096 45.766542 
L 79.765473 45.059191 
L 81.178373 46.61329 
L 81.989214 48.023294 
L 81.989214 47.375202 
L 81.989214 46.962926 
L 83.039968 48.905656 
L 83.039968 48.034545 
L 83.039968 47.62424 
L 84.086166 46.562611 
L 84.086166 46.22285 
L 84.086166 46.183422 
L 85.217397 47.015099 
L 85.217397 46.481912 
L 85.217397 46.341813 
L 87.548187 47.526254 
L 88.516945 30.804893 
L 88.516945 30.539415 
L 88.516945 30.192178 
L 90.834069 48.620873 
L 90.834069 47.811245 
L 90.834069 47.800174 
L 91.857491 49.013983 
L 92.940132 49.809858 
L 96.137186 55.572551 
L 98.362446 61.119313 
L 99.591615 62.75194 
L 100.566447 65.692955 
L 101.766007 64.307987 
L 103.817406 58.174305 
L 105.149069 57.113141 
L 107.107843 51.952022 
L 111.528753 50.159891 
L 112.703258 50.003223 
L 115.961809 59.452051 
L 118.97817 59.349451 
L 120.444974 59.764509 
L 121.528374 61.206745 
L 123.515999 59.923431 
L 126.766198 62.492784 
L 127.852635 58.651849 
L 131.319211 61.177539 
L 134.441103 54.169242 
L 135.636867 51.788535 
L 136.806058 58.530904 
L 139.277303 63.456326 
L 142.200281 63.525324 
L 143.186501 63.421956 
L 144.229662 69.120591 
L 146.691038 65.060197 
L 149.738527 68.265696 
L 150.973769 69.32968 
L 153.069962 70.087497 
L 154.341647 68.611322 
L 157.341306 68.265696 
L 164.964584 75.057255 
L 168.494934 75.627232 
L 173.854233 76.396451 
L 177.071786 73.691343 
L 180.339448 81.431906 
L 187.980947 82.347857 
" clip-path="url(#p083f6af339)" style="fill: none; stroke: #882255; stroke-width: 3; stroke-linecap: round"/>
   </g>
   <g id="line2d_2">
    <path d="M 47.2035 82.347857 
L 48.386357 87.347364 
L 49.569973 91.913029 
L 50.206955 95.265595 
L 51.307816 95.265595 
L 52.343386 86.591031 
L 53.457154 95.265595 
L 54.56333 95.265595 
L 54.56333 95.265595 
L 54.56333 92.749626 
L 55.932195 89.217841 
L 56.98143 80.934568 
L 57.858324 80.934568 
L 57.858324 80.337088 
L 57.858324 78.894852 
L 59.048773 71.99392 
L 59.048773 71.369396 
L 59.048773 71.187421 
L 60.014494 66.527023 
L 60.014494 65.254835 
L 60.014494 64.090094 
L 61.230757 58.946514 
L 61.230757 57.690058 
L 61.230757 57.465304 
L 62.176739 52.193333 
L 62.176739 52.162938 
L 62.176739 51.759017 
L 64.849935 39.922058 
L 65.490712 36.881582 
L 65.490712 36.374348 
L 65.490712 36.134682 
L 66.583982 32.765727 
L 66.583982 32.639736 
L 66.583982 32.518541 
L 67.660549 37.073527 
L 67.660549 35.894437 
L 67.660549 35.503095 
L 68.753059 37.449927 
L 68.753059 37.330224 
L 68.753059 37.24756 
L 69.919973 38.497541 
L 69.919973 38.307121 
L 69.919973 38.026329 
L 71.124847 43.362441 
L 71.124847 42.529619 
L 71.124847 41.94546 
L 73.331126 46.421695 
L 73.331126 46.026829 
L 73.331126 45.558027 
L 75.338491 46.085343 
L 75.338491 45.823961 
L 75.338491 45.699854 
L 76.445426 46.694764 
L 76.445426 46.421695 
L 76.445426 46.242606 
L 77.654096 48.929655 
L 77.654096 48.341848 
L 77.654096 48.341848 
L 79.765473 41.371131 
L 81.178373 46.848836 
L 81.989214 49.307084 
L 81.989214 47.613319 
L 81.989214 47.26831 
L 83.039968 49.912649 
L 83.039968 49.733264 
L 83.039968 49.294746 
L 84.086166 48.307363 
L 84.086166 47.97838 
L 84.086166 47.922443 
L 85.217397 37.129592 
L 85.217397 34.492435 
L 85.217397 34.395743 
L 87.548187 44.078717 
L 88.516945 45.186798 
L 88.516945 44.896841 
L 88.516945 44.171986 
L 90.834069 47.321652 
L 90.834069 47.120039 
L 90.834069 46.74593 
L 91.857491 47.343047 
L 92.940132 44.674477 
L 96.137186 50.804976 
L 98.362446 56.559378 
L 99.591615 57.712736 
L 100.566447 57.026487 
L 101.766007 54.506919 
L 103.817406 50.600129 
L 105.149069 47.900132 
L 107.107843 49.644438 
L 111.528753 54.908523 
L 112.703258 55.572551 
L 115.961809 60.274174 
L 118.97817 62.916419 
L 120.444974 62.621753 
L 121.528374 65.572082 
L 123.515999 62.719278 
L 126.766198 65.532025 
L 127.852635 63.319356 
L 131.319211 61.472414 
L 134.441103 56.559378 
L 135.636867 56.769742 
L 136.806058 61.622249 
L 139.277303 62.949551 
L 142.200281 62.524914 
L 143.186501 60.718466 
L 144.229662 67.928516 
L 146.691038 66.919456 
L 149.738527 70.771917 
L 150.973769 70.368559 
L 153.069962 67.928516 
L 154.341647 70.199236 
L 157.341306 68.21702 
L 164.964584 74.50989 
L 168.494934 73.691343 
L 173.854233 76.049272 
L 177.071786 82.213225 
L 180.339448 79.107158 
L 187.980947 87.347364 
" clip-path="url(#p083f6af339)" style="fill: none; stroke: #882255; stroke-width: 3; stroke-linecap: round"/>
   </g>
   <g id="line2d_3">
    <path d="M 47.2035 80.337088 
L 48.386357 88.355083 
L 49.569973 89.44223 
L 50.206955 91.645066 
L 51.307816 95.265595 
L 52.343386 90.622404 
L 53.457154 95.265595 
L 54.56333 90.622404 
L 54.56333 86.591031 
L 54.56333 82.079895 
L 55.932195 75.878904 
L 56.98143 75.217718 
L 57.858324 72.057956 
L 57.858324 70.087497 
L 57.858324 69.22474 
L 59.048773 66.145442 
L 59.048773 64.529376 
L 59.048773 62.949551 
L 60.014494 57.465304 
L 60.014494 56.414008 
L 60.014494 56.290613 
L 61.230757 52.943668 
L 61.230757 51.714859 
L 61.230757 51.266639 
L 62.176739 44.595295 
L 62.176739 44.265891 
L 62.176739 43.919085 
L 64.849935 43.986073 
L 65.490712 44.420944 
L 65.490712 43.827503 
L 65.490712 43.556349 
L 66.583982 45.900893 
L 66.583982 45.785655 
L 66.583982 45.177644 
L 67.660549 47.733936 
L 67.660549 47.450521 
L 67.660549 47.26831 
L 68.753059 45.699854 
L 68.753059 45.576853 
L 68.753059 45.131965 
L 69.919973 48.869735 
L 69.919973 48.869735 
L 69.919973 47.955978 
L 71.124847 51.026884 
L 71.124847 50.709002 
L 71.124847 50.425021 
L 73.331126 50.133656 
L 73.331126 48.798172 
L 73.331126 48.527236 
L 75.338491 50.016211 
L 75.338491 49.925552 
L 75.338491 49.257799 
L 76.445426 49.861158 
L 76.445426 48.364886 
L 76.445426 48.238651 
L 77.654096 52.532181 
L 77.654096 52.208556 
L 77.654096 52.193333 
L 79.765473 47.109509 
L 81.178373 49.644438 
L 81.989214 48.738819 
L 81.989214 48.738819 
L 81.989214 47.933612 
L 83.039968 50.278569 
L 83.039968 49.938467 
L 83.039968 49.531068 
L 84.086166 49.43107 
L 84.086166 48.750669 
L 84.086166 48.585685 
L 85.217397 50.186176 
L 85.217397 48.7744 
L 85.217397 48.307363 
L 87.548187 50.901622 
L 88.516945 49.733264 
L 88.516945 49.619164 
L 88.516945 49.543619 
L 90.834069 52.346324 
L 90.834069 52.254326 
L 90.834069 51.952022 
L 91.857491 52.704776 
L 92.940132 51.981956 
L 96.137186 58.057458 
L 98.362446 58.482822 
L 99.591615 59.247608 
L 100.566447 57.026487 
L 101.766007 56.026982 
L 103.817406 50.99895 
L 105.149069 50.846313 
L 107.107843 53.203128 
L 111.528753 56.434682 
L 112.703258 53.450884 
L 115.961809 62.206936 
L 118.97817 62.589398 
L 120.444974 63.734414 
L 121.528374 63.251377 
L 123.515999 63.217513 
L 126.766198 63.490782 
L 127.852635 59.843741 
L 131.319211 54.542949 
L 134.441103 53.203128 
L 135.636867 52.594693 
L 136.806058 58.104078 
L 139.277303 62.686693 
L 142.200281 60.111184 
L 143.186501 61.206745 
L 144.229662 65.254835 
L 146.691038 68.511685 
L 149.738527 68.024015 
L 150.973769 66.313733 
L 153.069962 65.17665 
L 154.341647 65.333465 
L 157.341306 65.060197 
L 164.964584 69.866699 
L 168.494934 72.648054 
L 173.854233 73.125125 
L 177.071786 75.963825 
L 180.339448 79.214549 
L 187.980947 85.528997 
" clip-path="url(#p083f6af339)" style="fill: none; stroke: #882255; stroke-width: 3; stroke-linecap: round"/>
   </g>
   <g id="patch_3">
    <path d="M 47.2035 99.2355 
L 47.2035 19.0715 
" style="fill: none; stroke: #262626; stroke-linejoin: miter; stroke-linecap: square"/>
   </g>
   <g id="patch_4">
    <path d="M 47.2035 99.2355 
L 200.26125 99.2355 
" style="fill: none; stroke: #262626; stroke-linejoin: miter; stroke-linecap: square"/>
   </g>
   <g id="text_9">
    <text style="fill: #262626; font: 9.6px 'Arial', 'DejaVu Sans', 'Liberation Sans', 'Bitstream Vera Sans', sans-serif; text-anchor: middle" x="123.732375" y="14.0715" transform="rotate(-0 123.732375 14.0715)">A. macleodii 1A3</text>
   </g>
  </g>
 </g>
 <defs>
  <clipPath id="p083f6af339">
   <rect x="47.2035" y="19.0715" width="153.05775" height="80.164"/>
  </clipPath>
 </defs>
</svg>
