<?xml version="1.0" encoding="utf-8" standalone="no"?>
<!DOCTYPE svg PUBLIC "-//W3C//DTD SVG 1.1//EN"
  "http://www.w3.org/Graphics/SVG/1.1/DTD/svg11.dtd">
<svg xmlns:xlink="http://www.w3.org/1999/xlink" width="360.712671pt" height="209.39025pt" viewBox="0 0 360.712671 209.39025" xmlns="http://www.w3.org/2000/svg" version="1.1">
 <metadata>
  <rdf:RDF xmlns:dc="http://purl.org/dc/elements/1.1/" xmlns:cc="http://creativecommons.org/ns#" xmlns:rdf="http://www.w3.org/1999/02/22-rdf-syntax-ns#">
   <cc:Work>
    <dc:type rdf:resource="http://purl.org/dc/dcmitype/StillImage"/>
    <dc:date>2024-12-17T13:34:11.003186</dc:date>
    <dc:format>image/svg+xml</dc:format>
    <dc:creator>
     <cc:Agent>
      <dc:title>Matplotlib v3.8.0, https://matplotlib.org/</dc:title>
     </cc:Agent>
    </dc:creator>
   </cc:Work>
  </rdf:RDF>
 </metadata>
 <defs>
  <style type="text/css">*{stroke-linejoin: round; stroke-linecap: butt}</style>
 </defs>
 <g id="figure_1">
  <g id="patch_1">
   <path d="M 0 209.39025 
L 360.712671 209.39025 
L 360.712671 0 
L 0 0 
L 0 209.39025 
z
" style="fill: none"/>
  </g>
  <g id="axes_1">
   <g id="patch_2">
    <path d="M 45.04 171.562875 
L 194.234621 171.562875 
L 194.234621 16.498875 
L 45.04 16.498875 
L 45.04 171.562875 
z
" style="fill: none"/>
   </g>
   <g id="matplotlib.axis_1">
    <g id="xtick_1">
     <g id="text_1">
      <text style="fill: #262626; font: 8.8px 'Arial', 'DejaVu Sans', 'Liberation Sans', 'Bitstream Vera Sans', sans-serif; text-anchor: middle" x="52.144506" y="186.66175" transform="rotate(-0 52.144506 186.66175)">0</text>
     </g>
    </g>
    <g id="xtick_2">
     <g id="text_2">
      <text style="fill: #262626; font: 8.8px 'Arial', 'DejaVu Sans', 'Liberation Sans', 'Bitstream Vera Sans', sans-serif; text-anchor: middle" x="87.667035" y="186.66175" transform="rotate(-0 87.667035 186.66175)">1</text>
     </g>
    </g>
    <g id="xtick_3">
     <g id="text_3">
      <text style="fill: #262626; font: 8.8px 'Arial', 'DejaVu Sans', 'Liberation Sans', 'Bitstream Vera Sans', sans-serif; text-anchor: middle" x="123.189563" y="186.66175" transform="rotate(-0 123.189563 186.66175)">2</text>
     </g>
    </g>
    <g id="xtick_4">
     <g id="text_4">
      <text style="fill: #262626; font: 8.8px 'Arial', 'DejaVu Sans', 'Liberation Sans', 'Bitstream Vera Sans', sans-serif; text-anchor: middle" x="158.712092" y="186.66175" transform="rotate(-0 158.712092 186.66175)">3</text>
     </g>
    </g>
    <g id="xtick_5">
     <g id="text_5">
      <text style="fill: #262626; font: 8.8px 'Arial', 'DejaVu Sans', 'Liberation Sans', 'Bitstream Vera Sans', sans-serif; text-anchor: middle" x="194.234621" y="186.66175" transform="rotate(-0 194.234621 186.66175)">4</text>
     </g>
    </g>
    <g id="text_6">
     <text style="fill: #262626; font: 9.6px 'Arial', 'DejaVu Sans', 'Liberation Sans', 'Bitstream Vera Sans', sans-serif; text-anchor: middle" x="119.637311" y="200.28225" transform="rotate(-0 119.637311 200.28225)">Fluorescence</text>
    </g>
   </g>
   <g id="matplotlib.axis_2">
    <g id="ytick_1">
     <g id="text_7">
      <text style="fill: #262626; font: 8.8px 'Arial', 'DejaVu Sans', 'Liberation Sans', 'Bitstream Vera Sans', sans-serif; text-anchor: end" x="36.24" y="169.138903" transform="rotate(-0 36.24 169.138903)">0.0</text>
     </g>
    </g>
    <g id="ytick_2">
     <g id="text_8">
      <text style="fill: #262626; font: 8.8px 'Arial', 'DejaVu Sans', 'Liberation Sans', 'Bitstream Vera Sans', sans-serif; text-anchor: end" x="36.24" y="150.343267" transform="rotate(-0 36.24 150.343267)">0.2</text>
     </g>
    </g>
    <g id="ytick_3">
     <g id="text_9">
      <text style="fill: #262626; font: 8.8px 'Arial', 'DejaVu Sans', 'Liberation Sans', 'Bitstream Vera Sans', sans-serif; text-anchor: end" x="36.24" y="131.547631" transform="rotate(-0 36.24 131.547631)">0.4</text>
     </g>
    </g>
    <g id="ytick_4">
     <g id="text_10">
      <text style="fill: #262626; font: 8.8px 'Arial', 'DejaVu Sans', 'Liberation Sans', 'Bitstream Vera Sans', sans-serif; text-anchor: end" x="36.24" y="112.751994" transform="rotate(-0 36.24 112.751994)">0.6</text>
     </g>
    </g>
    <g id="ytick_5">
     <g id="text_11">
      <text style="fill: #262626; font: 8.8px 'Arial', 'DejaVu Sans', 'Liberation Sans', 'Bitstream Vera Sans', sans-serif; text-anchor: end" x="36.24" y="93.956358" transform="rotate(-0 36.24 93.956358)">0.8</text>
     </g>
    </g>
    <g id="ytick_6">
     <g id="text_12">
      <text style="fill: #262626; font: 8.8px 'Arial', 'DejaVu Sans', 'Liberation Sans', 'Bitstream Vera Sans', sans-serif; text-anchor: end" x="36.24" y="75.160722" transform="rotate(-0 36.24 75.160722)">1.0</text>
     </g>
    </g>
    <g id="ytick_7">
     <g id="text_13">
      <text style="fill: #262626; font: 8.8px 'Arial', 'DejaVu Sans', 'Liberation Sans', 'Bitstream Vera Sans', sans-serif; text-anchor: end" x="36.24" y="56.365085" transform="rotate(-0 36.24 56.365085)">1.2</text>
     </g>
    </g>
    <g id="ytick_8">
     <g id="text_14">
      <text style="fill: #262626; font: 8.8px 'Arial', 'DejaVu Sans', 'Liberation Sans', 'Bitstream Vera Sans', sans-serif; text-anchor: end" x="36.24" y="37.569449" transform="rotate(-0 36.24 37.569449)">1.4</text>
     </g>
    </g>
    <g id="ytick_9">
     <g id="text_15">
      <text style="fill: #262626; font: 8.8px 'Arial', 'DejaVu Sans', 'Liberation Sans', 'Bitstream Vera Sans', sans-serif; text-anchor: end" x="36.24" y="18.773812" transform="rotate(-0 36.24 18.773812)">1.6</text>
     </g>
    </g>
    <g id="text_16">
     <!-- $\mathregular{10^8}$ cell/ml -->
     <g style="fill: #262626" transform="translate(17.1 116.542875) rotate(-90)">
      <text>
       <tspan style="font: 9.6px 'Arial'" x="0 5.335587 15.051249 17.7167 22.513575 27.849161 29.980585 32.112009 34.77746 42.769129" y="-0.4859624999999994">10 cell/ml</tspan>
       <tspan style="font: 6.72px 'Arial'" x="10.838438" y="-7.1765625">8</tspan>
      </text>
     </g>
    </g>
    <g id="text_17">
     <text style="fill: #262626; font: 8.8px 'Arial', 'DejaVu Sans', 'Liberation Sans', 'Bitstream Vera Sans', sans-serif; text-anchor: start" x="45.04" y="13.498875" transform="rotate(-0 45.04 13.498875)">1e8</text>
    </g>
   </g>
   <g id="PathCollection_1">
    <path d="M 66.38904 160.597926 
L 69.127653 155.1207 
L 63.650427 155.1207 
z
" clip-path="url(#p516c5d0b6d)" style="fill: #88ccee; fill-opacity: 0.8; stroke: #ffffff; stroke-opacity: 0.8; stroke-width: 0.5"/>
    <path d="M 66.9574 160.597926 
L 69.696013 155.1207 
L 64.218787 155.1207 
z
" clip-path="url(#p516c5d0b6d)" style="fill: #88ccee; fill-opacity: 0.8; stroke: #ffffff; stroke-opacity: 0.8; stroke-width: 0.5"/>
    <path d="M 66.460085 160.597926 
L 69.198698 155.1207 
L 63.721472 155.1207 
z
" clip-path="url(#p516c5d0b6d)" style="fill: #88ccee; fill-opacity: 0.8; stroke: #ffffff; stroke-opacity: 0.8; stroke-width: 0.5"/>
    <path d="M 62.872309 164.961471 
L 65.610922 159.484245 
L 60.133697 159.484245 
z
" clip-path="url(#p516c5d0b6d)" style="fill: #88ccee; fill-opacity: 0.8; stroke: #ffffff; stroke-opacity: 0.8; stroke-width: 0.5"/>
    <path d="M 62.907832 164.961471 
L 65.646445 159.484245 
L 60.169219 159.484245 
z
" clip-path="url(#p516c5d0b6d)" style="fill: #88ccee; fill-opacity: 0.8; stroke: #ffffff; stroke-opacity: 0.8; stroke-width: 0.5"/>
    <path d="M 65.145751 164.961471 
L 67.884364 159.484245 
L 62.407139 159.484245 
z
" clip-path="url(#p516c5d0b6d)" style="fill: #88ccee; fill-opacity: 0.8; stroke: #ffffff; stroke-opacity: 0.8; stroke-width: 0.5"/>
    <path d="M 63.29858 165.452634 
L 66.037193 159.975408 
L 60.559967 159.975408 
z
" clip-path="url(#p516c5d0b6d)" style="fill: #88ccee; fill-opacity: 0.8; stroke: #ffffff; stroke-opacity: 0.8; stroke-width: 0.5"/>
    <path d="M 61.913201 165.452634 
L 64.651814 159.975408 
L 59.174588 159.975408 
z
" clip-path="url(#p516c5d0b6d)" style="fill: #88ccee; fill-opacity: 0.8; stroke: #ffffff; stroke-opacity: 0.8; stroke-width: 0.5"/>
    <path d="M 63.902463 165.452634 
L 66.641076 159.975408 
L 61.16385 159.975408 
z
" clip-path="url(#p516c5d0b6d)" style="fill: #88ccee; fill-opacity: 0.8; stroke: #ffffff; stroke-opacity: 0.8; stroke-width: 0.5"/>
    <path d="M 103.61665 129.753248 
C 104.342939 129.753248 105.039578 129.46469 105.553142 128.951127 
C 106.066705 128.437563 106.355263 127.740923 106.355263 127.014635 
C 106.355263 126.288346 106.066705 125.591707 105.553142 125.078143 
C 105.039578 124.56458 104.342939 124.276022 103.61665 124.276022 
C 102.890361 124.276022 102.193722 124.56458 101.680158 125.078143 
C 101.166595 125.591707 100.878037 126.288346 100.878037 127.014635 
C 100.878037 127.740923 101.166595 128.437563 101.680158 128.951127 
C 102.193722 129.46469 102.890361 129.753248 103.61665 129.753248 
z
" clip-path="url(#p516c5d0b6d)" style="fill: #882255; fill-opacity: 0.8; stroke: #ffffff; stroke-opacity: 0.8; stroke-width: 0.5"/>
    <path d="M 102.977244 129.753248 
C 103.703533 129.753248 104.400173 129.46469 104.913736 128.951127 
C 105.4273 128.437563 105.715857 127.740923 105.715857 127.014635 
C 105.715857 126.288346 105.4273 125.591707 104.913736 125.078143 
C 104.400173 124.56458 103.703533 124.276022 102.977244 124.276022 
C 102.250956 124.276022 101.554316 124.56458 101.040753 125.078143 
C 100.527189 125.591707 100.238632 126.288346 100.238632 127.014635 
C 100.238632 127.740923 100.527189 128.437563 101.040753 128.951127 
C 101.554316 129.46469 102.250956 129.753248 102.977244 129.753248 
z
" clip-path="url(#p516c5d0b6d)" style="fill: #882255; fill-opacity: 0.8; stroke: #ffffff; stroke-opacity: 0.8; stroke-width: 0.5"/>
    <path d="M 101.982614 129.753248 
C 102.708902 129.753248 103.405542 129.46469 103.919105 128.951127 
C 104.432669 128.437563 104.721226 127.740923 104.721226 127.014635 
C 104.721226 126.288346 104.432669 125.591707 103.919105 125.078143 
C 103.405542 124.56458 102.708902 124.276022 101.982614 124.276022 
C 101.256325 124.276022 100.559686 124.56458 100.046122 125.078143 
C 99.532558 125.591707 99.244001 126.288346 99.244001 127.014635 
C 99.244001 127.740923 99.532558 128.437563 100.046122 128.951127 
C 100.559686 129.46469 101.256325 129.753248 101.982614 129.753248 
z
" clip-path="url(#p516c5d0b6d)" style="fill: #882255; fill-opacity: 0.8; stroke: #ffffff; stroke-opacity: 0.8; stroke-width: 0.5"/>
    <path d="M 145.923982 104.46628 
C 146.65027 104.46628 147.34691 104.177723 147.860474 103.664159 
C 148.374037 103.150596 148.662595 102.453956 148.662595 101.727668 
C 148.662595 101.001379 148.374037 100.304739 147.860474 99.791176 
C 147.34691 99.277612 146.65027 98.989055 145.923982 98.989055 
C 145.197693 98.989055 144.501054 99.277612 143.98749 99.791176 
C 143.473927 100.304739 143.185369 101.001379 143.185369 101.727668 
C 143.185369 102.453956 143.473927 103.150596 143.98749 103.664159 
C 144.501054 104.177723 145.197693 104.46628 145.923982 104.46628 
z
" clip-path="url(#p516c5d0b6d)" style="fill: #882255; fill-opacity: 0.8; stroke: #ffffff; stroke-opacity: 0.8; stroke-width: 0.5"/>
    <path d="M 147.30936 104.46628 
C 148.035649 104.46628 148.732289 104.177723 149.245852 103.664159 
C 149.759416 103.150596 150.047973 102.453956 150.047973 101.727668 
C 150.047973 101.001379 149.759416 100.304739 149.245852 99.791176 
C 148.732289 99.277612 148.035649 98.989055 147.30936 98.989055 
C 146.583072 98.989055 145.886432 99.277612 145.372869 99.791176 
C 144.859305 100.304739 144.570748 101.001379 144.570748 101.727668 
C 144.570748 102.453956 144.859305 103.150596 145.372869 103.664159 
C 145.886432 104.177723 146.583072 104.46628 147.30936 104.46628 
z
" clip-path="url(#p516c5d0b6d)" style="fill: #882255; fill-opacity: 0.8; stroke: #ffffff; stroke-opacity: 0.8; stroke-width: 0.5"/>
    <path d="M 146.741 104.46628 
C 147.467289 104.46628 148.163928 104.177723 148.677492 103.664159 
C 149.191055 103.150596 149.479613 102.453956 149.479613 101.727668 
C 149.479613 101.001379 149.191055 100.304739 148.677492 99.791176 
C 148.163928 99.277612 147.467289 98.989055 146.741 98.989055 
C 146.014711 98.989055 145.318072 99.277612 144.804508 99.791176 
C 144.290945 100.304739 144.002387 101.001379 144.002387 101.727668 
C 144.002387 102.453956 144.290945 103.150596 144.804508 103.664159 
C 145.318072 104.177723 146.014711 104.46628 146.741 104.46628 
z
" clip-path="url(#p516c5d0b6d)" style="fill: #882255; fill-opacity: 0.8; stroke: #ffffff; stroke-opacity: 0.8; stroke-width: 0.5"/>
    <path d="M 103.723218 142.332769 
C 104.449506 142.332769 105.146146 142.044211 105.659709 141.530647 
C 106.173273 141.017084 106.46183 140.320444 106.46183 139.594156 
C 106.46183 138.867867 106.173273 138.171228 105.659709 137.657664 
C 105.146146 137.144101 104.449506 136.855543 103.723218 136.855543 
C 102.996929 136.855543 102.30029 137.144101 101.786726 137.657664 
C 101.273162 138.171228 100.984605 138.867867 100.984605 139.594156 
C 100.984605 140.320444 101.273162 141.017084 101.786726 141.530647 
C 102.30029 142.044211 102.996929 142.332769 103.723218 142.332769 
z
" clip-path="url(#p516c5d0b6d)" style="fill: #882255; fill-opacity: 0.8; stroke: #ffffff; stroke-opacity: 0.8; stroke-width: 0.5"/>
    <path d="M 105.890092 142.332769 
C 106.61638 142.332769 107.31302 142.044211 107.826584 141.530647 
C 108.340147 141.017084 108.628705 140.320444 108.628705 139.594156 
C 108.628705 138.867867 108.340147 138.171228 107.826584 137.657664 
C 107.31302 137.144101 106.61638 136.855543 105.890092 136.855543 
C 105.163803 136.855543 104.467164 137.144101 103.9536 137.657664 
C 103.440037 138.171228 103.151479 138.867867 103.151479 139.594156 
C 103.151479 140.320444 103.440037 141.017084 103.9536 141.530647 
C 104.467164 142.044211 105.163803 142.332769 105.890092 142.332769 
z
" clip-path="url(#p516c5d0b6d)" style="fill: #882255; fill-opacity: 0.8; stroke: #ffffff; stroke-opacity: 0.8; stroke-width: 0.5"/>
    <path d="M 104.18501 142.332769 
C 104.911299 142.332769 105.607939 142.044211 106.121502 141.530647 
C 106.635066 141.017084 106.923623 140.320444 106.923623 139.594156 
C 106.923623 138.867867 106.635066 138.171228 106.121502 137.657664 
C 105.607939 137.144101 104.911299 136.855543 104.18501 136.855543 
C 103.458722 136.855543 102.762082 137.144101 102.248519 137.657664 
C 101.734955 138.171228 101.446398 138.867867 101.446398 139.594156 
C 101.446398 140.320444 101.734955 141.017084 102.248519 141.530647 
C 102.762082 142.044211 103.458722 142.332769 104.18501 142.332769 
z
" clip-path="url(#p516c5d0b6d)" style="fill: #882255; fill-opacity: 0.8; stroke: #ffffff; stroke-opacity: 0.8; stroke-width: 0.5"/>
    <path d="M 76.706645 156.718502 
L 78.075952 155.349195 
L 79.445258 156.718502 
L 80.814565 155.349195 
L 79.445258 153.979889 
L 80.814565 152.610582 
L 79.445258 151.241276 
L 78.075952 152.610582 
L 76.706645 151.241276 
L 75.337339 152.610582 
L 76.706645 153.979889 
L 75.337339 155.349195 
z
" clip-path="url(#p516c5d0b6d)" style="fill: #882255; fill-opacity: 0.8; stroke: #ffffff; stroke-opacity: 0.8; stroke-width: 0.5"/>
    <path d="M 76.386943 156.718502 
L 77.756249 155.349195 
L 79.125555 156.718502 
L 80.494862 155.349195 
L 79.125555 153.979889 
L 80.494862 152.610582 
L 79.125555 151.241276 
L 77.756249 152.610582 
L 76.386943 151.241276 
L 75.017636 152.610582 
L 76.386943 153.979889 
L 75.017636 155.349195 
z
" clip-path="url(#p516c5d0b6d)" style="fill: #882255; fill-opacity: 0.8; stroke: #ffffff; stroke-opacity: 0.8; stroke-width: 0.5"/>
    <path d="M 77.417096 156.718502 
L 78.786402 155.349195 
L 80.155709 156.718502 
L 81.525015 155.349195 
L 80.155709 153.979889 
L 81.525015 152.610582 
L 80.155709 151.241276 
L 78.786402 152.610582 
L 77.417096 151.241276 
L 76.04779 152.610582 
L 77.417096 153.979889 
L 76.04779 155.349195 
z
" clip-path="url(#p516c5d0b6d)" style="fill: #882255; fill-opacity: 0.8; stroke: #ffffff; stroke-opacity: 0.8; stroke-width: 0.5"/>
    <path d="M 175.10405 118.771033 
L 176.473357 117.401727 
L 177.842663 118.771033 
L 179.211969 117.401727 
L 177.842663 116.03242 
L 179.211969 114.663114 
L 177.842663 113.293807 
L 176.473357 114.663114 
L 175.10405 113.293807 
L 173.734744 114.663114 
L 175.10405 116.03242 
L 173.734744 117.401727 
z
" clip-path="url(#p516c5d0b6d)" style="fill: #882255; fill-opacity: 0.8; stroke: #ffffff; stroke-opacity: 0.8; stroke-width: 0.5"/>
    <path d="M 175.459276 118.771033 
L 176.828582 117.401727 
L 178.197888 118.771033 
L 179.567195 117.401727 
L 178.197888 116.03242 
L 179.567195 114.663114 
L 178.197888 113.293807 
L 176.828582 114.663114 
L 175.459276 113.293807 
L 174.089969 114.663114 
L 175.459276 116.03242 
L 174.089969 117.401727 
z
" clip-path="url(#p516c5d0b6d)" style="fill: #882255; fill-opacity: 0.8; stroke: #ffffff; stroke-opacity: 0.8; stroke-width: 0.5"/>
    <path d="M 170.663734 118.771033 
L 172.033041 117.401727 
L 173.402347 118.771033 
L 174.771653 117.401727 
L 173.402347 116.03242 
L 174.771653 114.663114 
L 173.402347 113.293807 
L 172.033041 114.663114 
L 170.663734 113.293807 
L 169.294428 114.663114 
L 170.663734 116.03242 
L 169.294428 117.401727 
z
" clip-path="url(#p516c5d0b6d)" style="fill: #882255; fill-opacity: 0.8; stroke: #ffffff; stroke-opacity: 0.8; stroke-width: 0.5"/>
    <path d="M 137.237035 30.700889 
L 138.606341 29.331583 
L 139.975647 30.700889 
L 141.344954 29.331583 
L 139.975647 27.962277 
L 141.344954 26.59297 
L 139.975647 25.223664 
L 138.606341 26.59297 
L 137.237035 25.223664 
L 135.867728 26.59297 
L 137.237035 27.962277 
L 135.867728 29.331583 
z
" clip-path="url(#p516c5d0b6d)" style="fill: #882255; fill-opacity: 0.8; stroke: #ffffff; stroke-opacity: 0.8; stroke-width: 0.5"/>
    <path d="M 142.103621 30.700889 
L 143.472927 29.331583 
L 144.842234 30.700889 
L 146.21154 29.331583 
L 144.842234 27.962277 
L 146.21154 26.59297 
L 144.842234 25.223664 
L 143.472927 26.59297 
L 142.103621 25.223664 
L 140.734315 26.59297 
L 142.103621 27.962277 
L 140.734315 29.331583 
z
" clip-path="url(#p516c5d0b6d)" style="fill: #882255; fill-opacity: 0.8; stroke: #ffffff; stroke-opacity: 0.8; stroke-width: 0.5"/>
    <path d="M 145.087513 30.700889 
L 146.45682 29.331583 
L 147.826126 30.700889 
L 149.195433 29.331583 
L 147.826126 27.962277 
L 149.195433 26.59297 
L 147.826126 25.223664 
L 146.45682 26.59297 
L 145.087513 25.223664 
L 143.718207 26.59297 
L 145.087513 27.962277 
L 143.718207 29.331583 
z
" clip-path="url(#p516c5d0b6d)" style="fill: #882255; fill-opacity: 0.8; stroke: #ffffff; stroke-opacity: 0.8; stroke-width: 0.5"/>
    <path d="M 56.631059 166.986564 
L 58.456801 166.986564 
L 58.456801 165.160822 
L 60.282543 165.160822 
L 60.282543 163.33508 
L 58.456801 163.33508 
L 58.456801 161.509339 
L 56.631059 161.509339 
L 56.631059 163.33508 
L 54.805317 163.33508 
L 54.805317 165.160822 
L 56.631059 165.160822 
z
" clip-path="url(#p516c5d0b6d)" style="fill: #cc6677; fill-opacity: 0.8; stroke: #ffffff; stroke-opacity: 0.8; stroke-width: 0.5"/>
    <path d="M 56.737627 166.986564 
L 58.563369 166.986564 
L 58.563369 165.160822 
L 60.389111 165.160822 
L 60.389111 163.33508 
L 58.563369 163.33508 
L 58.563369 161.509339 
L 56.737627 161.509339 
L 56.737627 163.33508 
L 54.911885 163.33508 
L 54.911885 165.160822 
L 56.737627 165.160822 
z
" clip-path="url(#p516c5d0b6d)" style="fill: #cc6677; fill-opacity: 0.8; stroke: #ffffff; stroke-opacity: 0.8; stroke-width: 0.5"/>
    <path d="M 56.737627 166.986564 
L 58.563369 166.986564 
L 58.563369 165.160822 
L 60.389111 165.160822 
L 60.389111 163.33508 
L 58.563369 163.33508 
L 58.563369 161.509339 
L 56.737627 161.509339 
L 56.737627 163.33508 
L 54.911885 163.33508 
L 54.911885 165.160822 
L 56.737627 165.160822 
z
" clip-path="url(#p516c5d0b6d)" style="fill: #cc6677; fill-opacity: 0.8; stroke: #ffffff; stroke-opacity: 0.8; stroke-width: 0.5"/>
    <path d="M 58.336141 166.800544 
L 60.161882 166.800544 
L 60.161882 164.974802 
L 61.987624 164.974802 
L 61.987624 163.149061 
L 60.161882 163.149061 
L 60.161882 161.323319 
L 58.336141 161.323319 
L 58.336141 163.149061 
L 56.510399 163.149061 
L 56.510399 164.974802 
L 58.336141 164.974802 
z
" clip-path="url(#p516c5d0b6d)" style="fill: #cc6677; fill-opacity: 0.8; stroke: #ffffff; stroke-opacity: 0.8; stroke-width: 0.5"/>
    <path d="M 56.950762 166.800544 
L 58.776504 166.800544 
L 58.776504 164.974802 
L 60.602246 164.974802 
L 60.602246 163.149061 
L 58.776504 163.149061 
L 58.776504 161.323319 
L 56.950762 161.323319 
L 56.950762 163.149061 
L 55.12502 163.149061 
L 55.12502 164.974802 
L 56.950762 164.974802 
z
" clip-path="url(#p516c5d0b6d)" style="fill: #cc6677; fill-opacity: 0.8; stroke: #ffffff; stroke-opacity: 0.8; stroke-width: 0.5"/>
    <path d="M 57.092852 166.800544 
L 58.918594 166.800544 
L 58.918594 164.974802 
L 60.744336 164.974802 
L 60.744336 163.149061 
L 58.918594 163.149061 
L 58.918594 161.323319 
L 57.092852 161.323319 
L 57.092852 163.149061 
L 55.26711 163.149061 
L 55.26711 164.974802 
L 57.092852 164.974802 
z
" clip-path="url(#p516c5d0b6d)" style="fill: #cc6677; fill-opacity: 0.8; stroke: #ffffff; stroke-opacity: 0.8; stroke-width: 0.5"/>
    <path d="M 58.549276 166.603962 
L 60.375018 166.603962 
L 60.375018 164.77822 
L 62.200759 164.77822 
L 62.200759 162.952478 
L 60.375018 162.952478 
L 60.375018 161.126736 
L 58.549276 161.126736 
L 58.549276 162.952478 
L 56.723534 162.952478 
L 56.723534 164.77822 
L 58.549276 164.77822 
z
" clip-path="url(#p516c5d0b6d)" style="fill: #cc6677; fill-opacity: 0.8; stroke: #ffffff; stroke-opacity: 0.8; stroke-width: 0.5"/>
    <path d="M 58.904501 166.603962 
L 60.730243 166.603962 
L 60.730243 164.77822 
L 62.555985 164.77822 
L 62.555985 162.952478 
L 60.730243 162.952478 
L 60.730243 161.126736 
L 58.904501 161.126736 
L 58.904501 162.952478 
L 57.078759 162.952478 
L 57.078759 164.77822 
L 58.904501 164.77822 
z
" clip-path="url(#p516c5d0b6d)" style="fill: #cc6677; fill-opacity: 0.8; stroke: #ffffff; stroke-opacity: 0.8; stroke-width: 0.5"/>
    <path d="M 58.05196 166.603962 
L 59.877702 166.603962 
L 59.877702 164.77822 
L 61.703444 164.77822 
L 61.703444 162.952478 
L 59.877702 162.952478 
L 59.877702 161.126736 
L 58.05196 161.126736 
L 58.05196 162.952478 
L 56.226219 162.952478 
L 56.226219 164.77822 
L 58.05196 164.77822 
z
" clip-path="url(#p516c5d0b6d)" style="fill: #cc6677; fill-opacity: 0.8; stroke: #ffffff; stroke-opacity: 0.8; stroke-width: 0.5"/>
    <path d="M 61.894926 161.857266 
L 61.894926 165.730249 
L 65.767909 165.730249 
L 65.767909 161.857266 
z
" clip-path="url(#p516c5d0b6d)" style="fill: #cc6677; fill-opacity: 0.8; stroke: #ffffff; stroke-opacity: 0.8; stroke-width: 0.5"/>
    <path d="M 62.889557 161.857266 
L 62.889557 165.730249 
L 66.76254 165.730249 
L 66.76254 161.857266 
z
" clip-path="url(#p516c5d0b6d)" style="fill: #cc6677; fill-opacity: 0.8; stroke: #ffffff; stroke-opacity: 0.8; stroke-width: 0.5"/>
    <path d="M 63.06717 161.857266 
L 63.06717 165.730249 
L 66.940153 165.730249 
L 66.940153 161.857266 
z
" clip-path="url(#p516c5d0b6d)" style="fill: #cc6677; fill-opacity: 0.8; stroke: #ffffff; stroke-opacity: 0.8; stroke-width: 0.5"/>
    <path d="M 59.372827 163.492128 
L 59.372827 167.365112 
L 63.24581 167.365112 
L 63.24581 163.492128 
z
" clip-path="url(#p516c5d0b6d)" style="fill: #cc6677; fill-opacity: 0.8; stroke: #ffffff; stroke-opacity: 0.8; stroke-width: 0.5"/>
    <path d="M 57.916403 163.492128 
L 57.916403 167.365112 
L 61.789386 167.365112 
L 61.789386 163.492128 
z
" clip-path="url(#p516c5d0b6d)" style="fill: #cc6677; fill-opacity: 0.8; stroke: #ffffff; stroke-opacity: 0.8; stroke-width: 0.5"/>
    <path d="M 59.266259 163.492128 
L 59.266259 167.365112 
L 63.139242 167.365112 
L 63.139242 163.492128 
z
" clip-path="url(#p516c5d0b6d)" style="fill: #cc6677; fill-opacity: 0.8; stroke: #ffffff; stroke-opacity: 0.8; stroke-width: 0.5"/>
    <path d="M 59.728052 161.514567 
L 59.728052 165.38755 
L 63.601035 165.38755 
L 63.601035 161.514567 
z
" clip-path="url(#p516c5d0b6d)" style="fill: #cc6677; fill-opacity: 0.8; stroke: #ffffff; stroke-opacity: 0.8; stroke-width: 0.5"/>
    <path d="M 58.236106 161.514567 
L 58.236106 165.38755 
L 62.109089 165.38755 
L 62.109089 161.514567 
z
" clip-path="url(#p516c5d0b6d)" style="fill: #cc6677; fill-opacity: 0.8; stroke: #ffffff; stroke-opacity: 0.8; stroke-width: 0.5"/>
    <path d="M 58.946556 161.514567 
L 58.946556 165.38755 
L 62.81954 165.38755 
L 62.81954 161.514567 
z
" clip-path="url(#p516c5d0b6d)" style="fill: #cc6677; fill-opacity: 0.8; stroke: #ffffff; stroke-opacity: 0.8; stroke-width: 0.5"/>
    <path d="M 54.31138 163.813755 
L 51.572767 166.552368 
L 54.31138 169.290981 
L 57.049993 166.552368 
z
" clip-path="url(#p516c5d0b6d)" style="fill: #44aa99; fill-opacity: 0.8; stroke: #ffffff; stroke-opacity: 0.8; stroke-width: 0.5"/>
    <path d="M 55.838849 163.813755 
L 53.100236 166.552368 
L 55.838849 169.290981 
L 58.577462 166.552368 
z
" clip-path="url(#p516c5d0b6d)" style="fill: #44aa99; fill-opacity: 0.8; stroke: #ffffff; stroke-opacity: 0.8; stroke-width: 0.5"/>
    <path d="M 53.671975 163.813755 
L 50.933362 166.552368 
L 53.671975 169.290981 
L 56.410587 166.552368 
z
" clip-path="url(#p516c5d0b6d)" style="fill: #44aa99; fill-opacity: 0.8; stroke: #ffffff; stroke-opacity: 0.8; stroke-width: 0.5"/>
    <path d="M 54.204812 163.790283 
L 51.4662 166.528895 
L 54.204812 169.267508 
L 56.943425 166.528895 
z
" clip-path="url(#p516c5d0b6d)" style="fill: #44aa99; fill-opacity: 0.8; stroke: #ffffff; stroke-opacity: 0.8; stroke-width: 0.5"/>
    <path d="M 54.488993 163.790283 
L 51.75038 166.528895 
L 54.488993 169.267508 
L 57.227605 166.528895 
z
" clip-path="url(#p516c5d0b6d)" style="fill: #44aa99; fill-opacity: 0.8; stroke: #ffffff; stroke-opacity: 0.8; stroke-width: 0.5"/>
    <path d="M 55.732281 163.790283 
L 52.993668 166.528895 
L 55.732281 169.267508 
L 58.470894 166.528895 
z
" clip-path="url(#p516c5d0b6d)" style="fill: #44aa99; fill-opacity: 0.8; stroke: #ffffff; stroke-opacity: 0.8; stroke-width: 0.5"/>
    <path d="M 59.888417 161.984657 
L 57.149804 164.72327 
L 59.888417 167.461883 
L 62.62703 164.72327 
z
" clip-path="url(#p516c5d0b6d)" style="fill: #44aa99; fill-opacity: 0.8; stroke: #ffffff; stroke-opacity: 0.8; stroke-width: 0.5"/>
    <path d="M 58.503038 161.984657 
L 55.764426 164.72327 
L 58.503038 167.461883 
L 61.241651 164.72327 
z
" clip-path="url(#p516c5d0b6d)" style="fill: #44aa99; fill-opacity: 0.8; stroke: #ffffff; stroke-opacity: 0.8; stroke-width: 0.5"/>
    <path d="M 58.360948 161.984657 
L 55.622336 164.72327 
L 58.360948 167.461883 
L 61.099561 164.72327 
z
" clip-path="url(#p516c5d0b6d)" style="fill: #44aa99; fill-opacity: 0.8; stroke: #ffffff; stroke-opacity: 0.8; stroke-width: 0.5"/>
    <path d="M 56.336164 162.278651 
L 55.367918 164.049018 
L 53.597551 165.017264 
L 55.367918 165.98551 
L 56.336164 167.755877 
L 57.30441 165.98551 
L 59.074777 165.017264 
L 57.30441 164.049018 
z
" clip-path="url(#p516c5d0b6d)" style="fill: #44aa99; fill-opacity: 0.8; stroke: #ffffff; stroke-opacity: 0.8; stroke-width: 0.5"/>
    <path d="M 55.909894 162.278651 
L 54.941648 164.049018 
L 53.171281 165.017264 
L 54.941648 165.98551 
L 55.909894 167.755877 
L 56.87814 165.98551 
L 58.648507 165.017264 
L 56.87814 164.049018 
z
" clip-path="url(#p516c5d0b6d)" style="fill: #44aa99; fill-opacity: 0.8; stroke: #ffffff; stroke-opacity: 0.8; stroke-width: 0.5"/>
    <path d="M 56.016461 162.278651 
L 55.048216 164.049018 
L 53.277849 165.017264 
L 55.048216 165.98551 
L 56.016461 167.755877 
L 56.984707 165.98551 
L 58.755074 165.017264 
L 56.984707 164.049018 
z
" clip-path="url(#p516c5d0b6d)" style="fill: #44aa99; fill-opacity: 0.8; stroke: #ffffff; stroke-opacity: 0.8; stroke-width: 0.5"/>
    <path d="M 56.371687 163.278581 
L 55.403441 165.048948 
L 53.633074 166.017194 
L 55.403441 166.98544 
L 56.371687 168.755807 
L 57.339933 166.98544 
L 59.110299 166.017194 
L 57.339933 165.048948 
z
" clip-path="url(#p516c5d0b6d)" style="fill: #44aa99; fill-opacity: 0.8; stroke: #ffffff; stroke-opacity: 0.8; stroke-width: 0.5"/>
    <path d="M 55.696759 163.278581 
L 54.728513 165.048948 
L 52.958146 166.017194 
L 54.728513 166.98544 
L 55.696759 168.755807 
L 56.665004 166.98544 
L 58.435371 166.017194 
L 56.665004 165.048948 
z
" clip-path="url(#p516c5d0b6d)" style="fill: #44aa99; fill-opacity: 0.8; stroke: #ffffff; stroke-opacity: 0.8; stroke-width: 0.5"/>
    <path d="M 56.051984 163.278581 
L 55.083738 165.048948 
L 53.313371 166.017194 
L 55.083738 166.98544 
L 56.051984 168.755807 
L 57.02023 166.98544 
L 58.790597 166.017194 
L 57.02023 165.048948 
z
" clip-path="url(#p516c5d0b6d)" style="fill: #44aa99; fill-opacity: 0.8; stroke: #ffffff; stroke-opacity: 0.8; stroke-width: 0.5"/>
    <path d="M 53.494362 164.04496 
L 52.526116 165.815327 
L 50.755749 166.783572 
L 52.526116 167.751818 
L 53.494362 169.522185 
L 54.462608 167.751818 
L 56.232975 166.783572 
L 54.462608 165.815327 
z
" clip-path="url(#p516c5d0b6d)" style="fill: #44aa99; fill-opacity: 0.8; stroke: #ffffff; stroke-opacity: 0.8; stroke-width: 0.5"/>
    <path d="M 53.849587 164.04496 
L 52.881341 165.815327 
L 51.110974 166.783572 
L 52.881341 167.751818 
L 53.849587 169.522185 
L 54.817833 167.751818 
L 56.5882 166.783572 
L 54.817833 165.815327 
z
" clip-path="url(#p516c5d0b6d)" style="fill: #44aa99; fill-opacity: 0.8; stroke: #ffffff; stroke-opacity: 0.8; stroke-width: 0.5"/>
    <path d="M 54.346903 164.04496 
L 53.378657 165.815327 
L 51.60829 166.783572 
L 53.378657 167.751818 
L 54.346903 169.522185 
L 55.315148 167.751818 
L 57.085515 166.783572 
L 55.315148 165.815327 
z
" clip-path="url(#p516c5d0b6d)" style="fill: #44aa99; fill-opacity: 0.8; stroke: #ffffff; stroke-opacity: 0.8; stroke-width: 0.5"/>
    <path d="M 53.849587 169.385083 
L 56.5882 163.907857 
L 51.110974 163.907857 
z
" clip-path="url(#p516c5d0b6d)" style="fill: #88ccee; fill-opacity: 0.8; stroke: #ffffff; stroke-opacity: 0.8; stroke-width: 0.5"/>
    <path d="M 90.437792 155.239746 
C 91.16408 155.239746 91.86072 154.951189 92.374283 154.437625 
C 92.887847 153.924061 93.176405 153.227422 93.176405 152.501133 
C 93.176405 151.774845 92.887847 151.078205 92.374283 150.564642 
C 91.86072 150.051078 91.16408 149.762521 90.437792 149.762521 
C 89.711503 149.762521 89.014864 150.051078 88.5013 150.564642 
C 87.987737 151.078205 87.699179 151.774845 87.699179 152.501133 
C 87.699179 153.227422 87.987737 153.924061 88.5013 154.437625 
C 89.014864 154.951189 89.711503 155.239746 90.437792 155.239746 
z
" clip-path="url(#p516c5d0b6d)" style="fill: #882255; fill-opacity: 0.8; stroke: #ffffff; stroke-opacity: 0.8; stroke-width: 0.5"/>
    <path d="M 107.701741 147.640476 
C 108.428029 147.640476 109.124669 147.351918 109.638233 146.838355 
C 110.151796 146.324791 110.440354 145.628152 110.440354 144.901863 
C 110.440354 144.175574 110.151796 143.478935 109.638233 142.965371 
C 109.124669 142.451808 108.428029 142.16325 107.701741 142.16325 
C 106.975452 142.16325 106.278813 142.451808 105.765249 142.965371 
C 105.251686 143.478935 104.963128 144.175574 104.963128 144.901863 
C 104.963128 145.628152 105.251686 146.324791 105.765249 146.838355 
C 106.278813 147.351918 106.975452 147.640476 107.701741 147.640476 
z
" clip-path="url(#p516c5d0b6d)" style="fill: #882255; fill-opacity: 0.8; stroke: #ffffff; stroke-opacity: 0.8; stroke-width: 0.5"/>
    <path d="M 84.860755 161.813233 
C 85.587043 161.813233 86.283683 161.524676 86.797246 161.011112 
C 87.31081 160.497549 87.599368 159.800909 87.599368 159.07462 
C 87.599368 158.348332 87.31081 157.651692 86.797246 157.138129 
C 86.283683 156.624565 85.587043 156.336008 84.860755 156.336008 
C 84.134466 156.336008 83.437827 156.624565 82.924263 157.138129 
C 82.4107 157.651692 82.122142 158.348332 82.122142 159.07462 
C 82.122142 159.800909 82.4107 160.497549 82.924263 161.011112 
C 83.437827 161.524676 84.134466 161.813233 84.860755 161.813233 
z
" clip-path="url(#p516c5d0b6d)" style="fill: #882255; fill-opacity: 0.8; stroke: #ffffff; stroke-opacity: 0.8; stroke-width: 0.5"/>
    <path d="M 72.941257 164.005019 
L 74.310564 162.635712 
L 75.67987 164.005019 
L 77.049177 162.635712 
L 75.67987 161.266406 
L 77.049177 159.8971 
L 75.67987 158.527793 
L 74.310564 159.8971 
L 72.941257 158.527793 
L 71.571951 159.8971 
L 72.941257 161.266406 
L 71.571951 162.635712 
z
" clip-path="url(#p516c5d0b6d)" style="fill: #882255; fill-opacity: 0.8; stroke: #ffffff; stroke-opacity: 0.8; stroke-width: 0.5"/>
    <path d="M 102.460479 138.009582 
L 103.829785 136.640275 
L 105.199092 138.009582 
L 106.568398 136.640275 
L 105.199092 135.270969 
L 106.568398 133.901663 
L 105.199092 132.532356 
L 103.829785 133.901663 
L 102.460479 132.532356 
L 101.091172 133.901663 
L 102.460479 135.270969 
L 101.091172 136.640275 
z
" clip-path="url(#p516c5d0b6d)" style="fill: #882255; fill-opacity: 0.8; stroke: #ffffff; stroke-opacity: 0.8; stroke-width: 0.5"/>
    <path d="M 82.603385 161.457387 
L 83.972692 160.088081 
L 85.341998 161.457387 
L 86.711304 160.088081 
L 85.341998 158.718775 
L 86.711304 157.349468 
L 85.341998 155.980162 
L 83.972692 157.349468 
L 82.603385 155.980162 
L 81.234079 157.349468 
L 82.603385 158.718775 
L 81.234079 160.088081 
z
" clip-path="url(#p516c5d0b6d)" style="fill: #882255; fill-opacity: 0.8; stroke: #ffffff; stroke-opacity: 0.8; stroke-width: 0.5"/>
    <path d="M 58.087483 167.567839 
L 59.913225 167.567839 
L 59.913225 165.742097 
L 61.738967 165.742097 
L 61.738967 163.916355 
L 59.913225 163.916355 
L 59.913225 162.090613 
L 58.087483 162.090613 
L 58.087483 163.916355 
L 56.261741 163.916355 
L 56.261741 165.742097 
L 58.087483 165.742097 
z
" clip-path="url(#p516c5d0b6d)" style="fill: #cc6677; fill-opacity: 0.8; stroke: #ffffff; stroke-opacity: 0.8; stroke-width: 0.5"/>
    <path d="M 57.803303 167.478098 
L 59.629045 167.478098 
L 59.629045 165.652357 
L 61.454786 165.652357 
L 61.454786 163.826615 
L 59.629045 163.826615 
L 59.629045 162.000873 
L 57.803303 162.000873 
L 57.803303 163.826615 
L 55.977561 163.826615 
L 55.977561 165.652357 
L 57.803303 165.652357 
z
" clip-path="url(#p516c5d0b6d)" style="fill: #cc6677; fill-opacity: 0.8; stroke: #ffffff; stroke-opacity: 0.8; stroke-width: 0.5"/>
    <path d="M 57.838825 168.106282 
L 59.664567 168.106282 
L 59.664567 166.28054 
L 61.490309 166.28054 
L 61.490309 164.454798 
L 59.664567 164.454798 
L 59.664567 162.629056 
L 57.838825 162.629056 
L 57.838825 164.454798 
L 56.013083 164.454798 
L 56.013083 166.28054 
L 57.838825 166.28054 
z
" clip-path="url(#p516c5d0b6d)" style="fill: #cc6677; fill-opacity: 0.8; stroke: #ffffff; stroke-opacity: 0.8; stroke-width: 0.5"/>
    <path d="M 64.630161 157.032185 
L 64.630161 160.905169 
L 68.503144 160.905169 
L 68.503144 157.032185 
z
" clip-path="url(#p516c5d0b6d)" style="fill: #cc6677; fill-opacity: 0.8; stroke: #ffffff; stroke-opacity: 0.8; stroke-width: 0.5"/>
    <path d="M 58.520286 161.951083 
L 58.520286 165.824066 
L 62.393269 165.824066 
L 62.393269 161.951083 
z
" clip-path="url(#p516c5d0b6d)" style="fill: #cc6677; fill-opacity: 0.8; stroke: #ffffff; stroke-opacity: 0.8; stroke-width: 0.5"/>
    <path d="M 62.605377 160.401191 
L 62.605377 164.274174 
L 66.47836 164.274174 
L 66.47836 160.401191 
z
" clip-path="url(#p516c5d0b6d)" style="fill: #cc6677; fill-opacity: 0.8; stroke: #ffffff; stroke-opacity: 0.8; stroke-width: 0.5"/>
    <path d="M 53.671975 164.03312 
L 50.933362 166.771733 
L 53.671975 169.510345 
L 56.410587 166.771733 
z
" clip-path="url(#p516c5d0b6d)" style="fill: #44aa99; fill-opacity: 0.8; stroke: #ffffff; stroke-opacity: 0.8; stroke-width: 0.5"/>
    <path d="M 54.87974 163.914712 
L 52.141128 166.653325 
L 54.87974 169.391938 
L 57.618353 166.653325 
z
" clip-path="url(#p516c5d0b6d)" style="fill: #44aa99; fill-opacity: 0.8; stroke: #ffffff; stroke-opacity: 0.8; stroke-width: 0.5"/>
    <path d="M 89.904954 151.388307 
C 90.631242 151.388307 91.327882 151.09975 91.841446 150.586186 
C 92.355009 150.072622 92.643567 149.375983 92.643567 148.649694 
C 92.643567 147.923406 92.355009 147.226766 91.841446 146.713203 
C 91.327882 146.199639 90.631242 145.911081 89.904954 145.911081 
C 89.178665 145.911081 88.482026 146.199639 87.968462 146.713203 
C 87.454899 147.226766 87.166341 147.923406 87.166341 148.649694 
C 87.166341 149.375983 87.454899 150.072622 87.968462 150.586186 
C 88.482026 151.09975 89.178665 151.388307 89.904954 151.388307 
z
" clip-path="url(#p516c5d0b6d)" style="fill: #882255; fill-opacity: 0.8; stroke: #ffffff; stroke-opacity: 0.8; stroke-width: 0.5"/>
    <path d="M 55.961489 168.388213 
L 57.330795 167.018907 
L 58.700101 168.388213 
L 60.069408 167.018907 
L 58.700101 165.6496 
L 60.069408 164.280294 
L 58.700101 162.910987 
L 57.330795 164.280294 
L 55.961489 162.910987 
L 54.592182 164.280294 
L 55.961489 165.6496 
L 54.592182 167.018907 
z
" clip-path="url(#p516c5d0b6d)" style="fill: #882255; fill-opacity: 0.8; stroke: #ffffff; stroke-opacity: 0.8; stroke-width: 0.5"/>
    <path d="M 56.169266 168.195032 
L 57.995008 168.195032 
L 57.995008 166.36929 
L 59.82075 166.36929 
L 59.82075 164.543548 
L 57.995008 164.543548 
L 57.995008 162.717807 
L 56.169266 162.717807 
L 56.169266 164.543548 
L 54.343524 164.543548 
L 54.343524 166.36929 
L 56.169266 166.36929 
z
" clip-path="url(#p516c5d0b6d)" style="fill: #cc6677; fill-opacity: 0.8; stroke: #ffffff; stroke-opacity: 0.8; stroke-width: 0.5"/>
    <path d="M 58.200583 161.964762 
L 58.200583 165.837745 
L 62.073566 165.837745 
L 62.073566 161.964762 
z
" clip-path="url(#p516c5d0b6d)" style="fill: #cc6677; fill-opacity: 0.8; stroke: #ffffff; stroke-opacity: 0.8; stroke-width: 0.5"/>
    <path d="M 77.365501 156.268855 
C 78.09179 156.268855 78.788429 155.980297 79.301993 155.466734 
C 79.815556 154.95317 80.104114 154.25653 80.104114 153.530242 
C 80.104114 152.803953 79.815556 152.107314 79.301993 151.59375 
C 78.788429 151.080187 78.09179 150.791629 77.365501 150.791629 
C 76.639213 150.791629 75.942573 151.080187 75.42901 151.59375 
C 74.915446 152.107314 74.626888 152.803953 74.626888 153.530242 
C 74.626888 154.25653 74.915446 154.95317 75.42901 155.466734 
C 75.942573 155.980297 76.639213 156.268855 77.365501 156.268855 
z
" clip-path="url(#p516c5d0b6d)" style="fill: #882255; fill-opacity: 0.8; stroke: #ffffff; stroke-opacity: 0.8; stroke-width: 0.5"/>
    <path d="M 58.767768 169.379024 
L 60.137075 168.009717 
L 61.506381 169.379024 
L 62.875688 168.009717 
L 61.506381 166.640411 
L 62.875688 165.271104 
L 61.506381 163.901798 
L 60.137075 165.271104 
L 58.767768 163.901798 
L 57.398462 165.271104 
L 58.767768 166.640411 
L 57.398462 168.009717 
z
" clip-path="url(#p516c5d0b6d)" style="fill: #882255; fill-opacity: 0.8; stroke: #ffffff; stroke-opacity: 0.8; stroke-width: 0.5"/>
    <path d="M 55.991654 168.84808 
L 57.817396 168.84808 
L 57.817396 167.022338 
L 59.643137 167.022338 
L 59.643137 165.196597 
L 57.817396 165.196597 
L 57.817396 163.370855 
L 55.991654 163.370855 
L 55.991654 165.196597 
L 54.165912 165.196597 
L 54.165912 167.022338 
L 55.991654 167.022338 
z
" clip-path="url(#p516c5d0b6d)" style="fill: #cc6677; fill-opacity: 0.8; stroke: #ffffff; stroke-opacity: 0.8; stroke-width: 0.5"/>
    <path d="M 55.500871 163.712501 
L 55.500871 167.585484 
L 59.373854 167.585484 
L 59.373854 163.712501 
z
" clip-path="url(#p516c5d0b6d)" style="fill: #cc6677; fill-opacity: 0.8; stroke: #ffffff; stroke-opacity: 0.8; stroke-width: 0.5"/>
    <path d="M 81.55716 159.783772 
C 82.283448 159.783772 82.980088 159.495215 83.493651 158.981651 
C 84.007215 158.468088 84.295772 157.771448 84.295772 157.045159 
C 84.295772 156.318871 84.007215 155.622231 83.493651 155.108668 
C 82.980088 154.595104 82.283448 154.306547 81.55716 154.306547 
C 80.830871 154.306547 80.134232 154.595104 79.620668 155.108668 
C 79.107104 155.622231 78.818547 156.318871 78.818547 157.045159 
C 78.818547 157.771448 79.107104 158.468088 79.620668 158.981651 
C 80.134232 159.495215 80.830871 159.783772 81.55716 159.783772 
z
" clip-path="url(#p516c5d0b6d)" style="fill: #882255; fill-opacity: 0.8; stroke: #ffffff; stroke-opacity: 0.8; stroke-width: 0.5"/>
    <path d="M 57.19942 167.826288 
L 59.025162 167.826288 
L 59.025162 166.000546 
L 60.850903 166.000546 
L 60.850903 164.174804 
L 59.025162 164.174804 
L 59.025162 162.349062 
L 57.19942 162.349062 
L 57.19942 164.174804 
L 55.373678 164.174804 
L 55.373678 166.000546 
L 57.19942 166.000546 
z
" clip-path="url(#p516c5d0b6d)" style="fill: #cc6677; fill-opacity: 0.8; stroke: #ffffff; stroke-opacity: 0.8; stroke-width: 0.5"/>
    <path d="M 56.495502 163.851615 
L 56.495502 167.724599 
L 60.368485 167.724599 
L 60.368485 163.851615 
z
" clip-path="url(#p516c5d0b6d)" style="fill: #cc6677; fill-opacity: 0.8; stroke: #ffffff; stroke-opacity: 0.8; stroke-width: 0.5"/>
    <path d="M 54.062722 164.035445 
L 51.32411 166.774058 
L 54.062722 169.512671 
L 56.801335 166.774058 
z
" clip-path="url(#p516c5d0b6d)" style="fill: #44aa99; fill-opacity: 0.8; stroke: #ffffff; stroke-opacity: 0.8; stroke-width: 0.5"/>
    <path d="M 53.352272 169.558141 
L 56.090885 164.080916 
L 50.613659 164.080916 
z
" clip-path="url(#p516c5d0b6d)" style="fill: #88ccee; fill-opacity: 0.8; stroke: #ffffff; stroke-opacity: 0.8; stroke-width: 0.5"/>
    <path d="M 85.322548 158.459033 
C 86.048836 158.459033 86.745476 158.170475 87.259039 157.656912 
C 87.772603 157.143348 88.06116 156.446709 88.06116 155.72042 
C 88.06116 154.994131 87.772603 154.297492 87.259039 153.783928 
C 86.745476 153.270365 86.048836 152.981807 85.322548 152.981807 
C 84.596259 152.981807 83.89962 153.270365 83.386056 153.783928 
C 82.872492 154.297492 82.583935 154.994131 82.583935 155.72042 
C 82.583935 156.446709 82.872492 157.143348 83.386056 157.656912 
C 83.89962 158.170475 84.596259 158.459033 85.322548 158.459033 
z
" clip-path="url(#p516c5d0b6d)" style="fill: #882255; fill-opacity: 0.8; stroke: #ffffff; stroke-opacity: 0.8; stroke-width: 0.5"/>
    <path d="M 54.73765 164.108604 
L 51.999038 169.58583 
L 57.476263 169.58583 
z
" clip-path="url(#p516c5d0b6d)" style="fill: #332288; fill-opacity: 0.8; stroke: #ffffff; stroke-opacity: 0.8; stroke-width: 0.5"/>
    <path d="M 51.060555 164.919885 
L 51.62774 166.856376 
L 51.060555 168.792868 
L 52.997046 168.225683 
L 54.933538 168.792868 
L 54.366353 166.856376 
L 54.933538 164.919885 
L 52.997046 165.48707 
z
" clip-path="url(#p516c5d0b6d)" style="fill: #332288; fill-opacity: 0.8; stroke: #ffffff; stroke-opacity: 0.8; stroke-width: 0.5"/>
    <path d="M 55.108948 167.771273 
L 56.478254 166.401967 
L 57.847561 167.771273 
L 59.216867 166.401967 
L 57.847561 165.032661 
L 59.216867 163.663354 
L 57.847561 162.294048 
L 56.478254 163.663354 
L 55.108948 162.294048 
L 53.739641 163.663354 
L 55.108948 165.032661 
L 53.739641 166.401967 
z
" clip-path="url(#p516c5d0b6d)" style="fill: #882255; fill-opacity: 0.8; stroke: #ffffff; stroke-opacity: 0.8; stroke-width: 0.5"/>
    <path d="M 54.180005 168.828351 
L 56.005747 168.828351 
L 56.005747 167.002609 
L 57.831488 167.002609 
L 57.831488 165.176868 
L 56.005747 165.176868 
L 56.005747 163.351126 
L 54.180005 163.351126 
L 54.180005 165.176868 
L 52.354263 165.176868 
L 52.354263 167.002609 
L 54.180005 167.002609 
z
" clip-path="url(#p516c5d0b6d)" style="fill: #cc6677; fill-opacity: 0.8; stroke: #ffffff; stroke-opacity: 0.8; stroke-width: 0.5"/>
    <path d="M 58.449241 163.416653 
L 58.449241 167.289636 
L 62.322224 167.289636 
L 62.322224 163.416653 
z
" clip-path="url(#p516c5d0b6d)" style="fill: #cc6677; fill-opacity: 0.8; stroke: #ffffff; stroke-opacity: 0.8; stroke-width: 0.5"/>
    <path d="M 52.997046 164.10494 
L 50.258434 166.843553 
L 52.997046 169.582166 
L 55.735659 166.843553 
z
" clip-path="url(#p516c5d0b6d)" style="fill: #44aa99; fill-opacity: 0.8; stroke: #ffffff; stroke-opacity: 0.8; stroke-width: 0.5"/>
    <path d="M 52.997046 164.106458 
L 52.028801 165.876825 
L 50.258434 166.845071 
L 52.028801 167.813317 
L 52.997046 169.583684 
L 53.965292 167.813317 
L 55.735659 166.845071 
L 53.965292 165.876825 
z
" clip-path="url(#p516c5d0b6d)" style="fill: #44aa99; fill-opacity: 0.8; stroke: #ffffff; stroke-opacity: 0.8; stroke-width: 0.5"/>
    <path d="M 52.677344 169.595931 
L 55.415956 164.118706 
L 49.938731 164.118706 
z
" clip-path="url(#p516c5d0b6d)" style="fill: #88ccee; fill-opacity: 0.8; stroke: #ffffff; stroke-opacity: 0.8; stroke-width: 0.5"/>
    <path d="M 75.269672 163.941067 
C 75.995961 163.941067 76.6926 163.65251 77.206164 163.138946 
C 77.719727 162.625382 78.008285 161.928743 78.008285 161.202454 
C 78.008285 160.476166 77.719727 159.779526 77.206164 159.265963 
C 76.6926 158.752399 75.995961 158.463842 75.269672 158.463842 
C 74.543383 158.463842 73.846744 158.752399 73.33318 159.265963 
C 72.819617 159.779526 72.531059 160.476166 72.531059 161.202454 
C 72.531059 161.928743 72.819617 162.625382 73.33318 163.138946 
C 73.846744 163.65251 74.543383 163.941067 75.269672 163.941067 
z
" clip-path="url(#p516c5d0b6d)" style="fill: #882255; fill-opacity: 0.8; stroke: #ffffff; stroke-opacity: 0.8; stroke-width: 0.5"/>
    <path d="M 56.016461 164.113681 
L 53.277849 169.590907 
L 58.755074 169.590907 
z
" clip-path="url(#p516c5d0b6d)" style="fill: #332288; fill-opacity: 0.8; stroke: #ffffff; stroke-opacity: 0.8; stroke-width: 0.5"/>
    <path d="M 52.765636 164.913133 
L 53.332821 166.849624 
L 52.765636 168.786116 
L 54.702128 168.218931 
L 56.63862 168.786116 
L 56.071434 166.849624 
L 56.63862 164.913133 
L 54.702128 165.480318 
z
" clip-path="url(#p516c5d0b6d)" style="fill: #332288; fill-opacity: 0.8; stroke: #ffffff; stroke-opacity: 0.8; stroke-width: 0.5"/>
    <path d="M 80.116808 163.437966 
L 81.486115 162.068659 
L 82.855421 163.437966 
L 84.224727 162.068659 
L 82.855421 160.699353 
L 84.224727 159.330047 
L 82.855421 157.96074 
L 81.486115 159.330047 
L 80.116808 157.96074 
L 78.747502 159.330047 
L 80.116808 160.699353 
L 78.747502 162.068659 
z
" clip-path="url(#p516c5d0b6d)" style="fill: #882255; fill-opacity: 0.8; stroke: #ffffff; stroke-opacity: 0.8; stroke-width: 0.5"/>
    <path d="M 55.529861 169.138786 
L 57.355603 169.138786 
L 57.355603 167.313044 
L 59.181345 167.313044 
L 59.181345 165.487302 
L 57.355603 165.487302 
L 57.355603 163.66156 
L 55.529861 163.66156 
L 55.529861 165.487302 
L 53.704119 165.487302 
L 53.704119 167.313044 
L 55.529861 167.313044 
z
" clip-path="url(#p516c5d0b6d)" style="fill: #cc6677; fill-opacity: 0.8; stroke: #ffffff; stroke-opacity: 0.8; stroke-width: 0.5"/>
    <path d="M 54.861465 164.350625 
L 54.861465 168.223608 
L 58.734449 168.223608 
L 58.734449 164.350625 
z
" clip-path="url(#p516c5d0b6d)" style="fill: #cc6677; fill-opacity: 0.8; stroke: #ffffff; stroke-opacity: 0.8; stroke-width: 0.5"/>
    <path d="M 53.707497 164.109756 
L 50.968884 166.848368 
L 53.707497 169.586981 
L 56.44611 166.848368 
z
" clip-path="url(#p516c5d0b6d)" style="fill: #44aa99; fill-opacity: 0.8; stroke: #ffffff; stroke-opacity: 0.8; stroke-width: 0.5"/>
    <path d="M 53.671975 169.596664 
L 56.410587 164.119439 
L 50.933362 164.119439 
z
" clip-path="url(#p516c5d0b6d)" style="fill: #88ccee; fill-opacity: 0.8; stroke: #ffffff; stroke-opacity: 0.8; stroke-width: 0.5"/>
    <path d="M 83.439854 160.365604 
C 84.166142 160.365604 84.862782 160.077047 85.376345 159.563483 
C 85.889909 159.04992 86.178466 158.35328 86.178466 157.626991 
C 86.178466 156.900703 85.889909 156.204063 85.376345 155.6905 
C 84.862782 155.176936 84.166142 154.888379 83.439854 154.888379 
C 82.713565 154.888379 82.016926 155.176936 81.503362 155.6905 
C 80.989798 156.204063 80.701241 156.900703 80.701241 157.626991 
C 80.701241 158.35328 80.989798 159.04992 81.503362 159.563483 
C 82.016926 160.077047 82.713565 160.365604 83.439854 160.365604 
z
" clip-path="url(#p516c5d0b6d)" style="fill: #882255; fill-opacity: 0.8; stroke: #ffffff; stroke-opacity: 0.8; stroke-width: 0.5"/>
    <path d="M 55.270488 164.116926 
L 52.531876 169.594152 
L 58.009101 169.594152 
z
" clip-path="url(#p516c5d0b6d)" style="fill: #332288; fill-opacity: 0.8; stroke: #ffffff; stroke-opacity: 0.8; stroke-width: 0.5"/>
    <path d="M 50.740852 164.909312 
L 51.308037 166.845804 
L 50.740852 168.782295 
L 52.677344 168.21511 
L 54.613835 168.782295 
L 54.04665 166.845804 
L 54.613835 164.909312 
L 52.677344 165.476497 
z
" clip-path="url(#p516c5d0b6d)" style="fill: #332288; fill-opacity: 0.8; stroke: #ffffff; stroke-opacity: 0.8; stroke-width: 0.5"/>
    <path d="M 63.7054 166.598208 
L 65.074706 165.228902 
L 66.444013 166.598208 
L 67.813319 165.228902 
L 66.444013 163.859595 
L 67.813319 162.490289 
L 66.444013 161.120982 
L 65.074706 162.490289 
L 63.7054 161.120982 
L 62.336093 162.490289 
L 63.7054 163.859595 
L 62.336093 165.228902 
z
" clip-path="url(#p516c5d0b6d)" style="fill: #882255; fill-opacity: 0.8; stroke: #ffffff; stroke-opacity: 0.8; stroke-width: 0.5"/>
    <path d="M 54.499707 169.277541 
L 56.325449 169.277541 
L 56.325449 167.4518 
L 58.151191 167.4518 
L 58.151191 165.626058 
L 56.325449 165.626058 
L 56.325449 163.800316 
L 54.499707 163.800316 
L 54.499707 165.626058 
L 52.673966 165.626058 
L 52.673966 167.4518 
L 54.499707 167.4518 
z
" clip-path="url(#p516c5d0b6d)" style="fill: #cc6677; fill-opacity: 0.8; stroke: #ffffff; stroke-opacity: 0.8; stroke-width: 0.5"/>
    <path d="M 55.891619 164.176957 
L 55.891619 168.049941 
L 59.764602 168.049941 
L 59.764602 164.176957 
z
" clip-path="url(#p516c5d0b6d)" style="fill: #cc6677; fill-opacity: 0.8; stroke: #ffffff; stroke-opacity: 0.8; stroke-width: 0.5"/>
    <path d="M 54.382425 164.085469 
L 51.643812 166.824082 
L 54.382425 169.562695 
L 57.121038 166.824082 
z
" clip-path="url(#p516c5d0b6d)" style="fill: #44aa99; fill-opacity: 0.8; stroke: #ffffff; stroke-opacity: 0.8; stroke-width: 0.5"/>
    <path d="M 53.316749 169.600756 
L 56.055362 164.123531 
L 50.578136 164.123531 
z
" clip-path="url(#p516c5d0b6d)" style="fill: #88ccee; fill-opacity: 0.8; stroke: #ffffff; stroke-opacity: 0.8; stroke-width: 0.5"/>
    <path d="M 55.767804 165.409602 
C 56.494092 165.409602 57.190732 165.121045 57.704295 164.607481 
C 58.217859 164.093917 58.506416 163.397278 58.506416 162.670989 
C 58.506416 161.944701 58.217859 161.248061 57.704295 160.734498 
C 57.190732 160.220934 56.494092 159.932377 55.767804 159.932377 
C 55.041515 159.932377 54.344876 160.220934 53.831312 160.734498 
C 53.317748 161.248061 53.029191 161.944701 53.029191 162.670989 
C 53.029191 163.397278 53.317748 164.093917 53.831312 164.607481 
C 54.344876 165.121045 55.041515 165.409602 55.767804 165.409602 
z
" clip-path="url(#p516c5d0b6d)" style="fill: #882255; fill-opacity: 0.8; stroke: #ffffff; stroke-opacity: 0.8; stroke-width: 0.5"/>
    <path d="M 55.341533 164.1152 
L 52.602921 169.592426 
L 58.080146 169.592426 
z
" clip-path="url(#p516c5d0b6d)" style="fill: #332288; fill-opacity: 0.8; stroke: #ffffff; stroke-opacity: 0.8; stroke-width: 0.5"/>
    <path d="M 49.888311 164.772986 
L 50.455497 166.709478 
L 49.888311 168.645969 
L 51.824803 168.078784 
L 53.761295 168.645969 
L 53.194109 166.709478 
L 53.761295 164.772986 
L 51.824803 165.340171 
z
" clip-path="url(#p516c5d0b6d)" style="fill: #332288; fill-opacity: 0.8; stroke: #ffffff; stroke-opacity: 0.8; stroke-width: 0.5"/>
    <path d="M 51.62774 169.475191 
L 52.997046 168.105885 
L 54.366353 169.475191 
L 55.735659 168.105885 
L 54.366353 166.736579 
L 55.735659 165.367272 
L 54.366353 163.997966 
L 52.997046 165.367272 
L 51.62774 163.997966 
L 50.258434 165.367272 
L 51.62774 166.736579 
L 50.258434 168.105885 
z
" clip-path="url(#p516c5d0b6d)" style="fill: #882255; fill-opacity: 0.8; stroke: #ffffff; stroke-opacity: 0.8; stroke-width: 0.5"/>
    <path d="M 54.783888 169.505763 
L 56.60963 169.505763 
L 56.60963 167.680021 
L 58.435371 167.680021 
L 58.435371 165.854279 
L 56.60963 165.854279 
L 56.60963 164.028537 
L 54.783888 164.028537 
L 54.783888 165.854279 
L 52.958146 165.854279 
L 52.958146 167.680021 
L 54.783888 167.680021 
z
" clip-path="url(#p516c5d0b6d)" style="fill: #cc6677; fill-opacity: 0.8; stroke: #ffffff; stroke-opacity: 0.8; stroke-width: 0.5"/>
    <path d="M 52.872204 163.81818 
L 52.872204 167.691163 
L 56.745187 167.691163 
L 56.745187 163.81818 
z
" clip-path="url(#p516c5d0b6d)" style="fill: #cc6677; fill-opacity: 0.8; stroke: #ffffff; stroke-opacity: 0.8; stroke-width: 0.5"/>
    <path d="M 53.174659 164.110678 
L 50.436046 166.849291 
L 53.174659 169.587903 
L 55.913272 166.849291 
z
" clip-path="url(#p516c5d0b6d)" style="fill: #44aa99; fill-opacity: 0.8; stroke: #ffffff; stroke-opacity: 0.8; stroke-width: 0.5"/>
    <path d="M 54.666605 164.12456 
L 53.698359 165.894927 
L 51.927993 166.863173 
L 53.698359 167.831419 
L 54.666605 169.601786 
L 55.634851 167.831419 
L 57.405218 166.863173 
L 55.634851 165.894927 
z
" clip-path="url(#p516c5d0b6d)" style="fill: #44aa99; fill-opacity: 0.8; stroke: #ffffff; stroke-opacity: 0.8; stroke-width: 0.5"/>
    <path d="M 52.819434 169.601847 
L 55.558047 164.124622 
L 50.080821 164.124622 
z
" clip-path="url(#p516c5d0b6d)" style="fill: #88ccee; fill-opacity: 0.8; stroke: #ffffff; stroke-opacity: 0.8; stroke-width: 0.5"/>
    <path d="M 54.666605 169.276008 
C 55.392894 169.276008 56.089533 168.98745 56.603097 168.473887 
C 57.116661 167.960323 57.405218 167.263683 57.405218 166.537395 
C 57.405218 165.811106 57.116661 165.114467 56.603097 164.600903 
C 56.089533 164.08734 55.392894 163.798782 54.666605 163.798782 
C 53.940317 163.798782 53.243677 164.08734 52.730114 164.600903 
C 52.21655 165.114467 51.927993 165.811106 51.927993 166.537395 
C 51.927993 167.263683 52.21655 167.960323 52.730114 168.473887 
C 53.243677 168.98745 53.940317 169.276008 54.666605 169.276008 
z
" clip-path="url(#p516c5d0b6d)" style="fill: #882255; fill-opacity: 0.8; stroke: #ffffff; stroke-opacity: 0.8; stroke-width: 0.5"/>
    <path d="M 54.844218 164.120353 
L 52.105605 169.597578 
L 57.582831 169.597578 
z
" clip-path="url(#p516c5d0b6d)" style="fill: #332288; fill-opacity: 0.8; stroke: #ffffff; stroke-opacity: 0.8; stroke-width: 0.5"/>
    <path d="M 51.877573 164.906201 
L 52.444758 166.842692 
L 51.877573 168.779184 
L 53.814065 168.211999 
L 55.750556 168.779184 
L 55.183371 166.842692 
L 55.750556 164.906201 
L 53.814065 165.473386 
z
" clip-path="url(#p516c5d0b6d)" style="fill: #332288; fill-opacity: 0.8; stroke: #ffffff; stroke-opacity: 0.8; stroke-width: 0.5"/>
    <path d="M 52.977596 169.533156 
L 54.346903 168.16385 
L 55.716209 169.533156 
L 57.085515 168.16385 
L 55.716209 166.794543 
L 57.085515 165.425237 
L 55.716209 164.05593 
L 54.346903 165.425237 
L 52.977596 164.05593 
L 51.60829 165.425237 
L 52.977596 166.794543 
L 51.60829 168.16385 
z
" clip-path="url(#p516c5d0b6d)" style="fill: #882255; fill-opacity: 0.8; stroke: #ffffff; stroke-opacity: 0.8; stroke-width: 0.5"/>
    <path d="M 55.245681 168.773068 
L 57.071422 168.773068 
L 57.071422 166.947326 
L 58.897164 166.947326 
L 58.897164 165.121584 
L 57.071422 165.121584 
L 57.071422 163.295842 
L 55.245681 163.295842 
L 55.245681 165.121584 
L 53.419939 165.121584 
L 53.419939 166.947326 
L 55.245681 166.947326 
z
" clip-path="url(#p516c5d0b6d)" style="fill: #cc6677; fill-opacity: 0.8; stroke: #ffffff; stroke-opacity: 0.8; stroke-width: 0.5"/>
    <path d="M 53.262952 164.665753 
L 53.262952 168.538736 
L 57.135935 168.538736 
L 57.135935 164.665753 
z
" clip-path="url(#p516c5d0b6d)" style="fill: #cc6677; fill-opacity: 0.8; stroke: #ffffff; stroke-opacity: 0.8; stroke-width: 0.5"/>
    <path d="M 54.31138 164.118508 
L 51.572767 166.85712 
L 54.31138 169.595733 
L 57.049993 166.85712 
z
" clip-path="url(#p516c5d0b6d)" style="fill: #44aa99; fill-opacity: 0.8; stroke: #ffffff; stroke-opacity: 0.8; stroke-width: 0.5"/>
    <path d="M 51.966893 169.601212 
L 54.705506 164.123986 
L 49.22828 164.123986 
z
" clip-path="url(#p516c5d0b6d)" style="fill: #88ccee; fill-opacity: 0.8; stroke: #ffffff; stroke-opacity: 0.8; stroke-width: 0.5"/>
    <path d="M 55.021831 168.252409 
C 55.748119 168.252409 56.444759 167.963852 56.958322 167.450288 
C 57.471886 166.936724 57.760443 166.240085 57.760443 165.513796 
C 57.760443 164.787508 57.471886 164.090868 56.958322 163.577305 
C 56.444759 163.063741 55.748119 162.775184 55.021831 162.775184 
C 54.295542 162.775184 53.598903 163.063741 53.085339 163.577305 
C 52.571775 164.090868 52.283218 164.787508 52.283218 165.513796 
C 52.283218 166.240085 52.571775 166.936724 53.085339 167.450288 
C 53.598903 167.963852 54.295542 168.252409 55.021831 168.252409 
z
" clip-path="url(#p516c5d0b6d)" style="fill: #882255; fill-opacity: 0.8; stroke: #ffffff; stroke-opacity: 0.8; stroke-width: 0.5"/>
    <path d="M 56.691389 164.118367 
L 53.952777 169.595593 
L 59.430002 169.595593 
z
" clip-path="url(#p516c5d0b6d)" style="fill: #332288; fill-opacity: 0.8; stroke: #ffffff; stroke-opacity: 0.8; stroke-width: 0.5"/>
    <path d="M 50.705329 164.923374 
L 51.272515 166.859865 
L 50.705329 168.796357 
L 52.641821 168.229172 
L 54.578313 168.796357 
L 54.011128 166.859865 
L 54.578313 164.923374 
L 52.641821 165.490559 
z
" clip-path="url(#p516c5d0b6d)" style="fill: #332288; fill-opacity: 0.8; stroke: #ffffff; stroke-opacity: 0.8; stroke-width: 0.5"/>
    <path d="M 52.942074 169.542403 
L 54.31138 168.173097 
L 55.680686 169.542403 
L 57.049993 168.173097 
L 55.680686 166.803791 
L 57.049993 165.434484 
L 55.680686 164.065178 
L 54.31138 165.434484 
L 52.942074 164.065178 
L 51.572767 165.434484 
L 52.942074 166.803791 
L 51.572767 168.173097 
z
" clip-path="url(#p516c5d0b6d)" style="fill: #882255; fill-opacity: 0.8; stroke: #ffffff; stroke-opacity: 0.8; stroke-width: 0.5"/>
    <path d="M 55.10359 168.845741 
L 56.929332 168.845741 
L 56.929332 167.02 
L 58.755074 167.02 
L 58.755074 165.194258 
L 56.929332 165.194258 
L 56.929332 163.368516 
L 55.10359 163.368516 
L 55.10359 165.194258 
L 53.277849 165.194258 
L 53.277849 167.02 
L 55.10359 167.02 
z
" clip-path="url(#p516c5d0b6d)" style="fill: #cc6677; fill-opacity: 0.8; stroke: #ffffff; stroke-opacity: 0.8; stroke-width: 0.5"/>
    <path d="M 52.730114 164.804896 
L 52.730114 168.67788 
L 56.603097 168.67788 
L 56.603097 164.804896 
z
" clip-path="url(#p516c5d0b6d)" style="fill: #cc6677; fill-opacity: 0.8; stroke: #ffffff; stroke-opacity: 0.8; stroke-width: 0.5"/>
    <path d="M 53.494362 164.113738 
L 50.755749 166.85235 
L 53.494362 169.590963 
L 56.232975 166.85235 
z
" clip-path="url(#p516c5d0b6d)" style="fill: #44aa99; fill-opacity: 0.8; stroke: #ffffff; stroke-opacity: 0.8; stroke-width: 0.5"/>
   </g>
   <g id="PolyCollection_1">
    <path d="M 52.677344 166.493725 
L 52.677344 166.493725 
L 52.819434 166.394994 
L 52.997046 166.27158 
L 52.997046 166.27158 
L 52.997046 166.27158 
L 52.819434 166.394994 
L 52.677344 166.493725 
z
" clip-path="url(#p516c5d0b6d)" style="fill-opacity: 0.2; stroke: #000000; stroke-opacity: 0.2; stroke-width: 0.8"/>
    <path d="M 53.316749 166.049436 
L 53.316749 166.049436 
L 53.316749 166.049436 
L 53.316749 166.049436 
z
" clip-path="url(#p516c5d0b6d)" style="fill-opacity: 0.2; stroke: #000000; stroke-opacity: 0.2; stroke-width: 0.8"/>
    <path d="M 53.494362 165.926022 
L 53.494362 165.926022 
L 53.494362 165.926022 
L 53.494362 165.926022 
z
" clip-path="url(#p516c5d0b6d)" style="fill-opacity: 0.2; stroke: #000000; stroke-opacity: 0.2; stroke-width: 0.8"/>
    <path d="M 53.671975 165.802609 
L 53.671975 165.802609 
L 53.707497 165.777926 
L 53.707497 165.777926 
L 53.707497 165.777926 
L 53.671975 165.802609 
z
" clip-path="url(#p516c5d0b6d)" style="fill-opacity: 0.2; stroke: #000000; stroke-opacity: 0.2; stroke-width: 0.8"/>
    <path d="M 53.849587 165.679195 
L 53.849587 165.679195 
L 53.849587 165.679195 
L 53.849587 165.679195 
z
" clip-path="url(#p516c5d0b6d)" style="fill-opacity: 0.2; stroke: #000000; stroke-opacity: 0.2; stroke-width: 0.8"/>
    <path d="M 54.31138 165.35832 
L 54.31138 165.35832 
L 54.346903 165.333637 
L 54.382425 165.308954 
L 54.382425 165.308954 
L 54.382425 165.308954 
L 54.346903 165.333637 
L 54.31138 165.35832 
z
" clip-path="url(#p516c5d0b6d)" style="fill-opacity: 0.2; stroke: #000000; stroke-opacity: 0.2; stroke-width: 0.8"/>
    <path d="M 54.666605 165.111492 
L 54.666605 165.111492 
L 54.702128 165.08681 
L 54.702128 165.08681 
L 54.702128 165.08681 
L 54.666605 165.111492 
z
" clip-path="url(#p516c5d0b6d)" style="fill-opacity: 0.2; stroke: #000000; stroke-opacity: 0.2; stroke-width: 0.8"/>
    <path d="M 55.021831 164.864665 
L 55.021831 164.864665 
L 55.021831 164.864665 
L 55.021831 164.864665 
z
" clip-path="url(#p516c5d0b6d)" style="fill-opacity: 0.2; stroke: #000000; stroke-opacity: 0.2; stroke-width: 0.8"/>
    <path d="M 55.696759 164.395693 
L 55.696759 164.395693 
L 55.696759 164.395693 
L 55.696759 164.395693 
z
" clip-path="url(#p516c5d0b6d)" style="fill-opacity: 0.2; stroke: #000000; stroke-opacity: 0.2; stroke-width: 0.8"/>
    <path d="M 55.909894 164.247597 
L 55.909894 164.247597 
L 56.016461 164.173549 
L 56.016461 164.173549 
L 56.016461 164.173549 
L 55.909894 164.247597 
z
" clip-path="url(#p516c5d0b6d)" style="fill-opacity: 0.2; stroke: #000000; stroke-opacity: 0.2; stroke-width: 0.8"/>
    <path d="M 57.650498 163.038143 
L 57.650498 163.038143 
L 57.650498 163.038143 
L 57.650498 163.038143 
z
" clip-path="url(#p516c5d0b6d)" style="fill-opacity: 0.2; stroke: #000000; stroke-opacity: 0.2; stroke-width: 0.8"/>
    <path d="M 57.863633 162.890047 
L 57.863633 162.890047 
L 57.863633 162.890047 
L 57.863633 162.890047 
z
" clip-path="url(#p516c5d0b6d)" style="fill-opacity: 0.2; stroke: #000000; stroke-opacity: 0.2; stroke-width: 0.8"/>
    <path d="M 60.137075 161.310352 
L 60.137075 161.310352 
L 60.137075 161.310352 
L 60.137075 161.310352 
z
" clip-path="url(#p516c5d0b6d)" style="fill-opacity: 0.2; stroke: #000000; stroke-opacity: 0.2; stroke-width: 0.8"/>
   </g>
   <g id="line2d_1"/>
   <g id="line2d_2"/>
   <g id="line2d_3"/>
   <g id="line2d_4"/>
   <g id="line2d_5"/>
   <g id="line2d_6"/>
   <g id="line2d_7"/>
   <g id="line2d_8"/>
   <g id="line2d_9"/>
   <g id="line2d_10">
    <path d="M 51.824803 167.08611 
L 176.828582 80.227595 
L 176.828582 80.227595 
" clip-path="url(#p516c5d0b6d)" style="fill: none; stroke-dasharray: 6,6; stroke-dashoffset: 0; stroke: #000000; stroke-width: 1.2"/>
   </g>
   <g id="patch_3">
    <path d="M 45.04 171.562875 
L 45.04 16.498875 
" style="fill: none; stroke: #262626; stroke-linejoin: miter; stroke-linecap: square"/>
   </g>
   <g id="patch_4">
    <path d="M 45.04 171.562875 
L 194.234621 171.562875 
" style="fill: none; stroke: #262626; stroke-linejoin: miter; stroke-linecap: square"/>
   </g>
  </g>
  <g id="legend_1">
   <g id="text_18">
    <text style="fill: #262626; font: 9.6px 'Arial', 'DejaVu Sans', 'Liberation Sans', 'Bitstream Vera Sans', sans-serif; text-anchor: start" x="252.336484" y="51.063187" transform="rotate(-0 252.336484 51.063187)">full name_x</text>
   </g>
   <g id="line2d_11">
    <defs>
     <path id="m69e7299398" d="M 0 6.846532 
C 1.815722 6.846532 3.55732 6.125138 4.841229 4.841229 
C 6.125138 3.55732 6.846532 1.815722 6.846532 0 
C 6.846532 -1.815722 6.125138 -3.55732 4.841229 -4.841229 
C 3.55732 -6.125138 1.815722 -6.846532 0 -6.846532 
C -1.815722 -6.846532 -3.55732 -6.125138 -4.841229 -4.841229 
C -6.125138 -3.55732 -6.846532 -1.815722 -6.846532 0 
C -6.846532 1.815722 -6.125138 3.55732 -4.841229 4.841229 
C -3.55732 6.125138 -1.815722 6.846532 0 6.846532 
z
" style="stroke: #1a1a1a; stroke-opacity: 0.8; stroke-width: 0.5"/>
    </defs>
    <g>
     <use xlink:href="#m69e7299398" x="209.769296" y="60.590062" style="fill: #882255; fill-opacity: 0.8; stroke: #1a1a1a; stroke-opacity: 0.8; stroke-width: 0.5"/>
    </g>
   </g>
   <g id="text_19">
    <text style="fill: #262626; font: 8.8px 'Arial', 'DejaVu Sans', 'Liberation Sans', 'Bitstream Vera Sans', sans-serif; text-anchor: start" x="225.609296" y="63.670062" transform="rotate(-0 225.609296 63.670062)">A. macleodii 1A3</text>
   </g>
   <g id="line2d_12">
    <defs>
     <path id="m6b096a6f47" d="M -3.423266 6.846532 
L 0 3.423266 
L 3.423266 6.846532 
L 6.846532 3.423266 
L 3.423266 0 
L 6.846532 -3.423266 
L 3.423266 -6.846532 
L 0 -3.423266 
L -3.423266 -6.846532 
L -6.846532 -3.423266 
L -3.423266 0 
L -6.846532 3.423266 
z
" style="stroke: #1a1a1a; stroke-opacity: 0.8; stroke-width: 0.5; stroke-linejoin: miter"/>
    </defs>
    <g>
     <use xlink:href="#m6b096a6f47" x="209.769296" y="73.037937" style="fill: #882255; fill-opacity: 0.8; stroke: #1a1a1a; stroke-opacity: 0.8; stroke-width: 0.5; stroke-linejoin: miter"/>
    </g>
   </g>
   <g id="text_20">
    <text style="fill: #262626; font: 8.8px 'Arial', 'DejaVu Sans', 'Liberation Sans', 'Bitstream Vera Sans', sans-serif; text-anchor: start" x="225.609296" y="76.117937" transform="rotate(-0 225.609296 76.117937)">Pseudoalteromonas haloplanktis</text>
   </g>
   <g id="line2d_13">
    <defs>
     <path id="m4e3e1dd81b" d="M -4.841229 -4.841229 
L -4.841229 4.841229 
L 4.841229 4.841229 
L 4.841229 -4.841229 
z
" style="stroke: #1a1a1a; stroke-opacity: 0.8; stroke-width: 0.5; stroke-linejoin: miter"/>
    </defs>
    <g>
     <use xlink:href="#m4e3e1dd81b" x="209.769296" y="85.593062" style="fill: #cc6677; fill-opacity: 0.8; stroke: #1a1a1a; stroke-opacity: 0.8; stroke-width: 0.5; stroke-linejoin: miter"/>
    </g>
   </g>
   <g id="text_21">
    <text style="fill: #262626; font: 8.8px 'Arial', 'DejaVu Sans', 'Liberation Sans', 'Bitstream Vera Sans', sans-serif; text-anchor: start" x="225.609296" y="88.673062" transform="rotate(-0 225.609296 88.673062)">Sulfitobacter pseudonitzschiae</text>
   </g>
   <g id="line2d_14">
    <defs>
     <path id="m9ba8fa3dc8" d="M -2.282177 6.846532 
L 2.282177 6.846532 
L 2.282177 2.282177 
L 6.846532 2.282177 
L 6.846532 -2.282177 
L 2.282177 -2.282177 
L 2.282177 -6.846532 
L -2.282177 -6.846532 
L -2.282177 -2.282177 
L -6.846532 -2.282177 
L -6.846532 2.282177 
L -2.282177 2.282177 
z
" style="stroke: #1a1a1a; stroke-opacity: 0.8; stroke-width: 0.5; stroke-linejoin: miter"/>
    </defs>
    <g>
     <use xlink:href="#m9ba8fa3dc8" x="209.769296" y="98.040937" style="fill: #cc6677; fill-opacity: 0.8; stroke: #1a1a1a; stroke-opacity: 0.8; stroke-width: 0.5; stroke-linejoin: miter"/>
    </g>
   </g>
   <g id="text_22">
    <text style="fill: #262626; font: 8.8px 'Arial', 'DejaVu Sans', 'Liberation Sans', 'Bitstream Vera Sans', sans-serif; text-anchor: start" x="225.609296" y="101.120937" transform="rotate(-0 225.609296 101.120937)">Ruegeria pomeroyi</text>
   </g>
   <g id="line2d_15">
    <defs>
     <path id="m0a1776833a" d="M 0 -6.846532 
L -6.846532 -0 
L -0 6.846532 
L 6.846532 0 
z
" style="stroke: #1a1a1a; stroke-opacity: 0.8; stroke-width: 0.5; stroke-linejoin: miter"/>
    </defs>
    <g>
     <use xlink:href="#m0a1776833a" x="209.769296" y="110.591937" style="fill: #44aa99; fill-opacity: 0.8; stroke: #1a1a1a; stroke-opacity: 0.8; stroke-width: 0.5; stroke-linejoin: miter"/>
    </g>
   </g>
   <g id="text_23">
    <text style="fill: #262626; font: 8.8px 'Arial', 'DejaVu Sans', 'Liberation Sans', 'Bitstream Vera Sans', sans-serif; text-anchor: start" x="225.609296" y="113.671937" transform="rotate(-0 225.609296 113.671937)">Marinovum 5F3</text>
   </g>
   <g id="line2d_16">
    <defs>
     <path id="m881b6ce6bf" d="M 0 -6.846532 
L -2.420615 -2.420615 
L -6.846532 -0 
L -2.420615 2.420615 
L -0 6.846532 
L 2.420615 2.420615 
L 6.846532 0 
L 2.420615 -2.420615 
z
" style="stroke: #1a1a1a; stroke-opacity: 0.8; stroke-width: 0.5; stroke-linejoin: bevel"/>
    </defs>
    <g>
     <use xlink:href="#m881b6ce6bf" x="209.769296" y="123.039812" style="fill: #44aa99; fill-opacity: 0.8; stroke: #1a1a1a; stroke-opacity: 0.8; stroke-width: 0.5; stroke-linejoin: bevel"/>
    </g>
   </g>
   <g id="text_24">
    <text style="fill: #262626; font: 8.8px 'Arial', 'DejaVu Sans', 'Liberation Sans', 'Bitstream Vera Sans', sans-serif; text-anchor: start" x="225.609296" y="126.119812" transform="rotate(-0 225.609296 126.119812)">Roseovarius 5C3</text>
   </g>
   <g id="line2d_17">
    <defs>
     <path id="m5fd756d3d2" d="M 0 -6.846532 
L -6.846532 6.846532 
L 6.846532 6.846532 
z
" style="stroke: #1a1a1a; stroke-opacity: 0.8; stroke-width: 0.5; stroke-linejoin: miter"/>
    </defs>
    <g>
     <use xlink:href="#m5fd756d3d2" x="209.769296" y="135.487687" style="fill: #332288; fill-opacity: 0.8; stroke: #1a1a1a; stroke-opacity: 0.8; stroke-width: 0.5; stroke-linejoin: miter"/>
    </g>
   </g>
   <g id="text_25">
    <text style="fill: #262626; font: 8.8px 'Arial', 'DejaVu Sans', 'Liberation Sans', 'Bitstream Vera Sans', sans-serif; text-anchor: start" x="225.609296" y="138.567687" transform="rotate(-0 225.609296 138.567687)">Marinobacter adhaerens HP15</text>
   </g>
   <g id="line2d_18">
    <defs>
     <path id="m6167092d02" d="M -4.841229 -4.841229 
L -3.423266 -0 
L -4.841229 4.841229 
L -0 3.423266 
L 4.841229 4.841229 
L 3.423266 0 
L 4.841229 -4.841229 
L 0 -3.423266 
z
" style="stroke: #1a1a1a; stroke-opacity: 0.8; stroke-width: 0.5; stroke-linejoin: bevel"/>
    </defs>
    <g>
     <use xlink:href="#m6167092d02" x="209.769296" y="147.935562" style="fill: #332288; fill-opacity: 0.8; stroke: #1a1a1a; stroke-opacity: 0.8; stroke-width: 0.5; stroke-linejoin: bevel"/>
    </g>
   </g>
   <g id="text_26">
    <text style="fill: #262626; font: 8.8px 'Arial', 'DejaVu Sans', 'Liberation Sans', 'Bitstream Vera Sans', sans-serif; text-anchor: start" x="225.609296" y="151.015562" transform="rotate(-0 225.609296 151.015562)">Phaeobacter gallaeciensis</text>
   </g>
   <g id="line2d_19">
    <defs>
     <path id="m02c717a4a4" d="M -0 6.846532 
L 6.846532 -6.846532 
L -6.846532 -6.846532 
z
" style="stroke: #1a1a1a; stroke-opacity: 0.8; stroke-width: 0.5; stroke-linejoin: miter"/>
    </defs>
    <g>
     <use xlink:href="#m02c717a4a4" x="209.769296" y="160.486562" style="fill: #88ccee; fill-opacity: 0.8; stroke: #1a1a1a; stroke-opacity: 0.8; stroke-width: 0.5; stroke-linejoin: miter"/>
    </g>
   </g>
   <g id="text_27">
    <text style="fill: #262626; font: 8.8px 'Arial', 'DejaVu Sans', 'Liberation Sans', 'Bitstream Vera Sans', sans-serif; text-anchor: start" x="225.609296" y="163.566562" transform="rotate(-0 225.609296 163.566562)">Axenic</text>
   </g>
  </g>
 </g>
 <defs>
  <clipPath id="p516c5d0b6d">
   <rect x="45.04" y="16.498875" width="149.194621" height="155.064"/>
  </clipPath>
 </defs>
</svg>
