<?xml version="1.0" encoding="utf-8" standalone="no"?>
<!DOCTYPE svg PUBLIC "-//W3C//DTD SVG 1.1//EN"
  "http://www.w3.org/Graphics/SVG/1.1/DTD/svg11.dtd">
<svg xmlns:xlink="http://www.w3.org/1999/xlink" width="216.5725pt" height="569.56625pt" viewBox="0 0 216.5725 569.56625" xmlns="http://www.w3.org/2000/svg" version="1.1">
 <metadata>
  <rdf:RDF xmlns:dc="http://purl.org/dc/elements/1.1/" xmlns:cc="http://creativecommons.org/ns#" xmlns:rdf="http://www.w3.org/1999/02/22-rdf-syntax-ns#">
   <cc:Work>
    <dc:type rdf:resource="http://purl.org/dc/dcmitype/StillImage"/>
    <dc:date>2025-08-07T13:39:12.479232</dc:date>
    <dc:format>image/svg+xml</dc:format>
    <dc:creator>
     <cc:Agent>
      <dc:title>Matplotlib v3.7.1, https://matplotlib.org/</dc:title>
     </cc:Agent>
    </dc:creator>
   </cc:Work>
  </rdf:RDF>
 </metadata>
 <defs>
  <style type="text/css">*{stroke-linejoin: round; stroke-linecap: butt}</style>
 </defs>
 <g id="figure_1">
  <g id="patch_1">
   <path d="M 0 569.56625 
L 216.5725 569.56625 
L 216.5725 0 
L 0 0 
L 0 569.56625 
z
" style="fill: none"/>
  </g>
  <g id="axes_1">
   <g id="patch_2">
    <path d="M 50.971 127.0095 
L 209.3725 127.0095 
L 209.3725 19.4945 
L 50.971 19.4945 
L 50.971 127.0095 
z
" style="fill: none"/>
   </g>
   <g id="matplotlib.axis_1">
    <g id="xtick_1"/>
    <g id="xtick_2"/>
    <g id="xtick_3"/>
   </g>
   <g id="matplotlib.axis_2">
    <g id="ytick_1">
     <g id="text_1">
      <!-- $\mathdefault{10^{-1}}$ -->
      <g style="fill: #262626" transform="translate(21.491 107.15475)">
       <text>
        <tspan style="font: 8.8px 'DejaVu Sans'" x="0 5.596832" y="-0.14687499999999964">10</tspan>
        <tspan style="font: 6.16px 'DejaVu Sans'" x="11.277883 16.437457" y="-3.515625">−1</tspan>
       </text>
      </g>
     </g>
    </g>
    <g id="ytick_2">
     <g id="text_2">
      <!-- $\mathdefault{10^{0}}$ -->
      <g style="fill: #262626" transform="translate(26.683 64.53875)">
       <text>
        <tspan style="font: 8.8px 'DejaVu Sans'" x="0 5.596832" y="-0.059375000000001066">10</tspan>
        <tspan style="font: 6.16px 'DejaVu Sans'" x="11.277883" y="-3.4281250000000014">0</tspan>
       </text>
      </g>
     </g>
    </g>
    <g id="ytick_3">
     <g id="text_3">
      <!-- $\mathdefault{10^{1}}$ -->
      <g style="fill: #262626" transform="translate(26.683 21.92275)">
       <text>
        <tspan style="font: 8.8px 'DejaVu Sans'" x="0 5.596832" y="-0.14687499999999964">10</tspan>
        <tspan style="font: 6.16px 'DejaVu Sans'" x="11.277883" y="-3.515625">1</tspan>
       </text>
      </g>
     </g>
    </g>
    <g id="ytick_4"/>
    <g id="ytick_5"/>
    <g id="ytick_6"/>
    <g id="ytick_7"/>
    <g id="ytick_8"/>
    <g id="ytick_9"/>
    <g id="ytick_10"/>
    <g id="ytick_11"/>
    <g id="ytick_12"/>
    <g id="ytick_13"/>
    <g id="ytick_14"/>
    <g id="ytick_15"/>
    <g id="ytick_16"/>
    <g id="ytick_17"/>
    <g id="ytick_18"/>
    <g id="ytick_19"/>
    <g id="ytick_20"/>
    <g id="ytick_21"/>
    <g id="ytick_22"/>
    <g id="ytick_23"/>
    <g id="ytick_24"/>
    <g id="ytick_25"/>
    <g id="ytick_26"/>
    <g id="text_4">
     <text style="fill: #262626; font: 9.6px 'Arial', 'DejaVu Sans', 'Liberation Sans', 'Bitstream Vera Sans', sans-serif; text-anchor: middle" x="14.4945" y="73.252" transform="rotate(-90 14.4945 73.252)">Fluorescence</text>
    </g>
   </g>
   <g id="line2d_1">
    <path d="M 50.971 99.035605 
L 52.195154 114.180806 
L 53.420095 117.188689 
L 54.079315 121.685111 
L 55.218612 116.476759 
L 56.290336 120.782108 
L 57.44299 121.685111 
L 58.587786 115.130137 
L 58.587786 113.874883 
L 58.587786 113.573935 
L 60.004443 104.179428 
L 61.09031 95.912408 
L 61.997819 93.441023 
L 61.997819 88.678296 
L 61.997819 88.217495 
L 63.22983 84.517299 
L 63.22983 83.199028 
L 63.22983 79.301918 
L 64.229268 74.976247 
L 64.229268 73.00771 
L 64.229268 72.742834 
L 65.487995 62.598071 
L 65.487995 62.240511 
L 65.487995 61.635444 
L 66.467004 55.439001 
L 66.467004 55.157215 
L 66.467004 54.767296 
L 69.23353 49.48652 
L 69.896679 51.784945 
L 69.896679 50.221398 
L 69.896679 50.153372 
L 71.028119 53.296408 
L 71.028119 53.296408 
L 71.028119 52.344204 
L 72.142272 54.422035 
L 72.142272 54.107103 
L 72.142272 52.875885 
L 73.272925 55.84349 
L 73.272925 55.477761 
L 73.272925 55.246409 
L 74.48058 48.081551 
L 74.48058 46.938102 
L 74.48058 46.711207 
L 75.72752 53.574379 
L 75.72752 52.486699 
L 75.72752 51.563796 
L 78.010827 58.659156 
L 78.010827 58.628463 
L 78.010827 57.599567 
L 80.088276 55.712041 
L 80.088276 54.361053 
L 80.088276 53.809254 
L 81.233858 55.464832 
L 81.233858 54.25179 
L 81.233858 53.423294 
L 82.484727 57.368937 
L 82.484727 57.141144 
L 82.484727 55.297572 
L 84.669819 54.348881 
L 86.132047 56.433219 
L 86.971198 58.3243 
L 86.971198 57.455087 
L 86.971198 56.902148 
L 88.058637 59.507714 
L 88.058637 58.33939 
L 88.058637 57.789095 
L 89.141361 56.365251 
L 89.141361 55.909566 
L 89.141361 55.856686 
L 90.312087 56.972121 
L 90.312087 56.257017 
L 90.312087 56.069118 
L 92.724253 57.657677 
L 93.726833 35.231187 
L 93.726833 34.875131 
L 93.726833 34.40942 
L 96.124856 59.125766 
L 96.124856 58.039903 
L 96.124856 58.025055 
L 97.184009 59.653001 
L 98.304448 60.720419 
L 101.613122 68.449274 
L 103.916073 75.888525 
L 105.188156 78.078184 
L 106.197023 82.022639 
L 107.438463 80.165137 
L 109.561483 71.938716 
L 110.939639 70.515495 
L 112.966801 63.593464 
L 117.542059 61.189878 
L 118.75757 60.979758 
L 122.129888 73.652413 
L 125.251561 73.514807 
L 126.769575 74.071478 
L 127.8908 76.005787 
L 129.947819 74.284623 
L 133.311494 77.730608 
L 134.435862 72.579191 
L 138.023467 75.966617 
L 141.254355 66.567173 
L 142.491867 63.374197 
L 143.701878 72.416982 
L 146.259402 79.022899 
L 149.284431 79.115439 
L 150.305084 78.976802 
L 151.384665 86.619744 
L 153.931975 81.173991 
L 157.085862 85.473169 
L 158.364231 86.900172 
L 160.533609 87.916547 
L 161.849693 85.936718 
L 164.954079 85.473169 
L 172.843511 94.581927 
L 176.497117 95.346373 
L 182.043527 96.37804 
L 185.373416 92.749982 
L 188.755162 103.131532 
L 196.663451 104.359995 
" clip-path="url(#pa25e1816ef)" style="fill: none; stroke: #882255; stroke-width: 3; stroke-linecap: round"/>
   </g>
   <g id="line2d_2">
    <path d="M 50.971 104.359995 
L 52.195154 111.065274 
L 53.420095 117.188689 
L 54.079315 121.685111 
L 55.218612 121.685111 
L 56.290336 110.050889 
L 57.44299 121.685111 
L 58.587786 121.685111 
L 58.587786 121.685111 
L 58.587786 118.310723 
L 60.004443 113.573935 
L 61.09031 102.464509 
L 61.997819 102.464509 
L 61.997819 101.663176 
L 61.997819 99.728866 
L 63.22983 90.473419 
L 63.22983 89.635814 
L 63.22983 89.391751 
L 64.229268 83.141281 
L 64.229268 81.435038 
L 64.229268 79.872901 
L 65.487995 72.974392 
L 65.487995 71.289249 
L 65.487995 70.987811 
L 66.467004 63.917108 
L 66.467004 63.876341 
L 66.467004 63.334608 
L 69.23353 47.45902 
L 69.896679 43.381169 
L 69.896679 42.700874 
L 69.896679 42.379436 
L 71.028119 37.861033 
L 71.028119 37.692056 
L 71.028119 37.52951 
L 72.142272 43.638603 
L 72.142272 42.057222 
L 72.142272 41.532359 
L 73.272925 44.143427 
L 73.272925 43.982882 
L 73.272925 43.872015 
L 74.48058 45.548475 
L 74.48058 45.293086 
L 74.48058 44.916491 
L 75.72752 52.07322 
L 75.72752 50.95625 
L 75.72752 50.172782 
L 78.010827 56.176255 
L 78.010827 55.646666 
L 78.010827 55.017914 
L 80.088276 55.725144 
L 80.088276 55.374581 
L 80.088276 55.20813 
L 81.233858 56.542491 
L 81.233858 56.176255 
L 81.233858 55.936063 
L 82.484727 59.539901 
L 82.484727 58.751541 
L 82.484727 58.751541 
L 84.669819 49.4025 
L 86.132047 56.749132 
L 86.971198 60.046104 
L 86.971198 57.774446 
L 86.971198 57.311725 
L 88.058637 60.858281 
L 88.058637 60.617692 
L 88.058637 60.029557 
L 89.141361 58.705291 
L 89.141361 58.264063 
L 89.141361 58.189041 
L 90.312087 43.713797 
L 90.312087 40.176874 
L 90.312087 40.047191 
L 92.724253 53.033881 
L 93.726833 54.520025 
L 93.726833 54.131139 
L 93.726833 53.158973 
L 96.124856 57.383267 
L 96.124856 57.112866 
L 96.124856 56.611116 
L 97.184009 57.411961 
L 98.304448 53.832907 
L 101.613122 62.055059 
L 103.916073 69.772794 
L 105.188156 71.319665 
L 106.197023 70.399275 
L 107.438463 67.020061 
L 109.561483 61.78032 
L 110.939639 58.159117 
L 112.966801 60.49856 
L 117.542059 67.558688 
L 118.75757 68.449274 
L 122.129888 74.755034 
L 125.251561 78.298782 
L 126.769575 77.90358 
L 127.8908 81.860525 
L 129.947819 78.034379 
L 133.311494 81.806801 
L 134.435862 78.839196 
L 138.023467 76.3621 
L 141.254355 69.772794 
L 142.491867 70.054932 
L 143.701878 76.563056 
L 146.259402 78.343218 
L 149.284431 77.7737 
L 150.305084 75.350913 
L 151.384665 85.020947 
L 153.931975 83.667607 
L 157.085862 88.834482 
L 158.364231 88.293503 
L 160.533609 85.020947 
L 161.849693 88.066409 
L 164.954079 85.407885 
L 172.843511 93.847807 
L 176.497117 92.749982 
L 182.043527 95.912408 
L 185.373416 104.179428 
L 188.755162 100.013608 
L 196.663451 111.065274 
" clip-path="url(#pa25e1816ef)" style="fill: none; stroke: #882255; stroke-width: 3; stroke-linecap: round"/>
   </g>
   <g id="line2d_3">
    <path d="M 50.971 101.663176 
L 52.195154 112.416815 
L 53.420095 113.874883 
L 54.079315 116.829301 
L 55.218612 121.685111 
L 56.290336 115.457718 
L 57.44299 121.685111 
L 58.587786 115.457718 
L 58.587786 110.050889 
L 58.587786 104.000607 
L 60.004443 95.683913 
L 61.09031 94.797137 
L 61.997819 90.559302 
L 61.997819 87.916547 
L 61.997819 86.759427 
L 63.22983 82.62951 
L 63.22983 80.462061 
L 63.22983 78.343218 
L 64.229268 70.987811 
L 64.229268 69.577826 
L 64.229268 69.41233 
L 65.487995 64.923447 
L 65.487995 63.275383 
L 65.487995 62.674236 
L 66.467004 53.726709 
L 66.467004 53.284916 
L 66.467004 52.819784 
L 69.23353 52.909628 
L 69.896679 53.492872 
L 69.896679 52.696956 
L 69.896679 52.333288 
L 71.028119 55.477761 
L 71.028119 55.323206 
L 71.028119 54.507748 
L 72.142272 57.936217 
L 72.142272 57.556105 
L 72.142272 57.311725 
L 73.272925 55.20813 
L 73.272925 55.043164 
L 73.272925 54.446484 
L 74.48058 59.459537 
L 74.48058 59.459537 
L 74.48058 58.234017 
L 75.72752 62.35268 
L 75.72752 61.92634 
L 75.72752 61.545468 
L 78.010827 61.154692 
L 78.010827 59.363558 
L 78.010827 59.000182 
L 80.088276 60.997177 
L 80.088276 60.875586 
L 80.088276 59.980004 
L 81.233858 60.789221 
L 81.233858 58.782439 
L 81.233858 58.613135 
L 82.484727 64.371565 
L 82.484727 63.937524 
L 82.484727 63.917108 
L 84.669819 57.098743 
L 86.132047 60.49856 
L 86.971198 59.283954 
L 86.971198 59.283954 
L 86.971198 58.204021 
L 88.058637 61.349049 
L 88.058637 60.892907 
L 88.058637 60.346509 
L 89.141361 60.212393 
L 89.141361 59.299848 
L 89.141361 59.078572 
L 90.312087 61.225132 
L 90.312087 59.331675 
L 90.312087 58.705291 
L 92.724253 62.18468 
L 93.726833 60.617692 
L 93.726833 60.464663 
L 93.726833 60.363342 
L 96.124856 64.122297 
L 96.124856 63.998911 
L 96.124856 63.593464 
L 97.184009 64.603049 
L 98.304448 63.633611 
L 101.613122 71.782001 
L 103.916073 72.352495 
L 105.188156 73.378217 
L 106.197023 70.399275 
L 107.438463 69.058751 
L 109.561483 62.315215 
L 110.939639 62.1105 
L 112.966801 65.271432 
L 117.542059 69.605553 
L 118.75757 65.603719 
L 122.129888 77.347232 
L 125.251561 77.860185 
L 126.769575 79.395867 
L 127.8908 78.748024 
L 129.947819 78.702606 
L 133.311494 79.069111 
L 134.435862 74.177743 
L 138.023467 67.068384 
L 141.254355 65.271432 
L 142.491867 64.455406 
L 143.701878 71.844528 
L 146.259402 77.990676 
L 149.284431 74.536435 
L 150.305084 76.005787 
L 151.384665 81.435038 
L 153.931975 85.803087 
L 157.085862 85.149029 
L 158.364231 82.855218 
L 160.533609 81.330177 
L 161.849693 81.540496 
L 164.954079 81.173991 
L 172.843511 87.620414 
L 176.497117 91.350734 
L 182.043527 91.990577 
L 185.373416 95.797808 
L 188.755162 100.157639 
L 196.663451 108.626502 
" clip-path="url(#pa25e1816ef)" style="fill: none; stroke: #882255; stroke-width: 3; stroke-linecap: round"/>
   </g>
   <g id="line2d_4">
    <path d="M 50.971 100.945328 
L 52.195154 115.679373 
L 53.420095 96.85569 
L 54.079315 89.663132 
L 55.218612 82.536271 
L 56.290336 72.449311 
L 57.44299 61.623422 
L 58.587786 53.355257 
L 60.004443 42.520181 
L 61.09031 46.075261 
L 61.997819 53.195777 
L 63.22983 62.84676 
L 64.229268 63.555627 
L 65.487995 65.118383 
L 66.467004 64.446072 
L 69.23353 69.504089 
L 69.896679 69.954123 
L 71.028119 74.161962 
L 72.142272 79.385404 
L 73.272925 81.765123 
L 74.48058 83.608382 
L 75.72752 91.261107 
L 78.010827 97.085604 
L 80.088276 97.708358 
L 81.233858 101.961838 
L 82.484727 110.271552 
L 84.669819 121.685111 
L 86.132047 121.685111 
L 86.971198 120.587286 
L 88.058637 120.880293 
L 89.141361 119.55095 
L 90.312087 118.96478 
L 92.724253 121.685111 
L 93.726833 118.92045 
L 96.124856 120.394494 
L 97.184009 121.685111 
L 98.304448 120.490639 
L 101.613122 121.685111 
L 103.916073 121.685111 
L 105.188156 121.228103 
L 106.197023 115.457718 
L 107.438463 121.685111 
L 109.561483 121.685111 
L 110.939639 121.07824 
L 112.966801 121.685111 
L 117.542059 118.055438 
L 118.75757 121.228103 
L 122.129888 121.685111 
L 125.251561 119.781437 
L 126.769575 121.685111 
L 127.8908 121.07824 
L 129.947819 121.685111 
L 133.311494 120.490639 
L 134.435862 121.685111 
L 138.023467 119.92112 
L 141.254355 121.685111 
L 142.491867 121.228103 
L 143.701878 120.490639 
L 146.259402 121.685111 
L 149.284431 121.685111 
L 150.305084 119.368605 
L 151.384665 121.228103 
L 153.931975 118.96478 
L 157.085862 120.490639 
L 158.364231 121.685111 
L 160.533609 121.685111 
L 161.849693 121.228103 
L 164.954079 121.685111 
L 172.843511 121.685111 
L 176.497117 121.685111 
L 182.043527 121.228103 
L 185.373416 115.568214 
L 188.755162 121.685111 
L 196.663451 121.685111 
" clip-path="url(#pa25e1816ef)" style="fill: none; stroke: #000000; stroke-linecap: round"/>
   </g>
   <g id="patch_3">
    <path d="M 50.971 127.0095 
L 50.971 19.4945 
" style="fill: none; stroke: #262626; stroke-linejoin: miter; stroke-linecap: square"/>
   </g>
   <g id="patch_4">
    <path d="M 50.971 127.0095 
L 209.3725 127.0095 
" style="fill: none; stroke: #262626; stroke-linejoin: miter; stroke-linecap: square"/>
   </g>
   <g id="text_5">
    <text style="fill: #262626; font: 9.6px 'Arial', 'DejaVu Sans', 'Liberation Sans', 'Bitstream Vera Sans', sans-serif; text-anchor: middle" x="130.17175" y="14.4945" transform="rotate(-0 130.17175 14.4945)">A. macleodii 1A3</text>
   </g>
  </g>
  <g id="axes_2">
   <g id="patch_5">
    <path d="M 50.971 261.5925 
L 209.3725 261.5925 
L 209.3725 154.0775 
L 50.971 154.0775 
L 50.971 261.5925 
z
" style="fill: none"/>
   </g>
   <g id="matplotlib.axis_3">
    <g id="xtick_4"/>
    <g id="xtick_5"/>
    <g id="xtick_6"/>
   </g>
   <g id="matplotlib.axis_4">
    <g id="ytick_27">
     <g id="text_6">
      <!-- $\mathdefault{10^{-1}}$ -->
      <g style="fill: #262626" transform="translate(21.491 241.73775)">
       <text>
        <tspan style="font: 8.8px 'DejaVu Sans'" x="0 5.596832" y="-0.14687499999999964">10</tspan>
        <tspan style="font: 6.16px 'DejaVu Sans'" x="11.277883 16.437457" y="-3.515625">−1</tspan>
       </text>
      </g>
     </g>
    </g>
    <g id="ytick_28">
     <g id="text_7">
      <!-- $\mathdefault{10^{0}}$ -->
      <g style="fill: #262626" transform="translate(26.683 199.12175)">
       <text>
        <tspan style="font: 8.8px 'DejaVu Sans'" x="0 5.596832" y="-0.059375000000001066">10</tspan>
        <tspan style="font: 6.16px 'DejaVu Sans'" x="11.277883" y="-3.4281250000000014">0</tspan>
       </text>
      </g>
     </g>
    </g>
    <g id="ytick_29">
     <g id="text_8">
      <!-- $\mathdefault{10^{1}}$ -->
      <g style="fill: #262626" transform="translate(26.683 156.50575)">
       <text>
        <tspan style="font: 8.8px 'DejaVu Sans'" x="0 5.596832" y="-0.14687499999999964">10</tspan>
        <tspan style="font: 6.16px 'DejaVu Sans'" x="11.277883" y="-3.515625">1</tspan>
       </text>
      </g>
     </g>
    </g>
    <g id="ytick_30"/>
    <g id="ytick_31"/>
    <g id="ytick_32"/>
    <g id="ytick_33"/>
    <g id="ytick_34"/>
    <g id="ytick_35"/>
    <g id="ytick_36"/>
    <g id="ytick_37"/>
    <g id="ytick_38"/>
    <g id="ytick_39"/>
    <g id="ytick_40"/>
    <g id="ytick_41"/>
    <g id="ytick_42"/>
    <g id="ytick_43"/>
    <g id="ytick_44"/>
    <g id="ytick_45"/>
    <g id="ytick_46"/>
    <g id="ytick_47"/>
    <g id="ytick_48"/>
    <g id="ytick_49"/>
    <g id="ytick_50"/>
    <g id="ytick_51"/>
    <g id="ytick_52"/>
    <g id="text_9">
     <text style="fill: #262626; font: 9.6px 'Arial', 'DejaVu Sans', 'Liberation Sans', 'Bitstream Vera Sans', sans-serif; text-anchor: middle" x="14.4945" y="207.835" transform="rotate(-90 14.4945 207.835)">Fluorescence</text>
    </g>
   </g>
   <g id="line2d_5">
    <path d="M 50.971 236.403691 
L 52.195154 250.374203 
L 53.420095 237.212024 
L 54.079315 234.171121 
L 55.218612 223.029461 
L 56.290336 218.91491 
L 57.44299 210.162409 
L 58.587786 205.098495 
L 58.587786 202.241327 
L 58.587786 201.797116 
L 60.004443 202.902393 
L 61.09031 211.846105 
L 61.997819 212.926218 
L 61.997819 212.48658 
L 61.997819 209.933913 
L 63.22983 214.12069 
L 63.22983 211.637445 
L 63.22983 211.595994 
L 64.229268 212.705094 
L 64.229268 212.227724 
L 64.229268 210.746302 
L 65.487995 204.723419 
L 65.487995 203.804102 
L 65.487995 203.507538 
L 66.467004 202.645335 
L 66.467004 202.568909 
L 66.467004 201.84595 
L 69.23353 203.668711 
L 69.896679 210.865325 
L 69.896679 209.745632 
L 69.896679 207.724583 
L 71.028119 205.841883 
L 71.028119 205.011262 
L 71.028119 203.427475 
L 72.142272 206.427528 
L 72.142272 204.666384 
L 72.142272 204.609524 
L 73.272925 202.74773 
L 73.272925 202.518133 
L 73.272925 202.017889 
L 74.48058 202.017889 
L 74.48058 201.699834 
L 74.48058 201.434915 
L 75.72752 205.362688 
L 75.72752 203.587949 
L 75.72752 203.110642 
L 78.010827 205.421913 
L 78.010827 204.895587 
L 78.010827 203.8313 
L 80.088276 197.487627 
L 80.088276 196.454448 
L 80.088276 195.183626 
L 81.233858 197.878104 
L 81.233858 197.410511 
L 81.233858 196.417943 
L 82.484727 198.788014 
L 82.484727 198.39836 
L 82.484727 197.468318 
L 84.669819 208.097807 
L 86.132047 198.256846 
L 86.971198 197.067409 
L 86.971198 196.454448 
L 86.971198 195.183626 
L 88.058637 199.292233 
L 88.058637 197.642831 
L 88.058637 196.730553 
L 89.141361 197.957197 
L 89.141361 197.545676 
L 89.141361 197.506957 
L 90.312087 198.912787 
L 90.312087 198.664077 
L 90.312087 198.602418 
L 92.724253 207.129635 
L 93.726833 205.451597 
L 93.726833 205.011262 
L 93.726833 203.69571 
L 96.124856 206.553218 
L 96.124856 204.83802 
L 96.124856 203.804102 
L 97.184009 206.240578 
L 98.304448 205.421913 
L 101.613122 206.055497 
L 103.916073 217.956358 
L 105.188156 220.386087 
L 106.197023 225.933734 
L 107.438463 227.923709 
L 109.561483 229.272219 
L 110.939639 235.935112 
L 112.966801 236.7228 
L 117.542059 234.031438 
L 118.75757 232.305438 
L 122.129888 237.885113 
L 125.251561 242.100914 
L 126.769575 234.45369 
L 127.8908 240.852717 
L 129.947819 240.25883 
L 133.311494 233.483016 
L 134.435862 230.72676 
L 138.023467 238.231065 
L 141.254355 230.610722 
L 142.491867 235.629189 
L 143.701878 236.562558 
L 146.259402 229.929373 
L 149.284431 234.740639 
L 150.305084 227.823936 
L 151.384665 228.95219 
L 153.931975 231.805194 
L 157.085862 231.805194 
L 158.364231 235.179582 
L 160.533609 235.478103 
L 161.849693 233.214781 
L 164.954079 228.846732 
L 172.843511 235.629189 
L 176.497117 235.179582 
L 182.043527 248.156935 
L 185.373416 252.893723 
L 188.755162 256.268111 
L 196.663451 256.268111 
" clip-path="url(#pce8a253809)" style="fill: none; stroke: #882255; stroke-width: 3; stroke-linecap: round"/>
   </g>
   <g id="line2d_6">
    <path d="M 50.971 229.164927 
L 52.195154 254.929608 
L 53.420095 237.885113 
L 54.079315 255.365108 
L 55.218612 246.999815 
L 56.290336 256.268111 
L 57.44299 243.672223 
L 58.587786 256.268111 
L 58.587786 248.156935 
L 58.587786 245.648274 
L 60.004443 252.893723 
L 61.09031 239.3095 
L 61.997819 251.412301 
L 61.997819 241.466295 
L 61.997819 240.65263 
L 63.22983 240.454683 
L 63.22983 236.08999 
L 63.22983 231.079302 
L 64.229268 236.246176 
L 64.229268 234.031438 
L 64.229268 232.305438 
L 65.487995 224.885838 
L 65.487995 224.137102 
L 65.487995 222.499547 
L 66.467004 218.853524 
L 66.467004 216.605639 
L 66.467004 214.995242 
L 69.23353 200.16438 
L 69.896679 196.6935 
L 69.896679 196.308859 
L 69.896679 196.200414 
L 71.028119 188.309709 
L 71.028119 187.994723 
L 71.028119 186.905378 
L 72.142272 180.184495 
L 72.142272 180.093696 
L 72.142272 180.025887 
L 73.272925 174.180585 
L 73.272925 173.507496 
L 73.272925 173.454692 
L 74.48058 169.411453 
L 74.48058 169.204941 
L 74.48058 168.598882 
L 75.72752 166.344754 
L 75.72752 165.904745 
L 75.72752 165.653975 
L 78.010827 163.439497 
L 78.010827 163.396577 
L 78.010827 163.092863 
L 80.088276 171.53794 
L 80.088276 171.495202 
L 80.088276 171.254867 
L 81.233858 177.957442 
L 81.233858 177.257952 
L 81.233858 176.778529 
L 82.484727 182.100815 
L 82.484727 181.900004 
L 82.484727 180.974822 
L 84.669819 226.480805 
L 86.132047 187.313374 
L 86.971198 187.719166 
L 86.971198 186.731696 
L 86.971198 185.458385 
L 88.058637 188.017872 
L 88.058637 187.447651 
L 88.058637 187.168997 
L 89.141361 187.549003 
L 89.141361 187.515158 
L 89.141361 186.272843 
L 90.312087 188.522717 
L 90.312087 188.297946 
L 90.312087 187.470126 
L 92.724253 191.34599 
L 93.726833 190.452892 
L 93.726833 190.386957 
L 93.726833 190.009099 
L 96.124856 192.313572 
L 96.124856 191.34599 
L 96.124856 190.638769 
L 97.184009 191.125491 
L 98.304448 189.75293 
L 101.613122 192.622903 
L 103.916073 196.804882 
L 105.188156 198.337578 
L 106.197023 203.084482 
L 107.438463 208.975123 
L 109.561483 224.137102 
L 110.939639 225.056419 
L 112.966801 230.153714 
L 117.542059 224.055748 
L 118.75757 224.300889 
L 122.129888 237.047509 
L 125.251561 230.495408 
L 126.769575 234.596608 
L 127.8908 235.179582 
L 129.947819 230.495408 
L 133.311494 224.885838 
L 134.435862 225.666145 
L 138.023467 211.308407 
L 141.254355 204.271985 
L 142.491867 200.231478 
L 143.701878 200.186719 
L 146.259402 219.224932 
L 149.284431 216.443525 
L 150.305084 220.056169 
L 151.384665 222.350888 
L 153.931975 223.496072 
L 157.085862 227.724698 
L 158.364231 229.380137 
L 160.533609 229.272219 
L 161.849693 233.082107 
L 164.954079 235.179582 
L 172.843511 241.886947 
L 176.497117 242.317383 
L 182.043527 245.389418 
L 185.373416 235.328241 
L 188.755162 250.374203 
L 196.663451 248.156935 
" clip-path="url(#pce8a253809)" style="fill: none; stroke: #882255; stroke-width: 3; stroke-linecap: round"/>
   </g>
   <g id="line2d_7">
    <path d="M 50.971 231.682218 
L 52.195154 249.713137 
L 53.420095 244.633889 
L 54.079315 245.648274 
L 55.218612 245.648274 
L 56.290336 239.683409 
L 57.44299 237.714532 
L 58.587786 234.740639 
L 58.587786 234.596608 
L 58.587786 232.432641 
L 60.004443 219.732029 
L 61.09031 212.749108 
L 61.997819 210.825565 
L 61.997819 210.316321 
L 61.997819 209.820715 
L 63.22983 203.940491 
L 63.22983 202.067309 
L 63.22983 201.9686 
L 64.229268 194.010489 
L 64.229268 193.104436 
L 64.229268 192.401426 
L 65.487995 186.30449 
L 65.487995 185.732732 
L 65.487995 184.892229 
L 66.467004 179.661005 
L 66.467004 179.209392 
L 66.467004 178.916687 
L 69.23353 167.941445 
L 69.896679 167.080991 
L 69.896679 166.76974 
L 69.896679 165.922286 
L 71.028119 166.416713 
L 71.028119 166.290967 
L 71.028119 165.778935 
L 72.142272 176.084944 
L 72.142272 175.807441 
L 72.142272 175.317019 
L 73.272925 180.230062 
L 73.272925 179.21659 
L 73.272925 178.621566 
L 74.48058 184.25761 
L 74.48058 183.147813 
L 74.48058 182.882652 
L 75.72752 187.925448 
L 75.72752 187.014763 
L 75.72752 186.905378 
L 78.010827 191.139196 
L 78.010827 189.164534 
L 78.010827 189.029484 
L 80.088276 190.373799 
L 80.088276 189.638801 
L 80.088276 189.475181 
L 81.233858 189.970447 
L 81.233858 189.803881 
L 81.233858 188.980618 
L 82.484727 192.563583 
L 82.484727 192.052484 
L 82.484727 190.545597 
L 84.669819 182.016879 
L 86.132047 191.318284 
L 86.971198 191.823459 
L 86.971198 190.598781 
L 86.971198 190.242722 
L 88.058637 191.499121 
L 88.058637 191.304446 
L 88.058637 190.867016 
L 89.141361 192.548782 
L 89.141361 191.043477 
L 89.141361 190.934687 
L 90.312087 191.667631 
L 90.312087 191.262995 
L 90.312087 191.207871 
L 92.724253 191.980609 
L 93.726833 194.333497 
L 93.726833 192.742117 
L 93.726833 191.980609 
L 96.124856 197.200083 
L 96.124856 196.601191 
L 96.124856 196.164406 
L 97.184009 197.957197 
L 98.304448 198.725942 
L 101.613122 210.667377 
L 103.916073 216.98952 
L 105.188156 225.489878 
L 106.197023 220.654322 
L 107.438463 216.93419 
L 109.561483 227.044541 
L 110.939639 222.952824 
L 112.966801 227.823936 
L 117.542059 230.495408 
L 118.75757 227.430136 
L 122.129888 231.079302 
L 125.251561 230.380808 
L 126.769575 229.59788 
L 127.8908 243.907996 
L 129.947819 237.212024 
L 133.311494 230.610722 
L 134.435862 227.332982 
L 138.023467 218.9765 
L 141.254355 219.162511 
L 142.491867 215.397603 
L 143.701878 214.504287 
L 146.259402 219.038296 
L 149.284431 215.602112 
L 150.305084 215.808907 
L 151.384665 219.603947 
L 153.931975 219.861005 
L 157.085862 221.696317 
L 158.364231 228.124884 
L 160.533609 224.137102 
L 161.849693 223.733864 
L 164.954079 234.45369 
L 172.843511 240.454683 
L 176.497117 242.100914 
L 182.043527 237.714532 
L 185.373416 243.209502 
L 188.755162 236.884442 
L 196.663451 248.457883 
" clip-path="url(#pce8a253809)" style="fill: none; stroke: #882255; stroke-width: 3; stroke-linecap: round"/>
   </g>
   <g id="line2d_8">
    <path d="M 50.971 235.528328 
L 52.195154 250.262373 
L 53.420095 231.43869 
L 54.079315 224.246132 
L 55.218612 217.119271 
L 56.290336 207.032311 
L 57.44299 196.206422 
L 58.587786 187.938257 
L 60.004443 177.103181 
L 61.09031 180.658261 
L 61.997819 187.778777 
L 63.22983 197.42976 
L 64.229268 198.138627 
L 65.487995 199.701383 
L 66.467004 199.029072 
L 69.23353 204.087089 
L 69.896679 204.537123 
L 71.028119 208.744962 
L 72.142272 213.968404 
L 73.272925 216.348123 
L 74.48058 218.191382 
L 75.72752 225.844107 
L 78.010827 231.668604 
L 80.088276 232.291358 
L 81.233858 236.544838 
L 82.484727 244.854552 
L 84.669819 256.268111 
L 86.132047 256.268111 
L 86.971198 255.170286 
L 88.058637 255.463293 
L 89.141361 254.13395 
L 90.312087 253.54778 
L 92.724253 256.268111 
L 93.726833 253.50345 
L 96.124856 254.977494 
L 97.184009 256.268111 
L 98.304448 255.073639 
L 101.613122 256.268111 
L 103.916073 256.268111 
L 105.188156 255.811103 
L 106.197023 250.040718 
L 107.438463 256.268111 
L 109.561483 256.268111 
L 110.939639 255.66124 
L 112.966801 256.268111 
L 117.542059 252.638438 
L 118.75757 255.811103 
L 122.129888 256.268111 
L 125.251561 254.364437 
L 126.769575 256.268111 
L 127.8908 255.66124 
L 129.947819 256.268111 
L 133.311494 255.073639 
L 134.435862 256.268111 
L 138.023467 254.50412 
L 141.254355 256.268111 
L 142.491867 255.811103 
L 143.701878 255.073639 
L 146.259402 256.268111 
L 149.284431 256.268111 
L 150.305084 253.951605 
L 151.384665 255.811103 
L 153.931975 253.54778 
L 157.085862 255.073639 
L 158.364231 256.268111 
L 160.533609 256.268111 
L 161.849693 255.811103 
L 164.954079 256.268111 
L 172.843511 256.268111 
L 176.497117 256.268111 
L 182.043527 255.811103 
L 185.373416 250.151214 
L 188.755162 256.268111 
L 196.663451 256.268111 
" clip-path="url(#pce8a253809)" style="fill: none; stroke: #000000; stroke-linecap: round"/>
   </g>
   <g id="patch_6">
    <path d="M 50.971 261.5925 
L 50.971 154.0775 
" style="fill: none; stroke: #262626; stroke-linejoin: miter; stroke-linecap: square"/>
   </g>
   <g id="patch_7">
    <path d="M 50.971 261.5925 
L 209.3725 261.5925 
" style="fill: none; stroke: #262626; stroke-linejoin: miter; stroke-linecap: square"/>
   </g>
   <g id="text_10">
    <text style="fill: #262626; font: 9.6px 'Arial', 'DejaVu Sans', 'Liberation Sans', 'Bitstream Vera Sans', sans-serif; text-anchor: middle" x="130.17175" y="149.0775" transform="rotate(-0 130.17175 149.0775)">Pseudoalteromonas haloplanktis</text>
   </g>
  </g>
  <g id="axes_3">
   <g id="patch_8">
    <path d="M 50.971 396.1755 
L 209.3725 396.1755 
L 209.3725 288.6605 
L 50.971 288.6605 
L 50.971 396.1755 
z
" style="fill: none"/>
   </g>
   <g id="matplotlib.axis_5">
    <g id="xtick_7"/>
    <g id="xtick_8"/>
    <g id="xtick_9"/>
   </g>
   <g id="matplotlib.axis_6">
    <g id="ytick_53">
     <g id="text_11">
      <!-- $\mathdefault{10^{-1}}$ -->
      <g style="fill: #262626" transform="translate(21.491 376.32075)">
       <text>
        <tspan style="font: 8.8px 'DejaVu Sans'" x="0 5.596832" y="-0.14687499999999964">10</tspan>
        <tspan style="font: 6.16px 'DejaVu Sans'" x="11.277883 16.437457" y="-3.515625">−1</tspan>
       </text>
      </g>
     </g>
    </g>
    <g id="ytick_54">
     <g id="text_12">
      <!-- $\mathdefault{10^{0}}$ -->
      <g style="fill: #262626" transform="translate(26.683 333.70475)">
       <text>
        <tspan style="font: 8.8px 'DejaVu Sans'" x="0 5.596832" y="-0.059375000000001066">10</tspan>
        <tspan style="font: 6.16px 'DejaVu Sans'" x="11.277883" y="-3.4281250000000014">0</tspan>
       </text>
      </g>
     </g>
    </g>
    <g id="ytick_55">
     <g id="text_13">
      <!-- $\mathdefault{10^{1}}$ -->
      <g style="fill: #262626" transform="translate(26.683 291.08875)">
       <text>
        <tspan style="font: 8.8px 'DejaVu Sans'" x="0 5.596832" y="-0.14687499999999964">10</tspan>
        <tspan style="font: 6.16px 'DejaVu Sans'" x="11.277883" y="-3.515625">1</tspan>
       </text>
      </g>
     </g>
    </g>
    <g id="ytick_56"/>
    <g id="ytick_57"/>
    <g id="ytick_58"/>
    <g id="ytick_59"/>
    <g id="ytick_60"/>
    <g id="ytick_61"/>
    <g id="ytick_62"/>
    <g id="ytick_63"/>
    <g id="ytick_64"/>
    <g id="ytick_65"/>
    <g id="ytick_66"/>
    <g id="ytick_67"/>
    <g id="ytick_68"/>
    <g id="ytick_69"/>
    <g id="ytick_70"/>
    <g id="ytick_71"/>
    <g id="ytick_72"/>
    <g id="ytick_73"/>
    <g id="ytick_74"/>
    <g id="ytick_75"/>
    <g id="ytick_76"/>
    <g id="ytick_77"/>
    <g id="ytick_78"/>
    <g id="text_14">
     <text style="fill: #262626; font: 9.6px 'Arial', 'DejaVu Sans', 'Liberation Sans', 'Bitstream Vera Sans', sans-serif; text-anchor: middle" x="14.4945" y="342.418" transform="rotate(-90 14.4945 342.418)">Fluorescence</text>
    </g>
   </g>
   <g id="line2d_9">
    <path d="M 50.971 378.022417 
L 52.195154 381.582815 
L 53.420095 371.795024 
L 54.079315 367.402579 
L 55.218612 365.662302 
L 56.290336 356.713115 
L 57.44299 350.288221 
L 58.587786 348.374443 
L 58.587786 347.823299 
L 58.587786 346.853616 
L 60.004443 346.513232 
L 61.09031 338.743826 
L 61.997819 342.852975 
L 61.997819 340.577213 
L 61.997819 339.449781 
L 63.22983 349.528556 
L 63.22983 347.914024 
L 63.22983 347.598413 
L 64.229268 350.133773 
L 64.229268 349.578242 
L 64.229268 348.188899 
L 65.487995 346.09637 
L 65.487995 344.142247 
L 65.487995 342.476298 
L 66.467004 346.682641 
L 66.467004 344.291205 
L 66.467004 341.875989 
L 69.23353 345.250377 
L 69.896679 349.929827 
L 69.896679 349.678015 
L 69.896679 348.327883 
L 71.028119 350.496177 
L 71.028119 348.514833 
L 71.028119 348.327883 
L 72.142272 348.561867 
L 72.142272 347.959554 
L 72.142272 347.914024 
L 73.272925 351.851679 
L 73.272925 350.339991 
L 73.272925 350.082575 
L 74.48058 350.919233 
L 74.48058 348.235111 
L 74.48058 345.329302 
L 75.72752 350.031519 
L 75.72752 348.050951 
L 75.72752 347.332108 
L 78.010827 350.082575 
L 78.010827 349.380294 
L 78.010827 348.188899 
L 80.088276 351.51719 
L 80.088276 350.391907 
L 80.088276 347.733017 
L 81.233858 351.352186 
L 81.233858 349.678015 
L 81.233858 346.767931 
L 82.484727 348.09682 
L 82.484727 345.729056 
L 82.484727 345.648412 
L 84.669819 347.06958 
L 86.132047 352.135113 
L 86.971198 350.133773 
L 86.971198 348.798847 
L 86.971198 348.467918 
L 88.058637 348.99064 
L 88.058637 347.643172 
L 88.058637 346.767931 
L 89.141361 350.706496 
L 89.141361 349.628061 
L 89.141361 349.135801 
L 90.312087 350.759451 
L 90.312087 345.810054 
L 90.312087 345.289798 
L 92.724253 346.597743 
L 93.726833 344.253853 
L 93.726833 343.702435 
L 93.726833 343.702435 
L 96.124856 349.233211 
L 96.124856 346.9397 
L 96.124856 346.137636 
L 97.184009 345.568117 
L 98.304448 347.959554 
L 101.613122 348.609021 
L 103.916073 348.656295 
L 105.188156 352.833607 
L 106.197023 350.185112 
L 107.438463 349.628061 
L 109.561483 346.9397 
L 110.939639 348.421122 
L 112.966801 351.851679 
L 117.542059 355.647107 
L 118.75757 358.883889 
L 122.129888 350.601038 
L 125.251561 357.459503 
L 126.769575 355.647107 
L 127.8908 358.557751 
L 129.947819 358.477106 
L 133.311494 355.102718 
L 134.435862 357.612461 
L 138.023467 364.963808 
L 141.254355 360.072878 
L 142.491867 358.316864 
L 143.701878 367.402579 
L 146.259402 367.797781 
L 149.284431 357.008068 
L 150.305084 361.249816 
L 151.384665 361.249816 
L 153.931975 357.844296 
L 157.085862 352.539358 
L 158.364231 351.90802 
L 160.533609 352.365028 
L 161.849693 352.893023 
L 164.954079 353.996469 
L 172.843511 358.000482 
L 176.497117 354.059744 
L 182.043527 350.759451 
L 185.373416 353.192995 
L 188.755162 359.468838 
L 196.663451 379.216889 
" clip-path="url(#p3c4de7c8ac)" style="fill: none; stroke: #cc6677; stroke-width: 3; stroke-linecap: round"/>
   </g>
   <g id="line2d_10">
    <path d="M 50.971 370.212189 
L 52.195154 388.671195 
L 53.420095 371.145558 
L 54.079315 378.022417 
L 55.218612 361.819334 
L 56.290336 356.786414 
L 57.44299 349.429583 
L 58.587786 348.751207 
L 58.587786 346.513232 
L 58.587786 345.729056 
L 60.004443 350.706496 
L 61.09031 349.87919 
L 61.997819 351.026525 
L 61.997819 348.514833 
L 61.997819 346.810724 
L 63.22983 355.578176 
L 63.22983 355.237322 
L 63.22983 353.012429 
L 64.229268 355.102718 
L 64.229268 354.573885 
L 64.229268 353.683299 
L 65.487995 355.855453 
L 65.487995 355.304992 
L 65.487995 354.770431 
L 66.467004 354.508831 
L 66.467004 353.314359 
L 66.467004 352.307281 
L 69.23353 353.996469 
L 69.896679 358.000482 
L 69.896679 357.307798 
L 69.896679 356.786414 
L 71.028119 361.156577 
L 71.028119 357.844296 
L 71.028119 357.766695 
L 72.142272 357.689417 
L 72.142272 357.459503 
L 72.142272 355.855453 
L 73.272925 359.553932 
L 73.272925 356.567383 
L 73.272925 356.350914 
L 74.48058 359.639419 
L 74.48058 359.553932 
L 74.48058 358.000482 
L 75.72752 363.116915 
L 75.72752 359.468838 
L 75.72752 355.304992 
L 78.010827 358.396811 
L 78.010827 354.379405 
L 78.010827 352.192325 
L 80.088276 357.008068 
L 80.088276 354.836413 
L 80.088276 351.080405 
L 81.233858 352.481065 
L 81.233858 352.135113 
L 81.233858 351.628016 
L 82.484727 355.647107 
L 82.484727 352.078078 
L 82.484727 351.462025 
L 84.669819 356.42279 
L 86.132047 360.788248 
L 86.971198 359.215878 
L 86.971198 358.638748 
L 86.971198 356.860004 
L 88.058637 356.713115 
L 88.058637 356.42279 
L 88.058637 355.237322 
L 89.141361 354.969087 
L 89.141361 354.250877 
L 89.141361 353.253578 
L 90.312087 353.375341 
L 90.312087 352.422956 
L 90.312087 352.135113 
L 92.724253 361.437715 
L 93.726833 355.509501 
L 93.726833 354.123236 
L 93.726833 349.929827 
L 96.124856 360.6973 
L 96.124856 355.44108 
L 96.124856 352.715346 
L 97.184009 354.969087 
L 98.304448 358.157997 
L 101.613122 360.6973 
L 103.916073 363.855219 
L 105.188156 362.707884 
L 106.197023 363.641253 
L 107.438463 361.532385 
L 109.561483 359.725302 
L 110.939639 364.849913 
L 112.966801 370.061103 
L 117.542059 364.071688 
L 118.75757 366.511994 
L 122.129888 364.18088 
L 125.251561 365.662302 
L 126.769575 369.323639 
L 127.8908 375.037683 
L 129.947819 365.193722 
L 133.311494 365.54404 
L 134.435862 364.071688 
L 138.023467 375.637992 
L 141.254355 365.901117 
L 142.491867 368.894866 
L 143.701878 369.615108 
L 146.259402 372.989496 
L 149.284431 372.468113 
L 150.305084 369.03669 
L 151.384665 368.614438 
L 153.931975 367.533378 
L 157.085862 367.533378 
L 158.364231 364.849913 
L 160.533609 363.324871 
L 161.849693 367.665107 
L 164.954079 364.963808 
L 172.843511 368.475801 
L 176.497117 381.0303 
L 182.043527 368.201605 
L 185.373416 372.468113 
L 188.755162 368.614438 
L 196.663451 376.683914 
" clip-path="url(#p3c4de7c8ac)" style="fill: none; stroke: #cc6677; stroke-width: 3; stroke-linecap: round"/>
   </g>
   <g id="line2d_11">
    <path d="M 50.971 376.900383 
L 52.195154 390.851111 
L 53.420095 374.07851 
L 54.079315 366.762104 
L 55.218612 366.02169 
L 56.290336 358.557751 
L 57.44299 352.365028 
L 58.587786 355.578176 
L 58.587786 352.078078 
L 58.587786 348.751207 
L 60.004443 355.372911 
L 61.09031 349.135801 
L 61.997819 349.528556 
L 61.997819 347.156676 
L 61.997819 346.725237 
L 63.22983 353.745511 
L 63.22983 349.135801 
L 63.22983 348.894495 
L 64.229268 353.253578 
L 64.229268 352.833607 
L 64.229268 351.51719 
L 65.487995 356.066172 
L 65.487995 353.314359 
L 65.487995 351.462025 
L 66.467004 356.279317 
L 66.467004 352.95263 
L 66.467004 351.134443 
L 69.23353 355.509501 
L 69.896679 362.911269 
L 69.896679 357.459503 
L 69.896679 353.192995 
L 71.028119 359.898274 
L 71.028119 359.04914 
L 71.028119 355.647107 
L 72.142272 359.725302 
L 72.142272 358.079072 
L 72.142272 357.082547 
L 73.272925 358.801814 
L 73.272925 357.232409 
L 73.272925 355.647107 
L 74.48058 361.156577 
L 74.48058 358.638748 
L 74.48058 357.082547 
L 75.72752 359.132321 
L 75.72752 358.720102 
L 75.72752 354.969087 
L 78.010827 358.638748 
L 78.010827 355.647107 
L 78.010827 353.996469 
L 80.088276 356.350914 
L 80.088276 353.996469 
L 80.088276 353.870565 
L 81.233858 354.836413 
L 81.233858 352.893023 
L 81.233858 351.73951 
L 82.484727 351.242994 
L 82.484727 350.185112 
L 82.484727 349.828691 
L 84.669819 354.836413 
L 86.132047 358.316864 
L 86.971198 356.786414 
L 86.971198 356.713115 
L 86.971198 351.851679 
L 88.058637 352.539358 
L 88.058637 352.135113 
L 88.058637 349.038901 
L 89.141361 354.315029 
L 89.141361 353.436524 
L 89.141361 349.528556 
L 90.312087 352.422956 
L 90.312087 349.929827 
L 90.312087 349.380294 
L 92.724253 351.683679 
L 93.726833 351.242994 
L 93.726833 349.678015 
L 93.726833 348.942505 
L 96.124856 352.656497 
L 96.124856 348.561867 
L 96.124856 348.374443 
L 97.184009 352.192325 
L 98.304448 350.759451 
L 101.613122 354.250877 
L 103.916073 357.844296 
L 105.188156 357.689417 
L 106.197023 360.606797 
L 107.438463 356.860004 
L 109.561483 357.922224 
L 110.939639 360.879646 
L 112.966801 361.437715 
L 117.542059 365.426529 
L 118.75757 363.324871 
L 122.129888 362.911269 
L 125.251561 369.762582 
L 126.769575 366.636626 
L 127.8908 367.665107 
L 129.947819 370.67299 
L 133.311494 367.272699 
L 134.435862 368.475801 
L 138.023467 364.963808 
L 141.254355 367.272699 
L 142.491867 365.193722 
L 143.701878 375.037683 
L 146.259402 363.747927 
L 149.284431 373.8925 
L 150.305084 369.179608 
L 151.384665 365.662302 
L 153.931975 370.518112 
L 157.085862 366.143053 
L 158.364231 363.747927 
L 160.533609 369.323639 
L 161.849693 362.110803 
L 164.954079 367.665107 
L 172.843511 368.338196 
L 176.497117 371.961015 
L 182.043527 374.648029 
L 185.373416 377.792502 
L 188.755162 382.152334 
L 196.663451 380.231274 
" clip-path="url(#p3c4de7c8ac)" style="fill: none; stroke: #cc6677; stroke-width: 3; stroke-linecap: round"/>
   </g>
   <g id="line2d_12">
    <path d="M 50.971 370.111328 
L 52.195154 384.845373 
L 53.420095 366.02169 
L 54.079315 358.829132 
L 55.218612 351.702271 
L 56.290336 341.615311 
L 57.44299 330.789422 
L 58.587786 322.521257 
L 60.004443 311.686181 
L 61.09031 315.241261 
L 61.997819 322.361777 
L 63.22983 332.01276 
L 64.229268 332.721627 
L 65.487995 334.284383 
L 66.467004 333.612072 
L 69.23353 338.670089 
L 69.896679 339.120123 
L 71.028119 343.327962 
L 72.142272 348.551404 
L 73.272925 350.931123 
L 74.48058 352.774382 
L 75.72752 360.427107 
L 78.010827 366.251604 
L 80.088276 366.874358 
L 81.233858 371.127838 
L 82.484727 379.437552 
L 84.669819 390.851111 
L 86.132047 390.851111 
L 86.971198 389.753286 
L 88.058637 390.046293 
L 89.141361 388.71695 
L 90.312087 388.13078 
L 92.724253 390.851111 
L 93.726833 388.08645 
L 96.124856 389.560494 
L 97.184009 390.851111 
L 98.304448 389.656639 
L 101.613122 390.851111 
L 103.916073 390.851111 
L 105.188156 390.394103 
L 106.197023 384.623718 
L 107.438463 390.851111 
L 109.561483 390.851111 
L 110.939639 390.24424 
L 112.966801 390.851111 
L 117.542059 387.221438 
L 118.75757 390.394103 
L 122.129888 390.851111 
L 125.251561 388.947437 
L 126.769575 390.851111 
L 127.8908 390.24424 
L 129.947819 390.851111 
L 133.311494 389.656639 
L 134.435862 390.851111 
L 138.023467 389.08712 
L 141.254355 390.851111 
L 142.491867 390.394103 
L 143.701878 389.656639 
L 146.259402 390.851111 
L 149.284431 390.851111 
L 150.305084 388.534605 
L 151.384665 390.394103 
L 153.931975 388.13078 
L 157.085862 389.656639 
L 158.364231 390.851111 
L 160.533609 390.851111 
L 161.849693 390.394103 
L 164.954079 390.851111 
L 172.843511 390.851111 
L 176.497117 390.851111 
L 182.043527 390.394103 
L 185.373416 384.734214 
L 188.755162 390.851111 
L 196.663451 390.851111 
" clip-path="url(#p3c4de7c8ac)" style="fill: none; stroke: #000000; stroke-linecap: round"/>
   </g>
   <g id="patch_9">
    <path d="M 50.971 396.1755 
L 50.971 288.6605 
" style="fill: none; stroke: #262626; stroke-linejoin: miter; stroke-linecap: square"/>
   </g>
   <g id="patch_10">
    <path d="M 50.971 396.1755 
L 209.3725 396.1755 
" style="fill: none; stroke: #262626; stroke-linejoin: miter; stroke-linecap: square"/>
   </g>
   <g id="text_15">
    <text style="fill: #262626; font: 9.6px 'Arial', 'DejaVu Sans', 'Liberation Sans', 'Bitstream Vera Sans', sans-serif; text-anchor: middle" x="130.17175" y="283.6605" transform="rotate(-0 130.17175 283.6605)">Sulfitobacter pseudonitzschiae</text>
   </g>
  </g>
  <g id="axes_4">
   <g id="patch_11">
    <path d="M 50.971 530.7585 
L 209.3725 530.7585 
L 209.3725 423.2435 
L 50.971 423.2435 
L 50.971 530.7585 
z
" style="fill: none"/>
   </g>
   <g id="matplotlib.axis_7">
    <g id="xtick_10">
     <g id="text_16">
      <text style="fill: #262626; font: 8.8px 'Arial', 'DejaVu Sans', 'Liberation Sans', 'Bitstream Vera Sans', sans-serif; text-anchor: middle" x="50.971" y="546.245125" transform="rotate(-0 50.971 546.245125)">0</text>
     </g>
    </g>
    <g id="xtick_11">
     <g id="text_17">
      <text style="fill: #262626; font: 8.8px 'Arial', 'DejaVu Sans', 'Liberation Sans', 'Bitstream Vera Sans', sans-serif; text-anchor: middle" x="118.857357" y="546.245125" transform="rotate(-0 118.857357 546.245125)">60</text>
     </g>
    </g>
    <g id="xtick_12">
     <g id="text_18">
      <text style="fill: #262626; font: 8.8px 'Arial', 'DejaVu Sans', 'Liberation Sans', 'Bitstream Vera Sans', sans-serif; text-anchor: middle" x="186.743714" y="546.245125" transform="rotate(-0 186.743714 546.245125)">120</text>
     </g>
    </g>
    <g id="text_19">
     <text style="fill: #262626; font: 9.6px 'Arial', 'DejaVu Sans', 'Liberation Sans', 'Bitstream Vera Sans', sans-serif; text-anchor: middle" x="130.17175" y="560.36975" transform="rotate(-0 130.17175 560.36975)">day</text>
    </g>
   </g>
   <g id="matplotlib.axis_8">
    <g id="ytick_79">
     <g id="text_20">
      <!-- $\mathdefault{10^{-1}}$ -->
      <g style="fill: #262626" transform="translate(21.491 510.90375)">
       <text>
        <tspan style="font: 8.8px 'DejaVu Sans'" x="0 5.596832" y="-0.14687499999999964">10</tspan>
        <tspan style="font: 6.16px 'DejaVu Sans'" x="11.277883 16.437457" y="-3.515625">−1</tspan>
       </text>
      </g>
     </g>
    </g>
    <g id="ytick_80">
     <g id="text_21">
      <!-- $\mathdefault{10^{0}}$ -->
      <g style="fill: #262626" transform="translate(26.683 468.28775)">
       <text>
        <tspan style="font: 8.8px 'DejaVu Sans'" x="0 5.596832" y="-0.059375000000001066">10</tspan>
        <tspan style="font: 6.16px 'DejaVu Sans'" x="11.277883" y="-3.4281250000000014">0</tspan>
       </text>
      </g>
     </g>
    </g>
    <g id="ytick_81">
     <g id="text_22">
      <!-- $\mathdefault{10^{1}}$ -->
      <g style="fill: #262626" transform="translate(26.683 425.67175)">
       <text>
        <tspan style="font: 8.8px 'DejaVu Sans'" x="0 5.596832" y="-0.14687499999999964">10</tspan>
        <tspan style="font: 6.16px 'DejaVu Sans'" x="11.277883" y="-3.515625">1</tspan>
       </text>
      </g>
     </g>
    </g>
    <g id="ytick_82"/>
    <g id="ytick_83"/>
    <g id="ytick_84"/>
    <g id="ytick_85"/>
    <g id="ytick_86"/>
    <g id="ytick_87"/>
    <g id="ytick_88"/>
    <g id="ytick_89"/>
    <g id="ytick_90"/>
    <g id="ytick_91"/>
    <g id="ytick_92"/>
    <g id="ytick_93"/>
    <g id="ytick_94"/>
    <g id="ytick_95"/>
    <g id="ytick_96"/>
    <g id="ytick_97"/>
    <g id="ytick_98"/>
    <g id="ytick_99"/>
    <g id="ytick_100"/>
    <g id="ytick_101"/>
    <g id="ytick_102"/>
    <g id="ytick_103"/>
    <g id="ytick_104"/>
    <g id="text_23">
     <text style="fill: #262626; font: 9.6px 'Arial', 'DejaVu Sans', 'Liberation Sans', 'Bitstream Vera Sans', sans-serif; text-anchor: middle" x="14.4945" y="477.001" transform="rotate(-90 14.4945 477.001)">Fluorescence</text>
    </g>
   </g>
   <g id="line2d_13">
    <path d="M 50.971 511.702413 
L 52.195154 525.434111 
L 53.420095 497.392297 
L 54.079315 500.12704 
L 55.218612 484.768112 
L 56.290336 479.482321 
L 57.44299 473.975303 
L 58.587786 477.263807 
L 58.587786 476.458989 
L 58.587786 475.531001 
L 60.004443 482.818111 
L 61.09031 489.685718 
L 61.997819 495.554496 
L 61.997819 494.308302 
L 61.997819 491.516888 
L 63.22983 495.646805 
L 63.22983 495.2803 
L 63.22983 490.161176 
L 64.229268 496.402334 
L 64.229268 496.020715 
L 64.229268 493.140751 
L 65.487995 496.890698 
L 65.487995 496.596136 
L 65.487995 496.115385 
L 66.467004 494.136932 
L 66.467004 494.051838 
L 66.467004 491.443004 
L 69.23353 497.190023 
L 69.896679 504.0518 
L 69.896679 502.921196 
L 69.896679 499.095373 
L 71.028119 499.89276 
L 71.028119 497.699915 
L 71.028119 494.743802 
L 72.142272 498.546137 
L 72.142272 498.11819 
L 72.142272 496.020715 
L 73.272925 500.726053 
L 73.272925 500.364324 
L 73.272925 500.364324 
L 74.48058 498.546137 
L 74.48058 497.494269 
L 74.48058 496.115385 
L 75.72752 499.89276 
L 75.72752 499.546808 
L 75.72752 498.11819 
L 78.010827 495.554496 
L 78.010827 495.371248 
L 78.010827 494.222419 
L 80.088276 494.051838 
L 80.088276 490.719948 
L 80.088276 488.706236 
L 81.233858 494.568371 
L 81.233858 494.051838 
L 81.233858 492.979811 
L 82.484727 497.803601 
L 82.484727 496.498982 
L 82.484727 493.882815 
L 84.669819 504.345582 
L 86.132047 502.116378 
L 86.971198 503.61969 
L 86.971198 501.219626 
L 86.971198 499.661408 
L 88.058637 498.984214 
L 88.058637 498.224253 
L 88.058637 496.693803 
L 89.141361 502.649016 
L 89.141361 500.484117 
L 89.141361 497.089709 
L 90.312087 498.654688 
L 90.312087 496.402334 
L 90.312087 494.743802 
L 92.724253 511.702413 
L 93.726833 506.378024 
L 93.726833 503.906639 
L 93.726833 498.224253 
L 96.124856 497.290884 
L 96.124856 494.743802 
L 96.124856 493.54933 
L 97.184009 493.715321 
L 98.304448 496.306189 
L 101.613122 498.330927 
L 103.916073 493.303102 
L 105.188156 501.345104 
L 106.197023 503.058801 
L 107.438463 497.290884 
L 109.561483 500.60469 
L 110.939639 495.189797 
L 112.966801 502.248107 
L 117.542059 509.039235 
L 118.75757 502.380781 
L 122.129888 503.337121 
L 125.251561 513.312811 
L 126.769575 510.425501 
L 127.8908 504.198108 
L 129.947819 502.649016 
L 133.311494 504.644103 
L 134.435862 508.29134 
L 138.023467 509.42483 
L 141.254355 504.198108 
L 142.491867 511.924068 
L 143.701878 502.784605 
L 146.259402 497.392297 
L 149.284431 508.29134 
L 150.305084 503.477866 
L 151.384665 514.555418 
L 153.931975 500.60469 
L 157.085862 508.66151 
L 158.364231 504.644103 
L 160.533609 508.4755 
L 161.849693 510.018717 
L 164.954079 507.22328 
L 172.843511 506.050442 
L 176.497117 500.484117 
L 182.043527 509.42483 
L 185.373416 508.66151 
L 188.755162 509.620683 
L 196.663451 508.4755 
" clip-path="url(#p8be97991c6)" style="fill: none; stroke: #cc6677; stroke-width: 3; stroke-linecap: round"/>
   </g>
   <g id="line2d_14">
    <path d="M 50.971 506.378024 
L 52.195154 524.095608 
L 53.420095 507.572496 
L 54.079315 499.207204 
L 55.218612 486.604218 
L 56.290336 479.951891 
L 57.44299 473.662326 
L 58.587786 475.719218 
L 58.587786 473.577879 
L 58.587786 472.727107 
L 60.004443 483.816211 
L 61.09031 491.150383 
L 61.997819 491.369414 
L 61.997819 489.027005 
L 61.997819 486.15552 
L 63.22983 491.966495 
L 63.22983 491.223106 
L 63.22983 488.204296 
L 64.229268 495.099734 
L 64.229268 494.308302 
L 64.229268 493.798878 
L 65.487995 495.926527 
L 65.487995 495.462646 
L 65.487995 491.443004 
L 66.467004 494.743802 
L 66.467004 494.568371 
L 66.467004 494.222419 
L 69.23353 495.2803 
L 69.896679 506.213509 
L 69.896679 500.60469 
L 69.896679 492.740997 
L 71.028119 503.197438 
L 71.028119 497.907871 
L 71.028119 494.655878 
L 72.142272 505.412176 
L 72.142272 500.245302 
L 72.142272 497.907871 
L 73.272925 499.661408 
L 73.272925 499.207204 
L 73.272925 495.646805 
L 74.48058 498.873719 
L 74.48058 495.2803 
L 74.48058 494.568371 
L 75.72752 497.392297 
L 75.72752 496.791989 
L 75.72752 495.010107 
L 78.010827 498.984214 
L 78.010827 496.306189 
L 78.010827 493.466889 
L 80.088276 496.890698 
L 80.088276 495.2803 
L 80.088276 493.798878 
L 81.233858 502.514412 
L 81.233858 498.873719 
L 81.233858 493.715321 
L 82.484727 500.848218 
L 82.484727 500.726053 
L 82.484727 498.330927 
L 84.669819 504.947518 
L 86.132047 513.554747 
L 86.971198 506.213509 
L 86.971198 504.494241 
L 86.971198 503.058801 
L 88.058637 505.8888 
L 88.058637 504.345582 
L 88.058637 501.726724 
L 89.141361 511.266914 
L 89.141361 507.572496 
L 89.141361 504.644103 
L 90.312087 500.60469 
L 90.312087 499.546808 
L 90.312087 498.11819 
L 92.724253 506.378024 
L 93.726833 503.477866 
L 93.726833 501.855699 
L 93.726833 500.484117 
L 96.124856 504.494241 
L 96.124856 502.514412 
L 96.124856 500.12704 
L 97.184009 500.364324 
L 98.304448 497.089709 
L 101.613122 500.726053 
L 103.916073 504.795189 
L 105.188156 503.337121 
L 106.197023 496.020715 
L 107.438463 502.921196 
L 109.561483 499.89276 
L 110.939639 500.364324 
L 112.966801 496.210541 
L 117.542059 502.514412 
L 118.75757 503.058801 
L 122.129888 513.554747 
L 125.251561 508.4755 
L 126.769575 512.375502 
L 127.8908 515.343107 
L 129.947819 509.231029 
L 133.311494 509.42483 
L 134.435862 507.572496 
L 138.023467 507.572496 
L 141.254355 510.220992 
L 142.491867 504.947518 
L 143.701878 507.928428 
L 146.259402 505.728558 
L 149.284431 513.554747 
L 150.305084 514.555418 
L 151.384665 513.554747 
L 153.931975 497.596807 
L 157.085862 510.425501 
L 158.364231 505.8888 
L 160.533609 503.762608 
L 161.849693 510.018717 
L 164.954079 501.985579 
L 172.843511 506.880532 
L 176.497117 512.375502 
L 182.043527 508.29134 
L 185.373416 499.432913 
L 188.755162 502.649016 
L 196.663451 506.213509 
" clip-path="url(#p8be97991c6)" style="fill: none; stroke: #cc6677; stroke-width: 3; stroke-linecap: round"/>
   </g>
   <g id="line2d_15">
    <path d="M 50.971 505.412176 
L 52.195154 520.937689 
L 53.420095 508.4755 
L 54.079315 499.661408 
L 55.218612 488.08091 
L 56.290336 479.443723 
L 57.44299 470.457996 
L 58.587786 478.504034 
L 58.587786 475.90937 
L 58.587786 474.617597 
L 60.004443 486.49102 
L 61.09031 489.685718 
L 61.997819 492.427296 
L 61.997819 491.815409 
L 61.997819 491.740326 
L 63.22983 494.136932 
L 63.22983 490.508427 
L 63.22983 489.287684 
L 64.229268 493.221748 
L 64.229268 490.862317 
L 64.229268 489.955911 
L 65.487995 495.010107 
L 65.487995 493.882815 
L 65.487995 491.665547 
L 66.467004 496.791989 
L 66.467004 496.596136 
L 66.467004 490.719948 
L 69.23353 493.63214 
L 69.896679 499.661408 
L 69.896679 499.207204 
L 69.896679 493.63214 
L 71.028119 499.207204 
L 71.028119 499.095373 
L 71.028119 498.012732 
L 72.142272 501.345104 
L 72.142272 499.776722 
L 72.142272 499.776722 
L 73.272925 496.402334 
L 73.272925 495.099734 
L 73.272925 494.222419 
L 74.48058 500.848218 
L 74.48058 497.907871 
L 74.48058 495.462646 
L 75.72752 501.726724 
L 75.72752 498.224253 
L 75.72752 498.224253 
L 78.010827 500.726053 
L 78.010827 493.882815 
L 78.010827 493.715321 
L 80.088276 499.432913 
L 80.088276 496.402334 
L 80.088276 492.82026 
L 81.233858 494.920913 
L 81.233858 494.568371 
L 81.233858 493.466889 
L 82.484727 498.984214 
L 82.484727 496.498982 
L 82.484727 495.832816 
L 84.669819 494.394586 
L 86.132047 521.678103 
L 86.971198 501.219626 
L 86.971198 499.661408 
L 86.971198 498.984214 
L 88.058637 508.108995 
L 88.058637 507.22328 
L 88.058637 504.494241 
L 89.141361 508.108995 
L 89.141361 503.197438 
L 89.141361 501.855699 
L 90.312087 505.25599 
L 90.312087 499.776722 
L 90.312087 498.76388 
L 92.724253 504.494241 
L 93.726833 502.116378 
L 93.726833 500.484117 
L 93.726833 499.661408 
L 96.124856 501.726724 
L 96.124856 500.12704 
L 96.124856 498.546137 
L 97.184009 496.020715 
L 98.304448 496.989936 
L 101.613122 498.76388 
L 103.916073 502.116378 
L 105.188156 499.207204 
L 106.197023 497.190023 
L 107.438463 497.699915 
L 109.561483 501.726724 
L 110.939639 498.438219 
L 112.966801 507.928428 
L 117.542059 501.726724 
L 118.75757 498.873719 
L 122.129888 510.632295 
L 125.251561 506.050442 
L 126.769575 507.749607 
L 127.8908 506.378024 
L 129.947819 512.148408 
L 133.311494 515.887496 
L 134.435862 504.795189 
L 138.023467 514.555418 
L 141.254355 506.050442 
L 142.491867 510.018717 
L 143.701878 502.921196 
L 146.259402 504.494241 
L 149.284431 503.197438 
L 150.305084 504.345582 
L 151.384665 513.799889 
L 153.931975 506.378024 
L 157.085862 508.4755 
L 158.364231 505.101112 
L 160.533609 506.050442 
L 161.849693 505.569691 
L 164.954079 505.728558 
L 172.843511 504.494241 
L 176.497117 509.039235 
L 182.043527 498.546137 
L 185.373416 503.906639 
L 188.755162 510.841426 
L 196.663451 506.880532 
" clip-path="url(#p8be97991c6)" style="fill: none; stroke: #cc6677; stroke-width: 3; stroke-linecap: round"/>
   </g>
   <g id="line2d_16">
    <path d="M 50.971 504.694328 
L 52.195154 519.428373 
L 53.420095 500.60469 
L 54.079315 493.412132 
L 55.218612 486.285271 
L 56.290336 476.198311 
L 57.44299 465.372422 
L 58.587786 457.104257 
L 60.004443 446.269181 
L 61.09031 449.824261 
L 61.997819 456.944777 
L 63.22983 466.59576 
L 64.229268 467.304627 
L 65.487995 468.867383 
L 66.467004 468.195072 
L 69.23353 473.253089 
L 69.896679 473.703123 
L 71.028119 477.910962 
L 72.142272 483.134404 
L 73.272925 485.514123 
L 74.48058 487.357382 
L 75.72752 495.010107 
L 78.010827 500.834604 
L 80.088276 501.457358 
L 81.233858 505.710838 
L 82.484727 514.020552 
L 84.669819 525.434111 
L 86.132047 525.434111 
L 86.971198 524.336286 
L 88.058637 524.629293 
L 89.141361 523.29995 
L 90.312087 522.71378 
L 92.724253 525.434111 
L 93.726833 522.66945 
L 96.124856 524.143494 
L 97.184009 525.434111 
L 98.304448 524.239639 
L 101.613122 525.434111 
L 103.916073 525.434111 
L 105.188156 524.977103 
L 106.197023 519.206718 
L 107.438463 525.434111 
L 109.561483 525.434111 
L 110.939639 524.82724 
L 112.966801 525.434111 
L 117.542059 521.804438 
L 118.75757 524.977103 
L 122.129888 525.434111 
L 125.251561 523.530437 
L 126.769575 525.434111 
L 127.8908 524.82724 
L 129.947819 525.434111 
L 133.311494 524.239639 
L 134.435862 525.434111 
L 138.023467 523.67012 
L 141.254355 525.434111 
L 142.491867 524.977103 
L 143.701878 524.239639 
L 146.259402 525.434111 
L 149.284431 525.434111 
L 150.305084 523.117605 
L 151.384665 524.977103 
L 153.931975 522.71378 
L 157.085862 524.239639 
L 158.364231 525.434111 
L 160.533609 525.434111 
L 161.849693 524.977103 
L 164.954079 525.434111 
L 172.843511 525.434111 
L 176.497117 525.434111 
L 182.043527 524.977103 
L 185.373416 519.317214 
L 188.755162 525.434111 
L 196.663451 525.434111 
" clip-path="url(#p8be97991c6)" style="fill: none; stroke: #000000; stroke-linecap: round"/>
   </g>
   <g id="patch_12">
    <path d="M 50.971 530.7585 
L 50.971 423.2435 
" style="fill: none; stroke: #262626; stroke-linejoin: miter; stroke-linecap: square"/>
   </g>
   <g id="patch_13">
    <path d="M 50.971 530.7585 
L 209.3725 530.7585 
" style="fill: none; stroke: #262626; stroke-linejoin: miter; stroke-linecap: square"/>
   </g>
   <g id="text_24">
    <text style="fill: #262626; font: 9.6px 'Arial', 'DejaVu Sans', 'Liberation Sans', 'Bitstream Vera Sans', sans-serif; text-anchor: middle" x="130.17175" y="418.2435" transform="rotate(-0 130.17175 418.2435)">Ruegeria pomeroyi</text>
   </g>
  </g>
 </g>
 <defs>
  <clipPath id="pa25e1816ef">
   <rect x="50.971" y="19.4945" width="158.4015" height="107.515"/>
  </clipPath>
  <clipPath id="pce8a253809">
   <rect x="50.971" y="154.0775" width="158.4015" height="107.515"/>
  </clipPath>
  <clipPath id="p3c4de7c8ac">
   <rect x="50.971" y="288.6605" width="158.4015" height="107.515"/>
  </clipPath>
  <clipPath id="p8be97991c6">
   <rect x="50.971" y="423.2435" width="158.4015" height="107.515"/>
  </clipPath>
 </defs>
</svg>
