<?xml version="1.0" encoding="utf-8" standalone="no"?>
<!DOCTYPE svg PUBLIC "-//W3C//DTD SVG 1.1//EN"
  "http://www.w3.org/Graphics/SVG/1.1/DTD/svg11.dtd">
<svg xmlns:xlink="http://www.w3.org/1999/xlink" width="208.2475pt" height="569.56625pt" viewBox="0 0 208.2475 569.56625" xmlns="http://www.w3.org/2000/svg" version="1.1">
 <metadata>
  <rdf:RDF xmlns:dc="http://purl.org/dc/elements/1.1/" xmlns:cc="http://creativecommons.org/ns#" xmlns:rdf="http://www.w3.org/1999/02/22-rdf-syntax-ns#">
   <cc:Work>
    <dc:type rdf:resource="http://purl.org/dc/dcmitype/StillImage"/>
    <dc:date>2025-08-07T13:39:15.485541</dc:date>
    <dc:format>image/svg+xml</dc:format>
    <dc:creator>
     <cc:Agent>
      <dc:title>Matplotlib v3.7.1, https://matplotlib.org/</dc:title>
     </cc:Agent>
    </dc:creator>
   </cc:Work>
  </rdf:RDF>
 </metadata>
 <defs>
  <style type="text/css">*{stroke-linejoin: round; stroke-linecap: butt}</style>
 </defs>
 <g id="figure_1">
  <g id="patch_1">
   <path d="M -0 569.56625 
L 208.2475 569.56625 
L 208.2475 0 
L -0 0 
L -0 569.56625 
z
" style="fill: none"/>
  </g>
  <g id="axes_1">
   <g id="patch_2">
    <path d="M 50.971 127.0095 
L 201.0475 127.0095 
L 201.0475 19.4945 
L 50.971 19.4945 
L 50.971 127.0095 
z
" style="fill: none"/>
   </g>
   <g id="matplotlib.axis_1">
    <g id="xtick_1"/>
    <g id="xtick_2"/>
    <g id="xtick_3"/>
   </g>
   <g id="matplotlib.axis_2">
    <g id="ytick_1">
     <g id="text_1">
      <!-- $\mathdefault{10^{-1}}$ -->
      <g style="fill: #262626" transform="translate(21.491 107.15475)">
       <text>
        <tspan style="font: 8.8px 'DejaVu Sans'" x="0 5.596832" y="-0.14687499999999964">10</tspan>
        <tspan style="font: 6.16px 'DejaVu Sans'" x="11.277883 16.437457" y="-3.515625">−1</tspan>
       </text>
      </g>
     </g>
    </g>
    <g id="ytick_2">
     <g id="text_2">
      <!-- $\mathdefault{10^{0}}$ -->
      <g style="fill: #262626" transform="translate(26.683 64.53875)">
       <text>
        <tspan style="font: 8.8px 'DejaVu Sans'" x="0 5.596832" y="-0.059375000000001066">10</tspan>
        <tspan style="font: 6.16px 'DejaVu Sans'" x="11.277883" y="-3.4281250000000014">0</tspan>
       </text>
      </g>
     </g>
    </g>
    <g id="ytick_3">
     <g id="text_3">
      <!-- $\mathdefault{10^{1}}$ -->
      <g style="fill: #262626" transform="translate(26.683 21.92275)">
       <text>
        <tspan style="font: 8.8px 'DejaVu Sans'" x="0 5.596832" y="-0.14687499999999964">10</tspan>
        <tspan style="font: 6.16px 'DejaVu Sans'" x="11.277883" y="-3.515625">1</tspan>
       </text>
      </g>
     </g>
    </g>
    <g id="ytick_4"/>
    <g id="ytick_5"/>
    <g id="ytick_6"/>
    <g id="ytick_7"/>
    <g id="ytick_8"/>
    <g id="ytick_9"/>
    <g id="ytick_10"/>
    <g id="ytick_11"/>
    <g id="ytick_12"/>
    <g id="ytick_13"/>
    <g id="ytick_14"/>
    <g id="ytick_15"/>
    <g id="ytick_16"/>
    <g id="ytick_17"/>
    <g id="ytick_18"/>
    <g id="ytick_19"/>
    <g id="ytick_20"/>
    <g id="ytick_21"/>
    <g id="ytick_22"/>
    <g id="ytick_23"/>
    <g id="ytick_24"/>
    <g id="ytick_25"/>
    <g id="ytick_26"/>
    <g id="text_4">
     <text style="fill: #262626; font: 9.6px 'Arial', 'DejaVu Sans', 'Liberation Sans', 'Bitstream Vera Sans', sans-serif; text-anchor: middle" x="14.4945" y="73.252" transform="rotate(-90 14.4945 73.252)">Fluorescence</text>
    </g>
   </g>
   <g id="line2d_1">
    <path d="M 50.971 113.874883 
L 52.130817 107.092426 
L 53.291379 101.198518 
L 53.915954 92.944803 
L 54.995373 86.003898 
L 56.010771 85.342831 
L 57.102846 91.5313 
L 58.187476 101.820691 
L 58.187476 95.458204 
L 58.187476 95.01488 
L 59.529678 121.685111 
L 60.558476 102.1398 
L 61.41829 111.327801 
L 61.41829 105.871683 
L 61.41829 99.588121 
L 62.585551 106.471992 
L 62.585551 104.91251 
L 62.585551 100.895103 
L 63.532463 103.302113 
L 63.532463 101.820691 
L 63.532463 98.499107 
L 64.725035 101.663176 
L 64.725035 101.50699 
L 64.725035 99.448438 
L 65.652591 104.000607 
L 65.652591 102.464509 
L 65.652591 95.458204 
L 68.273719 101.50699 
L 68.902015 112.138496 
L 68.902015 110.806418 
L 68.902015 103.302113 
L 69.97399 109.089223 
L 69.97399 106.676501 
L 69.97399 104.91251 
L 71.029588 121.685111 
L 71.029588 113.874883 
L 71.029588 106.883295 
L 72.100818 120.346608 
L 72.100818 113.874883 
L 72.100818 104.000607 
L 73.245003 111.065274 
L 73.245003 105.67583 
L 73.245003 105.290235 
L 74.426409 113.573935 
L 74.426409 112.416815 
L 74.426409 104.179428 
L 76.589714 110.050889 
L 76.589714 108.856417 
L 76.589714 106.676501 
L 78.557979 115.130137 
L 78.557979 105.67583 
L 78.557979 104.7265 
L 79.643354 120.346608 
L 79.643354 115.130137 
L 79.643354 107.734383 
L 80.828481 118.310723 
L 80.828481 112.416815 
L 80.828481 107.517914 
L 82.898733 107.734383 
L 84.284112 121.685111 
L 85.07916 121.685111 
L 85.07916 121.685111 
L 85.07916 121.685111 
L 86.109447 121.685111 
L 86.109447 121.685111 
L 86.109447 108.175068 
L 87.135268 121.685111 
L 87.135268 121.685111 
L 87.135268 121.685111 
L 88.244464 121.685111 
L 88.244464 116.829301 
L 88.244464 111.065274 
L 90.529855 121.685111 
L 91.479744 121.685111 
L 91.479744 116.829301 
L 91.479744 115.130137 
L 93.751736 121.685111 
L 93.751736 121.685111 
L 93.751736 111.065274 
L 94.755223 111.065274 
L 95.816776 120.346608 
L 98.951559 121.685111 
L 101.133475 121.685111 
L 102.338702 121.685111 
L 103.294546 121.685111 
L 104.470741 121.685111 
L 106.482183 121.685111 
L 107.787908 116.130807 
L 109.70853 121.685111 
L 114.043329 121.685111 
L 115.194958 121.685111 
L 118.390039 121.685111 
L 121.347648 121.685111 
L 122.785881 121.685111 
L 123.848178 121.685111 
L 125.797088 121.685111 
L 128.983981 121.685111 
L 130.049256 121.685111 
L 133.44831 121.685111 
L 136.509394 121.685111 
L 137.681867 121.685111 
L 138.828284 121.685111 
L 141.251395 121.685111 
L 144.117439 120.782108 
L 145.08445 121.685111 
L 146.107292 121.685111 
L 148.520725 121.685111 
L 151.508855 121.685111 
L 152.720038 121.685111 
L 154.775401 121.685111 
L 156.022317 121.685111 
L 158.963548 121.685111 
L 166.43834 121.685111 
L 169.899926 121.685111 
L 175.154837 118.310723 
L 178.309719 121.685111 
L 181.513733 121.685111 
L 189.006392 121.685111 
" clip-path="url(#p08ec9b5034)" style="fill: none; stroke: #44aa99; stroke-width: 3; stroke-linecap: round"/>
   </g>
   <g id="line2d_2">
    <path d="M 50.971 111.327801 
L 52.130817 121.685111 
L 53.291379 97.345994 
L 53.915954 89.07126 
L 54.995373 88.678296 
L 56.010771 93.340709 
L 57.102846 100.895103 
L 58.187476 111.065274 
L 58.187476 108.856417 
L 58.187476 102.629024 
L 59.529678 118.310723 
L 60.558476 100.013608 
L 61.41829 108.856417 
L 61.41829 105.482029 
L 61.41829 103.47428 
L 62.585551 110.806418 
L 62.585551 100.3028 
L 62.585551 100.157639 
L 63.532463 103.47428 
L 63.532463 103.131532 
L 63.532463 98.106699 
L 64.725035 111.327801 
L 64.725035 111.327801 
L 64.725035 105.67583 
L 65.652591 106.676501 
L 65.652591 100.013608 
L 65.652591 97.849641 
L 68.273719 103.131532 
L 68.902015 111.065274 
L 68.902015 107.734383 
L 68.902015 107.734383 
L 69.97399 116.829301 
L 69.97399 112.138496 
L 69.97399 111.065274 
L 71.029588 116.829301 
L 71.029588 108.856417 
L 71.029588 106.676501 
L 72.100818 114.808252 
L 72.100818 112.416815 
L 72.100818 104.54234 
L 73.245003 121.685111 
L 73.245003 118.310723 
L 73.245003 116.829301 
L 74.426409 116.476759 
L 74.426409 112.416815 
L 74.426409 106.676501 
L 76.589714 113.874883 
L 76.589714 110.806418 
L 76.589714 103.302113 
L 78.557979 121.685111 
L 78.557979 121.685111 
L 78.557979 111.065274 
L 79.643354 121.685111 
L 79.643354 121.685111 
L 79.643354 118.310723 
L 80.828481 121.685111 
L 80.828481 115.130137 
L 80.828481 112.138496 
L 82.898733 106.676501 
L 84.284112 121.685111 
L 85.07916 121.685111 
L 85.07916 121.685111 
L 85.07916 118.700377 
L 86.109447 116.476759 
L 86.109447 114.808252 
L 86.109447 113.573935 
L 87.135268 121.685111 
L 87.135268 121.685111 
L 87.135268 121.685111 
L 88.244464 121.685111 
L 88.244464 121.685111 
L 88.244464 121.685111 
L 90.529855 121.685111 
L 91.479744 121.685111 
L 91.479744 121.685111 
L 91.479744 121.685111 
L 93.751736 121.685111 
L 93.751736 121.685111 
L 93.751736 116.829301 
L 94.755223 121.685111 
L 95.816776 121.685111 
L 98.951559 121.685111 
L 101.133475 121.685111 
L 102.338702 121.685111 
L 103.294546 121.685111 
L 104.470741 121.685111 
L 106.482183 121.685111 
L 107.787908 116.476759 
L 109.70853 121.685111 
L 114.043329 121.685111 
L 115.194958 121.685111 
L 118.390039 121.685111 
L 121.347648 121.685111 
L 122.785881 121.685111 
L 123.848178 121.685111 
L 125.797088 121.685111 
L 128.983981 121.685111 
L 130.049256 121.685111 
L 133.44831 116.829301 
L 136.509394 121.685111 
L 137.681867 119.92112 
L 138.828284 119.92112 
L 141.251395 118.310723 
L 144.117439 121.685111 
L 145.08445 121.685111 
L 146.107292 121.685111 
L 148.520725 117.929103 
L 151.508855 121.685111 
L 152.720038 121.685111 
L 154.775401 121.685111 
L 156.022317 121.685111 
L 158.963548 121.685111 
L 166.43834 121.685111 
L 169.899926 120.346608 
L 175.154837 121.685111 
L 178.309719 121.685111 
L 181.513733 116.130807 
L 189.006392 113.874883 
" clip-path="url(#p08ec9b5034)" style="fill: none; stroke: #44aa99; stroke-width: 3; stroke-linecap: round"/>
   </g>
   <g id="line2d_3">
    <path d="M 50.971 103.302113 
L 52.130817 111.327801 
L 53.291379 99.035605 
L 53.915954 86.900172 
L 54.995373 81.435038 
L 56.010771 68.73826 
L 57.102846 63.693996 
L 58.187476 59.717941 
L 58.187476 58.6899 
L 58.187476 58.490971 
L 59.529678 76.603511 
L 60.558476 83.199028 
L 61.41829 85.278005 
L 61.41829 82.40652 
L 61.41829 81.019112 
L 62.585551 85.869782 
L 62.585551 85.020947 
L 62.585551 82.74202 
L 63.532463 87.620414 
L 63.532463 85.869782 
L 63.532463 85.869782 
L 64.725035 90.906878 
L 64.725035 89.391751 
L 64.725035 88.756224 
L 65.652591 92.749982 
L 65.652591 91.622248 
L 65.652591 87.041995 
L 68.273719 90.302838 
L 68.902015 93.042989 
L 68.902015 92.557189 
L 68.902015 91.713646 
L 69.97399 96.027722 
L 69.97399 95.235214 
L 69.97399 94.905688 
L 71.029588 93.643297 
L 71.029588 91.5313 
L 71.029588 90.218133 
L 72.100818 94.36919 
L 72.100818 93.950915 
L 72.100818 90.302838 
L 73.245003 96.85569 
L 73.245003 95.570714 
L 73.245003 88.293503 
L 74.426409 96.027722 
L 74.426409 92.083816 
L 74.426409 89.966321 
L 76.589714 92.177527 
L 76.589714 91.5313 
L 76.589714 90.645586 
L 78.557979 97.470626 
L 78.557979 96.85569 
L 78.557979 90.387932 
L 79.643354 98.765412 
L 79.643354 95.458204 
L 79.643354 92.847136 
L 80.828481 97.222194 
L 80.828481 96.977053 
L 80.828481 93.340709 
L 82.898733 121.685111 
L 84.284112 121.685111 
L 85.07916 116.829301 
L 85.07916 115.130137 
L 85.07916 109.805747 
L 86.109447 110.806418 
L 86.109447 108.399408 
L 86.109447 108.175068 
L 87.135268 120.346608 
L 87.135268 118.700377 
L 87.135268 116.829301 
L 88.244464 121.685111 
L 88.244464 111.327801 
L 88.244464 105.871683 
L 90.529855 121.685111 
L 91.479744 120.782108 
L 91.479744 116.829301 
L 91.479744 107.734383 
L 93.751736 120.346608 
L 93.751736 118.310723 
L 93.751736 112.986334 
L 94.755223 108.856417 
L 95.816776 109.563811 
L 98.951559 115.130137 
L 101.133475 121.685111 
L 102.338702 121.685111 
L 103.294546 113.573935 
L 104.470741 118.310723 
L 106.482183 121.685111 
L 107.787908 116.476759 
L 109.70853 121.685111 
L 114.043329 121.685111 
L 115.194958 116.130807 
L 118.390039 121.685111 
L 121.347648 121.685111 
L 122.785881 116.829301 
L 123.848178 121.685111 
L 125.797088 120.346608 
L 128.983981 121.685111 
L 130.049256 118.700377 
L 133.44831 121.685111 
L 136.509394 121.685111 
L 137.681867 113.277803 
L 138.828284 121.685111 
L 141.251395 114.808252 
L 144.117439 121.685111 
L 145.08445 120.346608 
L 146.107292 121.685111 
L 148.520725 121.685111 
L 151.508855 121.685111 
L 152.720038 118.310723 
L 154.775401 113.573935 
L 156.022317 121.685111 
L 158.963548 121.685111 
L 166.43834 121.685111 
L 169.899926 121.685111 
L 175.154837 121.685111 
L 178.309719 121.685111 
L 181.513733 121.685111 
L 189.006392 121.685111 
" clip-path="url(#p08ec9b5034)" style="fill: none; stroke: #44aa99; stroke-width: 3; stroke-linecap: round"/>
   </g>
   <g id="line2d_4">
    <path d="M 50.971 100.945328 
L 52.130817 115.679373 
L 53.291379 96.85569 
L 53.915954 89.663132 
L 54.995373 82.536271 
L 56.010771 72.449311 
L 57.102846 61.623422 
L 58.187476 53.355257 
L 59.529678 42.520181 
L 60.558476 46.075261 
L 61.41829 53.195777 
L 62.585551 62.84676 
L 63.532463 63.555627 
L 64.725035 65.118383 
L 65.652591 64.446072 
L 68.273719 69.504089 
L 68.902015 69.954123 
L 69.97399 74.161962 
L 71.029588 79.385404 
L 72.100818 81.765123 
L 73.245003 83.608382 
L 74.426409 91.261107 
L 76.589714 97.085604 
L 78.557979 97.708358 
L 79.643354 101.961838 
L 80.828481 110.271552 
L 82.898733 121.685111 
L 84.284112 121.685111 
L 85.07916 120.587286 
L 86.109447 120.880293 
L 87.135268 119.55095 
L 88.244464 118.96478 
L 90.529855 121.685111 
L 91.479744 118.92045 
L 93.751736 120.394494 
L 94.755223 121.685111 
L 95.816776 120.490639 
L 98.951559 121.685111 
L 101.133475 121.685111 
L 102.338702 121.228103 
L 103.294546 115.457718 
L 104.470741 121.685111 
L 106.482183 121.685111 
L 107.787908 121.07824 
L 109.70853 121.685111 
L 114.043329 118.055438 
L 115.194958 121.228103 
L 118.390039 121.685111 
L 121.347648 119.781437 
L 122.785881 121.685111 
L 123.848178 121.07824 
L 125.797088 121.685111 
L 128.983981 120.490639 
L 130.049256 121.685111 
L 133.44831 119.92112 
L 136.509394 121.685111 
L 137.681867 121.228103 
L 138.828284 120.490639 
L 141.251395 121.685111 
L 144.117439 121.685111 
L 145.08445 119.368605 
L 146.107292 121.228103 
L 148.520725 118.96478 
L 151.508855 120.490639 
L 152.720038 121.685111 
L 154.775401 121.685111 
L 156.022317 121.228103 
L 158.963548 121.685111 
L 166.43834 121.685111 
L 169.899926 121.685111 
L 175.154837 121.228103 
L 178.309719 115.568214 
L 181.513733 121.685111 
L 189.006392 121.685111 
" clip-path="url(#p08ec9b5034)" style="fill: none; stroke: #000000; stroke-linecap: round"/>
   </g>
   <g id="patch_3">
    <path d="M 50.971 127.0095 
L 50.971 19.4945 
" style="fill: none; stroke: #262626; stroke-linejoin: miter; stroke-linecap: square"/>
   </g>
   <g id="patch_4">
    <path d="M 50.971 127.0095 
L 201.0475 127.0095 
" style="fill: none; stroke: #262626; stroke-linejoin: miter; stroke-linecap: square"/>
   </g>
   <g id="text_5">
    <text style="fill: #262626; font: 9.6px 'Arial', 'DejaVu Sans', 'Liberation Sans', 'Bitstream Vera Sans', sans-serif; text-anchor: middle" x="126.00925" y="14.4945" transform="rotate(-0 126.00925 14.4945)">Marinovum 5F3</text>
   </g>
  </g>
  <g id="axes_2">
   <g id="patch_5">
    <path d="M 50.971 261.5925 
L 201.0475 261.5925 
L 201.0475 154.0775 
L 50.971 154.0775 
L 50.971 261.5925 
z
" style="fill: none"/>
   </g>
   <g id="matplotlib.axis_3">
    <g id="xtick_4"/>
    <g id="xtick_5"/>
    <g id="xtick_6"/>
   </g>
   <g id="matplotlib.axis_4">
    <g id="ytick_27">
     <g id="text_6">
      <!-- $\mathdefault{10^{-1}}$ -->
      <g style="fill: #262626" transform="translate(21.491 241.73775)">
       <text>
        <tspan style="font: 8.8px 'DejaVu Sans'" x="0 5.596832" y="-0.14687499999999964">10</tspan>
        <tspan style="font: 6.16px 'DejaVu Sans'" x="11.277883 16.437457" y="-3.515625">−1</tspan>
       </text>
      </g>
     </g>
    </g>
    <g id="ytick_28">
     <g id="text_7">
      <!-- $\mathdefault{10^{0}}$ -->
      <g style="fill: #262626" transform="translate(26.683 199.12175)">
       <text>
        <tspan style="font: 8.8px 'DejaVu Sans'" x="0 5.596832" y="-0.059375000000001066">10</tspan>
        <tspan style="font: 6.16px 'DejaVu Sans'" x="11.277883" y="-3.4281250000000014">0</tspan>
       </text>
      </g>
     </g>
    </g>
    <g id="ytick_29">
     <g id="text_8">
      <!-- $\mathdefault{10^{1}}$ -->
      <g style="fill: #262626" transform="translate(26.683 156.50575)">
       <text>
        <tspan style="font: 8.8px 'DejaVu Sans'" x="0 5.596832" y="-0.14687499999999964">10</tspan>
        <tspan style="font: 6.16px 'DejaVu Sans'" x="11.277883" y="-3.515625">1</tspan>
       </text>
      </g>
     </g>
    </g>
    <g id="ytick_30"/>
    <g id="ytick_31"/>
    <g id="ytick_32"/>
    <g id="ytick_33"/>
    <g id="ytick_34"/>
    <g id="ytick_35"/>
    <g id="ytick_36"/>
    <g id="ytick_37"/>
    <g id="ytick_38"/>
    <g id="ytick_39"/>
    <g id="ytick_40"/>
    <g id="ytick_41"/>
    <g id="ytick_42"/>
    <g id="ytick_43"/>
    <g id="ytick_44"/>
    <g id="ytick_45"/>
    <g id="ytick_46"/>
    <g id="ytick_47"/>
    <g id="ytick_48"/>
    <g id="ytick_49"/>
    <g id="ytick_50"/>
    <g id="ytick_51"/>
    <g id="ytick_52"/>
    <g id="text_9">
     <text style="fill: #262626; font: 9.6px 'Arial', 'DejaVu Sans', 'Liberation Sans', 'Bitstream Vera Sans', sans-serif; text-anchor: middle" x="14.4945" y="207.835" transform="rotate(-90 14.4945 207.835)">Fluorescence</text>
    </g>
   </g>
   <g id="line2d_5">
    <path d="M 50.971 243.439417 
L 52.130817 239.49551 
L 53.291379 230.72676 
L 53.915954 222.952824 
L 54.995373 217.898065 
L 56.010771 208.408872 
L 57.102846 202.366635 
L 58.187476 198.459341 
L 58.187476 196.601191 
L 58.187476 196.417943 
L 59.529678 213.285606 
L 60.558476 215.045061 
L 61.41829 216.443525 
L 61.41829 216.070692 
L 61.41829 214.797294 
L 62.585551 219.603947 
L 62.585551 218.91491 
L 62.585551 217.839956 
L 63.532463 221.624995 
L 63.532463 218.670578 
L 63.532463 216.551443 
L 64.725035 226.760527 
L 64.725035 224.885838 
L 64.725035 220.253413 
L 65.652591 226.949385 
L 65.652591 225.577802 
L 65.652591 224.801133 
L 68.273719 229.380137 
L 68.902015 228.024023 
L 68.902015 226.949385 
L 68.902015 223.65426 
L 69.97399 234.596608 
L 69.97399 230.610722 
L 69.97399 229.272219 
L 71.029588 234.031438 
L 71.029588 232.819579 
L 71.029588 231.079302 
L 72.100818 238.231065 
L 72.100818 237.714532 
L 72.100818 236.246176 
L 73.245003 236.403691 
L 73.245003 234.031438 
L 73.245003 230.380808 
L 74.426409 244.388747 
L 74.426409 241.259501 
L 74.426409 240.25883 
L 76.589714 251.771689 
L 76.589714 248.457883 
L 76.589714 245.648274 
L 78.557979 256.268111 
L 78.557979 256.268111 
L 78.557979 256.268111 
L 79.643354 253.283377 
L 79.643354 250.040718 
L 79.643354 249.713137 
L 80.828481 256.268111 
L 80.828481 256.268111 
L 80.828481 255.365108 
L 82.898733 256.268111 
L 84.284112 256.268111 
L 85.07916 256.268111 
L 85.07916 256.268111 
L 85.07916 245.648274 
L 86.109447 256.268111 
L 86.109447 256.268111 
L 86.109447 256.268111 
L 87.135268 256.268111 
L 87.135268 256.268111 
L 87.135268 256.268111 
L 88.244464 256.268111 
L 88.244464 256.268111 
L 88.244464 250.040718 
L 90.529855 256.268111 
L 91.479744 256.268111 
L 91.479744 256.268111 
L 91.479744 256.268111 
L 93.751736 256.268111 
L 93.751736 254.929608 
L 93.751736 254.929608 
L 94.755223 256.268111 
L 95.816776 251.412301 
L 98.951559 252.893723 
L 101.133475 256.268111 
L 102.338702 256.268111 
L 103.294546 256.268111 
L 104.470741 252.893723 
L 106.482183 252.893723 
L 107.787908 256.268111 
L 109.70853 256.268111 
L 114.043329 251.059759 
L 115.194958 256.268111 
L 118.390039 251.412301 
L 121.347648 256.268111 
L 122.785881 254.929608 
L 123.848178 256.268111 
L 125.797088 242.758068 
L 128.983981 256.268111 
L 130.049256 255.365108 
L 133.44831 252.893723 
L 136.509394 251.059759 
L 137.681867 256.268111 
L 138.828284 245.134132 
L 141.251395 256.268111 
L 144.117439 252.893723 
L 145.08445 242.982408 
L 146.107292 243.439417 
L 148.520725 256.268111 
L 151.508855 256.268111 
L 152.720038 256.268111 
L 154.775401 256.268111 
L 156.022317 252.893723 
L 158.963548 256.268111 
L 166.43834 256.268111 
L 169.899926 249.07487 
L 175.154837 253.283377 
L 178.309719 253.283377 
L 181.513733 256.268111 
L 189.006392 245.648274 
" clip-path="url(#p0da1befacc)" style="fill: none; stroke: #44aa99; stroke-width: 3; stroke-linecap: round"/>
   </g>
   <g id="line2d_6">
    <path d="M 50.971 242.536413 
L 52.130817 249.713137 
L 53.291379 233.618605 
L 53.915954 227.044541 
L 54.995373 230.153714 
L 56.010771 217.898065 
L 57.102846 212.661184 
L 58.187476 208.513732 
L 58.187476 208.235413 
L 58.187476 207.162191 
L 59.529678 224.632878 
L 60.558476 223.183695 
L 61.41829 228.533915 
L 61.41829 227.140189 
L 61.41829 226.573577 
L 62.585551 240.454683 
L 62.585551 227.044541 
L 62.585551 226.760527 
L 63.532463 236.08999 
L 63.532463 234.171121 
L 63.532463 232.819579 
L 64.725035 234.8858 
L 64.725035 233.755196 
L 64.725035 233.618605 
L 65.652591 237.378015 
L 65.652591 236.246176 
L 65.652591 232.179104 
L 68.273719 242.317383 
L 68.902015 240.454683 
L 68.902015 237.047509 
L 68.902015 231.682218 
L 69.97399 254.929608 
L 69.97399 247.282384 
L 69.97399 242.536413 
L 71.029588 246.999815 
L 71.029588 243.209502 
L 71.029588 232.819579 
L 72.100818 239.3095 
L 72.100818 237.545509 
L 72.100818 236.08999 
L 73.245003 254.50412 
L 73.245003 240.852717 
L 73.245003 235.935112 
L 74.426409 248.156935 
L 74.426409 245.648274 
L 74.426409 240.454683 
L 76.589714 256.268111 
L 76.589714 253.283377 
L 76.589714 248.457883 
L 78.557979 252.893723 
L 78.557979 249.713137 
L 78.557979 246.999815 
L 79.643354 256.268111 
L 79.643354 252.893723 
L 79.643354 245.648274 
L 80.828481 256.268111 
L 80.828481 256.268111 
L 80.828481 256.268111 
L 82.898733 256.268111 
L 84.284112 256.268111 
L 85.07916 256.268111 
L 85.07916 256.268111 
L 85.07916 241.054992 
L 86.109447 256.268111 
L 86.109447 251.059759 
L 86.109447 249.391252 
L 87.135268 253.283377 
L 87.135268 251.059759 
L 87.135268 246.721496 
L 88.244464 256.268111 
L 88.244464 253.283377 
L 88.244464 251.412301 
L 90.529855 256.268111 
L 91.479744 256.268111 
L 91.479744 256.268111 
L 91.479744 256.268111 
L 93.751736 256.268111 
L 93.751736 256.268111 
L 93.751736 242.317383 
L 94.755223 253.283377 
L 95.816776 256.268111 
L 98.951559 256.268111 
L 101.133475 256.268111 
L 102.338702 251.412301 
L 103.294546 251.059759 
L 104.470741 256.268111 
L 106.482183 256.268111 
L 107.787908 256.268111 
L 109.70853 256.268111 
L 114.043329 256.268111 
L 115.194958 253.283377 
L 118.390039 251.412301 
L 121.347648 256.268111 
L 122.785881 249.713137 
L 123.848178 251.059759 
L 125.797088 245.389418 
L 128.983981 242.536413 
L 130.049256 256.268111 
L 133.44831 254.929608 
L 136.509394 249.391252 
L 137.681867 247.860803 
L 138.828284 256.268111 
L 141.251395 244.146811 
L 144.117439 256.268111 
L 145.08445 256.268111 
L 146.107292 246.721496 
L 148.520725 254.50412 
L 151.508855 256.268111 
L 152.720038 244.388747 
L 154.775401 256.268111 
L 156.022317 251.059759 
L 158.963548 254.50412 
L 166.43834 256.268111 
L 169.899926 252.893723 
L 175.154837 244.388747 
L 178.309719 256.268111 
L 181.513733 247.569334 
L 189.006392 256.268111 
" clip-path="url(#p0da1befacc)" style="fill: none; stroke: #44aa99; stroke-width: 3; stroke-linecap: round"/>
   </g>
   <g id="line2d_7">
    <path d="M 50.971 250.040718 
L 52.130817 251.771689 
L 53.291379 238.05728 
L 53.915954 234.031438 
L 54.995373 231.928994 
L 56.010771 220.721992 
L 57.102846 223.733864 
L 58.187476 234.311866 
L 58.187476 230.380808 
L 58.187476 229.707719 
L 59.529678 256.268111 
L 60.558476 239.3095 
L 61.41829 248.457883 
L 61.41829 245.910801 
L 61.41829 242.317383 
L 62.585551 249.391252 
L 62.585551 246.721496 
L 62.585551 240.454683 
L 63.532463 250.040718 
L 63.532463 243.209502 
L 63.532463 242.317383 
L 64.725035 256.268111 
L 64.725035 242.536413 
L 64.725035 242.317383 
L 65.652591 248.156935 
L 65.652591 243.907996 
L 65.652591 243.439417 
L 68.273719 240.25883 
L 68.902015 251.412301 
L 68.902015 244.388747 
L 68.902015 240.065029 
L 69.97399 253.681412 
L 69.97399 249.713137 
L 69.97399 243.672223 
L 71.029588 255.365108 
L 71.029588 253.283377 
L 71.029588 249.713137 
L 72.100818 256.268111 
L 72.100818 252.893723 
L 72.100818 248.156935 
L 73.245003 254.929608 
L 73.245003 252.893723 
L 73.245003 247.860803 
L 74.426409 256.268111 
L 74.426409 250.040718 
L 74.426409 246.999815 
L 76.589714 256.268111 
L 76.589714 255.365108 
L 76.589714 254.929608 
L 78.557979 256.268111 
L 78.557979 254.929608 
L 78.557979 249.391252 
L 79.643354 256.268111 
L 79.643354 255.365108 
L 79.643354 245.648274 
L 80.828481 256.268111 
L 80.828481 254.929608 
L 80.828481 248.156935 
L 82.898733 256.268111 
L 84.284112 256.268111 
L 85.07916 256.268111 
L 85.07916 254.929608 
L 85.07916 253.283377 
L 86.109447 256.268111 
L 86.109447 256.268111 
L 86.109447 244.146811 
L 87.135268 256.268111 
L 87.135268 256.268111 
L 87.135268 256.268111 
L 88.244464 256.268111 
L 88.244464 256.268111 
L 88.244464 246.721496 
L 90.529855 256.268111 
L 91.479744 256.268111 
L 91.479744 256.268111 
L 91.479744 250.040718 
L 93.751736 256.268111 
L 93.751736 256.268111 
L 93.751736 251.412301 
L 94.755223 249.391252 
L 95.816776 256.268111 
L 98.951559 256.268111 
L 101.133475 253.283377 
L 102.338702 256.268111 
L 103.294546 251.412301 
L 104.470741 249.713137 
L 106.482183 239.3095 
L 107.787908 252.512103 
L 109.70853 248.457883 
L 114.043329 254.929608 
L 115.194958 256.268111 
L 118.390039 252.893723 
L 121.347648 256.268111 
L 122.785881 256.268111 
L 123.848178 256.268111 
L 125.797088 245.389418 
L 128.983981 253.283377 
L 130.049256 248.156935 
L 133.44831 251.412301 
L 136.509394 252.893723 
L 137.681867 251.059759 
L 138.828284 256.268111 
L 141.251395 252.893723 
L 144.117439 250.040718 
L 145.08445 242.758068 
L 146.107292 256.268111 
L 148.520725 254.50412 
L 151.508855 253.283377 
L 152.720038 256.268111 
L 154.775401 248.457883 
L 156.022317 254.50412 
L 158.963548 249.713137 
L 166.43834 256.268111 
L 169.899926 256.268111 
L 175.154837 256.268111 
L 178.309719 256.268111 
L 181.513733 254.088195 
L 189.006392 249.713137 
" clip-path="url(#p0da1befacc)" style="fill: none; stroke: #44aa99; stroke-width: 3; stroke-linecap: round"/>
   </g>
   <g id="line2d_8">
    <path d="M 50.971 235.528328 
L 52.130817 250.262373 
L 53.291379 231.43869 
L 53.915954 224.246132 
L 54.995373 217.119271 
L 56.010771 207.032311 
L 57.102846 196.206422 
L 58.187476 187.938257 
L 59.529678 177.103181 
L 60.558476 180.658261 
L 61.41829 187.778777 
L 62.585551 197.42976 
L 63.532463 198.138627 
L 64.725035 199.701383 
L 65.652591 199.029072 
L 68.273719 204.087089 
L 68.902015 204.537123 
L 69.97399 208.744962 
L 71.029588 213.968404 
L 72.100818 216.348123 
L 73.245003 218.191382 
L 74.426409 225.844107 
L 76.589714 231.668604 
L 78.557979 232.291358 
L 79.643354 236.544838 
L 80.828481 244.854552 
L 82.898733 256.268111 
L 84.284112 256.268111 
L 85.07916 255.170286 
L 86.109447 255.463293 
L 87.135268 254.13395 
L 88.244464 253.54778 
L 90.529855 256.268111 
L 91.479744 253.50345 
L 93.751736 254.977494 
L 94.755223 256.268111 
L 95.816776 255.073639 
L 98.951559 256.268111 
L 101.133475 256.268111 
L 102.338702 255.811103 
L 103.294546 250.040718 
L 104.470741 256.268111 
L 106.482183 256.268111 
L 107.787908 255.66124 
L 109.70853 256.268111 
L 114.043329 252.638438 
L 115.194958 255.811103 
L 118.390039 256.268111 
L 121.347648 254.364437 
L 122.785881 256.268111 
L 123.848178 255.66124 
L 125.797088 256.268111 
L 128.983981 255.073639 
L 130.049256 256.268111 
L 133.44831 254.50412 
L 136.509394 256.268111 
L 137.681867 255.811103 
L 138.828284 255.073639 
L 141.251395 256.268111 
L 144.117439 256.268111 
L 145.08445 253.951605 
L 146.107292 255.811103 
L 148.520725 253.54778 
L 151.508855 255.073639 
L 152.720038 256.268111 
L 154.775401 256.268111 
L 156.022317 255.811103 
L 158.963548 256.268111 
L 166.43834 256.268111 
L 169.899926 256.268111 
L 175.154837 255.811103 
L 178.309719 250.151214 
L 181.513733 256.268111 
L 189.006392 256.268111 
" clip-path="url(#p0da1befacc)" style="fill: none; stroke: #000000; stroke-linecap: round"/>
   </g>
   <g id="patch_6">
    <path d="M 50.971 261.5925 
L 50.971 154.0775 
" style="fill: none; stroke: #262626; stroke-linejoin: miter; stroke-linecap: square"/>
   </g>
   <g id="patch_7">
    <path d="M 50.971 261.5925 
L 201.0475 261.5925 
" style="fill: none; stroke: #262626; stroke-linejoin: miter; stroke-linecap: square"/>
   </g>
   <g id="text_10">
    <text style="fill: #262626; font: 9.6px 'Arial', 'DejaVu Sans', 'Liberation Sans', 'Bitstream Vera Sans', sans-serif; text-anchor: middle" x="126.00925" y="149.0775" transform="rotate(-0 126.00925 149.0775)">Roseovarius 5C3</text>
   </g>
  </g>
  <g id="axes_3">
   <g id="patch_8">
    <path d="M 50.971 396.1755 
L 201.0475 396.1755 
L 201.0475 288.6605 
L 50.971 288.6605 
L 50.971 396.1755 
z
" style="fill: none"/>
   </g>
   <g id="matplotlib.axis_5">
    <g id="xtick_7"/>
    <g id="xtick_8"/>
    <g id="xtick_9"/>
   </g>
   <g id="matplotlib.axis_6">
    <g id="ytick_53">
     <g id="text_11">
      <!-- $\mathdefault{10^{-1}}$ -->
      <g style="fill: #262626" transform="translate(21.491 376.32075)">
       <text>
        <tspan style="font: 8.8px 'DejaVu Sans'" x="0 5.596832" y="-0.14687499999999964">10</tspan>
        <tspan style="font: 6.16px 'DejaVu Sans'" x="11.277883 16.437457" y="-3.515625">−1</tspan>
       </text>
      </g>
     </g>
    </g>
    <g id="ytick_54">
     <g id="text_12">
      <!-- $\mathdefault{10^{0}}$ -->
      <g style="fill: #262626" transform="translate(26.683 333.70475)">
       <text>
        <tspan style="font: 8.8px 'DejaVu Sans'" x="0 5.596832" y="-0.059375000000001066">10</tspan>
        <tspan style="font: 6.16px 'DejaVu Sans'" x="11.277883" y="-3.4281250000000014">0</tspan>
       </text>
      </g>
     </g>
    </g>
    <g id="ytick_55">
     <g id="text_13">
      <!-- $\mathdefault{10^{1}}$ -->
      <g style="fill: #262626" transform="translate(26.683 291.08875)">
       <text>
        <tspan style="font: 8.8px 'DejaVu Sans'" x="0 5.596832" y="-0.14687499999999964">10</tspan>
        <tspan style="font: 6.16px 'DejaVu Sans'" x="11.277883" y="-3.515625">1</tspan>
       </text>
      </g>
     </g>
    </g>
    <g id="ytick_56"/>
    <g id="ytick_57"/>
    <g id="ytick_58"/>
    <g id="ytick_59"/>
    <g id="ytick_60"/>
    <g id="ytick_61"/>
    <g id="ytick_62"/>
    <g id="ytick_63"/>
    <g id="ytick_64"/>
    <g id="ytick_65"/>
    <g id="ytick_66"/>
    <g id="ytick_67"/>
    <g id="ytick_68"/>
    <g id="ytick_69"/>
    <g id="ytick_70"/>
    <g id="ytick_71"/>
    <g id="ytick_72"/>
    <g id="ytick_73"/>
    <g id="ytick_74"/>
    <g id="ytick_75"/>
    <g id="ytick_76"/>
    <g id="ytick_77"/>
    <g id="ytick_78"/>
    <g id="text_14">
     <text style="fill: #262626; font: 9.6px 'Arial', 'DejaVu Sans', 'Liberation Sans', 'Bitstream Vera Sans', sans-serif; text-anchor: middle" x="14.4945" y="342.418" transform="rotate(-90 14.4945 342.418)">Fluorescence</text>
    </g>
   </g>
   <g id="line2d_9">
    <path d="M 50.971 372.64028 
L 52.130817 381.304496 
L 53.291379 372.814065 
L 53.915954 375.842501 
L 54.995373 377.119413 
L 56.010771 376.258426 
L 57.102846 374.266409 
L 58.187476 389.948108 
L 58.187476 376.683914 
L 58.187476 375.842501 
L 59.529678 377.792502 
L 60.558476 368.475801 
L 61.41829 383.040883 
L 61.41829 377.341068 
L 61.41829 376.049295 
L 62.585551 381.582815 
L 62.585551 372.989496 
L 62.585551 372.128509 
L 63.532463 378.022417 
L 63.532463 376.900383 
L 63.532463 374.266409 
L 64.725035 381.582815 
L 64.725035 380.493801 
L 64.725035 378.971747 
L 65.652591 389.512608 
L 65.652591 385.995301 
L 65.652591 378.022417 
L 68.273719 376.900383 
L 68.902015 378.022417 
L 68.902015 375.037683 
L 68.902015 374.07851 
L 69.97399 381.865384 
L 69.97399 380.231274 
L 69.97399 378.729811 
L 71.029588 383.040883 
L 71.029588 379.216889 
L 71.029588 374.84183 
L 72.100818 383.974252 
L 72.100818 373.166607 
L 72.100818 372.989496 
L 73.245003 382.739935 
L 73.245003 377.565408 
L 73.245003 367.533378 
L 74.426409 381.304496 
L 74.426409 378.971747 
L 74.426409 377.119413 
L 76.589714 384.296137 
L 76.589714 375.037683 
L 76.589714 372.297532 
L 78.557979 381.304496 
L 78.557979 376.683914 
L 78.557979 376.469947 
L 79.643354 390.851111 
L 79.643354 381.582815 
L 79.643354 380.231274 
L 80.828481 381.582815 
L 80.828481 381.582815 
L 80.828481 378.971747 
L 82.898733 381.0303 
L 84.284112 390.851111 
L 85.07916 381.865384 
L 85.07916 380.231274 
L 85.07916 380.231274 
L 86.109447 381.0303 
L 86.109447 379.972418 
L 86.109447 374.456235 
L 87.135268 390.851111 
L 87.135268 382.739935 
L 87.135268 380.231274 
L 88.244464 384.623718 
L 88.244464 376.683914 
L 88.244464 373.70834 
L 90.529855 390.851111 
L 91.479744 390.851111 
L 91.479744 386.354689 
L 91.479744 377.341068 
L 93.751736 385.995301 
L 93.751736 384.296137 
L 93.751736 374.07851 
L 94.755223 382.739935 
L 95.816776 381.304496 
L 98.951559 390.851111 
L 101.133475 381.582815 
L 102.338702 379.216889 
L 103.294546 385.642759 
L 104.470741 381.304496 
L 106.482183 390.851111 
L 107.787908 370.518112 
L 109.70853 370.212189 
L 114.043329 374.84183 
L 115.194958 387.476723 
L 118.390039 385.995301 
L 121.347648 374.648029 
L 122.785881 374.84183 
L 123.848178 387.476723 
L 125.797088 372.128509 
L 128.983981 378.022417 
L 130.049256 378.729811 
L 133.44831 378.971747 
L 136.509394 370.67299 
L 137.681867 379.717132 
L 138.828284 377.565408 
L 141.251395 390.851111 
L 144.117439 381.304496 
L 145.08445 390.851111 
L 146.107292 381.582815 
L 148.520725 383.974252 
L 151.508855 377.792502 
L 152.720038 390.851111 
L 154.775401 375.637992 
L 156.022317 377.565408 
L 158.963548 382.443803 
L 166.43834 375.842501 
L 169.899926 381.304496 
L 175.154837 371.467442 
L 178.309719 380.231274 
L 181.513733 380.760107 
L 189.006392 375.842501 
" clip-path="url(#pfd7fc698e9)" style="fill: none; stroke: #332288; stroke-width: 3; stroke-linecap: round"/>
   </g>
   <g id="line2d_10">
    <path d="M 50.971 365.30976 
L 52.130817 384.623718 
L 53.291379 372.468113 
L 53.915954 375.037683 
L 54.995373 381.865384 
L 56.010771 374.07851 
L 57.102846 379.216889 
L 58.187476 381.582815 
L 58.187476 379.216889 
L 58.187476 372.468113 
L 59.529678 378.022417 
L 60.558476 370.829176 
L 61.41829 373.8925 
L 61.41829 372.297532 
L 61.41829 371.145558 
L 62.585551 377.792502 
L 62.585551 373.70834 
L 62.585551 373.345428 
L 63.532463 379.216889 
L 63.532463 375.842501 
L 63.532463 375.037683 
L 64.725035 380.231274 
L 64.725035 378.022417 
L 64.725035 377.119413 
L 65.652591 376.900383 
L 65.652591 373.166607 
L 65.652591 372.297532 
L 68.273719 372.297532 
L 68.902015 379.972418 
L 68.902015 375.435717 
L 68.902015 373.166607 
L 69.97399 383.65787 
L 69.97399 375.842501 
L 69.97399 374.84183 
L 71.029588 375.037683 
L 71.029588 370.061103 
L 71.029588 368.754121 
L 72.100818 387.866377 
L 72.100818 380.493801 
L 72.100818 375.842501 
L 73.245003 390.851111 
L 73.245003 387.866377 
L 73.245003 385.995301 
L 74.426409 381.582815 
L 74.426409 375.037683 
L 74.426409 369.179608 
L 76.589714 381.582815 
L 76.589714 378.022417 
L 76.589714 375.037683 
L 78.557979 384.296137 
L 78.557979 382.739935 
L 78.557979 374.07851 
L 79.643354 390.851111 
L 79.643354 387.866377 
L 79.643354 383.040883 
L 80.828481 387.866377 
L 80.828481 381.582815 
L 80.828481 376.049295 
L 82.898733 385.296807 
L 84.284112 390.851111 
L 85.07916 377.792502 
L 85.07916 376.900383 
L 85.07916 376.900383 
L 86.109447 385.995301 
L 86.109447 382.739935 
L 86.109447 376.258426 
L 87.135268 389.948108 
L 87.135268 379.972418 
L 87.135268 376.683914 
L 88.244464 390.851111 
L 88.244464 387.476723 
L 88.244464 373.166607 
L 90.529855 390.851111 
L 91.479744 390.851111 
L 91.479744 384.623718 
L 91.479744 374.266409 
L 93.751736 390.851111 
L 93.751736 384.296137 
L 93.751736 380.231274 
L 94.755223 379.216889 
L 95.816776 387.866377 
L 98.951559 378.971747 
L 101.133475 384.623718 
L 102.338702 376.900383 
L 103.294546 381.304496 
L 104.470741 382.739935 
L 106.482183 374.84183 
L 107.787908 379.717132 
L 109.70853 376.900383 
L 114.043329 375.637992 
L 115.194958 374.648029 
L 118.390039 387.866377 
L 121.347648 377.792502 
L 122.785881 376.683914 
L 123.848178 386.721194 
L 125.797088 376.469947 
L 128.983981 383.974252 
L 130.049256 384.296137 
L 133.44831 376.469947 
L 136.509394 378.729811 
L 137.681867 372.297532 
L 138.828284 368.201605 
L 141.251395 378.729811 
L 144.117439 378.971747 
L 145.08445 373.525995 
L 146.107292 376.683914 
L 148.520725 381.0303 
L 151.508855 378.022417 
L 152.720038 379.972418 
L 154.775401 378.022417 
L 156.022317 374.456235 
L 158.963548 374.648029 
L 166.43834 368.614438 
L 169.899926 372.989496 
L 175.154837 375.842501 
L 178.309719 385.995301 
L 181.513733 374.84183 
L 189.006392 378.971747 
" clip-path="url(#pfd7fc698e9)" style="fill: none; stroke: #332288; stroke-width: 3; stroke-linecap: round"/>
   </g>
   <g id="line2d_11">
    <path d="M 50.971 363.116915 
L 52.130817 383.040883 
L 53.291379 380.231274 
L 53.915954 374.84183 
L 54.995373 375.037683 
L 56.010771 371.795024 
L 57.102846 374.648029 
L 58.187476 376.900383 
L 58.187476 372.468113 
L 58.187476 370.67299 
L 59.529678 376.900383 
L 60.558476 366.888438 
L 61.41829 379.216889 
L 61.41829 378.255223 
L 61.41829 375.23563 
L 62.585551 380.231274 
L 62.585551 377.792502 
L 62.585551 375.842501 
L 63.532463 381.865384 
L 63.532463 376.900383 
L 63.532463 374.84183 
L 64.725035 387.866377 
L 64.725035 384.296137 
L 64.725035 376.049295 
L 65.652591 380.231274 
L 65.652591 375.842501 
L 65.652591 374.266409 
L 68.273719 375.037683 
L 68.902015 390.851111 
L 68.902015 382.739935 
L 68.902015 379.216889 
L 69.97399 382.739935 
L 69.97399 380.231274 
L 69.97399 378.971747 
L 71.029588 385.995301 
L 71.029588 381.304496 
L 71.029588 374.648029 
L 72.100818 384.296137 
L 72.100818 378.022417 
L 72.100818 375.037683 
L 73.245003 383.974252 
L 73.245003 382.739935 
L 73.245003 380.231274 
L 74.426409 385.995301 
L 74.426409 383.040883 
L 74.426409 373.8925 
L 76.589714 378.022417 
L 76.589714 374.648029 
L 76.589714 374.266409 
L 78.557979 390.851111 
L 78.557979 377.792502 
L 78.557979 375.037683 
L 79.643354 387.866377 
L 79.643354 380.231274 
L 79.643354 371.630509 
L 80.828481 390.851111 
L 80.828481 390.851111 
L 80.828481 387.866377 
L 82.898733 389.08712 
L 84.284112 390.851111 
L 85.07916 384.296137 
L 85.07916 382.739935 
L 85.07916 377.565408 
L 86.109447 382.443803 
L 86.109447 379.972418 
L 86.109447 376.683914 
L 87.135268 383.974252 
L 87.135268 378.971747 
L 87.135268 376.683914 
L 88.244464 386.354689 
L 88.244464 380.493801 
L 88.244464 371.630509 
L 90.529855 390.851111 
L 91.479744 381.865384 
L 91.479744 381.304496 
L 91.479744 378.971747 
L 93.751736 378.971747 
L 93.751736 375.037683 
L 93.751736 374.07851 
L 94.755223 381.582815 
L 95.816776 379.972418 
L 98.951559 380.231274 
L 101.133475 388.264412 
L 102.338702 383.040883 
L 103.294546 382.739935 
L 104.470741 390.851111 
L 106.482183 372.128509 
L 107.787908 379.972418 
L 109.70853 375.23563 
L 114.043329 372.297532 
L 115.194958 381.304496 
L 118.390039 378.971747 
L 121.347648 378.729811 
L 122.785881 384.296137 
L 123.848178 382.443803 
L 125.797088 378.971747 
L 128.983981 375.23563 
L 130.049256 368.754121 
L 133.44831 371.467442 
L 136.509394 376.683914 
L 137.681867 376.258426 
L 138.828284 378.490996 
L 141.251395 376.469947 
L 144.117439 383.040883 
L 145.08445 382.443803 
L 146.107292 381.304496 
L 148.520725 374.456235 
L 151.508855 384.296137 
L 152.720038 381.304496 
L 154.775401 389.512608 
L 156.022317 373.70834 
L 158.963548 374.648029 
L 166.43834 385.642759 
L 169.899926 387.476723 
L 175.154837 378.729811 
L 178.309719 385.995301 
L 181.513733 376.049295 
L 189.006392 369.323639 
" clip-path="url(#pfd7fc698e9)" style="fill: none; stroke: #332288; stroke-width: 3; stroke-linecap: round"/>
   </g>
   <g id="line2d_12">
    <path d="M 50.971 370.111328 
L 52.130817 384.845373 
L 53.291379 366.02169 
L 53.915954 358.829132 
L 54.995373 351.702271 
L 56.010771 341.615311 
L 57.102846 330.789422 
L 58.187476 322.521257 
L 59.529678 311.686181 
L 60.558476 315.241261 
L 61.41829 322.361777 
L 62.585551 332.01276 
L 63.532463 332.721627 
L 64.725035 334.284383 
L 65.652591 333.612072 
L 68.273719 338.670089 
L 68.902015 339.120123 
L 69.97399 343.327962 
L 71.029588 348.551404 
L 72.100818 350.931123 
L 73.245003 352.774382 
L 74.426409 360.427107 
L 76.589714 366.251604 
L 78.557979 366.874358 
L 79.643354 371.127838 
L 80.828481 379.437552 
L 82.898733 390.851111 
L 84.284112 390.851111 
L 85.07916 389.753286 
L 86.109447 390.046293 
L 87.135268 388.71695 
L 88.244464 388.13078 
L 90.529855 390.851111 
L 91.479744 388.08645 
L 93.751736 389.560494 
L 94.755223 390.851111 
L 95.816776 389.656639 
L 98.951559 390.851111 
L 101.133475 390.851111 
L 102.338702 390.394103 
L 103.294546 384.623718 
L 104.470741 390.851111 
L 106.482183 390.851111 
L 107.787908 390.24424 
L 109.70853 390.851111 
L 114.043329 387.221438 
L 115.194958 390.394103 
L 118.390039 390.851111 
L 121.347648 388.947437 
L 122.785881 390.851111 
L 123.848178 390.24424 
L 125.797088 390.851111 
L 128.983981 389.656639 
L 130.049256 390.851111 
L 133.44831 389.08712 
L 136.509394 390.851111 
L 137.681867 390.394103 
L 138.828284 389.656639 
L 141.251395 390.851111 
L 144.117439 390.851111 
L 145.08445 388.534605 
L 146.107292 390.394103 
L 148.520725 388.13078 
L 151.508855 389.656639 
L 152.720038 390.851111 
L 154.775401 390.851111 
L 156.022317 390.394103 
L 158.963548 390.851111 
L 166.43834 390.851111 
L 169.899926 390.851111 
L 175.154837 390.394103 
L 178.309719 384.734214 
L 181.513733 390.851111 
L 189.006392 390.851111 
" clip-path="url(#pfd7fc698e9)" style="fill: none; stroke: #000000; stroke-linecap: round"/>
   </g>
   <g id="patch_9">
    <path d="M 50.971 396.1755 
L 50.971 288.6605 
" style="fill: none; stroke: #262626; stroke-linejoin: miter; stroke-linecap: square"/>
   </g>
   <g id="patch_10">
    <path d="M 50.971 396.1755 
L 201.0475 396.1755 
" style="fill: none; stroke: #262626; stroke-linejoin: miter; stroke-linecap: square"/>
   </g>
   <g id="text_15">
    <text style="fill: #262626; font: 9.6px 'Arial', 'DejaVu Sans', 'Liberation Sans', 'Bitstream Vera Sans', sans-serif; text-anchor: middle" x="126.00925" y="283.6605" transform="rotate(-0 126.00925 283.6605)">Marinobacter adhaerens HP15</text>
   </g>
  </g>
  <g id="axes_4">
   <g id="patch_11">
    <path d="M 50.971 530.7585 
L 201.0475 530.7585 
L 201.0475 423.2435 
L 50.971 423.2435 
L 50.971 530.7585 
z
" style="fill: none"/>
   </g>
   <g id="matplotlib.axis_7">
    <g id="xtick_10">
     <g id="text_16">
      <text style="fill: #262626; font: 8.8px 'Arial', 'DejaVu Sans', 'Liberation Sans', 'Bitstream Vera Sans', sans-serif; text-anchor: middle" x="50.971" y="546.245125" transform="rotate(-0 50.971 546.245125)">0</text>
     </g>
    </g>
    <g id="xtick_11">
     <g id="text_17">
      <text style="fill: #262626; font: 8.8px 'Arial', 'DejaVu Sans', 'Liberation Sans', 'Bitstream Vera Sans', sans-serif; text-anchor: middle" x="115.2895" y="546.245125" transform="rotate(-0 115.2895 546.245125)">60</text>
     </g>
    </g>
    <g id="xtick_12">
     <g id="text_18">
      <text style="fill: #262626; font: 8.8px 'Arial', 'DejaVu Sans', 'Liberation Sans', 'Bitstream Vera Sans', sans-serif; text-anchor: middle" x="179.608" y="546.245125" transform="rotate(-0 179.608 546.245125)">120</text>
     </g>
    </g>
    <g id="text_19">
     <text style="fill: #262626; font: 9.6px 'Arial', 'DejaVu Sans', 'Liberation Sans', 'Bitstream Vera Sans', sans-serif; text-anchor: middle" x="126.00925" y="560.36975" transform="rotate(-0 126.00925 560.36975)">day</text>
    </g>
   </g>
   <g id="matplotlib.axis_8">
    <g id="ytick_79">
     <g id="text_20">
      <!-- $\mathdefault{10^{-1}}$ -->
      <g style="fill: #262626" transform="translate(21.491 510.90375)">
       <text>
        <tspan style="font: 8.8px 'DejaVu Sans'" x="0 5.596832" y="-0.14687499999999964">10</tspan>
        <tspan style="font: 6.16px 'DejaVu Sans'" x="11.277883 16.437457" y="-3.515625">−1</tspan>
       </text>
      </g>
     </g>
    </g>
    <g id="ytick_80">
     <g id="text_21">
      <!-- $\mathdefault{10^{0}}$ -->
      <g style="fill: #262626" transform="translate(26.683 468.28775)">
       <text>
        <tspan style="font: 8.8px 'DejaVu Sans'" x="0 5.596832" y="-0.059375000000001066">10</tspan>
        <tspan style="font: 6.16px 'DejaVu Sans'" x="11.277883" y="-3.4281250000000014">0</tspan>
       </text>
      </g>
     </g>
    </g>
    <g id="ytick_81">
     <g id="text_22">
      <!-- $\mathdefault{10^{1}}$ -->
      <g style="fill: #262626" transform="translate(26.683 425.67175)">
       <text>
        <tspan style="font: 8.8px 'DejaVu Sans'" x="0 5.596832" y="-0.14687499999999964">10</tspan>
        <tspan style="font: 6.16px 'DejaVu Sans'" x="11.277883" y="-3.515625">1</tspan>
       </text>
      </g>
     </g>
    </g>
    <g id="ytick_82"/>
    <g id="ytick_83"/>
    <g id="ytick_84"/>
    <g id="ytick_85"/>
    <g id="ytick_86"/>
    <g id="ytick_87"/>
    <g id="ytick_88"/>
    <g id="ytick_89"/>
    <g id="ytick_90"/>
    <g id="ytick_91"/>
    <g id="ytick_92"/>
    <g id="ytick_93"/>
    <g id="ytick_94"/>
    <g id="ytick_95"/>
    <g id="ytick_96"/>
    <g id="ytick_97"/>
    <g id="ytick_98"/>
    <g id="ytick_99"/>
    <g id="ytick_100"/>
    <g id="ytick_101"/>
    <g id="ytick_102"/>
    <g id="ytick_103"/>
    <g id="ytick_104"/>
    <g id="text_23">
     <text style="fill: #262626; font: 9.6px 'Arial', 'DejaVu Sans', 'Liberation Sans', 'Bitstream Vera Sans', sans-serif; text-anchor: middle" x="14.4945" y="477.001" transform="rotate(-90 14.4945 477.001)">Fluorescence</text>
    </g>
   </g>
   <g id="line2d_13">
    <path d="M 50.971 504.198108 
L 52.130817 520.578301 
L 53.291379 515.076801 
L 53.915954 525.434111 
L 54.995373 522.449377 
L 56.010771 522.847412 
L 57.102846 525.434111 
L 58.187476 525.434111 
L 58.187476 522.449377 
L 58.187476 522.059723 
L 59.529678 525.434111 
L 60.558476 507.928428 
L 61.41829 525.434111 
L 61.41829 524.095608 
L 61.41829 519.206718 
L 62.585551 525.434111 
L 62.585551 520.937689 
L 62.585551 517.322935 
L 63.532463 525.434111 
L 63.532463 525.434111 
L 63.532463 525.434111 
L 64.725035 525.434111 
L 64.725035 525.434111 
L 64.725035 522.449377 
L 65.652591 525.434111 
L 65.652591 525.434111 
L 65.652591 525.434111 
L 68.273719 525.434111 
L 68.902015 525.434111 
L 68.902015 525.434111 
L 68.902015 525.434111 
L 69.97399 525.434111 
L 69.97399 525.434111 
L 69.97399 525.434111 
L 71.029588 525.434111 
L 71.029588 525.434111 
L 71.029588 525.434111 
L 72.100818 525.434111 
L 72.100818 525.434111 
L 72.100818 525.434111 
L 73.245003 525.434111 
L 73.245003 525.434111 
L 73.245003 522.449377 
L 74.426409 525.434111 
L 74.426409 525.434111 
L 74.426409 525.434111 
L 76.589714 525.434111 
L 76.589714 525.434111 
L 76.589714 520.937689 
L 78.557979 525.434111 
L 78.557979 525.434111 
L 78.557979 516.165815 
L 79.643354 525.434111 
L 79.643354 525.434111 
L 79.643354 525.434111 
L 80.828481 525.434111 
L 80.828481 525.434111 
L 80.828481 524.095608 
L 82.898733 525.434111 
L 84.284112 525.434111 
L 85.07916 525.434111 
L 85.07916 525.434111 
L 85.07916 524.095608 
L 86.109447 525.434111 
L 86.109447 525.434111 
L 86.109447 517.322935 
L 87.135268 525.434111 
L 87.135268 520.578301 
L 87.135268 517.322935 
L 88.244464 525.434111 
L 88.244464 525.434111 
L 88.244464 525.434111 
L 90.529855 525.434111 
L 91.479744 525.434111 
L 91.479744 525.434111 
L 91.479744 517.623883 
L 93.751736 525.434111 
L 93.751736 524.095608 
L 93.751736 524.095608 
L 94.755223 517.623883 
L 95.816776 525.434111 
L 98.951559 524.531108 
L 101.133475 525.434111 
L 102.338702 525.434111 
L 103.294546 525.434111 
L 104.470741 525.434111 
L 106.482183 525.434111 
L 107.787908 525.434111 
L 109.70853 525.434111 
L 114.043329 525.434111 
L 115.194958 525.434111 
L 118.390039 525.434111 
L 121.347648 525.434111 
L 122.785881 522.449377 
L 123.848178 525.434111 
L 125.797088 525.434111 
L 128.983981 525.434111 
L 130.049256 525.434111 
L 133.44831 522.059723 
L 136.509394 525.434111 
L 137.681867 525.434111 
L 138.828284 525.434111 
L 141.251395 525.434111 
L 144.117439 525.434111 
L 145.08445 525.434111 
L 146.107292 522.449377 
L 148.520725 519.879807 
L 151.508855 525.434111 
L 152.720038 525.434111 
L 154.775401 525.434111 
L 156.022317 525.434111 
L 158.963548 525.434111 
L 166.43834 520.578301 
L 169.899926 525.434111 
L 175.154837 525.434111 
L 178.309719 522.449377 
L 181.513733 523.254195 
L 189.006392 525.434111 
" clip-path="url(#p38deed433e)" style="fill: none; stroke: #332288; stroke-width: 3; stroke-linecap: round"/>
   </g>
   <g id="line2d_14">
    <path d="M 50.971 508.849409 
L 52.130817 525.434111 
L 53.291379 525.434111 
L 53.915954 525.434111 
L 54.995373 525.434111 
L 56.010771 525.434111 
L 57.102846 516.448384 
L 58.187476 525.434111 
L 58.187476 525.434111 
L 58.187476 520.578301 
L 59.529678 525.434111 
L 60.558476 515.076801 
L 61.41829 525.434111 
L 61.41829 518.557252 
L 61.41829 507.928428 
L 62.585551 525.434111 
L 62.585551 525.434111 
L 62.585551 515.076801 
L 63.532463 525.434111 
L 63.532463 522.449377 
L 63.532463 522.449377 
L 64.725035 525.434111 
L 64.725035 525.434111 
L 64.725035 513.554747 
L 65.652591 525.434111 
L 65.652591 524.095608 
L 65.652591 516.165815 
L 68.273719 525.434111 
L 68.902015 525.434111 
L 68.902015 525.434111 
L 68.902015 524.095608 
L 69.97399 525.434111 
L 69.97399 525.434111 
L 69.97399 525.434111 
L 71.029588 525.434111 
L 71.029588 525.434111 
L 71.029588 525.434111 
L 72.100818 525.434111 
L 72.100818 525.434111 
L 72.100818 520.578301 
L 73.245003 525.434111 
L 73.245003 524.531108 
L 73.245003 522.059723 
L 74.426409 525.434111 
L 74.426409 525.434111 
L 74.426409 525.434111 
L 76.589714 525.434111 
L 76.589714 525.434111 
L 76.589714 522.449377 
L 78.557979 525.434111 
L 78.557979 524.531108 
L 78.557979 518.557252 
L 79.643354 525.434111 
L 79.643354 525.434111 
L 79.643354 520.578301 
L 80.828481 525.434111 
L 80.828481 525.434111 
L 80.828481 525.434111 
L 82.898733 525.434111 
L 84.284112 525.434111 
L 85.07916 525.434111 
L 85.07916 525.434111 
L 85.07916 525.434111 
L 86.109447 525.434111 
L 86.109447 525.434111 
L 86.109447 525.434111 
L 87.135268 525.434111 
L 87.135268 525.434111 
L 87.135268 525.434111 
L 88.244464 525.434111 
L 88.244464 525.434111 
L 88.244464 525.434111 
L 90.529855 525.434111 
L 91.479744 525.434111 
L 91.479744 525.434111 
L 91.479744 524.531108 
L 93.751736 525.434111 
L 93.751736 520.578301 
L 93.751736 518.24087 
L 94.755223 525.434111 
L 95.816776 525.434111 
L 98.951559 525.434111 
L 101.133475 525.434111 
L 102.338702 525.434111 
L 103.294546 525.434111 
L 104.470741 525.434111 
L 106.482183 524.095608 
L 107.787908 525.434111 
L 109.70853 525.434111 
L 114.043329 525.434111 
L 115.194958 525.434111 
L 118.390039 522.449377 
L 121.347648 525.434111 
L 122.785881 522.059723 
L 123.848178 525.434111 
L 125.797088 525.434111 
L 128.983981 525.434111 
L 130.049256 525.434111 
L 133.44831 524.095608 
L 136.509394 525.434111 
L 137.681867 514.555418 
L 138.828284 525.434111 
L 141.251395 525.434111 
L 144.117439 525.434111 
L 145.08445 525.434111 
L 146.107292 525.434111 
L 148.520725 521.678103 
L 151.508855 525.434111 
L 152.720038 524.095608 
L 154.775401 525.434111 
L 156.022317 525.434111 
L 158.963548 525.434111 
L 166.43834 525.434111 
L 169.899926 525.434111 
L 175.154837 520.578301 
L 178.309719 525.434111 
L 181.513733 515.343107 
L 189.006392 522.449377 
" clip-path="url(#p38deed433e)" style="fill: none; stroke: #332288; stroke-width: 3; stroke-linecap: round"/>
   </g>
   <g id="line2d_15">
    <path d="M 50.971 511.702413 
L 52.130817 525.434111 
L 53.291379 525.434111 
L 53.915954 524.531108 
L 54.995373 525.434111 
L 56.010771 525.434111 
L 57.102846 522.449377 
L 58.187476 525.434111 
L 58.187476 525.434111 
L 58.187476 516.165815 
L 59.529678 524.095608 
L 60.558476 518.879137 
L 61.41829 524.531108 
L 61.41829 524.095608 
L 61.41829 520.937689 
L 62.585551 525.434111 
L 62.585551 525.434111 
L 62.585551 525.434111 
L 63.532463 524.531108 
L 63.532463 522.059723 
L 63.532463 520.578301 
L 64.725035 525.434111 
L 64.725035 525.434111 
L 64.725035 525.434111 
L 65.652591 525.434111 
L 65.652591 525.434111 
L 65.652591 525.434111 
L 68.273719 525.434111 
L 68.902015 525.434111 
L 68.902015 525.434111 
L 68.902015 520.578301 
L 69.97399 525.434111 
L 69.97399 525.434111 
L 69.97399 520.578301 
L 71.029588 525.434111 
L 71.029588 525.434111 
L 71.029588 525.434111 
L 72.100818 525.434111 
L 72.100818 518.879137 
L 72.100818 518.879137 
L 73.245003 525.434111 
L 73.245003 525.434111 
L 73.245003 522.059723 
L 74.426409 525.434111 
L 74.426409 525.434111 
L 74.426409 522.059723 
L 76.589714 525.434111 
L 76.589714 524.531108 
L 76.589714 522.449377 
L 78.557979 525.434111 
L 78.557979 525.434111 
L 78.557979 522.059723 
L 79.643354 525.434111 
L 79.643354 525.434111 
L 79.643354 522.059723 
L 80.828481 525.434111 
L 80.828481 525.434111 
L 80.828481 520.578301 
L 82.898733 525.434111 
L 84.284112 525.434111 
L 85.07916 525.434111 
L 85.07916 525.434111 
L 85.07916 524.095608 
L 86.109447 525.434111 
L 86.109447 525.434111 
L 86.109447 522.059723 
L 87.135268 525.434111 
L 87.135268 525.434111 
L 87.135268 525.434111 
L 88.244464 525.434111 
L 88.244464 525.434111 
L 88.244464 525.434111 
L 90.529855 525.434111 
L 91.479744 525.434111 
L 91.479744 525.434111 
L 91.479744 525.434111 
L 93.751736 525.434111 
L 93.751736 525.434111 
L 93.751736 525.434111 
L 94.755223 525.434111 
L 95.816776 524.531108 
L 98.951559 522.449377 
L 101.133475 525.434111 
L 102.338702 525.434111 
L 103.294546 525.434111 
L 104.470741 525.434111 
L 106.482183 525.434111 
L 107.787908 525.434111 
L 109.70853 525.434111 
L 114.043329 525.434111 
L 115.194958 525.434111 
L 118.390039 525.434111 
L 121.347648 524.095608 
L 122.785881 523.67012 
L 123.848178 523.67012 
L 125.797088 524.095608 
L 128.983981 525.434111 
L 130.049256 525.434111 
L 133.44831 525.434111 
L 136.509394 520.225759 
L 137.681867 525.434111 
L 138.828284 525.434111 
L 141.251395 525.434111 
L 144.117439 525.434111 
L 145.08445 525.434111 
L 146.107292 524.095608 
L 148.520725 525.434111 
L 151.508855 525.434111 
L 152.720038 525.434111 
L 154.775401 516.165815 
L 156.022317 524.095608 
L 158.963548 525.434111 
L 166.43834 525.434111 
L 169.899926 525.434111 
L 175.154837 525.434111 
L 178.309719 522.449377 
L 181.513733 517.929806 
L 189.006392 525.434111 
" clip-path="url(#p38deed433e)" style="fill: none; stroke: #332288; stroke-width: 3; stroke-linecap: round"/>
   </g>
   <g id="line2d_16">
    <path d="M 50.971 504.694328 
L 52.130817 519.428373 
L 53.291379 500.60469 
L 53.915954 493.412132 
L 54.995373 486.285271 
L 56.010771 476.198311 
L 57.102846 465.372422 
L 58.187476 457.104257 
L 59.529678 446.269181 
L 60.558476 449.824261 
L 61.41829 456.944777 
L 62.585551 466.59576 
L 63.532463 467.304627 
L 64.725035 468.867383 
L 65.652591 468.195072 
L 68.273719 473.253089 
L 68.902015 473.703123 
L 69.97399 477.910962 
L 71.029588 483.134404 
L 72.100818 485.514123 
L 73.245003 487.357382 
L 74.426409 495.010107 
L 76.589714 500.834604 
L 78.557979 501.457358 
L 79.643354 505.710838 
L 80.828481 514.020552 
L 82.898733 525.434111 
L 84.284112 525.434111 
L 85.07916 524.336286 
L 86.109447 524.629293 
L 87.135268 523.29995 
L 88.244464 522.71378 
L 90.529855 525.434111 
L 91.479744 522.66945 
L 93.751736 524.143494 
L 94.755223 525.434111 
L 95.816776 524.239639 
L 98.951559 525.434111 
L 101.133475 525.434111 
L 102.338702 524.977103 
L 103.294546 519.206718 
L 104.470741 525.434111 
L 106.482183 525.434111 
L 107.787908 524.82724 
L 109.70853 525.434111 
L 114.043329 521.804438 
L 115.194958 524.977103 
L 118.390039 525.434111 
L 121.347648 523.530437 
L 122.785881 525.434111 
L 123.848178 524.82724 
L 125.797088 525.434111 
L 128.983981 524.239639 
L 130.049256 525.434111 
L 133.44831 523.67012 
L 136.509394 525.434111 
L 137.681867 524.977103 
L 138.828284 524.239639 
L 141.251395 525.434111 
L 144.117439 525.434111 
L 145.08445 523.117605 
L 146.107292 524.977103 
L 148.520725 522.71378 
L 151.508855 524.239639 
L 152.720038 525.434111 
L 154.775401 525.434111 
L 156.022317 524.977103 
L 158.963548 525.434111 
L 166.43834 525.434111 
L 169.899926 525.434111 
L 175.154837 524.977103 
L 178.309719 519.317214 
L 181.513733 525.434111 
L 189.006392 525.434111 
" clip-path="url(#p38deed433e)" style="fill: none; stroke: #000000; stroke-linecap: round"/>
   </g>
   <g id="patch_12">
    <path d="M 50.971 530.7585 
L 50.971 423.2435 
" style="fill: none; stroke: #262626; stroke-linejoin: miter; stroke-linecap: square"/>
   </g>
   <g id="patch_13">
    <path d="M 50.971 530.7585 
L 201.0475 530.7585 
" style="fill: none; stroke: #262626; stroke-linejoin: miter; stroke-linecap: square"/>
   </g>
   <g id="text_24">
    <text style="fill: #262626; font: 9.6px 'Arial', 'DejaVu Sans', 'Liberation Sans', 'Bitstream Vera Sans', sans-serif; text-anchor: middle" x="126.00925" y="418.2435" transform="rotate(-0 126.00925 418.2435)">Phaeobacter gallaeciensis</text>
   </g>
  </g>
 </g>
 <defs>
  <clipPath id="p08ec9b5034">
   <rect x="50.971" y="19.4945" width="150.0765" height="107.515"/>
  </clipPath>
  <clipPath id="p0da1befacc">
   <rect x="50.971" y="154.0775" width="150.0765" height="107.515"/>
  </clipPath>
  <clipPath id="pfd7fc698e9">
   <rect x="50.971" y="288.6605" width="150.0765" height="107.515"/>
  </clipPath>
  <clipPath id="p38deed433e">
   <rect x="50.971" y="423.2435" width="150.0765" height="107.515"/>
  </clipPath>
 </defs>
</svg>
