<?xml version="1.0" encoding="utf-8" standalone="no"?>
<!DOCTYPE svg PUBLIC "-//W3C//DTD SVG 1.1//EN"
  "http://www.w3.org/Graphics/SVG/1.1/DTD/svg11.dtd">
<svg xmlns:xlink="http://www.w3.org/1999/xlink" width="208.2475pt" height="137.56625pt" viewBox="0 0 208.2475 137.56625" xmlns="http://www.w3.org/2000/svg" version="1.1">
 <metadata>
  <rdf:RDF xmlns:dc="http://purl.org/dc/elements/1.1/" xmlns:cc="http://creativecommons.org/ns#" xmlns:rdf="http://www.w3.org/1999/02/22-rdf-syntax-ns#">
   <cc:Work>
    <dc:type rdf:resource="http://purl.org/dc/dcmitype/StillImage"/>
    <dc:date>2025-08-07T13:39:14.073233</dc:date>
    <dc:format>image/svg+xml</dc:format>
    <dc:creator>
     <cc:Agent>
      <dc:title>Matplotlib v3.7.1, https://matplotlib.org/</dc:title>
     </cc:Agent>
    </dc:creator>
   </cc:Work>
  </rdf:RDF>
 </metadata>
 <defs>
  <style type="text/css">*{stroke-linejoin: round; stroke-linecap: butt}</style>
 </defs>
 <g id="figure_1">
  <g id="patch_1">
   <path d="M -0 137.56625 
L 208.2475 137.56625 
L 208.2475 0 
L -0 0 
L -0 137.56625 
z
" style="fill: none"/>
  </g>
  <g id="axes_1">
   <g id="patch_2">
    <path d="M 50.971 98.7585 
L 201.0475 98.7585 
L 201.0475 19.4945 
L 50.971 19.4945 
L 50.971 98.7585 
z
" style="fill: none"/>
   </g>
   <g id="matplotlib.axis_1">
    <g id="xtick_1">
     <g id="text_1">
      <text style="fill: #262626; font: 8.8px 'Arial', 'DejaVu Sans', 'Liberation Sans', 'Bitstream Vera Sans', sans-serif; text-anchor: middle" x="50.971" y="114.245125" transform="rotate(-0 50.971 114.245125)">0</text>
     </g>
    </g>
    <g id="xtick_2">
     <g id="text_2">
      <text style="fill: #262626; font: 8.8px 'Arial', 'DejaVu Sans', 'Liberation Sans', 'Bitstream Vera Sans', sans-serif; text-anchor: middle" x="115.2895" y="114.245125" transform="rotate(-0 115.2895 114.245125)">60</text>
     </g>
    </g>
    <g id="xtick_3">
     <g id="text_3">
      <text style="fill: #262626; font: 8.8px 'Arial', 'DejaVu Sans', 'Liberation Sans', 'Bitstream Vera Sans', sans-serif; text-anchor: middle" x="179.608" y="114.245125" transform="rotate(-0 179.608 114.245125)">120</text>
     </g>
    </g>
    <g id="text_4">
     <text style="fill: #262626; font: 9.6px 'Arial', 'DejaVu Sans', 'Liberation Sans', 'Bitstream Vera Sans', sans-serif; text-anchor: middle" x="126.00925" y="128.36975" transform="rotate(-0 126.00925 128.36975)">day</text>
    </g>
   </g>
   <g id="matplotlib.axis_2">
    <g id="ytick_1">
     <g id="text_5">
      <!-- $\mathdefault{10^{-1}}$ -->
      <g style="fill: #262626" transform="translate(21.491 84.758905)">
       <text>
        <tspan style="font: 8.8px 'DejaVu Sans'" x="0 5.596832" y="-0.14687499999999964">10</tspan>
        <tspan style="font: 6.16px 'DejaVu Sans'" x="11.277883 16.437457" y="-3.515625">−1</tspan>
       </text>
      </g>
     </g>
    </g>
    <g id="ytick_2">
     <g id="text_6">
      <!-- $\mathdefault{10^{0}}$ -->
      <g style="fill: #262626" transform="translate(26.683 53.340828)">
       <text>
        <tspan style="font: 8.8px 'DejaVu Sans'" x="0 5.596832" y="-0.059375000000001066">10</tspan>
        <tspan style="font: 6.16px 'DejaVu Sans'" x="11.277883" y="-3.4281250000000014">0</tspan>
       </text>
      </g>
     </g>
    </g>
    <g id="ytick_3">
     <g id="text_7">
      <!-- $\mathdefault{10^{1}}$ -->
      <g style="fill: #262626" transform="translate(26.683 21.92275)">
       <text>
        <tspan style="font: 8.8px 'DejaVu Sans'" x="0 5.596832" y="-0.14687499999999964">10</tspan>
        <tspan style="font: 6.16px 'DejaVu Sans'" x="11.277883" y="-3.515625">1</tspan>
       </text>
      </g>
     </g>
    </g>
    <g id="ytick_4"/>
    <g id="ytick_5"/>
    <g id="ytick_6"/>
    <g id="ytick_7"/>
    <g id="ytick_8"/>
    <g id="ytick_9"/>
    <g id="ytick_10"/>
    <g id="ytick_11"/>
    <g id="ytick_12"/>
    <g id="ytick_13"/>
    <g id="ytick_14"/>
    <g id="ytick_15"/>
    <g id="ytick_16"/>
    <g id="ytick_17"/>
    <g id="ytick_18"/>
    <g id="ytick_19"/>
    <g id="ytick_20"/>
    <g id="ytick_21"/>
    <g id="ytick_22"/>
    <g id="ytick_23"/>
    <g id="ytick_24"/>
    <g id="ytick_25"/>
    <g id="ytick_26"/>
    <g id="text_8">
     <text style="fill: #262626; font: 9.6px 'Arial', 'DejaVu Sans', 'Liberation Sans', 'Bitstream Vera Sans', sans-serif; text-anchor: middle" x="14.4945" y="59.1265" transform="rotate(-90 14.4945 59.1265)">Fluorescence</text>
    </g>
   </g>
   <g id="line2d_1">
    <path d="M 50.971 79.617395 
L 52.130817 94.833165 
L 53.291379 76.003145 
L 53.915954 71.145007 
L 54.995373 67.070222 
L 56.010771 59.5753 
L 57.102846 50.562349 
L 58.187476 46.380119 
L 58.187476 45.262384 
L 58.187476 44.619437 
L 59.529678 37.365012 
L 60.558476 38.882057 
L 61.41829 45.235356 
L 61.41829 44.723068 
L 61.41829 43.664292 
L 62.585551 52.410968 
L 62.585551 51.356347 
L 62.585551 49.887759 
L 63.532463 54.1982 
L 63.532463 52.938815 
L 63.532463 51.991098 
L 64.725035 53.324103 
L 64.725035 53.259128 
L 64.725035 52.441459 
L 65.652591 52.750176 
L 65.652591 52.718988 
L 65.652591 52.050294 
L 68.273719 55.300489 
L 68.902015 56.959457 
L 68.902015 56.235156 
L 68.902015 54.783443 
L 69.97399 58.9464 
L 69.97399 58.702739 
L 69.97399 58.228093 
L 71.029588 62.716912 
L 71.029588 61.567532 
L 71.029588 61.156693 
L 72.100818 63.381018 
L 72.100818 63.313134 
L 72.100818 62.847172 
L 73.245003 62.81449 
L 73.245003 62.523823 
L 73.245003 61.127815 
L 74.426409 68.778035 
L 74.426409 67.569751 
L 74.426409 66.588336 
L 76.589714 72.669721 
L 76.589714 71.94969 
L 76.589714 71.572393 
L 78.557979 72.737102 
L 78.557979 71.387586 
L 78.557979 71.326536 
L 79.643354 76.263051 
L 79.643354 75.917598 
L 79.643354 75.090393 
L 80.828481 83.030537 
L 80.828481 82.467789 
L 80.828481 79.069342 
L 82.898733 94.833165 
L 84.284112 94.833165 
L 85.07916 94.833165 
L 85.07916 92.345443 
L 85.07916 91.253284 
L 86.109447 94.833165 
L 86.109447 94.833165 
L 86.109447 92.345443 
L 87.135268 94.833165 
L 87.135268 94.833165 
L 87.135268 92.345443 
L 88.244464 94.833165 
L 88.244464 94.833165 
L 88.244464 92.345443 
L 90.529855 94.833165 
L 91.479744 94.833165 
L 91.479744 94.833165 
L 91.479744 82.606315 
L 93.751736 94.833165 
L 93.751736 94.833165 
L 93.751736 88.000238 
L 94.755223 94.833165 
L 95.816776 92.345443 
L 98.951559 94.833165 
L 101.133475 94.833165 
L 102.338702 94.833165 
L 103.294546 91.253284 
L 104.470741 94.833165 
L 106.482183 94.833165 
L 107.787908 94.833165 
L 109.70853 94.833165 
L 114.043329 88.000238 
L 115.194958 94.833165 
L 118.390039 94.833165 
L 121.347648 94.833165 
L 122.785881 94.833165 
L 123.848178 94.833165 
L 125.797088 94.833165 
L 128.983981 94.833165 
L 130.049256 94.833165 
L 133.44831 94.833165 
L 136.509394 94.833165 
L 137.681867 94.833165 
L 138.828284 92.345443 
L 141.251395 94.833165 
L 144.117439 94.833165 
L 145.08445 94.833165 
L 146.107292 94.833165 
L 148.520725 94.833165 
L 151.508855 92.345443 
L 152.720038 94.833165 
L 154.775401 94.833165 
L 156.022317 93.846372 
L 158.963548 94.833165 
L 166.43834 94.833165 
L 169.899926 94.833165 
L 175.154837 93.846372 
L 178.309719 91.253284 
L 181.513733 94.833165 
L 189.006392 94.833165 
" clip-path="url(#pe740e309c9)" style="fill: none; stroke: #000000; stroke-width: 3; stroke-linecap: round"/>
   </g>
   <g id="line2d_2">
    <path d="M 50.971 88.208558 
L 52.130817 88.853309 
L 53.291379 77.260783 
L 53.915954 71.08503 
L 54.995373 66.164554 
L 56.010771 59.094714 
L 57.102846 51.174321 
L 58.187476 45.0832 
L 58.187476 44.237683 
L 58.187476 44.013654 
L 59.529678 36.384921 
L 60.558476 38.18811 
L 61.41829 43.972568 
L 61.41829 43.768973 
L 61.41829 43.433627 
L 62.585551 51.771372 
L 62.585551 51.641215 
L 62.585551 51.427008 
L 63.532463 50.994692 
L 63.532463 50.953573 
L 63.532463 50.885315 
L 64.725035 53.259128 
L 64.725035 52.259527 
L 64.725035 51.991098 
L 65.652591 52.45673 
L 65.652591 52.005873 
L 65.652591 50.967266 
L 68.273719 57.369368 
L 68.902015 56.769504 
L 68.902015 56.438206 
L 68.902015 55.394916 
L 69.97399 60.785968 
L 69.97399 59.5753 
L 69.97399 59.045097 
L 71.029588 64.814851 
L 71.029588 64.332131 
L 71.029588 63.313134 
L 72.100818 67.24976 
L 72.100818 67.204653 
L 72.100818 64.627163 
L 73.245003 69.773675 
L 73.245003 69.557944 
L 73.245003 67.569751 
L 74.426409 76.981359 
L 74.426409 75.251871 
L 74.426409 74.159712 
L 76.589714 81.927334 
L 76.589714 79.506009 
L 76.589714 79.285929 
L 78.557979 83.617496 
L 78.557979 81.280545 
L 78.557979 79.506009 
L 79.643354 91.253284 
L 79.643354 86.075263 
L 79.643354 79.395525 
L 80.828481 92.345443 
L 80.828481 88.000238 
L 80.828481 87.197377 
L 82.898733 94.833165 
L 84.284112 94.833165 
L 85.07916 94.833165 
L 85.07916 94.833165 
L 85.07916 94.167438 
L 86.109447 94.833165 
L 86.109447 94.833165 
L 86.109447 92.345443 
L 87.135268 92.63271 
L 87.135268 92.345443 
L 87.135268 90.993377 
L 88.244464 94.833165 
L 88.244464 91.253284 
L 88.244464 91.253284 
L 90.529855 94.833165 
L 91.479744 94.833165 
L 91.479744 94.833165 
L 91.479744 94.833165 
L 93.751736 94.833165 
L 93.751736 94.833165 
L 93.751736 94.833165 
L 94.755223 94.833165 
L 95.816776 94.833165 
L 98.951559 94.833165 
L 101.133475 94.833165 
L 102.338702 93.846372 
L 103.294546 86.075263 
L 104.470741 94.833165 
L 106.482183 94.833165 
L 107.787908 93.532686 
L 109.70853 94.833165 
L 114.043329 94.833165 
L 115.194958 93.846372 
L 118.390039 94.833165 
L 121.347648 94.833165 
L 122.785881 94.833165 
L 123.848178 94.833165 
L 125.797088 94.833165 
L 128.983981 94.833165 
L 130.049256 94.833165 
L 133.44831 94.833165 
L 136.509394 94.833165 
L 137.681867 94.833165 
L 138.828284 94.833165 
L 141.251395 94.833165 
L 144.117439 94.833165 
L 145.08445 93.846372 
L 146.107292 94.833165 
L 148.520725 89.530044 
L 151.508855 94.833165 
L 152.720038 94.833165 
L 154.775401 94.833165 
L 156.022317 94.833165 
L 158.963548 94.833165 
L 166.43834 94.833165 
L 169.899926 94.833165 
L 175.154837 94.833165 
L 178.309719 88.634989 
L 181.513733 94.833165 
L 189.006392 94.833165 
" clip-path="url(#pe740e309c9)" style="fill: none; stroke: #000000; stroke-width: 3; stroke-linecap: round"/>
   </g>
   <g id="line2d_3">
    <path d="M 50.971 74.23489 
L 52.130817 88.420108 
L 53.291379 76.350799 
L 53.915954 71.44891 
L 54.995373 64.777106 
L 56.010771 57.06614 
L 57.102846 49.951193 
L 58.187476 43.874463 
L 58.187476 43.592288 
L 58.187476 43.323651 
L 59.529678 35.710235 
L 60.558476 40.285186 
L 61.41829 45.462243 
L 61.41829 45.127776 
L 61.41829 43.850046 
L 62.585551 52.641329 
L 62.585551 51.202168 
L 62.585551 50.953573 
L 63.532463 52.502646 
L 63.532463 52.109748 
L 63.532463 51.569438 
L 64.725035 54.372911 
L 64.725035 53.85535 
L 64.725035 53.587141 
L 65.652591 54.729189 
L 65.652591 53.73736 
L 65.652591 52.62585 
L 68.273719 56.499715 
L 68.902015 58.510894 
L 68.902015 57.951033 
L 68.902015 57.634751 
L 69.97399 61.777686 
L 69.97399 61.508078 
L 69.97399 60.073432 
L 71.029588 66.081354 
L 71.029588 65.315276 
L 71.029588 64.368663 
L 72.100818 68.527666 
L 72.100818 66.718081 
L 72.100818 65.998659 
L 73.245003 73.218325 
L 73.245003 72.737102 
L 73.245003 67.295016 
L 74.426409 83.768267 
L 74.426409 74.010588 
L 74.426409 72.272274 
L 76.589714 81.280545 
L 76.589714 80.072261 
L 76.589714 77.167004 
L 78.557979 85.20588 
L 78.557979 79.069342 
L 78.557979 78.135119 
L 79.643354 85.375381 
L 79.643354 81.280545 
L 79.643354 79.957115 
L 80.828481 94.833165 
L 80.828481 91.253284 
L 80.828481 87.197377 
L 82.898733 94.833165 
L 84.284112 94.833165 
L 85.07916 94.833165 
L 85.07916 94.833165 
L 85.07916 94.833165 
L 86.109447 94.833165 
L 86.109447 94.833165 
L 86.109447 94.833165 
L 87.135268 94.833165 
L 87.135268 94.833165 
L 87.135268 92.345443 
L 88.244464 94.833165 
L 88.244464 94.833165 
L 88.244464 88.208558 
L 90.529855 94.833165 
L 91.479744 94.833165 
L 91.479744 94.833165 
L 91.479744 94.833165 
L 93.751736 94.833165 
L 93.751736 94.833165 
L 93.751736 94.833165 
L 94.755223 94.833165 
L 95.816776 94.833165 
L 98.951559 94.833165 
L 101.133475 94.833165 
L 102.338702 94.833165 
L 103.294546 94.833165 
L 104.470741 94.833165 
L 106.482183 94.833165 
L 107.787908 94.833165 
L 109.70853 94.833165 
L 114.043329 94.833165 
L 115.194958 94.833165 
L 118.390039 94.833165 
L 121.347648 90.993377 
L 122.785881 94.833165 
L 123.848178 93.532686 
L 125.797088 94.833165 
L 128.983981 92.345443 
L 130.049256 94.833165 
L 133.44831 91.253284 
L 136.509394 94.833165 
L 137.681867 93.846372 
L 138.828284 94.833165 
L 141.251395 94.833165 
L 144.117439 94.833165 
L 145.08445 90.993377 
L 146.107292 93.846372 
L 148.520725 94.833165 
L 151.508855 94.833165 
L 152.720038 94.833165 
L 154.775401 94.833165 
L 156.022317 94.833165 
L 158.963548 94.833165 
L 166.43834 94.833165 
L 169.899926 94.833165 
L 175.154837 94.833165 
L 178.309719 91.253284 
L 181.513733 94.833165 
L 189.006392 94.833165 
" clip-path="url(#pe740e309c9)" style="fill: none; stroke: #000000; stroke-width: 3; stroke-linecap: round"/>
   </g>
   <g id="patch_3">
    <path d="M 50.971 98.7585 
L 50.971 19.4945 
" style="fill: none; stroke: #262626; stroke-linejoin: miter; stroke-linecap: square"/>
   </g>
   <g id="patch_4">
    <path d="M 50.971 98.7585 
L 201.0475 98.7585 
" style="fill: none; stroke: #262626; stroke-linejoin: miter; stroke-linecap: square"/>
   </g>
   <g id="text_9">
    <text style="fill: #262626; font: 9.6px 'Arial', 'DejaVu Sans', 'Liberation Sans', 'Bitstream Vera Sans', sans-serif; text-anchor: middle" x="126.00925" y="14.4945" transform="rotate(-0 126.00925 14.4945)">Axenic</text>
   </g>
  </g>
 </g>
 <defs>
  <clipPath id="pe740e309c9">
   <rect x="50.971" y="19.4945" width="150.0765" height="79.264"/>
  </clipPath>
 </defs>
</svg>
