<?xml version="1.0" encoding="utf-8" standalone="no"?>
<!DOCTYPE svg PUBLIC "-//W3C//DTD SVG 1.1//EN"
  "http://www.w3.org/Graphics/SVG/1.1/DTD/svg11.dtd">
<svg xmlns:xlink="http://www.w3.org/1999/xlink" width="214.77375pt" height="569.175375pt" viewBox="0 0 214.77375 569.175375" xmlns="http://www.w3.org/2000/svg" version="1.1">
 <metadata>
  <rdf:RDF xmlns:dc="http://purl.org/dc/elements/1.1/" xmlns:cc="http://creativecommons.org/ns#" xmlns:rdf="http://www.w3.org/1999/02/22-rdf-syntax-ns#">
   <cc:Work>
    <dc:type rdf:resource="http://purl.org/dc/dcmitype/StillImage"/>
    <dc:date>2024-11-25T13:48:33.985138</dc:date>
    <dc:format>image/svg+xml</dc:format>
    <dc:creator>
     <cc:Agent>
      <dc:title>Matplotlib v3.8.0, https://matplotlib.org/</dc:title>
     </cc:Agent>
    </dc:creator>
   </cc:Work>
  </rdf:RDF>
 </metadata>
 <defs>
  <style type="text/css">*{stroke-linejoin: round; stroke-linecap: butt}</style>
 </defs>
 <g id="figure_1">
  <g id="patch_1">
   <path d="M 0 569.175375 
L 214.77375 569.175375 
L 214.77375 0 
L 0 0 
L 0 569.175375 
z
" style="fill: none"/>
  </g>
  <g id="axes_1">
   <g id="patch_2">
    <path d="M 47.2035 127.117359 
L 207.57375 127.117359 
L 207.57375 19.0715 
L 47.2035 19.0715 
L 47.2035 127.117359 
z
" style="fill: none"/>
   </g>
   <g id="matplotlib.axis_1">
    <g id="xtick_1"/>
    <g id="xtick_2"/>
    <g id="xtick_3"/>
   </g>
   <g id="matplotlib.axis_2">
    <g id="ytick_1">
     <g id="text_1">
      <!-- $\mathdefault{10^{-1}}$ -->
      <g style="fill: #262626" transform="translate(20.9795 108.387336)">
       <text>
        <tspan style="font: 8.8px 'Arial'" x="0 4.892395" y="-0.4372624999999992">10</tspan>
        <tspan style="font: 6.16px 'Arial'" x="9.938116 13.534183" y="-6.570312499999999">−1</tspan>
       </text>
      </g>
     </g>
    </g>
    <g id="ytick_2">
     <g id="text_2">
      <!-- $\mathdefault{10^{0}}$ -->
      <g style="fill: #262626" transform="translate(24.5875 65.560918)">
       <text>
        <tspan style="font: 8.8px 'Arial'" x="0 4.892395" y="-0.4372624999999992">10</tspan>
        <tspan style="font: 6.16px 'Arial'" x="9.938116" y="-6.570312499999999">0</tspan>
       </text>
      </g>
     </g>
    </g>
    <g id="ytick_3">
     <g id="text_3">
      <!-- $\mathdefault{10^{1}}$ -->
      <g style="fill: #262626" transform="translate(24.5875 22.7345)">
       <text>
        <tspan style="font: 8.8px 'Arial'" x="0 4.892395" y="-0.4372624999999992">10</tspan>
        <tspan style="font: 6.16px 'Arial'" x="9.938116" y="-6.570312499999999">1</tspan>
       </text>
      </g>
     </g>
    </g>
    <g id="ytick_4"/>
    <g id="ytick_5"/>
    <g id="ytick_6"/>
    <g id="ytick_7"/>
    <g id="ytick_8"/>
    <g id="ytick_9"/>
    <g id="ytick_10"/>
    <g id="ytick_11"/>
    <g id="ytick_12"/>
    <g id="ytick_13"/>
    <g id="ytick_14"/>
    <g id="ytick_15"/>
    <g id="ytick_16"/>
    <g id="ytick_17"/>
    <g id="ytick_18"/>
    <g id="ytick_19"/>
    <g id="ytick_20"/>
    <g id="ytick_21"/>
    <g id="ytick_22"/>
    <g id="ytick_23"/>
    <g id="ytick_24"/>
    <g id="ytick_25"/>
    <g id="ytick_26"/>
    <g id="text_4">
     <text style="fill: #262626; font: 9.6px 'Arial', 'DejaVu Sans', 'Liberation Sans', 'Bitstream Vera Sans', sans-serif; text-anchor: middle" x="14.0715" y="73.09443" transform="rotate(-90 14.0715 73.09443)">Fluorescence</text>
    </g>
   </g>
   <g id="line2d_1">
    <path d="M 47.2035 99.005343 
L 48.442869 114.225323 
L 49.683034 117.248058 
L 50.350448 121.766681 
L 51.503905 116.532613 
L 52.588949 120.859219 
L 53.755929 121.766681 
L 54.914954 115.179341 
L 54.914954 113.91789 
L 54.914954 113.615456 
L 56.349218 104.174563 
L 57.448582 95.866724 
L 58.367369 93.383137 
L 58.367369 88.596894 
L 58.367369 88.133817 
L 59.614694 84.415352 
L 59.614694 83.090572 
L 59.614694 79.174219 
L 60.626554 74.82719 
L 60.626554 72.848933 
L 60.626554 72.58275 
L 61.900924 62.387897 
L 61.900924 62.028571 
L 61.900924 61.420516 
L 62.892102 55.193478 
L 62.892102 54.910301 
L 62.892102 54.518456 
L 65.693013 49.211607 
L 66.364404 51.521381 
L 66.364404 49.950113 
L 66.364404 49.881751 
L 67.509906 53.040306 
L 67.509906 53.040306 
L 67.509906 52.0834 
L 68.637907 54.171491 
L 68.637907 53.855004 
L 68.637907 52.617707 
L 69.782613 55.599965 
L 69.782613 55.23243 
L 69.782613 54.999936 
L 71.005277 47.7997 
L 71.005277 46.650606 
L 71.005277 46.422591 
L 72.267715 53.31965 
L 72.267715 52.2266 
L 72.267715 51.299139 
L 74.579402 58.429533 
L 74.579402 58.398688 
L 74.579402 57.364713 
L 76.68267 55.467867 
L 76.68267 54.110208 
L 76.68267 53.555685 
L 77.842491 55.219437 
L 77.842491 54.000406 
L 77.842491 53.167818 
L 79.108907 57.132943 
L 79.108907 56.904026 
L 79.108907 55.051351 
L 81.321157 54.097976 
L 82.801559 56.192606 
L 83.651139 58.093023 
L 83.651139 57.219518 
L 83.651139 56.66385 
L 84.752094 59.282281 
L 84.752094 58.108188 
L 84.752094 57.555176 
L 85.848276 56.124301 
L 85.848276 55.666367 
L 85.848276 55.613226 
L 87.033552 56.734168 
L 87.033552 56.015533 
L 87.033552 55.826707 
L 89.475698 57.423109 
L 90.49074 34.885887 
L 90.49074 34.528074 
L 90.49074 34.060063 
L 92.918567 58.898447 
L 92.918567 57.807222 
L 92.918567 57.792301 
L 93.990884 59.428285 
L 95.125249 60.500973 
L 98.475046 68.26799 
L 100.80662 75.743972 
L 102.094514 77.944443 
L 103.115919 81.908374 
L 104.372789 80.0417 
L 106.522196 71.774661 
L 107.917481 70.344413 
L 109.969838 63.388204 
L 114.601961 60.972751 
L 115.83258 60.761593 
L 119.246812 73.49682 
L 122.407283 73.358535 
L 123.944165 73.917953 
L 125.079325 75.861814 
L 127.161911 74.132151 
L 130.567392 77.595151 
L 131.705735 72.418299 
L 135.33793 75.822451 
L 138.608974 66.376596 
L 139.861867 63.167855 
L 141.086917 72.255289 
L 143.676229 78.893823 
L 146.738855 78.986819 
L 147.772193 78.847498 
L 148.865193 86.528177 
L 151.444163 81.055536 
L 154.637249 85.375941 
L 155.931507 86.80999 
L 158.127847 87.831383 
L 159.460289 85.841779 
L 162.603259 85.375941 
L 170.590748 94.529674 
L 174.289764 95.297895 
L 179.905109 96.334655 
L 183.276384 92.688683 
L 186.700162 103.121493 
L 194.706742 104.356021 
" clip-path="url(#p3eff7547ef)" style="fill: none; stroke: #882255; stroke-width: 3; stroke-linecap: round"/>
   </g>
   <g id="line2d_2">
    <path d="M 47.2035 104.356021 
L 48.442869 111.094408 
L 49.683034 117.248058 
L 50.350448 121.766681 
L 51.503905 121.766681 
L 52.588949 110.075014 
L 53.755929 121.766681 
L 54.914954 121.766681 
L 54.914954 121.766681 
L 54.914954 118.375632 
L 56.349218 113.615456 
L 57.448582 102.451176 
L 58.367369 102.451176 
L 58.367369 101.645887 
L 58.367369 99.702026 
L 59.614694 90.40088 
L 59.614694 89.55914 
L 59.614694 89.313871 
L 60.626554 83.03254 
L 60.626554 81.317871 
L 60.626554 79.748021 
L 61.900924 72.815451 
L 61.900924 71.121988 
L 61.900924 70.819061 
L 62.892102 63.713446 
L 62.892102 63.672478 
L 62.892102 63.12807 
L 65.693013 47.174095 
L 66.364404 43.07611 
L 66.364404 42.392456 
L 66.364404 42.069431 
L 67.509906 37.528719 
L 67.509906 37.358907 
L 67.509906 37.195559 
L 68.637907 43.334816 
L 68.637907 41.745626 
L 68.637907 41.218172 
L 69.782613 43.842132 
L 69.782613 43.680795 
L 69.782613 43.56938 
L 71.005277 45.254117 
L 71.005277 44.997467 
L 71.005277 44.619013 
L 72.267715 51.811078 
L 72.267715 50.688593 
L 72.267715 49.901258 
L 74.579402 55.934373 
L 74.579402 55.402168 
L 74.579402 54.770312 
L 76.68267 55.481035 
L 76.68267 55.12874 
L 76.68267 54.961468 
L 77.842491 56.302417 
L 77.842491 55.934373 
L 77.842491 55.692994 
L 79.108907 59.314627 
L 79.108907 58.522375 
L 79.108907 58.522375 
L 81.321157 49.127171 
L 82.801559 56.510078 
L 83.651139 59.823329 
L 83.651139 57.540455 
L 83.651139 57.075449 
L 84.752094 60.639516 
L 84.752094 60.397739 
L 84.752094 59.8067 
L 85.848276 58.475896 
L 85.848276 58.032489 
L 85.848276 57.957096 
L 87.033552 43.410381 
L 87.033552 39.855994 
L 87.033552 39.725671 
L 89.475698 52.776483 
L 90.49074 54.269965 
L 90.49074 53.879158 
L 90.49074 52.902192 
L 92.918567 57.147344 
L 92.918567 56.875608 
L 92.918567 56.37138 
L 93.990884 57.17618 
L 95.125249 53.579454 
L 98.475046 61.842204 
L 100.80662 69.598045 
L 102.094514 71.152553 
L 103.115919 70.227619 
L 104.372789 66.83172 
L 106.522196 61.566108 
L 107.917481 57.927025 
L 109.969838 60.278019 
L 114.601961 67.373007 
L 115.83258 68.26799 
L 119.246812 74.604885 
L 122.407283 78.16613 
L 123.944165 77.768977 
L 125.079325 81.74546 
L 127.161911 77.900421 
L 130.567392 81.69147 
L 131.705735 78.709213 
L 135.33793 76.219886 
L 138.608974 69.598045 
L 139.861867 69.881576 
L 141.086917 76.421835 
L 143.676229 78.210786 
L 146.738855 77.638455 
L 147.772193 75.203706 
L 148.865193 84.921486 
L 151.444163 83.561465 
L 154.637249 88.75385 
L 155.931507 88.2102 
L 158.127847 84.921486 
L 159.460289 87.981985 
L 162.603259 85.310335 
L 170.590748 93.791929 
L 174.289764 92.688683 
L 179.905109 95.866724 
L 183.276384 104.174563 
L 186.700162 99.988175 
L 194.706742 111.094408 
" clip-path="url(#p3eff7547ef)" style="fill: none; stroke: #882255; stroke-width: 3; stroke-linecap: round"/>
   </g>
   <g id="line2d_3">
    <path d="M 47.2035 101.645887 
L 48.442869 112.452623 
L 49.683034 113.91789 
L 50.350448 116.886895 
L 51.503905 121.766681 
L 52.588949 115.508541 
L 53.755929 121.766681 
L 54.914954 115.508541 
L 54.914954 110.075014 
L 54.914954 103.994859 
L 56.349218 95.637101 
L 57.448582 94.745947 
L 58.367369 90.487187 
L 58.367369 87.831383 
L 58.367369 86.66855 
L 59.614694 82.518241 
L 59.614694 80.340091 
L 59.614694 78.210786 
L 60.626554 70.819061 
L 60.626554 69.402114 
L 60.626554 69.235801 
L 61.900924 64.724754 
L 61.900924 63.068553 
L 61.900924 62.464437 
L 62.892102 53.472731 
L 62.892102 53.028758 
L 62.892102 52.561329 
L 65.693013 52.651617 
L 66.364404 53.237741 
L 66.364404 52.437894 
L 66.364404 52.072431 
L 67.509906 55.23243 
L 67.509906 55.077111 
L 67.509906 54.257627 
L 68.637907 57.703024 
L 68.637907 57.321035 
L 68.637907 57.075449 
L 69.782613 54.961468 
L 69.782613 54.795686 
L 69.782613 54.196061 
L 71.005277 59.233866 
L 71.005277 59.233866 
L 71.005277 58.002295 
L 72.267715 62.141294 
L 72.267715 61.712849 
L 72.267715 61.330097 
L 74.579402 60.937391 
L 74.579402 59.137413 
L 74.579402 58.772243 
L 76.68267 60.779098 
L 76.68267 60.656907 
L 76.68267 59.756903 
L 77.842491 60.570116 
L 77.842491 58.553425 
L 77.842491 58.383285 
L 79.108907 64.170148 
L 79.108907 63.733964 
L 79.108907 63.713446 
L 81.321157 56.861416 
L 82.801559 60.278019 
L 83.651139 59.057416 
L 83.651139 59.057416 
L 83.651139 57.97215 
L 84.752094 61.132707 
L 84.752094 60.674313 
L 84.752094 60.125217 
L 85.848276 59.990439 
L 85.848276 59.073388 
L 85.848276 58.85102 
L 87.033552 61.008178 
L 87.033552 59.105373 
L 87.033552 58.475896 
L 89.475698 61.972464 
L 90.49074 60.397739 
L 90.49074 60.243955 
L 90.49074 60.142134 
L 92.918567 63.919648 
L 92.918567 63.795653 
L 92.918567 63.388204 
L 93.990884 64.402774 
L 95.125249 63.42855 
L 98.475046 71.617172 
L 100.80662 72.190483 
L 102.094514 73.22127 
L 103.115919 70.227619 
L 104.372789 68.880477 
L 106.522196 62.103643 
L 107.917481 61.897918 
L 109.969838 65.074457 
L 114.601961 69.429978 
L 115.83258 65.408385 
L 119.246812 77.209882 
L 122.407283 77.725368 
L 123.944165 79.268632 
L 125.079325 78.617591 
L 127.161911 78.571948 
L 130.567392 78.940263 
L 131.705735 74.024744 
L 135.33793 66.880282 
L 138.608974 65.074457 
L 139.861867 64.254403 
L 141.086917 71.680008 
L 143.676229 77.856503 
L 146.738855 74.385206 
L 147.772193 75.861814 
L 148.865193 81.317871 
L 151.444163 85.707488 
L 154.637249 85.050201 
L 155.931507 82.745064 
L 158.127847 81.212493 
L 159.460289 81.42385 
L 162.603259 81.055536 
L 170.590748 87.533788 
L 174.289764 91.282527 
L 179.905109 91.925529 
L 183.276384 95.751558 
L 186.700162 100.132917 
L 194.706742 108.643595 
" clip-path="url(#p3eff7547ef)" style="fill: none; stroke: #882255; stroke-width: 3; stroke-linecap: round"/>
   </g>
   <g id="line2d_4">
    <path d="M 47.2035 100.924495 
L 48.442869 115.731289 
L 49.683034 96.814663 
L 50.350448 89.586593 
L 51.503905 82.424542 
L 52.588949 72.287777 
L 53.755929 61.408435 
L 54.914954 53.099446 
L 56.349218 42.210872 
L 57.448582 45.783505 
L 58.367369 52.939178 
L 59.614694 62.637813 
L 60.626554 63.35018 
L 61.900924 64.920652 
L 62.892102 64.245022 
L 65.693013 69.328014 
L 66.364404 69.780269 
L 67.509906 74.008884 
L 68.637907 79.258118 
L 69.782613 81.649587 
L 71.005277 83.501947 
L 72.267715 91.192458 
L 74.579402 97.045713 
L 76.68267 97.671542 
L 77.842491 101.946024 
L 79.108907 110.296767 
L 81.321157 121.766681 
L 82.801559 121.766681 
L 83.651139 120.663435 
L 84.752094 120.957889 
L 85.848276 119.621982 
L 87.033552 119.032918 
L 89.475698 121.766681 
L 90.49074 118.988369 
L 92.918567 120.469691 
L 93.990884 121.766681 
L 95.125249 120.566311 
L 98.475046 121.766681 
L 100.80662 121.766681 
L 102.094514 121.307416 
L 103.115919 115.508541 
L 104.372789 121.766681 
L 106.522196 121.766681 
L 107.917481 121.156814 
L 109.969838 121.766681 
L 114.601961 118.119086 
L 115.83258 121.307416 
L 119.246812 121.766681 
L 122.407283 119.853608 
L 123.944165 121.766681 
L 125.079325 121.156814 
L 127.161911 121.766681 
L 130.567392 120.566311 
L 131.705735 121.766681 
L 135.33793 119.99398 
L 138.608974 121.766681 
L 139.861867 121.307416 
L 141.086917 120.566311 
L 143.676229 121.766681 
L 146.738855 121.766681 
L 147.772193 119.438737 
L 148.865193 121.307416 
L 151.444163 119.032918 
L 154.637249 120.566311 
L 155.931507 121.766681 
L 158.127847 121.766681 
L 159.460289 121.307416 
L 162.603259 121.766681 
L 170.590748 121.766681 
L 174.289764 121.766681 
L 179.905109 121.307416 
L 183.276384 115.619581 
L 186.700162 121.766681 
L 194.706742 121.766681 
" clip-path="url(#p3eff7547ef)" style="fill: none; stroke: #000000; stroke-linecap: round"/>
   </g>
   <g id="patch_3">
    <path d="M 47.2035 127.117359 
L 47.2035 19.0715 
" style="fill: none; stroke: #262626; stroke-linejoin: miter; stroke-linecap: square"/>
   </g>
   <g id="patch_4">
    <path d="M 47.2035 127.117359 
L 207.57375 127.117359 
" style="fill: none; stroke: #262626; stroke-linejoin: miter; stroke-linecap: square"/>
   </g>
   <g id="text_5">
    <text style="fill: #262626; font: 9.6px 'Arial', 'DejaVu Sans', 'Liberation Sans', 'Bitstream Vera Sans', sans-serif; text-anchor: middle" x="127.388625" y="14.0715" transform="rotate(-0 127.388625 14.0715)">A. macleodii 1A3</text>
   </g>
  </g>
  <g id="axes_2">
   <g id="patch_5">
    <path d="M 47.2035 261.823406 
L 207.57375 261.823406 
L 207.57375 153.777547 
L 47.2035 153.777547 
L 47.2035 261.823406 
z
" style="fill: none"/>
   </g>
   <g id="matplotlib.axis_3">
    <g id="xtick_4"/>
    <g id="xtick_5"/>
    <g id="xtick_6"/>
   </g>
   <g id="matplotlib.axis_4">
    <g id="ytick_27">
     <g id="text_6">
      <!-- $\mathdefault{10^{-1}}$ -->
      <g style="fill: #262626" transform="translate(20.9795 243.093383)">
       <text>
        <tspan style="font: 8.8px 'Arial'" x="0 4.892395" y="-0.4372624999999992">10</tspan>
        <tspan style="font: 6.16px 'Arial'" x="9.938116 13.534183" y="-6.570312499999999">−1</tspan>
       </text>
      </g>
     </g>
    </g>
    <g id="ytick_28">
     <g id="text_7">
      <!-- $\mathdefault{10^{0}}$ -->
      <g style="fill: #262626" transform="translate(24.5875 200.266965)">
       <text>
        <tspan style="font: 8.8px 'Arial'" x="0 4.892395" y="-0.4372624999999992">10</tspan>
        <tspan style="font: 6.16px 'Arial'" x="9.938116" y="-6.570312499999999">0</tspan>
       </text>
      </g>
     </g>
    </g>
    <g id="ytick_29">
     <g id="text_8">
      <!-- $\mathdefault{10^{1}}$ -->
      <g style="fill: #262626" transform="translate(24.5875 157.440547)">
       <text>
        <tspan style="font: 8.8px 'Arial'" x="0 4.892395" y="-0.4372624999999992">10</tspan>
        <tspan style="font: 6.16px 'Arial'" x="9.938116" y="-6.570312499999999">1</tspan>
       </text>
      </g>
     </g>
    </g>
    <g id="ytick_30"/>
    <g id="ytick_31"/>
    <g id="ytick_32"/>
    <g id="ytick_33"/>
    <g id="ytick_34"/>
    <g id="ytick_35"/>
    <g id="ytick_36"/>
    <g id="ytick_37"/>
    <g id="ytick_38"/>
    <g id="ytick_39"/>
    <g id="ytick_40"/>
    <g id="ytick_41"/>
    <g id="ytick_42"/>
    <g id="ytick_43"/>
    <g id="ytick_44"/>
    <g id="ytick_45"/>
    <g id="ytick_46"/>
    <g id="ytick_47"/>
    <g id="ytick_48"/>
    <g id="ytick_49"/>
    <g id="ytick_50"/>
    <g id="ytick_51"/>
    <g id="ytick_52"/>
    <g id="text_9">
     <text style="fill: #262626; font: 9.6px 'Arial', 'DejaVu Sans', 'Liberation Sans', 'Bitstream Vera Sans', sans-serif; text-anchor: middle" x="14.0715" y="207.800477" transform="rotate(-90 14.0715 207.800477)">Fluorescence</text>
    </g>
   </g>
   <g id="line2d_5">
    <path d="M 47.2035 236.510226 
L 48.442869 250.549719 
L 49.683034 237.322551 
L 50.350448 234.266633 
L 51.503905 223.069961 
L 52.588949 218.935094 
L 53.755929 210.139377 
L 54.914954 205.05046 
L 54.914954 202.179185 
L 54.914954 201.73278 
L 56.349218 202.843515 
L 57.448582 211.831386 
L 58.367369 212.916833 
L 58.367369 212.475024 
L 58.367369 209.909753 
L 59.614694 214.117203 
L 59.614694 211.621697 
L 59.614694 211.580041 
L 60.626554 212.694617 
L 60.626554 212.21489 
L 60.626554 210.726154 
L 61.900924 204.673532 
L 61.900924 203.749676 
L 61.900924 203.451648 
L 62.892102 202.585188 
L 62.892102 202.508384 
L 62.892102 201.781855 
L 65.693013 203.613617 
L 66.364404 210.845764 
L 66.364404 209.720542 
L 66.364404 207.689515 
L 67.509906 205.797519 
L 67.509906 204.962796 
L 67.509906 203.37119 
L 68.637907 206.386055 
L 68.637907 204.616216 
L 68.637907 204.559075 
L 69.782613 202.688088 
L 69.782613 202.457357 
L 69.782613 201.954643 
L 71.005277 201.954643 
L 71.005277 201.635018 
L 71.005277 201.368791 
L 72.267715 205.315957 
L 72.267715 203.532456 
L 72.267715 203.052792 
L 74.579402 205.375475 
L 74.579402 204.84655 
L 74.579402 203.777008 
L 76.68267 197.402013 
L 76.68267 196.363732 
L 76.68267 195.086636 
L 77.842491 197.794418 
L 77.842491 197.324516 
L 77.842491 196.327047 
L 79.108907 198.708821 
L 79.108907 198.317243 
L 79.108907 197.382609 
L 81.321157 208.064581 
L 82.801559 198.17503 
L 83.651139 196.97972 
L 83.651139 196.363732 
L 83.651139 195.086636 
L 84.752094 199.215529 
L 84.752094 197.557983 
L 84.752094 196.641201 
L 85.848276 197.873902 
L 85.848276 197.460349 
L 85.848276 197.421438 
L 87.033552 198.83421 
L 87.033552 198.584272 
L 87.033552 198.522308 
L 89.475698 207.091629 
L 90.49074 205.405306 
L 90.49074 204.962796 
L 90.49074 203.640749 
L 92.918567 206.512366 
L 92.918567 204.788698 
L 92.918567 203.749676 
L 93.990884 206.198182 
L 95.125249 205.375475 
L 98.475046 206.012187 
L 100.80662 217.971809 
L 102.094514 220.413535 
L 103.115919 225.988574 
L 104.372789 227.988375 
L 106.522196 229.343543 
L 107.917481 236.039333 
L 109.969838 236.830912 
L 114.601961 234.12626 
L 115.83258 232.391739 
L 119.246812 237.998963 
L 122.407283 242.235579 
L 123.944165 234.550597 
L 125.079325 240.98122 
L 127.161911 240.384401 
L 130.567392 233.57513 
L 131.705735 230.805265 
L 135.33793 238.346623 
L 138.608974 230.688655 
L 139.861867 235.7319 
L 141.086917 236.669878 
L 143.676229 230.003942 
L 146.738855 234.838964 
L 147.772193 227.888109 
L 148.865193 229.021934 
L 151.444163 231.889025 
L 154.637249 231.889025 
L 155.931507 235.280074 
L 158.127847 235.580069 
L 159.460289 233.305571 
L 162.603259 228.915955 
L 170.590748 235.7319 
L 174.289764 235.280074 
L 179.905109 248.321503 
L 183.276384 253.081679 
L 186.700162 256.472728 
L 194.706742 256.472728 
" clip-path="url(#pc853e7cab5)" style="fill: none; stroke: #882255; stroke-width: 3; stroke-linecap: round"/>
   </g>
   <g id="line2d_6">
    <path d="M 47.2035 229.235721 
L 48.442869 255.127616 
L 49.683034 237.998963 
L 50.350448 255.565266 
L 51.503905 247.158669 
L 52.588949 256.472728 
L 53.755929 243.814648 
L 54.914954 256.472728 
L 54.914954 248.321503 
L 54.914954 245.800455 
L 56.349218 253.081679 
L 57.448582 239.430383 
L 58.367369 251.592942 
L 58.367369 241.597827 
L 58.367369 240.780145 
L 59.614694 240.58122 
L 59.614694 236.194977 
L 59.614694 231.159548 
L 60.626554 236.351934 
L 60.626554 234.12626 
L 60.626554 232.391739 
L 61.900924 224.935503 
L 61.900924 224.18307 
L 61.900924 222.53743 
L 62.892102 218.873405 
L 62.892102 216.614421 
L 62.892102 214.996072 
L 65.693013 200.091982 
L 66.364404 196.603965 
L 66.364404 196.217425 
L 66.364404 196.108444 
L 67.509906 188.178778 
L 67.509906 187.862237 
L 67.509906 186.767514 
L 68.637907 180.013446 
L 68.637907 179.922199 
L 68.637907 179.854055 
L 69.782613 173.979891 
L 69.782613 173.303479 
L 69.782613 173.250414 
L 71.005277 169.187212 
L 71.005277 168.97968 
L 71.005277 168.370629 
L 72.267715 166.10537 
L 72.267715 165.663189 
L 72.267715 165.411181 
L 74.579402 163.185769 
L 74.579402 163.142637 
L 74.579402 162.837424 
L 76.68267 171.324198 
L 76.68267 171.281249 
L 76.68267 171.039728 
L 77.842491 177.775397 
L 77.842491 177.072453 
L 77.842491 176.590663 
L 79.108907 181.939228 
L 79.108907 181.737425 
L 79.108907 180.807676 
L 81.321157 226.538346 
L 82.801559 187.177524 
L 83.651139 187.58532 
L 83.651139 186.592974 
L 83.651139 185.313376 
L 84.752094 187.885501 
L 84.752094 187.312465 
L 84.752094 187.032434 
L 85.848276 187.414317 
L 85.848276 187.380304 
L 85.848276 186.131856 
L 87.033552 188.392839 
L 87.033552 188.166958 
L 87.033552 187.33505 
L 89.475698 191.230052 
L 90.49074 190.332544 
L 90.49074 190.266284 
L 90.49074 189.88656 
L 92.918567 192.20241 
L 92.918567 191.230052 
L 92.918567 190.519339 
L 93.990884 191.008464 
L 95.125249 189.629126 
L 98.475046 192.513269 
L 100.80662 196.715897 
L 102.094514 198.256161 
L 103.115919 203.026503 
L 104.372789 208.946229 
L 106.522196 224.18307 
L 107.917481 225.106927 
L 109.969838 230.22939 
L 114.601961 224.101315 
L 115.83258 224.347667 
L 119.246812 237.157223 
L 122.407283 230.572771 
L 123.944165 234.694221 
L 125.079325 235.280074 
L 127.161911 230.572771 
L 130.567392 224.935503 
L 131.705735 225.719664 
L 135.33793 211.291034 
L 138.608974 204.219869 
L 139.861867 200.159412 
L 141.086917 200.114432 
L 143.676229 219.246647 
L 146.738855 216.451507 
L 147.772193 220.081988 
L 148.865193 222.388038 
L 151.444163 223.538875 
L 154.637249 227.78838 
L 155.931507 229.451994 
L 158.127847 229.343543 
L 159.460289 233.172242 
L 162.603259 235.280074 
L 170.590748 242.020556 
L 174.289764 242.453117 
L 179.905109 245.540321 
L 183.276384 235.429466 
L 186.700162 250.549719 
L 194.706742 248.321503 
" clip-path="url(#pc853e7cab5)" style="fill: none; stroke: #882255; stroke-width: 3; stroke-linecap: round"/>
   </g>
   <g id="line2d_7">
    <path d="M 47.2035 231.765441 
L 48.442869 249.885388 
L 49.683034 244.781061 
L 50.350448 245.800455 
L 51.503905 245.800455 
L 52.588949 239.806138 
L 53.755929 237.82754 
L 54.914954 234.838964 
L 54.914954 234.694221 
L 54.914954 232.519569 
L 56.349218 219.756248 
L 57.448582 212.738848 
L 58.367369 210.805808 
L 58.367369 210.29405 
L 58.367369 209.795996 
L 59.614694 203.886739 
L 59.614694 202.004308 
L 59.614694 201.905111 
L 60.626554 193.907706 
L 60.626554 192.99718 
L 60.626554 192.290698 
L 61.900924 186.163659 
L 61.900924 185.589077 
L 61.900924 184.744425 
L 62.892102 179.487371 
L 62.892102 179.033529 
L 62.892102 178.739378 
L 65.693013 167.709946 
L 66.364404 166.845243 
L 66.364404 166.532455 
L 66.364404 165.680817 
L 67.509906 166.177685 
L 67.509906 166.051318 
L 67.509906 165.536758 
L 68.637907 175.893653 
L 68.637907 175.61478 
L 68.637907 175.121937 
L 69.782613 180.059238 
L 69.782613 179.040762 
L 69.782613 178.4428 
L 71.005277 184.106673 
L 71.005277 182.991396 
L 71.005277 182.724926 
L 72.267715 187.79262 
L 72.267715 186.877439 
L 72.267715 186.767514 
L 74.579402 191.022236 
L 74.579402 189.037824 
L 74.579402 188.902108 
L 76.68267 190.25306 
L 76.68267 189.514433 
L 76.68267 189.350005 
L 77.842491 189.847717 
L 77.842491 189.680329 
L 77.842491 188.853001 
L 79.108907 192.453656 
L 79.108907 191.940034 
L 79.108907 190.425707 
L 81.321157 181.854877 
L 82.801559 191.202208 
L 83.651139 191.709877 
L 83.651139 190.479153 
L 83.651139 190.121336 
L 84.752094 191.383939 
L 84.752094 191.188302 
L 84.752094 190.748713 
L 85.848276 192.438783 
L 85.848276 190.926045 
L 85.848276 190.816717 
L 87.033552 191.553281 
L 87.033552 191.146647 
L 87.033552 191.09125 
L 89.475698 191.867804 
L 90.49074 194.232309 
L 90.49074 192.633072 
L 90.49074 191.867804 
L 92.918567 197.113049 
L 92.918567 196.5112 
L 92.918567 196.072259 
L 93.990884 197.873902 
L 95.125249 198.646442 
L 98.475046 210.646839 
L 100.80662 217.000198 
L 102.094514 225.542527 
L 103.115919 220.683094 
L 104.372789 216.944594 
L 106.522196 227.104865 
L 107.917481 222.992945 
L 109.969838 227.888109 
L 114.601961 230.572771 
L 115.83258 227.492364 
L 119.246812 231.159548 
L 122.407283 230.457605 
L 123.944165 229.670811 
L 125.079325 244.051584 
L 127.161911 237.322551 
L 130.567392 230.688655 
L 131.705735 227.39473 
L 135.33793 218.996988 
L 138.608974 219.183917 
L 139.861867 215.40042 
L 141.086917 214.502694 
L 143.676229 219.05909 
L 146.738855 215.605939 
L 147.772193 215.813755 
L 148.865193 219.627533 
L 151.444163 219.88586 
L 154.637249 221.730234 
L 155.931507 228.190543 
L 158.127847 224.18307 
L 159.460289 223.777841 
L 162.603259 234.550597 
L 170.590748 240.58122 
L 174.289764 242.235579 
L 179.905109 237.82754 
L 183.276384 243.349641 
L 186.700162 236.993352 
L 194.706742 248.623937 
" clip-path="url(#pc853e7cab5)" style="fill: none; stroke: #882255; stroke-width: 3; stroke-linecap: round"/>
   </g>
   <g id="line2d_8">
    <path d="M 47.2035 235.630542 
L 48.442869 250.437336 
L 49.683034 231.52071 
L 50.350448 224.292639 
L 51.503905 217.130589 
L 52.588949 206.993824 
L 53.755929 196.114482 
L 54.914954 187.805493 
L 56.349218 176.916918 
L 57.448582 180.489552 
L 58.367369 187.645225 
L 59.614694 197.34386 
L 60.626554 198.056227 
L 61.900924 199.626699 
L 62.892102 198.951069 
L 65.693013 204.03406 
L 66.364404 204.486316 
L 67.509906 208.714931 
L 68.637907 213.964165 
L 69.782613 216.355634 
L 71.005277 218.207994 
L 72.267715 225.898505 
L 74.579402 231.75176 
L 76.68267 232.377589 
L 77.842491 236.652071 
L 79.108907 245.002814 
L 81.321157 256.472728 
L 82.801559 256.472728 
L 83.651139 255.369482 
L 84.752094 255.663936 
L 85.848276 254.328029 
L 87.033552 253.738965 
L 89.475698 256.472728 
L 90.49074 253.694416 
L 92.918567 255.175738 
L 93.990884 256.472728 
L 95.125249 255.272358 
L 98.475046 256.472728 
L 100.80662 256.472728 
L 102.094514 256.013463 
L 103.115919 250.214587 
L 104.372789 256.472728 
L 106.522196 256.472728 
L 107.917481 255.862861 
L 109.969838 256.472728 
L 114.601961 252.825133 
L 115.83258 256.013463 
L 119.246812 256.472728 
L 122.407283 254.559655 
L 123.944165 256.472728 
L 125.079325 255.862861 
L 127.161911 256.472728 
L 130.567392 255.272358 
L 131.705735 256.472728 
L 135.33793 254.700027 
L 138.608974 256.472728 
L 139.861867 256.013463 
L 141.086917 255.272358 
L 143.676229 256.472728 
L 146.738855 256.472728 
L 147.772193 254.144784 
L 148.865193 256.013463 
L 151.444163 253.738965 
L 154.637249 255.272358 
L 155.931507 256.472728 
L 158.127847 256.472728 
L 159.460289 256.013463 
L 162.603259 256.472728 
L 170.590748 256.472728 
L 174.289764 256.472728 
L 179.905109 256.013463 
L 183.276384 250.325628 
L 186.700162 256.472728 
L 194.706742 256.472728 
" clip-path="url(#pc853e7cab5)" style="fill: none; stroke: #000000; stroke-linecap: round"/>
   </g>
   <g id="patch_6">
    <path d="M 47.2035 261.823406 
L 47.2035 153.777547 
" style="fill: none; stroke: #262626; stroke-linejoin: miter; stroke-linecap: square"/>
   </g>
   <g id="patch_7">
    <path d="M 47.2035 261.823406 
L 207.57375 261.823406 
" style="fill: none; stroke: #262626; stroke-linejoin: miter; stroke-linecap: square"/>
   </g>
   <g id="text_10">
    <text style="fill: #262626; font: 9.6px 'Arial', 'DejaVu Sans', 'Liberation Sans', 'Bitstream Vera Sans', sans-serif; text-anchor: middle" x="127.388625" y="148.777547" transform="rotate(-0 127.388625 148.777547)">Pseudoalteromonas haloplanktis</text>
   </g>
  </g>
  <g id="axes_3">
   <g id="patch_8">
    <path d="M 47.2035 396.529453 
L 207.57375 396.529453 
L 207.57375 288.483594 
L 47.2035 288.483594 
L 47.2035 396.529453 
z
" style="fill: none"/>
   </g>
   <g id="matplotlib.axis_5">
    <g id="xtick_7"/>
    <g id="xtick_8"/>
    <g id="xtick_9"/>
   </g>
   <g id="matplotlib.axis_6">
    <g id="ytick_53">
     <g id="text_11">
      <!-- $\mathdefault{10^{-1}}$ -->
      <g style="fill: #262626" transform="translate(20.9795 377.799429)">
       <text>
        <tspan style="font: 8.8px 'Arial'" x="0 4.892395" y="-0.4372624999999992">10</tspan>
        <tspan style="font: 6.16px 'Arial'" x="9.938116 13.534183" y="-6.570312499999999">−1</tspan>
       </text>
      </g>
     </g>
    </g>
    <g id="ytick_54">
     <g id="text_12">
      <!-- $\mathdefault{10^{0}}$ -->
      <g style="fill: #262626" transform="translate(24.5875 334.973012)">
       <text>
        <tspan style="font: 8.8px 'Arial'" x="0 4.892395" y="-0.4372624999999992">10</tspan>
        <tspan style="font: 6.16px 'Arial'" x="9.938116" y="-6.570312499999999">0</tspan>
       </text>
      </g>
     </g>
    </g>
    <g id="ytick_55">
     <g id="text_13">
      <!-- $\mathdefault{10^{1}}$ -->
      <g style="fill: #262626" transform="translate(24.5875 292.146594)">
       <text>
        <tspan style="font: 8.8px 'Arial'" x="0 4.892395" y="-0.4372624999999992">10</tspan>
        <tspan style="font: 6.16px 'Arial'" x="9.938116" y="-6.570312499999999">1</tspan>
       </text>
      </g>
     </g>
    </g>
    <g id="ytick_56"/>
    <g id="ytick_57"/>
    <g id="ytick_58"/>
    <g id="ytick_59"/>
    <g id="ytick_60"/>
    <g id="ytick_61"/>
    <g id="ytick_62"/>
    <g id="ytick_63"/>
    <g id="ytick_64"/>
    <g id="ytick_65"/>
    <g id="ytick_66"/>
    <g id="ytick_67"/>
    <g id="ytick_68"/>
    <g id="ytick_69"/>
    <g id="ytick_70"/>
    <g id="ytick_71"/>
    <g id="ytick_72"/>
    <g id="ytick_73"/>
    <g id="ytick_74"/>
    <g id="ytick_75"/>
    <g id="ytick_76"/>
    <g id="ytick_77"/>
    <g id="ytick_78"/>
    <g id="text_14">
     <text style="fill: #262626; font: 9.6px 'Arial', 'DejaVu Sans', 'Liberation Sans', 'Bitstream Vera Sans', sans-serif; text-anchor: middle" x="14.0715" y="342.506523" transform="rotate(-90 14.0715 342.506523)">Fluorescence</text>
    </g>
   </g>
   <g id="line2d_9">
    <path d="M 47.2035 378.286738 
L 48.442869 381.864716 
L 49.683034 372.028598 
L 50.350448 367.614465 
L 51.503905 365.865595 
L 52.588949 356.872222 
L 53.755929 350.415604 
L 54.914954 348.492377 
L 54.914954 347.938511 
L 54.914954 346.964041 
L 56.349218 346.621975 
L 57.448582 338.814208 
L 58.367369 342.943646 
L 58.367369 340.656647 
L 58.367369 339.523649 
L 59.614694 349.652188 
L 59.614694 348.029685 
L 59.614694 347.712515 
L 60.626554 350.260393 
L 60.626554 349.702119 
L 60.626554 348.305917 
L 61.900924 346.203055 
L 61.900924 344.239284 
L 61.900924 342.565109 
L 62.892102 346.792222 
L 62.892102 344.388977 
L 62.892102 341.961837 
L 65.693013 345.352886 
L 66.364404 350.05544 
L 66.364404 349.802385 
L 66.364404 348.445586 
L 67.509906 350.624586 
L 67.509906 348.633459 
L 67.509906 348.445586 
L 68.637907 348.680726 
L 68.637907 348.075439 
L 68.637907 348.029685 
L 69.782613 351.986782 
L 69.782613 350.46763 
L 69.782613 350.208943 
L 71.005277 351.049731 
L 71.005277 348.352357 
L 71.005277 345.432201 
L 72.267715 350.157634 
L 72.267715 348.167288 
L 72.267715 347.444895 
L 74.579402 350.208943 
L 74.579402 349.503194 
L 74.579402 348.305917 
L 76.68267 351.650641 
L 76.68267 350.519801 
L 76.68267 347.847783 
L 77.842491 351.484822 
L 77.842491 349.802385 
L 77.842491 346.877933 
L 79.108907 348.213383 
L 79.108907 345.833928 
L 79.108907 345.752886 
L 81.321157 347.181071 
L 82.801559 352.271616 
L 83.651139 350.260393 
L 83.651139 348.918876 
L 83.651139 348.586313 
L 84.752094 349.111616 
L 84.752094 347.757495 
L 84.752094 346.877933 
L 85.848276 350.835944 
L 85.848276 349.752185 
L 85.848276 349.257494 
L 87.033552 350.889161 
L 87.033552 345.915326 
L 87.033552 345.392501 
L 89.475698 346.706904 
L 90.49074 344.351441 
L 90.49074 343.7973 
L 90.49074 343.7973 
L 92.918567 349.355385 
L 92.918567 347.050549 
L 92.918567 346.244525 
L 93.990884 345.672195 
L 95.125249 348.075439 
L 98.475046 348.728112 
L 100.80662 348.77562 
L 102.094514 352.973558 
L 103.115919 350.311986 
L 104.372789 349.752185 
L 106.522196 347.050549 
L 107.917481 348.539286 
L 109.969838 351.986782 
L 114.601961 355.80095 
L 115.83258 359.053714 
L 119.246812 350.729965 
L 122.407283 357.622294 
L 123.944165 355.80095 
L 125.079325 358.725965 
L 127.161911 358.644922 
L 130.567392 355.253873 
L 131.705735 357.776008 
L 135.33793 365.163652 
L 138.608974 360.248574 
L 139.861867 358.483888 
L 141.086917 367.614465 
L 143.676229 368.011618 
L 146.738855 357.168631 
L 147.772193 361.431322 
L 148.865193 361.431322 
L 151.444163 358.008987 
L 154.637249 352.677856 
L 155.931507 352.043401 
L 158.127847 352.502665 
L 159.460289 353.033267 
L 162.603259 354.142162 
L 170.590748 358.165944 
L 174.289764 354.205749 
L 179.905109 350.889161 
L 183.276384 353.334721 
L 186.700162 359.64155 
L 194.706742 379.487108 
" clip-path="url(#pc028aa8ea5)" style="fill: none; stroke: #cc6677; stroke-width: 3; stroke-linecap: round"/>
   </g>
   <g id="line2d_10">
    <path d="M 47.2035 370.437947 
L 48.442869 388.988095 
L 49.683034 371.375925 
L 50.350448 378.286738 
L 51.503905 362.003653 
L 52.588949 356.945882 
L 53.755929 349.552727 
L 54.914954 348.871001 
L 54.914954 346.621975 
L 54.914954 345.833928 
L 56.349218 350.835944 
L 57.448582 350.004553 
L 58.367369 351.157553 
L 58.367369 348.633459 
L 58.367369 346.920937 
L 59.614694 355.731679 
L 59.614694 355.389141 
L 59.614694 353.153263 
L 60.626554 355.253873 
L 60.626554 354.722429 
L 60.626554 353.827446 
L 61.900924 356.010325 
L 61.900924 355.457146 
L 61.900924 354.919945 
L 62.892102 354.657053 
L 62.892102 353.456684 
L 62.892102 352.444633 
L 65.693013 354.142162 
L 66.364404 358.165944 
L 66.364404 357.46984 
L 66.364404 356.945882 
L 67.509906 361.337623 
L 67.509906 358.008987 
L 67.509906 357.931003 
L 68.637907 357.853344 
L 68.637907 357.622294 
L 68.637907 356.010325 
L 69.782613 359.727064 
L 69.782613 356.72577 
L 69.782613 356.508232 
L 71.005277 359.812973 
L 71.005277 359.727064 
L 71.005277 358.165944 
L 72.267715 363.30764 
L 72.267715 359.64155 
L 72.267715 355.457146 
L 74.579402 358.564231 
L 74.579402 354.526988 
L 74.579402 352.329109 
L 76.68267 357.168631 
L 76.68267 354.986253 
L 76.68267 351.2117 
L 77.842491 352.619276 
L 77.842491 352.271616 
L 77.842491 351.762014 
L 79.108907 355.80095 
L 79.108907 352.214299 
L 79.108907 351.595204 
L 81.321157 356.580462 
L 82.801559 360.967476 
L 83.651139 359.387342 
L 83.651139 358.807362 
L 83.651139 357.019836 
L 84.752094 356.872222 
L 84.752094 356.580462 
L 84.752094 355.389141 
L 85.848276 355.119582 
L 85.848276 354.397826 
L 85.848276 353.395602 
L 87.033552 353.517966 
L 87.033552 352.560879 
L 87.033552 352.271616 
L 89.475698 361.620149 
L 90.49074 355.662665 
L 90.49074 354.269554 
L 90.49074 350.05544 
L 92.918567 360.876079 
L 92.918567 355.593906 
L 92.918567 352.854713 
L 93.990884 355.119582 
L 95.125249 358.324237 
L 98.475046 360.876079 
L 100.80662 364.04959 
L 102.094514 362.896589 
L 103.115919 363.834567 
L 104.372789 361.715286 
L 106.522196 359.899281 
L 107.917481 365.049194 
L 109.969838 370.286116 
L 114.601961 364.267128 
L 115.83258 366.719482 
L 119.246812 364.376858 
L 122.407283 365.865595 
L 123.944165 369.545011 
L 125.079325 375.287267 
L 127.161911 365.394702 
L 130.567392 365.746749 
L 131.705735 364.267128 
L 135.33793 375.89054 
L 138.608974 366.105589 
L 139.861867 369.11412 
L 141.086917 369.837919 
L 143.676229 373.228968 
L 146.738855 372.70501 
L 147.772193 369.256644 
L 148.865193 368.832307 
L 151.444163 367.745909 
L 154.637249 367.745909 
L 155.931507 365.049194 
L 158.127847 363.516623 
L 159.460289 367.878289 
L 162.603259 365.163652 
L 170.590748 368.692986 
L 174.289764 381.309473 
L 179.905109 368.417436 
L 183.276384 372.70501 
L 186.700162 368.832307 
L 194.706742 376.941626 
" clip-path="url(#pc028aa8ea5)" style="fill: none; stroke: #cc6677; stroke-width: 3; stroke-linecap: round"/>
   </g>
   <g id="line2d_11">
    <path d="M 47.2035 377.159164 
L 48.442869 391.178775 
L 49.683034 374.323358 
L 50.350448 366.970827 
L 51.503905 366.226757 
L 52.588949 358.725965 
L 53.755929 352.502665 
L 54.914954 355.731679 
L 54.914954 352.214299 
L 54.914954 348.871001 
L 56.349218 355.5254 
L 57.448582 349.257494 
L 58.367369 349.652188 
L 58.367369 347.268597 
L 58.367369 346.835028 
L 59.614694 353.889964 
L 59.614694 349.257494 
L 59.614694 349.014996 
L 60.626554 353.395602 
L 60.626554 352.973558 
L 60.626554 351.650641 
L 61.900924 356.222084 
L 61.900924 353.456684 
L 61.900924 351.595204 
L 62.892102 356.436281 
L 62.892102 353.093168 
L 62.892102 351.266004 
L 65.693013 355.662665 
L 66.364404 363.100979 
L 66.364404 357.622294 
L 66.364404 353.334721 
L 67.509906 360.073107 
L 67.509906 359.21978 
L 67.509906 355.80095 
L 68.637907 359.899281 
L 68.637907 358.244922 
L 68.637907 357.243477 
L 69.782613 358.971234 
L 69.782613 357.394079 
L 69.782613 355.80095 
L 71.005277 361.337623 
L 71.005277 358.807362 
L 71.005277 357.243477 
L 72.267715 359.303372 
L 72.267715 358.889117 
L 72.267715 355.119582 
L 74.579402 358.807362 
L 74.579402 355.80095 
L 74.579402 354.142162 
L 76.68267 356.508232 
L 76.68267 354.142162 
L 76.68267 354.015636 
L 77.842491 354.986253 
L 77.842491 353.033267 
L 77.842491 351.874059 
L 79.108907 351.375091 
L 79.108907 350.311986 
L 79.108907 349.953805 
L 81.321157 354.986253 
L 82.801559 358.483888 
L 83.651139 356.945882 
L 83.651139 356.872222 
L 83.651139 351.986782 
L 84.752094 352.677856 
L 84.752094 352.271616 
L 84.752094 349.160115 
L 85.848276 354.462295 
L 85.848276 353.579452 
L 85.848276 349.652188 
L 87.033552 352.560879 
L 87.033552 350.05544 
L 87.033552 349.503194 
L 89.475698 351.817952 
L 90.49074 351.375091 
L 90.49074 349.802385 
L 90.49074 349.063244 
L 92.918567 352.795573 
L 92.918567 348.680726 
L 92.918567 348.492377 
L 93.990884 352.329109 
L 95.125249 350.889161 
L 98.475046 354.397826 
L 100.80662 358.008987 
L 102.094514 357.853344 
L 103.115919 360.785128 
L 104.372789 357.019836 
L 106.522196 358.0873 
L 107.917481 361.059324 
L 109.969838 361.620149 
L 114.601961 365.628658 
L 115.83258 363.516623 
L 119.246812 363.100979 
L 122.407283 369.986121 
L 123.944165 366.84473 
L 125.079325 367.878289 
L 127.161911 370.901024 
L 130.567392 367.483943 
L 131.705735 368.692986 
L 135.33793 365.163652 
L 138.608974 367.483943 
L 139.861867 365.394702 
L 141.086917 375.287267 
L 143.676229 363.941768 
L 146.738855 374.136429 
L 147.772193 369.400268 
L 148.865193 365.865595 
L 151.444163 370.74538 
L 154.637249 366.34872 
L 155.931507 363.941768 
L 158.127847 369.545011 
L 159.460289 362.296561 
L 162.603259 367.878289 
L 170.590748 368.554701 
L 174.289764 372.195409 
L 179.905109 374.895689 
L 183.276384 378.055688 
L 186.700162 382.437047 
L 194.706742 380.506502 
" clip-path="url(#pc028aa8ea5)" style="fill: none; stroke: #cc6677; stroke-width: 3; stroke-linecap: round"/>
   </g>
   <g id="line2d_12">
    <path d="M 47.2035 370.336589 
L 48.442869 385.143383 
L 49.683034 366.226757 
L 50.350448 358.998686 
L 51.503905 351.836635 
L 52.588949 341.699871 
L 53.755929 330.820529 
L 54.914954 322.511539 
L 56.349218 311.622965 
L 57.448582 315.195599 
L 58.367369 322.351272 
L 59.614694 332.049907 
L 60.626554 332.762274 
L 61.900924 334.332746 
L 62.892102 333.657116 
L 65.693013 338.740107 
L 66.364404 339.192363 
L 67.509906 343.420978 
L 68.637907 348.670212 
L 69.782613 351.061681 
L 71.005277 352.914041 
L 72.267715 360.604551 
L 74.579402 366.457807 
L 76.68267 367.083636 
L 77.842491 371.358118 
L 79.108907 379.708861 
L 81.321157 391.178775 
L 82.801559 391.178775 
L 83.651139 390.075529 
L 84.752094 390.369983 
L 85.848276 389.034076 
L 87.033552 388.445012 
L 89.475698 391.178775 
L 90.49074 388.400463 
L 92.918567 389.881785 
L 93.990884 391.178775 
L 95.125249 389.978405 
L 98.475046 391.178775 
L 100.80662 391.178775 
L 102.094514 390.71951 
L 103.115919 384.920634 
L 104.372789 391.178775 
L 106.522196 391.178775 
L 107.917481 390.568908 
L 109.969838 391.178775 
L 114.601961 387.53118 
L 115.83258 390.71951 
L 119.246812 391.178775 
L 122.407283 389.265702 
L 123.944165 391.178775 
L 125.079325 390.568908 
L 127.161911 391.178775 
L 130.567392 389.978405 
L 131.705735 391.178775 
L 135.33793 389.406074 
L 138.608974 391.178775 
L 139.861867 390.71951 
L 141.086917 389.978405 
L 143.676229 391.178775 
L 146.738855 391.178775 
L 147.772193 388.850831 
L 148.865193 390.71951 
L 151.444163 388.445012 
L 154.637249 389.978405 
L 155.931507 391.178775 
L 158.127847 391.178775 
L 159.460289 390.71951 
L 162.603259 391.178775 
L 170.590748 391.178775 
L 174.289764 391.178775 
L 179.905109 390.71951 
L 183.276384 385.031675 
L 186.700162 391.178775 
L 194.706742 391.178775 
" clip-path="url(#pc028aa8ea5)" style="fill: none; stroke: #000000; stroke-linecap: round"/>
   </g>
   <g id="patch_9">
    <path d="M 47.2035 396.529453 
L 47.2035 288.483594 
" style="fill: none; stroke: #262626; stroke-linejoin: miter; stroke-linecap: square"/>
   </g>
   <g id="patch_10">
    <path d="M 47.2035 396.529453 
L 207.57375 396.529453 
" style="fill: none; stroke: #262626; stroke-linejoin: miter; stroke-linecap: square"/>
   </g>
   <g id="text_15">
    <text style="fill: #262626; font: 9.6px 'Arial', 'DejaVu Sans', 'Liberation Sans', 'Bitstream Vera Sans', sans-serif; text-anchor: middle" x="127.388625" y="283.483594" transform="rotate(-0 127.388625 283.483594)">Sulfitobacter pseudonitzschiae</text>
   </g>
  </g>
  <g id="axes_4">
   <g id="patch_11">
    <path d="M 47.2035 531.2355 
L 207.57375 531.2355 
L 207.57375 423.189641 
L 47.2035 423.189641 
L 47.2035 531.2355 
z
" style="fill: none"/>
   </g>
   <g id="matplotlib.axis_7">
    <g id="xtick_10">
     <g id="text_16">
      <text style="fill: #262626; font: 8.8px 'Arial', 'DejaVu Sans', 'Liberation Sans', 'Bitstream Vera Sans', sans-serif; text-anchor: middle" x="47.2035" y="546.334375" transform="rotate(-0 47.2035 546.334375)">0</text>
     </g>
    </g>
    <g id="xtick_11">
     <g id="text_17">
      <text style="fill: #262626; font: 8.8px 'Arial', 'DejaVu Sans', 'Liberation Sans', 'Bitstream Vera Sans', sans-serif; text-anchor: middle" x="115.933607" y="546.334375" transform="rotate(-0 115.933607 546.334375)">60</text>
     </g>
    </g>
    <g id="xtick_12">
     <g id="text_18">
      <text style="fill: #262626; font: 8.8px 'Arial', 'DejaVu Sans', 'Liberation Sans', 'Bitstream Vera Sans', sans-serif; text-anchor: middle" x="184.663714" y="546.334375" transform="rotate(-0 184.663714 546.334375)">120</text>
     </g>
    </g>
    <g id="text_19">
     <text style="fill: #262626; font: 9.6px 'Arial', 'DejaVu Sans', 'Liberation Sans', 'Bitstream Vera Sans', sans-serif; text-anchor: middle" x="127.388625" y="559.954875" transform="rotate(-0 127.388625 559.954875)">day</text>
    </g>
   </g>
   <g id="matplotlib.axis_8">
    <g id="ytick_79">
     <g id="text_20">
      <!-- $\mathdefault{10^{-1}}$ -->
      <g style="fill: #262626" transform="translate(20.9795 512.505476)">
       <text>
        <tspan style="font: 8.8px 'Arial'" x="0 4.892395" y="-0.4372624999999992">10</tspan>
        <tspan style="font: 6.16px 'Arial'" x="9.938116 13.534183" y="-6.570312499999999">−1</tspan>
       </text>
      </g>
     </g>
    </g>
    <g id="ytick_80">
     <g id="text_21">
      <!-- $\mathdefault{10^{0}}$ -->
      <g style="fill: #262626" transform="translate(24.5875 469.679058)">
       <text>
        <tspan style="font: 8.8px 'Arial'" x="0 4.892395" y="-0.4372624999999992">10</tspan>
        <tspan style="font: 6.16px 'Arial'" x="9.938116" y="-6.570312499999999">0</tspan>
       </text>
      </g>
     </g>
    </g>
    <g id="ytick_81">
     <g id="text_22">
      <!-- $\mathdefault{10^{1}}$ -->
      <g style="fill: #262626" transform="translate(24.5875 426.852641)">
       <text>
        <tspan style="font: 8.8px 'Arial'" x="0 4.892395" y="-0.4372624999999992">10</tspan>
        <tspan style="font: 6.16px 'Arial'" x="9.938116" y="-6.570312499999999">1</tspan>
       </text>
      </g>
     </g>
    </g>
    <g id="ytick_82"/>
    <g id="ytick_83"/>
    <g id="ytick_84"/>
    <g id="ytick_85"/>
    <g id="ytick_86"/>
    <g id="ytick_87"/>
    <g id="ytick_88"/>
    <g id="ytick_89"/>
    <g id="ytick_90"/>
    <g id="ytick_91"/>
    <g id="ytick_92"/>
    <g id="ytick_93"/>
    <g id="ytick_94"/>
    <g id="ytick_95"/>
    <g id="ytick_96"/>
    <g id="ytick_97"/>
    <g id="ytick_98"/>
    <g id="ytick_99"/>
    <g id="ytick_100"/>
    <g id="ytick_101"/>
    <g id="ytick_102"/>
    <g id="ytick_103"/>
    <g id="ytick_104"/>
    <g id="text_23">
     <text style="fill: #262626; font: 9.6px 'Arial', 'DejaVu Sans', 'Liberation Sans', 'Bitstream Vera Sans', sans-serif; text-anchor: middle" x="14.0715" y="477.21257" transform="rotate(-90 14.0715 477.21257)">Fluorescence</text>
    </g>
   </g>
   <g id="line2d_13">
    <path d="M 47.2035 512.085323 
L 48.442869 525.884821 
L 49.683034 497.70455 
L 50.350448 500.452796 
L 51.503905 485.018033 
L 52.588949 479.706143 
L 53.755929 474.171934 
L 54.914954 477.476675 
L 54.914954 476.667884 
L 54.914954 475.735313 
L 56.349218 483.058404 
L 57.448582 489.95992 
L 58.367369 495.857675 
L 58.367369 494.605328 
L 58.367369 491.800131 
L 59.614694 495.95044 
L 59.614694 495.582125 
L 59.614694 490.437726 
L 60.626554 496.7097 
L 60.626554 496.326196 
L 60.626554 493.432012 
L 61.900924 497.200474 
L 61.900924 496.904458 
L 61.900924 496.421333 
L 62.892102 494.433111 
L 62.892102 494.347597 
L 62.892102 491.725883 
L 65.693013 497.501278 
L 66.364404 504.396935 
L 66.364404 503.260748 
L 66.364404 499.416035 
L 67.509906 500.217359 
L 67.509906 498.013687 
L 67.509906 495.042978 
L 68.637907 498.864088 
L 68.637907 498.434027 
L 68.637907 496.326196 
L 69.782613 501.054767 
L 69.782613 500.691252 
L 69.782613 500.691252 
L 71.005277 498.864088 
L 71.005277 497.807026 
L 71.005277 496.421333 
L 72.267715 500.217359 
L 72.267715 499.869699 
L 72.267715 498.434027 
L 74.579402 495.857675 
L 74.579402 495.673523 
L 74.579402 494.51902 
L 76.68267 494.347597 
L 76.68267 490.999256 
L 76.68267 488.975601 
L 77.842491 494.86668 
L 77.842491 494.347597 
L 77.842491 493.270278 
L 79.108907 498.117885 
L 79.108907 496.806824 
L 79.108907 494.17774 
L 81.321157 504.692168 
L 82.801559 502.451956 
L 83.651139 503.962691 
L 83.651139 501.550777 
L 83.651139 499.984865 
L 84.752094 499.304328 
L 84.752094 498.540614 
L 84.752094 497.002608 
L 85.848276 502.987224 
L 85.848276 500.811636 
L 85.848276 497.400468 
L 87.033552 498.973175 
L 87.033552 496.7097 
L 87.033552 495.042978 
L 89.475698 512.085323 
L 90.49074 506.734645 
L 90.49074 504.251057 
L 90.49074 498.540614 
L 92.918567 497.602636 
L 92.918567 495.042978 
L 92.918567 493.842608 
L 93.990884 494.009419 
L 95.125249 496.61308 
L 98.475046 498.647814 
L 100.80662 493.595164 
L 102.094514 501.676874 
L 103.115919 503.399033 
L 104.372789 497.602636 
L 106.522196 500.932804 
L 107.917481 495.491175 
L 109.969838 502.584336 
L 114.601961 509.408996 
L 115.83258 502.717665 
L 119.246812 503.678727 
L 122.407283 513.703672 
L 123.944165 510.802106 
L 125.079325 504.543965 
L 127.161911 502.987224 
L 130.567392 504.992162 
L 131.705735 508.657407 
L 135.33793 509.796495 
L 138.608974 504.543965 
L 139.861867 512.308072 
L 141.086917 503.123483 
L 143.676229 497.70455 
L 146.738855 508.657407 
L 147.772193 503.820167 
L 148.865193 514.952414 
L 151.444163 500.932804 
L 154.637249 509.029405 
L 155.931507 504.992162 
L 158.127847 508.842476 
L 159.460289 510.393314 
L 162.603259 507.584074 
L 170.590748 506.405445 
L 174.289764 500.811636 
L 179.905109 509.796495 
L 183.276384 509.029405 
L 186.700162 509.993314 
L 194.706742 508.842476 
" clip-path="url(#p872e8d0d98)" style="fill: none; stroke: #cc6677; stroke-width: 3; stroke-linecap: round"/>
   </g>
   <g id="line2d_14">
    <path d="M 47.2035 506.734645 
L 48.442869 524.539709 
L 49.683034 507.935015 
L 50.350448 499.528418 
L 51.503905 486.863205 
L 52.588949 480.178032 
L 53.755929 473.857411 
L 54.914954 475.92446 
L 54.914954 473.772547 
L 54.914954 472.917575 
L 56.349218 484.061432 
L 57.448582 491.431817 
L 58.367369 491.651929 
L 58.367369 489.297954 
L 58.367369 486.412291 
L 59.614694 492.251958 
L 59.614694 491.504898 
L 59.614694 488.471183 
L 60.626554 495.400668 
L 60.626554 494.605328 
L 60.626554 494.093389 
L 61.900924 496.231543 
L 61.900924 495.765371 
L 61.900924 491.725883 
L 62.892102 495.042978 
L 62.892102 494.86668 
L 62.892102 494.51902 
L 65.693013 495.582125 
L 66.364404 506.569317 
L 66.364404 500.932804 
L 66.364404 493.030284 
L 67.509906 503.538354 
L 67.509906 498.22267 
L 67.509906 494.95462 
L 68.637907 505.764027 
L 68.637907 500.571642 
L 68.637907 498.22267 
L 69.782613 499.984865 
L 69.782613 499.528418 
L 69.782613 495.95044 
L 71.005277 499.193287 
L 71.005277 495.582125 
L 71.005277 494.86668 
L 72.267715 497.70455 
L 72.267715 497.101278 
L 72.267715 495.310598 
L 74.579402 499.304328 
L 74.579402 496.61308 
L 74.579402 493.759761 
L 76.68267 497.200474 
L 76.68267 495.582125 
L 76.68267 494.093389 
L 77.842491 502.851956 
L 77.842491 499.193287 
L 77.842491 494.009419 
L 79.108907 501.177535 
L 79.108907 501.054767 
L 79.108907 498.647814 
L 81.321157 505.297075 
L 82.801559 513.946803 
L 83.651139 506.569317 
L 83.651139 504.84156 
L 83.651139 503.399033 
L 84.752094 506.243005 
L 84.752094 504.692168 
L 84.752094 502.060378 
L 85.848276 511.647673 
L 85.848276 507.935015 
L 85.848276 504.992162 
L 87.033552 500.932804 
L 87.033552 499.869699 
L 87.033552 498.434027 
L 89.475698 506.734645 
L 90.49074 503.820167 
L 90.49074 502.18999 
L 90.49074 500.811636 
L 92.918567 504.84156 
L 92.918567 502.851956 
L 92.918567 500.452796 
L 93.990884 500.691252 
L 95.125249 497.400468 
L 98.475046 501.054767 
L 100.80662 505.143994 
L 102.094514 503.678727 
L 103.115919 496.326196 
L 104.372789 503.260748 
L 106.522196 500.217359 
L 107.917481 500.691252 
L 109.969838 496.516959 
L 114.601961 502.851956 
L 115.83258 503.399033 
L 119.246812 513.946803 
L 122.407283 508.842476 
L 123.944165 512.761735 
L 125.079325 515.743993 
L 127.161911 509.601736 
L 130.567392 509.796495 
L 131.705735 507.935015 
L 135.33793 507.935015 
L 138.608974 510.596587 
L 139.861867 505.297075 
L 141.086917 508.292704 
L 143.676229 506.081972 
L 146.738855 513.946803 
L 147.772193 514.952414 
L 148.865193 513.946803 
L 151.444163 497.910069 
L 154.637249 510.802106 
L 155.931507 506.243005 
L 158.127847 504.106315 
L 159.460289 510.393314 
L 162.603259 502.320512 
L 170.590748 507.239634 
L 174.289764 512.761735 
L 179.905109 508.657407 
L 183.276384 499.755241 
L 186.700162 502.987224 
L 194.706742 506.569317 
" clip-path="url(#p872e8d0d98)" style="fill: none; stroke: #cc6677; stroke-width: 3; stroke-linecap: round"/>
   </g>
   <g id="line2d_15">
    <path d="M 47.2035 505.764027 
L 48.442869 521.366198 
L 49.683034 508.842476 
L 50.350448 499.984865 
L 51.503905 488.347188 
L 52.588949 479.667354 
L 53.755929 470.63726 
L 54.914954 478.723026 
L 54.914954 476.11555 
L 54.914954 474.817399 
L 56.349218 486.749448 
L 57.448582 489.95992 
L 58.367369 492.715034 
L 58.367369 492.100126 
L 58.367369 492.024673 
L 59.614694 494.433111 
L 59.614694 490.78669 
L 59.614694 489.55992 
L 60.626554 493.513409 
L 60.626554 491.142328 
L 60.626554 490.231447 
L 61.900924 495.310598 
L 61.900924 494.17774 
L 61.900924 491.949524 
L 62.892102 497.101278 
L 62.892102 496.904458 
L 62.892102 490.999256 
L 65.693013 493.925827 
L 66.364404 499.984865 
L 66.364404 499.528418 
L 66.364404 493.925827 
L 67.509906 499.528418 
L 67.509906 499.416035 
L 67.509906 498.328048 
L 68.637907 501.676874 
L 68.637907 500.100749 
L 68.637907 500.100749 
L 69.782613 496.7097 
L 69.782613 495.400668 
L 69.782613 494.51902 
L 71.005277 501.177535 
L 71.005277 498.22267 
L 71.005277 495.765371 
L 72.267715 502.060378 
L 72.267715 498.540614 
L 72.267715 498.540614 
L 74.579402 501.054767 
L 74.579402 494.17774 
L 74.579402 494.009419 
L 76.68267 499.755241 
L 76.68267 496.7097 
L 76.68267 493.109938 
L 77.842491 495.220963 
L 77.842491 494.86668 
L 77.842491 493.759761 
L 79.108907 499.304328 
L 79.108907 496.806824 
L 79.108907 496.137369 
L 81.321157 494.692038 
L 82.801559 522.110268 
L 83.651139 501.550777 
L 83.651139 499.984865 
L 83.651139 499.304328 
L 84.752094 508.474162 
L 84.752094 507.584074 
L 84.752094 504.84156 
L 85.848276 508.474162 
L 85.848276 503.538354 
L 85.848276 502.18999 
L 87.033552 505.607071 
L 87.033552 500.100749 
L 87.033552 499.082905 
L 89.475698 504.84156 
L 90.49074 502.451956 
L 90.49074 500.811636 
L 90.49074 499.984865 
L 92.918567 502.060378 
L 92.918567 500.452796 
L 92.918567 498.864088 
L 93.990884 496.326196 
L 95.125249 497.300202 
L 98.475046 499.082905 
L 100.80662 502.451956 
L 102.094514 499.528418 
L 103.115919 497.501278 
L 104.372789 498.013687 
L 106.522196 502.060378 
L 107.917481 498.755637 
L 109.969838 508.292704 
L 114.601961 502.060378 
L 115.83258 499.193287 
L 119.246812 511.009921 
L 122.407283 506.405445 
L 123.944165 508.112999 
L 125.079325 506.734645 
L 127.161911 512.53352 
L 130.567392 516.29107 
L 131.705735 505.143994 
L 135.33793 514.952414 
L 138.608974 506.405445 
L 139.861867 510.393314 
L 141.086917 503.260748 
L 143.676229 504.84156 
L 146.738855 503.538354 
L 147.772193 504.692168 
L 148.865193 514.193155 
L 151.444163 506.734645 
L 154.637249 508.842476 
L 155.931507 505.451427 
L 158.127847 506.405445 
L 159.460289 505.92232 
L 162.603259 506.081972 
L 170.590748 504.84156 
L 174.289764 509.408996 
L 179.905109 498.864088 
L 183.276384 504.251057 
L 186.700162 511.220085 
L 194.706742 507.239634 
" clip-path="url(#p872e8d0d98)" style="fill: none; stroke: #cc6677; stroke-width: 3; stroke-linecap: round"/>
   </g>
   <g id="line2d_16">
    <path d="M 47.2035 505.042635 
L 48.442869 519.84943 
L 49.683034 500.932804 
L 50.350448 493.704733 
L 51.503905 486.542682 
L 52.588949 476.405918 
L 53.755929 465.526576 
L 54.914954 457.217586 
L 56.349218 446.329012 
L 57.448582 449.901646 
L 58.367369 457.057319 
L 59.614694 466.755954 
L 60.626554 467.468321 
L 61.900924 469.038793 
L 62.892102 468.363163 
L 65.693013 473.446154 
L 66.364404 473.89841 
L 67.509906 478.127025 
L 68.637907 483.376259 
L 69.782613 485.767728 
L 71.005277 487.620087 
L 72.267715 495.310598 
L 74.579402 501.163854 
L 76.68267 501.789683 
L 77.842491 506.064165 
L 79.108907 514.414907 
L 81.321157 525.884821 
L 82.801559 525.884821 
L 83.651139 524.781576 
L 84.752094 525.07603 
L 85.848276 523.740123 
L 87.033552 523.151059 
L 89.475698 525.884821 
L 90.49074 523.10651 
L 92.918567 524.587832 
L 93.990884 525.884821 
L 95.125249 524.684452 
L 98.475046 525.884821 
L 100.80662 525.884821 
L 102.094514 525.425557 
L 103.115919 519.626681 
L 104.372789 525.884821 
L 106.522196 525.884821 
L 107.917481 525.274954 
L 109.969838 525.884821 
L 114.601961 522.237227 
L 115.83258 525.425557 
L 119.246812 525.884821 
L 122.407283 523.971748 
L 123.944165 525.884821 
L 125.079325 525.274954 
L 127.161911 525.884821 
L 130.567392 524.684452 
L 131.705735 525.884821 
L 135.33793 524.112121 
L 138.608974 525.884821 
L 139.861867 525.425557 
L 141.086917 524.684452 
L 143.676229 525.884821 
L 146.738855 525.884821 
L 147.772193 523.556877 
L 148.865193 525.425557 
L 151.444163 523.151059 
L 154.637249 524.684452 
L 155.931507 525.884821 
L 158.127847 525.884821 
L 159.460289 525.425557 
L 162.603259 525.884821 
L 170.590748 525.884821 
L 174.289764 525.884821 
L 179.905109 525.425557 
L 183.276384 519.737722 
L 186.700162 525.884821 
L 194.706742 525.884821 
" clip-path="url(#p872e8d0d98)" style="fill: none; stroke: #000000; stroke-linecap: round"/>
   </g>
   <g id="patch_12">
    <path d="M 47.2035 531.2355 
L 47.2035 423.189641 
" style="fill: none; stroke: #262626; stroke-linejoin: miter; stroke-linecap: square"/>
   </g>
   <g id="patch_13">
    <path d="M 47.2035 531.2355 
L 207.57375 531.2355 
" style="fill: none; stroke: #262626; stroke-linejoin: miter; stroke-linecap: square"/>
   </g>
   <g id="text_24">
    <text style="fill: #262626; font: 9.6px 'Arial', 'DejaVu Sans', 'Liberation Sans', 'Bitstream Vera Sans', sans-serif; text-anchor: middle" x="127.388625" y="418.189641" transform="rotate(-0 127.388625 418.189641)">Ruegeria pomeroyi</text>
   </g>
  </g>
 </g>
 <defs>
  <clipPath id="p3eff7547ef">
   <rect x="47.2035" y="19.0715" width="160.37025" height="108.045859"/>
  </clipPath>
  <clipPath id="pc853e7cab5">
   <rect x="47.2035" y="153.777547" width="160.37025" height="108.045859"/>
  </clipPath>
  <clipPath id="pc028aa8ea5">
   <rect x="47.2035" y="288.483594" width="160.37025" height="108.045859"/>
  </clipPath>
  <clipPath id="p872e8d0d98">
   <rect x="47.2035" y="423.189641" width="160.37025" height="108.045859"/>
  </clipPath>
 </defs>
</svg>
