<?xml version="1.0" encoding="utf-8" standalone="no"?>
<!DOCTYPE svg PUBLIC "-//W3C//DTD SVG 1.1//EN"
  "http://www.w3.org/Graphics/SVG/1.1/DTD/svg11.dtd">
<svg xmlns:xlink="http://www.w3.org/1999/xlink" width="207.46125pt" height="569.175375pt" viewBox="0 0 207.46125 569.175375" xmlns="http://www.w3.org/2000/svg" version="1.1">
 <metadata>
  <rdf:RDF xmlns:dc="http://purl.org/dc/elements/1.1/" xmlns:cc="http://creativecommons.org/ns#" xmlns:rdf="http://www.w3.org/1999/02/22-rdf-syntax-ns#">
   <cc:Work>
    <dc:type rdf:resource="http://purl.org/dc/dcmitype/StillImage"/>
    <dc:date>2024-11-25T13:48:27.410029</dc:date>
    <dc:format>image/svg+xml</dc:format>
    <dc:creator>
     <cc:Agent>
      <dc:title>Matplotlib v3.8.0, https://matplotlib.org/</dc:title>
     </cc:Agent>
    </dc:creator>
   </cc:Work>
  </rdf:RDF>
 </metadata>
 <defs>
  <style type="text/css">*{stroke-linejoin: round; stroke-linecap: butt}</style>
 </defs>
 <g id="figure_1">
  <g id="patch_1">
   <path d="M 0 569.175375 
L 207.46125 569.175375 
L 207.46125 0 
L 0 0 
L 0 569.175375 
z
" style="fill: none"/>
  </g>
  <g id="axes_1">
   <g id="patch_2">
    <path d="M 47.2035 127.117359 
L 200.26125 127.117359 
L 200.26125 19.0715 
L 47.2035 19.0715 
L 47.2035 127.117359 
z
" style="fill: none"/>
   </g>
   <g id="matplotlib.axis_1">
    <g id="xtick_1"/>
    <g id="xtick_2"/>
    <g id="xtick_3"/>
   </g>
   <g id="matplotlib.axis_2">
    <g id="ytick_1">
     <g id="text_1">
      <!-- $\mathdefault{10^{-1}}$ -->
      <g style="fill: #262626" transform="translate(20.9795 108.387336)">
       <text>
        <tspan style="font: 8.8px 'Arial'" x="0 4.892395" y="-0.4372624999999992">10</tspan>
        <tspan style="font: 6.16px 'Arial'" x="9.938116 13.534183" y="-6.570312499999999">−1</tspan>
       </text>
      </g>
     </g>
    </g>
    <g id="ytick_2">
     <g id="text_2">
      <!-- $\mathdefault{10^{0}}$ -->
      <g style="fill: #262626" transform="translate(24.5875 65.560918)">
       <text>
        <tspan style="font: 8.8px 'Arial'" x="0 4.892395" y="-0.4372624999999992">10</tspan>
        <tspan style="font: 6.16px 'Arial'" x="9.938116" y="-6.570312499999999">0</tspan>
       </text>
      </g>
     </g>
    </g>
    <g id="ytick_3">
     <g id="text_3">
      <!-- $\mathdefault{10^{1}}$ -->
      <g style="fill: #262626" transform="translate(24.5875 22.7345)">
       <text>
        <tspan style="font: 8.8px 'Arial'" x="0 4.892395" y="-0.4372624999999992">10</tspan>
        <tspan style="font: 6.16px 'Arial'" x="9.938116" y="-6.570312499999999">1</tspan>
       </text>
      </g>
     </g>
    </g>
    <g id="ytick_4"/>
    <g id="ytick_5"/>
    <g id="ytick_6"/>
    <g id="ytick_7"/>
    <g id="ytick_8"/>
    <g id="ytick_9"/>
    <g id="ytick_10"/>
    <g id="ytick_11"/>
    <g id="ytick_12"/>
    <g id="ytick_13"/>
    <g id="ytick_14"/>
    <g id="ytick_15"/>
    <g id="ytick_16"/>
    <g id="ytick_17"/>
    <g id="ytick_18"/>
    <g id="ytick_19"/>
    <g id="ytick_20"/>
    <g id="ytick_21"/>
    <g id="ytick_22"/>
    <g id="ytick_23"/>
    <g id="ytick_24"/>
    <g id="ytick_25"/>
    <g id="ytick_26"/>
    <g id="text_4">
     <text style="fill: #262626; font: 9.6px 'Arial', 'DejaVu Sans', 'Liberation Sans', 'Bitstream Vera Sans', sans-serif; text-anchor: middle" x="14.0715" y="73.09443" transform="rotate(-90 14.0715 73.09443)">Fluorescence</text>
    </g>
   </g>
   <g id="line2d_1">
    <path d="M 47.2035 113.91789 
L 48.386357 107.101944 
L 49.569973 101.178935 
L 50.206955 92.884467 
L 51.307816 85.90929 
L 52.343386 85.24496 
L 53.457154 91.463985 
L 54.56333 101.80418 
L 54.56333 95.410277 
L 54.56333 94.964764 
L 55.932195 121.766681 
L 56.98143 102.124865 
L 57.858324 111.358232 
L 57.858324 105.875174 
L 57.858324 99.560586 
L 59.048773 106.478446 
L 59.048773 104.911265 
L 59.048773 100.874022 
L 60.014494 103.292916 
L 60.014494 101.80418 
L 60.014494 98.466195 
L 61.230757 101.645887 
L 61.230757 101.48893 
L 61.230757 99.420214 
L 62.176739 103.994859 
L 62.176739 102.451176 
L 62.176739 95.410277 
L 64.849935 101.48893 
L 65.490712 112.172929 
L 65.490712 110.834274 
L 65.490712 103.292916 
L 66.583982 109.108601 
L 66.583982 106.683965 
L 66.583982 104.911265 
L 67.660549 121.766681 
L 67.660549 113.91789 
L 67.660549 106.89178 
L 68.753059 120.421569 
L 68.753059 113.91789 
L 68.753059 103.994859 
L 69.919973 111.094408 
L 69.919973 105.678354 
L 69.919973 105.290855 
L 71.124847 113.615456 
L 71.124847 112.452623 
L 71.124847 104.174563 
L 73.331126 110.075014 
L 73.331126 108.874644 
L 73.331126 106.683965 
L 75.338491 115.179341 
L 75.338491 105.678354 
L 75.338491 104.724336 
L 76.445426 120.421569 
L 76.445426 115.179341 
L 76.445426 107.74707 
L 77.654096 118.375632 
L 77.654096 112.452623 
L 77.654096 107.529532 
L 79.765473 107.74707 
L 81.178373 121.766681 
L 81.989214 121.766681 
L 81.989214 121.766681 
L 81.989214 121.766681 
L 83.039968 121.766681 
L 83.039968 121.766681 
L 83.039968 108.189931 
L 84.086166 121.766681 
L 84.086166 121.766681 
L 84.086166 121.766681 
L 85.217397 121.766681 
L 85.217397 116.886895 
L 85.217397 111.094408 
L 87.548187 121.766681 
L 88.516945 121.766681 
L 88.516945 116.886895 
L 88.516945 115.179341 
L 90.834069 121.766681 
L 90.834069 121.766681 
L 90.834069 111.094408 
L 91.857491 111.094408 
L 92.940132 120.421569 
L 96.137186 121.766681 
L 98.362446 121.766681 
L 99.591615 121.766681 
L 100.566447 121.766681 
L 101.766007 121.766681 
L 103.817406 121.766681 
L 105.149069 116.184952 
L 107.107843 121.766681 
L 111.528753 121.766681 
L 112.703258 121.766681 
L 115.961809 121.766681 
L 118.97817 121.766681 
L 120.444974 121.766681 
L 121.528374 121.766681 
L 123.515999 121.766681 
L 126.766198 121.766681 
L 127.852635 121.766681 
L 131.319211 121.766681 
L 134.441103 121.766681 
L 135.636867 121.766681 
L 136.806058 121.766681 
L 139.277303 121.766681 
L 142.200281 120.859219 
L 143.186501 121.766681 
L 144.229662 121.766681 
L 146.691038 121.766681 
L 149.738527 121.766681 
L 150.973769 121.766681 
L 153.069962 121.766681 
L 154.341647 121.766681 
L 157.341306 121.766681 
L 164.964584 121.766681 
L 168.494934 121.766681 
L 173.854233 118.375632 
L 177.071786 121.766681 
L 180.339448 121.766681 
L 187.980947 121.766681 
" clip-path="url(#p1d7374f50f)" style="fill: none; stroke: #44aa99; stroke-width: 3; stroke-linecap: round"/>
   </g>
   <g id="line2d_2">
    <path d="M 47.2035 111.358232 
L 48.386357 121.766681 
L 49.569973 97.307388 
L 50.206955 88.991798 
L 51.307816 88.596894 
L 52.343386 93.282328 
L 53.457154 100.874022 
L 54.56333 111.094408 
L 54.56333 108.874644 
L 54.56333 102.616504 
L 55.932195 118.375632 
L 56.98143 99.988175 
L 57.858324 108.874644 
L 57.858324 105.483595 
L 57.858324 103.465934 
L 59.048773 110.834274 
L 59.048773 100.278794 
L 59.048773 100.132917 
L 60.014494 103.465934 
L 60.014494 103.121493 
L 60.014494 98.07185 
L 61.230757 111.358232 
L 61.230757 111.358232 
L 61.230757 105.678354 
L 62.176739 106.683965 
L 62.176739 99.988175 
L 62.176739 97.813522 
L 64.849935 103.121493 
L 65.490712 111.094408 
L 65.490712 107.74707 
L 65.490712 107.74707 
L 66.583982 116.886895 
L 66.583982 112.172929 
L 66.583982 111.094408 
L 67.660549 116.886895 
L 67.660549 108.874644 
L 67.660549 106.683965 
L 68.753059 114.855867 
L 68.753059 112.452623 
L 68.753059 104.539267 
L 69.919973 121.766681 
L 69.919973 118.375632 
L 69.919973 116.886895 
L 71.124847 116.532613 
L 71.124847 112.452623 
L 71.124847 106.683965 
L 73.331126 113.91789 
L 73.331126 110.834274 
L 73.331126 103.292916 
L 75.338491 121.766681 
L 75.338491 121.766681 
L 75.338491 111.094408 
L 76.445426 121.766681 
L 76.445426 121.766681 
L 76.445426 118.375632 
L 77.654096 121.766681 
L 77.654096 115.179341 
L 77.654096 112.172929 
L 79.765473 106.683965 
L 81.178373 121.766681 
L 81.989214 121.766681 
L 81.989214 121.766681 
L 81.989214 118.76721 
L 83.039968 116.532613 
L 83.039968 114.855867 
L 83.039968 113.615456 
L 84.086166 121.766681 
L 84.086166 121.766681 
L 84.086166 121.766681 
L 85.217397 121.766681 
L 85.217397 121.766681 
L 85.217397 121.766681 
L 87.548187 121.766681 
L 88.516945 121.766681 
L 88.516945 121.766681 
L 88.516945 121.766681 
L 90.834069 121.766681 
L 90.834069 121.766681 
L 90.834069 116.886895 
L 91.857491 121.766681 
L 92.940132 121.766681 
L 96.137186 121.766681 
L 98.362446 121.766681 
L 99.591615 121.766681 
L 100.566447 121.766681 
L 101.766007 121.766681 
L 103.817406 121.766681 
L 105.149069 116.532613 
L 107.107843 121.766681 
L 111.528753 121.766681 
L 112.703258 121.766681 
L 115.961809 121.766681 
L 118.97817 121.766681 
L 120.444974 121.766681 
L 121.528374 121.766681 
L 123.515999 121.766681 
L 126.766198 121.766681 
L 127.852635 121.766681 
L 131.319211 116.886895 
L 134.441103 121.766681 
L 135.636867 119.99398 
L 136.806058 119.99398 
L 139.277303 118.375632 
L 142.200281 121.766681 
L 143.186501 121.766681 
L 144.229662 121.766681 
L 146.691038 117.992128 
L 149.738527 121.766681 
L 150.973769 121.766681 
L 153.069962 121.766681 
L 154.341647 121.766681 
L 157.341306 121.766681 
L 164.964584 121.766681 
L 168.494934 120.421569 
L 173.854233 121.766681 
L 177.071786 121.766681 
L 180.339448 116.184952 
L 187.980947 113.91789 
" clip-path="url(#p1d7374f50f)" style="fill: none; stroke: #44aa99; stroke-width: 3; stroke-linecap: round"/>
   </g>
   <g id="line2d_3">
    <path d="M 47.2035 103.292916 
L 48.386357 111.358232 
L 49.569973 99.005343 
L 50.206955 86.80999 
L 51.307816 81.317871 
L 52.343386 68.558403 
L 53.457154 63.489233 
L 54.56333 59.493546 
L 54.56333 58.460429 
L 54.56333 58.260517 
L 55.932195 76.462489 
L 56.98143 83.090572 
L 57.858324 85.179813 
L 57.858324 82.294151 
L 57.858324 80.899892 
L 59.048773 85.774512 
L 59.048773 84.921486 
L 59.048773 82.631307 
L 60.014494 87.533788 
L 60.014494 85.774512 
L 60.014494 85.774512 
L 61.230757 90.83648 
L 61.230757 89.313871 
L 61.230757 88.675206 
L 62.176739 92.688683 
L 62.176739 91.555382 
L 62.176739 86.952514 
L 64.849935 90.229457 
L 65.490712 92.983137 
L 65.490712 92.494939 
L 65.490712 91.64723 
L 66.583982 95.982608 
L 66.583982 95.186187 
L 66.583982 94.855034 
L 67.660549 93.58641 
L 67.660549 91.463985 
L 67.660549 90.144334 
L 68.753059 94.315887 
L 68.753059 93.895546 
L 68.753059 90.229457 
L 69.919973 96.814663 
L 69.919973 95.523343 
L 69.919973 88.2102 
L 71.124847 95.982608 
L 71.124847 92.019228 
L 71.124847 89.891279 
L 73.331126 92.113402 
L 73.331126 91.463985 
L 73.331126 90.573897 
L 75.338491 97.432636 
L 75.338491 96.814663 
L 75.338491 90.314971 
L 76.445426 98.733816 
L 76.445426 95.410277 
L 76.445426 92.786318 
L 77.654096 97.182978 
L 77.654096 96.936626 
L 77.654096 93.282328 
L 79.765473 121.766681 
L 81.178373 121.766681 
L 81.989214 116.886895 
L 81.989214 115.179341 
L 81.989214 109.828663 
L 83.039968 110.834274 
L 83.039968 108.41538 
L 83.039968 108.189931 
L 84.086166 120.421569 
L 84.086166 118.76721 
L 84.086166 116.886895 
L 85.217397 121.766681 
L 85.217397 111.358232 
L 85.217397 105.875174 
L 87.548187 121.766681 
L 88.516945 120.859219 
L 88.516945 116.886895 
L 88.516945 107.74707 
L 90.834069 120.421569 
L 90.834069 118.375632 
L 90.834069 113.024953 
L 91.857491 108.874644 
L 92.940132 109.585531 
L 96.137186 115.179341 
L 98.362446 121.766681 
L 99.591615 121.766681 
L 100.566447 113.615456 
L 101.766007 118.375632 
L 103.817406 121.766681 
L 105.149069 116.532613 
L 107.107843 121.766681 
L 111.528753 121.766681 
L 112.703258 116.184952 
L 115.961809 121.766681 
L 118.97817 121.766681 
L 120.444974 116.886895 
L 121.528374 121.766681 
L 123.515999 120.421569 
L 126.766198 121.766681 
L 127.852635 118.76721 
L 131.319211 121.766681 
L 134.441103 121.766681 
L 135.636867 113.317861 
L 136.806058 121.766681 
L 139.277303 114.855867 
L 142.200281 121.766681 
L 143.186501 120.421569 
L 144.229662 121.766681 
L 146.691038 121.766681 
L 149.738527 121.766681 
L 150.973769 118.375632 
L 153.069962 113.615456 
L 154.341647 121.766681 
L 157.341306 121.766681 
L 164.964584 121.766681 
L 168.494934 121.766681 
L 173.854233 121.766681 
L 177.071786 121.766681 
L 180.339448 121.766681 
L 187.980947 121.766681 
" clip-path="url(#p1d7374f50f)" style="fill: none; stroke: #44aa99; stroke-width: 3; stroke-linecap: round"/>
   </g>
   <g id="line2d_4">
    <path d="M 47.2035 100.924495 
L 48.386357 115.731289 
L 49.569973 96.814663 
L 50.206955 89.586593 
L 51.307816 82.424542 
L 52.343386 72.287777 
L 53.457154 61.408435 
L 54.56333 53.099446 
L 55.932195 42.210872 
L 56.98143 45.783505 
L 57.858324 52.939178 
L 59.048773 62.637813 
L 60.014494 63.35018 
L 61.230757 64.920652 
L 62.176739 64.245022 
L 64.849935 69.328014 
L 65.490712 69.780269 
L 66.583982 74.008884 
L 67.660549 79.258118 
L 68.753059 81.649587 
L 69.919973 83.501947 
L 71.124847 91.192458 
L 73.331126 97.045713 
L 75.338491 97.671542 
L 76.445426 101.946024 
L 77.654096 110.296767 
L 79.765473 121.766681 
L 81.178373 121.766681 
L 81.989214 120.663435 
L 83.039968 120.957889 
L 84.086166 119.621982 
L 85.217397 119.032918 
L 87.548187 121.766681 
L 88.516945 118.988369 
L 90.834069 120.469691 
L 91.857491 121.766681 
L 92.940132 120.566311 
L 96.137186 121.766681 
L 98.362446 121.766681 
L 99.591615 121.307416 
L 100.566447 115.508541 
L 101.766007 121.766681 
L 103.817406 121.766681 
L 105.149069 121.156814 
L 107.107843 121.766681 
L 111.528753 118.119086 
L 112.703258 121.307416 
L 115.961809 121.766681 
L 118.97817 119.853608 
L 120.444974 121.766681 
L 121.528374 121.156814 
L 123.515999 121.766681 
L 126.766198 120.566311 
L 127.852635 121.766681 
L 131.319211 119.99398 
L 134.441103 121.766681 
L 135.636867 121.307416 
L 136.806058 120.566311 
L 139.277303 121.766681 
L 142.200281 121.766681 
L 143.186501 119.438737 
L 144.229662 121.307416 
L 146.691038 119.032918 
L 149.738527 120.566311 
L 150.973769 121.766681 
L 153.069962 121.766681 
L 154.341647 121.307416 
L 157.341306 121.766681 
L 164.964584 121.766681 
L 168.494934 121.766681 
L 173.854233 121.307416 
L 177.071786 115.619581 
L 180.339448 121.766681 
L 187.980947 121.766681 
" clip-path="url(#p1d7374f50f)" style="fill: none; stroke: #000000; stroke-linecap: round"/>
   </g>
   <g id="patch_3">
    <path d="M 47.2035 127.117359 
L 47.2035 19.0715 
" style="fill: none; stroke: #262626; stroke-linejoin: miter; stroke-linecap: square"/>
   </g>
   <g id="patch_4">
    <path d="M 47.2035 127.117359 
L 200.26125 127.117359 
" style="fill: none; stroke: #262626; stroke-linejoin: miter; stroke-linecap: square"/>
   </g>
   <g id="text_5">
    <text style="fill: #262626; font: 9.6px 'Arial', 'DejaVu Sans', 'Liberation Sans', 'Bitstream Vera Sans', sans-serif; text-anchor: middle" x="123.732375" y="14.0715" transform="rotate(-0 123.732375 14.0715)">Marinovum 5F3</text>
   </g>
  </g>
  <g id="axes_2">
   <g id="patch_5">
    <path d="M 47.2035 261.823406 
L 200.26125 261.823406 
L 200.26125 153.777547 
L 47.2035 153.777547 
L 47.2035 261.823406 
z
" style="fill: none"/>
   </g>
   <g id="matplotlib.axis_3">
    <g id="xtick_4"/>
    <g id="xtick_5"/>
    <g id="xtick_6"/>
   </g>
   <g id="matplotlib.axis_4">
    <g id="ytick_27">
     <g id="text_6">
      <!-- $\mathdefault{10^{-1}}$ -->
      <g style="fill: #262626" transform="translate(20.9795 243.093383)">
       <text>
        <tspan style="font: 8.8px 'Arial'" x="0 4.892395" y="-0.4372624999999992">10</tspan>
        <tspan style="font: 6.16px 'Arial'" x="9.938116 13.534183" y="-6.570312499999999">−1</tspan>
       </text>
      </g>
     </g>
    </g>
    <g id="ytick_28">
     <g id="text_7">
      <!-- $\mathdefault{10^{0}}$ -->
      <g style="fill: #262626" transform="translate(24.5875 200.266965)">
       <text>
        <tspan style="font: 8.8px 'Arial'" x="0 4.892395" y="-0.4372624999999992">10</tspan>
        <tspan style="font: 6.16px 'Arial'" x="9.938116" y="-6.570312499999999">0</tspan>
       </text>
      </g>
     </g>
    </g>
    <g id="ytick_29">
     <g id="text_8">
      <!-- $\mathdefault{10^{1}}$ -->
      <g style="fill: #262626" transform="translate(24.5875 157.440547)">
       <text>
        <tspan style="font: 8.8px 'Arial'" x="0 4.892395" y="-0.4372624999999992">10</tspan>
        <tspan style="font: 6.16px 'Arial'" x="9.938116" y="-6.570312499999999">1</tspan>
       </text>
      </g>
     </g>
    </g>
    <g id="ytick_30"/>
    <g id="ytick_31"/>
    <g id="ytick_32"/>
    <g id="ytick_33"/>
    <g id="ytick_34"/>
    <g id="ytick_35"/>
    <g id="ytick_36"/>
    <g id="ytick_37"/>
    <g id="ytick_38"/>
    <g id="ytick_39"/>
    <g id="ytick_40"/>
    <g id="ytick_41"/>
    <g id="ytick_42"/>
    <g id="ytick_43"/>
    <g id="ytick_44"/>
    <g id="ytick_45"/>
    <g id="ytick_46"/>
    <g id="ytick_47"/>
    <g id="ytick_48"/>
    <g id="ytick_49"/>
    <g id="ytick_50"/>
    <g id="ytick_51"/>
    <g id="ytick_52"/>
    <g id="text_9">
     <text style="fill: #262626; font: 9.6px 'Arial', 'DejaVu Sans', 'Liberation Sans', 'Bitstream Vera Sans', sans-serif; text-anchor: middle" x="14.0715" y="207.800477" transform="rotate(-90 14.0715 207.800477)">Fluorescence</text>
    </g>
   </g>
   <g id="line2d_5">
    <path d="M 47.2035 243.580691 
L 48.386357 239.617312 
L 49.569973 230.805265 
L 50.206955 222.992945 
L 51.307816 217.913229 
L 52.343386 208.377182 
L 53.457154 202.305111 
L 54.56333 198.378525 
L 54.56333 196.5112 
L 54.56333 196.327047 
L 55.932195 213.277995 
L 56.98143 215.046138 
L 57.858324 216.451507 
L 57.858324 216.076832 
L 57.858324 214.797148 
L 59.048773 219.627533 
L 59.048773 218.935094 
L 59.048773 217.854832 
L 60.014494 221.658561 
L 60.014494 218.689555 
L 60.014494 216.559957 
L 61.230757 226.819449 
L 61.230757 224.935503 
L 61.230757 220.280206 
L 62.176739 227.009239 
L 62.176739 225.630884 
L 62.176739 224.850381 
L 64.849935 229.451994 
L 65.490712 228.089184 
L 65.490712 227.009239 
L 65.490712 223.697844 
L 66.583982 234.694221 
L 66.583982 230.688655 
L 66.583982 229.343543 
L 67.660549 234.12626 
L 67.660549 232.908418 
L 67.660549 231.159548 
L 68.753059 238.346623 
L 68.753059 237.82754 
L 68.753059 236.351934 
L 69.919973 236.510226 
L 69.919973 234.12626 
L 69.919973 230.457605 
L 71.124847 244.53471 
L 71.124847 241.390012 
L 71.124847 240.384401 
L 73.331126 251.954104 
L 73.331126 248.623937 
L 73.331126 245.800455 
L 75.338491 256.472728 
L 75.338491 256.472728 
L 75.338491 256.472728 
L 76.445426 253.473257 
L 76.445426 250.214587 
L 76.445426 249.885388 
L 77.654096 256.472728 
L 77.654096 256.472728 
L 77.654096 255.565266 
L 79.765473 256.472728 
L 81.178373 256.472728 
L 81.989214 256.472728 
L 81.989214 256.472728 
L 81.989214 245.800455 
L 83.039968 256.472728 
L 83.039968 256.472728 
L 83.039968 256.472728 
L 84.086166 256.472728 
L 84.086166 256.472728 
L 84.086166 256.472728 
L 85.217397 256.472728 
L 85.217397 256.472728 
L 85.217397 250.214587 
L 87.548187 256.472728 
L 88.516945 256.472728 
L 88.516945 256.472728 
L 88.516945 256.472728 
L 90.834069 256.472728 
L 90.834069 255.127616 
L 90.834069 255.127616 
L 91.857491 256.472728 
L 92.940132 251.592942 
L 96.137186 253.081679 
L 98.362446 256.472728 
L 99.591615 256.472728 
L 100.566447 256.472728 
L 101.766007 253.081679 
L 103.817406 253.081679 
L 105.149069 256.472728 
L 107.107843 256.472728 
L 111.528753 251.238659 
L 112.703258 256.472728 
L 115.961809 251.592942 
L 118.97817 256.472728 
L 120.444974 255.127616 
L 121.528374 256.472728 
L 123.515999 242.895978 
L 126.766198 256.472728 
L 127.852635 255.565266 
L 131.319211 253.081679 
L 134.441103 251.238659 
L 135.636867 256.472728 
L 136.806058 245.283775 
L 139.277303 256.472728 
L 142.200281 253.081679 
L 143.186501 243.121427 
L 144.229662 243.580691 
L 146.691038 256.472728 
L 149.738527 256.472728 
L 150.973769 256.472728 
L 153.069962 256.472728 
L 154.341647 253.081679 
L 157.341306 256.472728 
L 164.964584 256.472728 
L 168.494934 249.24397 
L 173.854233 253.473257 
L 177.071786 253.473257 
L 180.339448 256.472728 
L 187.980947 245.800455 
" clip-path="url(#p971164d001)" style="fill: none; stroke: #44aa99; stroke-width: 3; stroke-linecap: round"/>
   </g>
   <g id="line2d_6">
    <path d="M 47.2035 242.67323 
L 48.386357 249.885388 
L 49.569973 233.71139 
L 50.206955 227.104865 
L 51.307816 230.22939 
L 52.343386 217.913229 
L 53.457154 212.65049 
L 54.56333 208.48256 
L 54.56333 208.202867 
L 54.56333 207.124346 
L 55.932195 224.681295 
L 56.98143 223.224956 
L 57.858324 228.601593 
L 57.858324 227.200986 
L 57.858324 226.631576 
L 59.048773 240.58122 
L 59.048773 227.104865 
L 59.048773 226.819449 
L 60.014494 236.194977 
L 60.014494 234.266633 
L 60.014494 232.908418 
L 61.230757 234.984841 
L 61.230757 233.848654 
L 61.230757 233.71139 
L 62.176739 237.489362 
L 62.176739 236.351934 
L 62.176739 232.264781 
L 64.849935 242.453117 
L 65.490712 240.58122 
L 65.490712 237.157223 
L 65.490712 231.765441 
L 66.583982 255.127616 
L 66.583982 247.442633 
L 66.583982 242.67323 
L 67.660549 247.158669 
L 67.660549 243.349641 
L 67.660549 232.908418 
L 68.753059 239.430383 
L 68.753059 237.657682 
L 68.753059 236.194977 
L 69.919973 254.700027 
L 69.919973 240.98122 
L 69.919973 236.039333 
L 71.124847 248.321503 
L 71.124847 245.800455 
L 71.124847 240.58122 
L 73.331126 256.472728 
L 73.331126 253.473257 
L 73.331126 248.623937 
L 75.338491 253.081679 
L 75.338491 249.885388 
L 75.338491 247.158669 
L 76.445426 256.472728 
L 76.445426 253.081679 
L 76.445426 245.800455 
L 77.654096 256.472728 
L 77.654096 256.472728 
L 77.654096 256.472728 
L 79.765473 256.472728 
L 81.178373 256.472728 
L 81.989214 256.472728 
L 81.989214 256.472728 
L 81.989214 241.184493 
L 83.039968 256.472728 
L 83.039968 251.238659 
L 83.039968 249.561914 
L 84.086166 253.473257 
L 84.086166 251.238659 
L 84.086166 246.878976 
L 85.217397 256.472728 
L 85.217397 253.473257 
L 85.217397 251.592942 
L 87.548187 256.472728 
L 88.516945 256.472728 
L 88.516945 256.472728 
L 88.516945 256.472728 
L 90.834069 256.472728 
L 90.834069 256.472728 
L 90.834069 242.453117 
L 91.857491 253.473257 
L 92.940132 256.472728 
L 96.137186 256.472728 
L 98.362446 256.472728 
L 99.591615 251.592942 
L 100.566447 251.238659 
L 101.766007 256.472728 
L 103.817406 256.472728 
L 105.149069 256.472728 
L 107.107843 256.472728 
L 111.528753 256.472728 
L 112.703258 253.473257 
L 115.961809 251.592942 
L 118.97817 256.472728 
L 120.444974 249.885388 
L 121.528374 251.238659 
L 123.515999 245.540321 
L 126.766198 242.67323 
L 127.852635 256.472728 
L 131.319211 255.127616 
L 134.441103 249.561914 
L 135.636867 248.023908 
L 136.806058 256.472728 
L 139.277303 244.291578 
L 142.200281 256.472728 
L 143.186501 256.472728 
L 144.229662 246.878976 
L 146.691038 254.700027 
L 149.738527 256.472728 
L 150.973769 244.53471 
L 153.069962 256.472728 
L 154.341647 251.238659 
L 157.341306 254.700027 
L 164.964584 256.472728 
L 168.494934 253.081679 
L 173.854233 244.53471 
L 177.071786 256.472728 
L 180.339448 247.731 
L 187.980947 256.472728 
" clip-path="url(#p971164d001)" style="fill: none; stroke: #44aa99; stroke-width: 3; stroke-linecap: round"/>
   </g>
   <g id="line2d_7">
    <path d="M 47.2035 250.214587 
L 48.386357 251.954104 
L 49.569973 238.171981 
L 50.206955 234.12626 
L 51.307816 232.013435 
L 52.343386 220.751099 
L 53.457154 223.777841 
L 54.56333 234.408073 
L 54.56333 230.457605 
L 54.56333 229.781193 
L 55.932195 256.472728 
L 56.98143 239.430383 
L 57.858324 248.623937 
L 57.858324 246.064279 
L 57.858324 242.453117 
L 59.048773 249.561914 
L 59.048773 246.878976 
L 59.048773 240.58122 
L 60.014494 250.214587 
L 60.014494 243.349641 
L 60.014494 242.453117 
L 61.230757 256.472728 
L 61.230757 242.67323 
L 61.230757 242.453117 
L 62.176739 248.321503 
L 62.176739 244.051584 
L 62.176739 243.580691 
L 64.849935 240.384401 
L 65.490712 251.592942 
L 65.490712 244.53471 
L 65.490712 240.189642 
L 66.583982 253.873257 
L 66.583982 249.885388 
L 66.583982 243.814648 
L 67.660549 255.565266 
L 67.660549 253.473257 
L 67.660549 249.885388 
L 68.753059 256.472728 
L 68.753059 253.081679 
L 68.753059 248.321503 
L 69.919973 255.127616 
L 69.919973 253.081679 
L 69.919973 248.023908 
L 71.124847 256.472728 
L 71.124847 250.214587 
L 71.124847 247.158669 
L 73.331126 256.472728 
L 73.331126 255.565266 
L 73.331126 255.127616 
L 75.338491 256.472728 
L 75.338491 255.127616 
L 75.338491 249.561914 
L 76.445426 256.472728 
L 76.445426 255.565266 
L 76.445426 245.800455 
L 77.654096 256.472728 
L 77.654096 255.127616 
L 77.654096 248.321503 
L 79.765473 256.472728 
L 81.178373 256.472728 
L 81.989214 256.472728 
L 81.989214 255.127616 
L 81.989214 253.473257 
L 83.039968 256.472728 
L 83.039968 256.472728 
L 83.039968 244.291578 
L 84.086166 256.472728 
L 84.086166 256.472728 
L 84.086166 256.472728 
L 85.217397 256.472728 
L 85.217397 256.472728 
L 85.217397 246.878976 
L 87.548187 256.472728 
L 88.516945 256.472728 
L 88.516945 256.472728 
L 88.516945 250.214587 
L 90.834069 256.472728 
L 90.834069 256.472728 
L 90.834069 251.592942 
L 91.857491 249.561914 
L 92.940132 256.472728 
L 96.137186 256.472728 
L 98.362446 253.473257 
L 99.591615 256.472728 
L 100.566447 251.592942 
L 101.766007 249.885388 
L 103.817406 239.430383 
L 105.149069 252.698175 
L 107.107843 248.623937 
L 111.528753 255.127616 
L 112.703258 256.472728 
L 115.961809 253.081679 
L 118.97817 256.472728 
L 120.444974 256.472728 
L 121.528374 256.472728 
L 123.515999 245.540321 
L 126.766198 253.473257 
L 127.852635 248.321503 
L 131.319211 251.592942 
L 134.441103 253.081679 
L 135.636867 251.238659 
L 136.806058 256.472728 
L 139.277303 253.081679 
L 142.200281 250.214587 
L 143.186501 242.895978 
L 144.229662 256.472728 
L 146.691038 254.700027 
L 149.738527 253.473257 
L 150.973769 256.472728 
L 153.069962 248.623937 
L 154.341647 254.700027 
L 157.341306 249.885388 
L 164.964584 256.472728 
L 168.494934 256.472728 
L 173.854233 256.472728 
L 177.071786 256.472728 
L 180.339448 254.282048 
L 187.980947 249.885388 
" clip-path="url(#p971164d001)" style="fill: none; stroke: #44aa99; stroke-width: 3; stroke-linecap: round"/>
   </g>
   <g id="line2d_8">
    <path d="M 47.2035 235.630542 
L 48.386357 250.437336 
L 49.569973 231.52071 
L 50.206955 224.292639 
L 51.307816 217.130589 
L 52.343386 206.993824 
L 53.457154 196.114482 
L 54.56333 187.805493 
L 55.932195 176.916918 
L 56.98143 180.489552 
L 57.858324 187.645225 
L 59.048773 197.34386 
L 60.014494 198.056227 
L 61.230757 199.626699 
L 62.176739 198.951069 
L 64.849935 204.03406 
L 65.490712 204.486316 
L 66.583982 208.714931 
L 67.660549 213.964165 
L 68.753059 216.355634 
L 69.919973 218.207994 
L 71.124847 225.898505 
L 73.331126 231.75176 
L 75.338491 232.377589 
L 76.445426 236.652071 
L 77.654096 245.002814 
L 79.765473 256.472728 
L 81.178373 256.472728 
L 81.989214 255.369482 
L 83.039968 255.663936 
L 84.086166 254.328029 
L 85.217397 253.738965 
L 87.548187 256.472728 
L 88.516945 253.694416 
L 90.834069 255.175738 
L 91.857491 256.472728 
L 92.940132 255.272358 
L 96.137186 256.472728 
L 98.362446 256.472728 
L 99.591615 256.013463 
L 100.566447 250.214587 
L 101.766007 256.472728 
L 103.817406 256.472728 
L 105.149069 255.862861 
L 107.107843 256.472728 
L 111.528753 252.825133 
L 112.703258 256.013463 
L 115.961809 256.472728 
L 118.97817 254.559655 
L 120.444974 256.472728 
L 121.528374 255.862861 
L 123.515999 256.472728 
L 126.766198 255.272358 
L 127.852635 256.472728 
L 131.319211 254.700027 
L 134.441103 256.472728 
L 135.636867 256.013463 
L 136.806058 255.272358 
L 139.277303 256.472728 
L 142.200281 256.472728 
L 143.186501 254.144784 
L 144.229662 256.013463 
L 146.691038 253.738965 
L 149.738527 255.272358 
L 150.973769 256.472728 
L 153.069962 256.472728 
L 154.341647 256.013463 
L 157.341306 256.472728 
L 164.964584 256.472728 
L 168.494934 256.472728 
L 173.854233 256.013463 
L 177.071786 250.325628 
L 180.339448 256.472728 
L 187.980947 256.472728 
" clip-path="url(#p971164d001)" style="fill: none; stroke: #000000; stroke-linecap: round"/>
   </g>
   <g id="patch_6">
    <path d="M 47.2035 261.823406 
L 47.2035 153.777547 
" style="fill: none; stroke: #262626; stroke-linejoin: miter; stroke-linecap: square"/>
   </g>
   <g id="patch_7">
    <path d="M 47.2035 261.823406 
L 200.26125 261.823406 
" style="fill: none; stroke: #262626; stroke-linejoin: miter; stroke-linecap: square"/>
   </g>
   <g id="text_10">
    <text style="fill: #262626; font: 9.6px 'Arial', 'DejaVu Sans', 'Liberation Sans', 'Bitstream Vera Sans', sans-serif; text-anchor: middle" x="123.732375" y="148.777547" transform="rotate(-0 123.732375 148.777547)">Roseovarius 5C3</text>
   </g>
  </g>
  <g id="axes_3">
   <g id="patch_8">
    <path d="M 47.2035 396.529453 
L 200.26125 396.529453 
L 200.26125 288.483594 
L 47.2035 288.483594 
L 47.2035 396.529453 
z
" style="fill: none"/>
   </g>
   <g id="matplotlib.axis_5">
    <g id="xtick_7"/>
    <g id="xtick_8"/>
    <g id="xtick_9"/>
   </g>
   <g id="matplotlib.axis_6">
    <g id="ytick_53">
     <g id="text_11">
      <!-- $\mathdefault{10^{-1}}$ -->
      <g style="fill: #262626" transform="translate(20.9795 377.799429)">
       <text>
        <tspan style="font: 8.8px 'Arial'" x="0 4.892395" y="-0.4372624999999992">10</tspan>
        <tspan style="font: 6.16px 'Arial'" x="9.938116 13.534183" y="-6.570312499999999">−1</tspan>
       </text>
      </g>
     </g>
    </g>
    <g id="ytick_54">
     <g id="text_12">
      <!-- $\mathdefault{10^{0}}$ -->
      <g style="fill: #262626" transform="translate(24.5875 334.973012)">
       <text>
        <tspan style="font: 8.8px 'Arial'" x="0 4.892395" y="-0.4372624999999992">10</tspan>
        <tspan style="font: 6.16px 'Arial'" x="9.938116" y="-6.570312499999999">0</tspan>
       </text>
      </g>
     </g>
    </g>
    <g id="ytick_55">
     <g id="text_13">
      <!-- $\mathdefault{10^{1}}$ -->
      <g style="fill: #262626" transform="translate(24.5875 292.146594)">
       <text>
        <tspan style="font: 8.8px 'Arial'" x="0 4.892395" y="-0.4372624999999992">10</tspan>
        <tspan style="font: 6.16px 'Arial'" x="9.938116" y="-6.570312499999999">1</tspan>
       </text>
      </g>
     </g>
    </g>
    <g id="ytick_56"/>
    <g id="ytick_57"/>
    <g id="ytick_58"/>
    <g id="ytick_59"/>
    <g id="ytick_60"/>
    <g id="ytick_61"/>
    <g id="ytick_62"/>
    <g id="ytick_63"/>
    <g id="ytick_64"/>
    <g id="ytick_65"/>
    <g id="ytick_66"/>
    <g id="ytick_67"/>
    <g id="ytick_68"/>
    <g id="ytick_69"/>
    <g id="ytick_70"/>
    <g id="ytick_71"/>
    <g id="ytick_72"/>
    <g id="ytick_73"/>
    <g id="ytick_74"/>
    <g id="ytick_75"/>
    <g id="ytick_76"/>
    <g id="ytick_77"/>
    <g id="ytick_78"/>
    <g id="text_14">
     <text style="fill: #262626; font: 9.6px 'Arial', 'DejaVu Sans', 'Liberation Sans', 'Bitstream Vera Sans', sans-serif; text-anchor: middle" x="14.0715" y="342.506523" transform="rotate(-90 14.0715 342.506523)">Fluorescence</text>
    </g>
   </g>
   <g id="line2d_9">
    <path d="M 47.2035 372.878028 
L 48.386357 381.585023 
L 49.569973 373.05267 
L 50.206955 376.096059 
L 51.307816 377.379276 
L 52.343386 376.514038 
L 53.457154 374.512185 
L 54.56333 390.271313 
L 54.56333 376.941626 
L 54.56333 376.096059 
L 55.932195 378.055688 
L 56.98143 368.692986 
L 57.858324 383.329984 
L 57.858324 377.602025 
L 57.858324 376.303874 
L 59.048773 381.864716 
L 59.048773 373.228968 
L 59.048773 372.363729 
L 60.014494 378.286738 
L 60.014494 377.159164 
L 60.014494 374.512185 
L 61.230757 381.864716 
L 61.230757 380.770326 
L 61.230757 379.240756 
L 62.176739 389.833663 
L 62.176739 386.298989 
L 62.176739 378.286738 
L 64.849935 377.159164 
L 65.490712 378.286738 
L 65.490712 375.287267 
L 65.490712 374.323358 
L 66.583982 382.14868 
L 66.583982 380.506502 
L 66.583982 378.997625 
L 67.660549 383.329984 
L 67.660549 379.487108 
L 67.660549 375.090448 
L 68.753059 384.267961 
L 68.753059 373.406953 
L 68.753059 373.228968 
L 69.919973 383.02755 
L 69.919973 377.827473 
L 69.919973 367.745909 
L 71.124847 381.585023 
L 71.124847 379.240756 
L 71.124847 377.379276 
L 73.331126 384.591435 
L 73.331126 375.287267 
L 73.331126 372.533587 
L 75.338491 381.585023 
L 75.338491 376.941626 
L 75.338491 376.726603 
L 76.445426 391.178775 
L 76.445426 381.864716 
L 76.445426 380.506502 
L 77.654096 381.864716 
L 77.654096 381.864716 
L 77.654096 379.240756 
L 79.765473 381.309473 
L 81.178373 391.178775 
L 81.989214 382.14868 
L 81.989214 380.506502 
L 81.989214 380.506502 
L 83.039968 381.309473 
L 83.039968 380.246368 
L 83.039968 374.702949 
L 84.086166 391.178775 
L 84.086166 383.02755 
L 84.086166 380.506502 
L 85.217397 384.920634 
L 85.217397 376.941626 
L 85.217397 373.951361 
L 87.548187 391.178775 
L 88.516945 391.178775 
L 88.516945 386.660151 
L 88.516945 377.602025 
L 90.834069 386.298989 
L 90.834069 384.591435 
L 90.834069 374.323358 
L 91.857491 383.02755 
L 92.940132 381.585023 
L 96.137186 391.178775 
L 98.362446 381.864716 
L 99.591615 379.487108 
L 100.566447 385.944706 
L 101.766007 381.585023 
L 103.817406 391.178775 
L 105.149069 370.74538 
L 107.107843 370.437947 
L 111.528753 375.090448 
L 112.703258 387.787725 
L 115.961809 386.298989 
L 118.97817 374.895689 
L 120.444974 375.090448 
L 121.528374 387.787725 
L 123.515999 372.363729 
L 126.766198 378.286738 
L 127.852635 378.997625 
L 131.319211 379.240756 
L 134.441103 370.901024 
L 135.636867 379.989822 
L 136.806058 377.827473 
L 139.277303 391.178775 
L 142.200281 381.585023 
L 143.186501 391.178775 
L 144.229662 381.864716 
L 146.691038 384.267961 
L 149.738527 378.055688 
L 150.973769 391.178775 
L 153.069962 375.89054 
L 154.341647 377.827473 
L 157.341306 382.729955 
L 164.964584 376.096059 
L 168.494934 381.585023 
L 173.854233 371.699399 
L 177.071786 380.506502 
L 180.339448 381.037946 
L 187.980947 376.096059 
" clip-path="url(#p379e5dbc8c)" style="fill: none; stroke: #332288; stroke-width: 3; stroke-linecap: round"/>
   </g>
   <g id="line2d_10">
    <path d="M 47.2035 365.511312 
L 48.386357 384.920634 
L 49.569973 372.70501 
L 50.206955 375.287267 
L 51.307816 382.14868 
L 52.343386 374.323358 
L 53.457154 379.487108 
L 54.56333 381.864716 
L 54.56333 379.487108 
L 54.56333 372.70501 
L 55.932195 378.286738 
L 56.98143 371.057981 
L 57.858324 374.136429 
L 57.858324 372.533587 
L 57.858324 371.375925 
L 59.048773 378.055688 
L 59.048773 373.951361 
L 59.048773 373.586657 
L 60.014494 379.487108 
L 60.014494 376.096059 
L 60.014494 375.287267 
L 61.230757 380.506502 
L 61.230757 378.286738 
L 61.230757 377.379276 
L 62.176739 377.159164 
L 62.176739 373.406953 
L 62.176739 372.533587 
L 64.849935 372.533587 
L 65.490712 380.246368 
L 65.490712 375.687267 
L 65.490712 373.406953 
L 66.583982 383.950017 
L 66.583982 376.096059 
L 66.583982 375.090448 
L 67.660549 375.287267 
L 67.660549 370.286116 
L 67.660549 368.97268 
L 68.753059 388.179304 
L 68.753059 380.770326 
L 68.753059 376.096059 
L 69.919973 391.178775 
L 69.919973 388.179304 
L 69.919973 386.298989 
L 71.124847 381.864716 
L 71.124847 375.287267 
L 71.124847 369.400268 
L 73.331126 381.864716 
L 73.331126 378.286738 
L 73.331126 375.287267 
L 75.338491 384.591435 
L 75.338491 383.02755 
L 75.338491 374.323358 
L 76.445426 391.178775 
L 76.445426 388.179304 
L 76.445426 383.329984 
L 77.654096 388.179304 
L 77.654096 381.864716 
L 77.654096 376.303874 
L 79.765473 385.597046 
L 81.178373 391.178775 
L 81.989214 378.055688 
L 81.989214 377.159164 
L 81.989214 377.159164 
L 83.039968 386.298989 
L 83.039968 383.02755 
L 83.039968 376.514038 
L 84.086166 390.271313 
L 84.086166 380.246368 
L 84.086166 376.941626 
L 85.217397 391.178775 
L 85.217397 387.787725 
L 85.217397 373.406953 
L 87.548187 391.178775 
L 88.516945 391.178775 
L 88.516945 384.920634 
L 88.516945 374.512185 
L 90.834069 391.178775 
L 90.834069 384.591435 
L 90.834069 380.506502 
L 91.857491 379.487108 
L 92.940132 388.179304 
L 96.137186 379.240756 
L 98.362446 384.920634 
L 99.591615 377.159164 
L 100.566447 381.585023 
L 101.766007 383.02755 
L 103.817406 375.090448 
L 105.149069 379.989822 
L 107.107843 377.159164 
L 111.528753 375.89054 
L 112.703258 374.895689 
L 115.961809 388.179304 
L 118.97817 378.055688 
L 120.444974 376.941626 
L 121.528374 387.028466 
L 123.515999 376.726603 
L 126.766198 384.267961 
L 127.852635 384.591435 
L 131.319211 376.726603 
L 134.441103 378.997625 
L 135.636867 372.533587 
L 136.806058 368.417436 
L 139.277303 378.997625 
L 142.200281 379.240756 
L 143.186501 373.768115 
L 144.229662 376.941626 
L 146.691038 381.309473 
L 149.738527 378.286738 
L 150.973769 380.246368 
L 153.069962 378.286738 
L 154.341647 374.702949 
L 157.341306 374.895689 
L 164.964584 368.832307 
L 168.494934 373.228968 
L 173.854233 376.096059 
L 177.071786 386.298989 
L 180.339448 375.090448 
L 187.980947 379.240756 
" clip-path="url(#p379e5dbc8c)" style="fill: none; stroke: #332288; stroke-width: 3; stroke-linecap: round"/>
   </g>
   <g id="line2d_11">
    <path d="M 47.2035 363.30764 
L 48.386357 383.329984 
L 49.569973 380.506502 
L 50.206955 375.090448 
L 51.307816 375.287267 
L 52.343386 372.028598 
L 53.457154 374.895689 
L 54.56333 377.159164 
L 54.56333 372.70501 
L 54.56333 370.901024 
L 55.932195 377.159164 
L 56.98143 367.097785 
L 57.858324 379.487108 
L 57.858324 378.520694 
L 57.858324 375.486192 
L 59.048773 380.506502 
L 59.048773 378.055688 
L 59.048773 376.096059 
L 60.014494 382.14868 
L 60.014494 377.159164 
L 60.014494 375.090448 
L 61.230757 388.179304 
L 61.230757 384.591435 
L 61.230757 376.303874 
L 62.176739 380.506502 
L 62.176739 376.096059 
L 62.176739 374.512185 
L 64.849935 375.287267 
L 65.490712 391.178775 
L 65.490712 383.02755 
L 65.490712 379.487108 
L 66.583982 383.02755 
L 66.583982 380.506502 
L 66.583982 379.240756 
L 67.660549 386.298989 
L 67.660549 381.585023 
L 67.660549 374.895689 
L 68.753059 384.591435 
L 68.753059 378.286738 
L 68.753059 375.287267 
L 69.919973 384.267961 
L 69.919973 383.02755 
L 69.919973 380.506502 
L 71.124847 386.298989 
L 71.124847 383.329984 
L 71.124847 374.136429 
L 73.331126 378.286738 
L 73.331126 374.895689 
L 73.331126 374.512185 
L 75.338491 391.178775 
L 75.338491 378.055688 
L 75.338491 375.287267 
L 76.445426 388.179304 
L 76.445426 380.506502 
L 76.445426 371.86327 
L 77.654096 391.178775 
L 77.654096 391.178775 
L 77.654096 388.179304 
L 79.765473 389.406074 
L 81.178373 391.178775 
L 81.989214 384.591435 
L 81.989214 383.02755 
L 81.989214 377.827473 
L 83.039968 382.729955 
L 83.039968 380.246368 
L 83.039968 376.941626 
L 84.086166 384.267961 
L 84.086166 379.240756 
L 84.086166 376.941626 
L 85.217397 386.660151 
L 85.217397 380.770326 
L 85.217397 371.86327 
L 87.548187 391.178775 
L 88.516945 382.14868 
L 88.516945 381.585023 
L 88.516945 379.240756 
L 90.834069 379.240756 
L 90.834069 375.287267 
L 90.834069 374.323358 
L 91.857491 381.864716 
L 92.940132 380.246368 
L 96.137186 380.506502 
L 98.362446 388.579304 
L 99.591615 383.329984 
L 100.566447 383.02755 
L 101.766007 391.178775 
L 103.817406 372.363729 
L 105.149069 380.246368 
L 107.107843 375.486192 
L 111.528753 372.533587 
L 112.703258 381.585023 
L 115.961809 379.240756 
L 118.97817 378.997625 
L 120.444974 384.591435 
L 121.528374 382.729955 
L 123.515999 379.240756 
L 126.766198 375.486192 
L 127.852635 368.97268 
L 131.319211 371.699399 
L 134.441103 376.941626 
L 135.636867 376.514038 
L 136.806058 378.757631 
L 139.277303 376.726603 
L 142.200281 383.329984 
L 143.186501 382.729955 
L 144.229662 381.585023 
L 146.691038 374.702949 
L 149.738527 384.591435 
L 150.973769 381.585023 
L 153.069962 389.833663 
L 154.341647 373.951361 
L 157.341306 374.895689 
L 164.964584 385.944706 
L 168.494934 387.787725 
L 173.854233 378.997625 
L 177.071786 386.298989 
L 180.339448 376.303874 
L 187.980947 369.545011 
" clip-path="url(#p379e5dbc8c)" style="fill: none; stroke: #332288; stroke-width: 3; stroke-linecap: round"/>
   </g>
   <g id="line2d_12">
    <path d="M 47.2035 370.336589 
L 48.386357 385.143383 
L 49.569973 366.226757 
L 50.206955 358.998686 
L 51.307816 351.836635 
L 52.343386 341.699871 
L 53.457154 330.820529 
L 54.56333 322.511539 
L 55.932195 311.622965 
L 56.98143 315.195599 
L 57.858324 322.351272 
L 59.048773 332.049907 
L 60.014494 332.762274 
L 61.230757 334.332746 
L 62.176739 333.657116 
L 64.849935 338.740107 
L 65.490712 339.192363 
L 66.583982 343.420978 
L 67.660549 348.670212 
L 68.753059 351.061681 
L 69.919973 352.914041 
L 71.124847 360.604551 
L 73.331126 366.457807 
L 75.338491 367.083636 
L 76.445426 371.358118 
L 77.654096 379.708861 
L 79.765473 391.178775 
L 81.178373 391.178775 
L 81.989214 390.075529 
L 83.039968 390.369983 
L 84.086166 389.034076 
L 85.217397 388.445012 
L 87.548187 391.178775 
L 88.516945 388.400463 
L 90.834069 389.881785 
L 91.857491 391.178775 
L 92.940132 389.978405 
L 96.137186 391.178775 
L 98.362446 391.178775 
L 99.591615 390.71951 
L 100.566447 384.920634 
L 101.766007 391.178775 
L 103.817406 391.178775 
L 105.149069 390.568908 
L 107.107843 391.178775 
L 111.528753 387.53118 
L 112.703258 390.71951 
L 115.961809 391.178775 
L 118.97817 389.265702 
L 120.444974 391.178775 
L 121.528374 390.568908 
L 123.515999 391.178775 
L 126.766198 389.978405 
L 127.852635 391.178775 
L 131.319211 389.406074 
L 134.441103 391.178775 
L 135.636867 390.71951 
L 136.806058 389.978405 
L 139.277303 391.178775 
L 142.200281 391.178775 
L 143.186501 388.850831 
L 144.229662 390.71951 
L 146.691038 388.445012 
L 149.738527 389.978405 
L 150.973769 391.178775 
L 153.069962 391.178775 
L 154.341647 390.71951 
L 157.341306 391.178775 
L 164.964584 391.178775 
L 168.494934 391.178775 
L 173.854233 390.71951 
L 177.071786 385.031675 
L 180.339448 391.178775 
L 187.980947 391.178775 
" clip-path="url(#p379e5dbc8c)" style="fill: none; stroke: #000000; stroke-linecap: round"/>
   </g>
   <g id="patch_9">
    <path d="M 47.2035 396.529453 
L 47.2035 288.483594 
" style="fill: none; stroke: #262626; stroke-linejoin: miter; stroke-linecap: square"/>
   </g>
   <g id="patch_10">
    <path d="M 47.2035 396.529453 
L 200.26125 396.529453 
" style="fill: none; stroke: #262626; stroke-linejoin: miter; stroke-linecap: square"/>
   </g>
   <g id="text_15">
    <text style="fill: #262626; font: 9.6px 'Arial', 'DejaVu Sans', 'Liberation Sans', 'Bitstream Vera Sans', sans-serif; text-anchor: middle" x="123.732375" y="283.483594" transform="rotate(-0 123.732375 283.483594)">Marinobacter adhaerens HP15</text>
   </g>
  </g>
  <g id="axes_4">
   <g id="patch_11">
    <path d="M 47.2035 531.2355 
L 200.26125 531.2355 
L 200.26125 423.189641 
L 47.2035 423.189641 
L 47.2035 531.2355 
z
" style="fill: none"/>
   </g>
   <g id="matplotlib.axis_7">
    <g id="xtick_10">
     <g id="text_16">
      <text style="fill: #262626; font: 8.8px 'Arial', 'DejaVu Sans', 'Liberation Sans', 'Bitstream Vera Sans', sans-serif; text-anchor: middle" x="47.2035" y="546.334375" transform="rotate(-0 47.2035 546.334375)">0</text>
     </g>
    </g>
    <g id="xtick_11">
     <g id="text_17">
      <text style="fill: #262626; font: 8.8px 'Arial', 'DejaVu Sans', 'Liberation Sans', 'Bitstream Vera Sans', sans-serif; text-anchor: middle" x="112.799679" y="546.334375" transform="rotate(-0 112.799679 546.334375)">60</text>
     </g>
    </g>
    <g id="xtick_12">
     <g id="text_18">
      <text style="fill: #262626; font: 8.8px 'Arial', 'DejaVu Sans', 'Liberation Sans', 'Bitstream Vera Sans', sans-serif; text-anchor: middle" x="178.395857" y="546.334375" transform="rotate(-0 178.395857 546.334375)">120</text>
     </g>
    </g>
    <g id="text_19">
     <text style="fill: #262626; font: 9.6px 'Arial', 'DejaVu Sans', 'Liberation Sans', 'Bitstream Vera Sans', sans-serif; text-anchor: middle" x="123.732375" y="559.954875" transform="rotate(-0 123.732375 559.954875)">day</text>
    </g>
   </g>
   <g id="matplotlib.axis_8">
    <g id="ytick_79">
     <g id="text_20">
      <!-- $\mathdefault{10^{-1}}$ -->
      <g style="fill: #262626" transform="translate(20.9795 512.505476)">
       <text>
        <tspan style="font: 8.8px 'Arial'" x="0 4.892395" y="-0.4372624999999992">10</tspan>
        <tspan style="font: 6.16px 'Arial'" x="9.938116 13.534183" y="-6.570312499999999">−1</tspan>
       </text>
      </g>
     </g>
    </g>
    <g id="ytick_80">
     <g id="text_21">
      <!-- $\mathdefault{10^{0}}$ -->
      <g style="fill: #262626" transform="translate(24.5875 469.679058)">
       <text>
        <tspan style="font: 8.8px 'Arial'" x="0 4.892395" y="-0.4372624999999992">10</tspan>
        <tspan style="font: 6.16px 'Arial'" x="9.938116" y="-6.570312499999999">0</tspan>
       </text>
      </g>
     </g>
    </g>
    <g id="ytick_81">
     <g id="text_22">
      <!-- $\mathdefault{10^{1}}$ -->
      <g style="fill: #262626" transform="translate(24.5875 426.852641)">
       <text>
        <tspan style="font: 8.8px 'Arial'" x="0 4.892395" y="-0.4372624999999992">10</tspan>
        <tspan style="font: 6.16px 'Arial'" x="9.938116" y="-6.570312499999999">1</tspan>
       </text>
      </g>
     </g>
    </g>
    <g id="ytick_82"/>
    <g id="ytick_83"/>
    <g id="ytick_84"/>
    <g id="ytick_85"/>
    <g id="ytick_86"/>
    <g id="ytick_87"/>
    <g id="ytick_88"/>
    <g id="ytick_89"/>
    <g id="ytick_90"/>
    <g id="ytick_91"/>
    <g id="ytick_92"/>
    <g id="ytick_93"/>
    <g id="ytick_94"/>
    <g id="ytick_95"/>
    <g id="ytick_96"/>
    <g id="ytick_97"/>
    <g id="ytick_98"/>
    <g id="ytick_99"/>
    <g id="ytick_100"/>
    <g id="ytick_101"/>
    <g id="ytick_102"/>
    <g id="ytick_103"/>
    <g id="ytick_104"/>
    <g id="text_23">
     <text style="fill: #262626; font: 9.6px 'Arial', 'DejaVu Sans', 'Liberation Sans', 'Bitstream Vera Sans', sans-serif; text-anchor: middle" x="14.0715" y="477.21257" transform="rotate(-90 14.0715 477.21257)">Fluorescence</text>
    </g>
   </g>
   <g id="line2d_13">
    <path d="M 47.2035 504.543965 
L 48.386357 521.005036 
L 49.569973 515.476372 
L 50.206955 525.884821 
L 51.307816 522.885351 
L 52.343386 523.28535 
L 53.457154 525.884821 
L 54.56333 525.884821 
L 54.56333 522.885351 
L 54.56333 522.493772 
L 55.932195 525.884821 
L 56.98143 508.292704 
L 57.858324 525.884821 
L 57.858324 524.539709 
L 57.858324 519.626681 
L 59.048773 525.884821 
L 59.048773 521.366198 
L 59.048773 517.733597 
L 60.014494 525.884821 
L 60.014494 525.884821 
L 60.014494 525.884821 
L 61.230757 525.884821 
L 61.230757 525.884821 
L 61.230757 522.885351 
L 62.176739 525.884821 
L 62.176739 525.884821 
L 62.176739 525.884821 
L 64.849935 525.884821 
L 65.490712 525.884821 
L 65.490712 525.884821 
L 65.490712 525.884821 
L 66.583982 525.884821 
L 66.583982 525.884821 
L 66.583982 525.884821 
L 67.660549 525.884821 
L 67.660549 525.884821 
L 67.660549 525.884821 
L 68.753059 525.884821 
L 68.753059 525.884821 
L 68.753059 525.884821 
L 69.919973 525.884821 
L 69.919973 525.884821 
L 69.919973 522.885351 
L 71.124847 525.884821 
L 71.124847 525.884821 
L 71.124847 525.884821 
L 73.331126 525.884821 
L 73.331126 525.884821 
L 73.331126 521.366198 
L 75.338491 525.884821 
L 75.338491 525.884821 
L 75.338491 516.570763 
L 76.445426 525.884821 
L 76.445426 525.884821 
L 76.445426 525.884821 
L 77.654096 525.884821 
L 77.654096 525.884821 
L 77.654096 524.539709 
L 79.765473 525.884821 
L 81.178373 525.884821 
L 81.989214 525.884821 
L 81.989214 525.884821 
L 81.989214 524.539709 
L 83.039968 525.884821 
L 83.039968 525.884821 
L 83.039968 517.733597 
L 84.086166 525.884821 
L 84.086166 521.005036 
L 84.086166 517.733597 
L 85.217397 525.884821 
L 85.217397 525.884821 
L 85.217397 525.884821 
L 87.548187 525.884821 
L 88.516945 525.884821 
L 88.516945 525.884821 
L 88.516945 518.036031 
L 90.834069 525.884821 
L 90.834069 524.539709 
L 90.834069 524.539709 
L 91.857491 518.036031 
L 92.940132 525.884821 
L 96.137186 524.97736 
L 98.362446 525.884821 
L 99.591615 525.884821 
L 100.566447 525.884821 
L 101.766007 525.884821 
L 103.817406 525.884821 
L 105.149069 525.884821 
L 107.107843 525.884821 
L 111.528753 525.884821 
L 112.703258 525.884821 
L 115.961809 525.884821 
L 118.97817 525.884821 
L 120.444974 522.885351 
L 121.528374 525.884821 
L 123.515999 525.884821 
L 126.766198 525.884821 
L 127.852635 525.884821 
L 131.319211 522.493772 
L 134.441103 525.884821 
L 135.636867 525.884821 
L 136.806058 525.884821 
L 139.277303 525.884821 
L 142.200281 525.884821 
L 143.186501 525.884821 
L 144.229662 522.885351 
L 146.691038 520.303093 
L 149.738527 525.884821 
L 150.973769 525.884821 
L 153.069962 525.884821 
L 154.341647 525.884821 
L 157.341306 525.884821 
L 164.964584 521.005036 
L 168.494934 525.884821 
L 173.854233 525.884821 
L 177.071786 522.885351 
L 180.339448 523.694142 
L 187.980947 525.884821 
" clip-path="url(#pb44787b726)" style="fill: none; stroke: #332288; stroke-width: 3; stroke-linecap: round"/>
   </g>
   <g id="line2d_14">
    <path d="M 47.2035 509.218232 
L 48.386357 525.884821 
L 49.569973 525.884821 
L 50.206955 525.884821 
L 51.307816 525.884821 
L 52.343386 525.884821 
L 53.457154 516.854727 
L 54.56333 525.884821 
L 54.56333 525.884821 
L 54.56333 521.005036 
L 55.932195 525.884821 
L 56.98143 515.476372 
L 57.858324 525.884821 
L 57.858324 518.974008 
L 57.858324 508.292704 
L 59.048773 525.884821 
L 59.048773 525.884821 
L 59.048773 515.476372 
L 60.014494 525.884821 
L 60.014494 522.885351 
L 60.014494 522.885351 
L 61.230757 525.884821 
L 61.230757 525.884821 
L 61.230757 513.946803 
L 62.176739 525.884821 
L 62.176739 524.539709 
L 62.176739 516.570763 
L 64.849935 525.884821 
L 65.490712 525.884821 
L 65.490712 525.884821 
L 65.490712 524.539709 
L 66.583982 525.884821 
L 66.583982 525.884821 
L 66.583982 525.884821 
L 67.660549 525.884821 
L 67.660549 525.884821 
L 67.660549 525.884821 
L 68.753059 525.884821 
L 68.753059 525.884821 
L 68.753059 521.005036 
L 69.919973 525.884821 
L 69.919973 524.97736 
L 69.919973 522.493772 
L 71.124847 525.884821 
L 71.124847 525.884821 
L 71.124847 525.884821 
L 73.331126 525.884821 
L 73.331126 525.884821 
L 73.331126 522.885351 
L 75.338491 525.884821 
L 75.338491 524.97736 
L 75.338491 518.974008 
L 76.445426 525.884821 
L 76.445426 525.884821 
L 76.445426 521.005036 
L 77.654096 525.884821 
L 77.654096 525.884821 
L 77.654096 525.884821 
L 79.765473 525.884821 
L 81.178373 525.884821 
L 81.989214 525.884821 
L 81.989214 525.884821 
L 81.989214 525.884821 
L 83.039968 525.884821 
L 83.039968 525.884821 
L 83.039968 525.884821 
L 84.086166 525.884821 
L 84.086166 525.884821 
L 84.086166 525.884821 
L 85.217397 525.884821 
L 85.217397 525.884821 
L 85.217397 525.884821 
L 87.548187 525.884821 
L 88.516945 525.884821 
L 88.516945 525.884821 
L 88.516945 524.97736 
L 90.834069 525.884821 
L 90.834069 521.005036 
L 90.834069 518.656064 
L 91.857491 525.884821 
L 92.940132 525.884821 
L 96.137186 525.884821 
L 98.362446 525.884821 
L 99.591615 525.884821 
L 100.566447 525.884821 
L 101.766007 525.884821 
L 103.817406 524.539709 
L 105.149069 525.884821 
L 107.107843 525.884821 
L 111.528753 525.884821 
L 112.703258 525.884821 
L 115.961809 522.885351 
L 118.97817 525.884821 
L 120.444974 522.493772 
L 121.528374 525.884821 
L 123.515999 525.884821 
L 126.766198 525.884821 
L 127.852635 525.884821 
L 131.319211 524.539709 
L 134.441103 525.884821 
L 135.636867 514.952414 
L 136.806058 525.884821 
L 139.277303 525.884821 
L 142.200281 525.884821 
L 143.186501 525.884821 
L 144.229662 525.884821 
L 146.691038 522.110268 
L 149.738527 525.884821 
L 150.973769 524.539709 
L 153.069962 525.884821 
L 154.341647 525.884821 
L 157.341306 525.884821 
L 164.964584 525.884821 
L 168.494934 525.884821 
L 173.854233 521.005036 
L 177.071786 525.884821 
L 180.339448 515.743993 
L 187.980947 522.885351 
" clip-path="url(#pb44787b726)" style="fill: none; stroke: #332288; stroke-width: 3; stroke-linecap: round"/>
   </g>
   <g id="line2d_15">
    <path d="M 47.2035 512.085323 
L 48.386357 525.884821 
L 49.569973 525.884821 
L 50.206955 524.97736 
L 51.307816 525.884821 
L 52.343386 525.884821 
L 53.457154 522.885351 
L 54.56333 525.884821 
L 54.56333 525.884821 
L 54.56333 516.570763 
L 55.932195 524.539709 
L 56.98143 519.297482 
L 57.858324 524.97736 
L 57.858324 524.539709 
L 57.858324 521.366198 
L 59.048773 525.884821 
L 59.048773 525.884821 
L 59.048773 525.884821 
L 60.014494 524.97736 
L 60.014494 522.493772 
L 60.014494 521.005036 
L 61.230757 525.884821 
L 61.230757 525.884821 
L 61.230757 525.884821 
L 62.176739 525.884821 
L 62.176739 525.884821 
L 62.176739 525.884821 
L 64.849935 525.884821 
L 65.490712 525.884821 
L 65.490712 525.884821 
L 65.490712 521.005036 
L 66.583982 525.884821 
L 66.583982 525.884821 
L 66.583982 521.005036 
L 67.660549 525.884821 
L 67.660549 525.884821 
L 67.660549 525.884821 
L 68.753059 525.884821 
L 68.753059 519.297482 
L 68.753059 519.297482 
L 69.919973 525.884821 
L 69.919973 525.884821 
L 69.919973 522.493772 
L 71.124847 525.884821 
L 71.124847 525.884821 
L 71.124847 522.493772 
L 73.331126 525.884821 
L 73.331126 524.97736 
L 73.331126 522.885351 
L 75.338491 525.884821 
L 75.338491 525.884821 
L 75.338491 522.493772 
L 76.445426 525.884821 
L 76.445426 525.884821 
L 76.445426 522.493772 
L 77.654096 525.884821 
L 77.654096 525.884821 
L 77.654096 521.005036 
L 79.765473 525.884821 
L 81.178373 525.884821 
L 81.989214 525.884821 
L 81.989214 525.884821 
L 81.989214 524.539709 
L 83.039968 525.884821 
L 83.039968 525.884821 
L 83.039968 522.493772 
L 84.086166 525.884821 
L 84.086166 525.884821 
L 84.086166 525.884821 
L 85.217397 525.884821 
L 85.217397 525.884821 
L 85.217397 525.884821 
L 87.548187 525.884821 
L 88.516945 525.884821 
L 88.516945 525.884821 
L 88.516945 525.884821 
L 90.834069 525.884821 
L 90.834069 525.884821 
L 90.834069 525.884821 
L 91.857491 525.884821 
L 92.940132 524.97736 
L 96.137186 522.885351 
L 98.362446 525.884821 
L 99.591615 525.884821 
L 100.566447 525.884821 
L 101.766007 525.884821 
L 103.817406 525.884821 
L 105.149069 525.884821 
L 107.107843 525.884821 
L 111.528753 525.884821 
L 112.703258 525.884821 
L 115.961809 525.884821 
L 118.97817 524.539709 
L 120.444974 524.112121 
L 121.528374 524.112121 
L 123.515999 524.539709 
L 126.766198 525.884821 
L 127.852635 525.884821 
L 131.319211 525.884821 
L 134.441103 520.650753 
L 135.636867 525.884821 
L 136.806058 525.884821 
L 139.277303 525.884821 
L 142.200281 525.884821 
L 143.186501 525.884821 
L 144.229662 524.539709 
L 146.691038 525.884821 
L 149.738527 525.884821 
L 150.973769 525.884821 
L 153.069962 516.570763 
L 154.341647 524.539709 
L 157.341306 525.884821 
L 164.964584 525.884821 
L 168.494934 525.884821 
L 173.854233 525.884821 
L 177.071786 522.885351 
L 180.339448 518.343464 
L 187.980947 525.884821 
" clip-path="url(#pb44787b726)" style="fill: none; stroke: #332288; stroke-width: 3; stroke-linecap: round"/>
   </g>
   <g id="line2d_16">
    <path d="M 47.2035 505.042635 
L 48.386357 519.84943 
L 49.569973 500.932804 
L 50.206955 493.704733 
L 51.307816 486.542682 
L 52.343386 476.405918 
L 53.457154 465.526576 
L 54.56333 457.217586 
L 55.932195 446.329012 
L 56.98143 449.901646 
L 57.858324 457.057319 
L 59.048773 466.755954 
L 60.014494 467.468321 
L 61.230757 469.038793 
L 62.176739 468.363163 
L 64.849935 473.446154 
L 65.490712 473.89841 
L 66.583982 478.127025 
L 67.660549 483.376259 
L 68.753059 485.767728 
L 69.919973 487.620087 
L 71.124847 495.310598 
L 73.331126 501.163854 
L 75.338491 501.789683 
L 76.445426 506.064165 
L 77.654096 514.414907 
L 79.765473 525.884821 
L 81.178373 525.884821 
L 81.989214 524.781576 
L 83.039968 525.07603 
L 84.086166 523.740123 
L 85.217397 523.151059 
L 87.548187 525.884821 
L 88.516945 523.10651 
L 90.834069 524.587832 
L 91.857491 525.884821 
L 92.940132 524.684452 
L 96.137186 525.884821 
L 98.362446 525.884821 
L 99.591615 525.425557 
L 100.566447 519.626681 
L 101.766007 525.884821 
L 103.817406 525.884821 
L 105.149069 525.274954 
L 107.107843 525.884821 
L 111.528753 522.237227 
L 112.703258 525.425557 
L 115.961809 525.884821 
L 118.97817 523.971748 
L 120.444974 525.884821 
L 121.528374 525.274954 
L 123.515999 525.884821 
L 126.766198 524.684452 
L 127.852635 525.884821 
L 131.319211 524.112121 
L 134.441103 525.884821 
L 135.636867 525.425557 
L 136.806058 524.684452 
L 139.277303 525.884821 
L 142.200281 525.884821 
L 143.186501 523.556877 
L 144.229662 525.425557 
L 146.691038 523.151059 
L 149.738527 524.684452 
L 150.973769 525.884821 
L 153.069962 525.884821 
L 154.341647 525.425557 
L 157.341306 525.884821 
L 164.964584 525.884821 
L 168.494934 525.884821 
L 173.854233 525.425557 
L 177.071786 519.737722 
L 180.339448 525.884821 
L 187.980947 525.884821 
" clip-path="url(#pb44787b726)" style="fill: none; stroke: #000000; stroke-linecap: round"/>
   </g>
   <g id="patch_12">
    <path d="M 47.2035 531.2355 
L 47.2035 423.189641 
" style="fill: none; stroke: #262626; stroke-linejoin: miter; stroke-linecap: square"/>
   </g>
   <g id="patch_13">
    <path d="M 47.2035 531.2355 
L 200.26125 531.2355 
" style="fill: none; stroke: #262626; stroke-linejoin: miter; stroke-linecap: square"/>
   </g>
   <g id="text_24">
    <text style="fill: #262626; font: 9.6px 'Arial', 'DejaVu Sans', 'Liberation Sans', 'Bitstream Vera Sans', sans-serif; text-anchor: middle" x="123.732375" y="418.189641" transform="rotate(-0 123.732375 418.189641)">Phaeobacter gallaeciensis</text>
   </g>
  </g>
 </g>
 <defs>
  <clipPath id="p1d7374f50f">
   <rect x="47.2035" y="19.0715" width="153.05775" height="108.045859"/>
  </clipPath>
  <clipPath id="p971164d001">
   <rect x="47.2035" y="153.777547" width="153.05775" height="108.045859"/>
  </clipPath>
  <clipPath id="p379e5dbc8c">
   <rect x="47.2035" y="288.483594" width="153.05775" height="108.045859"/>
  </clipPath>
  <clipPath id="pb44787b726">
   <rect x="47.2035" y="423.189641" width="153.05775" height="108.045859"/>
  </clipPath>
 </defs>
</svg>
