<?xml version="1.0" encoding="utf-8" standalone="no"?>
<!DOCTYPE svg PUBLIC "-//W3C//DTD SVG 1.1//EN"
  "http://www.w3.org/Graphics/SVG/1.1/DTD/svg11.dtd">
<svg xmlns:xlink="http://www.w3.org/1999/xlink" width="216pt" height="144pt" viewBox="0 0 216 144" xmlns="http://www.w3.org/2000/svg" version="1.1">
 <metadata>
  <rdf:RDF xmlns:dc="http://purl.org/dc/elements/1.1/" xmlns:cc="http://creativecommons.org/ns#" xmlns:rdf="http://www.w3.org/1999/02/22-rdf-syntax-ns#">
   <cc:Work>
    <dc:type rdf:resource="http://purl.org/dc/dcmitype/StillImage"/>
    <dc:date>2024-12-17T13:28:22.566373</dc:date>
    <dc:format>image/svg+xml</dc:format>
    <dc:creator>
     <cc:Agent>
      <dc:title>Matplotlib v3.8.0, https://matplotlib.org/</dc:title>
     </cc:Agent>
    </dc:creator>
   </cc:Work>
  </rdf:RDF>
 </metadata>
 <defs>
  <style type="text/css">*{stroke-linejoin: round; stroke-linecap: butt}</style>
 </defs>
 <g id="figure_1">
  <g id="patch_1">
   <path d="M 0 144 
L 216 144 
L 216 0 
L 0 0 
z
" style="fill: #ffffff"/>
  </g>
  <g id="axes_1">
   <g id="patch_2">
    <path d="M 45.318 102.732 
L 198.37575 102.732 
L 198.37575 22.568 
L 45.318 22.568 
z
" style="fill: #ffffff"/>
   </g>
   <g id="matplotlib.axis_1">
    <g id="xtick_1">
     <g id="text_1">
      <!-- 0 -->
      <g style="fill: #262626" transform="translate(42.871188 117.830875) scale(0.088 -0.088)">
       <defs>
        <path id="ArialMT-30" d="M 266 2259 
Q 266 3072 433 3567 
Q 600 4063 929 4331 
Q 1259 4600 1759 4600 
Q 2128 4600 2406 4451 
Q 2684 4303 2865 4023 
Q 3047 3744 3150 3342 
Q 3253 2941 3253 2259 
Q 3253 1453 3087 958 
Q 2922 463 2592 192 
Q 2263 -78 1759 -78 
Q 1097 -78 719 397 
Q 266 969 266 2259 
z
M 844 2259 
Q 844 1131 1108 757 
Q 1372 384 1759 384 
Q 2147 384 2411 759 
Q 2675 1134 2675 2259 
Q 2675 3391 2411 3762 
Q 2147 4134 1753 4134 
Q 1366 4134 1134 3806 
Q 844 3388 844 2259 
z
" transform="scale(0.015625)"/>
       </defs>
       <use xlink:href="#ArialMT-30"/>
      </g>
     </g>
    </g>
    <g id="xtick_2">
     <g id="text_2">
      <!-- 60 -->
      <g style="fill: #262626" transform="translate(106.020554 117.830875) scale(0.088 -0.088)">
       <defs>
        <path id="ArialMT-36" d="M 3184 3459 
L 2625 3416 
Q 2550 3747 2413 3897 
Q 2184 4138 1850 4138 
Q 1581 4138 1378 3988 
Q 1113 3794 959 3422 
Q 806 3050 800 2363 
Q 1003 2672 1297 2822 
Q 1591 2972 1913 2972 
Q 2475 2972 2870 2558 
Q 3266 2144 3266 1488 
Q 3266 1056 3080 686 
Q 2894 316 2569 119 
Q 2244 -78 1831 -78 
Q 1128 -78 684 439 
Q 241 956 241 2144 
Q 241 3472 731 4075 
Q 1159 4600 1884 4600 
Q 2425 4600 2770 4297 
Q 3116 3994 3184 3459 
z
M 888 1484 
Q 888 1194 1011 928 
Q 1134 663 1356 523 
Q 1578 384 1822 384 
Q 2178 384 2434 671 
Q 2691 959 2691 1453 
Q 2691 1928 2437 2201 
Q 2184 2475 1800 2475 
Q 1419 2475 1153 2201 
Q 888 1928 888 1484 
z
" transform="scale(0.015625)"/>
       </defs>
       <use xlink:href="#ArialMT-36"/>
       <use xlink:href="#ArialMT-30" x="55.615234"/>
      </g>
     </g>
    </g>
    <g id="xtick_3">
     <g id="text_3">
      <!-- 120 -->
      <g style="fill: #262626" transform="translate(169.16992 117.830875) scale(0.088 -0.088)">
       <defs>
        <path id="ArialMT-31" d="M 2384 0 
L 1822 0 
L 1822 3584 
Q 1619 3391 1289 3197 
Q 959 3003 697 2906 
L 697 3450 
Q 1169 3672 1522 3987 
Q 1875 4303 2022 4600 
L 2384 4600 
L 2384 0 
z
" transform="scale(0.015625)"/>
        <path id="ArialMT-32" d="M 3222 541 
L 3222 0 
L 194 0 
Q 188 203 259 391 
Q 375 700 629 1000 
Q 884 1300 1366 1694 
Q 2113 2306 2375 2664 
Q 2638 3022 2638 3341 
Q 2638 3675 2398 3904 
Q 2159 4134 1775 4134 
Q 1369 4134 1125 3890 
Q 881 3647 878 3216 
L 300 3275 
Q 359 3922 746 4261 
Q 1134 4600 1788 4600 
Q 2447 4600 2831 4234 
Q 3216 3869 3216 3328 
Q 3216 3053 3103 2787 
Q 2991 2522 2730 2228 
Q 2469 1934 1863 1422 
Q 1356 997 1212 845 
Q 1069 694 975 541 
L 3222 541 
z
" transform="scale(0.015625)"/>
       </defs>
       <use xlink:href="#ArialMT-31"/>
       <use xlink:href="#ArialMT-32" x="55.615234"/>
       <use xlink:href="#ArialMT-30" x="111.230469"/>
      </g>
     </g>
    </g>
    <g id="text_4">
     <!-- day -->
     <g style="fill: #262626" transform="translate(114.108375 131.451375) scale(0.096 -0.096)">
      <defs>
       <path id="ArialMT-64" d="M 2575 0 
L 2575 419 
Q 2259 -75 1647 -75 
Q 1250 -75 917 144 
Q 584 363 401 755 
Q 219 1147 219 1656 
Q 219 2153 384 2558 
Q 550 2963 881 3178 
Q 1213 3394 1622 3394 
Q 1922 3394 2156 3267 
Q 2391 3141 2538 2938 
L 2538 4581 
L 3097 4581 
L 3097 0 
L 2575 0 
z
M 797 1656 
Q 797 1019 1065 703 
Q 1334 388 1700 388 
Q 2069 388 2326 689 
Q 2584 991 2584 1609 
Q 2584 2291 2321 2609 
Q 2059 2928 1675 2928 
Q 1300 2928 1048 2622 
Q 797 2316 797 1656 
z
" transform="scale(0.015625)"/>
       <path id="ArialMT-61" d="M 2588 409 
Q 2275 144 1986 34 
Q 1697 -75 1366 -75 
Q 819 -75 525 192 
Q 231 459 231 875 
Q 231 1119 342 1320 
Q 453 1522 633 1644 
Q 813 1766 1038 1828 
Q 1203 1872 1538 1913 
Q 2219 1994 2541 2106 
Q 2544 2222 2544 2253 
Q 2544 2597 2384 2738 
Q 2169 2928 1744 2928 
Q 1347 2928 1158 2789 
Q 969 2650 878 2297 
L 328 2372 
Q 403 2725 575 2942 
Q 747 3159 1072 3276 
Q 1397 3394 1825 3394 
Q 2250 3394 2515 3294 
Q 2781 3194 2906 3042 
Q 3031 2891 3081 2659 
Q 3109 2516 3109 2141 
L 3109 1391 
Q 3109 606 3145 398 
Q 3181 191 3288 0 
L 2700 0 
Q 2613 175 2588 409 
z
M 2541 1666 
Q 2234 1541 1622 1453 
Q 1275 1403 1131 1340 
Q 988 1278 909 1158 
Q 831 1038 831 891 
Q 831 666 1001 516 
Q 1172 366 1500 366 
Q 1825 366 2078 508 
Q 2331 650 2450 897 
Q 2541 1088 2541 1459 
L 2541 1666 
z
" transform="scale(0.015625)"/>
       <path id="ArialMT-79" d="M 397 -1278 
L 334 -750 
Q 519 -800 656 -800 
Q 844 -800 956 -737 
Q 1069 -675 1141 -563 
Q 1194 -478 1313 -144 
Q 1328 -97 1363 -6 
L 103 3319 
L 709 3319 
L 1400 1397 
Q 1534 1031 1641 628 
Q 1738 1016 1872 1384 
L 2581 3319 
L 3144 3319 
L 1881 -56 
Q 1678 -603 1566 -809 
Q 1416 -1088 1222 -1217 
Q 1028 -1347 759 -1347 
Q 597 -1347 397 -1278 
z
" transform="scale(0.015625)"/>
      </defs>
      <use xlink:href="#ArialMT-64"/>
      <use xlink:href="#ArialMT-61" x="55.615234"/>
      <use xlink:href="#ArialMT-79" x="111.230469"/>
     </g>
    </g>
   </g>
   <g id="matplotlib.axis_2">
    <g id="ytick_1">
     <g id="text_5">
      <!-- $\mathdefault{10^{-1}}$ -->
      <g style="fill: #262626" transform="translate(19.094 89.780626) scale(0.088 -0.088)">
       <defs>
        <path id="ArialMT-2212" d="M 3381 1997 
L 356 1997 
L 356 2522 
L 3381 2522 
L 3381 1997 
z
" transform="scale(0.015625)"/>
       </defs>
       <use xlink:href="#ArialMT-31" transform="translate(0 0.99375)"/>
       <use xlink:href="#ArialMT-30" transform="translate(55.615234 0.99375)"/>
       <use xlink:href="#ArialMT-2212" transform="translate(112.972813 70.6875) scale(0.7)"/>
       <use xlink:href="#ArialMT-31" transform="translate(153.851719 70.6875) scale(0.7)"/>
      </g>
     </g>
    </g>
    <g id="ytick_2">
     <g id="text_6">
      <!-- $\mathdefault{10^{0}}$ -->
      <g style="fill: #262626" transform="translate(22.702 58.005813) scale(0.088 -0.088)">
       <use xlink:href="#ArialMT-31" transform="translate(0 0.99375)"/>
       <use xlink:href="#ArialMT-30" transform="translate(55.615234 0.99375)"/>
       <use xlink:href="#ArialMT-30" transform="translate(112.972813 70.6875) scale(0.7)"/>
      </g>
     </g>
    </g>
    <g id="ytick_3">
     <g id="text_7">
      <!-- $\mathdefault{10^{1}}$ -->
      <g style="fill: #262626" transform="translate(22.702 26.231) scale(0.088 -0.088)">
       <use xlink:href="#ArialMT-31" transform="translate(0 0.99375)"/>
       <use xlink:href="#ArialMT-30" transform="translate(55.615234 0.99375)"/>
       <use xlink:href="#ArialMT-31" transform="translate(112.972813 70.6875) scale(0.7)"/>
      </g>
     </g>
    </g>
    <g id="ytick_4"/>
    <g id="ytick_5"/>
    <g id="ytick_6"/>
    <g id="ytick_7"/>
    <g id="ytick_8"/>
    <g id="ytick_9"/>
    <g id="ytick_10"/>
    <g id="ytick_11"/>
    <g id="ytick_12"/>
    <g id="ytick_13"/>
    <g id="ytick_14"/>
    <g id="ytick_15"/>
    <g id="ytick_16"/>
    <g id="ytick_17"/>
    <g id="ytick_18"/>
    <g id="ytick_19"/>
    <g id="ytick_20"/>
    <g id="ytick_21"/>
    <g id="ytick_22"/>
    <g id="ytick_23"/>
    <g id="ytick_24"/>
    <g id="ytick_25"/>
    <g id="ytick_26"/>
    <g id="text_8">
     <!-- Fluorescence -->
     <g style="fill: #262626" transform="translate(12.186 91.462) rotate(-90) scale(0.096 -0.096)">
      <defs>
       <path id="ArialMT-46" d="M 525 0 
L 525 4581 
L 3616 4581 
L 3616 4041 
L 1131 4041 
L 1131 2622 
L 3281 2622 
L 3281 2081 
L 1131 2081 
L 1131 0 
L 525 0 
z
" transform="scale(0.015625)"/>
       <path id="ArialMT-6c" d="M 409 0 
L 409 4581 
L 972 4581 
L 972 0 
L 409 0 
z
" transform="scale(0.015625)"/>
       <path id="ArialMT-75" d="M 2597 0 
L 2597 488 
Q 2209 -75 1544 -75 
Q 1250 -75 995 37 
Q 741 150 617 320 
Q 494 491 444 738 
Q 409 903 409 1263 
L 409 3319 
L 972 3319 
L 972 1478 
Q 972 1038 1006 884 
Q 1059 663 1231 536 
Q 1403 409 1656 409 
Q 1909 409 2131 539 
Q 2353 669 2445 892 
Q 2538 1116 2538 1541 
L 2538 3319 
L 3100 3319 
L 3100 0 
L 2597 0 
z
" transform="scale(0.015625)"/>
       <path id="ArialMT-6f" d="M 213 1659 
Q 213 2581 725 3025 
Q 1153 3394 1769 3394 
Q 2453 3394 2887 2945 
Q 3322 2497 3322 1706 
Q 3322 1066 3130 698 
Q 2938 331 2570 128 
Q 2203 -75 1769 -75 
Q 1072 -75 642 372 
Q 213 819 213 1659 
z
M 791 1659 
Q 791 1022 1069 705 
Q 1347 388 1769 388 
Q 2188 388 2466 706 
Q 2744 1025 2744 1678 
Q 2744 2294 2464 2611 
Q 2184 2928 1769 2928 
Q 1347 2928 1069 2612 
Q 791 2297 791 1659 
z
" transform="scale(0.015625)"/>
       <path id="ArialMT-72" d="M 416 0 
L 416 3319 
L 922 3319 
L 922 2816 
Q 1116 3169 1280 3281 
Q 1444 3394 1641 3394 
Q 1925 3394 2219 3213 
L 2025 2691 
Q 1819 2813 1613 2813 
Q 1428 2813 1281 2702 
Q 1134 2591 1072 2394 
Q 978 2094 978 1738 
L 978 0 
L 416 0 
z
" transform="scale(0.015625)"/>
       <path id="ArialMT-65" d="M 2694 1069 
L 3275 997 
Q 3138 488 2766 206 
Q 2394 -75 1816 -75 
Q 1088 -75 661 373 
Q 234 822 234 1631 
Q 234 2469 665 2931 
Q 1097 3394 1784 3394 
Q 2450 3394 2872 2941 
Q 3294 2488 3294 1666 
Q 3294 1616 3291 1516 
L 816 1516 
Q 847 969 1125 678 
Q 1403 388 1819 388 
Q 2128 388 2347 550 
Q 2566 713 2694 1069 
z
M 847 1978 
L 2700 1978 
Q 2663 2397 2488 2606 
Q 2219 2931 1791 2931 
Q 1403 2931 1139 2672 
Q 875 2413 847 1978 
z
" transform="scale(0.015625)"/>
       <path id="ArialMT-73" d="M 197 991 
L 753 1078 
Q 800 744 1014 566 
Q 1228 388 1613 388 
Q 2000 388 2187 545 
Q 2375 703 2375 916 
Q 2375 1106 2209 1216 
Q 2094 1291 1634 1406 
Q 1016 1563 777 1677 
Q 538 1791 414 1992 
Q 291 2194 291 2438 
Q 291 2659 392 2848 
Q 494 3038 669 3163 
Q 800 3259 1026 3326 
Q 1253 3394 1513 3394 
Q 1903 3394 2198 3281 
Q 2494 3169 2634 2976 
Q 2775 2784 2828 2463 
L 2278 2388 
Q 2241 2644 2061 2787 
Q 1881 2931 1553 2931 
Q 1166 2931 1000 2803 
Q 834 2675 834 2503 
Q 834 2394 903 2306 
Q 972 2216 1119 2156 
Q 1203 2125 1616 2013 
Q 2213 1853 2448 1751 
Q 2684 1650 2818 1456 
Q 2953 1263 2953 975 
Q 2953 694 2789 445 
Q 2625 197 2315 61 
Q 2006 -75 1616 -75 
Q 969 -75 630 194 
Q 291 463 197 991 
z
" transform="scale(0.015625)"/>
       <path id="ArialMT-63" d="M 2588 1216 
L 3141 1144 
Q 3050 572 2676 248 
Q 2303 -75 1759 -75 
Q 1078 -75 664 370 
Q 250 816 250 1647 
Q 250 2184 428 2587 
Q 606 2991 970 3192 
Q 1334 3394 1763 3394 
Q 2303 3394 2647 3120 
Q 2991 2847 3088 2344 
L 2541 2259 
Q 2463 2594 2264 2762 
Q 2066 2931 1784 2931 
Q 1359 2931 1093 2626 
Q 828 2322 828 1663 
Q 828 994 1084 691 
Q 1341 388 1753 388 
Q 2084 388 2306 591 
Q 2528 794 2588 1216 
z
" transform="scale(0.015625)"/>
       <path id="ArialMT-6e" d="M 422 0 
L 422 3319 
L 928 3319 
L 928 2847 
Q 1294 3394 1984 3394 
Q 2284 3394 2536 3286 
Q 2788 3178 2913 3003 
Q 3038 2828 3088 2588 
Q 3119 2431 3119 2041 
L 3119 0 
L 2556 0 
L 2556 2019 
Q 2556 2363 2490 2533 
Q 2425 2703 2258 2804 
Q 2091 2906 1866 2906 
Q 1506 2906 1245 2678 
Q 984 2450 984 1813 
L 984 0 
L 422 0 
z
" transform="scale(0.015625)"/>
      </defs>
      <use xlink:href="#ArialMT-46"/>
      <use xlink:href="#ArialMT-6c" x="61.083984"/>
      <use xlink:href="#ArialMT-75" x="83.300781"/>
      <use xlink:href="#ArialMT-6f" x="138.916016"/>
      <use xlink:href="#ArialMT-72" x="194.53125"/>
      <use xlink:href="#ArialMT-65" x="227.832031"/>
      <use xlink:href="#ArialMT-73" x="283.447266"/>
      <use xlink:href="#ArialMT-63" x="333.447266"/>
      <use xlink:href="#ArialMT-65" x="383.447266"/>
      <use xlink:href="#ArialMT-6e" x="439.0625"/>
      <use xlink:href="#ArialMT-63" x="494.677734"/>
      <use xlink:href="#ArialMT-65" x="544.677734"/>
     </g>
    </g>
   </g>
   <g id="line2d_1">
    <path d="M 45.318 83.373558 
L 46.500857 98.762095 
L 47.684473 79.71827 
L 48.321455 74.804971 
L 49.422316 70.683918 
L 50.457886 63.103896 
L 51.571654 53.988608 
L 52.67783 49.75889 
L 52.67783 48.628465 
L 52.67783 47.978217 
L 54.046695 40.641422 
L 55.09593 42.175693 
L 55.972824 48.60113 
L 55.972824 48.083024 
L 55.972824 47.012226 
L 57.163273 55.858217 
L 57.163273 54.791621 
L 57.163273 53.306358 
L 58.128994 57.665742 
L 58.128994 56.392057 
L 58.128994 55.43358 
L 59.345257 56.78172 
L 59.345257 56.716007 
L 59.345257 55.889054 
L 60.291239 56.201276 
L 60.291239 56.169734 
L 60.291239 55.493448 
L 62.964435 58.780547 
L 63.605212 60.458351 
L 63.605212 59.725826 
L 63.605212 58.257629 
L 64.698482 62.467855 
L 64.698482 62.221427 
L 64.698482 61.741392 
L 65.775049 66.281179 
L 65.775049 65.118749 
L 65.775049 64.703245 
L 66.867559 66.952826 
L 66.867559 66.884171 
L 66.867559 66.412919 
L 68.034473 66.379866 
L 68.034473 66.085898 
L 68.034473 64.674039 
L 69.239347 72.411123 
L 69.239347 71.189119 
L 69.239347 70.196561 
L 71.445626 76.346997 
L 71.445626 75.61879 
L 71.445626 75.237209 
L 73.452991 76.415143 
L 73.452991 75.050304 
L 73.452991 74.98856 
L 74.559926 79.981128 
L 74.559926 79.631751 
L 74.559926 78.795154 
L 75.768596 86.825454 
L 75.768596 86.256317 
L 75.768596 82.819282 
L 77.879973 98.762095 
L 79.292873 98.762095 
L 80.103714 98.762095 
L 80.103714 96.246126 
L 80.103714 95.141566 
L 81.154468 98.762095 
L 81.154468 98.762095 
L 81.154468 96.246126 
L 82.200666 98.762095 
L 82.200666 98.762095 
L 82.200666 96.246126 
L 83.331897 98.762095 
L 83.331897 98.762095 
L 83.331897 96.246126 
L 85.662687 98.762095 
L 86.631445 98.762095 
L 86.631445 98.762095 
L 86.631445 86.396416 
L 88.948569 98.762095 
L 88.948569 98.762095 
L 88.948569 91.851583 
L 89.971991 98.762095 
L 91.054632 96.246126 
L 94.251686 98.762095 
L 96.476946 98.762095 
L 97.706115 98.762095 
L 98.680947 95.141566 
L 99.880507 98.762095 
L 101.931906 98.762095 
L 103.263569 98.762095 
L 105.222343 98.762095 
L 109.643253 91.851583 
L 110.817758 98.762095 
L 114.076309 98.762095 
L 117.09267 98.762095 
L 118.559474 98.762095 
L 119.642874 98.762095 
L 121.630499 98.762095 
L 124.880698 98.762095 
L 125.967135 98.762095 
L 129.433711 98.762095 
L 132.555603 98.762095 
L 133.751367 98.762095 
L 134.920558 96.246126 
L 137.391803 98.762095 
L 140.314781 98.762095 
L 141.301001 98.762095 
L 142.344162 98.762095 
L 144.805538 98.762095 
L 147.853027 96.246126 
L 149.088269 98.762095 
L 151.184462 98.762095 
L 152.456147 97.764097 
L 155.455806 98.762095 
L 163.079084 98.762095 
L 166.609434 98.762095 
L 171.968733 97.764097 
L 175.186286 95.141566 
L 178.453948 98.762095 
L 186.095447 98.762095 
" clip-path="url(#p39ccf09e40)" style="fill: none; stroke: #000000; stroke-width: 3; stroke-linecap: round"/>
   </g>
   <g id="line2d_2">
    <path d="M 45.318 92.062269 
L 46.500857 92.714341 
L 47.684473 80.990188 
L 48.321455 74.744313 
L 49.422316 69.767967 
L 50.457886 62.617853 
L 51.571654 54.607529 
L 52.67783 48.447246 
L 52.67783 47.592128 
L 52.67783 47.365556 
L 54.046695 39.650203 
L 55.09593 41.473865 
L 55.972824 47.324003 
L 55.972824 47.118096 
L 55.972824 46.778942 
L 57.163273 55.211359 
L 57.163273 55.079724 
L 57.163273 54.863085 
L 58.128994 54.42586 
L 58.128994 54.384274 
L 58.128994 54.315241 
L 59.345257 56.716007 
L 59.345257 55.705056 
L 59.345257 55.43358 
L 60.291239 55.904499 
L 60.291239 55.448522 
L 60.291239 54.398122 
L 62.964435 60.872917 
L 63.605212 60.266242 
L 63.605212 59.931182 
L 63.605212 58.876046 
L 64.698482 64.32831 
L 64.698482 63.103896 
L 64.698482 62.567672 
L 65.775049 68.402939 
L 65.775049 67.914738 
L 65.775049 66.884171 
L 66.867559 70.865495 
L 66.867559 70.819876 
L 66.867559 68.21312 
L 68.034473 73.418068 
L 68.034473 73.199888 
L 68.034473 71.189119 
L 69.239347 80.707592 
L 69.239347 78.958465 
L 69.239347 77.853906 
L 71.445626 85.709725 
L 71.445626 83.260908 
L 71.445626 83.038328 
L 73.452991 87.419078 
L 73.452991 85.055592 
L 73.452991 83.260908 
L 74.559926 95.141566 
L 74.559926 89.904752 
L 74.559926 83.149169 
L 75.768596 96.246126 
L 75.768596 91.851583 
L 75.768596 91.039607 
L 77.879973 98.762095 
L 79.292873 98.762095 
L 80.103714 98.762095 
L 80.103714 98.762095 
L 80.103714 98.088809 
L 81.154468 98.762095 
L 81.154468 98.762095 
L 81.154468 96.246126 
L 82.200666 96.536655 
L 82.200666 96.246126 
L 82.200666 94.878708 
L 83.331897 98.762095 
L 83.331897 95.141566 
L 83.331897 95.141566 
L 85.662687 98.762095 
L 86.631445 98.762095 
L 86.631445 98.762095 
L 86.631445 98.762095 
L 88.948569 98.762095 
L 88.948569 98.762095 
L 88.948569 98.762095 
L 89.971991 98.762095 
L 91.054632 98.762095 
L 94.251686 98.762095 
L 96.476946 98.762095 
L 97.706115 97.764097 
L 98.680947 89.904752 
L 99.880507 98.762095 
L 101.931906 98.762095 
L 103.263569 97.44685 
L 105.222343 98.762095 
L 109.643253 98.762095 
L 110.817758 97.764097 
L 114.076309 98.762095 
L 117.09267 98.762095 
L 118.559474 98.762095 
L 119.642874 98.762095 
L 121.630499 98.762095 
L 124.880698 98.762095 
L 125.967135 98.762095 
L 129.433711 98.762095 
L 132.555603 98.762095 
L 133.751367 98.762095 
L 134.920558 98.762095 
L 137.391803 98.762095 
L 140.314781 98.762095 
L 141.301001 97.764097 
L 142.344162 98.762095 
L 144.805538 93.39876 
L 147.853027 98.762095 
L 149.088269 98.762095 
L 151.184462 98.762095 
L 152.456147 98.762095 
L 155.455806 98.762095 
L 163.079084 98.762095 
L 166.609434 98.762095 
L 171.968733 98.762095 
L 175.186286 92.493542 
L 178.453948 98.762095 
L 186.095447 98.762095 
" clip-path="url(#p39ccf09e40)" style="fill: none; stroke: #000000; stroke-width: 3; stroke-linecap: round"/>
   </g>
   <g id="line2d_3">
    <path d="M 45.318 77.929937 
L 46.500857 92.276221 
L 47.684473 80.069872 
L 48.321455 75.112325 
L 49.422316 68.364765 
L 50.457886 60.566246 
L 51.571654 53.370512 
L 52.67783 47.224784 
L 52.67783 46.939405 
L 52.67783 46.667719 
L 54.046695 38.967856 
L 55.09593 43.594753 
L 55.972824 48.830593 
L 55.972824 48.492328 
L 55.972824 47.200091 
L 57.163273 56.091193 
L 57.163273 54.635691 
L 57.163273 54.384274 
L 58.128994 55.950936 
L 58.128994 55.553577 
L 58.128994 55.007132 
L 59.345257 57.842436 
L 59.345257 57.318999 
L 59.345257 57.047745 
L 60.291239 58.20276 
L 60.291239 57.199669 
L 60.291239 56.075538 
L 62.964435 59.993389 
L 63.605212 62.027404 
L 63.605212 61.461187 
L 63.605212 61.141313 
L 64.698482 65.331289 
L 64.698482 65.05862 
L 64.698482 63.607684 
L 65.775049 69.683823 
L 65.775049 68.909047 
L 65.775049 67.951685 
L 66.867559 72.157912 
L 66.867559 70.327779 
L 66.867559 69.600188 
L 68.034473 76.90183 
L 68.034473 76.415143 
L 68.034473 70.911265 
L 69.239347 87.571561 
L 69.239347 77.703089 
L 69.239347 75.945037 
L 71.445626 85.055592 
L 71.445626 83.833588 
L 71.445626 80.895344 
L 73.452991 89.025497 
L 73.452991 82.819282 
L 73.452991 81.874452 
L 74.559926 89.196923 
L 74.559926 85.055592 
L 74.559926 83.717135 
L 75.768596 98.762095 
L 75.768596 95.141566 
L 75.768596 91.039607 
L 77.879973 98.762095 
L 79.292873 98.762095 
L 80.103714 98.762095 
L 80.103714 98.762095 
L 80.103714 98.762095 
L 81.154468 98.762095 
L 81.154468 98.762095 
L 81.154468 98.762095 
L 82.200666 98.762095 
L 82.200666 98.762095 
L 82.200666 96.246126 
L 83.331897 98.762095 
L 83.331897 98.762095 
L 83.331897 92.062269 
L 85.662687 98.762095 
L 86.631445 98.762095 
L 86.631445 98.762095 
L 86.631445 98.762095 
L 88.948569 98.762095 
L 88.948569 98.762095 
L 88.948569 98.762095 
L 89.971991 98.762095 
L 91.054632 98.762095 
L 94.251686 98.762095 
L 96.476946 98.762095 
L 97.706115 98.762095 
L 98.680947 98.762095 
L 99.880507 98.762095 
L 101.931906 98.762095 
L 103.263569 98.762095 
L 105.222343 98.762095 
L 109.643253 98.762095 
L 110.817758 98.762095 
L 114.076309 98.762095 
L 117.09267 94.878708 
L 118.559474 98.762095 
L 119.642874 97.44685 
L 121.630499 98.762095 
L 124.880698 96.246126 
L 125.967135 98.762095 
L 129.433711 95.141566 
L 132.555603 98.762095 
L 133.751367 97.764097 
L 134.920558 98.762095 
L 137.391803 98.762095 
L 140.314781 98.762095 
L 141.301001 94.878708 
L 142.344162 97.764097 
L 144.805538 98.762095 
L 147.853027 98.762095 
L 149.088269 98.762095 
L 151.184462 98.762095 
L 152.456147 98.762095 
L 155.455806 98.762095 
L 163.079084 98.762095 
L 166.609434 98.762095 
L 171.968733 98.762095 
L 175.186286 95.141566 
L 178.453948 98.762095 
L 186.095447 98.762095 
" clip-path="url(#p39ccf09e40)" style="fill: none; stroke: #000000; stroke-width: 3; stroke-linecap: round"/>
   </g>
   <g id="patch_3">
    <path d="M 45.318 102.732 
L 45.318 22.568 
" style="fill: none; stroke: #262626; stroke-linejoin: miter; stroke-linecap: square"/>
   </g>
   <g id="patch_4">
    <path d="M 45.318 102.732 
L 198.37575 102.732 
" style="fill: none; stroke: #262626; stroke-linejoin: miter; stroke-linecap: square"/>
   </g>
   <g id="text_9">
    <!-- Axenic -->
    <g style="fill: #262626" transform="translate(107.440125 17.568) scale(0.096 -0.096)">
     <defs>
      <path id="ArialMT-41" d="M -9 0 
L 1750 4581 
L 2403 4581 
L 4278 0 
L 3588 0 
L 3053 1388 
L 1138 1388 
L 634 0 
L -9 0 
z
M 1313 1881 
L 2866 1881 
L 2388 3150 
Q 2169 3728 2063 4100 
Q 1975 3659 1816 3225 
L 1313 1881 
z
" transform="scale(0.015625)"/>
      <path id="ArialMT-78" d="M 47 0 
L 1259 1725 
L 138 3319 
L 841 3319 
L 1350 2541 
Q 1494 2319 1581 2169 
Q 1719 2375 1834 2534 
L 2394 3319 
L 3066 3319 
L 1919 1756 
L 3153 0 
L 2463 0 
L 1781 1031 
L 1600 1309 
L 728 0 
L 47 0 
z
" transform="scale(0.015625)"/>
      <path id="ArialMT-69" d="M 425 3934 
L 425 4581 
L 988 4581 
L 988 3934 
L 425 3934 
z
M 425 0 
L 425 3319 
L 988 3319 
L 988 0 
L 425 0 
z
" transform="scale(0.015625)"/>
     </defs>
     <use xlink:href="#ArialMT-41"/>
     <use xlink:href="#ArialMT-78" x="66.699219"/>
     <use xlink:href="#ArialMT-65" x="116.699219"/>
     <use xlink:href="#ArialMT-6e" x="172.314453"/>
     <use xlink:href="#ArialMT-69" x="227.929688"/>
     <use xlink:href="#ArialMT-63" x="250.146484"/>
    </g>
   </g>
  </g>
 </g>
 <defs>
  <clipPath id="p39ccf09e40">
   <rect x="45.318" y="22.568" width="153.05775" height="80.164"/>
  </clipPath>
 </defs>
</svg>
